<?xml version="1.0" encoding="UTF-8" standalone="no"?>
<svg
   width="451.52316mm"
   height="162.82199mm"
   viewBox="0 0 451.52316 162.82198"
   version="1.1"
   id="svg8"
   xmlns="http://www.w3.org/2000/svg"
   xmlns:svg="http://www.w3.org/2000/svg"
   xmlns:rdf="http://www.w3.org/1999/02/22-rdf-syntax-ns#"
   xmlns:cc="http://creativecommons.org/ns#"
   xmlns:dc="http://purl.org/dc/elements/1.1/">
  <defs
     id="defs2" />
  <metadata
     id="metadata5">
    <rdf:RDF>
      <cc:Work
         rdf:about="">
        <dc:format>image/svg+xml</dc:format>
        <dc:type
           rdf:resource="http://purl.org/dc/dcmitype/StillImage" />
      </cc:Work>
    </rdf:RDF>
  </metadata>
  <g
     id="g2106"
     transform="matrix(0.96564264,0,0,0.96251987,-846.8299,244.29116)">
    <circle
       style="fill:#009688;fill-opacity:0.980392;stroke:none;stroke-width:0.141404;stop-color:#000000"
       id="path875-5-9-7-3-2-3-9-9-8-0-0-5-87-7"
       cx="964.56165"
       cy="-169.22266"
       r="33.234192" />
    <path
       id="rect1249-6-3-4-4-3-6-6-1-2"
       style="fill:#ffffff;fill-opacity:0.980392;stroke:none;stroke-width:0.146895;stop-color:#000000"
       d="m 962.2685,-187.40837 -6.64403,14.80375 -3.03599,6.76393 -6.64456,14.80375 30.59142,-21.56768 h -14.35312 l 20.99715,-14.80375 z" />
  </g>
  <path
     style="font-size:79.7151px;line-height:1.25;font-family:Ubuntu;-inkscape-font-specification:Ubuntu;letter-spacing:0px;word-spacing:0px;fill:#009688;stroke-width:1.99288"
     d="M 142.02261,108.83303 V 53.590465 h 33.32092 v 6.616353 h -25.58855 v 16.660457 h 22.71881 v 6.536638 h -22.71881 v 25.429117 z m 52.29297,-5.34091 q 2.6306,0 4.62348,-0.0797 2.07259,-0.15943 3.42774,-0.47829 V 90.578273 q -0.79715,-0.398576 -2.63059,-0.637721 -1.75374,-0.31886 -4.30462,-0.31886 -1.67402,0 -3.58718,0.239145 -1.83345,0.239145 -3.42775,1.036296 -1.51459,0.717436 -2.55088,2.072593 -1.0363,1.275442 -1.0363,3.427749 0,3.985755 2.55089,5.580055 2.55088,1.51459 6.93521,1.51459 z m -0.63772,-37.147239 q 4.46404,0 7.49322,1.195727 3.10889,1.116011 4.94233,3.268319 1.91317,2.072593 2.71032,5.022052 0.79715,2.869743 0.79715,6.377208 V 108.1156 q -0.95658,0.15943 -2.71031,0.47829 -1.67402,0.23914 -3.82633,0.47829 -2.15231,0.23914 -4.70319,0.39857 -2.47117,0.23915 -4.94234,0.23915 -3.50746,0 -6.45692,-0.71744 -2.94946,-0.71743 -5.10177,-2.23202 -2.1523,-1.5943 -3.34803,-4.14519 -1.19573,-2.55088 -1.19573,-6.13806 0,-3.427749 1.35516,-5.898917 1.43487,-2.471168 3.82632,-3.985755 2.39146,-1.514587 5.58006,-2.232023 3.18861,-0.717436 6.69607,-0.717436 1.11601,0 2.31174,0.15943 1.19572,0.07972 2.23202,0.31886 1.11601,0.159431 1.91316,0.318861 0.79715,0.15943 1.11601,0.239145 v -2.072593 q 0,-1.833447 -0.39857,-3.587179 -0.39858,-1.833448 -1.43487,-3.188604 -1.0363,-1.434872 -2.86975,-2.232023 -1.75373,-0.876866 -4.62347,-0.876866 -3.6669,0 -6.45693,0.558005 -2.71031,0.478291 -4.06547,1.036297 l -0.87686,-6.138063 q 1.43487,-0.637721 4.7829,-1.195727 3.34804,-0.637721 7.25408,-0.637721 z m 37.86462,37.147239 q 4.54377,0 6.69607,-1.19573 2.23203,-1.19572 2.23203,-3.826322 0,-2.710314 -2.15231,-4.304616 -2.15231,-1.594302 -7.09465,-3.587179 -2.39145,-0.956581 -4.62347,-1.913163 -2.15231,-1.036296 -3.74661,-2.391453 -1.5943,-1.355157 -2.55088,-3.268319 -0.95659,-1.913163 -0.95659,-4.703191 0,-5.500342 4.06547,-8.688946 4.06547,-3.26832 11.0804,-3.26832 1.75374,0 3.50747,0.239146 1.75373,0.15943 3.26832,0.47829 1.51458,0.239146 2.6306,0.558006 1.19572,0.31886 1.83344,0.558006 l -1.35515,6.377208 q -1.19573,-0.637721 -3.74661,-1.275442 -2.55089,-0.717436 -6.13807,-0.717436 -3.10889,0 -5.42062,1.275442 -2.31174,1.195727 -2.31174,3.826325 0,1.355157 0.47829,2.391453 0.55801,1.036296 1.5943,1.913163 1.11601,0.797151 2.71031,1.514587 1.59431,0.717436 3.82633,1.514587 2.94946,1.116011 5.2612,2.232022 2.31173,1.036297 3.90604,2.471169 1.67401,1.434871 2.55088,3.507464 0.87687,1.992878 0.87687,4.942337 0,5.739482 -4.30462,8.688942 -4.2249,2.94946 -12.1167,2.94946 -5.50034,0 -8.60923,-0.95658 -3.10889,-0.87686 -4.2249,-1.35515 l 1.35516,-6.37721 q 1.27544,0.47829 4.06547,1.43487 2.79003,0.95658 7.4135,0.95658 z m 32.84256,-36.110942 h 15.70387 v 6.217778 h -15.70387 v 19.131625 q 0,3.108889 0.47829,5.181481 0.47829,1.992878 1.43487,3.188608 0.95658,1.11601 2.39145,1.5943 1.43487,0.47829 3.34804,0.47829 3.34803,0 5.34091,-0.71744 2.07259,-0.79715 2.86974,-1.11601 l 1.43487,6.13806 q -1.11601,0.55801 -3.90604,1.35516 -2.79003,0.87687 -6.37721,0.87687 -4.2249,0 -7.01492,-1.0363 -2.71032,-1.11601 -4.38434,-3.26832 -1.67401,-2.15231 -2.39145,-5.2612 -0.63772,-3.188599 -0.63772,-7.333784 V 55.822488 l 7.41351,-1.275442 z m 62.49652,41.451852 q -1.35516,-3.58718 -2.55088,-7.01493 -1.19573,-3.507462 -2.47117,-7.094642 h -25.03054 l -5.02205,14.109572 h -8.05123 q 3.18861,-8.76866 5.97863,-16.182165 2.79003,-7.493219 5.42063,-14.189288 2.71031,-6.696069 5.34091,-12.754416 2.6306,-6.138063 5.50034,-12.116696 h 7.09465 q 2.86974,5.978633 5.50034,12.116696 2.6306,6.058347 5.2612,12.754416 2.71031,6.696069 5.50034,14.189288 2.79003,7.413505 5.97863,16.182165 z m -7.25407,-20.48678 q -2.55089,-6.935214 -5.10177,-13.392137 -2.47117,-6.536639 -5.18148,-12.515272 -2.79003,5.978633 -5.34091,12.515272 -2.47117,6.456923 -4.94234,13.392137 z m 37.86453,-35.313791 q 11.6384,0 17.85618,4.464046 6.29749,4.384331 6.29749,13.152992 0,4.782906 -1.75373,8.210656 -1.67402,3.348034 -4.94234,5.500342 -3.1886,2.072592 -7.81208,3.029174 -4.62347,0.956581 -10.44268,0.956581 h -6.13806 v 20.48678 h -7.73236 V 54.387616 q 3.26832,-0.797151 7.25407,-1.036296 4.06547,-0.318861 7.41351,-0.318861 z m 0.63772,6.775784 q -4.94234,0 -7.57294,0.239145 v 21.682508 h 5.8192 q 3.98576,0 7.17436,-0.47829 3.18861,-0.558006 5.34092,-1.753733 2.23202,-1.275441 3.42774,-3.427749 1.19573,-2.152308 1.19573,-5.500342 0,-3.188604 -1.27544,-5.261197 -1.19573,-2.072593 -3.34803,-3.268319 -2.0726,-1.275442 -4.86263,-1.753732 -2.79002,-0.478291 -5.89891,-0.478291 z m 33.16146,-6.217778 h 7.73237 v 55.242565 h -7.73237 z"
     id="text979-1"
     aria-label="FastAPI" />
  <rect
     y="7.1054274e-15"
     x="0"
     height="162.82199"
     width="451.52316"
     id="rect824"
     style="opacity:0.98000004;fill:none;fill-opacity:1;stroke-width:0.31103656" />
  <g
     id="layer1"
     transform="translate(83.131114,-6.0791148)" />
</svg>
