<?xml version="1.0" encoding="UTF-8" standalone="no"?>
<svg
   xmlns:dc="http://purl.org/dc/elements/1.1/"
   xmlns:cc="http://creativecommons.org/ns#"
   xmlns:rdf="http://www.w3.org/1999/02/22-rdf-syntax-ns#"
   xmlns:svg="http://www.w3.org/2000/svg"
   xmlns="http://www.w3.org/2000/svg"
   width="451.52316mm"
   height="162.82199mm"
   viewBox="0 0 451.52316 162.82198"
   version="1.1"
   id="svg8">
  <defs
     id="defs2" />
  <metadata
     id="metadata5">
    <rdf:RDF>
      <cc:Work
         rdf:about="">
        <dc:format>image/svg+xml</dc:format>
        <dc:type
           rdf:resource="http://purl.org/dc/dcmitype/StillImage" />
        <dc:title></dc:title>
      </cc:Work>
    </rdf:RDF>
  </metadata>
  <rect
     y="7.1054274e-15"
     x="0"
     height="162.82199"
     width="451.52316"
     id="rect824"
     style="opacity:0.98000004;fill:none;fill-opacity:1;stroke-width:0.31103656" />
  <g
     id="layer1"
     transform="translate(83.131114,-6.0791148)">
    <path
       d="m 1.4365174,55.50154 c -17.6610514,0 -31.9886064,14.327532 -31.9886064,31.988554 0,17.661036 14.327555,31.988586 31.9886064,31.988586 17.6609756,0 31.9885196,-14.32755 31.9885196,-31.988586 0,-17.661022 -14.327544,-31.988554 -31.9885196,-31.988554 z m -1.66678692,57.63069 V 93.067264 H -11.384533 L 4.6417437,61.847974 V 81.912929 H 15.379405 Z"
       id="path817"
       style="opacity:0.98000004;fill:#009688;fill-opacity:1;stroke-width:3.20526505" />
    <g
       id="text979"
       style="font-style:normal;font-weight:normal;font-size:79.71511078px;line-height:1.25;font-family:sans-serif;letter-spacing:0px;word-spacing:0px;fill:#009688;fill-opacity:1;stroke:none;stroke-width:1.99287772"
       aria-label="FastAPI">
      <path
         id="path845"
         style="font-style:normal;font-variant:normal;font-weight:normal;font-stretch:normal;font-family:Ubuntu;-inkscape-font-specification:Ubuntu;fill:#009688;fill-opacity:1;stroke-width:1.99287772"
         d="M 58.970932,114.91215 V 59.669576 H 92.291849 V 66.28593 H 66.703298 v 16.660458 h 22.718807 v 6.536639 H 66.703298 v 25.429123 z" />
      <path
         id="path847"
         style="font-style:normal;font-variant:normal;font-weight:normal;font-stretch:normal;font-family:Ubuntu;-inkscape-font-specification:Ubuntu;fill:#009688;fill-opacity:1;stroke-width:1.99287772"
         d="m 111.2902,109.57124 q 2.6306,0 4.62348,-0.0797 2.07259,-0.15943 3.42775,-0.47829 V 96.657387 q -0.79715,-0.398575 -2.6306,-0.637721 -1.75373,-0.31886 -4.30462,-0.31886 -1.67401,0 -3.58718,0.239145 -1.83344,0.239145 -3.42775,1.036297 -1.51458,0.717436 -2.55088,2.072592 -1.0363,1.27544 -1.0363,3.42775 0,3.98576 2.55089,5.58006 2.55088,1.51459 6.93521,1.51459 z m -0.63772,-37.147247 q 4.46405,0 7.49322,1.195727 3.10889,1.116012 4.94234,3.26832 1.91316,2.072593 2.71031,5.022052 0.79715,2.869744 0.79715,6.377209 v 25.907409 q -0.95658,0.15943 -2.71031,0.47829 -1.67402,0.23915 -3.82633,0.47829 -2.1523,0.23915 -4.70319,0.39858 -2.47117,0.23914 -4.94233,0.23914 -3.50747,0 -6.45693,-0.71743 -2.94946,-0.71744 -5.101766,-2.23203 -2.152308,-1.5943 -3.348035,-4.14518 -1.195726,-2.55088 -1.195726,-6.13806 0,-3.427754 1.355157,-5.898923 1.434872,-2.471168 3.826325,-3.985755 2.391455,-1.514587 5.580055,-2.232023 3.18861,-0.717436 6.69607,-0.717436 1.11601,0 2.31174,0.15943 1.19573,0.07972 2.23202,0.31886 1.11601,0.15943 1.91317,0.318861 0.79715,0.15943 1.11601,0.239145 v -2.072593 q 0,-1.833447 -0.39858,-3.58718 -0.39857,-1.833447 -1.43487,-3.188604 -1.0363,-1.434872 -2.86974,-2.232023 -1.75374,-0.876867 -4.62348,-0.876867 -3.6669,0 -6.45692,0.558006 -2.71032,0.478291 -4.065475,1.036297 l -0.876866,-6.138064 q 1.434871,-0.637721 4.782911,-1.195727 3.34803,-0.637721 7.25407,-0.637721 z" />
      <path
         id="path849"
         style="font-style:normal;font-variant:normal;font-weight:normal;font-stretch:normal;font-family:Ubuntu;-inkscape-font-specification:Ubuntu;fill:#009688;fill-opacity:1;stroke-width:1.99287772"
         d="m 148.47606,109.57124 q 4.54376,0 6.69607,-1.19573 2.23202,-1.19573 2.23202,-3.82633 0,-2.71031 -2.1523,-4.30461 -2.15231,-1.594305 -7.09465,-3.587183 -2.39145,-0.956581 -4.62348,-1.913163 -2.1523,-1.036296 -3.74661,-2.391453 -1.5943,-1.355157 -2.55088,-3.268319 -0.95658,-1.913163 -0.95658,-4.703192 0,-5.500343 4.06547,-8.688947 4.06547,-3.26832 11.0804,-3.26832 1.75373,0 3.50746,0.239146 1.75374,0.15943 3.26832,0.47829 1.51459,0.239146 2.6306,0.558006 1.19573,0.318861 1.83345,0.558006 l -1.35516,6.377209 q -1.19572,-0.637721 -3.74661,-1.275442 -2.55088,-0.717436 -6.13806,-0.717436 -3.10889,0 -5.42063,1.275442 -2.31174,1.195727 -2.31174,3.826325 0,1.355157 0.47829,2.391454 0.55801,1.036296 1.59431,1.913162 1.11601,0.797151 2.71031,1.514587 1.5943,0.717436 3.82633,1.514587 2.94946,1.116012 5.26119,2.232024 2.31174,1.036296 3.90604,2.471168 1.67402,1.434872 2.55089,3.507465 0.87686,1.992874 0.87686,4.942334 0,5.73949 -4.30461,8.68895 -4.2249,2.94946 -12.1167,2.94946 -5.50034,0 -8.60923,-0.95658 -3.10889,-0.87687 -4.2249,-1.35516 l 1.35515,-6.37721 q 1.27545,0.47829 4.06548,1.43487 2.79002,0.95659 7.4135,0.95659 z" />
      <path
         id="path851"
         style="font-style:normal;font-variant:normal;font-weight:normal;font-stretch:normal;font-family:Ubuntu;-inkscape-font-specification:Ubuntu;fill:#009688;fill-opacity:1;stroke-width:1.99287772"
         d="m 181.26388,73.46029 h 15.70387 v 6.217779 h -15.70387 v 19.131626 q 0,3.108885 0.47829,5.181485 0.47829,1.99288 1.43487,3.1886 0.95658,1.11601 2.39145,1.5943 1.43488,0.47829 3.34804,0.47829 3.34803,0 5.34091,-0.71743 2.07259,-0.79715 2.86974,-1.11601 l 1.43488,6.13806 q -1.11601,0.55801 -3.90604,1.35516 -2.79003,0.87686 -6.37721,0.87686 -4.2249,0 -7.01493,-1.03629 -2.71032,-1.11601 -4.38433,-3.26832 -1.67402,-2.15231 -2.39146,-5.2612 -0.63772,-3.1886 -0.63772,-7.33379 V 61.901599 l 7.41351,-1.275442 z" />
      <path
         id="path853"
         style="font-style:normal;font-variant:normal;font-weight:normal;font-stretch:normal;font-family:Ubuntu;-inkscape-font-specification:Ubuntu;fill:#009688;fill-opacity:1;stroke-width:1.99287772"
         d="m 243.78793,114.91215 q -1.35515,-3.58718 -2.55088,-7.01493 -1.19573,-3.50747 -2.47117,-7.09465 h -25.03054 l -5.02206,14.10958 h -8.05122 q 3.1886,-8.76866 5.97863,-16.18217 2.79003,-7.49322 5.42063,-14.18929 2.71031,-6.696069 5.34091,-12.754417 2.6306,-6.138064 5.50034,-12.116697 h 7.09465 q 2.86974,5.978633 5.50034,12.116697 2.6306,6.058348 5.2612,12.754417 2.71031,6.69607 5.50034,14.18929 2.79003,7.41351 5.97864,16.18217 z m -7.25407,-20.486786 q -2.55089,-6.935215 -5.10177,-13.392139 -2.47117,-6.536639 -5.18148,-12.515272 -2.79003,5.978633 -5.34091,12.515272 -2.47117,6.456924 -4.94234,13.392139 z" />
      <path
         id="path855"
         style="font-style:normal;font-variant:normal;font-weight:normal;font-stretch:normal;font-family:Ubuntu;-inkscape-font-specification:Ubuntu;fill:#009688;fill-opacity:1;stroke-width:1.99287772"
         d="m 274.32754,59.11157 q 11.6384,0 17.85618,4.464046 6.2975,4.384331 6.2975,13.152993 0,4.782907 -1.75374,8.210657 -1.67401,3.348035 -4.94233,5.500343 -3.18861,2.072592 -7.81208,3.029174 -4.62348,0.956581 -10.44268,0.956581 h -6.13807 v 20.486786 h -7.73236 V 60.466727 q 3.26832,-0.797151 7.25407,-1.036297 4.06547,-0.31886 7.41351,-0.31886 z m 0.63772,6.775784 q -4.94234,0 -7.57294,0.239146 v 21.68251 h 5.81921 q 3.98575,0 7.17436,-0.478291 3.1886,-0.558006 5.34091,-1.753732 2.23202,-1.275442 3.42775,-3.42775 1.19573,-2.152308 1.19573,-5.500343 0,-3.188604 -1.27545,-5.261197 -1.19572,-2.072593 -3.34803,-3.26832 -2.07259,-1.275441 -4.86262,-1.753732 -2.79003,-0.478291 -5.89892,-0.478291 z" />
      <path
         id="path857"
         style="font-style:normal;font-variant:normal;font-weight:normal;font-stretch:normal;font-family:Ubuntu;-inkscape-font-specification:Ubuntu;fill:#009688;fill-opacity:1;stroke-width:1.99287772"
         d="m 308.08066,59.669576 h 7.73236 v 55.242574 h -7.73236 z" />
    </g>
  </g>
</svg>
