<svg width="240" height="100" viewBox="0 0 240 100" fill="none" xmlns="http://www.w3.org/2000/svg">
<rect width="240" height="100" fill="#0B1020"/>
<g transform="translate(22.1 35.15) scale(1.1)">
<path d="M16.7799 0.19017C23.9999 0.19017 29.85 6.19016 29.85 13.5902C29.85 20.9902 23.9999 26.9902 16.7799 26.9902V0.180176V0.19017Z" fill="#F66135"/>
<path d="M7.52991 0C14.4399 2.13 18.3599 9.61 16.2799 16.7C14.1999 23.79 6.91 27.8 0 25.67L7.52991 0Z" fill="#F66135"/>
<path d="M45.0299 20.8301C46.9999 20.8301 48.3899 19.8401 48.3899 17.6901C48.3899 15.5401 46.7599 14.6101 44.9099 14.6101H41.46V20.8301H45.0299ZM44.9399 11.5301C46.7799 11.5301 47.9299 10.3801 47.9299 8.70007C47.9299 7.02007 46.75 6.00008 45 6.00008H41.46V11.5301H44.9399ZM45.4199 2.58008C49.5299 2.58008 51.9199 5.03008 51.9199 8.30008C51.9199 10.2901 50.9499 11.9101 49.4399 12.8101V13.0001C50.8299 13.5901 52.62 15.1401 52.62 18.0301C52.62 22.0401 49.5299 24.3401 46.0299 24.3401H37.59V2.58008H45.4299H45.4199Z" fill="white"/>
<path d="M66.7799 16.1998C66.7799 13.1198 64.96 11.2598 62.48 11.2598C60 11.2598 58.24 13.3098 58.24 16.1998C58.24 19.0898 59.96 21.1098 62.5 21.1098C65.04 21.1098 66.7599 18.9298 66.7599 16.1998M54.25 16.2598C54.25 11.1298 57.28 7.58984 61.63 7.58984C64.38 7.58984 65.92 9.26985 66.47 10.1098H66.6799V7.99985H70.61V24.3499H66.74V22.2699H66.5299C66.0799 22.9499 64.65 24.7598 61.75 24.7598C57.3 24.7598 54.25 21.3398 54.25 16.2798V16.2598Z" fill="white"/>
<path d="M73.8899 7.99013H77.8199V24.3401H73.8899V7.99013ZM73.4299 3.45012C73.4299 2.05012 74.43 1.12012 75.85 1.12012C77.27 1.12012 78.2699 2.05012 78.2699 3.45012C78.2699 4.85012 77.27 5.81012 75.85 5.81012C74.43 5.81012 73.4299 4.91012 73.4299 3.45012Z" fill="white"/>
<path d="M81.08 7.99017H84.7999V10.6602H85.0399C85.5599 9.39017 87.01 7.93018 89.21 7.93018H90.6599V11.7802H89.0299C86.5199 11.7802 85.0099 13.6802 85.0099 16.6002V24.3402H81.08V7.99017Z" fill="white"/>
<path d="M103.92 14.4899C103.74 12.2799 102.08 10.8199 99.7799 10.8199C97.4799 10.8199 95.8799 12.4399 95.6399 14.4899H103.93H103.92ZM91.7599 16.2598C91.7599 11.0998 95.1199 7.58984 99.7799 7.58984C104.89 7.58984 107.67 11.4799 107.67 16.0699V17.3499H95.5699C95.6899 19.8399 97.3499 21.5098 99.8999 21.5098C101.84 21.5098 103.32 20.5799 103.86 19.2399H107.52C106.73 22.5699 103.89 24.7399 99.7799 24.7399C95.0899 24.7399 91.7599 21.1298 91.7599 16.2598Z" fill="white"/>
<path d="M109.49 19.4299H113.12C113.27 20.8299 114.36 21.5699 116.15 21.5699C117.94 21.5699 118.99 20.7598 118.99 19.6098C118.99 16.1298 109.86 19.4198 109.86 12.5898C109.86 9.81984 112.19 7.58984 116.12 7.58984C119.57 7.58984 122.14 9.38985 122.38 12.6599H118.9C118.72 11.4799 117.81 10.6998 116.09 10.6998C114.49 10.6998 113.46 11.4098 113.46 12.4698C113.46 15.5798 122.81 12.3198 122.81 19.3998C122.81 22.5098 120.36 24.7498 116.1 24.7498C111.84 24.7498 109.66 22.6698 109.51 19.4398" fill="white"/>
<path d="M132.8 20.7301C136.52 20.7301 139.58 18.4901 139.58 13.3901C139.58 8.29008 136.55 6.18008 132.8 6.18008H129.84V20.7301H132.8ZM125.82 2.58008H132.96C139.71 2.58008 143.76 7.05007 143.76 13.4001C143.76 20.1401 139.71 24.3401 132.96 24.3401H125.82V2.58008Z" fill="white"/>
<path d="M157.7 14.4899C157.52 12.2799 155.86 10.8199 153.56 10.8199C151.26 10.8199 149.66 12.4399 149.42 14.4899H157.71H157.7ZM145.54 16.2598C145.54 11.0998 148.9 7.58984 153.56 7.58984C158.67 7.58984 161.45 11.4799 161.45 16.0699V17.3499H149.35C149.47 19.8399 151.13 21.5098 153.68 21.5098C155.62 21.5098 157.1 20.5799 157.64 19.2399H161.3C160.51 22.5699 157.67 24.7399 153.56 24.7399C148.87 24.7399 145.54 21.1298 145.54 16.2598Z" fill="white"/>
<path d="M161.9 7.99023H166.02L169.8 19.5202H170.04L173.79 7.99023H177.99L172.16 24.3402H167.71L161.9 7.99023Z" fill="white"/>
</g>
</svg>
