<svg width="240" height="100" viewBox="0 0 240 100" fill="none" xmlns="http://www.w3.org/2000/svg">
<rect width="240" height="100" fill="white"/>
<path d="M21.1888 42.4655C21.1888 38.5446 17.2722 31.7988 16.6398 30.6732C16.6308 30.6571 16.6177 30.6437 16.6018 30.6344C16.5858 30.625 16.5677 30.6201 16.5492 30.6201C16.5307 30.6201 16.5125 30.625 16.4966 30.6344C16.4806 30.6437 16.4675 30.6571 16.4585 30.6732C15.8298 31.7988 11.9206 38.5519 11.9206 42.4655C11.9206 45.3272 14.1396 47.6481 16.5547 47.6481C18.9698 47.6481 21.1888 45.3345 21.1888 42.4655Z" fill="#030520"/>
<path d="M16.6688 57.5462C12.2498 57.5423 8.01286 55.795 4.88782 52.6877C1.76279 49.5805 0.00493678 45.3671 4.05092e-05 40.9723C-0.00674016 37.918 0.837846 34.9217 2.44 32.316C4.04215 29.7104 6.33915 27.5973 9.07592 26.2117C9.47668 26.0086 9.94207 25.9721 10.3699 26.11C10.7977 26.2479 11.1531 26.5491 11.3578 26.9473C11.562 27.3459 11.5988 27.8087 11.4601 28.2342C11.3214 28.6597 11.0186 29.0131 10.6182 29.2167C8.43604 30.3213 6.60486 32.0063 5.32835 34.0844C4.05184 36.1624 3.38007 38.5519 3.38778 40.987C3.3917 44.4879 4.7918 47.8443 7.28093 50.3198C9.77005 52.7953 13.1449 54.1878 16.6651 54.1917C20.1846 54.1868 23.5585 52.7939 26.0468 50.3185C28.5351 47.8431 29.9347 44.4872 29.9386 40.987C29.946 38.5352 29.2638 36.1303 27.9691 34.0439C26.6744 31.9575 24.8189 30.2727 22.6121 29.18C22.2129 28.977 21.9109 28.625 21.7722 28.2009C21.6336 27.7769 21.6696 27.3155 21.8724 26.9179C22.0765 26.5209 22.4305 26.2205 22.8568 26.0826C23.2832 25.9447 23.7471 25.9805 24.1469 26.1822C26.9091 27.5517 29.2324 29.6605 30.8553 32.2714C32.4783 34.8823 33.3366 37.8917 33.3338 40.9612C33.3318 45.3573 31.5758 49.573 28.4512 52.6825C25.3267 55.7921 21.089 57.5413 16.6688 57.5462" fill="#FD4703"/>
<path d="M150.123 37.2539H149.206V54.0485H150.123V37.2539Z" fill="#030520"/>
<path d="M150.123 33.2705H149.206V35.6797H150.123V33.2705Z" fill="#030520"/>
<path d="M167.45 38.8876C166.815 38.288 166.071 37.8148 165.257 37.4936C164.405 37.1557 163.496 36.9834 162.579 36.986C161.136 36.9548 159.72 37.3741 158.529 38.1851C157.868 38.643 157.29 39.2103 156.821 39.8624L156.577 40.2007V39.4651C156.586 38.989 156.53 38.5139 156.41 38.0527C156.357 37.7971 156.27 37.5498 156.151 37.317L156.074 37.1957H155.142L155.304 37.5635C155.36 37.6922 155.419 37.8614 155.478 38.049C155.537 38.2366 155.56 38.4168 155.6 38.6633C155.644 38.9308 155.665 39.2015 155.663 39.4725V54.0491H156.577V43.3824C156.573 42.6478 156.737 41.922 157.058 41.2601C157.378 40.6031 157.82 40.0117 158.359 39.5166C158.911 39.0103 159.554 38.6111 160.253 38.3396C160.995 38.0544 161.784 37.9109 162.579 37.9166C163.378 37.9114 164.171 38.0601 164.913 38.3543C165.613 38.6232 166.257 39.0199 166.81 39.524C167.339 40.0259 167.766 40.624 168.068 41.2858C168.381 41.9665 168.54 42.7074 168.534 43.4559V54.0491H169.451V43.4559C169.456 42.5864 169.269 41.7263 168.904 40.9364C168.541 40.169 168.04 39.4745 167.424 38.8876" fill="#030520"/>
<path d="M184.769 46.8136C184.326 46.4241 183.827 46.1019 183.289 45.8573C182.698 45.5909 182.077 45.3934 181.44 45.2688C180.941 45.1878 180.519 45.1143 180.186 45.0517C179.854 44.9892 179.561 44.9304 179.321 44.8789C179.081 44.8274 178.866 44.7832 178.696 44.7538C178.526 44.7244 178.37 44.6876 178.2 44.6435C177.76 44.5397 177.328 44.407 176.906 44.2462C176.53 44.1106 176.183 43.9046 175.885 43.6393C175.617 43.3976 175.409 43.0982 175.275 42.7639C175.152 42.442 175.091 42.1003 175.094 41.7561C175.086 41.2419 175.213 40.7347 175.464 40.2848C175.729 39.8126 176.083 39.3955 176.506 39.0563C176.967 38.6907 177.491 38.4115 178.052 38.2324C179.286 37.8295 180.617 37.8295 181.851 38.2324C182.415 38.4244 182.939 38.7173 183.397 39.0968C183.824 39.451 184.179 39.8829 184.443 40.3694C184.691 40.8416 184.818 41.3671 184.813 41.8995V42.1644H185.76V41.9142C185.76 41.2502 185.604 40.5952 185.305 40.0016C185.008 39.3942 184.585 38.8554 184.066 38.42C183.516 37.9683 182.89 37.6171 182.217 37.3827C181.495 37.1329 180.736 37.0085 179.972 37.0149C179.216 37.0083 178.465 37.1328 177.753 37.3827C177.083 37.6161 176.458 37.9606 175.904 38.4016C175.387 38.814 174.956 39.3225 174.635 39.8986C174.32 40.4609 174.156 41.0942 174.158 41.7377V41.8002C174.157 42.2824 174.256 42.7596 174.45 43.2016C174.649 43.6636 174.959 44.0702 175.353 44.386C176.097 44.9141 176.939 45.2892 177.831 45.4895C178.2 45.5961 178.714 45.7101 179.351 45.8278C179.987 45.9456 180.626 46.0633 181.281 46.1957C181.811 46.293 182.327 46.451 182.82 46.6665C183.271 46.8646 183.692 47.1259 184.07 47.4426C184.411 47.7303 184.695 48.0782 184.909 48.4688C185.109 48.8305 185.212 49.2369 185.209 49.6495C185.212 50.1183 185.072 50.5772 184.809 50.9663C184.516 51.4088 184.139 51.7909 183.7 52.0918C183.191 52.4393 182.629 52.7026 182.036 52.8716C180.69 53.2597 179.261 53.2597 177.916 52.8716C177.318 52.6985 176.752 52.4302 176.24 52.0771C175.796 51.7721 175.418 51.3804 175.131 50.9258C174.88 50.512 174.752 50.0366 174.761 49.5539V49.289H173.814V49.5539C173.813 50.1846 173.984 50.8038 174.31 51.3451C174.653 51.9047 175.109 52.388 175.648 52.7649C176.241 53.185 176.898 53.5067 177.594 53.7176C178.363 53.9508 179.164 54.0661 179.968 54.0596C180.771 54.065 181.571 53.956 182.343 53.736C183.037 53.5356 183.693 53.2251 184.288 52.8164C184.828 52.4461 185.284 51.9675 185.627 51.4113C185.956 50.8783 186.129 50.2642 186.126 49.6385C186.126 49.1042 185.999 48.5774 185.756 48.101C185.51 47.6157 185.173 47.1823 184.761 46.8246" fill="#030520"/>
<path d="M191.6 37.2539H190.682V54.0485H191.6V37.2539Z" fill="#030520"/>
<path d="M191.6 33.2705H190.682V35.6797H191.6V33.2705Z" fill="#030520"/>
<path d="M209.895 40.7235L209.858 41.1722L209.633 40.786C209.599 40.7272 209.566 40.6683 209.529 40.6095C208.643 39.1663 207.299 38.0583 205.709 37.4609C204.847 37.1427 203.935 36.9831 203.016 36.9901C201.892 36.9729 200.779 37.2107 199.762 37.6853C198.83 38.127 197.998 38.7528 197.317 39.5244C196.629 40.3205 196.106 41.2444 195.778 42.2426C195.425 43.3105 195.249 44.4287 195.257 45.553C195.249 46.6676 195.425 47.776 195.778 48.8339C196.109 49.8306 196.632 50.7539 197.317 51.5521C197.993 52.3306 198.827 52.9575 199.765 53.3912C201.08 53.9886 202.537 54.209 203.971 54.0277C205.405 53.8464 206.76 53.2705 207.883 52.365C208.515 51.8458 209.054 51.224 209.477 50.5259C209.533 50.4413 209.581 50.353 209.633 50.2647L209.884 49.8086V52.8836C209.869 53.89 209.676 54.886 209.315 55.8262C208.979 56.7038 208.487 57.5138 207.861 58.217C207.258 58.8881 206.528 59.4343 205.712 59.8244C204.873 60.219 203.955 60.419 203.027 60.4092C202.384 60.4091 201.745 60.3022 201.137 60.0929C200.513 59.8791 199.923 59.5782 199.384 59.1991L199.199 59.0703L198.53 59.7361L198.789 59.92C199.825 60.6796 201.047 61.1486 202.327 61.278C203.607 61.4074 204.899 61.1924 206.067 60.6556C207.006 60.229 207.849 59.6185 208.545 58.8607C209.257 58.0772 209.816 57.1693 210.195 56.183C210.601 55.1265 210.806 54.0038 210.798 52.8726V41.1906C210.795 40.9098 210.816 40.6293 210.86 40.352C210.897 40.1166 210.938 39.9106 210.975 39.7635C211.025 39.5885 211.086 39.4166 211.156 39.2485L211.319 38.8807H210.387L210.309 38.9984C210.188 39.2301 210.101 39.4778 210.051 39.7341C209.959 40.0628 209.907 40.4011 209.895 40.7419V40.7235ZM209.895 45.7111C209.903 46.7045 209.731 47.6911 209.388 48.6243C209.073 49.49 208.596 50.2887 207.983 50.9783C207.383 51.6467 206.653 52.1884 205.838 52.571C204.961 52.9723 204.004 53.1734 203.038 53.1595C202.07 53.172 201.11 52.9763 200.224 52.5857C199.399 52.2139 198.663 51.6723 198.064 50.9967C197.452 50.2929 196.981 49.4788 196.677 48.5985C196.336 47.6129 196.166 46.5769 196.174 45.5346C196.164 44.5003 196.33 43.4718 196.666 42.4927C196.971 41.6068 197.443 40.7866 198.057 40.0761C198.65 39.3921 199.385 38.8449 200.213 38.4724C201.093 38.0987 202.04 37.906 202.998 37.906C203.955 37.906 204.902 38.0987 205.783 38.4724C206.604 38.8348 207.34 39.3649 207.942 40.0283C208.557 40.7266 209.038 41.5306 209.363 42.4008C209.716 43.3583 209.892 44.3713 209.884 45.3911L209.895 45.7111Z" fill="#030520"/>
<path d="M227.478 38.8691C226.845 38.2813 226.107 37.8161 225.303 37.4971C224.447 37.1532 223.531 36.9795 222.607 36.9858C221.804 36.9813 221.006 37.1055 220.244 37.3537C219.553 37.5779 218.899 37.904 218.306 38.321C217.763 38.7017 217.284 39.1646 216.885 39.693L216.597 40.0939V28.2207H215.68V54.049H216.597V43.4558C216.591 42.6954 216.75 41.9425 217.063 41.2489C217.368 40.5787 217.804 39.976 218.346 39.476C218.903 38.9678 219.556 38.574 220.266 38.3173C221.022 38.0442 221.821 37.906 222.625 37.9091C223.437 37.9022 224.241 38.0508 224.996 38.3468C225.689 38.6201 226.325 39.0192 226.871 39.5238C227.401 40.0211 227.822 40.6223 228.106 41.2893C228.398 41.9733 228.546 42.7092 228.543 43.4521V54.0453H229.46V43.4558C229.465 42.5846 229.285 41.7223 228.931 40.9252C228.587 40.1516 228.093 39.4529 227.478 38.8691" fill="#030520"/>
<path d="M237.596 53.1327C236.538 53.1327 235.747 52.8568 235.244 52.3198C234.741 51.7828 234.478 50.8117 234.478 49.4618V35.0323H238.487V34.1238H234.493V29.5518H233.576V34.1238H231.834V35.0323H233.576V49.4545C233.576 51.0287 233.912 52.1947 234.578 52.923C235.244 53.6513 236.272 54.0265 237.611 54.0265C237.93 54.0211 238.249 53.9941 238.565 53.9455C238.999 53.8821 239.424 53.7659 239.83 53.5998L240 53.5299V52.6471L239.63 52.7759C239.255 52.9189 238.866 53.02 238.469 53.0775C238.179 53.1131 237.888 53.1315 237.596 53.1327" fill="#030520"/>
<path d="M240 52.6471V53.5557L239.83 53.6219C239.424 53.788 238.999 53.9041 238.565 53.9676C238.249 54.0161 237.93 54.0432 237.611 54.0485C236.272 54.0485 235.251 53.6807 234.578 52.9451C233.905 52.2094 233.576 51.0508 233.576 49.4765V35.0359H231.834V34.1238H233.576V29.5518H234.493V34.1238H238.502V35.0359H234.493V49.4545C234.493 50.8044 234.748 51.7681 235.259 52.3124C235.769 52.8568 236.553 53.1327 237.596 53.1327C237.887 53.1289 238.177 53.108 238.465 53.0701C238.862 53.0127 239.252 52.9115 239.626 52.7685L240 52.6471Z" fill="#030520"/>
<path d="M57.3521 38.4943C56.6002 37.6518 55.6843 36.9699 54.6597 36.4896C53.6187 36.0022 52.4817 35.751 51.3311 35.754C50.4019 35.7532 49.4801 35.9177 48.6091 36.2395C47.7619 36.5563 46.9705 37.0044 46.2643 37.5674C45.854 37.8932 45.474 38.2551 45.1289 38.6487V28.085H42.8729V51.2355C42.875 51.4706 42.859 51.7055 42.8248 51.9381C42.7841 52.1514 42.7508 52.328 42.7138 52.4677C42.6769 52.6075 42.614 52.773 42.5696 52.8834L42.0074 54.1854H44.3929L44.6518 53.6631C44.7573 53.4247 44.8451 53.1788 44.9144 52.9275C45.0686 52.3908 45.1409 51.8341 45.1289 51.276V51.2392C45.4751 51.6385 45.855 52.0077 46.2643 52.3427C46.9644 52.9218 47.7569 53.3806 48.6091 53.6999C49.4848 54.0235 50.4118 54.188 51.3459 54.1854C52.4965 54.1885 53.6335 53.9372 54.6745 53.4498C55.6998 52.9708 56.616 52.2887 57.3669 51.4452C58.1286 50.5831 58.732 49.5946 59.1496 48.5247C59.5971 47.3919 59.8243 46.1849 59.819 44.9679C59.824 43.752 59.5968 42.5463 59.1496 41.4147C58.7329 40.3445 58.1294 39.3558 57.3669 38.4943H57.3521ZM51.3459 51.9381C50.5395 51.9418 49.7428 51.7632 49.0159 51.4158C48.2695 51.059 47.5961 50.5676 47.0299 49.9666C46.4438 49.3397 45.9798 48.6101 45.6615 47.8148C45.324 46.9689 45.1435 46.0691 45.1289 45.1591V44.7913C45.139 43.8784 45.3157 42.9748 45.6504 42.1246C45.9688 41.3294 46.4327 40.5998 47.0188 39.9729C47.585 39.3718 48.2584 38.8804 49.0048 38.5237C49.7317 38.1763 50.5284 37.9977 51.3348 38.0014C52.1459 37.9994 52.9466 38.1819 53.6759 38.5347C54.4286 38.8961 55.1061 39.3952 55.6731 40.006C56.2594 40.6542 56.7241 41.4016 57.0452 42.2129C57.3849 43.0815 57.5556 44.0065 57.5482 44.9385C57.5561 45.8717 57.3854 46.7979 57.0452 47.6677C56.7267 48.4803 56.2617 49.2282 55.6731 49.8746C55.109 50.4943 54.4312 51.0011 53.6759 51.3679C52.9473 51.7228 52.1461 51.9053 51.3348 51.9013" fill="#030520"/>
<path d="M73.3104 48.2121C73.3153 48.701 73.2024 49.1841 72.9812 49.6208C72.7535 50.0767 72.4307 50.4792 72.0344 50.8015C71.5923 51.1601 71.0921 51.4412 70.5551 51.6328C69.9547 51.8402 69.3229 51.9435 68.6874 51.9381C68.07 51.9424 67.4567 51.8391 66.8752 51.6328C66.3371 51.4435 65.8364 51.1622 65.3958 50.8015C64.9995 50.4792 64.6768 50.0767 64.449 49.6208C64.2278 49.1841 64.115 48.701 64.1199 48.2121V35.7871H61.8601V48.2121C61.8582 49.0377 62.0494 49.8524 62.4186 50.5918C62.7791 51.3258 63.2907 51.9761 63.9201 52.5008C64.559 53.0306 65.2846 53.4473 66.0652 53.733C66.9052 54.0379 67.7932 54.1911 68.6874 54.1854C69.5961 54.1919 70.4988 54.0388 71.3539 53.733C72.1429 53.4506 72.8763 53.0337 73.5212 52.5008C74.1495 51.975 74.6608 51.3249 75.0228 50.5918C75.3905 49.852 75.5804 49.0373 75.5775 48.2121V35.7871H73.3215L73.3104 48.2121Z" fill="#030520"/>
<path d="M95.312 52.467C95.2787 52.3272 95.2417 52.1506 95.2047 51.9373C95.1704 51.7047 95.1544 51.4698 95.1567 51.2348V28.0879H92.9006V38.6848C92.5523 38.2812 92.1659 37.9117 91.7467 37.5813C91.0461 37.0248 90.2609 36.5827 89.4204 36.2719C88.5511 35.9487 87.6302 35.7843 86.7021 35.7864C85.5513 35.7817 84.414 36.0331 83.3735 36.522C82.354 36.9973 81.4409 37.6715 80.6885 38.5045C79.919 39.3581 79.3124 40.344 78.8985 41.414C78.4388 42.5443 78.2003 43.7515 78.1958 44.9708C78.1906 46.1863 78.4165 47.3918 78.8615 48.5239C79.2809 49.5937 79.8855 50.5821 80.6478 51.4444C81.4085 52.2916 82.3363 52.9739 83.3735 53.449C84.4146 53.9364 85.5515 54.1877 86.7021 54.1847C87.6275 54.1885 88.5464 54.0304 89.4167 53.7176C90.249 53.4135 91.0287 52.983 91.7282 52.4412C92.1512 52.1139 92.5391 51.7442 92.8858 51.3378C92.8781 51.8717 92.9517 52.4037 93.104 52.9157C93.1739 53.2837 93.3368 53.628 93.5774 53.9162L93.8511 54.1847H96.0443L95.4784 52.8789C95.434 52.7723 95.3823 52.6325 95.3305 52.467H95.312ZM86.7021 38.0521C87.5168 38.0482 88.3224 38.2227 89.0617 38.5634C89.8052 38.9048 90.4737 39.3885 91.0292 39.9869C91.6091 40.617 92.0679 41.3476 92.3829 42.1423C92.7233 42.9875 92.9051 43.8876 92.9191 44.7979V45.1658C92.9073 46.0823 92.7255 46.9889 92.3829 47.8398C92.0693 48.6352 91.6103 49.366 91.0292 49.9952C90.4699 50.5982 89.7995 51.0889 89.0543 51.4408C88.317 51.7779 87.5135 51.9475 86.7021 51.9373C85.8915 51.9417 85.0915 51.7538 84.3684 51.3893C83.6116 51.0122 82.9328 50.4968 82.3676 49.8702C81.778 49.2127 81.312 48.4552 80.9918 47.6338C80.6557 46.7859 80.485 45.8822 80.4888 44.9708C80.4808 44.0376 80.6515 43.1114 80.9918 42.2416C81.3112 41.432 81.772 40.6849 82.3528 40.0347C82.9037 39.419 83.5726 38.9188 84.3203 38.5634C85.0654 38.2167 85.8796 38.0419 86.7021 38.0521" fill="#030520"/>
<path d="M113.171 38.0896C113.038 38.319 112.941 38.567 112.882 38.8252C112.547 38.4247 112.176 38.0553 111.773 37.7218C111.056 37.1229 110.242 36.6491 109.365 36.3204C108.429 35.9699 107.436 35.7941 106.436 35.8018C105.208 35.7828 103.992 36.0406 102.878 36.5558C101.865 37.0386 100.96 37.7205 100.219 38.5604C99.4724 39.4222 98.9043 40.4222 98.5474 41.503C98.1747 42.6343 97.9874 43.8178 97.9926 45.0083C97.9859 46.1955 98.1746 47.3759 98.5511 48.5026C98.9069 49.5823 99.4724 50.582 100.215 51.4451C100.952 52.297 101.862 52.984 102.886 53.4608C104 53.9635 105.212 54.2148 106.436 54.1964C107.427 54.2038 108.412 54.0344 109.343 53.6962C110.205 53.3802 111.008 52.9227 111.717 52.3426C112.041 52.078 112.343 51.7877 112.62 51.4745V52.3279C112.606 53.2524 112.43 54.1675 112.098 55.0314C111.789 55.833 111.339 56.5739 110.771 57.2199C110.228 57.8172 109.574 58.3033 108.844 58.6507C108.096 59.0026 107.278 59.1812 106.451 59.173C105.881 59.1722 105.315 59.0777 104.775 58.8935C104.213 58.6981 103.68 58.4258 103.193 58.0843L102.545 57.6318L100.914 59.2539L101.824 59.8939C103.167 60.872 104.786 61.4047 106.451 61.4167C107.599 61.4223 108.735 61.1788 109.779 60.7031C110.797 60.2382 111.712 59.5753 112.468 58.7537C113.237 57.9083 113.842 56.9279 114.251 55.8626C114.685 54.7358 114.905 53.5383 114.898 52.3316V40.657C114.895 40.4108 114.912 40.1647 114.95 39.9213C114.987 39.708 115.02 39.5278 115.057 39.3843C115.09 39.2474 115.131 39.1123 115.179 38.9797L115.756 37.685H113.452L113.171 38.0896ZM108.958 51.4157C108.172 51.7731 107.315 51.9515 106.451 51.938C105.578 51.9511 104.712 51.7754 103.914 51.4231C103.174 51.0928 102.515 50.6087 101.979 50.0033C101.422 49.3652 100.993 48.6257 100.718 47.8258C100.41 46.916 100.257 45.9611 100.267 45.0009C100.257 44.042 100.409 43.0882 100.718 42.1797C100.998 41.3722 101.427 40.6238 101.983 39.9728C102.517 39.3643 103.175 38.8764 103.914 38.542C104.714 38.2001 105.58 38.0333 106.451 38.0528C107.304 38.0428 108.15 38.2133 108.932 38.553C109.668 38.8753 110.326 39.3492 110.863 39.9434C111.423 40.5799 111.862 41.3129 112.157 42.1062C112.481 42.9886 112.643 43.9218 112.635 44.8611V45.1775C112.643 46.0919 112.485 47.0002 112.169 47.8589C111.885 48.6471 111.452 49.3738 110.893 49.9996C110.351 50.6023 109.694 51.0902 108.958 51.4341" fill="#030520"/>
<path d="M131.119 49.6134C130.551 50.3266 129.839 50.9131 129.029 51.3348C128.248 51.7384 127.38 51.9455 126.5 51.9381C125.678 51.9425 124.865 51.76 124.125 51.4047C123.378 51.0451 122.707 50.5456 122.15 49.9334C121.569 49.2836 121.108 48.5364 120.789 47.7265C120.543 47.1014 120.385 46.4454 120.319 45.7771H133.319V44.8502C133.353 42.0989 132.768 39.892 131.592 38.3104C130.342 36.6368 128.493 35.7871 126.089 35.7871H126.008C124.875 35.8017 123.76 36.0734 122.749 36.5816C121.778 37.0758 120.919 37.7616 120.223 38.5973C119.512 39.4599 118.964 40.443 118.603 41.4993C118.216 42.6263 118.021 43.8099 118.026 45.001C118.021 46.2092 118.242 47.4079 118.677 48.5357C119.09 49.6071 119.699 50.5926 120.475 51.4415C121.231 52.2654 122.137 52.9394 123.145 53.4277C124.19 53.9323 125.338 54.1916 126.5 54.1854V54.1854C127.731 54.1756 128.944 53.8823 130.043 53.3284C131.13 52.7713 132.087 51.9916 132.85 51.0406L133.412 50.3454L131.718 48.8484L131.119 49.6134ZM129.813 39.6823C130.239 40.2832 130.544 40.9601 130.712 41.6759C130.862 42.2799 130.964 42.8949 131.015 43.515H120.401C120.495 42.9759 120.643 42.4474 120.841 41.9371C121.125 41.1868 121.544 40.494 122.076 39.892C122.58 39.3262 123.19 38.865 123.874 38.5347C124.555 38.2086 125.303 38.0437 126.059 38.0529C126.839 38.0305 127.613 38.1812 128.327 38.4943C128.913 38.7669 129.422 39.1817 129.806 39.7007" fill="#030520"/>
<path d="M144.549 35.5993V33.3519H139.815V29.4199H137.556V33.3519H135.814V35.5993H137.556V48.9364C137.556 50.7056 137.944 51.9857 138.732 52.8537C139.52 53.7218 140.725 54.1852 142.264 54.1852C142.614 54.1791 142.964 54.1496 143.31 54.0969C143.799 54.0239 144.277 53.893 144.734 53.707L145.322 53.4716V51.1617L144.061 51.6178C143.736 51.7433 143.397 51.8321 143.052 51.8827C142.79 51.9162 142.527 51.9347 142.264 51.9378C141.398 51.9378 140.784 51.7355 140.415 51.3383C140.145 51.0514 139.827 50.404 139.827 48.9364V35.5993H144.549Z" fill="#030520"/>
<path d="M168.259 68.0364C168.283 67.7227 168.243 67.4073 168.14 67.1095C168.05 66.8456 167.907 66.6028 167.719 66.396C167.533 66.197 167.306 66.0402 167.053 65.9362C166.78 65.8235 166.487 65.7672 166.191 65.7707C165.882 65.7704 165.575 65.8265 165.285 65.9362C164.996 66.046 164.727 66.2039 164.49 66.4033C164.248 66.6051 164.041 66.8464 163.88 67.1169C163.707 67.3959 163.582 67.7017 163.51 68.0217L168.259 68.0364ZM165.3 72.1156C164.816 72.1246 164.336 72.0266 163.895 71.8287C163.5 71.6496 163.152 71.3828 162.878 71.0489C162.606 70.7111 162.413 70.3181 162.312 69.8976C162.198 69.4417 162.176 68.9681 162.245 68.5036C162.309 68.0163 162.459 67.5443 162.689 67.1095C162.921 66.6804 163.225 66.2936 163.588 65.9656C163.952 65.6345 164.373 65.3705 164.83 65.1858C165.299 64.9937 165.802 64.8962 166.31 64.8989C166.792 64.8882 167.271 64.9889 167.708 65.1932C168.095 65.3719 168.436 65.6376 168.703 65.9693C168.969 66.3043 169.157 66.6937 169.254 67.1095C169.359 67.548 169.379 68.0024 169.313 68.4484C169.313 68.5477 169.283 68.636 169.268 68.7169C169.258 68.7804 169.243 68.843 169.224 68.9045H163.421C163.397 69.2235 163.433 69.5443 163.529 69.8498C163.613 70.1219 163.756 70.3728 163.946 70.5854C164.131 70.7897 164.356 70.9527 164.608 71.0636C164.872 71.1826 165.159 71.2429 165.448 71.2402C165.665 71.2397 165.882 71.21 166.091 71.1519C166.302 71.0945 166.506 71.0169 166.702 70.9202C166.891 70.8197 167.068 70.6961 167.227 70.5523C167.377 70.4143 167.503 70.2512 167.597 70.0705L168.577 70.35C168.423 70.6131 168.23 70.8513 168.004 71.0562C167.769 71.2723 167.508 71.4588 167.227 71.6117C166.933 71.7707 166.622 71.8942 166.299 71.9795C165.965 72.0705 165.62 72.1163 165.274 72.1156H165.3ZM154.878 68.4889C154.946 68.0065 155.099 67.5397 155.329 67.1095C155.558 66.6772 155.864 66.2896 156.232 65.9656C156.593 65.6395 157.008 65.3782 157.459 65.1932C157.929 65.001 158.431 64.9035 158.939 64.9063C159.549 64.8857 160.151 65.0457 160.67 65.3661C161.12 65.6598 161.46 66.0929 161.639 66.5983L160.437 66.9661C160.312 66.6468 160.086 66.3768 159.793 66.1973C159.482 66.0123 159.124 65.918 158.761 65.9252C158.438 65.926 158.118 65.9923 157.822 66.1201C157.52 66.2488 157.245 66.4307 157.008 66.6571C156.768 66.8987 156.566 67.1753 156.409 67.4774C156.242 67.7984 156.132 68.1455 156.084 68.5036C156.031 68.8452 156.046 69.1939 156.128 69.5298C156.193 69.8302 156.319 70.1143 156.498 70.3647C156.671 70.5976 156.896 70.7866 157.156 70.9165C157.428 71.0512 157.729 71.1193 158.033 71.1151C158.243 71.1154 158.452 71.087 158.654 71.0305C158.856 70.9748 159.051 70.8958 159.235 70.7951C159.409 70.7024 159.572 70.5888 159.719 70.4567C159.854 70.3393 159.965 70.1969 160.045 70.0374L161.154 70.3831C161.006 70.6442 160.821 70.8822 160.603 71.0893C160.382 71.3039 160.133 71.4882 159.863 71.6374C159.573 71.795 159.265 71.9184 158.946 72.0052C158.615 72.0968 158.273 72.1426 157.929 72.1413C157.444 72.1494 156.964 72.0488 156.524 71.8471C156.13 71.6652 155.783 71.3959 155.51 71.0599C155.24 70.7212 155.045 70.3286 154.941 69.9086C154.828 69.4525 154.807 68.9789 154.878 68.5146V68.4889ZM153.029 72.0052H151.838L152.389 68.0916C152.513 67.5506 152.475 66.9852 152.278 66.4659C152.184 66.2966 152.042 66.1583 151.87 66.0682C151.698 65.978 151.503 65.9398 151.309 65.9583C151.056 65.9618 150.806 66.0091 150.569 66.098C150.309 66.191 150.061 66.3145 149.83 66.4659C149.597 66.6337 149.387 66.8302 149.205 67.0507C149.013 67.2716 148.856 67.5195 148.739 67.7863L148.147 71.9831H146.949L147.932 65.0277H149.005L148.794 66.521C149.146 66.024 149.614 65.6199 150.159 65.344C150.703 65.0561 151.31 64.9046 151.927 64.9026C152.266 64.8875 152.603 64.9638 152.903 65.1233C153.147 65.2643 153.341 65.4778 153.458 65.7339C153.59 66.0256 153.662 66.3409 153.669 66.6608C153.685 67.0481 153.664 67.4361 153.606 67.8194L153.029 72.0052ZM141.745 71.2696C142.158 71.2701 142.568 71.1901 142.951 71.0342C143.3 70.9032 143.613 70.6914 143.864 70.4162C144.033 70.2879 144.149 70.1019 144.19 69.8939L144.337 68.8714C143.788 68.6459 143.198 68.5321 142.603 68.5367C142.085 68.5218 141.573 68.649 141.124 68.9045C140.941 69.0034 140.783 69.1427 140.662 69.3117C140.542 69.4806 140.462 69.6748 140.428 69.8792C140.401 70.0612 140.413 70.247 140.465 70.4236C140.516 70.5888 140.604 70.74 140.724 70.865C140.851 70.9926 141.004 71.0928 141.172 71.1592C141.359 71.2315 141.559 71.2677 141.76 71.2659L141.745 71.2696ZM141.331 72.145C141.021 72.15 140.714 72.0924 140.428 71.9758C140.17 71.8743 139.938 71.7173 139.748 71.516C139.55 71.3105 139.406 71.0607 139.326 70.7877C139.24 70.5091 139.22 70.2147 139.267 69.927C139.306 69.6204 139.416 69.327 139.589 69.07C139.775 68.8012 140.014 68.5724 140.291 68.3969C140.602 68.2011 140.939 68.0523 141.294 67.9555C141.686 67.8475 142.092 67.7943 142.499 67.7974C142.842 67.7969 143.183 67.8277 143.52 67.8893C143.824 67.9415 144.122 68.0266 144.408 68.1431L144.489 67.584C144.54 67.3529 144.54 67.1134 144.489 66.8823C144.438 66.6512 144.337 66.4338 144.193 66.2452C144.03 66.0759 143.83 65.9446 143.61 65.8607C143.389 65.7767 143.153 65.7422 142.917 65.7596C142.076 65.8046 141.266 66.0865 140.58 66.5725L140.299 65.8111C141.142 65.2519 142.126 64.9373 143.139 64.9026C144.059 64.9026 144.741 65.1478 145.184 65.6383C145.628 66.1287 145.788 66.8177 145.665 67.7054L145.262 70.5413C145.225 70.8172 145.329 70.9606 145.576 70.968L145.436 71.9795L145.122 72.0199C145.037 72.0256 144.951 72.0256 144.866 72.0199C144.768 72.0265 144.67 72.0115 144.579 71.9759C144.487 71.9402 144.405 71.885 144.337 71.814C144.218 71.675 144.154 71.4966 144.16 71.3137L144.204 70.8208C143.84 71.2311 143.389 71.5563 142.884 71.7735C142.386 71.9888 141.848 72.1002 141.305 72.1009L141.331 72.145ZM137.691 71.9648H136.512L137.063 68.0769C137.185 67.5358 137.147 66.9709 136.952 66.4511C136.858 66.2819 136.716 66.1436 136.543 66.0535C136.371 65.9633 136.176 65.9251 135.983 65.9436C135.73 65.9471 135.48 65.9944 135.243 66.0833C134.982 66.1755 134.734 66.299 134.503 66.4511C134.265 66.6143 134.049 66.8072 133.86 67.0249C133.669 67.2459 133.512 67.4938 133.394 67.7606L132.802 71.9574H131.622L132.606 65.0019H133.671L133.46 66.4953C133.814 66.0012 134.282 65.5989 134.825 65.3219C135.374 65.0411 135.983 64.8972 136.6 64.9026C136.939 64.8862 137.275 64.9625 137.573 65.1233C137.818 65.2652 138.013 65.4783 138.132 65.7339C138.261 66.0267 138.332 66.3413 138.342 66.6608C138.357 67.0481 138.336 67.4359 138.279 67.8194L137.691 71.9648ZM125.816 65.9436H124.865L124.995 65.024H125.945L125.967 64.8806C126.017 64.5286 126.121 64.1863 126.274 63.8654C126.426 63.5409 126.631 63.2438 126.881 62.9863C127.131 62.7266 127.427 62.5146 127.754 62.361C128.122 62.1954 128.522 62.1137 128.926 62.1219C129.363 62.1098 129.798 62.1887 130.202 62.3536C130.493 62.4769 130.769 62.6311 131.027 62.8134L130.394 63.6815C130.209 63.5123 129.991 63.3811 129.755 63.2952C129.47 63.1866 129.168 63.1317 128.863 63.1334C128.626 63.1283 128.391 63.1813 128.179 63.2879C127.985 63.3861 127.81 63.5196 127.665 63.6815C127.523 63.844 127.406 64.0276 127.321 64.2258C127.238 64.4226 127.179 64.629 127.147 64.8401L127.121 65.024H130.713L129.729 71.9795H128.553L129.403 65.9436H127.014L126.16 71.9795H124.98L125.816 65.9436ZM114.314 73.8737C114.425 73.8737 114.539 73.9032 114.654 73.9142H114.92C115.025 73.9161 115.128 73.8908 115.22 73.8406C115.337 73.7678 115.438 73.6713 115.516 73.5574C115.651 73.3661 115.774 73.1671 115.886 72.9616C116.031 72.7163 116.212 72.3853 116.429 71.9684L114.44 65.024H115.66L117.21 70.9091L120.213 65.024H121.322L116.677 73.8075C116.495 74.1324 116.242 74.4126 115.937 74.6278C115.572 74.8795 115.135 75.0084 114.691 74.9956C114.61 74.9956 114.528 74.9956 114.443 74.9956C114.34 74.983 114.237 74.9645 114.136 74.9404L114.314 73.8737ZM109.136 71.1004C109.368 71.0967 109.597 71.057 109.817 70.9827C110.059 70.9004 110.29 70.788 110.504 70.648C110.725 70.5088 110.925 70.3405 111.1 70.1477C111.262 69.9731 111.388 69.768 111.47 69.5445L111.751 67.5436C111.7 67.3182 111.609 67.1038 111.481 66.9109C111.35 66.7164 111.192 66.5418 111.011 66.3923C110.832 66.2472 110.631 66.1306 110.416 66.0465C110.206 65.9626 109.983 65.9189 109.757 65.9178C109.419 65.9156 109.085 65.9912 108.781 66.1385C108.474 66.29 108.196 66.4942 107.96 66.7417C107.722 66.9898 107.526 67.2742 107.379 67.584C107.23 67.8877 107.13 68.213 107.083 68.5477C107.032 68.8786 107.048 69.2164 107.131 69.5408C107.202 69.8389 107.336 70.1186 107.524 70.3611C107.705 70.5929 107.936 70.7814 108.2 70.9128C108.485 71.0542 108.8 71.1248 109.118 71.1188L109.136 71.1004ZM108.692 72.134C108.242 72.1404 107.797 72.0395 107.394 71.8397C107.021 71.6544 106.697 71.3849 106.447 71.0526C106.196 70.7052 106.021 70.3092 105.933 69.8903C105.829 69.4403 105.811 68.9747 105.881 68.5183C105.944 68.0289 106.086 67.553 106.303 67.1095C106.511 66.6833 106.788 66.2943 107.124 65.9583C107.443 65.6334 107.819 65.3691 108.234 65.1785C108.647 64.9881 109.098 64.8902 109.554 64.8916C110.071 64.8785 110.578 65.0321 111 65.3293C111.384 65.6054 111.693 65.9719 111.899 66.396L112.487 62.2396H113.667L112.494 70.5266C112.457 70.8024 112.561 70.9459 112.812 70.9533L112.668 71.9648L112.361 72.0052C112.287 72.0105 112.213 72.0105 112.139 72.0052C112.032 72.0085 111.925 71.9895 111.826 71.9496C111.727 71.9098 111.637 71.8498 111.562 71.7735C111.489 71.7052 111.434 71.6202 111.402 71.526C111.37 71.4317 111.361 71.3311 111.377 71.2328L111.459 70.6443C111.13 71.0904 110.701 71.4533 110.205 71.7036C109.739 71.9451 109.221 72.0713 108.696 72.0714L108.692 72.134ZM100.622 71.1923C101.036 71.1921 101.445 71.1121 101.828 70.9569C102.176 70.8251 102.488 70.6134 102.738 70.339C102.907 70.2097 103.024 70.0243 103.067 69.8167L103.211 68.7942C102.661 68.5681 102.072 68.4543 101.477 68.4594C100.959 68.4445 100.447 68.5718 99.9973 68.8273C99.8027 68.9268 99.6355 69.0719 99.5098 69.25C99.3842 69.4282 99.304 69.634 99.2761 69.8498C99.2448 70.0316 99.2575 70.2182 99.3131 70.3942C99.3623 70.5599 99.4511 70.7114 99.5719 70.8356C99.6985 70.964 99.8511 71.0643 100.019 71.1298C100.207 71.2021 100.406 71.2383 100.608 71.2365L100.622 71.1923ZM100.175 72.1156C99.8656 72.1206 99.5585 72.063 99.2724 71.9464C99.015 71.8454 98.7838 71.6883 98.5956 71.4866C98.411 71.2923 98.2743 71.0581 98.1961 70.8024C98.1202 70.5216 98.1101 70.2271 98.1666 69.9417C98.2076 69.6287 98.323 69.3299 98.5031 69.07C98.6912 68.8011 98.9313 68.5723 99.2095 68.3969C99.518 68.2004 99.8547 68.0516 100.208 67.9555C100.602 67.8473 101.009 67.794 101.417 67.7974C101.759 67.7968 102.099 67.8276 102.435 67.8893C102.739 67.9415 103.036 68.0266 103.322 68.1431L103.403 67.584C103.455 67.3531 103.455 67.1139 103.405 66.8827C103.355 66.6516 103.254 66.4341 103.111 66.2452C102.945 66.0733 102.742 65.9405 102.517 65.8565C102.293 65.7725 102.052 65.7394 101.813 65.7596C100.971 65.8039 100.159 66.0858 99.4721 66.5725L99.191 65.8111C100.037 65.2519 101.023 64.9385 102.039 64.9063C102.96 64.9063 103.64 65.1491 104.088 65.6419C104.535 66.1348 104.691 66.819 104.565 67.7091L104.165 70.545C104.125 70.8208 104.228 70.9643 104.48 70.9716L104.335 71.9831L104.021 72.0236C103.936 72.0293 103.851 72.0293 103.766 72.0236C103.668 72.0299 103.57 72.0148 103.478 71.9792C103.387 71.9436 103.305 71.8884 103.237 71.8176C103.117 71.6786 103.054 71.5003 103.06 71.3174L103.104 70.8245C102.741 71.2358 102.29 71.5613 101.784 71.7772C101.285 71.9928 100.748 72.1042 100.204 72.1045L100.175 72.1156ZM96.5577 68.0254C96.5818 67.7165 96.5416 67.4059 96.4394 67.1132C96.352 66.848 96.2082 66.6046 96.0178 66.3996C95.8316 66.2007 95.6046 66.0439 95.3521 65.9399C95.0715 65.8275 94.7704 65.7749 94.4681 65.7854C94.1572 65.7847 93.8489 65.8408 93.5583 65.9509C93.2686 66.0607 92.9997 66.2187 92.7632 66.418C92.5228 66.622 92.3167 66.8629 92.1529 67.1316C91.9798 67.4106 91.8548 67.7164 91.7831 68.0364L96.5577 68.0254ZM93.599 72.1045C93.115 72.1132 92.6351 72.0152 92.1936 71.8176C91.7991 71.6386 91.4511 71.3718 91.1766 71.0379C90.9052 70.7001 90.712 70.307 90.6107 69.8866C90.4984 69.4304 90.477 68.9568 90.5478 68.4925C90.6038 68.0101 90.7466 67.5416 90.9694 67.1095C91.2058 66.6822 91.5135 66.2979 91.8793 65.973C92.2437 65.6419 92.6645 65.3778 93.1219 65.1932C93.5913 65.0018 94.094 64.9043 94.6013 64.9063C95.0839 64.8952 95.5626 64.9959 95.9993 65.2006C96.3873 65.3802 96.7288 65.6456 96.9979 65.9767C97.2563 66.3116 97.4392 66.698 97.5341 67.1095C97.641 67.5478 97.6611 68.0025 97.5933 68.4484C97.5836 68.5387 97.5688 68.6283 97.5489 68.7169C97.5383 68.7804 97.5235 68.843 97.5045 68.9045H91.7017C91.677 69.2235 91.7134 69.5443 91.809 69.8498C91.895 70.1222 92.0388 70.373 92.2306 70.5854C92.4139 70.7905 92.6398 70.9537 92.8926 71.0636C93.1561 71.1829 93.4427 71.2432 93.7322 71.2402C93.9485 71.2397 94.1637 71.21 94.372 71.1519C94.5825 71.0945 94.7869 71.0169 94.9822 70.9202C95.172 70.8197 95.3484 70.6961 95.5074 70.5523C95.6576 70.4141 95.7827 70.2511 95.8772 70.0705L96.8536 70.35C96.6998 70.6131 96.5065 70.8513 96.2804 71.0562C96.0453 71.2723 95.7845 71.4588 95.5037 71.6117C95.2101 71.7707 94.8985 71.8942 94.5754 71.9795C94.2417 72.0708 93.8971 72.1166 93.5509 72.1156L93.599 72.1045ZM90.3074 66.0502C89.736 66.0624 89.1772 66.2194 88.6838 66.5063C88.2049 66.784 87.819 67.196 87.5743 67.6907L86.9678 71.9795H85.788L86.7718 65.024H87.8813L87.652 66.6387C87.9392 66.1798 88.3165 65.7832 88.7615 65.4727C89.1515 65.1915 89.6098 65.0188 90.0892 64.9725H90.3185C90.3714 64.9662 90.4247 64.9662 90.4776 64.9725L90.3074 66.0502ZM80.4512 68.8751L80.6028 67.8121H84.5527L84.4011 68.8751H80.4512ZM78.2321 68.0364C78.2532 67.7273 78.2117 67.4171 78.1101 67.1243C78.0227 66.859 77.8789 66.6156 77.6885 66.4107C77.5023 66.2117 77.2753 66.0549 77.0228 65.9509C76.751 65.8383 76.4591 65.7819 76.1647 65.7854C75.8538 65.7847 75.5455 65.8408 75.2549 65.9509C74.9782 66.0643 74.7221 66.2221 74.4967 66.418C74.2563 66.622 74.0503 66.8629 73.8865 67.1316C73.7151 67.4115 73.5902 67.717 73.5167 68.0364H78.2321ZM75.2734 72.1156C74.7894 72.1242 74.3095 72.0263 73.868 71.8287C73.4735 71.6496 73.1255 71.3828 72.851 71.0489C72.5769 70.7118 72.3812 70.3187 72.2777 69.8976C72.1654 69.4415 72.144 68.9679 72.2148 68.5036C72.285 68.0149 72.4428 67.5427 72.6808 67.1095C72.9132 66.6804 73.2171 66.2936 73.5795 65.9656C73.9452 65.6361 74.3657 65.3722 74.8222 65.1858C75.2916 64.9944 75.7943 64.8969 76.3016 64.8989C76.7854 64.8882 77.2651 64.9889 77.7033 65.1932C78.0896 65.3738 78.4297 65.6392 78.6981 65.9693C78.9613 66.3061 79.1492 66.6948 79.2492 67.1095C79.353 67.5483 79.3718 68.0027 79.3047 68.4484C79.295 68.5387 79.2802 68.6283 79.2603 68.7169C79.2497 68.7804 79.2349 68.843 79.2159 68.9045H73.4131C73.3884 69.2235 73.4248 69.5443 73.5204 69.8498C73.6064 70.1222 73.7502 70.373 73.942 70.5854C74.1253 70.7905 74.3512 70.9537 74.604 71.0636C74.8675 71.1829 75.1541 71.2432 75.4435 71.2402C75.6599 71.24 75.8752 71.2103 76.0834 71.1519C76.2939 71.0945 76.4982 71.0169 76.6936 70.9202C76.8833 70.8197 77.0597 70.6961 77.2188 70.5523C77.369 70.4141 77.4941 70.2511 77.5886 70.0705L78.565 70.35C78.4112 70.6131 78.2179 70.8513 77.9917 71.0562C77.7574 71.2731 77.4964 71.4597 77.2151 71.6117C76.9215 71.7707 76.6099 71.8942 76.2868 71.9795C75.9531 72.0708 75.6084 72.1166 75.2623 72.1156H75.2734ZM72.0188 66.0502C71.4588 66.0679 70.912 66.2247 70.4285 66.5063C69.9496 66.784 69.5636 67.196 69.319 67.6907L68.7124 71.9795H67.5326L68.5164 65.024H69.6259L69.3966 66.6387C69.6838 66.1798 70.0612 65.7832 70.5062 65.4727C70.8975 65.1915 71.357 65.0189 71.8376 64.9725H72.0632C72.116 64.9662 72.1694 64.9662 72.2222 64.9725L72.0188 66.0502ZM61.5708 72.1156C61.2688 72.1432 60.9649 72.0894 60.6909 71.96C60.417 71.8306 60.1831 71.6302 60.0138 71.3799C59.708 70.8895 59.623 70.1612 59.7586 69.1951L60.3466 65.024H61.5523L60.9976 68.9707C60.7929 70.3905 61.1874 71.1004 62.1811 71.1004C62.6914 71.0933 63.1877 70.933 63.6049 70.6406C64.077 70.3227 64.459 69.8896 64.7145 69.3827L65.3284 65.024H66.5082L65.7278 70.5413C65.6908 70.8172 65.7944 70.9606 66.0459 70.968L65.9016 71.9795L65.5836 72.0163H65.358C65.2568 72.0213 65.1558 72.0056 65.061 71.9701C64.9662 71.9347 64.8797 71.8803 64.8069 71.8103C64.7401 71.7442 64.6893 71.6637 64.6585 71.5751C64.6278 71.4865 64.6178 71.392 64.6294 71.299L64.7182 70.4861C64.3516 70.9912 63.8717 71.4043 63.3165 71.6926C62.7804 71.9686 62.1855 72.1124 61.5819 72.1119L61.5708 72.1156ZM58.3939 71.63L58.0943 71.7588C57.9723 71.8066 57.8317 71.8544 57.6801 71.9059C57.5165 71.9563 57.3497 71.9956 57.1808 72.0236C56.999 72.0563 56.8145 72.0723 56.6297 72.0714C56.2425 72.0824 55.8648 71.9515 55.5683 71.7036C55.4222 71.5639 55.3161 71.3881 55.2609 71.1942C55.2057 71.0003 55.2033 70.7953 55.2539 70.6001L55.9159 65.9215H54.9655L55.0949 65.0019H56.0454L56.3746 62.6957H57.5506L57.2252 65.013H58.7933L58.6602 65.9325H57.1142L56.504 70.2507C56.4852 70.3509 56.4913 70.4542 56.5215 70.5516C56.5518 70.649 56.6055 70.7376 56.6778 70.8098C56.82 70.9292 57.0023 70.991 57.1882 70.9827C57.4112 70.9844 57.6328 70.947 57.8428 70.8723C57.9869 70.8207 58.1277 70.7605 58.2644 70.6921L58.3939 71.63ZM48.815 72.1119C48.5125 72.1394 48.2081 72.0856 47.9335 71.9562C47.659 71.8268 47.4244 71.6265 47.2543 71.3762C46.951 70.8858 46.8672 70.1575 47.0028 69.1914L47.5908 65.0203H48.7706L48.2122 68.967C48.0125 70.3868 48.4082 71.0967 49.3994 71.0967C49.9105 71.091 50.408 70.932 50.8269 70.6406C51.299 70.3227 51.681 69.8896 51.9365 69.3827L52.5504 65.024H53.7302L52.9498 70.5413C52.9128 70.8172 53.0164 70.9606 53.2642 70.968L53.1236 71.9795L52.8019 72.0163H52.58C52.4782 72.0218 52.3764 72.0063 52.281 71.9709C52.1855 71.9354 52.0984 71.8808 52.0252 71.8103C51.9588 71.744 51.9086 71.6634 51.8784 71.5748C51.8483 71.4861 51.839 71.3918 51.8514 71.299L51.9402 70.4861C51.5723 70.9914 51.0911 71.4044 50.5348 71.6926C50.0002 71.969 49.4064 72.1128 48.8039 72.1119H48.815ZM42.4426 71.9758L43.297 65.9399H42.3465L42.4759 65.0203H43.4301L43.4523 64.8769C43.5228 64.1292 43.8237 63.4213 44.3141 62.8502C44.5225 62.6144 44.7799 62.4266 45.0685 62.2995C45.3572 62.1725 45.6701 62.1094 45.9857 62.1145C46.2562 62.1129 46.5255 62.1514 46.7846 62.2286C47.0273 62.2944 47.2573 62.4001 47.4651 62.5412L47.0583 63.4313C46.9285 63.3342 46.7818 63.2619 46.6256 63.218C46.4541 63.1657 46.276 63.1384 46.0967 63.1371C45.913 63.1319 45.7307 63.169 45.5638 63.2456C45.397 63.3222 45.2503 63.4361 45.1351 63.5785C44.8558 63.9517 44.6868 64.395 44.6469 64.8585L44.621 65.0424H46.4702L46.3408 65.9619H44.4916L43.6372 71.9979L42.4426 71.9758Z" fill="#FD4703"/>
</svg>
