<svg width="300" height="40" viewBox="0 0 300 40" fill="none" xmlns="http://www.w3.org/2000/svg">
<g clip-path="url(#clip0_12187_586)">
<rect width="300" height="40" fill="#2E303E"/>
<g opacity="0.3" filter="url(#filter0_f_12187_586)">
<rect width="300" height="40" fill="url(#paint0_radial_12187_586)"/>
<rect width="300" height="40" fill="url(#paint1_radial_12187_586)"/>
<rect width="300" height="40" fill="url(#paint2_radial_12187_586)"/>
</g>
<rect x="0.1" y="0.1" width="299.8" height="39.8" rx="19.9" stroke="url(#paint3_linear_12187_586)" stroke-opacity="0.2" stroke-width="0.2"/>
<path d="M27.9124 13.9215C29.3259 13.9215 30.4718 15.0584 30.4718 16.4608C30.4718 17.8631 29.3259 19 27.9124 19L24.5 19L24.5 13.9215L27.9124 13.9215Z" fill="white"/>
<path d="M36.5905 16.4608C36.5905 17.8631 35.4446 19 34.0312 19C32.6177 19 31.4718 17.8631 31.4718 16.4608C31.4718 15.0584 32.6177 13.9215 34.0312 13.9215C35.4446 13.9215 36.5905 15.0584 36.5905 16.4608Z" fill="url(#paint4_linear_12187_586)"/>
<path d="M34.7374 20C36.1508 20 37.2967 21.1369 37.2967 22.5393C37.2967 23.9417 36.1508 25.0785 34.7374 25.0785L24.5 25.0785L24.5 20L34.7374 20Z" fill="white"/>
<path d="M51.7018 18.355C51.7018 18.789 51.6213 19.1565 51.4603 19.4575C51.2993 19.7515 51.0823 19.9895 50.8093 20.1715C50.5363 20.3535 50.2213 20.4865 49.8643 20.5705C49.5073 20.6545 49.1363 20.6965 48.7513 20.6965H47.8588V23.5H46.0633V16.066H48.7933C49.1993 16.066 49.5773 16.108 49.9273 16.192C50.2843 16.269 50.5923 16.3985 50.8513 16.5805C51.1173 16.7555 51.3238 16.99 51.4708 17.284C51.6248 17.571 51.7018 17.928 51.7018 18.355ZM49.9063 18.3655C49.9063 18.1905 49.8713 18.047 49.8013 17.935C49.7313 17.823 49.6368 17.7355 49.5178 17.6725C49.3988 17.6095 49.2623 17.5675 49.1083 17.5465C48.9613 17.5255 48.8073 17.515 48.6463 17.515H47.8588V19.2685H48.6148C48.7828 19.2685 48.9438 19.2545 49.0978 19.2265C49.2518 19.1985 49.3883 19.1495 49.5073 19.0795C49.6333 19.0095 49.7313 18.9185 49.8013 18.8065C49.8713 18.6875 49.9063 18.5405 49.9063 18.3655ZM55.6779 23.5V22.7755H55.6569C55.5939 22.8945 55.5099 23.0065 55.4049 23.1115C55.3069 23.2165 55.1879 23.3075 55.0479 23.3845C54.9149 23.4615 54.7644 23.5245 54.5964 23.5735C54.4354 23.6225 54.2639 23.647 54.0819 23.647C53.7319 23.647 53.4344 23.584 53.1894 23.458C52.9514 23.332 52.7554 23.171 52.6014 22.975C52.4544 22.772 52.3459 22.5445 52.2759 22.2925C52.2129 22.0335 52.1814 21.771 52.1814 21.505V18.271H53.9139V21.106C53.9139 21.253 53.9244 21.393 53.9454 21.526C53.9664 21.659 54.0049 21.778 54.0609 21.883C54.1239 21.988 54.2044 22.072 54.3024 22.135C54.4004 22.191 54.5299 22.219 54.6909 22.219C54.9919 22.219 55.2194 22.107 55.3734 21.883C55.5344 21.659 55.6149 21.3965 55.6149 21.0955V18.271H57.3369V23.5H55.6779ZM64.5111 20.8645C64.5111 21.2285 64.4551 21.5785 64.3431 21.9145C64.2311 22.2505 64.0666 22.548 63.8496 22.807C63.6396 23.059 63.3806 23.262 63.0726 23.416C62.7646 23.57 62.4146 23.647 62.0226 23.647C61.6726 23.647 61.3401 23.577 61.0251 23.437C60.7171 23.29 60.4791 23.0835 60.3111 22.8175H60.2901V23.5H58.7046V15.562H60.4266V18.8275H60.4476C60.5946 18.6525 60.8011 18.4915 61.0671 18.3445C61.3331 18.1975 61.6586 18.124 62.0436 18.124C62.4216 18.124 62.7611 18.1975 63.0621 18.3445C63.3701 18.4915 63.6291 18.691 63.8391 18.943C64.0561 19.195 64.2206 19.489 64.3326 19.825C64.4516 20.154 64.5111 20.5005 64.5111 20.8645ZM62.8521 20.8645C62.8521 20.6965 62.8241 20.532 62.7681 20.371C62.7191 20.21 62.6421 20.07 62.5371 19.951C62.4321 19.825 62.3026 19.7235 62.1486 19.6465C61.9946 19.5695 61.8161 19.531 61.6131 19.531C61.4171 19.531 61.2421 19.5695 61.0881 19.6465C60.9341 19.7235 60.8011 19.825 60.6891 19.951C60.5841 20.077 60.5001 20.2205 60.4371 20.3815C60.3811 20.5425 60.3531 20.707 60.3531 20.875C60.3531 21.043 60.3811 21.2075 60.4371 21.3685C60.5001 21.5295 60.5841 21.673 60.6891 21.799C60.8011 21.925 60.9341 22.0265 61.0881 22.1035C61.2421 22.1805 61.4171 22.219 61.6131 22.219C61.8161 22.219 61.9946 22.1805 62.1486 22.1035C62.3026 22.0265 62.4321 21.925 62.5371 21.799C62.6421 21.673 62.7191 21.5295 62.7681 21.3685C62.8241 21.2005 62.8521 21.0325 62.8521 20.8645ZM65.626 23.5V15.562H67.369V23.5H65.626ZM70.6014 16.6015C70.6014 16.7345 70.5734 16.8605 70.5174 16.9795C70.4684 17.0915 70.3984 17.1895 70.3074 17.2735C70.2234 17.3575 70.1184 17.424 69.9924 17.473C69.8734 17.522 69.7474 17.5465 69.6144 17.5465C69.3344 17.5465 69.0999 17.4555 68.9109 17.2735C68.7219 17.0845 68.6274 16.8605 68.6274 16.6015C68.6274 16.4755 68.6519 16.3565 68.7009 16.2445C68.7499 16.1255 68.8199 16.024 68.9109 15.94C69.0019 15.856 69.1069 15.7895 69.2259 15.7405C69.3449 15.6845 69.4744 15.6565 69.6144 15.6565C69.7474 15.6565 69.8734 15.681 69.9924 15.73C70.1184 15.779 70.2234 15.8455 70.3074 15.9295C70.3984 16.0135 70.4684 16.115 70.5174 16.234C70.5734 16.346 70.6014 16.4685 70.6014 16.6015ZM68.7534 23.5V18.271H70.4754V23.5H68.7534ZM74.9159 19.8145C74.7759 19.6815 74.6114 19.5695 74.4224 19.4785C74.2334 19.3875 74.0339 19.342 73.8239 19.342C73.6629 19.342 73.5124 19.3735 73.3724 19.4365C73.2394 19.4995 73.1729 19.608 73.1729 19.762C73.1729 19.909 73.2464 20.014 73.3934 20.077C73.5474 20.14 73.7924 20.21 74.1284 20.287C74.3244 20.329 74.5204 20.3885 74.7164 20.4655C74.9194 20.5425 75.1014 20.644 75.2624 20.77C75.4234 20.896 75.5529 21.05 75.6509 21.232C75.7489 21.414 75.7979 21.631 75.7979 21.883C75.7979 22.212 75.7314 22.492 75.5984 22.723C75.4654 22.947 75.2904 23.129 75.0734 23.269C74.8634 23.409 74.6254 23.5105 74.3594 23.5735C74.0934 23.6365 73.8274 23.668 73.5614 23.668C73.1344 23.668 72.7144 23.6015 72.3014 23.4685C71.8954 23.3285 71.5559 23.1255 71.2829 22.8595L72.2489 21.841C72.4029 22.009 72.5919 22.149 72.8159 22.261C73.0399 22.373 73.2779 22.429 73.5299 22.429C73.6699 22.429 73.8064 22.3975 73.9394 22.3345C74.0794 22.2645 74.1494 22.1455 74.1494 21.9775C74.1494 21.8165 74.0654 21.6975 73.8974 21.6205C73.7294 21.5435 73.4669 21.463 73.1099 21.379C72.9279 21.337 72.7459 21.281 72.5639 21.211C72.3819 21.141 72.2174 21.0465 72.0704 20.9275C71.9304 20.8085 71.8149 20.6615 71.7239 20.4865C71.6329 20.3115 71.5874 20.1015 71.5874 19.8565C71.5874 19.5415 71.6539 19.2755 71.7869 19.0585C71.9199 18.8345 72.0914 18.6525 72.3014 18.5125C72.5114 18.3725 72.7424 18.271 72.9944 18.208C73.2534 18.138 73.5089 18.103 73.7609 18.103C74.1529 18.103 74.5344 18.166 74.9054 18.292C75.2834 18.411 75.6019 18.593 75.8609 18.838L74.9159 19.8145ZM80.236 23.5V20.665C80.236 20.518 80.2255 20.378 80.2045 20.245C80.1835 20.112 80.1415 19.9965 80.0785 19.8985C80.0225 19.7935 79.9455 19.713 79.8475 19.657C79.7495 19.594 79.6235 19.5625 79.4695 19.5625C79.1685 19.5625 78.9375 19.671 78.7765 19.888C78.6155 20.098 78.535 20.3605 78.535 20.6755V23.5H76.813V15.562H78.535V18.9325H78.556C78.675 18.7225 78.864 18.537 79.123 18.376C79.382 18.208 79.6935 18.124 80.0575 18.124C80.4145 18.124 80.712 18.187 80.95 18.313C81.195 18.439 81.391 18.6035 81.538 18.8065C81.692 19.0025 81.8005 19.23 81.8635 19.489C81.9335 19.748 81.9685 20.007 81.9685 20.266V23.5H80.236ZM90.8474 23.5L90.2699 22.0405H87.3929L86.8469 23.5H84.8939L88.0124 16.066H89.7554L92.8424 23.5H90.8474ZM88.8524 18.0505L87.9074 20.602H89.7764L88.8524 18.0505ZM99.0953 18.355C99.0953 18.789 99.0148 19.1565 98.8538 19.4575C98.6928 19.7515 98.4758 19.9895 98.2028 20.1715C97.9298 20.3535 97.6148 20.4865 97.2578 20.5705C96.9008 20.6545 96.5298 20.6965 96.1448 20.6965H95.2523V23.5H93.4568V16.066H96.1868C96.5928 16.066 96.9708 16.108 97.3208 16.192C97.6778 16.269 97.9858 16.3985 98.2448 16.5805C98.5108 16.7555 98.7173 16.99 98.8643 17.284C99.0183 17.571 99.0953 17.928 99.0953 18.355ZM97.2998 18.3655C97.2998 18.1905 97.2648 18.047 97.1948 17.935C97.1248 17.823 97.0303 17.7355 96.9113 17.6725C96.7923 17.6095 96.6558 17.5675 96.5018 17.5465C96.3548 17.5255 96.2008 17.515 96.0398 17.515H95.2523V19.2685H96.0083C96.1763 19.2685 96.3373 19.2545 96.4913 19.2265C96.6453 19.1985 96.7818 19.1495 96.9008 19.0795C97.0268 19.0095 97.1248 18.9185 97.1948 18.8065C97.2648 18.6875 97.2998 18.5405 97.2998 18.3655ZM100.173 23.5V16.066H101.979V23.5H100.173ZM110.005 23.5V22.8175H109.984C109.816 23.0835 109.574 23.29 109.259 23.437C108.951 23.577 108.622 23.647 108.272 23.647C107.88 23.647 107.53 23.57 107.222 23.416C106.914 23.262 106.652 23.059 106.435 22.807C106.225 22.548 106.064 22.2505 105.952 21.9145C105.84 21.5785 105.784 21.2285 105.784 20.8645C105.784 20.5005 105.84 20.154 105.952 19.825C106.071 19.489 106.235 19.195 106.445 18.943C106.662 18.691 106.921 18.4915 107.222 18.3445C107.53 18.1975 107.873 18.124 108.251 18.124C108.636 18.124 108.962 18.1975 109.228 18.3445C109.494 18.4915 109.7 18.6525 109.847 18.8275H109.868V15.562H111.59V23.5H110.005ZM109.942 20.875C109.942 20.707 109.91 20.5425 109.847 20.3815C109.791 20.2205 109.707 20.077 109.595 19.951C109.49 19.825 109.361 19.7235 109.207 19.6465C109.053 19.5695 108.878 19.531 108.682 19.531C108.479 19.531 108.3 19.5695 108.146 19.6465C107.992 19.7235 107.863 19.825 107.758 19.951C107.653 20.07 107.572 20.21 107.516 20.371C107.467 20.532 107.443 20.6965 107.443 20.8645C107.443 21.0325 107.467 21.2005 107.516 21.3685C107.572 21.5295 107.653 21.673 107.758 21.799C107.863 21.925 107.992 22.0265 108.146 22.1035C108.3 22.1805 108.479 22.219 108.682 22.219C108.878 22.219 109.053 22.1805 109.207 22.1035C109.361 22.0265 109.49 21.925 109.595 21.799C109.707 21.673 109.791 21.5295 109.847 21.3685C109.91 21.2075 109.942 21.043 109.942 20.875ZM118.502 20.8645C118.502 21.2915 118.425 21.68 118.271 22.03C118.117 22.373 117.907 22.667 117.641 22.912C117.375 23.15 117.067 23.3355 116.717 23.4685C116.367 23.6015 115.992 23.668 115.593 23.668C115.201 23.668 114.827 23.6015 114.47 23.4685C114.12 23.3355 113.812 23.15 113.546 22.912C113.287 22.667 113.08 22.373 112.926 22.03C112.772 21.68 112.695 21.2915 112.695 20.8645C112.695 20.4375 112.772 20.0525 112.926 19.7095C113.08 19.3665 113.287 19.076 113.546 18.838C113.812 18.6 114.12 18.418 114.47 18.292C114.827 18.166 115.201 18.103 115.593 18.103C115.992 18.103 116.367 18.166 116.717 18.292C117.067 18.418 117.375 18.6 117.641 18.838C117.907 19.076 118.117 19.3665 118.271 19.7095C118.425 20.0525 118.502 20.4375 118.502 20.8645ZM116.843 20.8645C116.843 20.6965 116.815 20.532 116.759 20.371C116.703 20.21 116.622 20.07 116.517 19.951C116.412 19.825 116.283 19.7235 116.129 19.6465C115.975 19.5695 115.796 19.531 115.593 19.531C115.39 19.531 115.212 19.5695 115.058 19.6465C114.904 19.7235 114.774 19.825 114.669 19.951C114.571 20.07 114.494 20.21 114.438 20.371C114.389 20.532 114.365 20.6965 114.365 20.8645C114.365 21.0325 114.389 21.197 114.438 21.358C114.494 21.519 114.575 21.666 114.68 21.799C114.785 21.925 114.914 22.0265 115.068 22.1035C115.222 22.1805 115.401 22.219 115.604 22.219C115.807 22.219 115.985 22.1805 116.139 22.1035C116.293 22.0265 116.423 21.925 116.528 21.799C116.633 21.666 116.71 21.519 116.759 21.358C116.815 21.197 116.843 21.0325 116.843 20.8645ZM123.193 19.9615C123.095 19.8355 122.962 19.734 122.794 19.657C122.626 19.58 122.455 19.5415 122.28 19.5415C122.098 19.5415 121.933 19.58 121.786 19.657C121.639 19.727 121.513 19.825 121.408 19.951C121.303 20.07 121.219 20.21 121.156 20.371C121.1 20.532 121.072 20.7035 121.072 20.8855C121.072 21.0675 121.1 21.239 121.156 21.4C121.212 21.561 121.293 21.7045 121.398 21.8305C121.51 21.9495 121.639 22.044 121.786 22.114C121.94 22.184 122.112 22.219 122.301 22.219C122.476 22.219 122.647 22.1875 122.815 22.1245C122.99 22.0545 123.13 21.9565 123.235 21.8305L124.191 22.996C123.974 23.206 123.694 23.3705 123.351 23.4895C123.008 23.6085 122.644 23.668 122.259 23.668C121.846 23.668 121.461 23.605 121.104 23.479C120.747 23.353 120.435 23.171 120.169 22.933C119.91 22.688 119.704 22.394 119.55 22.051C119.403 21.708 119.329 21.3195 119.329 20.8855C119.329 20.4585 119.403 20.0735 119.55 19.7305C119.704 19.3875 119.91 19.097 120.169 18.859C120.435 18.614 120.747 18.4285 121.104 18.3025C121.461 18.1695 121.842 18.103 122.248 18.103C122.437 18.103 122.623 18.1205 122.805 18.1555C122.994 18.1905 123.172 18.2395 123.34 18.3025C123.515 18.3585 123.673 18.432 123.813 18.523C123.96 18.607 124.086 18.7015 124.191 18.8065L123.193 19.9615ZM127.949 19.8145C127.809 19.6815 127.645 19.5695 127.456 19.4785C127.267 19.3875 127.067 19.342 126.857 19.342C126.696 19.342 126.546 19.3735 126.406 19.4365C126.273 19.4995 126.206 19.608 126.206 19.762C126.206 19.909 126.28 20.014 126.427 20.077C126.581 20.14 126.826 20.21 127.162 20.287C127.358 20.329 127.554 20.3885 127.75 20.4655C127.953 20.5425 128.135 20.644 128.296 20.77C128.457 20.896 128.586 21.05 128.684 21.232C128.782 21.414 128.831 21.631 128.831 21.883C128.831 22.212 128.765 22.492 128.632 22.723C128.499 22.947 128.324 23.129 128.107 23.269C127.897 23.409 127.659 23.5105 127.393 23.5735C127.127 23.6365 126.861 23.668 126.595 23.668C126.168 23.668 125.748 23.6015 125.335 23.4685C124.929 23.3285 124.589 23.1255 124.316 22.8595L125.282 21.841C125.436 22.009 125.625 22.149 125.849 22.261C126.073 22.373 126.311 22.429 126.563 22.429C126.703 22.429 126.84 22.3975 126.973 22.3345C127.113 22.2645 127.183 22.1455 127.183 21.9775C127.183 21.8165 127.099 21.6975 126.931 21.6205C126.763 21.5435 126.5 21.463 126.143 21.379C125.961 21.337 125.779 21.281 125.597 21.211C125.415 21.141 125.251 21.0465 125.104 20.9275C124.964 20.8085 124.848 20.6615 124.757 20.4865C124.666 20.3115 124.621 20.1015 124.621 19.8565C124.621 19.5415 124.687 19.2755 124.82 19.0585C124.953 18.8345 125.125 18.6525 125.335 18.5125C125.545 18.3725 125.776 18.271 126.028 18.208C126.287 18.138 126.542 18.103 126.794 18.103C127.186 18.103 127.568 18.166 127.939 18.292C128.317 18.411 128.635 18.593 128.894 18.838L127.949 19.8145ZM135.537 21.2215H135.317C135.128 21.2215 134.935 21.232 134.739 21.253C134.55 21.267 134.379 21.2985 134.225 21.3475C134.078 21.3965 133.955 21.47 133.857 21.568C133.759 21.659 133.71 21.7815 133.71 21.9355C133.71 22.0335 133.731 22.1175 133.773 22.1875C133.822 22.2575 133.882 22.3135 133.952 22.3555C134.022 22.3975 134.102 22.429 134.193 22.45C134.284 22.464 134.372 22.471 134.456 22.471C134.806 22.471 135.072 22.3765 135.254 22.1875C135.443 21.9915 135.537 21.729 135.537 21.4V21.2215ZM132.377 18.985C132.685 18.691 133.042 18.4705 133.448 18.3235C133.861 18.1765 134.281 18.103 134.708 18.103C135.149 18.103 135.52 18.159 135.821 18.271C136.129 18.376 136.377 18.544 136.566 18.775C136.755 18.999 136.892 19.286 136.976 19.636C137.067 19.979 137.112 20.3885 137.112 20.8645V23.5H135.537V22.9435H135.506C135.373 23.1605 135.17 23.3285 134.897 23.4475C134.631 23.5665 134.34 23.626 134.025 23.626C133.815 23.626 133.598 23.598 133.374 23.542C133.15 23.486 132.944 23.395 132.755 23.269C132.573 23.143 132.422 22.975 132.303 22.765C132.184 22.555 132.125 22.296 132.125 21.988C132.125 21.61 132.226 21.3055 132.429 21.0745C132.639 20.8435 132.905 20.665 133.227 20.539C133.556 20.413 133.92 20.329 134.319 20.287C134.718 20.245 135.107 20.224 135.485 20.224V20.14C135.485 19.881 135.394 19.692 135.212 19.573C135.03 19.447 134.806 19.384 134.54 19.384C134.295 19.384 134.057 19.4365 133.826 19.5415C133.602 19.6465 133.409 19.7725 133.248 19.9195L132.377 18.985ZM141.831 23.5V20.644C141.831 20.497 141.817 20.357 141.789 20.224C141.768 20.091 141.729 19.9755 141.673 19.8775C141.617 19.7725 141.537 19.692 141.432 19.636C141.334 19.573 141.208 19.5415 141.054 19.5415C140.9 19.5415 140.763 19.573 140.644 19.636C140.532 19.692 140.438 19.7725 140.361 19.8775C140.284 19.9825 140.224 20.105 140.182 20.245C140.147 20.378 140.13 20.518 140.13 20.665V23.5H138.397V18.271H140.067V18.9955H140.088C140.151 18.8835 140.231 18.775 140.329 18.67C140.434 18.558 140.553 18.4635 140.686 18.3865C140.826 18.3095 140.977 18.2465 141.138 18.1975C141.299 18.1485 141.47 18.124 141.652 18.124C142.002 18.124 142.3 18.187 142.545 18.313C142.79 18.439 142.986 18.6035 143.133 18.8065C143.287 19.0025 143.395 19.23 143.458 19.489C143.528 19.748 143.563 20.007 143.563 20.266V23.5H141.831ZM148.826 23.5V22.8175H148.805C148.637 23.0835 148.396 23.29 148.081 23.437C147.773 23.577 147.444 23.647 147.094 23.647C146.702 23.647 146.352 23.57 146.044 23.416C145.736 23.262 145.473 23.059 145.256 22.807C145.046 22.548 144.885 22.2505 144.773 21.9145C144.661 21.5785 144.605 21.2285 144.605 20.8645C144.605 20.5005 144.661 20.154 144.773 19.825C144.892 19.489 145.057 19.195 145.267 18.943C145.484 18.691 145.743 18.4915 146.044 18.3445C146.352 18.1975 146.695 18.124 147.073 18.124C147.458 18.124 147.783 18.1975 148.049 18.3445C148.315 18.4915 148.522 18.6525 148.669 18.8275H148.69V15.562H150.412V23.5H148.826ZM148.763 20.875C148.763 20.707 148.732 20.5425 148.669 20.3815C148.613 20.2205 148.529 20.077 148.417 19.951C148.312 19.825 148.182 19.7235 148.028 19.6465C147.874 19.5695 147.699 19.531 147.503 19.531C147.3 19.531 147.122 19.5695 146.968 19.6465C146.814 19.7235 146.684 19.825 146.579 19.951C146.474 20.07 146.394 20.21 146.338 20.371C146.289 20.532 146.264 20.6965 146.264 20.8645C146.264 21.0325 146.289 21.2005 146.338 21.3685C146.394 21.5295 146.474 21.673 146.579 21.799C146.684 21.925 146.814 22.0265 146.968 22.1035C147.122 22.1805 147.3 22.219 147.503 22.219C147.699 22.219 147.874 22.1805 148.028 22.1035C148.182 22.0265 148.312 21.925 148.417 21.799C148.529 21.673 148.613 21.5295 148.669 21.3685C148.732 21.2075 148.763 21.043 148.763 20.875ZM158.005 19.9615C157.907 19.8355 157.774 19.734 157.606 19.657C157.438 19.58 157.267 19.5415 157.092 19.5415C156.91 19.5415 156.745 19.58 156.598 19.657C156.451 19.727 156.325 19.825 156.22 19.951C156.115 20.07 156.031 20.21 155.968 20.371C155.912 20.532 155.884 20.7035 155.884 20.8855C155.884 21.0675 155.912 21.239 155.968 21.4C156.024 21.561 156.105 21.7045 156.21 21.8305C156.322 21.9495 156.451 22.044 156.598 22.114C156.752 22.184 156.924 22.219 157.113 22.219C157.288 22.219 157.459 22.1875 157.627 22.1245C157.802 22.0545 157.942 21.9565 158.047 21.8305L159.003 22.996C158.786 23.206 158.506 23.3705 158.163 23.4895C157.82 23.6085 157.456 23.668 157.071 23.668C156.658 23.668 156.273 23.605 155.916 23.479C155.559 23.353 155.247 23.171 154.981 22.933C154.722 22.688 154.516 22.394 154.362 22.051C154.215 21.708 154.141 21.3195 154.141 20.8855C154.141 20.4585 154.215 20.0735 154.362 19.7305C154.516 19.3875 154.722 19.097 154.981 18.859C155.247 18.614 155.559 18.4285 155.916 18.3025C156.273 18.1695 156.654 18.103 157.06 18.103C157.249 18.103 157.435 18.1205 157.617 18.1555C157.806 18.1905 157.984 18.2395 158.152 18.3025C158.327 18.3585 158.485 18.432 158.625 18.523C158.772 18.607 158.898 18.7015 159.003 18.8065L158.005 19.9615ZM163.129 23.5V20.665C163.129 20.518 163.118 20.378 163.097 20.245C163.076 20.112 163.034 19.9965 162.971 19.8985C162.915 19.7935 162.838 19.713 162.74 19.657C162.642 19.594 162.516 19.5625 162.362 19.5625C162.061 19.5625 161.83 19.671 161.669 19.888C161.508 20.098 161.428 20.3605 161.428 20.6755V23.5H159.706V15.562H161.428V18.9325H161.449C161.568 18.7225 161.757 18.537 162.016 18.376C162.275 18.208 162.586 18.124 162.95 18.124C163.307 18.124 163.605 18.187 163.843 18.313C164.088 18.439 164.284 18.6035 164.431 18.8065C164.585 19.0025 164.693 19.23 164.756 19.489C164.826 19.748 164.861 20.007 164.861 20.266V23.5H163.129ZM169.252 21.2215H169.032C168.843 21.2215 168.65 21.232 168.454 21.253C168.265 21.267 168.094 21.2985 167.94 21.3475C167.793 21.3965 167.67 21.47 167.572 21.568C167.474 21.659 167.425 21.7815 167.425 21.9355C167.425 22.0335 167.446 22.1175 167.488 22.1875C167.537 22.2575 167.597 22.3135 167.667 22.3555C167.737 22.3975 167.817 22.429 167.908 22.45C167.999 22.464 168.087 22.471 168.171 22.471C168.521 22.471 168.787 22.3765 168.969 22.1875C169.158 21.9915 169.252 21.729 169.252 21.4V21.2215ZM166.092 18.985C166.4 18.691 166.757 18.4705 167.163 18.3235C167.576 18.1765 167.996 18.103 168.423 18.103C168.864 18.103 169.235 18.159 169.536 18.271C169.844 18.376 170.092 18.544 170.281 18.775C170.47 18.999 170.607 19.286 170.691 19.636C170.782 19.979 170.827 20.3885 170.827 20.8645V23.5H169.252V22.9435H169.221C169.088 23.1605 168.885 23.3285 168.612 23.4475C168.346 23.5665 168.055 23.626 167.74 23.626C167.53 23.626 167.313 23.598 167.089 23.542C166.865 23.486 166.659 23.395 166.47 23.269C166.288 23.143 166.137 22.975 166.018 22.765C165.899 22.555 165.84 22.296 165.84 21.988C165.84 21.61 165.941 21.3055 166.144 21.0745C166.354 20.8435 166.62 20.665 166.942 20.539C167.271 20.413 167.635 20.329 168.034 20.287C168.433 20.245 168.822 20.224 169.2 20.224V20.14C169.2 19.881 169.109 19.692 168.927 19.573C168.745 19.447 168.521 19.384 168.255 19.384C168.01 19.384 167.772 19.4365 167.541 19.5415C167.317 19.6465 167.124 19.7725 166.963 19.9195L166.092 18.985ZM175.546 23.5V20.644C175.546 20.497 175.532 20.357 175.504 20.224C175.483 20.091 175.444 19.9755 175.388 19.8775C175.332 19.7725 175.252 19.692 175.147 19.636C175.049 19.573 174.923 19.5415 174.769 19.5415C174.615 19.5415 174.478 19.573 174.359 19.636C174.247 19.692 174.153 19.7725 174.076 19.8775C173.999 19.9825 173.939 20.105 173.897 20.245C173.862 20.378 173.845 20.518 173.845 20.665V23.5H172.112V18.271H173.782V18.9955H173.803C173.866 18.8835 173.946 18.775 174.044 18.67C174.149 18.558 174.268 18.4635 174.401 18.3865C174.541 18.3095 174.692 18.2465 174.853 18.1975C175.014 18.1485 175.185 18.124 175.367 18.124C175.717 18.124 176.015 18.187 176.26 18.313C176.505 18.439 176.701 18.6035 176.848 18.8065C177.002 19.0025 177.11 19.23 177.173 19.489C177.243 19.748 177.278 20.007 177.278 20.266V23.5H175.546ZM184.127 23.0065C184.127 23.5175 184.053 23.962 183.906 24.34C183.759 24.718 183.553 25.0295 183.287 25.2745C183.021 25.5265 182.695 25.712 182.31 25.831C181.932 25.957 181.512 26.02 181.05 26.02C180.588 26.02 180.112 25.95 179.622 25.81C179.139 25.67 178.719 25.467 178.362 25.201L179.223 23.9725C179.475 24.1965 179.752 24.361 180.053 24.466C180.361 24.578 180.662 24.634 180.956 24.634C181.46 24.634 181.831 24.501 182.069 24.235C182.314 23.969 182.436 23.6155 182.436 23.1745V22.8595H182.405C182.244 23.0695 182.027 23.2375 181.754 23.3635C181.481 23.4895 181.169 23.5525 180.819 23.5525C180.42 23.5525 180.067 23.4825 179.759 23.3425C179.451 23.1955 179.188 22.9995 178.971 22.7545C178.761 22.5095 178.6 22.226 178.488 21.904C178.376 21.575 178.32 21.2285 178.32 20.8645C178.32 20.5005 178.376 20.154 178.488 19.825C178.6 19.496 178.761 19.2055 178.971 18.9535C179.188 18.7015 179.451 18.502 179.759 18.355C180.067 18.201 180.417 18.124 180.809 18.124C181.138 18.124 181.453 18.1905 181.754 18.3235C182.055 18.4565 182.296 18.663 182.478 18.943H182.499V18.271H184.127V23.0065ZM182.489 20.854C182.489 20.679 182.457 20.511 182.394 20.35C182.338 20.189 182.254 20.049 182.142 19.93C182.03 19.804 181.897 19.706 181.743 19.636C181.589 19.566 181.414 19.531 181.218 19.531C181.022 19.531 180.847 19.566 180.693 19.636C180.546 19.706 180.42 19.8005 180.315 19.9195C180.21 20.0385 180.13 20.1785 180.074 20.3395C180.018 20.5005 179.99 20.672 179.99 20.854C179.99 21.029 180.018 21.197 180.074 21.358C180.13 21.519 180.21 21.6625 180.315 21.7885C180.42 21.9075 180.546 22.0055 180.693 22.0825C180.847 22.1525 181.022 22.1875 181.218 22.1875C181.414 22.1875 181.589 22.1525 181.743 22.0825C181.904 22.0055 182.037 21.9075 182.142 21.7885C182.254 21.6695 182.338 21.5295 182.394 21.3685C182.457 21.2075 182.489 21.036 182.489 20.854ZM189.095 20.287C189.095 20.014 189.008 19.7795 188.833 19.5835C188.665 19.3875 188.409 19.2895 188.066 19.2895C187.898 19.2895 187.744 19.3175 187.604 19.3735C187.464 19.4225 187.342 19.4925 187.237 19.5835C187.132 19.6745 187.048 19.783 186.985 19.909C186.922 20.028 186.887 20.154 186.88 20.287H189.095ZM190.681 20.9485C190.681 21.0185 190.681 21.0885 190.681 21.1585C190.681 21.2285 190.677 21.295 190.67 21.358H186.88C186.894 21.505 186.936 21.638 187.006 21.757C187.083 21.876 187.177 21.981 187.289 22.072C187.408 22.156 187.538 22.2225 187.678 22.2715C187.825 22.3205 187.975 22.345 188.129 22.345C188.402 22.345 188.633 22.296 188.822 22.198C189.011 22.093 189.165 21.96 189.284 21.799L190.481 22.555C190.236 22.912 189.911 23.1885 189.505 23.3845C189.106 23.5735 188.64 23.668 188.108 23.668C187.716 23.668 187.345 23.6085 186.995 23.4895C186.645 23.3635 186.337 23.185 186.071 22.954C185.812 22.716 185.606 22.4255 185.452 22.0825C185.305 21.7395 185.231 21.3475 185.231 20.9065C185.231 20.4795 185.305 20.0945 185.452 19.7515C185.599 19.4015 185.798 19.1075 186.05 18.8695C186.302 18.6245 186.6 18.4355 186.943 18.3025C187.286 18.1695 187.657 18.103 188.056 18.103C188.441 18.103 188.794 18.1695 189.116 18.3025C189.438 18.4285 189.715 18.614 189.946 18.859C190.177 19.104 190.355 19.4015 190.481 19.7515C190.614 20.1015 190.681 20.5005 190.681 20.9485ZM191.77 23.5V15.562H193.513V23.5H191.77ZM200.42 20.8645C200.42 21.2915 200.343 21.68 200.189 22.03C200.035 22.373 199.825 22.667 199.559 22.912C199.293 23.15 198.985 23.3355 198.635 23.4685C198.285 23.6015 197.91 23.668 197.511 23.668C197.119 23.668 196.745 23.6015 196.388 23.4685C196.038 23.3355 195.73 23.15 195.464 22.912C195.205 22.667 194.998 22.373 194.844 22.03C194.69 21.68 194.613 21.2915 194.613 20.8645C194.613 20.4375 194.69 20.0525 194.844 19.7095C194.998 19.3665 195.205 19.076 195.464 18.838C195.73 18.6 196.038 18.418 196.388 18.292C196.745 18.166 197.119 18.103 197.511 18.103C197.91 18.103 198.285 18.166 198.635 18.292C198.985 18.418 199.293 18.6 199.559 18.838C199.825 19.076 200.035 19.3665 200.189 19.7095C200.343 20.0525 200.42 20.4375 200.42 20.8645ZM198.761 20.8645C198.761 20.6965 198.733 20.532 198.677 20.371C198.621 20.21 198.54 20.07 198.435 19.951C198.33 19.825 198.201 19.7235 198.047 19.6465C197.893 19.5695 197.714 19.531 197.511 19.531C197.308 19.531 197.13 19.5695 196.976 19.6465C196.822 19.7235 196.692 19.825 196.587 19.951C196.489 20.07 196.412 20.21 196.356 20.371C196.307 20.532 196.283 20.6965 196.283 20.8645C196.283 21.0325 196.307 21.197 196.356 21.358C196.412 21.519 196.493 21.666 196.598 21.799C196.703 21.925 196.832 22.0265 196.986 22.1035C197.14 22.1805 197.319 22.219 197.522 22.219C197.725 22.219 197.903 22.1805 198.057 22.1035C198.211 22.0265 198.341 21.925 198.446 21.799C198.551 21.666 198.628 21.519 198.677 21.358C198.733 21.197 198.761 21.0325 198.761 20.8645ZM207.054 23.0065C207.054 23.5175 206.981 23.962 206.834 24.34C206.687 24.718 206.48 25.0295 206.214 25.2745C205.948 25.5265 205.623 25.712 205.238 25.831C204.86 25.957 204.44 26.02 203.978 26.02C203.516 26.02 203.04 25.95 202.55 25.81C202.067 25.67 201.647 25.467 201.29 25.201L202.151 23.9725C202.403 24.1965 202.679 24.361 202.98 24.466C203.288 24.578 203.589 24.634 203.883 24.634C204.387 24.634 204.758 24.501 204.996 24.235C205.241 23.969 205.364 23.6155 205.364 23.1745V22.8595H205.332C205.171 23.0695 204.954 23.2375 204.681 23.3635C204.408 23.4895 204.097 23.5525 203.747 23.5525C203.348 23.5525 202.994 23.4825 202.686 23.3425C202.378 23.1955 202.116 22.9995 201.899 22.7545C201.689 22.5095 201.528 22.226 201.416 21.904C201.304 21.575 201.248 21.2285 201.248 20.8645C201.248 20.5005 201.304 20.154 201.416 19.825C201.528 19.496 201.689 19.2055 201.899 18.9535C202.116 18.7015 202.378 18.502 202.686 18.355C202.994 18.201 203.344 18.124 203.736 18.124C204.065 18.124 204.38 18.1905 204.681 18.3235C204.982 18.4565 205.224 18.663 205.406 18.943H205.427V18.271H207.054V23.0065ZM205.416 20.854C205.416 20.679 205.385 20.511 205.322 20.35C205.266 20.189 205.182 20.049 205.07 19.93C204.958 19.804 204.825 19.706 204.671 19.636C204.517 19.566 204.342 19.531 204.146 19.531C203.95 19.531 203.775 19.566 203.621 19.636C203.474 19.706 203.348 19.8005 203.243 19.9195C203.138 20.0385 203.057 20.1785 203.001 20.3395C202.945 20.5005 202.917 20.672 202.917 20.854C202.917 21.029 202.945 21.197 203.001 21.358C203.057 21.519 203.138 21.6625 203.243 21.7885C203.348 21.9075 203.474 22.0055 203.621 22.0825C203.775 22.1525 203.95 22.1875 204.146 22.1875C204.342 22.1875 204.517 22.1525 204.671 22.0825C204.832 22.0055 204.965 21.9075 205.07 21.7885C205.182 21.6695 205.266 21.5295 205.322 21.3685C205.385 21.2075 205.416 21.036 205.416 20.854ZM214.291 16.8325C214.228 16.8115 214.154 16.794 214.07 16.78C213.986 16.766 213.902 16.759 213.818 16.759C213.657 16.759 213.528 16.787 213.43 16.843C213.332 16.899 213.255 16.976 213.199 17.074C213.143 17.165 213.104 17.27 213.083 17.389C213.062 17.508 213.052 17.627 213.052 17.746V18.271H214.217V19.5625H213.052V23.5H211.33V19.5625H210.374V18.271H211.33V17.767C211.33 17.445 211.365 17.1405 211.435 16.8535C211.505 16.5595 211.624 16.304 211.792 16.087C211.967 15.863 212.198 15.688 212.485 15.562C212.779 15.429 213.143 15.3625 213.577 15.3625C213.724 15.3625 213.867 15.373 214.007 15.394C214.154 15.408 214.287 15.4325 214.406 15.4675L214.291 16.8325ZM218.263 19.678C218.186 19.657 218.109 19.643 218.032 19.636C217.962 19.629 217.892 19.6255 217.822 19.6255C217.591 19.6255 217.395 19.6675 217.234 19.7515C217.08 19.8355 216.954 19.937 216.856 20.056C216.765 20.175 216.698 20.3045 216.656 20.4445C216.614 20.5845 216.593 20.707 216.593 20.812V23.5H214.871V18.271H216.53V19.027H216.551C216.684 18.761 216.873 18.544 217.118 18.376C217.363 18.208 217.647 18.124 217.969 18.124C218.039 18.124 218.105 18.1275 218.168 18.1345C218.238 18.1415 218.294 18.152 218.336 18.166L218.263 19.678ZM224.394 20.8645C224.394 21.2915 224.317 21.68 224.163 22.03C224.009 22.373 223.799 22.667 223.533 22.912C223.267 23.15 222.959 23.3355 222.609 23.4685C222.259 23.6015 221.884 23.668 221.485 23.668C221.093 23.668 220.719 23.6015 220.362 23.4685C220.012 23.3355 219.704 23.15 219.438 22.912C219.179 22.667 218.972 22.373 218.818 22.03C218.664 21.68 218.587 21.2915 218.587 20.8645C218.587 20.4375 218.664 20.0525 218.818 19.7095C218.972 19.3665 219.179 19.076 219.438 18.838C219.704 18.6 220.012 18.418 220.362 18.292C220.719 18.166 221.093 18.103 221.485 18.103C221.884 18.103 222.259 18.166 222.609 18.292C222.959 18.418 223.267 18.6 223.533 18.838C223.799 19.076 224.009 19.3665 224.163 19.7095C224.317 20.0525 224.394 20.4375 224.394 20.8645ZM222.735 20.8645C222.735 20.6965 222.707 20.532 222.651 20.371C222.595 20.21 222.514 20.07 222.409 19.951C222.304 19.825 222.175 19.7235 222.021 19.6465C221.867 19.5695 221.688 19.531 221.485 19.531C221.282 19.531 221.104 19.5695 220.95 19.6465C220.796 19.7235 220.666 19.825 220.561 19.951C220.463 20.07 220.386 20.21 220.33 20.371C220.281 20.532 220.257 20.6965 220.257 20.8645C220.257 21.0325 220.281 21.197 220.33 21.358C220.386 21.519 220.467 21.666 220.572 21.799C220.677 21.925 220.806 22.0265 220.96 22.1035C221.114 22.1805 221.293 22.219 221.496 22.219C221.699 22.219 221.877 22.1805 222.031 22.1035C222.185 22.0265 222.315 21.925 222.42 21.799C222.525 21.666 222.602 21.519 222.651 21.358C222.707 21.197 222.735 21.0325 222.735 20.8645ZM232.162 23.5V20.644C232.162 20.497 232.151 20.357 232.13 20.224C232.109 20.084 232.071 19.965 232.015 19.867C231.959 19.769 231.882 19.692 231.784 19.636C231.693 19.573 231.57 19.5415 231.416 19.5415C231.269 19.5415 231.14 19.573 231.028 19.636C230.923 19.699 230.832 19.783 230.755 19.888C230.685 19.993 230.632 20.1155 230.597 20.2555C230.562 20.3885 230.545 20.5285 230.545 20.6755V23.5H228.823V20.518C228.823 20.217 228.763 19.979 228.644 19.804C228.525 19.629 228.336 19.5415 228.077 19.5415C227.804 19.5415 227.591 19.65 227.437 19.867C227.29 20.084 227.216 20.35 227.216 20.665V23.5H225.484V18.271H227.153V18.9955H227.174C227.237 18.8835 227.314 18.775 227.405 18.67C227.503 18.565 227.619 18.474 227.752 18.397C227.885 18.313 228.032 18.2465 228.193 18.1975C228.361 18.1485 228.543 18.124 228.739 18.124C229.117 18.124 229.435 18.201 229.694 18.355C229.96 18.509 230.167 18.7295 230.314 19.0165C230.489 18.7435 230.713 18.5265 230.986 18.3655C231.259 18.2045 231.591 18.124 231.983 18.124C232.34 18.124 232.638 18.1905 232.876 18.3235C233.121 18.4495 233.317 18.6175 233.464 18.8275C233.611 19.0305 233.716 19.2615 233.779 19.5205C233.849 19.7725 233.884 20.021 233.884 20.266V23.5H232.162ZM239.678 17.599V19.132H242.555V20.6125H239.678V23.5H237.904V16.066H242.797V17.599H239.678ZM246.443 21.2215H246.223C246.034 21.2215 245.841 21.232 245.645 21.253C245.456 21.267 245.285 21.2985 245.131 21.3475C244.984 21.3965 244.861 21.47 244.763 21.568C244.665 21.659 244.616 21.7815 244.616 21.9355C244.616 22.0335 244.637 22.1175 244.679 22.1875C244.728 22.2575 244.788 22.3135 244.858 22.3555C244.928 22.3975 245.008 22.429 245.099 22.45C245.19 22.464 245.278 22.471 245.362 22.471C245.712 22.471 245.978 22.3765 246.16 22.1875C246.349 21.9915 246.443 21.729 246.443 21.4V21.2215ZM243.283 18.985C243.591 18.691 243.948 18.4705 244.354 18.3235C244.767 18.1765 245.187 18.103 245.614 18.103C246.055 18.103 246.426 18.159 246.727 18.271C247.035 18.376 247.283 18.544 247.472 18.775C247.661 18.999 247.798 19.286 247.882 19.636C247.973 19.979 248.018 20.3885 248.018 20.8645V23.5H246.443V22.9435H246.412C246.279 23.1605 246.076 23.3285 245.803 23.4475C245.537 23.5665 245.246 23.626 244.931 23.626C244.721 23.626 244.504 23.598 244.28 23.542C244.056 23.486 243.85 23.395 243.661 23.269C243.479 23.143 243.328 22.975 243.209 22.765C243.09 22.555 243.031 22.296 243.031 21.988C243.031 21.61 243.132 21.3055 243.335 21.0745C243.545 20.8435 243.811 20.665 244.133 20.539C244.462 20.413 244.826 20.329 245.225 20.287C245.624 20.245 246.013 20.224 246.391 20.224V20.14C246.391 19.881 246.3 19.692 246.118 19.573C245.936 19.447 245.712 19.384 245.446 19.384C245.201 19.384 244.963 19.4365 244.732 19.5415C244.508 19.6465 244.315 19.7725 244.154 19.9195L243.283 18.985ZM252.38 19.8145C252.24 19.6815 252.076 19.5695 251.887 19.4785C251.698 19.3875 251.498 19.342 251.288 19.342C251.127 19.342 250.977 19.3735 250.837 19.4365C250.704 19.4995 250.637 19.608 250.637 19.762C250.637 19.909 250.711 20.014 250.858 20.077C251.012 20.14 251.257 20.21 251.593 20.287C251.789 20.329 251.985 20.3885 252.181 20.4655C252.384 20.5425 252.566 20.644 252.727 20.77C252.888 20.896 253.017 21.05 253.115 21.232C253.213 21.414 253.262 21.631 253.262 21.883C253.262 22.212 253.196 22.492 253.063 22.723C252.93 22.947 252.755 23.129 252.538 23.269C252.328 23.409 252.09 23.5105 251.824 23.5735C251.558 23.6365 251.292 23.668 251.026 23.668C250.599 23.668 250.179 23.6015 249.766 23.4685C249.36 23.3285 249.02 23.1255 248.747 22.8595L249.713 21.841C249.867 22.009 250.056 22.149 250.28 22.261C250.504 22.373 250.742 22.429 250.994 22.429C251.134 22.429 251.271 22.3975 251.404 22.3345C251.544 22.2645 251.614 22.1455 251.614 21.9775C251.614 21.8165 251.53 21.6975 251.362 21.6205C251.194 21.5435 250.931 21.463 250.574 21.379C250.392 21.337 250.21 21.281 250.028 21.211C249.846 21.141 249.682 21.0465 249.535 20.9275C249.395 20.8085 249.279 20.6615 249.188 20.4865C249.097 20.3115 249.052 20.1015 249.052 19.8565C249.052 19.5415 249.118 19.2755 249.251 19.0585C249.384 18.8345 249.556 18.6525 249.766 18.5125C249.976 18.3725 250.207 18.271 250.459 18.208C250.718 18.138 250.973 18.103 251.225 18.103C251.617 18.103 251.999 18.166 252.37 18.292C252.748 18.411 253.066 18.593 253.325 18.838L252.38 19.8145ZM256.125 19.5625V21.5575C256.125 21.8025 256.171 21.988 256.262 22.114C256.36 22.233 256.531 22.2925 256.776 22.2925C256.86 22.2925 256.948 22.2855 257.039 22.2715C257.137 22.2575 257.217 22.2365 257.28 22.2085L257.301 23.4685C257.182 23.5105 257.032 23.5455 256.85 23.5735C256.668 23.6085 256.486 23.626 256.304 23.626C255.954 23.626 255.66 23.584 255.422 23.5C255.184 23.409 254.991 23.283 254.844 23.122C254.704 22.954 254.603 22.758 254.54 22.534C254.477 22.303 254.445 22.0475 254.445 21.7675V19.5625H253.605V18.271H254.435V16.8955H256.125V18.271H257.354V19.5625H256.125ZM263.298 23.5L262.72 22.0405H259.843L259.297 23.5H257.344L260.463 16.066H262.206L265.293 23.5H263.298ZM261.303 18.0505L260.358 20.602H262.227L261.303 18.0505ZM271.546 18.355C271.546 18.789 271.465 19.1565 271.304 19.4575C271.143 19.7515 270.926 19.9895 270.653 20.1715C270.38 20.3535 270.065 20.4865 269.708 20.5705C269.351 20.6545 268.98 20.6965 268.595 20.6965H267.703V23.5H265.907V16.066H268.637C269.043 16.066 269.421 16.108 269.771 16.192C270.128 16.269 270.436 16.3985 270.695 16.5805C270.961 16.7555 271.168 16.99 271.315 17.284C271.469 17.571 271.546 17.928 271.546 18.355ZM269.75 18.3655C269.75 18.1905 269.715 18.047 269.645 17.935C269.575 17.823 269.481 17.7355 269.362 17.6725C269.243 17.6095 269.106 17.5675 268.952 17.5465C268.805 17.5255 268.651 17.515 268.49 17.515H267.703V19.2685H268.459C268.627 19.2685 268.788 19.2545 268.942 19.2265C269.096 19.1985 269.232 19.1495 269.351 19.0795C269.477 19.0095 269.575 18.9185 269.645 18.8065C269.715 18.6875 269.75 18.5405 269.75 18.3655ZM272.623 23.5V16.066H274.429V23.5H272.623Z" fill="#F9FAFB"/>
</g>
<defs>
<filter id="filter0_f_12187_586" x="-30" y="-30" width="360" height="100" filterUnits="userSpaceOnUse" color-interpolation-filters="sRGB">
<feFlood flood-opacity="0" result="BackgroundImageFix"/>
<feBlend mode="normal" in="SourceGraphic" in2="BackgroundImageFix" result="shape"/>
<feGaussianBlur stdDeviation="15" result="effect1_foregroundBlur_12187_586"/>
</filter>
<radialGradient id="paint0_radial_12187_586" cx="0" cy="0" r="1" gradientUnits="userSpaceOnUse" gradientTransform="translate(140 15.8) rotate(-173.561) scale(140.889 24.7295)">
<stop stop-color="#4A144B"/>
<stop offset="1" stop-color="#025FD7" stop-opacity="0"/>
</radialGradient>
<radialGradient id="paint1_radial_12187_586" cx="0" cy="0" r="1" gradientUnits="userSpaceOnUse" gradientTransform="translate(14.7115 6.35417) rotate(63.815) scale(41.7282 73.8399)">
<stop stop-color="#4C50BB"/>
<stop offset="1" stop-color="#025FD7" stop-opacity="0"/>
</radialGradient>
<radialGradient id="paint2_radial_12187_586" cx="0" cy="0" r="1" gradientUnits="userSpaceOnUse" gradientTransform="translate(230.625 29.8) rotate(-129.994) scale(38.8978 240.228)">
<stop stop-color="#FF8585"/>
<stop offset="1" stop-color="#025FD7" stop-opacity="0"/>
</radialGradient>
<linearGradient id="paint3_linear_12187_586" x1="4.6577" y1="-0.383822" x2="15.3281" y2="79.6444" gradientUnits="userSpaceOnUse">
<stop stop-color="#19AEFF"/>
<stop offset="0.21875" stop-color="white"/>
<stop offset="0.416667" stop-color="#015CD5"/>
<stop offset="0.625" stop-color="#2E303E"/>
<stop offset="0.864583" stop-color="#19AEFF"/>
</linearGradient>
<linearGradient id="paint4_linear_12187_586" x1="31.487" y1="16.397" x2="36.6985" y2="16.397" gradientUnits="userSpaceOnUse">
<stop stop-color="#19AEFF"/>
<stop offset="1" stop-color="#015CD5"/>
</linearGradient>
<clipPath id="clip0_12187_586">
<rect width="300" height="40" fill="white"/>
</clipPath>
</defs>
</svg>
