<svg width="240" height="100" viewBox="0 0 240 100" fill="none" xmlns="http://www.w3.org/2000/svg">
<g clip-path="url(#clip0_12161_3932)">
<rect width="240" height="100" fill="#2E303E"/>
<g opacity="0.3" filter="url(#filter0_f_12161_3932)">
<rect width="240" height="100" fill="url(#paint0_radial_12161_3932)"/>
<rect width="240" height="100" fill="url(#paint1_radial_12161_3932)"/>
<rect width="240" height="100" fill="url(#paint2_radial_12161_3932)"/>
</g>
<rect x="0.1" y="0.1" width="239.8" height="99.8" rx="15.9" stroke="url(#paint3_linear_12161_3932)" stroke-opacity="0.2" stroke-width="0.2"/>
<path d="M24.54 54.14C24.54 54.7187 24.4327 55.2087 24.218 55.61C24.0033 56.002 23.714 56.3193 23.35 56.562C22.986 56.8047 22.566 56.982 22.09 57.094C21.614 57.206 21.1193 57.262 20.606 57.262H19.416V61H17.022V51.088H20.662C21.2033 51.088 21.7073 51.144 22.174 51.256C22.65 51.3587 23.0607 51.5313 23.406 51.774C23.7607 52.0073 24.036 52.32 24.232 52.712C24.4373 53.0947 24.54 53.5707 24.54 54.14ZM22.146 54.154C22.146 53.9207 22.0993 53.7293 22.006 53.58C21.9127 53.4307 21.7867 53.314 21.628 53.23C21.4693 53.146 21.2873 53.09 21.082 53.062C20.886 53.034 20.6807 53.02 20.466 53.02H19.416V55.358H20.424C20.648 55.358 20.8627 55.3393 21.068 55.302C21.2733 55.2647 21.4553 55.1993 21.614 55.106C21.782 55.0127 21.9127 54.8913 22.006 54.742C22.0993 54.5833 22.146 54.3873 22.146 54.154ZM29.8415 61V60.034H29.8135C29.7295 60.1927 29.6175 60.342 29.4775 60.482C29.3468 60.622 29.1882 60.7433 29.0015 60.846C28.8242 60.9487 28.6235 61.0327 28.3995 61.098C28.1848 61.1633 27.9562 61.196 27.7135 61.196C27.2468 61.196 26.8502 61.112 26.5235 60.944C26.2062 60.776 25.9448 60.5613 25.7395 60.3C25.5435 60.0293 25.3988 59.726 25.3055 59.39C25.2215 59.0447 25.1795 58.6947 25.1795 58.34V54.028H27.4895V57.808C27.4895 58.004 27.5035 58.1907 27.5315 58.368C27.5595 58.5453 27.6108 58.704 27.6855 58.844C27.7695 58.984 27.8768 59.096 28.0075 59.18C28.1382 59.2547 28.3108 59.292 28.5255 59.292C28.9268 59.292 29.2302 59.1427 29.4355 58.844C29.6502 58.5453 29.7575 58.1953 29.7575 57.794V54.028H32.0535V61H29.8415ZM41.6191 57.486C41.6191 57.9713 41.5445 58.438 41.3951 58.886C41.2458 59.334 41.0265 59.7307 40.7371 60.076C40.4571 60.412 40.1118 60.6827 39.7011 60.888C39.2905 61.0933 38.8238 61.196 38.3011 61.196C37.8345 61.196 37.3911 61.1027 36.9711 60.916C36.5605 60.72 36.2431 60.4447 36.0191 60.09H35.9911V61H33.8771V50.416H36.1731V54.77H36.2011C36.3971 54.5367 36.6725 54.322 37.0271 54.126C37.3818 53.93 37.8158 53.832 38.3291 53.832C38.8331 53.832 39.2858 53.93 39.6871 54.126C40.0978 54.322 40.4431 54.588 40.7231 54.924C41.0125 55.26 41.2318 55.652 41.3811 56.1C41.5398 56.5387 41.6191 57.0007 41.6191 57.486ZM39.4071 57.486C39.4071 57.262 39.3698 57.0427 39.2951 56.828C39.2298 56.6133 39.1271 56.4267 38.9871 56.268C38.8471 56.1 38.6745 55.9647 38.4691 55.862C38.2638 55.7593 38.0258 55.708 37.7551 55.708C37.4938 55.708 37.2605 55.7593 37.0551 55.862C36.8498 55.9647 36.6725 56.1 36.5231 56.268C36.3831 56.436 36.2711 56.6273 36.1871 56.842C36.1125 57.0567 36.0751 57.276 36.0751 57.5C36.0751 57.724 36.1125 57.9433 36.1871 58.158C36.2711 58.3727 36.3831 58.564 36.5231 58.732C36.6725 58.9 36.8498 59.0353 37.0551 59.138C37.2605 59.2407 37.4938 59.292 37.7551 59.292C38.0258 59.292 38.2638 59.2407 38.4691 59.138C38.6745 59.0353 38.8471 58.9 38.9871 58.732C39.1271 58.564 39.2298 58.3727 39.2951 58.158C39.3698 57.934 39.4071 57.71 39.4071 57.486ZM43.1056 61V50.416H45.4296V61H43.1056ZM49.7396 51.802C49.7396 51.9793 49.7022 52.1473 49.6276 52.306C49.5622 52.4553 49.4689 52.586 49.3476 52.698C49.2356 52.81 49.0956 52.8987 48.9276 52.964C48.7689 53.0293 48.6009 53.062 48.4236 53.062C48.0502 53.062 47.7376 52.9407 47.4856 52.698C47.2336 52.446 47.1076 52.1473 47.1076 51.802C47.1076 51.634 47.1402 51.4753 47.2056 51.326C47.2709 51.1673 47.3642 51.032 47.4856 50.92C47.6069 50.808 47.7469 50.7193 47.9056 50.654C48.0642 50.5793 48.2369 50.542 48.4236 50.542C48.6009 50.542 48.7689 50.5747 48.9276 50.64C49.0956 50.7053 49.2356 50.794 49.3476 50.906C49.4689 51.018 49.5622 51.1533 49.6276 51.312C49.7022 51.4613 49.7396 51.6247 49.7396 51.802ZM47.2756 61V54.028H49.5716V61H47.2756ZM55.4921 56.086C55.3055 55.9087 55.0861 55.7593 54.8341 55.638C54.5821 55.5167 54.3161 55.456 54.0361 55.456C53.8215 55.456 53.6208 55.498 53.4341 55.582C53.2568 55.666 53.1681 55.8107 53.1681 56.016C53.1681 56.212 53.2661 56.352 53.4621 56.436C53.6675 56.52 53.9941 56.6133 54.4421 56.716C54.7035 56.772 54.9648 56.8513 55.2261 56.954C55.4968 57.0567 55.7395 57.192 55.9541 57.36C56.1688 57.528 56.3415 57.7333 56.4721 57.976C56.6028 58.2187 56.6681 58.508 56.6681 58.844C56.6681 59.2827 56.5795 59.656 56.4021 59.964C56.2248 60.2627 55.9915 60.5053 55.7021 60.692C55.4221 60.8787 55.1048 61.014 54.7501 61.098C54.3955 61.182 54.0408 61.224 53.6861 61.224C53.1168 61.224 52.5568 61.1353 52.0061 60.958C51.4648 60.7713 51.0121 60.5007 50.6481 60.146L51.9361 58.788C52.1415 59.012 52.3935 59.1987 52.6921 59.348C52.9908 59.4973 53.3081 59.572 53.6441 59.572C53.8308 59.572 54.0128 59.53 54.1901 59.446C54.3768 59.3527 54.4701 59.194 54.4701 58.97C54.4701 58.7553 54.3581 58.5967 54.1341 58.494C53.9101 58.3913 53.5601 58.284 53.0841 58.172C52.8415 58.116 52.5988 58.0413 52.3561 57.948C52.1135 57.8547 51.8941 57.7287 51.6981 57.57C51.5115 57.4113 51.3575 57.2153 51.2361 56.982C51.1148 56.7487 51.0541 56.4687 51.0541 56.142C51.0541 55.722 51.1428 55.3673 51.3201 55.078C51.4975 54.7793 51.7261 54.5367 52.0061 54.35C52.2861 54.1633 52.5941 54.028 52.9301 53.944C53.2755 53.8507 53.6161 53.804 53.9521 53.804C54.4748 53.804 54.9835 53.888 55.4781 54.056C55.9821 54.2147 56.4068 54.4573 56.7521 54.784L55.4921 56.086ZM62.5857 61V57.22C62.5857 57.024 62.5717 56.8373 62.5437 56.66C62.5157 56.4827 62.4597 56.3287 62.3757 56.198C62.301 56.058 62.1983 55.9507 62.0677 55.876C61.937 55.792 61.769 55.75 61.5637 55.75C61.1623 55.75 60.8543 55.8947 60.6397 56.184C60.425 56.464 60.3177 56.814 60.3177 57.234V61H58.0217V50.416H60.3177V54.91H60.3457C60.5043 54.63 60.7563 54.3827 61.1017 54.168C61.447 53.944 61.8623 53.832 62.3477 53.832C62.8237 53.832 63.2203 53.916 63.5377 54.084C63.8643 54.252 64.1257 54.4713 64.3217 54.742C64.527 55.0033 64.6717 55.3067 64.7557 55.652C64.849 55.9973 64.8957 56.3427 64.8957 56.688V61H62.5857ZM76.7342 61L75.9642 59.054H72.1282L71.4002 61H68.7962L72.9542 51.088H75.2782L79.3942 61H76.7342ZM74.0742 53.734L72.8142 57.136H75.3062L74.0742 53.734ZM87.7314 54.14C87.7314 54.7187 87.6241 55.2087 87.4094 55.61C87.1947 56.002 86.9054 56.3193 86.5414 56.562C86.1774 56.8047 85.7574 56.982 85.2814 57.094C84.8054 57.206 84.3107 57.262 83.7974 57.262H82.6074V61H80.2134V51.088H83.8534C84.3947 51.088 84.8987 51.144 85.3654 51.256C85.8414 51.3587 86.2521 51.5313 86.5974 51.774C86.9521 52.0073 87.2274 52.32 87.4234 52.712C87.6287 53.0947 87.7314 53.5707 87.7314 54.14ZM85.3374 54.154C85.3374 53.9207 85.2907 53.7293 85.1974 53.58C85.1041 53.4307 84.9781 53.314 84.8194 53.23C84.6607 53.146 84.4787 53.09 84.2734 53.062C84.0774 53.034 83.8721 53.02 83.6574 53.02H82.6074V55.358H83.6154C83.8394 55.358 84.0541 55.3393 84.2594 55.302C84.4647 55.2647 84.6467 55.1993 84.8054 55.106C84.9734 55.0127 85.1041 54.8913 85.1974 54.742C85.2907 54.5833 85.3374 54.3873 85.3374 54.154ZM89.1685 61V51.088H91.5765V61H89.1685ZM102.278 61V60.09H102.25C102.026 60.4447 101.704 60.72 101.284 60.916C100.873 61.1027 100.434 61.196 99.9675 61.196C99.4448 61.196 98.9782 61.0933 98.5675 60.888C98.1568 60.6827 97.8068 60.412 97.5175 60.076C97.2375 59.7307 97.0228 59.334 96.8735 58.886C96.7242 58.438 96.6495 57.9713 96.6495 57.486C96.6495 57.0007 96.7242 56.5387 96.8735 56.1C97.0322 55.652 97.2515 55.26 97.5315 54.924C97.8208 54.588 98.1662 54.322 98.5675 54.126C98.9782 53.93 99.4355 53.832 99.9395 53.832C100.453 53.832 100.887 53.93 101.242 54.126C101.596 54.322 101.872 54.5367 102.068 54.77H102.096V50.416H104.392V61H102.278ZM102.194 57.5C102.194 57.276 102.152 57.0567 102.068 56.842C101.993 56.6273 101.881 56.436 101.732 56.268C101.592 56.1 101.419 55.9647 101.214 55.862C101.008 55.7593 100.775 55.708 100.514 55.708C100.243 55.708 100.005 55.7593 99.7995 55.862C99.5942 55.9647 99.4215 56.1 99.2815 56.268C99.1415 56.4267 99.0342 56.6133 98.9595 56.828C98.8942 57.0427 98.8615 57.262 98.8615 57.486C98.8615 57.71 98.8942 57.934 98.9595 58.158C99.0342 58.3727 99.1415 58.564 99.2815 58.732C99.4215 58.9 99.5942 59.0353 99.7995 59.138C100.005 59.2407 100.243 59.292 100.514 59.292C100.775 59.292 101.008 59.2407 101.214 59.138C101.419 59.0353 101.592 58.9 101.732 58.732C101.881 58.564 101.993 58.3727 102.068 58.158C102.152 57.9433 102.194 57.724 102.194 57.5ZM113.606 57.486C113.606 58.0553 113.504 58.5733 113.298 59.04C113.093 59.4973 112.813 59.8893 112.458 60.216C112.104 60.5333 111.693 60.7807 111.226 60.958C110.76 61.1353 110.26 61.224 109.728 61.224C109.206 61.224 108.706 61.1353 108.23 60.958C107.764 60.7807 107.353 60.5333 106.998 60.216C106.653 59.8893 106.378 59.4973 106.172 59.04C105.967 58.5733 105.864 58.0553 105.864 57.486C105.864 56.9167 105.967 56.4033 106.172 55.946C106.378 55.4887 106.653 55.1013 106.998 54.784C107.353 54.4667 107.764 54.224 108.23 54.056C108.706 53.888 109.206 53.804 109.728 53.804C110.26 53.804 110.76 53.888 111.226 54.056C111.693 54.224 112.104 54.4667 112.458 54.784C112.813 55.1013 113.093 55.4887 113.298 55.946C113.504 56.4033 113.606 56.9167 113.606 57.486ZM111.394 57.486C111.394 57.262 111.357 57.0427 111.282 56.828C111.208 56.6133 111.1 56.4267 110.96 56.268C110.82 56.1 110.648 55.9647 110.442 55.862C110.237 55.7593 109.999 55.708 109.728 55.708C109.458 55.708 109.22 55.7593 109.014 55.862C108.809 55.9647 108.636 56.1 108.496 56.268C108.366 56.4267 108.263 56.6133 108.188 56.828C108.123 57.0427 108.09 57.262 108.09 57.486C108.09 57.71 108.123 57.9293 108.188 58.144C108.263 58.3587 108.37 58.5547 108.51 58.732C108.65 58.9 108.823 59.0353 109.028 59.138C109.234 59.2407 109.472 59.292 109.742 59.292C110.013 59.292 110.251 59.2407 110.456 59.138C110.662 59.0353 110.834 58.9 110.974 58.732C111.114 58.5547 111.217 58.3587 111.282 58.144C111.357 57.9293 111.394 57.71 111.394 57.486ZM119.862 56.282C119.731 56.114 119.554 55.9787 119.33 55.876C119.106 55.7733 118.877 55.722 118.644 55.722C118.401 55.722 118.182 55.7733 117.986 55.876C117.79 55.9693 117.622 56.1 117.482 56.268C117.342 56.4267 117.23 56.6133 117.146 56.828C117.071 57.0427 117.034 57.2713 117.034 57.514C117.034 57.7567 117.071 57.9853 117.146 58.2C117.221 58.4147 117.328 58.606 117.468 58.774C117.617 58.9327 117.79 59.0587 117.986 59.152C118.191 59.2453 118.42 59.292 118.672 59.292C118.905 59.292 119.134 59.25 119.358 59.166C119.591 59.0727 119.778 58.942 119.918 58.774L121.192 60.328C120.903 60.608 120.529 60.8273 120.072 60.986C119.615 61.1447 119.129 61.224 118.616 61.224C118.065 61.224 117.552 61.14 117.076 60.972C116.6 60.804 116.185 60.5613 115.83 60.244C115.485 59.9173 115.209 59.5253 115.004 59.068C114.808 58.6107 114.71 58.0927 114.71 57.514C114.71 56.9447 114.808 56.4313 115.004 55.974C115.209 55.5167 115.485 55.1293 115.83 54.812C116.185 54.4853 116.6 54.238 117.076 54.07C117.552 53.8927 118.061 53.804 118.602 53.804C118.854 53.804 119.101 53.8273 119.344 53.874C119.596 53.9207 119.834 53.986 120.058 54.07C120.291 54.1447 120.501 54.2427 120.688 54.364C120.884 54.476 121.052 54.602 121.192 54.742L119.862 56.282ZM126.203 56.086C126.016 55.9087 125.797 55.7593 125.545 55.638C125.293 55.5167 125.027 55.456 124.747 55.456C124.532 55.456 124.332 55.498 124.145 55.582C123.968 55.666 123.879 55.8107 123.879 56.016C123.879 56.212 123.977 56.352 124.173 56.436C124.378 56.52 124.705 56.6133 125.153 56.716C125.414 56.772 125.676 56.8513 125.937 56.954C126.208 57.0567 126.45 57.192 126.665 57.36C126.88 57.528 127.052 57.7333 127.183 57.976C127.314 58.2187 127.379 58.508 127.379 58.844C127.379 59.2827 127.29 59.656 127.113 59.964C126.936 60.2627 126.702 60.5053 126.413 60.692C126.133 60.8787 125.816 61.014 125.461 61.098C125.106 61.182 124.752 61.224 124.397 61.224C123.828 61.224 123.268 61.1353 122.717 60.958C122.176 60.7713 121.723 60.5007 121.359 60.146L122.647 58.788C122.852 59.012 123.104 59.1987 123.403 59.348C123.702 59.4973 124.019 59.572 124.355 59.572C124.542 59.572 124.724 59.53 124.901 59.446C125.088 59.3527 125.181 59.194 125.181 58.97C125.181 58.7553 125.069 58.5967 124.845 58.494C124.621 58.3913 124.271 58.284 123.795 58.172C123.552 58.116 123.31 58.0413 123.067 57.948C122.824 57.8547 122.605 57.7287 122.409 57.57C122.222 57.4113 122.068 57.2153 121.947 56.982C121.826 56.7487 121.765 56.4687 121.765 56.142C121.765 55.722 121.854 55.3673 122.031 55.078C122.208 54.7793 122.437 54.5367 122.717 54.35C122.997 54.1633 123.305 54.028 123.641 53.944C123.986 53.8507 124.327 53.804 124.663 53.804C125.186 53.804 125.694 53.888 126.189 54.056C126.693 54.2147 127.118 54.4573 127.463 54.784L126.203 56.086ZM136.321 57.962H136.027C135.775 57.962 135.518 57.976 135.257 58.004C135.005 58.0227 134.776 58.0647 134.571 58.13C134.375 58.1953 134.211 58.2933 134.081 58.424C133.95 58.5453 133.885 58.7087 133.885 58.914C133.885 59.0447 133.913 59.1567 133.969 59.25C134.034 59.3433 134.113 59.418 134.207 59.474C134.3 59.53 134.407 59.572 134.529 59.6C134.65 59.6187 134.767 59.628 134.879 59.628C135.345 59.628 135.7 59.502 135.943 59.25C136.195 58.9887 136.321 58.6387 136.321 58.2V57.962ZM132.107 54.98C132.517 54.588 132.993 54.294 133.535 54.098C134.085 53.902 134.645 53.804 135.215 53.804C135.803 53.804 136.297 53.8787 136.699 54.028C137.109 54.168 137.441 54.392 137.693 54.7C137.945 54.9987 138.127 55.3813 138.239 55.848C138.36 56.3053 138.421 56.8513 138.421 57.486V61H136.321V60.258H136.279C136.101 60.5473 135.831 60.7713 135.467 60.93C135.112 61.0887 134.725 61.168 134.305 61.168C134.025 61.168 133.735 61.1307 133.437 61.056C133.138 60.9813 132.863 60.86 132.611 60.692C132.368 60.524 132.167 60.3 132.009 60.02C131.85 59.74 131.771 59.3947 131.771 58.984C131.771 58.48 131.906 58.074 132.177 57.766C132.457 57.458 132.811 57.22 133.241 57.052C133.679 56.884 134.165 56.772 134.697 56.716C135.229 56.66 135.747 56.632 136.251 56.632V56.52C136.251 56.1747 136.129 55.9227 135.887 55.764C135.644 55.596 135.345 55.512 134.991 55.512C134.664 55.512 134.347 55.582 134.039 55.722C133.74 55.862 133.483 56.03 133.269 56.226L132.107 54.98ZM144.712 61V57.192C144.712 56.996 144.694 56.8093 144.656 56.632C144.628 56.4547 144.577 56.3007 144.502 56.17C144.428 56.03 144.32 55.9227 144.18 55.848C144.05 55.764 143.882 55.722 143.676 55.722C143.471 55.722 143.289 55.764 143.13 55.848C142.981 55.9227 142.855 56.03 142.752 56.17C142.65 56.31 142.57 56.4733 142.514 56.66C142.468 56.8373 142.444 57.024 142.444 57.22V61H140.134V54.028H142.36V54.994H142.388C142.472 54.8447 142.58 54.7 142.71 54.56C142.85 54.4107 143.009 54.2847 143.186 54.182C143.373 54.0793 143.574 53.9953 143.788 53.93C144.003 53.8647 144.232 53.832 144.474 53.832C144.941 53.832 145.338 53.916 145.664 54.084C145.991 54.252 146.252 54.4713 146.448 54.742C146.654 55.0033 146.798 55.3067 146.882 55.652C146.976 55.9973 147.022 56.3427 147.022 56.688V61H144.712ZM154.039 61V60.09H154.011C153.787 60.4447 153.465 60.72 153.045 60.916C152.635 61.1027 152.196 61.196 151.729 61.196C151.207 61.196 150.74 61.0933 150.329 60.888C149.919 60.6827 149.569 60.412 149.279 60.076C148.999 59.7307 148.785 59.334 148.635 58.886C148.486 58.438 148.411 57.9713 148.411 57.486C148.411 57.0007 148.486 56.5387 148.635 56.1C148.794 55.652 149.013 55.26 149.293 54.924C149.583 54.588 149.928 54.322 150.329 54.126C150.74 53.93 151.197 53.832 151.701 53.832C152.215 53.832 152.649 53.93 153.003 54.126C153.358 54.322 153.633 54.5367 153.829 54.77H153.857V50.416H156.153V61H154.039ZM153.955 57.5C153.955 57.276 153.913 57.0567 153.829 56.842C153.755 56.6273 153.643 56.436 153.493 56.268C153.353 56.1 153.181 55.9647 152.975 55.862C152.77 55.7593 152.537 55.708 152.275 55.708C152.005 55.708 151.767 55.7593 151.561 55.862C151.356 55.9647 151.183 56.1 151.043 56.268C150.903 56.4267 150.796 56.6133 150.721 56.828C150.656 57.0427 150.623 57.262 150.623 57.486C150.623 57.71 150.656 57.934 150.721 58.158C150.796 58.3727 150.903 58.564 151.043 58.732C151.183 58.9 151.356 59.0353 151.561 59.138C151.767 59.2407 152.005 59.292 152.275 59.292C152.537 59.292 152.77 59.2407 152.975 59.138C153.181 59.0353 153.353 58.9 153.493 58.732C153.643 58.564 153.755 58.3727 153.829 58.158C153.913 57.9433 153.955 57.724 153.955 57.5ZM21.698 78.282C21.5673 78.114 21.39 77.9787 21.166 77.876C20.942 77.7733 20.7133 77.722 20.48 77.722C20.2373 77.722 20.018 77.7733 19.822 77.876C19.626 77.9693 19.458 78.1 19.318 78.268C19.178 78.4267 19.066 78.6133 18.982 78.828C18.9073 79.0427 18.87 79.2713 18.87 79.514C18.87 79.7567 18.9073 79.9853 18.982 80.2C19.0567 80.4147 19.164 80.606 19.304 80.774C19.4533 80.9327 19.626 81.0587 19.822 81.152C20.0273 81.2453 20.256 81.292 20.508 81.292C20.7413 81.292 20.97 81.25 21.194 81.166C21.4273 81.0727 21.614 80.942 21.754 80.774L23.028 82.328C22.7387 82.608 22.3653 82.8273 21.908 82.986C21.4507 83.1447 20.9653 83.224 20.452 83.224C19.9013 83.224 19.388 83.14 18.912 82.972C18.436 82.804 18.0207 82.5613 17.666 82.244C17.3207 81.9173 17.0453 81.5253 16.84 81.068C16.644 80.6107 16.546 80.0927 16.546 79.514C16.546 78.9447 16.644 78.4313 16.84 77.974C17.0453 77.5167 17.3207 77.1293 17.666 76.812C18.0207 76.4853 18.436 76.238 18.912 76.07C19.388 75.8927 19.8967 75.804 20.438 75.804C20.69 75.804 20.9373 75.8273 21.18 75.874C21.432 75.9207 21.67 75.986 21.894 76.07C22.1273 76.1447 22.3373 76.2427 22.524 76.364C22.72 76.476 22.888 76.602 23.028 76.742L21.698 78.282ZM28.529 83V79.22C28.529 79.024 28.515 78.8373 28.487 78.66C28.459 78.4827 28.403 78.3287 28.319 78.198C28.2443 78.058 28.1417 77.9507 28.011 77.876C27.8803 77.792 27.7123 77.75 27.507 77.75C27.1057 77.75 26.7977 77.8947 26.583 78.184C26.3683 78.464 26.261 78.814 26.261 79.234V83H23.965V72.416H26.261V76.91H26.289C26.4477 76.63 26.6997 76.3827 27.045 76.168C27.3903 75.944 27.8057 75.832 28.291 75.832C28.767 75.832 29.1637 75.916 29.481 76.084C29.8077 76.252 30.069 76.4713 30.265 76.742C30.4703 77.0033 30.615 77.3067 30.699 77.652C30.7923 77.9973 30.839 78.3427 30.839 78.688V83H28.529ZM36.6936 79.962H36.3996C36.1476 79.962 35.891 79.976 35.6296 80.004C35.3776 80.0227 35.149 80.0647 34.9436 80.13C34.7476 80.1953 34.5843 80.2933 34.4536 80.424C34.323 80.5453 34.2576 80.7087 34.2576 80.914C34.2576 81.0447 34.2856 81.1567 34.3416 81.25C34.407 81.3433 34.4863 81.418 34.5796 81.474C34.673 81.53 34.7803 81.572 34.9016 81.6C35.023 81.6187 35.1396 81.628 35.2516 81.628C35.7183 81.628 36.073 81.502 36.3156 81.25C36.5676 80.9887 36.6936 80.6387 36.6936 80.2V79.962ZM32.4796 76.98C32.8903 76.588 33.3663 76.294 33.9076 76.098C34.4583 75.902 35.0183 75.804 35.5876 75.804C36.1756 75.804 36.6703 75.8787 37.0716 76.028C37.4823 76.168 37.8136 76.392 38.0656 76.7C38.3176 76.9987 38.4996 77.3813 38.6116 77.848C38.733 78.3053 38.7936 78.8513 38.7936 79.486V83H36.6936V82.258H36.6516C36.4743 82.5473 36.2036 82.7713 35.8396 82.93C35.485 83.0887 35.0976 83.168 34.6776 83.168C34.3976 83.168 34.1083 83.1307 33.8096 83.056C33.511 82.9813 33.2356 82.86 32.9836 82.692C32.741 82.524 32.5403 82.3 32.3816 82.02C32.223 81.74 32.1436 81.3947 32.1436 80.984C32.1436 80.48 32.279 80.074 32.5496 79.766C32.8296 79.458 33.1843 79.22 33.6136 79.052C34.0523 78.884 34.5376 78.772 35.0696 78.716C35.6016 78.66 36.1196 78.632 36.6236 78.632V78.52C36.6236 78.1747 36.5023 77.9227 36.2596 77.764C36.017 77.596 35.7183 77.512 35.3636 77.512C35.037 77.512 34.7196 77.582 34.4116 77.722C34.113 77.862 33.8563 78.03 33.6416 78.226L32.4796 76.98ZM45.0853 83V79.192C45.0853 78.996 45.0667 78.8093 45.0293 78.632C45.0013 78.4547 44.95 78.3007 44.8753 78.17C44.8007 78.03 44.6933 77.9227 44.5533 77.848C44.4227 77.764 44.2547 77.722 44.0493 77.722C43.844 77.722 43.662 77.764 43.5033 77.848C43.354 77.9227 43.228 78.03 43.1253 78.17C43.0227 78.31 42.9433 78.4733 42.8873 78.66C42.8407 78.8373 42.8173 79.024 42.8173 79.22V83H40.5073V76.028H42.7333V76.994H42.7613C42.8453 76.8447 42.9527 76.7 43.0833 76.56C43.2233 76.4107 43.382 76.2847 43.5593 76.182C43.746 76.0793 43.9467 75.9953 44.1613 75.93C44.376 75.8647 44.6047 75.832 44.8473 75.832C45.314 75.832 45.7107 75.916 46.0373 76.084C46.364 76.252 46.6253 76.4713 46.8213 76.742C47.0267 77.0033 47.1713 77.3067 47.2553 77.652C47.3487 77.9973 47.3953 78.3427 47.3953 78.688V83H45.0853ZM56.5263 82.342C56.5263 83.0233 56.4283 83.616 56.2323 84.12C56.0363 84.624 55.7609 85.0393 55.4063 85.366C55.0516 85.702 54.6176 85.9493 54.1043 86.108C53.6003 86.276 53.0403 86.36 52.4243 86.36C51.8083 86.36 51.1736 86.2667 50.5203 86.08C49.8763 85.8933 49.3163 85.6227 48.8403 85.268L49.9883 83.63C50.3243 83.9287 50.6929 84.148 51.0943 84.288C51.5049 84.4373 51.9063 84.512 52.2983 84.512C52.9703 84.512 53.4649 84.3347 53.7823 83.98C54.1089 83.6253 54.2723 83.154 54.2723 82.566V82.146H54.2303C54.0156 82.426 53.7263 82.65 53.3623 82.818C52.9983 82.986 52.5829 83.07 52.1163 83.07C51.5843 83.07 51.1129 82.9767 50.7023 82.79C50.2916 82.594 49.9416 82.3327 49.6523 82.006C49.3723 81.6793 49.1576 81.3013 49.0083 80.872C48.8589 80.4333 48.7843 79.9713 48.7843 79.486C48.7843 79.0007 48.8589 78.5387 49.0083 78.1C49.1576 77.6613 49.3723 77.274 49.6523 76.938C49.9416 76.602 50.2916 76.336 50.7023 76.14C51.1129 75.9347 51.5796 75.832 52.1023 75.832C52.5409 75.832 52.9609 75.9207 53.3623 76.098C53.7636 76.2753 54.0856 76.5507 54.3283 76.924H54.3563V76.028H56.5263V82.342ZM54.3423 79.472C54.3423 79.2387 54.3003 79.0147 54.2163 78.8C54.1416 78.5853 54.0296 78.3987 53.8803 78.24C53.7309 78.072 53.5536 77.9413 53.3483 77.848C53.1429 77.7547 52.9096 77.708 52.6483 77.708C52.3869 77.708 52.1536 77.7547 51.9483 77.848C51.7523 77.9413 51.5843 78.0673 51.4443 78.226C51.3043 78.3847 51.1969 78.5713 51.1223 78.786C51.0476 79.0007 51.0103 79.2293 51.0103 79.472C51.0103 79.7053 51.0476 79.9293 51.1223 80.144C51.1969 80.3587 51.3043 80.55 51.4443 80.718C51.5843 80.8767 51.7523 81.0073 51.9483 81.11C52.1536 81.2033 52.3869 81.25 52.6483 81.25C52.9096 81.25 53.1429 81.2033 53.3483 81.11C53.5629 81.0073 53.7403 80.8767 53.8803 80.718C54.0296 80.5593 54.1416 80.3727 54.2163 80.158C54.3003 79.9433 54.3423 79.7147 54.3423 79.472ZM63.1511 78.716C63.1511 78.352 63.0345 78.0393 62.8011 77.778C62.5771 77.5167 62.2365 77.386 61.7791 77.386C61.5551 77.386 61.3498 77.4233 61.1631 77.498C60.9765 77.5633 60.8131 77.6567 60.6731 77.778C60.5331 77.8993 60.4211 78.044 60.3371 78.212C60.2531 78.3707 60.2065 78.5387 60.1971 78.716H63.1511ZM65.2651 79.598C65.2651 79.6913 65.2651 79.7847 65.2651 79.878C65.2651 79.9713 65.2605 80.06 65.2511 80.144H60.1971C60.2158 80.34 60.2718 80.5173 60.3651 80.676C60.4678 80.8347 60.5938 80.9747 60.7431 81.096C60.9018 81.208 61.0745 81.2967 61.2611 81.362C61.4571 81.4273 61.6578 81.46 61.8631 81.46C62.2271 81.46 62.5351 81.3947 62.7871 81.264C63.0391 81.124 63.2445 80.9467 63.4031 80.732L64.9991 81.74C64.6725 82.216 64.2385 82.5847 63.6971 82.846C63.1651 83.098 62.5445 83.224 61.8351 83.224C61.3125 83.224 60.8178 83.1447 60.3511 82.986C59.8845 82.818 59.4738 82.58 59.1191 82.272C58.7738 81.9547 58.4985 81.5673 58.2931 81.11C58.0971 80.6527 57.9991 80.13 57.9991 79.542C57.9991 78.9727 58.0971 78.4593 58.2931 78.002C58.4891 77.5353 58.7551 77.1433 59.0911 76.826C59.4271 76.4993 59.8238 76.2473 60.2811 76.07C60.7385 75.8927 61.2331 75.804 61.7651 75.804C62.2785 75.804 62.7498 75.8927 63.1791 76.07C63.6085 76.238 63.9771 76.4853 64.2851 76.812C64.5931 77.1387 64.8311 77.5353 64.9991 78.002C65.1765 78.4687 65.2651 79.0007 65.2651 79.598ZM66.717 83V72.416H69.041V83H66.717ZM78.2509 79.486C78.2509 80.0553 78.1482 80.5733 77.9429 81.04C77.7376 81.4973 77.4576 81.8893 77.1029 82.216C76.7482 82.5333 76.3376 82.7807 75.8709 82.958C75.4042 83.1353 74.9049 83.224 74.3729 83.224C73.8502 83.224 73.3509 83.1353 72.8749 82.958C72.4082 82.7807 71.9976 82.5333 71.6429 82.216C71.2976 81.8893 71.0222 81.4973 70.8169 81.04C70.6116 80.5733 70.5089 80.0553 70.5089 79.486C70.5089 78.9167 70.6116 78.4033 70.8169 77.946C71.0222 77.4887 71.2976 77.1013 71.6429 76.784C71.9976 76.4667 72.4082 76.224 72.8749 76.056C73.3509 75.888 73.8502 75.804 74.3729 75.804C74.9049 75.804 75.4042 75.888 75.8709 76.056C76.3376 76.224 76.7482 76.4667 77.1029 76.784C77.4576 77.1013 77.7376 77.4887 77.9429 77.946C78.1482 78.4033 78.2509 78.9167 78.2509 79.486ZM76.0389 79.486C76.0389 79.262 76.0016 79.0427 75.9269 78.828C75.8522 78.6133 75.7449 78.4267 75.6049 78.268C75.4649 78.1 75.2922 77.9647 75.0869 77.862C74.8816 77.7593 74.6436 77.708 74.3729 77.708C74.1022 77.708 73.8642 77.7593 73.6589 77.862C73.4536 77.9647 73.2809 78.1 73.1409 78.268C73.0102 78.4267 72.9076 78.6133 72.8329 78.828C72.7676 79.0427 72.7349 79.262 72.7349 79.486C72.7349 79.71 72.7676 79.9293 72.8329 80.144C72.9076 80.3587 73.0149 80.5547 73.1549 80.732C73.2949 80.9 73.4676 81.0353 73.6729 81.138C73.8782 81.2407 74.1162 81.292 74.3869 81.292C74.6576 81.292 74.8956 81.2407 75.1009 81.138C75.3062 81.0353 75.4789 80.9 75.6189 80.732C75.7589 80.5547 75.8616 80.3587 75.9269 80.144C76.0016 79.9293 76.0389 79.71 76.0389 79.486ZM87.0966 82.342C87.0966 83.0233 86.9986 83.616 86.8026 84.12C86.6066 84.624 86.3313 85.0393 85.9766 85.366C85.6219 85.702 85.1879 85.9493 84.6746 86.108C84.1706 86.276 83.6106 86.36 82.9946 86.36C82.3786 86.36 81.7439 86.2667 81.0906 86.08C80.4466 85.8933 79.8866 85.6227 79.4106 85.268L80.5586 83.63C80.8946 83.9287 81.2633 84.148 81.6646 84.288C82.0753 84.4373 82.4766 84.512 82.8686 84.512C83.5406 84.512 84.0353 84.3347 84.3526 83.98C84.6793 83.6253 84.8426 83.154 84.8426 82.566V82.146H84.8006C84.5859 82.426 84.2966 82.65 83.9326 82.818C83.5686 82.986 83.1533 83.07 82.6866 83.07C82.1546 83.07 81.6833 82.9767 81.2726 82.79C80.8619 82.594 80.5119 82.3327 80.2226 82.006C79.9426 81.6793 79.7279 81.3013 79.5786 80.872C79.4293 80.4333 79.3546 79.9713 79.3546 79.486C79.3546 79.0007 79.4293 78.5387 79.5786 78.1C79.7279 77.6613 79.9426 77.274 80.2226 76.938C80.5119 76.602 80.8619 76.336 81.2726 76.14C81.6833 75.9347 82.1499 75.832 82.6726 75.832C83.1113 75.832 83.5313 75.9207 83.9326 76.098C84.3339 76.2753 84.6559 76.5507 84.8986 76.924H84.9266V76.028H87.0966V82.342ZM84.9126 79.472C84.9126 79.2387 84.8706 79.0147 84.7866 78.8C84.7119 78.5853 84.5999 78.3987 84.4506 78.24C84.3013 78.072 84.1239 77.9413 83.9186 77.848C83.7133 77.7547 83.4799 77.708 83.2186 77.708C82.9573 77.708 82.7239 77.7547 82.5186 77.848C82.3226 77.9413 82.1546 78.0673 82.0146 78.226C81.8746 78.3847 81.7673 78.5713 81.6926 78.786C81.6179 79.0007 81.5806 79.2293 81.5806 79.472C81.5806 79.7053 81.6179 79.9293 81.6926 80.144C81.7673 80.3587 81.8746 80.55 82.0146 80.718C82.1546 80.8767 82.3226 81.0073 82.5186 81.11C82.7239 81.2033 82.9573 81.25 83.2186 81.25C83.4799 81.25 83.7133 81.2033 83.9186 81.11C84.1333 81.0073 84.3106 80.8767 84.4506 80.718C84.5999 80.5593 84.7119 80.3727 84.7866 80.158C84.8706 79.9433 84.9126 79.7147 84.9126 79.472ZM96.7454 74.11C96.6614 74.082 96.5634 74.0587 96.4514 74.04C96.3394 74.0213 96.2274 74.012 96.1154 74.012C95.9008 74.012 95.7281 74.0493 95.5974 74.124C95.4668 74.1987 95.3641 74.3013 95.2894 74.432C95.2148 74.5533 95.1634 74.6933 95.1354 74.852C95.1074 75.0107 95.0934 75.1693 95.0934 75.328V76.028H96.6474V77.75H95.0934V83H92.7974V77.75H91.5234V76.028H92.7974V75.356C92.7974 74.9267 92.8441 74.5207 92.9374 74.138C93.0308 73.746 93.1894 73.4053 93.4134 73.116C93.6468 72.8173 93.9548 72.584 94.3374 72.416C94.7294 72.2387 95.2148 72.15 95.7934 72.15C95.9894 72.15 96.1808 72.164 96.3674 72.192C96.5634 72.2107 96.7408 72.2433 96.8994 72.29L96.7454 74.11ZM102.041 77.904C101.938 77.876 101.836 77.8573 101.733 77.848C101.64 77.8387 101.546 77.834 101.453 77.834C101.145 77.834 100.884 77.89 100.669 78.002C100.464 78.114 100.296 78.2493 100.165 78.408C100.044 78.5667 99.955 78.7393 99.899 78.926C99.843 79.1127 99.815 79.276 99.815 79.416V83H97.519V76.028H99.731V77.036H99.759C99.9364 76.6813 100.188 76.392 100.515 76.168C100.842 75.944 101.22 75.832 101.649 75.832C101.742 75.832 101.831 75.8367 101.915 75.846C102.008 75.8553 102.083 75.8693 102.139 75.888L102.041 77.904ZM110.216 79.486C110.216 80.0553 110.113 80.5733 109.908 81.04C109.702 81.4973 109.422 81.8893 109.068 82.216C108.713 82.5333 108.302 82.7807 107.836 82.958C107.369 83.1353 106.87 83.224 106.338 83.224C105.815 83.224 105.316 83.1353 104.84 82.958C104.373 82.7807 103.962 82.5333 103.608 82.216C103.262 81.8893 102.987 81.4973 102.782 81.04C102.576 80.5733 102.474 80.0553 102.474 79.486C102.474 78.9167 102.576 78.4033 102.782 77.946C102.987 77.4887 103.262 77.1013 103.608 76.784C103.962 76.4667 104.373 76.224 104.84 76.056C105.316 75.888 105.815 75.804 106.338 75.804C106.87 75.804 107.369 75.888 107.836 76.056C108.302 76.224 108.713 76.4667 109.068 76.784C109.422 77.1013 109.702 77.4887 109.908 77.946C110.113 78.4033 110.216 78.9167 110.216 79.486ZM108.004 79.486C108.004 79.262 107.966 79.0427 107.892 78.828C107.817 78.6133 107.71 78.4267 107.57 78.268C107.43 78.1 107.257 77.9647 107.052 77.862C106.846 77.7593 106.608 77.708 106.338 77.708C106.067 77.708 105.829 77.7593 105.624 77.862C105.418 77.9647 105.246 78.1 105.106 78.268C104.975 78.4267 104.872 78.6133 104.798 78.828C104.732 79.0427 104.7 79.262 104.7 79.486C104.7 79.71 104.732 79.9293 104.798 80.144C104.872 80.3587 104.98 80.5547 105.12 80.732C105.26 80.9 105.432 81.0353 105.638 81.138C105.843 81.2407 106.081 81.292 106.352 81.292C106.622 81.292 106.86 81.2407 107.066 81.138C107.271 81.0353 107.444 80.9 107.584 80.732C107.724 80.5547 107.826 80.3587 107.892 80.144C107.966 79.9293 108.004 79.71 108.004 79.486ZM120.573 83V79.192C120.573 78.996 120.559 78.8093 120.531 78.632C120.503 78.4453 120.452 78.2867 120.377 78.156C120.303 78.0253 120.2 77.9227 120.069 77.848C119.948 77.764 119.785 77.722 119.579 77.722C119.383 77.722 119.211 77.764 119.061 77.848C118.921 77.932 118.8 78.044 118.697 78.184C118.604 78.324 118.534 78.4873 118.487 78.674C118.441 78.8513 118.417 79.038 118.417 79.234V83H116.121V79.024C116.121 78.6227 116.042 78.3053 115.883 78.072C115.725 77.8387 115.473 77.722 115.127 77.722C114.763 77.722 114.479 77.8667 114.273 78.156C114.077 78.4453 113.979 78.8 113.979 79.22V83H111.669V76.028H113.895V76.994H113.923C114.007 76.8447 114.11 76.7 114.231 76.56C114.362 76.42 114.516 76.2987 114.693 76.196C114.871 76.084 115.067 75.9953 115.281 75.93C115.505 75.8647 115.748 75.832 116.009 75.832C116.513 75.832 116.938 75.9347 117.283 76.14C117.638 76.3453 117.913 76.6393 118.109 77.022C118.343 76.658 118.641 76.3687 119.005 76.154C119.369 75.9393 119.813 75.832 120.335 75.832C120.811 75.832 121.208 75.9207 121.525 76.098C121.852 76.266 122.113 76.49 122.309 76.77C122.505 77.0407 122.645 77.3487 122.729 77.694C122.823 78.03 122.869 78.3613 122.869 78.688V83H120.573ZM130.595 75.132V77.176H134.431V79.15H130.595V83H128.229V73.088H134.753V75.132H130.595ZM139.616 79.962H139.322C139.07 79.962 138.813 79.976 138.552 80.004C138.3 80.0227 138.071 80.0647 137.866 80.13C137.67 80.1953 137.506 80.2933 137.376 80.424C137.245 80.5453 137.18 80.7087 137.18 80.914C137.18 81.0447 137.208 81.1567 137.264 81.25C137.329 81.3433 137.408 81.418 137.502 81.474C137.595 81.53 137.702 81.572 137.824 81.6C137.945 81.6187 138.062 81.628 138.174 81.628C138.64 81.628 138.995 81.502 139.238 81.25C139.49 80.9887 139.616 80.6387 139.616 80.2V79.962ZM135.402 76.98C135.812 76.588 136.288 76.294 136.83 76.098C137.38 75.902 137.94 75.804 138.51 75.804C139.098 75.804 139.592 75.8787 139.994 76.028C140.404 76.168 140.736 76.392 140.988 76.7C141.24 76.9987 141.422 77.3813 141.534 77.848C141.655 78.3053 141.716 78.8513 141.716 79.486V83H139.616V82.258H139.574C139.396 82.5473 139.126 82.7713 138.762 82.93C138.407 83.0887 138.02 83.168 137.6 83.168C137.32 83.168 137.03 83.1307 136.732 83.056C136.433 82.9813 136.158 82.86 135.906 82.692C135.663 82.524 135.462 82.3 135.304 82.02C135.145 81.74 135.066 81.3947 135.066 80.984C135.066 80.48 135.201 80.074 135.472 79.766C135.752 79.458 136.106 79.22 136.536 79.052C136.974 78.884 137.46 78.772 137.992 78.716C138.524 78.66 139.042 78.632 139.546 78.632V78.52C139.546 78.1747 139.424 77.9227 139.182 77.764C138.939 77.596 138.64 77.512 138.286 77.512C137.959 77.512 137.642 77.582 137.334 77.722C137.035 77.862 136.778 78.03 136.564 78.226L135.402 76.98ZM147.531 78.086C147.345 77.9087 147.125 77.7593 146.873 77.638C146.621 77.5167 146.355 77.456 146.075 77.456C145.861 77.456 145.66 77.498 145.473 77.582C145.296 77.666 145.207 77.8107 145.207 78.016C145.207 78.212 145.305 78.352 145.501 78.436C145.707 78.52 146.033 78.6133 146.481 78.716C146.743 78.772 147.004 78.8513 147.265 78.954C147.536 79.0567 147.779 79.192 147.993 79.36C148.208 79.528 148.381 79.7333 148.511 79.976C148.642 80.2187 148.707 80.508 148.707 80.844C148.707 81.2827 148.619 81.656 148.441 81.964C148.264 82.2627 148.031 82.5053 147.741 82.692C147.461 82.8787 147.144 83.014 146.789 83.098C146.435 83.182 146.08 83.224 145.725 83.224C145.156 83.224 144.596 83.1353 144.045 82.958C143.504 82.7713 143.051 82.5007 142.687 82.146L143.975 80.788C144.181 81.012 144.433 81.1987 144.731 81.348C145.03 81.4973 145.347 81.572 145.683 81.572C145.87 81.572 146.052 81.53 146.229 81.446C146.416 81.3527 146.509 81.194 146.509 80.97C146.509 80.7553 146.397 80.5967 146.173 80.494C145.949 80.3913 145.599 80.284 145.123 80.172C144.881 80.116 144.638 80.0413 144.395 79.948C144.153 79.8547 143.933 79.7287 143.737 79.57C143.551 79.4113 143.397 79.2153 143.275 78.982C143.154 78.7487 143.093 78.4687 143.093 78.142C143.093 77.722 143.182 77.3673 143.359 77.078C143.537 76.7793 143.765 76.5367 144.045 76.35C144.325 76.1633 144.633 76.028 144.969 75.944C145.315 75.8507 145.655 75.804 145.991 75.804C146.514 75.804 147.023 75.888 147.517 76.056C148.021 76.2147 148.446 76.4573 148.791 76.784L147.531 78.086ZM152.525 77.75V80.41C152.525 80.7367 152.585 80.984 152.707 81.152C152.837 81.3107 153.066 81.39 153.393 81.39C153.505 81.39 153.621 81.3807 153.743 81.362C153.873 81.3433 153.981 81.3153 154.065 81.278L154.093 82.958C153.934 83.014 153.733 83.0607 153.491 83.098C153.248 83.1447 153.005 83.168 152.763 83.168C152.296 83.168 151.904 83.112 151.587 83C151.269 82.8787 151.013 82.7107 150.817 82.496C150.63 82.272 150.495 82.0107 150.411 81.712C150.327 81.404 150.285 81.0633 150.285 80.69V77.75H149.165V76.028H150.271V74.194H152.525V76.028H154.163V77.75H152.525ZM162.088 83L161.318 81.054H157.482L156.754 83H154.15L158.308 73.088H160.632L164.748 83H162.088ZM159.428 75.734L158.168 79.136H160.66L159.428 75.734ZM173.085 76.14C173.085 76.7187 172.978 77.2087 172.763 77.61C172.548 78.002 172.259 78.3193 171.895 78.562C171.531 78.8047 171.111 78.982 170.635 79.094C170.159 79.206 169.664 79.262 169.151 79.262H167.961V83H165.567V73.088H169.207C169.748 73.088 170.252 73.144 170.719 73.256C171.195 73.3587 171.606 73.5313 171.951 73.774C172.306 74.0073 172.581 74.32 172.777 74.712C172.982 75.0947 173.085 75.5707 173.085 76.14ZM170.691 76.154C170.691 75.9207 170.644 75.7293 170.551 75.58C170.458 75.4307 170.332 75.314 170.173 75.23C170.014 75.146 169.832 75.09 169.627 75.062C169.431 75.034 169.226 75.02 169.011 75.02H167.961V77.358H168.969C169.193 77.358 169.408 77.3393 169.613 77.302C169.818 77.2647 170 77.1993 170.159 77.106C170.327 77.0127 170.458 76.8913 170.551 76.742C170.644 76.5833 170.691 76.3873 170.691 76.154ZM174.522 83V73.088H176.93V83H174.522Z" fill="#F9FAFB"/>
<path d="M26.3653 23.9009C27.7965 23.9009 28.9567 25.052 28.9567 26.4719C28.9567 27.8918 27.7965 29.0429 26.3653 29.0429L16 29.0429L16 23.9009L26.3653 23.9009Z" fill="white"/>
<path d="M19.4551 17.0449C20.8863 17.0449 22.0464 18.196 22.0464 19.6159C22.0464 21.0358 20.8863 22.1869 19.4551 22.1869L16 22.1869L16 17.0449L19.4551 17.0449Z" fill="white"/>
<path d="M42.3033 22.8708C42.997 22.7504 44.0029 21.9588 44.0029 20.4962C44.0029 18.5689 42.6674 17.2955 40.5688 17.2955L34.8453 17.2955L34.8453 28.8247L40.5861 28.8247C43.1704 28.8247 44.3325 27.4997 44.3325 25.6241C44.3325 23.9893 43.2571 23.0601 42.3033 22.9397L42.3033 22.8708ZM37.2041 19.2916L40.3086 19.2916C41.0718 19.2916 41.7135 19.8251 41.7135 20.6338C41.7135 21.5286 41.0891 22.1137 40.1526 22.1137L37.2041 22.1137L37.2041 19.2916ZM37.2041 26.8286L37.2041 23.9721L40.4127 23.9721C41.2972 23.9721 41.9216 24.5228 41.9216 25.4004C41.9216 26.2607 41.3839 26.8286 40.326 26.8286L37.2041 26.8286Z" fill="white"/>
<path d="M54.0172 20.238L51.7279 20.238L51.7279 24.0409C51.7279 26.1403 50.8779 27.0007 49.5773 27.0007C48.5192 27.0007 47.8255 26.1919 47.8255 24.9874L47.8255 20.238L45.5361 20.238L45.5361 25.4692C45.5361 27.6029 46.9236 29.0828 49.0049 29.0828C50.1494 29.0828 51.0515 28.7214 51.7279 28.0503L51.7279 28.8247L54.0172 28.8247L54.0172 20.238Z" fill="white"/>
<path d="M66.9767 19.98C65.5892 19.98 64.5311 20.5134 63.82 21.391C63.1956 20.479 62.1378 19.98 60.9757 19.98C59.8485 19.98 58.9987 20.3414 58.3916 20.9436L58.3916 20.2381L56.1021 20.2381L56.1021 28.8248L58.3916 28.8248L58.3916 24.6949C58.3916 22.8881 59.1547 22.0621 60.3686 22.0621C61.3227 22.0621 62.0684 22.7676 62.0684 23.9206L62.0684 28.8248L64.3578 28.8248L64.3578 24.6949C64.3578 22.8881 65.1555 22.0621 66.3697 22.0621C67.3235 22.0621 68.0693 22.7676 68.0693 23.9206L68.0693 28.8248L70.3415 28.8248L70.3415 23.4559C70.3415 21.3566 68.7804 19.98 66.9767 19.98Z" fill="white"/>
<path d="M77.3695 19.98C76.1901 19.98 75.2363 20.3241 74.5078 20.9264L74.5078 20.2381L72.2183 20.2381L72.2183 31.7501L74.5078 31.7501L74.5078 28.1537C75.2363 28.7387 76.1901 29.0829 77.3695 29.0829C79.5722 29.0829 81.6188 27.2416 81.6188 24.54C81.6188 21.8384 79.5722 19.98 77.3695 19.98ZM76.9705 27.104C75.739 27.104 74.5078 26.1231 74.5078 24.54C74.5078 22.9569 75.739 21.9589 76.9705 21.9589C78.358 21.9589 79.3988 22.9569 79.3988 24.54C79.3988 26.1231 78.358 27.104 76.9705 27.104Z" fill="white"/>
<path d="M92.2518 22.97C92.0673 22.7285 91.8136 22.5214 91.4908 22.3489C91.1679 22.1649 90.8163 22.0729 90.4357 22.0729C90.1014 22.0729 89.7958 22.1419 89.5191 22.2799C89.2423 22.4179 89.104 22.6479 89.104 22.97C89.104 23.292 89.2539 23.5221 89.5537 23.6601C89.865 23.7866 90.3147 23.9189 90.9027 24.0569C91.2141 24.1259 91.5254 24.2179 91.8367 24.3329C92.1596 24.448 92.4478 24.6032 92.7015 24.7988C92.9667 24.9828 93.18 25.2186 93.3414 25.5061C93.5029 25.7821 93.5836 26.1214 93.5836 26.524C93.5836 27.0301 93.4856 27.4614 93.2895 27.8179C93.1051 28.163 92.8514 28.4448 92.5285 28.6633C92.2172 28.8818 91.8482 29.0371 91.4216 29.1291C91.0065 29.2326 90.5741 29.2844 90.1244 29.2844C89.4787 29.2844 88.8503 29.1694 88.2392 28.9393C87.6281 28.6978 87.1207 28.3585 86.7172 27.9215L88.0835 26.6448C88.3141 26.9438 88.6139 27.1911 88.9829 27.3866C89.3519 27.5822 89.7612 27.6799 90.2109 27.6799C90.3608 27.6799 90.5107 27.6627 90.6606 27.6282C90.822 27.5937 90.9661 27.5419 91.093 27.4729C91.2314 27.3924 91.3409 27.2889 91.4216 27.1623C91.5023 27.0358 91.5427 26.8806 91.5427 26.6965C91.5427 26.3515 91.3812 26.1042 91.0584 25.9547C90.7471 25.8051 90.2743 25.6556 89.6401 25.5061C89.3288 25.4371 89.0233 25.3508 88.7235 25.2473C88.4352 25.1323 88.1758 24.9885 87.9452 24.816C87.7146 24.632 87.5301 24.4077 87.3917 24.1432C87.2533 23.8786 87.1841 23.5508 87.1841 23.1598C87.1841 22.6997 87.2764 22.3029 87.4609 21.9693C87.6569 21.6358 87.9106 21.3655 88.2219 21.1585C88.5332 20.94 88.8849 20.7789 89.2769 20.6754C89.669 20.5719 90.0725 20.5201 90.4876 20.5201C91.0872 20.5201 91.6695 20.6237 92.2345 20.8307C92.811 21.0377 93.2665 21.354 93.6009 21.7796L92.2518 22.97Z" fill="white"/>
<path fill-rule="evenodd" clip-rule="evenodd" d="M92.2266 23.2259L92.1122 23.0761C91.9457 22.8581 91.713 22.6663 91.4079 22.5032L91.4058 22.5021L91.4037 22.5009C91.108 22.3324 90.7864 22.2479 90.4357 22.2479C90.1263 22.2479 89.8479 22.3116 89.5975 22.4365C89.4844 22.4929 89.4077 22.5637 89.3581 22.646C89.3083 22.7289 89.2794 22.8344 89.2794 22.9701C89.2794 23.1032 89.31 23.2068 89.3634 23.2888C89.4165 23.3702 89.4996 23.4419 89.6236 23.4996C89.9221 23.6205 90.3598 23.7498 90.9418 23.8864C91.2605 23.9571 91.5788 24.0512 91.8966 24.1685C92.2338 24.2888 92.5371 24.4516 92.8052 24.6577C93.0907 24.8566 93.3204 25.1111 93.4937 25.4194C93.6738 25.728 93.759 26.0991 93.759 26.5241C93.759 27.0521 93.6567 27.5136 93.4438 27.9013C93.2462 28.2704 92.9739 28.5731 92.6282 28.8074C92.296 29.0403 91.9059 29.2034 91.4614 29.2996C91.0325 29.4064 90.5867 29.4595 90.1244 29.4595C89.4573 29.4595 88.8079 29.3405 88.1772 29.1032L88.1759 29.1026L88.1745 29.1021C87.5414 28.8519 87.0113 28.4984 86.5881 28.0401L86.4702 27.9124L88.1047 26.3853L88.2225 26.5381C88.4363 26.8154 88.716 27.0471 89.0652 27.2322C89.4069 27.4132 89.7876 27.505 90.2109 27.505C90.3471 27.505 90.4838 27.4893 90.6211 27.4577L90.6224 27.4574L90.6238 27.4571C90.77 27.4259 90.8971 27.3798 91.0067 27.3205C91.1215 27.2533 91.2092 27.1693 91.2735 27.0685C91.3327 26.9758 91.3672 26.8549 91.3672 26.6966C91.3672 26.5521 91.3337 26.4385 91.2745 26.3478C91.2151 26.2568 91.1222 26.1772 90.9845 26.1135L90.9833 26.113L90.9822 26.1124C90.6885 25.9713 90.2309 25.8254 89.6009 25.6768C89.2835 25.6063 88.9718 25.5184 88.666 25.4128L88.6621 25.4114L88.6583 25.4099C88.3568 25.2896 88.0837 25.1385 87.8399 24.9561L87.8377 24.9544L87.8355 24.9527C87.5856 24.7533 87.3856 24.51 87.2361 24.2242C87.0813 23.9281 87.0087 23.5706 87.0087 23.1598C87.0087 22.6763 87.1057 22.2492 87.3072 21.8849L87.3083 21.8829L87.3095 21.8809C87.5181 21.526 87.7893 21.2363 88.1227 21.0142C88.4516 20.7836 88.8219 20.6146 89.232 20.5063C89.639 20.3988 90.0577 20.3452 90.4876 20.3452C91.1077 20.3452 91.7103 20.4523 92.2944 20.6663C92.8976 20.883 93.3817 21.2171 93.7389 21.6717L93.8409 21.8015L92.2266 23.2259ZM88.2218 21.1586C87.9105 21.3656 87.6569 21.6359 87.4608 21.9694C87.2763 22.303 87.1841 22.6998 87.1841 23.1598C87.1841 23.5509 87.2533 23.8787 87.3917 24.1432C87.53 24.4078 87.7145 24.6321 87.9451 24.8161C88.1757 24.9886 88.4352 25.1324 88.7234 25.2474C89.0232 25.3509 89.3288 25.4372 89.6401 25.5062C90.2743 25.6557 90.747 25.8052 91.0583 25.9547C91.3812 26.1043 91.5426 26.3515 91.5426 26.6966C91.5426 26.8806 91.5023 27.0359 91.4216 27.1624C91.3408 27.2889 91.2313 27.3924 91.0929 27.473C90.9661 27.542 90.822 27.5937 90.6605 27.6282C90.5106 27.6627 90.3608 27.68 90.2109 27.68C89.7612 27.68 89.3518 27.5822 88.9829 27.3867C88.671 27.2214 88.4085 27.0192 88.1955 26.78C88.1565 26.7362 88.1192 26.6911 88.0835 26.6448L86.7171 27.9215C86.7313 27.9369 86.7456 27.9521 86.76 27.9672C86.7859 27.9943 86.8122 28.0211 86.839 28.0474C87.2213 28.4243 87.688 28.7216 88.2391 28.9394C88.8503 29.1695 89.4787 29.2845 90.1244 29.2845C90.5741 29.2845 91.0065 29.2327 91.4216 29.1292C91.8482 29.0372 92.2172 28.8819 92.5285 28.6634C92.8513 28.4449 93.105 28.1631 93.2895 27.818C93.4855 27.4615 93.5835 27.0301 93.5835 26.5241C93.5835 26.1215 93.5028 25.7822 93.3414 25.5062C93.18 25.2186 92.9666 24.9829 92.7014 24.7988C92.4478 24.6033 92.1595 24.448 91.8367 24.333C91.5253 24.218 91.214 24.126 90.9027 24.057C90.3146 23.919 89.8649 23.7867 89.5536 23.6602C89.2538 23.5221 89.1039 23.2921 89.1039 22.9701C89.1039 22.648 89.2423 22.418 89.519 22.28C89.7958 22.1419 90.1013 22.0729 90.4357 22.0729C90.8162 22.0729 91.1679 22.165 91.4907 22.349C91.7522 22.4887 91.9682 22.651 92.1389 22.836C92.1791 22.8794 92.2167 22.9241 92.2517 22.9701L93.6008 21.7796C93.2664 21.3541 92.811 21.0378 92.2345 20.8308C91.6695 20.6237 91.0872 20.5202 90.4876 20.5202C90.0725 20.5202 89.6689 20.572 89.2769 20.6755C88.8848 20.779 88.5332 20.94 88.2218 21.1586Z" fill="white"/>
<path d="M28.9566 19.6159C28.9566 21.0358 27.7964 22.1869 26.3653 22.1869C24.9341 22.1869 23.7739 21.0358 23.7739 19.6159C23.7739 18.196 24.9341 17.0449 26.3653 17.0449C27.7964 17.0449 28.9566 18.196 28.9566 19.6159Z" fill="url(#paint4_linear_12161_3932)"/>
<path d="M82.4836 27.8352C82.4836 27.4671 82.6162 27.1508 82.8814 26.8863C83.1582 26.6218 83.4868 26.4895 83.8673 26.4895C84.2363 26.4895 84.5591 26.616 84.8359 26.8691C85.1126 27.1221 85.251 27.4326 85.251 27.8007C85.251 28.1687 85.1126 28.485 84.8359 28.7496C84.5707 29.0141 84.2478 29.1464 83.8673 29.1464C83.6828 29.1464 83.5041 29.1119 83.3311 29.0429C83.1697 28.9739 83.0256 28.8818 82.8987 28.7668C82.7719 28.6518 82.6681 28.5138 82.5874 28.3528C82.5182 28.1917 82.4836 28.0192 82.4836 27.8352Z" fill="white"/>
<path d="M95.5586 29.0429L97.8483 29.0429L97.8483 24.913C97.8483 23.1062 98.6461 22.2803 99.8602 22.2803C100.814 22.2803 101.56 22.9858 101.56 24.1387L101.56 29.0429L103.832 29.0429L103.832 23.6741C103.832 21.5747 102.271 20.1981 100.467 20.1981C99.3924 20.1981 98.5153 20.5182 97.844 21.0705L97.844 16L95.5586 16L95.5586 29.0429Z" fill="white"/>
</g>
<defs>
<filter id="filter0_f_12161_3932" x="-30" y="-30" width="300" height="160" filterUnits="userSpaceOnUse" color-interpolation-filters="sRGB">
<feFlood flood-opacity="0" result="BackgroundImageFix"/>
<feBlend mode="normal" in="SourceGraphic" in2="BackgroundImageFix" result="shape"/>
<feGaussianBlur stdDeviation="15" result="effect1_foregroundBlur_12161_3932"/>
</filter>
<radialGradient id="paint0_radial_12161_3932" cx="0" cy="0" r="1" gradientUnits="userSpaceOnUse" gradientTransform="translate(112 39.5) rotate(-160.573) scale(118.761 58.6742)">
<stop stop-color="#4A144B"/>
<stop offset="1" stop-color="#025FD7" stop-opacity="0"/>
</radialGradient>
<radialGradient id="paint1_radial_12161_3932" cx="0" cy="0" r="1" gradientUnits="userSpaceOnUse" gradientTransform="translate(11.7692 15.8854) rotate(81.0575) scale(94.7665 65.0274)">
<stop stop-color="#4C50BB"/>
<stop offset="1" stop-color="#025FD7" stop-opacity="0"/>
</radialGradient>
<radialGradient id="paint2_radial_12161_3932" cx="0" cy="0" r="1" gradientUnits="userSpaceOnUse" gradientTransform="translate(184.5 74.5) rotate(-105.027) scale(77.1379 242.277)">
<stop stop-color="#FF8585"/>
<stop offset="1" stop-color="#025FD7" stop-opacity="0"/>
</radialGradient>
<linearGradient id="paint3_linear_12161_3932" x1="3.72616" y1="-0.959555" x2="76.0199" y2="172.545" gradientUnits="userSpaceOnUse">
<stop stop-color="#19AEFF"/>
<stop offset="0.21875" stop-color="white"/>
<stop offset="0.416667" stop-color="#015CD5"/>
<stop offset="0.625" stop-color="#2E303E"/>
<stop offset="0.864583" stop-color="#19AEFF"/>
</linearGradient>
<linearGradient id="paint4_linear_12161_3932" x1="23.7893" y1="19.5513" x2="29.066" y2="19.5513" gradientUnits="userSpaceOnUse">
<stop stop-color="#19AEFF"/>
<stop offset="1" stop-color="#015CD5"/>
</linearGradient>
<clipPath id="clip0_12161_3932">
<rect width="240" height="100" fill="white"/>
</clipPath>
</defs>
</svg>
