<?xml version="1.0" encoding="UTF-8" standalone="no"?>
<svg
   xmlns:dc="http://purl.org/dc/elements/1.1/"
   xmlns:cc="http://creativecommons.org/ns#"
   xmlns:rdf="http://www.w3.org/1999/02/22-rdf-syntax-ns#"
   xmlns:svg="http://www.w3.org/2000/svg"
   xmlns="http://www.w3.org/2000/svg"
   fill="none"
   viewBox="0 0 240 100"
   version="1.1"
   id="svg16"
   width="240"
   height="100">
  <metadata
     id="metadata22">
    <rdf:RDF>
      <cc:Work
         rdf:about="">
        <dc:format>image/svg+xml</dc:format>
        <dc:type
           rdf:resource="http://purl.org/dc/dcmitype/StillImage" />
        <dc:title></dc:title>
      </cc:Work>
    </rdf:RDF>
  </metadata>
  <defs
     id="defs20" />
  <g
     id="g854"
     transform="scale(0.5)">
    <rect
       width="480"
       height="200"
       rx="10"
       fill="#f8f6f0"
       id="rect2"
       x="0"
       y="0" />
    <path
       d="m 152.507,18 c 19.61,0 35.507,15.825 35.507,35.347 0,19.522 -15.897,35.347 -35.507,35.347 C 132.897,88.694 117,72.87 117,53.347 117,33.825 132.897,18 152.507,18 Z"
       fill="#f73b95"
       id="path4" />
    <path
       d="m 152.591,24.901 c 15.875,0 28.744,12.811 28.744,28.615 0,15.803 -12.869,28.614 -28.744,28.614 -15.874,0 -28.743,-12.81 -28.743,-28.614 0,-15.804 12.869,-28.616 28.743,-28.616 z"
       fill="#bd399c"
       id="path6" />
    <path
       d="m 152.591,32.475 c 11.673,0 21.135,9.42 21.135,21.04 0,11.62 -9.462,21.04 -21.135,21.04 -11.672,0 -21.134,-9.42 -21.134,-21.04 0,-11.62 9.462,-21.04 21.134,-21.04 z"
       fill="#93388e"
       id="path8" />
    <path
       d="m 152.422,38.872 c 7.937,0 14.372,6.406 14.372,14.307 0,7.902 -6.435,14.307 -14.372,14.307 -7.937,0 -14.372,-6.405 -14.372,-14.306 0,-7.901 6.435,-14.307 14.372,-14.307 z"
       fill="#6030a2"
       id="path10" />
    <path
       d="m 225.304,72.391 h 15.947 c 7.349,0 12.896,-1.86 16.57,-5.65 3.744,-3.789 5.616,-8.198 5.616,-13.366 0,-5.168 -1.872,-9.646 -5.616,-13.436 -3.674,-3.79 -9.221,-5.65 -16.57,-5.65 h -15.947 z m 30.853,-19.016 c 0,3.72 -1.248,6.89 -3.744,9.508 -2.426,2.55 -6.17,3.859 -11.162,3.859 h -8.875 V 39.939 h 8.875 c 4.992,0 8.736,1.31 11.162,3.859 2.496,2.618 3.744,5.788 3.744,9.577 z m 12.966,3.307 c 0,9.577 6.101,16.398 16.709,16.398 7.072,0 12.757,-3.376 15.253,-9.715 h -7.834 c -1.734,2.688 -4.161,4.066 -7.419,4.066 -5.408,0 -8.874,-3.445 -9.499,-8.82 h 25.307 v -1.929 c 0,-9.44 -6.379,-16.398 -16.224,-16.398 -9.915,0 -16.293,6.752 -16.293,16.398 z m 25.237,-2.618 h -17.957 c 0.763,-4.754 3.813,-8.13 9.013,-8.13 5.062,0 8.181,3.307 8.944,8.13 z m 23.435,6.683 V 46.14 h 7.973 v -5.167 h -7.973 V 33.6 h -6.934 v 7.372 h -5.13 v 5.167 h 5.13 v 14.607 c 0,4.617 0.971,7.717 2.982,9.37 2.01,1.654 4.853,2.481 8.528,2.481 1.179,0 2.218,-0.069 3.12,-0.275 l 1.317,-0.276 v -5.443 l -1.317,0.138 c -0.902,0.137 -1.941,0.206 -3.12,0.206 -3.744,0 -4.576,-1.929 -4.576,-6.2 z m 29.744,-20.256 c -4.645,0 -8.251,0.964 -10.747,2.962 -2.565,1.998 -3.813,4.41 -3.813,7.235 h 7.072 c 0,-3.307 3.744,-4.548 7.488,-4.548 4.714,0 7.626,1.654 7.626,5.995 v 1.929 h -8.527 c -8.39,0 -14.907,2.136 -14.907,9.164 0,6.476 4.992,9.852 12.411,9.852 4.783,0 8.181,-1.17 10.192,-3.514 l 0.97,-1.17 c 0,1.308 0.555,3.306 0.763,3.995 H 363 v -0.55 l -0.485,-1.516 c -0.278,-1.034 -0.416,-2.619 -0.416,-4.823 V 53.375 c 0,-9.233 -5.269,-12.884 -14.56,-12.884 z m 7.626,18.19 c 0,6.27 -3.189,9.507 -9.221,9.507 -3.952,0 -7.141,-1.309 -7.141,-4.616 0,-3.79 3.467,-4.892 7.835,-4.96 l 8.527,0.068 z M 14.783,114.424 h 9.79 v 1.98 h -7.678 v 4.884 h 7.15 v 1.98 h -7.15 V 130 h -2.112 z m 12.127,5.148 h 1.98 v 1.606 h 0.044 c 0.132,-0.279 0.308,-0.528 0.528,-0.748 a 3.46,3.46 0 0 1 0.726,-0.594 c 0.279,-0.161 0.58,-0.286 0.902,-0.374 0.323,-0.103 0.645,-0.154 0.968,-0.154 0.323,0 0.616,0.044 0.88,0.132 l -0.088,2.134 a 5.625,5.625 0 0 0 -0.484,-0.11 2.732,2.732 0 0 0 -0.484,-0.044 c -0.968,0 -1.709,0.271 -2.222,0.814 -0.513,0.543 -0.77,1.386 -0.77,2.53 V 130 h -1.98 z m 9.252,5.94 c 0,0.455 0.095,0.873 0.286,1.254 0.205,0.367 0.47,0.682 0.792,0.946 0.323,0.264 0.697,0.469 1.122,0.616 0.425,0.147 0.865,0.22 1.32,0.22 0.616,0 1.151,-0.139 1.606,-0.418 a 5.38,5.38 0 0 0 1.254,-1.144 l 1.496,1.144 c -1.1,1.423 -2.64,2.134 -4.62,2.134 -0.821,0 -1.57,-0.139 -2.244,-0.418 a 5.087,5.087 0 0 1 -1.694,-1.144 5.371,5.371 0 0 1 -1.056,-1.738 6.237,6.237 0 0 1 -0.374,-2.178 c 0,-0.777 0.132,-1.496 0.396,-2.156 a 5.456,5.456 0 0 1 1.122,-1.738 5.16,5.16 0 0 1 1.716,-1.166 5.48,5.48 0 0 1 2.156,-0.418 c 0.924,0 1.701,0.161 2.332,0.484 a 4.549,4.549 0 0 1 1.584,1.276 c 0.41,0.513 0.704,1.1 0.88,1.76 0.19,0.645 0.286,1.305 0.286,1.98 v 0.704 z m 6.248,-1.584 a 3.942,3.942 0 0 0 -0.22,-1.21 2.435,2.435 0 0 0 -0.55,-0.946 2.4,2.4 0 0 0 -0.946,-0.638 c -0.367,-0.161 -0.8,-0.242 -1.298,-0.242 -0.484,0 -0.931,0.095 -1.342,0.286 a 3.137,3.137 0 0 0 -1.012,0.704 3.432,3.432 0 0 0 -0.66,0.99 c -0.147,0.352 -0.22,0.704 -0.22,1.056 z m 5.977,1.584 c 0,0.455 0.095,0.873 0.285,1.254 0.206,0.367 0.47,0.682 0.793,0.946 0.322,0.264 0.696,0.469 1.121,0.616 0.426,0.147 0.866,0.22 1.32,0.22 0.617,0 1.152,-0.139 1.607,-0.418 a 5.38,5.38 0 0 0 1.254,-1.144 l 1.495,1.144 c -1.1,1.423 -2.64,2.134 -4.62,2.134 -0.82,0 -1.569,-0.139 -2.244,-0.418 a 5.087,5.087 0 0 1 -1.694,-1.144 5.371,5.371 0 0 1 -1.056,-1.738 6.237,6.237 0 0 1 -0.373,-2.178 c 0,-0.777 0.132,-1.496 0.395,-2.156 a 5.456,5.456 0 0 1 1.122,-1.738 5.16,5.16 0 0 1 1.716,-1.166 5.48,5.48 0 0 1 2.156,-0.418 c 0.925,0 1.702,0.161 2.332,0.484 a 4.549,4.549 0 0 1 1.584,1.276 c 0.411,0.513 0.705,1.1 0.88,1.76 0.191,0.645 0.286,1.305 0.286,1.98 v 0.704 h -8.36 z m 6.248,-1.584 a 3.942,3.942 0 0 0 -0.22,-1.21 2.435,2.435 0 0 0 -0.55,-0.946 2.4,2.4 0 0 0 -0.947,-0.638 c -0.366,-0.161 -0.799,-0.242 -1.297,-0.242 -0.485,0 -0.932,0.095 -1.343,0.286 a 3.137,3.137 0 0 0 -1.011,0.704 3.432,3.432 0 0 0 -0.66,0.99 c -0.147,0.352 -0.22,0.704 -0.22,1.056 z m 10.845,-9.504 h 10.054 v 2.508 h -7.282 v 4.092 h 6.864 v 2.508 H 68.252 V 130 H 65.48 Z m 18.991,14.124 h -0.066 c -0.381,0.601 -0.865,1.041 -1.452,1.32 a 4.664,4.664 0 0 1 -1.936,0.396 c -0.484,0 -0.96,-0.066 -1.43,-0.198 a 3.998,3.998 0 0 1 -1.232,-0.594 3.107,3.107 0 0 1 -0.858,-0.99 c -0.22,-0.396 -0.33,-0.858 -0.33,-1.386 0,-0.572 0.103,-1.056 0.308,-1.452 a 2.92,2.92 0 0 1 0.814,-1.012 4.172,4.172 0 0 1 1.21,-0.66 7.61,7.61 0 0 1 1.408,-0.352 c 0.499,-0.088 0.997,-0.139 1.496,-0.154 0.499,-0.029 0.968,-0.044 1.408,-0.044 h 0.66 v -0.286 c 0,-0.66 -0.227,-1.151 -0.682,-1.474 -0.455,-0.337 -1.034,-0.506 -1.738,-0.506 -0.557,0 -1.078,0.103 -1.562,0.308 a 3.816,3.816 0 0 0 -1.254,0.792 l -1.386,-1.386 a 5.133,5.133 0 0 1 2.046,-1.298 7.673,7.673 0 0 1 2.442,-0.396 c 0.748,0 1.379,0.088 1.892,0.264 0.513,0.161 0.939,0.374 1.276,0.638 0.337,0.264 0.594,0.572 0.77,0.924 0.19,0.337 0.323,0.682 0.396,1.034 0.088,0.352 0.14,0.697 0.154,1.034 0.015,0.323 0.022,0.609 0.022,0.858 V 130 h -2.376 z m -0.154,-3.278 h -0.55 c -0.367,0 -0.777,0.015 -1.232,0.044 a 6.155,6.155 0 0 0 -1.298,0.22 2.712,2.712 0 0 0 -1.012,0.484 c -0.279,0.205 -0.418,0.499 -0.418,0.88 0,0.249 0.051,0.462 0.154,0.638 0.117,0.161 0.264,0.301 0.44,0.418 a 2,2 0 0 0 0.594,0.264 c 0.22,0.044 0.44,0.066 0.66,0.066 0.91,0 1.577,-0.213 2.002,-0.638 0.44,-0.44 0.66,-1.034 0.66,-1.782 z m 11.002,-2.904 c -0.513,-0.719 -1.202,-1.078 -2.068,-1.078 -0.352,0 -0.696,0.088 -1.034,0.264 -0.337,0.176 -0.506,0.462 -0.506,0.858 0,0.323 0.14,0.557 0.418,0.704 0.28,0.147 0.631,0.271 1.056,0.374 l 1.364,0.33 c 0.5,0.103 0.961,0.271 1.386,0.506 0.426,0.22 0.778,0.528 1.056,0.924 0.28,0.396 0.418,0.939 0.418,1.628 0,0.631 -0.139,1.166 -0.418,1.606 -0.264,0.425 -0.616,0.77 -1.056,1.034 -0.425,0.264 -0.909,0.455 -1.452,0.572 a 7.705,7.705 0 0 1 -1.628,0.176 6.984,6.984 0 0 1 -2.266,-0.352 c -0.689,-0.235 -1.305,-0.66 -1.848,-1.276 l 1.76,-1.65 c 0.338,0.381 0.697,0.697 1.078,0.946 0.396,0.235 0.873,0.352 1.43,0.352 0.191,0 0.39,-0.022 0.594,-0.066 0.206,-0.044 0.396,-0.117 0.572,-0.22 0.176,-0.103 0.316,-0.227 0.418,-0.374 a 0.912,0.912 0 0 0 0.176,-0.55 c 0,-0.367 -0.139,-0.638 -0.418,-0.814 -0.278,-0.176 -0.63,-0.315 -1.056,-0.418 -0.425,-0.117 -0.887,-0.22 -1.386,-0.308 a 6.01,6.01 0 0 1 -1.364,-0.462 2.995,2.995 0 0 1 -1.056,-0.902 c -0.278,-0.381 -0.418,-0.909 -0.418,-1.584 0,-0.587 0.118,-1.093 0.352,-1.518 0.25,-0.44 0.572,-0.799 0.968,-1.078 0.396,-0.279 0.851,-0.484 1.364,-0.616 a 6.112,6.112 0 0 1 3.652,0.176 3.35,3.35 0 0 1 1.672,1.232 z m 2.912,-0.682 v -2.244 h 2.178 v -3.058 h 2.64 v 3.058 h 2.904 v 2.244 h -2.904 v 4.62 c 0,0.528 0.095,0.946 0.286,1.254 0.205,0.308 0.601,0.462 1.188,0.462 0.234,0 0.491,-0.022 0.77,-0.066 0.278,-0.059 0.498,-0.147 0.66,-0.264 v 2.222 c -0.279,0.132 -0.624,0.22 -1.034,0.264 a 7.248,7.248 0 0 1 -1.056,0.088 c -0.704,0 -1.284,-0.081 -1.738,-0.242 -0.44,-0.147 -0.792,-0.374 -1.056,-0.682 a 2.927,2.927 0 0 1 -0.528,-1.188 8.911,8.911 0 0 1 -0.132,-1.628 v -4.84 z m 15.063,-7.26 h 2.398 l 6.71,15.576 h -3.168 l -1.452,-3.564 h -6.754 L 109.62,130 h -3.102 z m 3.52,9.636 -2.398,-6.336 -2.442,6.336 z m 7.319,-9.636 h 5.236 c 0.748,0 1.466,0.073 2.156,0.22 0.704,0.147 1.32,0.396 1.848,0.748 a 3.58,3.58 0 0 1 1.254,1.386 c 0.322,0.572 0.484,1.291 0.484,2.156 0,0.983 -0.169,1.775 -0.506,2.376 a 3.707,3.707 0 0 1 -1.364,1.408 c -0.572,0.323 -1.24,0.543 -2.002,0.66 -0.748,0.117 -1.533,0.176 -2.354,0.176 h -1.98 V 130 h -2.772 z m 4.444,6.754 c 0.396,0 0.806,-0.015 1.232,-0.044 a 3.653,3.653 0 0 0 1.166,-0.264 2.01,2.01 0 0 0 0.88,-0.66 c 0.234,-0.293 0.352,-0.704 0.352,-1.232 0,-0.484 -0.103,-0.865 -0.308,-1.144 a 1.935,1.935 0 0 0 -0.792,-0.66 3.184,3.184 0 0 0 -1.078,-0.308 10.375,10.375 0 0 0 -1.144,-0.066 h -1.98 v 4.378 z m 8.939,-6.754 h 2.772 V 130 h -2.772 z m 12.07,-1.056 h 1.98 v 7.81 h 0.044 c 0.249,-0.557 0.682,-1.005 1.298,-1.342 0.616,-0.352 1.327,-0.528 2.134,-0.528 0.499,0 0.975,0.081 1.43,0.242 a 3.03,3.03 0 0 1 1.21,0.704 c 0.352,0.323 0.631,0.741 0.836,1.254 0.205,0.499 0.308,1.093 0.308,1.782 V 130 h -1.98 v -6.16 c 0,-0.484 -0.066,-0.895 -0.198,-1.232 -0.132,-0.352 -0.308,-0.631 -0.528,-0.836 a 1.811,1.811 0 0 0 -0.77,-0.462 2.519,2.519 0 0 0 -0.88,-0.154 c -0.411,0 -0.792,0.066 -1.144,0.198 -0.352,0.132 -0.66,0.345 -0.924,0.638 -0.264,0.279 -0.469,0.638 -0.616,1.078 -0.147,0.44 -0.22,0.961 -0.22,1.562 V 130 h -1.98 z m 13.83,11.418 c 0,0.528 0.081,1.019 0.242,1.474 0.162,0.44 0.389,0.821 0.682,1.144 a 3.39,3.39 0 0 0 1.078,0.748 3.71,3.71 0 0 0 1.43,0.264 c 0.528,0 1.005,-0.088 1.43,-0.264 0.426,-0.191 0.785,-0.44 1.078,-0.748 0.294,-0.323 0.521,-0.704 0.682,-1.144 0.162,-0.455 0.242,-0.946 0.242,-1.474 0,-0.528 -0.08,-1.012 -0.242,-1.452 a 3.152,3.152 0 0 0 -0.682,-1.144 2.955,2.955 0 0 0 -1.078,-0.748 3.452,3.452 0 0 0 -1.43,-0.286 c -0.528,0 -1.004,0.095 -1.43,0.286 a 2.972,2.972 0 0 0 -1.078,0.748 3.18,3.18 0 0 0 -0.682,1.144 c -0.161,0.44 -0.242,0.924 -0.242,1.452 z m -2.112,0 c 0,-0.763 0.14,-1.474 0.418,-2.134 0.294,-0.66 0.69,-1.239 1.188,-1.738 a 5.357,5.357 0 0 1 1.76,-1.166 5.41,5.41 0 0 1 2.178,-0.44 c 0.778,0 1.504,0.147 2.178,0.44 a 5.337,5.337 0 0 1 1.76,1.166 5.395,5.395 0 0 1 1.166,1.738 c 0.294,0.66 0.44,1.371 0.44,2.134 0,0.763 -0.146,1.481 -0.44,2.156 a 5.395,5.395 0 0 1 -1.166,1.738 5.828,5.828 0 0 1 -1.76,1.166 c -0.674,0.279 -1.4,0.418 -2.178,0.418 a 5.645,5.645 0 0 1 -2.178,-0.418 5.853,5.853 0 0 1 -1.76,-1.166 5.746,5.746 0 0 1 -1.188,-1.738 5.604,5.604 0 0 1 -0.418,-2.156 z m 19.113,-2.596 a 2.86,2.86 0 0 0 -0.88,-0.726 c -0.337,-0.205 -0.755,-0.308 -1.254,-0.308 -0.469,0 -0.88,0.103 -1.232,0.308 -0.337,0.191 -0.506,0.477 -0.506,0.858 0,0.308 0.095,0.557 0.286,0.748 0.205,0.191 0.44,0.345 0.704,0.462 0.279,0.117 0.572,0.205 0.88,0.264 0.308,0.059 0.572,0.11 0.792,0.154 0.425,0.103 0.821,0.227 1.188,0.374 0.381,0.147 0.704,0.337 0.968,0.572 0.279,0.235 0.491,0.521 0.638,0.858 0.161,0.337 0.242,0.748 0.242,1.232 0,0.587 -0.125,1.093 -0.374,1.518 a 3.184,3.184 0 0 1 -0.968,1.012 4.064,4.064 0 0 1 -1.364,0.572 6.628,6.628 0 0 1 -1.518,0.176 c -0.865,0 -1.628,-0.132 -2.288,-0.396 -0.645,-0.264 -1.225,-0.748 -1.738,-1.452 l 1.496,-1.232 c 0.323,0.323 0.682,0.609 1.078,0.858 0.396,0.249 0.88,0.374 1.452,0.374 0.249,0 0.499,-0.022 0.748,-0.066 0.264,-0.059 0.491,-0.139 0.682,-0.242 0.205,-0.117 0.367,-0.257 0.484,-0.418 a 0.965,0.965 0 0 0 0.198,-0.594 0.983,0.983 0 0 0 -0.286,-0.726 1.74,1.74 0 0 0 -0.66,-0.44 3.562,3.562 0 0 0 -0.814,-0.264 13.326,13.326 0 0 0 -0.748,-0.176 13.19,13.19 0 0 1 -1.21,-0.352 3.678,3.678 0 0 1 -1.012,-0.528 2.446,2.446 0 0 1 -0.704,-0.836 c -0.176,-0.337 -0.264,-0.755 -0.264,-1.254 0,-0.543 0.11,-1.012 0.33,-1.408 0.235,-0.411 0.535,-0.748 0.902,-1.012 a 4.24,4.24 0 0 1 1.276,-0.594 5.497,5.497 0 0 1 1.452,-0.198 c 0.704,0 1.379,0.132 2.024,0.396 a 3.205,3.205 0 0 1 1.54,1.32 z m 9.819,-0.902 h -2.838 v 4.73 c 0,0.293 0.008,0.587 0.022,0.88 0.015,0.279 0.066,0.535 0.154,0.77 0.103,0.22 0.25,0.403 0.44,0.55 0.206,0.132 0.499,0.198 0.88,0.198 0.235,0 0.477,-0.022 0.726,-0.066 0.25,-0.044 0.477,-0.125 0.682,-0.242 v 1.804 c -0.234,0.132 -0.542,0.22 -0.924,0.264 a 5.74,5.74 0 0 1 -0.858,0.088 c -0.762,0 -1.356,-0.103 -1.782,-0.308 -0.41,-0.22 -0.718,-0.499 -0.924,-0.836 a 2.884,2.884 0 0 1 -0.352,-1.122 18.753,18.753 0 0 1 -0.044,-1.276 v -5.434 h -2.288 v -1.716 h 2.288 v -2.926 h 1.98 v 2.926 h 2.838 z m 2.709,-1.716 h 1.98 V 130 h -1.98 z m -0.462,-3.74 c 0,-0.396 0.139,-0.733 0.418,-1.012 0.293,-0.293 0.638,-0.44 1.034,-0.44 0.396,0 0.733,0.147 1.012,0.44 0.293,0.279 0.44,0.616 0.44,1.012 0,0.396 -0.147,0.741 -0.44,1.034 a 1.378,1.378 0 0 1 -1.012,0.418 1.45,1.45 0 0 1 -1.034,-0.418 1.45,1.45 0 0 1 -0.418,-1.034 z m 5.593,3.74 h 1.98 v 1.606 h 0.044 c 0.249,-0.557 0.682,-1.005 1.298,-1.342 0.616,-0.352 1.327,-0.528 2.134,-0.528 0.499,0 0.975,0.081 1.43,0.242 a 3.03,3.03 0 0 1 1.21,0.704 c 0.352,0.323 0.631,0.741 0.836,1.254 0.205,0.499 0.308,1.093 0.308,1.782 V 130 h -1.98 v -6.16 c 0,-0.484 -0.066,-0.895 -0.198,-1.232 -0.132,-0.352 -0.308,-0.631 -0.528,-0.836 a 1.811,1.811 0 0 0 -0.77,-0.462 2.519,2.519 0 0 0 -0.88,-0.154 c -0.411,0 -0.792,0.066 -1.144,0.198 -0.352,0.132 -0.66,0.345 -0.924,0.638 -0.264,0.279 -0.469,0.638 -0.616,1.078 -0.147,0.44 -0.22,0.961 -0.22,1.562 V 130 h -1.98 z m 22.675,10.34 c 0,0.792 -0.14,1.511 -0.418,2.156 a 4.686,4.686 0 0 1 -1.144,1.694 c -0.499,0.484 -1.1,0.858 -1.804,1.122 -0.704,0.264 -1.482,0.396 -2.332,0.396 -0.998,0 -1.914,-0.139 -2.75,-0.418 -0.822,-0.279 -1.606,-0.763 -2.354,-1.452 l 1.342,-1.672 c 0.513,0.557 1.07,0.975 1.672,1.254 0.601,0.293 1.283,0.44 2.046,0.44 0.733,0 1.342,-0.11 1.826,-0.33 0.484,-0.205 0.865,-0.477 1.144,-0.814 0.293,-0.337 0.498,-0.726 0.616,-1.166 a 4.87,4.87 0 0 0 0.176,-1.298 v -1.54 h -0.066 a 3.54,3.54 0 0 1 -1.562,1.408 4.897,4.897 0 0 1 -2.046,0.44 5.691,5.691 0 0 1 -2.134,-0.396 5.318,5.318 0 0 1 -1.672,-1.122 5.27,5.27 0 0 1 -1.1,-1.694 5.691,5.691 0 0 1 -0.396,-2.134 c 0,-0.763 0.124,-1.474 0.374,-2.134 a 5.304,5.304 0 0 1 1.056,-1.76 4.97,4.97 0 0 1 1.672,-1.166 c 0.66,-0.279 1.393,-0.418 2.2,-0.418 0.704,0 1.386,0.154 2.046,0.462 0.674,0.308 1.202,0.741 1.584,1.298 h 0.044 v -1.496 h 1.98 z m -5.412,-8.756 c -0.528,0 -1.005,0.095 -1.43,0.286 a 2.955,2.955 0 0 0 -1.078,0.748 3.152,3.152 0 0 0 -0.682,1.144 c -0.162,0.44 -0.242,0.924 -0.242,1.452 0,1.056 0.308,1.907 0.924,2.552 0.616,0.631 1.452,0.946 2.508,0.946 1.056,0 1.892,-0.315 2.508,-0.946 0.616,-0.645 0.924,-1.496 0.924,-2.552 0,-0.528 -0.081,-1.012 -0.242,-1.452 a 3.18,3.18 0 0 0 -0.682,-1.144 2.972,2.972 0 0 0 -1.078,-0.748 3.455,3.455 0 0 0 -1.43,-0.286 z m 9.775,11.748 h -1.804 l 1.518,-5.412 h 2.134 z m 11.85,-6.16 c 0.381,0.572 0.865,0.997 1.452,1.276 a 4.552,4.552 0 0 0 1.848,0.396 c 0.352,0 0.711,-0.051 1.078,-0.154 0.367,-0.117 0.697,-0.286 0.99,-0.506 0.308,-0.22 0.557,-0.491 0.748,-0.814 0.191,-0.323 0.286,-0.697 0.286,-1.122 0,-0.601 -0.191,-1.056 -0.572,-1.364 -0.381,-0.323 -0.858,-0.587 -1.43,-0.792 a 19.493,19.493 0 0 0 -1.848,-0.616 8.089,8.089 0 0 1 -1.848,-0.836 4.601,4.601 0 0 1 -1.408,-1.408 c -0.381,-0.601 -0.572,-1.408 -0.572,-2.42 0,-0.455 0.095,-0.939 0.286,-1.452 0.205,-0.513 0.521,-0.983 0.946,-1.408 0.425,-0.425 0.968,-0.777 1.628,-1.056 0.675,-0.293 1.481,-0.44 2.42,-0.44 a 8.39,8.39 0 0 1 2.442,0.352 c 0.777,0.235 1.459,0.711 2.046,1.43 l -1.716,1.562 a 2.843,2.843 0 0 0 -1.122,-0.99 c -0.484,-0.249 -1.034,-0.374 -1.65,-0.374 -0.587,0 -1.078,0.081 -1.474,0.242 a 2.467,2.467 0 0 0 -0.924,0.594 2.128,2.128 0 0 0 -0.506,0.77 2.572,2.572 0 0 0 -0.132,0.77 c 0,0.66 0.191,1.166 0.572,1.518 0.381,0.352 0.851,0.638 1.408,0.858 0.572,0.22 1.188,0.418 1.848,0.594 a 7.37,7.37 0 0 1 1.848,0.748 4.104,4.104 0 0 1 1.43,1.276 c 0.381,0.528 0.572,1.261 0.572,2.2 0,0.748 -0.147,1.423 -0.44,2.024 a 4.383,4.383 0 0 1 -1.144,1.518 5.119,5.119 0 0 1 -1.716,0.946 c -0.66,0.22 -1.364,0.33 -2.112,0.33 a 7.684,7.684 0 0 1 -2.838,-0.528 c -0.895,-0.352 -1.606,-0.895 -2.134,-1.628 z m 12.225,0 c 0.381,0.572 0.865,0.997 1.452,1.276 a 4.552,4.552 0 0 0 1.848,0.396 c 0.352,0 0.711,-0.051 1.078,-0.154 0.366,-0.117 0.696,-0.286 0.99,-0.506 0.308,-0.22 0.557,-0.491 0.748,-0.814 0.19,-0.323 0.286,-0.697 0.286,-1.122 0,-0.601 -0.191,-1.056 -0.572,-1.364 -0.382,-0.323 -0.858,-0.587 -1.43,-0.792 a 19.686,19.686 0 0 0 -1.848,-0.616 8.089,8.089 0 0 1 -1.848,-0.836 4.59,4.59 0 0 1 -1.408,-1.408 c -0.382,-0.601 -0.572,-1.408 -0.572,-2.42 0,-0.455 0.095,-0.939 0.286,-1.452 0.205,-0.513 0.52,-0.983 0.946,-1.408 0.425,-0.425 0.968,-0.777 1.628,-1.056 0.674,-0.293 1.481,-0.44 2.42,-0.44 a 8.4,8.4 0 0 1 2.442,0.352 c 0.777,0.235 1.459,0.711 2.046,1.43 l -1.716,1.562 a 2.843,2.843 0 0 0 -1.122,-0.99 c -0.484,-0.249 -1.034,-0.374 -1.65,-0.374 -0.587,0 -1.078,0.081 -1.474,0.242 -0.382,0.147 -0.69,0.345 -0.924,0.594 a 2.115,2.115 0 0 0 -0.506,0.77 2.572,2.572 0 0 0 -0.132,0.77 c 0,0.66 0.19,1.166 0.572,1.518 0.381,0.352 0.85,0.638 1.408,0.858 0.572,0.22 1.188,0.418 1.848,0.594 a 7.4,7.4 0 0 1 1.848,0.748 4.113,4.113 0 0 1 1.43,1.276 c 0.381,0.528 0.572,1.261 0.572,2.2 0,0.748 -0.147,1.423 -0.44,2.024 a 4.383,4.383 0 0 1 -1.144,1.518 5.119,5.119 0 0 1 -1.716,0.946 c -0.66,0.22 -1.364,0.33 -2.112,0.33 a 7.676,7.676 0 0 1 -2.838,-0.528 c -0.895,-0.352 -1.606,-0.895 -2.134,-1.628 z m 11.762,-12.32 h 2.112 v 13.596 h 7.15 V 130 h -9.262 z m 12.266,18.48 h -1.804 l 1.518,-5.412 h 2.134 z m 11.037,-18.48 h 5.434 c 1.1,0 2.06,0.125 2.882,0.374 0.836,0.249 1.554,0.587 2.156,1.012 a 5.914,5.914 0 0 1 1.518,1.43 c 0.41,0.543 0.733,1.1 0.968,1.672 0.234,0.572 0.403,1.144 0.506,1.716 0.102,0.572 0.154,1.1 0.154,1.584 a 7.93,7.93 0 0 1 -0.55,2.904 7.465,7.465 0 0 1 -1.628,2.486 c -0.719,0.719 -1.614,1.298 -2.684,1.738 -1.056,0.44 -2.281,0.66 -3.674,0.66 h -5.082 z m 2.112,13.596 h 2.662 c 0.894,0 1.738,-0.117 2.53,-0.352 a 6.299,6.299 0 0 0 2.112,-1.1 5.242,5.242 0 0 0 1.43,-1.804 c 0.352,-0.733 0.528,-1.584 0.528,-2.552 0,-0.499 -0.081,-1.078 -0.242,-1.738 a 5.155,5.155 0 0 0 -0.924,-1.914 c -0.44,-0.601 -1.056,-1.107 -1.848,-1.518 -0.792,-0.425 -1.819,-0.638 -3.08,-0.638 h -3.168 z m 14.546,-13.596 h 5.412 a 6.88,6.88 0 0 1 1.87,0.242 c 0.587,0.161 1.085,0.403 1.496,0.726 0.425,0.308 0.755,0.711 0.99,1.21 0.249,0.484 0.374,1.056 0.374,1.716 0,0.895 -0.249,1.628 -0.748,2.2 -0.499,0.557 -1.144,0.968 -1.936,1.232 v 0.044 c 0.469,0.029 0.909,0.154 1.32,0.374 0.411,0.205 0.763,0.484 1.056,0.836 0.308,0.337 0.55,0.733 0.726,1.188 0.176,0.455 0.264,0.946 0.264,1.474 0,0.704 -0.147,1.327 -0.44,1.87 a 3.929,3.929 0 0 1 -1.166,1.342 5.468,5.468 0 0 1 -1.738,0.836 7.645,7.645 0 0 1 -2.134,0.286 h -5.346 z m 2.112,6.468 h 2.882 c 0.396,0 0.77,-0.037 1.122,-0.11 0.352,-0.088 0.66,-0.227 0.924,-0.418 0.264,-0.191 0.469,-0.433 0.616,-0.726 0.161,-0.293 0.242,-0.653 0.242,-1.078 0,-0.616 -0.198,-1.151 -0.594,-1.606 -0.396,-0.455 -1.019,-0.682 -1.87,-0.682 h -3.322 z m 0,7.26 h 3.102 a 6.93,6.93 0 0 0 1.056,-0.088 3.502,3.502 0 0 0 1.1,-0.396 2.84,2.84 0 0 0 0.858,-0.814 c 0.235,-0.337 0.352,-0.785 0.352,-1.342 0,-0.924 -0.301,-1.613 -0.902,-2.068 -0.601,-0.469 -1.415,-0.704 -2.442,-0.704 h -3.124 z M 334.555,130 h -2.838 l -1.914,-2.068 c -0.66,0.792 -1.364,1.401 -2.112,1.826 -0.734,0.425 -1.621,0.638 -2.662,0.638 -0.88,0 -1.643,-0.132 -2.288,-0.396 -0.646,-0.249 -1.181,-0.587 -1.606,-1.012 a 4.263,4.263 0 0 1 -0.924,-1.43 5.002,5.002 0 0 1 -0.286,-1.672 c 0,-0.543 0.095,-1.034 0.286,-1.474 0.19,-0.455 0.447,-0.865 0.77,-1.232 a 6.026,6.026 0 0 1 1.122,-0.99 c 0.44,-0.293 0.894,-0.55 1.364,-0.77 a 11.855,11.855 0 0 1 -1.298,-1.628 c -0.352,-0.557 -0.528,-1.217 -0.528,-1.98 0,-0.587 0.11,-1.107 0.33,-1.562 0.234,-0.455 0.542,-0.836 0.924,-1.144 a 4.06,4.06 0 0 1 1.32,-0.704 5.118,5.118 0 0 1 1.584,-0.242 c 0.542,0 1.056,0.073 1.54,0.22 0.498,0.147 0.931,0.367 1.298,0.66 0.366,0.293 0.652,0.66 0.858,1.1 0.22,0.44 0.33,0.953 0.33,1.54 0,0.484 -0.096,0.931 -0.286,1.342 -0.191,0.396 -0.44,0.763 -0.748,1.1 a 6.679,6.679 0 0 1 -1.034,0.88 c -0.382,0.249 -0.77,0.477 -1.166,0.682 l 3.08,3.212 1.958,-3.19 h 2.398 l -3.014,4.664 z m -6.842,-12.32 c 0,-0.513 -0.176,-0.917 -0.528,-1.21 -0.352,-0.308 -0.807,-0.462 -1.364,-0.462 -0.558,0 -1.042,0.161 -1.452,0.484 -0.411,0.308 -0.616,0.755 -0.616,1.342 0,0.264 0.044,0.513 0.132,0.748 0.102,0.235 0.227,0.462 0.374,0.682 0.161,0.22 0.33,0.425 0.506,0.616 0.176,0.191 0.352,0.374 0.528,0.55 0.264,-0.147 0.535,-0.308 0.814,-0.484 a 4.68,4.68 0 0 0 0.792,-0.594 c 0.234,-0.22 0.425,-0.462 0.572,-0.726 0.161,-0.279 0.242,-0.594 0.242,-0.946 z m -2.926,4.972 c -0.308,0.176 -0.624,0.367 -0.946,0.572 a 5.448,5.448 0 0 0 -0.836,0.682 c -0.25,0.249 -0.455,0.535 -0.616,0.858 -0.147,0.308 -0.22,0.66 -0.22,1.056 0,0.381 0.08,0.741 0.242,1.078 0.161,0.323 0.381,0.609 0.66,0.858 0.278,0.249 0.586,0.447 0.924,0.594 0.352,0.132 0.718,0.198 1.1,0.198 0.381,0 0.733,-0.059 1.056,-0.176 0.337,-0.117 0.645,-0.264 0.924,-0.44 0.293,-0.191 0.557,-0.403 0.792,-0.638 0.249,-0.235 0.476,-0.477 0.682,-0.726 z m 18.106,-8.228 h 9.79 v 1.98 h -7.678 v 4.884 h 7.15 v 1.98 h -7.15 V 130 h -2.112 z m 12.28,5.148 h 1.98 V 130 h -1.98 z m -0.462,-3.74 c 0,-0.396 0.14,-0.733 0.418,-1.012 0.294,-0.293 0.638,-0.44 1.034,-0.44 0.396,0 0.734,0.147 1.012,0.44 0.294,0.279 0.44,0.616 0.44,1.012 0,0.396 -0.146,0.741 -0.44,1.034 a 1.376,1.376 0 0 1 -1.012,0.418 c -0.396,0 -0.74,-0.139 -1.034,-0.418 a 1.455,1.455 0 0 1 -0.418,-1.034 z m 5.748,-2.464 h 1.98 V 130 h -1.98 z m 6.627,12.144 c 0,0.455 0.095,0.873 0.286,1.254 0.205,0.367 0.469,0.682 0.792,0.946 0.322,0.264 0.696,0.469 1.122,0.616 0.425,0.147 0.865,0.22 1.32,0.22 0.616,0 1.151,-0.139 1.606,-0.418 a 5.408,5.408 0 0 0 1.254,-1.144 l 1.496,1.144 c -1.1,1.423 -2.64,2.134 -4.62,2.134 -0.822,0 -1.57,-0.139 -2.244,-0.418 a 5.083,5.083 0 0 1 -1.694,-1.144 5.357,5.357 0 0 1 -1.056,-1.738 6.221,6.221 0 0 1 -0.374,-2.178 c 0,-0.777 0.132,-1.496 0.396,-2.156 a 5.433,5.433 0 0 1 1.122,-1.738 5.16,5.16 0 0 1 1.716,-1.166 5.478,5.478 0 0 1 2.156,-0.418 c 0.924,0 1.701,0.161 2.332,0.484 a 4.556,4.556 0 0 1 1.584,1.276 c 0.41,0.513 0.704,1.1 0.88,1.76 0.19,0.645 0.286,1.305 0.286,1.98 v 0.704 z m 6.248,-1.584 a 3.954,3.954 0 0 0 -0.22,-1.21 2.45,2.45 0 0 0 -0.55,-0.946 2.409,2.409 0 0 0 -0.946,-0.638 c -0.367,-0.161 -0.8,-0.242 -1.298,-0.242 a 3.14,3.14 0 0 0 -1.342,0.286 3.13,3.13 0 0 0 -1.012,0.704 3.415,3.415 0 0 0 -0.66,0.99 2.72,2.72 0 0 0 -0.22,1.056 z m 11.571,2.816 c 0.382,0.572 0.866,0.997 1.452,1.276 a 4.559,4.559 0 0 0 1.848,0.396 3.97,3.97 0 0 0 1.078,-0.154 c 0.367,-0.117 0.697,-0.286 0.99,-0.506 0.308,-0.22 0.558,-0.491 0.748,-0.814 0.191,-0.323 0.286,-0.697 0.286,-1.122 0,-0.601 -0.19,-1.056 -0.572,-1.364 -0.381,-0.323 -0.858,-0.587 -1.43,-0.792 a 19.493,19.493 0 0 0 -1.848,-0.616 8.089,8.089 0 0 1 -1.848,-0.836 4.612,4.612 0 0 1 -1.408,-1.408 c -0.381,-0.601 -0.572,-1.408 -0.572,-2.42 0,-0.455 0.096,-0.939 0.286,-1.452 0.206,-0.513 0.521,-0.983 0.946,-1.408 0.426,-0.425 0.968,-0.777 1.628,-1.056 0.675,-0.293 1.482,-0.44 2.42,-0.44 a 8.39,8.39 0 0 1 2.442,0.352 c 0.778,0.235 1.46,0.711 2.046,1.43 l -1.716,1.562 a 2.843,2.843 0 0 0 -1.122,-0.99 c -0.484,-0.249 -1.034,-0.374 -1.65,-0.374 -0.586,0 -1.078,0.081 -1.474,0.242 a 2.467,2.467 0 0 0 -0.924,0.594 2.14,2.14 0 0 0 -0.506,0.77 2.572,2.572 0 0 0 -0.132,0.77 c 0,0.66 0.191,1.166 0.572,1.518 a 4.48,4.48 0 0 0 1.408,0.858 c 0.572,0.22 1.188,0.418 1.848,0.594 a 7.37,7.37 0 0 1 1.848,0.748 4.104,4.104 0 0 1 1.43,1.276 c 0.382,0.528 0.572,1.261 0.572,2.2 0,0.748 -0.146,1.423 -0.44,2.024 a 4.37,4.37 0 0 1 -1.144,1.518 5.119,5.119 0 0 1 -1.716,0.946 c -0.66,0.22 -1.364,0.33 -2.112,0.33 a 7.684,7.684 0 0 1 -2.838,-0.528 c -0.894,-0.352 -1.606,-0.895 -2.134,-1.628 z m 16.845,-5.456 h -2.838 v 4.73 c 0,0.293 0.007,0.587 0.022,0.88 0.015,0.279 0.066,0.535 0.154,0.77 0.103,0.22 0.249,0.403 0.44,0.55 0.205,0.132 0.499,0.198 0.88,0.198 0.235,0 0.477,-0.022 0.726,-0.066 0.249,-0.044 0.477,-0.125 0.682,-0.242 v 1.804 c -0.235,0.132 -0.543,0.22 -0.924,0.264 a 5.765,5.765 0 0 1 -0.858,0.088 c -0.763,0 -1.357,-0.103 -1.782,-0.308 -0.411,-0.22 -0.719,-0.499 -0.924,-0.836 a 2.868,2.868 0 0 1 -0.352,-1.122 18.753,18.753 0 0 1 -0.044,-1.276 v -5.434 h -2.288 v -1.716 h 2.288 v -2.926 h 1.98 v 2.926 h 2.838 z m 4.161,3.498 c 0,0.528 0.08,1.019 0.242,1.474 0.161,0.44 0.388,0.821 0.682,1.144 0.293,0.308 0.652,0.557 1.078,0.748 0.425,0.176 0.902,0.264 1.43,0.264 a 3.71,3.71 0 0 0 1.43,-0.264 3.39,3.39 0 0 0 1.078,-0.748 3.46,3.46 0 0 0 0.682,-1.144 c 0.161,-0.455 0.242,-0.946 0.242,-1.474 0,-0.528 -0.081,-1.012 -0.242,-1.452 a 3.18,3.18 0 0 0 -0.682,-1.144 2.972,2.972 0 0 0 -1.078,-0.748 3.455,3.455 0 0 0 -1.43,-0.286 c -0.528,0 -1.005,0.095 -1.43,0.286 a 2.955,2.955 0 0 0 -1.078,0.748 3.152,3.152 0 0 0 -0.682,1.144 c -0.162,0.44 -0.242,0.924 -0.242,1.452 z m -2.112,0 c 0,-0.763 0.139,-1.474 0.418,-2.134 a 5.71,5.71 0 0 1 1.188,-1.738 5.337,5.337 0 0 1 1.76,-1.166 c 0.674,-0.293 1.4,-0.44 2.178,-0.44 a 5.41,5.41 0 0 1 2.178,0.44 5.357,5.357 0 0 1 2.926,2.904 c 0.293,0.66 0.44,1.371 0.44,2.134 0,0.763 -0.147,1.481 -0.44,2.156 a 5.427,5.427 0 0 1 -1.166,1.738 5.853,5.853 0 0 1 -1.76,1.166 5.645,5.645 0 0 1 -2.178,0.418 5.638,5.638 0 0 1 -2.178,-0.418 5.828,5.828 0 0 1 -1.76,-1.166 5.71,5.71 0 0 1 -1.188,-1.738 5.585,5.585 0 0 1 -0.418,-2.156 z m 13.568,-5.214 h 1.98 v 1.606 h 0.044 c 0.132,-0.279 0.308,-0.528 0.528,-0.748 a 3.46,3.46 0 0 1 0.726,-0.594 c 0.279,-0.161 0.579,-0.286 0.902,-0.374 0.323,-0.103 0.645,-0.154 0.968,-0.154 0.323,0 0.616,0.044 0.88,0.132 l -0.088,2.134 a 5.617,5.617 0 0 0 -0.484,-0.11 2.731,2.731 0 0 0 -0.484,-0.044 c -0.968,0 -1.709,0.271 -2.222,0.814 -0.513,0.543 -0.77,1.386 -0.77,2.53 V 130 h -1.98 z m 8.187,1.276 a 5.371,5.371 0 0 1 1.936,-1.144 6.453,6.453 0 0 1 2.2,-0.396 c 0.762,0 1.415,0.095 1.958,0.286 0.557,0.191 1.012,0.447 1.364,0.77 0.352,0.323 0.608,0.697 0.77,1.122 0.176,0.411 0.264,0.843 0.264,1.298 v 5.324 c 0,0.367 0.007,0.704 0.022,1.012 0.014,0.308 0.036,0.601 0.066,0.88 h -1.76 a 19.066,19.066 0 0 1 -0.066,-1.584 h -0.044 c -0.44,0.675 -0.961,1.151 -1.562,1.43 -0.602,0.279 -1.298,0.418 -2.09,0.418 -0.484,0 -0.946,-0.066 -1.386,-0.198 a 3.502,3.502 0 0 1 -1.166,-0.594 2.916,2.916 0 0 1 -0.77,-0.968 c -0.191,-0.396 -0.286,-0.851 -0.286,-1.364 0,-0.675 0.146,-1.239 0.44,-1.694 a 3.436,3.436 0 0 1 1.232,-1.1 5.697,5.697 0 0 1 1.826,-0.616 12.168,12.168 0 0 1 2.244,-0.198 h 1.452 v -0.44 c 0,-0.264 -0.052,-0.528 -0.154,-0.792 a 2.031,2.031 0 0 0 -0.462,-0.704 2.017,2.017 0 0 0 -0.77,-0.506 c -0.308,-0.132 -0.675,-0.198 -1.1,-0.198 -0.382,0 -0.719,0.037 -1.012,0.11 a 3.96,3.96 0 0 0 -0.77,0.286 3.013,3.013 0 0 0 -0.638,0.374 c -0.191,0.147 -0.374,0.286 -0.55,0.418 z m 5.588,4.136 c -0.47,0 -0.954,0.029 -1.452,0.088 a 5.42,5.42 0 0 0 -1.342,0.286 2.71,2.71 0 0 0 -0.99,0.616 c -0.25,0.264 -0.374,0.601 -0.374,1.012 0,0.601 0.198,1.034 0.594,1.298 0.41,0.264 0.96,0.396 1.65,0.396 0.542,0 1.004,-0.088 1.386,-0.264 a 2.73,2.73 0 0 0 0.924,-0.726 2.8,2.8 0 0 0 0.506,-0.968 c 0.102,-0.367 0.154,-0.726 0.154,-1.078 v -0.66 z m 16.226,4.928 c 0,0.792 -0.139,1.511 -0.418,2.156 a 4.673,4.673 0 0 1 -1.144,1.694 c -0.499,0.484 -1.1,0.858 -1.804,1.122 -0.704,0.264 -1.481,0.396 -2.332,0.396 -0.997,0 -1.914,-0.139 -2.75,-0.418 -0.821,-0.279 -1.606,-0.763 -2.354,-1.452 l 1.342,-1.672 c 0.513,0.557 1.071,0.975 1.672,1.254 0.601,0.293 1.283,0.44 2.046,0.44 0.733,0 1.342,-0.11 1.826,-0.33 0.484,-0.205 0.865,-0.477 1.144,-0.814 0.293,-0.337 0.499,-0.726 0.616,-1.166 a 4.87,4.87 0 0 0 0.176,-1.298 v -1.54 h -0.066 a 3.534,3.534 0 0 1 -1.562,1.408 4.89,4.89 0 0 1 -2.046,0.44 5.691,5.691 0 0 1 -2.134,-0.396 5.33,5.33 0 0 1 -1.672,-1.122 5.286,5.286 0 0 1 -1.1,-1.694 5.691,5.691 0 0 1 -0.396,-2.134 c 0,-0.763 0.125,-1.474 0.374,-2.134 a 5.304,5.304 0 0 1 1.056,-1.76 4.98,4.98 0 0 1 1.672,-1.166 c 0.66,-0.279 1.393,-0.418 2.2,-0.418 0.704,0 1.386,0.154 2.046,0.462 0.675,0.308 1.203,0.741 1.584,1.298 h 0.044 v -1.496 h 1.98 z m -5.412,-8.756 c -0.528,0 -1.005,0.095 -1.43,0.286 a 2.964,2.964 0 0 0 -1.078,0.748 3.166,3.166 0 0 0 -0.682,1.144 c -0.161,0.44 -0.242,0.924 -0.242,1.452 0,1.056 0.308,1.907 0.924,2.552 0.616,0.631 1.452,0.946 2.508,0.946 1.056,0 1.892,-0.315 2.508,-0.946 0.616,-0.645 0.924,-1.496 0.924,-2.552 0,-0.528 -0.081,-1.012 -0.242,-1.452 a 3.166,3.166 0 0 0 -0.682,-1.144 2.964,2.964 0 0 0 -1.078,-0.748 3.452,3.452 0 0 0 -1.43,-0.286 z m 9.907,4.356 c 0,0.455 0.095,0.873 0.286,1.254 0.205,0.367 0.469,0.682 0.792,0.946 0.323,0.264 0.697,0.469 1.122,0.616 0.425,0.147 0.865,0.22 1.32,0.22 0.616,0 1.151,-0.139 1.606,-0.418 a 5.368,5.368 0 0 0 1.254,-1.144 l 1.496,1.144 c -1.1,1.423 -2.64,2.134 -4.62,2.134 -0.821,0 -1.569,-0.139 -2.244,-0.418 a 5.083,5.083 0 0 1 -1.694,-1.144 5.357,5.357 0 0 1 -1.056,-1.738 6.244,6.244 0 0 1 -0.374,-2.178 c 0,-0.777 0.132,-1.496 0.396,-2.156 a 5.467,5.467 0 0 1 1.122,-1.738 5.16,5.16 0 0 1 1.716,-1.166 5.481,5.481 0 0 1 2.156,-0.418 c 0.924,0 1.701,0.161 2.332,0.484 a 4.556,4.556 0 0 1 1.584,1.276 c 0.411,0.513 0.704,1.1 0.88,1.76 0.191,0.645 0.286,1.305 0.286,1.98 v 0.704 z m 6.248,-1.584 a 3.954,3.954 0 0 0 -0.22,-1.21 2.437,2.437 0 0 0 -0.55,-0.946 2.401,2.401 0 0 0 -0.946,-0.638 c -0.367,-0.161 -0.799,-0.242 -1.298,-0.242 -0.484,0 -0.931,0.095 -1.342,0.286 a 3.14,3.14 0 0 0 -1.012,0.704 3.415,3.415 0 0 0 -0.66,0.99 2.72,2.72 0 0 0 -0.22,1.056 z m 6.043,6.204 a 1.45,1.45 0 0 1 -1.034,-0.418 1.45,1.45 0 0 1 -0.418,-1.034 c 0,-0.396 0.139,-0.733 0.418,-1.012 0.293,-0.293 0.638,-0.44 1.034,-0.44 0.396,0 0.733,0.147 1.012,0.44 0.293,0.279 0.44,0.616 0.44,1.012 0,0.396 -0.147,0.741 -0.44,1.034 a 1.378,1.378 0 0 1 -1.012,0.418 z"
       fill="#000000"
       id="path12" />
    <path
       d="m 64.406,160.872 v 6.282 a 5.81,5.81 0 0 1 -1.062,0.504 9.94,9.94 0 0 1 -1.242,0.36 c -0.42,0.108 -0.852,0.186 -1.296,0.234 -0.432,0.048 -0.84,0.072 -1.224,0.072 -1.08,0 -2.046,-0.18 -2.898,-0.54 a 6.455,6.455 0 0 1 -2.142,-1.458 6.494,6.494 0 0 1 -1.332,-2.124 7.4,7.4 0 0 1 -0.45,-2.574 c 0,-0.948 0.162,-1.83 0.486,-2.646 a 6.733,6.733 0 0 1 1.368,-2.124 6.233,6.233 0 0 1 2.106,-1.404 c 0.816,-0.348 1.71,-0.522 2.682,-0.522 1.176,0 2.136,0.15 2.88,0.45 0.744,0.288 1.368,0.69 1.872,1.206 l -1.224,1.314 c -0.528,-0.504 -1.086,-0.852 -1.674,-1.044 a 5.616,5.616 0 0 0 -1.854,-0.306 c -0.732,0 -1.392,0.138 -1.98,0.414 a 4.58,4.58 0 0 0 -1.512,1.08 c -0.42,0.456 -0.744,0.996 -0.972,1.62 a 5.574,5.574 0 0 0 -0.342,1.962 c 0,0.72 0.126,1.392 0.378,2.016 a 5,5 0 0 0 1.044,1.602 c 0.444,0.456 0.966,0.816 1.566,1.08 0.6,0.252 1.254,0.378 1.962,0.378 0.612,0 1.188,-0.054 1.728,-0.162 0.552,-0.12 1.02,-0.288 1.404,-0.504 v -3.546 h -2.826 v -1.62 z m 2.868,-6.48 h 1.62 V 168 h -1.62 z m 5.512,9.342 c 0,0.432 0.066,0.834 0.198,1.206 0.132,0.36 0.318,0.672 0.558,0.936 0.24,0.252 0.534,0.456 0.882,0.612 0.348,0.144 0.738,0.216 1.17,0.216 0.432,0 0.822,-0.072 1.17,-0.216 a 2.76,2.76 0 0 0 0.882,-0.612 c 0.24,-0.264 0.426,-0.576 0.558,-0.936 0.132,-0.372 0.198,-0.774 0.198,-1.206 0,-0.432 -0.066,-0.828 -0.198,-1.188 a 2.593,2.593 0 0 0 -0.558,-0.936 2.428,2.428 0 0 0 -0.882,-0.612 2.83,2.83 0 0 0 -1.17,-0.234 2.83,2.83 0 0 0 -1.17,0.234 2.428,2.428 0 0 0 -0.882,0.612 c -0.24,0.252 -0.426,0.564 -0.558,0.936 -0.132,0.36 -0.198,0.756 -0.198,1.188 z m -1.728,0 c 0,-0.624 0.114,-1.206 0.342,-1.746 0.24,-0.54 0.564,-1.014 0.972,-1.422 a 4.375,4.375 0 0 1 1.44,-0.954 4.42,4.42 0 0 1 1.782,-0.36 c 0.636,0 1.23,0.12 1.782,0.36 a 4.375,4.375 0 0 1 2.394,2.376 c 0.24,0.54 0.36,1.122 0.36,1.746 0,0.624 -0.12,1.212 -0.36,1.764 a 4.424,4.424 0 0 1 -0.954,1.422 4.784,4.784 0 0 1 -1.44,0.954 4.622,4.622 0 0 1 -1.782,0.342 c -0.636,0 -1.23,-0.114 -1.782,-0.342 a 4.784,4.784 0 0 1 -1.44,-0.954 4.679,4.679 0 0 1 -0.972,-1.422 4.575,4.575 0 0 1 -0.342,-1.764 z m 11.101,-9.342 h 1.62 v 6.3 h 0.037 c 0.287,-0.444 0.701,-0.792 1.242,-1.044 a 3.883,3.883 0 0 1 1.727,-0.396 c 0.66,0 1.255,0.114 1.782,0.342 0.54,0.228 0.997,0.546 1.369,0.954 0.383,0.396 0.677,0.87 0.881,1.422 0.205,0.54 0.307,1.128 0.307,1.764 0,0.636 -0.102,1.224 -0.306,1.764 a 4.235,4.235 0 0 1 -0.882,1.422 3.849,3.849 0 0 1 -1.369,0.954 c -0.527,0.228 -1.121,0.342 -1.781,0.342 -0.576,0 -1.14,-0.126 -1.692,-0.378 a 3.097,3.097 0 0 1 -1.278,-1.062 H 83.779 V 168 h -1.62 z m 4.428,12.312 c 0.432,0 0.822,-0.072 1.17,-0.216 a 2.76,2.76 0 0 0 0.882,-0.612 c 0.24,-0.264 0.427,-0.576 0.559,-0.936 0.132,-0.372 0.198,-0.774 0.198,-1.206 0,-0.432 -0.067,-0.828 -0.198,-1.188 a 2.593,2.593 0 0 0 -0.558,-0.936 2.428,2.428 0 0 0 -0.883,-0.612 2.83,2.83 0 0 0 -1.17,-0.234 2.83,2.83 0 0 0 -1.17,0.234 2.428,2.428 0 0 0 -0.882,0.612 c -0.24,0.252 -0.425,0.564 -0.557,0.936 -0.132,0.36 -0.198,0.756 -0.198,1.188 0,0.432 0.066,0.834 0.198,1.206 0.132,0.36 0.318,0.672 0.558,0.936 0.24,0.252 0.534,0.456 0.882,0.612 0.347,0.144 0.737,0.216 1.17,0.216 z m 6.612,-6.192 c 0.457,-0.42 0.984,-0.732 1.585,-0.936 0.6,-0.216 1.2,-0.324 1.8,-0.324 0.623,0 1.157,0.078 1.602,0.234 0.455,0.156 0.827,0.366 1.115,0.63 0.288,0.264 0.498,0.57 0.63,0.918 0.144,0.336 0.216,0.69 0.216,1.062 v 4.356 c 0,0.3 0.006,0.576 0.018,0.828 0.012,0.252 0.03,0.492 0.054,0.72 h -1.44 a 15.6,15.6 0 0 1 -0.053,-1.296 h -0.037 c -0.36,0.552 -0.785,0.942 -1.277,1.17 -0.493,0.228 -1.063,0.342 -1.71,0.342 -0.397,0 -0.775,-0.054 -1.135,-0.162 a 2.868,2.868 0 0 1 -0.953,-0.486 2.393,2.393 0 0 1 -0.63,-0.792 2.542,2.542 0 0 1 -0.234,-1.116 c 0,-0.552 0.12,-1.014 0.36,-1.386 a 2.816,2.816 0 0 1 1.008,-0.9 c 0.431,-0.24 0.93,-0.408 1.494,-0.504 a 9.956,9.956 0 0 1 1.836,-0.162 h 1.188 v -0.36 c 0,-0.216 -0.042,-0.432 -0.126,-0.648 a 1.657,1.657 0 0 0 -0.379,-0.576 1.65,1.65 0 0 0 -0.63,-0.414 2.275,2.275 0 0 0 -0.9,-0.162 c -0.311,0 -0.588,0.03 -0.828,0.09 a 3.26,3.26 0 0 0 -0.63,0.234 2.486,2.486 0 0 0 -0.522,0.306 c -0.155,0.12 -0.305,0.234 -0.45,0.342 z m 4.573,3.384 c -0.385,0 -0.78,0.024 -1.189,0.072 a 4.453,4.453 0 0 0 -1.097,0.234 c -0.325,0.12 -0.595,0.288 -0.81,0.504 -0.204,0.216 -0.306,0.492 -0.306,0.828 0,0.492 0.161,0.846 0.486,1.062 0.336,0.216 0.785,0.324 1.35,0.324 0.444,0 0.822,-0.072 1.133,-0.216 a 2.222,2.222 0 0 0 1.17,-1.386 c 0.085,-0.3 0.126,-0.594 0.126,-0.882 v -0.54 h -0.864 z m 4.851,-9.504 h 1.62 V 168 h -1.62 z m 18.496,3.618 a 3.564,3.564 0 0 0 -1.368,-1.08 4.075,4.075 0 0 0 -1.71,-0.378 c -0.72,0 -1.374,0.138 -1.962,0.414 a 4.51,4.51 0 0 0 -1.494,1.098 5.119,5.119 0 0 0 -0.954,1.656 5.83,5.83 0 0 0 -0.342,2.016 c 0,0.672 0.108,1.308 0.324,1.908 0.216,0.6 0.528,1.128 0.936,1.584 0.408,0.456 0.906,0.816 1.494,1.08 0.588,0.264 1.254,0.396 1.998,0.396 0.732,0 1.374,-0.15 1.926,-0.45 0.552,-0.3 1.02,-0.72 1.404,-1.26 l 1.458,1.098 a 6.44,6.44 0 0 1 -0.504,0.576 5.62,5.62 0 0 1 -0.954,0.738 6.73,6.73 0 0 1 -1.44,0.63 c -0.552,0.192 -1.194,0.288 -1.926,0.288 -1.008,0 -1.92,-0.192 -2.736,-0.576 a 6.733,6.733 0 0 1 -2.07,-1.512 6.706,6.706 0 0 1 -1.296,-2.106 c -0.3,-0.792 -0.45,-1.59 -0.45,-2.394 0,-0.984 0.162,-1.89 0.486,-2.718 0.324,-0.84 0.774,-1.56 1.35,-2.16 a 6.107,6.107 0 0 1 2.106,-1.422 c 0.816,-0.336 1.716,-0.504 2.7,-0.504 0.84,0 1.662,0.162 2.466,0.486 a 4.612,4.612 0 0 1 1.998,1.494 z m 4.7,5.724 c 0,0.432 0.066,0.834 0.198,1.206 0.132,0.36 0.318,0.672 0.558,0.936 0.24,0.252 0.534,0.456 0.882,0.612 0.348,0.144 0.738,0.216 1.17,0.216 0.432,0 0.822,-0.072 1.17,-0.216 a 2.76,2.76 0 0 0 0.882,-0.612 c 0.24,-0.264 0.426,-0.576 0.558,-0.936 0.132,-0.372 0.198,-0.774 0.198,-1.206 0,-0.432 -0.066,-0.828 -0.198,-1.188 a 2.593,2.593 0 0 0 -0.558,-0.936 2.428,2.428 0 0 0 -0.882,-0.612 2.83,2.83 0 0 0 -1.17,-0.234 2.83,2.83 0 0 0 -1.17,0.234 2.428,2.428 0 0 0 -0.882,0.612 c -0.24,0.252 -0.426,0.564 -0.558,0.936 -0.132,0.36 -0.198,0.756 -0.198,1.188 z m -1.728,0 c 0,-0.624 0.114,-1.206 0.342,-1.746 0.24,-0.54 0.564,-1.014 0.972,-1.422 a 4.375,4.375 0 0 1 1.44,-0.954 4.42,4.42 0 0 1 1.782,-0.36 c 0.636,0 1.23,0.12 1.782,0.36 a 4.375,4.375 0 0 1 2.394,2.376 c 0.24,0.54 0.36,1.122 0.36,1.746 0,0.624 -0.12,1.212 -0.36,1.764 a 4.424,4.424 0 0 1 -0.954,1.422 4.784,4.784 0 0 1 -1.44,0.954 4.622,4.622 0 0 1 -1.782,0.342 c -0.636,0 -1.23,-0.114 -1.782,-0.342 a 4.784,4.784 0 0 1 -1.44,-0.954 4.679,4.679 0 0 1 -0.972,-1.422 4.575,4.575 0 0 1 -0.342,-1.764 z m 11.102,-4.266 h 1.512 v 1.332 h 0.036 c 0.036,-0.12 0.126,-0.27 0.27,-0.45 a 3.34,3.34 0 0 1 1.404,-0.918 c 0.324,-0.12 0.678,-0.18 1.062,-0.18 0.636,0 1.17,0.132 1.602,0.396 0.432,0.264 0.786,0.66 1.062,1.188 a 2.73,2.73 0 0 1 1.17,-1.188 3.266,3.266 0 0 1 1.53,-0.396 c 0.66,0 1.2,0.108 1.62,0.324 0.42,0.216 0.75,0.504 0.99,0.864 0.24,0.348 0.402,0.75 0.486,1.206 0.096,0.444 0.144,0.906 0.144,1.386 V 168 h -1.62 v -4.752 c 0,-0.324 -0.024,-0.636 -0.072,-0.936 a 2.05,2.05 0 0 0 -0.252,-0.792 1.422,1.422 0 0 0 -0.558,-0.54 c -0.24,-0.144 -0.558,-0.216 -0.954,-0.216 -0.78,0 -1.338,0.24 -1.674,0.72 -0.336,0.48 -0.504,1.098 -0.504,1.854 V 168 h -1.62 v -4.464 c 0,-0.408 -0.024,-0.78 -0.072,-1.116 a 2.284,2.284 0 0 0 -0.252,-0.864 c -0.12,-0.252 -0.3,-0.444 -0.54,-0.576 -0.228,-0.144 -0.54,-0.216 -0.936,-0.216 -0.288,0 -0.57,0.06 -0.846,0.18 a 1.903,1.903 0 0 0 -0.702,0.504 2.48,2.48 0 0 0 -0.486,0.882 c -0.12,0.348 -0.18,0.762 -0.18,1.242 V 168 h -1.62 z m 15.328,0 h 1.512 v 1.332 h 0.036 c 0.036,-0.12 0.126,-0.27 0.27,-0.45 a 3.34,3.34 0 0 1 1.404,-0.918 c 0.324,-0.12 0.678,-0.18 1.062,-0.18 0.636,0 1.17,0.132 1.602,0.396 0.432,0.264 0.786,0.66 1.062,1.188 a 2.73,2.73 0 0 1 1.17,-1.188 3.266,3.266 0 0 1 1.53,-0.396 c 0.66,0 1.2,0.108 1.62,0.324 0.42,0.216 0.75,0.504 0.99,0.864 0.24,0.348 0.402,0.75 0.486,1.206 0.096,0.444 0.144,0.906 0.144,1.386 V 168 h -1.62 v -4.752 c 0,-0.324 -0.024,-0.636 -0.072,-0.936 a 2.05,2.05 0 0 0 -0.252,-0.792 1.422,1.422 0 0 0 -0.558,-0.54 c -0.24,-0.144 -0.558,-0.216 -0.954,-0.216 -0.78,0 -1.338,0.24 -1.674,0.72 -0.336,0.48 -0.504,1.098 -0.504,1.854 V 168 h -1.62 v -4.464 c 0,-0.408 -0.024,-0.78 -0.072,-1.116 a 2.284,2.284 0 0 0 -0.252,-0.864 c -0.12,-0.252 -0.3,-0.444 -0.54,-0.576 -0.228,-0.144 -0.54,-0.216 -0.936,-0.216 -0.288,0 -0.57,0.06 -0.846,0.18 a 1.903,1.903 0 0 0 -0.702,0.504 2.48,2.48 0 0 0 -0.486,0.882 c -0.12,0.348 -0.18,0.762 -0.18,1.242 V 168 h -1.62 z M 173.409,168 h -1.62 v -1.314 h -0.036 c -0.204,0.456 -0.558,0.828 -1.062,1.116 -0.504,0.276 -1.086,0.414 -1.746,0.414 -0.42,0 -0.816,-0.066 -1.188,-0.198 a 2.654,2.654 0 0 1 -0.99,-0.576 2.898,2.898 0 0 1 -0.666,-1.008 c -0.168,-0.42 -0.252,-0.912 -0.252,-1.476 v -5.49 h 1.62 v 5.04 c 0,0.396 0.054,0.738 0.162,1.026 0.108,0.276 0.252,0.504 0.432,0.684 0.18,0.168 0.384,0.294 0.612,0.378 0.24,0.072 0.486,0.108 0.738,0.108 0.336,0 0.648,-0.054 0.936,-0.162 0.288,-0.108 0.54,-0.276 0.756,-0.504 0.216,-0.24 0.384,-0.54 0.504,-0.9 0.12,-0.36 0.18,-0.786 0.18,-1.278 v -4.392 h 1.62 V 168 Z m 2.442,-8.532 h 1.62 v 1.314 h 0.036 c 0.204,-0.456 0.558,-0.822 1.062,-1.098 0.504,-0.288 1.086,-0.432 1.746,-0.432 0.408,0 0.798,0.066 1.17,0.198 0.384,0.12 0.714,0.312 0.99,0.576 0.288,0.264 0.516,0.606 0.684,1.026 0.168,0.408 0.252,0.894 0.252,1.458 V 168 h -1.62 v -5.04 c 0,-0.396 -0.054,-0.732 -0.162,-1.008 a 1.764,1.764 0 0 0 -0.432,-0.684 1.48,1.48 0 0 0 -0.63,-0.378 2.066,2.066 0 0 0 -0.72,-0.126 c -0.336,0 -0.648,0.054 -0.936,0.162 a 1.91,1.91 0 0 0 -0.756,0.522 2.333,2.333 0 0 0 -0.504,0.882 c -0.12,0.36 -0.18,0.786 -0.18,1.278 V 168 h -1.62 z m 10.128,0 h 1.62 V 168 h -1.62 z m -0.378,-3.06 c 0,-0.324 0.114,-0.6 0.342,-0.828 0.24,-0.24 0.522,-0.36 0.846,-0.36 0.324,0 0.6,0.12 0.828,0.36 0.24,0.228 0.36,0.504 0.36,0.828 0,0.324 -0.12,0.606 -0.36,0.846 a 1.128,1.128 0 0 1 -0.828,0.342 c -0.324,0 -0.606,-0.114 -0.846,-0.342 a 1.188,1.188 0 0 1 -0.342,-0.846 z m 9.148,4.464 h -2.322 v 3.87 c 0,0.24 0.006,0.48 0.018,0.72 0.012,0.228 0.054,0.438 0.126,0.63 0.084,0.18 0.204,0.33 0.36,0.45 0.168,0.108 0.408,0.162 0.72,0.162 0.192,0 0.39,-0.018 0.594,-0.054 0.204,-0.036 0.39,-0.102 0.558,-0.198 v 1.476 c -0.192,0.108 -0.444,0.18 -0.756,0.216 -0.3,0.048 -0.534,0.072 -0.702,0.072 -0.624,0 -1.11,-0.084 -1.458,-0.252 -0.336,-0.18 -0.588,-0.408 -0.756,-0.684 a 2.354,2.354 0 0 1 -0.288,-0.918 15.17,15.17 0 0 1 -0.036,-1.044 v -4.446 h -1.872 v -1.404 h 1.872 v -2.394 h 1.62 v 2.394 h 2.322 z m 1.064,-1.404 h 1.872 l 2.538,6.66 h 0.036 l 2.412,-6.66 h 1.746 l -4.05,10.368 c -0.144,0.372 -0.294,0.708 -0.45,1.008 a 3.015,3.015 0 0 1 -0.558,0.792 2.24,2.24 0 0 1 -0.792,0.504 c -0.3,0.12 -0.672,0.18 -1.116,0.18 -0.24,0 -0.486,-0.018 -0.738,-0.054 a 2.42,2.42 0 0 1 -0.702,-0.18 l 0.198,-1.476 c 0.324,0.132 0.648,0.198 0.972,0.198 0.252,0 0.462,-0.036 0.63,-0.108 0.18,-0.06 0.33,-0.156 0.45,-0.288 0.132,-0.12 0.24,-0.264 0.324,-0.432 0.084,-0.168 0.168,-0.36 0.252,-0.576 l 0.522,-1.35 z m 22.812,4.86 h -9 v -1.404 h 9 z m 6.648,-9.072 h 2.268 l 7.02,10.476 h 0.036 v -10.476 h 1.728 V 168 h -2.196 l -7.092,-10.476 h -0.036 V 168 h -1.728 z m 15.226,8.478 c 0,0.432 0.066,0.834 0.198,1.206 0.132,0.36 0.318,0.672 0.558,0.936 0.24,0.252 0.534,0.456 0.882,0.612 0.348,0.144 0.738,0.216 1.17,0.216 0.432,0 0.822,-0.072 1.17,-0.216 a 2.76,2.76 0 0 0 0.882,-0.612 c 0.24,-0.264 0.426,-0.576 0.558,-0.936 0.132,-0.372 0.198,-0.774 0.198,-1.206 0,-0.432 -0.066,-0.828 -0.198,-1.188 a 2.593,2.593 0 0 0 -0.558,-0.936 2.428,2.428 0 0 0 -0.882,-0.612 2.83,2.83 0 0 0 -1.17,-0.234 2.83,2.83 0 0 0 -1.17,0.234 2.428,2.428 0 0 0 -0.882,0.612 c -0.24,0.252 -0.426,0.564 -0.558,0.936 -0.132,0.36 -0.198,0.756 -0.198,1.188 z m -1.728,0 c 0,-0.624 0.114,-1.206 0.342,-1.746 0.24,-0.54 0.564,-1.014 0.972,-1.422 a 4.375,4.375 0 0 1 1.44,-0.954 4.42,4.42 0 0 1 1.782,-0.36 c 0.636,0 1.23,0.12 1.782,0.36 a 4.375,4.375 0 0 1 2.394,2.376 c 0.24,0.54 0.36,1.122 0.36,1.746 0,0.624 -0.12,1.212 -0.36,1.764 a 4.424,4.424 0 0 1 -0.954,1.422 4.784,4.784 0 0 1 -1.44,0.954 4.622,4.622 0 0 1 -1.782,0.342 c -0.636,0 -1.23,-0.114 -1.782,-0.342 a 4.784,4.784 0 0 1 -1.44,-0.954 4.679,4.679 0 0 1 -0.972,-1.422 4.575,4.575 0 0 1 -0.342,-1.764 z m 25.399,-5.724 a 3.564,3.564 0 0 0 -1.368,-1.08 4.075,4.075 0 0 0 -1.71,-0.378 c -0.72,0 -1.374,0.138 -1.962,0.414 a 4.51,4.51 0 0 0 -1.494,1.098 5.119,5.119 0 0 0 -0.954,1.656 5.83,5.83 0 0 0 -0.342,2.016 c 0,0.672 0.108,1.308 0.324,1.908 0.216,0.6 0.528,1.128 0.936,1.584 0.408,0.456 0.906,0.816 1.494,1.08 0.588,0.264 1.254,0.396 1.998,0.396 0.732,0 1.374,-0.15 1.926,-0.45 0.552,-0.3 1.02,-0.72 1.404,-1.26 l 1.458,1.098 a 6.44,6.44 0 0 1 -0.504,0.576 5.62,5.62 0 0 1 -0.954,0.738 6.73,6.73 0 0 1 -1.44,0.63 c -0.552,0.192 -1.194,0.288 -1.926,0.288 -1.008,0 -1.92,-0.192 -2.736,-0.576 a 6.733,6.733 0 0 1 -2.07,-1.512 6.706,6.706 0 0 1 -1.296,-2.106 c -0.3,-0.792 -0.45,-1.59 -0.45,-2.394 0,-0.984 0.162,-1.89 0.486,-2.718 0.324,-0.84 0.774,-1.56 1.35,-2.16 a 6.107,6.107 0 0 1 2.106,-1.422 c 0.816,-0.336 1.716,-0.504 2.7,-0.504 0.84,0 1.662,0.162 2.466,0.486 a 4.612,4.612 0 0 1 1.998,1.494 z m 3.386,1.458 h 1.62 v 1.314 h 0.036 c 0.108,-0.228 0.252,-0.432 0.432,-0.612 0.18,-0.192 0.378,-0.354 0.594,-0.486 0.228,-0.132 0.474,-0.234 0.738,-0.306 a 2.6,2.6 0 0 1 0.792,-0.126 c 0.264,0 0.504,0.036 0.72,0.108 l -0.072,1.746 a 4.7,4.7 0 0 0 -0.396,-0.09 2.21,2.21 0 0 0 -0.396,-0.036 c -0.792,0 -1.398,0.222 -1.818,0.666 -0.42,0.444 -0.63,1.134 -0.63,2.07 V 168 h -1.62 z m 7.57,4.86 c 0,0.372 0.078,0.714 0.234,1.026 0.168,0.3 0.384,0.558 0.648,0.774 0.264,0.216 0.57,0.384 0.918,0.504 0.348,0.12 0.708,0.18 1.08,0.18 0.504,0 0.942,-0.114 1.314,-0.342 0.372,-0.24 0.714,-0.552 1.026,-0.936 l 1.224,0.936 c -0.9,1.164 -2.16,1.746 -3.78,1.746 a 4.766,4.766 0 0 1 -1.836,-0.342 4.157,4.157 0 0 1 -1.386,-0.936 4.39,4.39 0 0 1 -0.864,-1.422 5.1,5.1 0 0 1 -0.306,-1.782 c 0,-0.636 0.108,-1.224 0.324,-1.764 a 4.466,4.466 0 0 1 0.918,-1.422 4.222,4.222 0 0 1 1.404,-0.954 4.489,4.489 0 0 1 1.764,-0.342 c 0.756,0 1.392,0.132 1.908,0.396 0.528,0.264 0.96,0.612 1.296,1.044 0.336,0.42 0.576,0.9 0.72,1.44 0.156,0.528 0.234,1.068 0.234,1.62 v 0.576 z m 5.112,-1.296 a 3.225,3.225 0 0 0 -0.18,-0.99 1.996,1.996 0 0 0 -0.45,-0.774 1.965,1.965 0 0 0 -0.774,-0.522 c -0.3,-0.132 -0.654,-0.198 -1.062,-0.198 -0.396,0 -0.762,0.078 -1.098,0.234 -0.324,0.144 -0.6,0.336 -0.828,0.576 -0.228,0.24 -0.408,0.51 -0.54,0.81 -0.12,0.288 -0.18,0.576 -0.18,0.864 z M 292.454,168 h -1.62 v -1.224 h -0.036 c -0.312,0.456 -0.744,0.81 -1.296,1.062 a 3.916,3.916 0 0 1 -1.674,0.378 c -0.66,0 -1.26,-0.114 -1.8,-0.342 a 4.074,4.074 0 0 1 -1.368,-0.954 4.39,4.39 0 0 1 -0.864,-1.422 4.952,4.952 0 0 1 -0.306,-1.764 c 0,-0.636 0.102,-1.224 0.306,-1.764 a 4.15,4.15 0 0 1 0.864,-1.422 c 0.384,-0.408 0.84,-0.726 1.368,-0.954 a 4.583,4.583 0 0 1 1.8,-0.342 c 0.612,0 1.188,0.132 1.728,0.396 0.54,0.252 0.954,0.6 1.242,1.044 h 0.036 v -6.3 h 1.62 V 168 Z m -4.428,-1.296 c 0.432,0 0.822,-0.072 1.17,-0.216 a 2.76,2.76 0 0 0 0.882,-0.612 c 0.24,-0.264 0.426,-0.576 0.558,-0.936 0.132,-0.372 0.198,-0.774 0.198,-1.206 0,-0.432 -0.066,-0.828 -0.198,-1.188 a 2.593,2.593 0 0 0 -0.558,-0.936 2.428,2.428 0 0 0 -0.882,-0.612 2.83,2.83 0 0 0 -1.17,-0.234 2.83,2.83 0 0 0 -1.17,0.234 2.428,2.428 0 0 0 -0.882,0.612 c -0.24,0.252 -0.426,0.564 -0.558,0.936 -0.132,0.36 -0.198,0.756 -0.198,1.188 0,0.432 0.066,0.834 0.198,1.206 0.132,0.36 0.318,0.672 0.558,0.936 0.24,0.252 0.534,0.456 0.882,0.612 0.348,0.144 0.738,0.216 1.17,0.216 z m 7.008,-7.236 h 1.62 V 168 h -1.62 z m -0.378,-3.06 c 0,-0.324 0.114,-0.6 0.342,-0.828 0.24,-0.24 0.522,-0.36 0.846,-0.36 0.324,0 0.6,0.12 0.828,0.36 0.24,0.228 0.36,0.504 0.36,0.828 0,0.324 -0.12,0.606 -0.36,0.846 a 1.128,1.128 0 0 1 -0.828,0.342 c -0.324,0 -0.606,-0.114 -0.846,-0.342 a 1.188,1.188 0 0 1 -0.342,-0.846 z m 9.148,4.464 h -2.322 v 3.87 c 0,0.24 0.006,0.48 0.018,0.72 0.012,0.228 0.054,0.438 0.126,0.63 0.084,0.18 0.204,0.33 0.36,0.45 0.168,0.108 0.408,0.162 0.72,0.162 0.192,0 0.39,-0.018 0.594,-0.054 0.204,-0.036 0.39,-0.102 0.558,-0.198 v 1.476 c -0.192,0.108 -0.444,0.18 -0.756,0.216 -0.3,0.048 -0.534,0.072 -0.702,0.072 -0.624,0 -1.11,-0.084 -1.458,-0.252 -0.336,-0.18 -0.588,-0.408 -0.756,-0.684 a 2.354,2.354 0 0 1 -0.288,-0.918 15.17,15.17 0 0 1 -0.036,-1.044 v -4.446 h -1.872 v -1.404 h 1.872 v -2.394 h 1.62 v 2.394 h 2.322 z m 16.388,-2.862 a 3.564,3.564 0 0 0 -1.368,-1.08 4.075,4.075 0 0 0 -1.71,-0.378 c -0.72,0 -1.374,0.138 -1.962,0.414 a 4.51,4.51 0 0 0 -1.494,1.098 5.119,5.119 0 0 0 -0.954,1.656 5.83,5.83 0 0 0 -0.342,2.016 c 0,0.672 0.108,1.308 0.324,1.908 0.216,0.6 0.528,1.128 0.936,1.584 0.408,0.456 0.906,0.816 1.494,1.08 0.588,0.264 1.254,0.396 1.998,0.396 0.732,0 1.374,-0.15 1.926,-0.45 0.552,-0.3 1.02,-0.72 1.404,-1.26 l 1.458,1.098 a 6.44,6.44 0 0 1 -0.504,0.576 5.62,5.62 0 0 1 -0.954,0.738 6.73,6.73 0 0 1 -1.44,0.63 c -0.552,0.192 -1.194,0.288 -1.926,0.288 -1.008,0 -1.92,-0.192 -2.736,-0.576 a 6.733,6.733 0 0 1 -2.07,-1.512 6.706,6.706 0 0 1 -1.296,-2.106 c -0.3,-0.792 -0.45,-1.59 -0.45,-2.394 0,-0.984 0.162,-1.89 0.486,-2.718 0.324,-0.84 0.774,-1.56 1.35,-2.16 a 6.107,6.107 0 0 1 2.106,-1.422 c 0.816,-0.336 1.716,-0.504 2.7,-0.504 0.84,0 1.662,0.162 2.466,0.486 a 4.612,4.612 0 0 1 1.998,1.494 z m 3.422,2.502 c 0.456,-0.42 0.984,-0.732 1.584,-0.936 0.6,-0.216 1.2,-0.324 1.8,-0.324 0.624,0 1.158,0.078 1.602,0.234 0.456,0.156 0.828,0.366 1.116,0.63 0.288,0.264 0.498,0.57 0.63,0.918 0.144,0.336 0.216,0.69 0.216,1.062 v 4.356 c 0,0.3 0.006,0.576 0.018,0.828 0.012,0.252 0.03,0.492 0.054,0.72 h -1.44 a 15.6,15.6 0 0 1 -0.054,-1.296 h -0.036 c -0.36,0.552 -0.786,0.942 -1.278,1.17 -0.492,0.228 -1.062,0.342 -1.71,0.342 -0.396,0 -0.774,-0.054 -1.134,-0.162 a 2.868,2.868 0 0 1 -0.954,-0.486 2.393,2.393 0 0 1 -0.63,-0.792 2.542,2.542 0 0 1 -0.234,-1.116 c 0,-0.552 0.12,-1.014 0.36,-1.386 a 2.816,2.816 0 0 1 1.008,-0.9 c 0.432,-0.24 0.93,-0.408 1.494,-0.504 a 9.956,9.956 0 0 1 1.836,-0.162 h 1.188 v -0.36 c 0,-0.216 -0.042,-0.432 -0.126,-0.648 a 1.657,1.657 0 0 0 -0.378,-0.576 1.65,1.65 0 0 0 -0.63,-0.414 2.275,2.275 0 0 0 -0.9,-0.162 c -0.312,0 -0.588,0.03 -0.828,0.09 a 3.26,3.26 0 0 0 -0.63,0.234 2.486,2.486 0 0 0 -0.522,0.306 c -0.156,0.12 -0.306,0.234 -0.45,0.342 z m 4.572,3.384 c -0.384,0 -0.78,0.024 -1.188,0.072 a 4.453,4.453 0 0 0 -1.098,0.234 c -0.324,0.12 -0.594,0.288 -0.81,0.504 -0.204,0.216 -0.306,0.492 -0.306,0.828 0,0.492 0.162,0.846 0.486,1.062 0.336,0.216 0.786,0.324 1.35,0.324 0.444,0 0.822,-0.072 1.134,-0.216 a 2.222,2.222 0 0 0 1.17,-1.386 c 0.084,-0.3 0.126,-0.594 0.126,-0.882 v -0.54 z m 4.726,-4.428 h 1.62 v 1.314 h 0.036 c 0.108,-0.228 0.252,-0.432 0.432,-0.612 0.18,-0.192 0.378,-0.354 0.594,-0.486 0.228,-0.132 0.474,-0.234 0.738,-0.306 a 2.6,2.6 0 0 1 0.792,-0.126 c 0.264,0 0.504,0.036 0.72,0.108 l -0.072,1.746 a 4.7,4.7 0 0 0 -0.396,-0.09 2.212,2.212 0 0 0 -0.397,-0.036 c -0.791,0 -1.397,0.222 -1.817,0.666 -0.42,0.444 -0.63,1.134 -0.63,2.07 V 168 h -1.62 z M 347.807,168 h -1.62 v -1.224 h -0.036 c -0.312,0.456 -0.744,0.81 -1.296,1.062 a 3.916,3.916 0 0 1 -1.674,0.378 c -0.66,0 -1.26,-0.114 -1.8,-0.342 a 4.074,4.074 0 0 1 -1.368,-0.954 4.39,4.39 0 0 1 -0.864,-1.422 4.952,4.952 0 0 1 -0.306,-1.764 c 0,-0.636 0.102,-1.224 0.306,-1.764 a 4.15,4.15 0 0 1 0.864,-1.422 c 0.384,-0.408 0.84,-0.726 1.368,-0.954 a 4.583,4.583 0 0 1 1.8,-0.342 c 0.612,0 1.188,0.132 1.728,0.396 0.54,0.252 0.954,0.6 1.242,1.044 h 0.036 v -6.3 h 1.62 V 168 Z m -4.428,-1.296 c 0.432,0 0.822,-0.072 1.17,-0.216 a 2.76,2.76 0 0 0 0.882,-0.612 c 0.24,-0.264 0.426,-0.576 0.558,-0.936 0.132,-0.372 0.198,-0.774 0.198,-1.206 0,-0.432 -0.066,-0.828 -0.198,-1.188 a 2.593,2.593 0 0 0 -0.558,-0.936 2.428,2.428 0 0 0 -0.882,-0.612 2.83,2.83 0 0 0 -1.17,-0.234 2.83,2.83 0 0 0 -1.17,0.234 2.428,2.428 0 0 0 -0.882,0.612 c -0.24,0.252 -0.426,0.564 -0.558,0.936 -0.132,0.36 -0.198,0.756 -0.198,1.188 0,0.432 0.066,0.834 0.198,1.206 0.132,0.36 0.318,0.672 0.558,0.936 0.24,0.252 0.534,0.456 0.882,0.612 0.348,0.144 0.738,0.216 1.17,0.216 z m 11.892,-7.236 h 1.62 v 1.314 h 0.036 c 0.108,-0.228 0.252,-0.432 0.432,-0.612 0.18,-0.192 0.378,-0.354 0.594,-0.486 0.228,-0.132 0.474,-0.234 0.738,-0.306 a 2.6,2.6 0 0 1 0.792,-0.126 c 0.264,0 0.504,0.036 0.72,0.108 l -0.072,1.746 a 4.7,4.7 0 0 0 -0.396,-0.09 2.21,2.21 0 0 0 -0.396,-0.036 c -0.792,0 -1.398,0.222 -1.818,0.666 -0.42,0.444 -0.63,1.134 -0.63,2.07 V 168 h -1.62 z m 7.57,4.86 c 0,0.372 0.078,0.714 0.234,1.026 0.168,0.3 0.384,0.558 0.648,0.774 0.264,0.216 0.57,0.384 0.918,0.504 0.348,0.12 0.708,0.18 1.08,0.18 0.504,0 0.942,-0.114 1.314,-0.342 0.372,-0.24 0.714,-0.552 1.026,-0.936 l 1.224,0.936 c -0.9,1.164 -2.16,1.746 -3.78,1.746 a 4.766,4.766 0 0 1 -1.836,-0.342 4.157,4.157 0 0 1 -1.386,-0.936 4.39,4.39 0 0 1 -0.864,-1.422 5.1,5.1 0 0 1 -0.306,-1.782 c 0,-0.636 0.108,-1.224 0.324,-1.764 a 4.466,4.466 0 0 1 0.918,-1.422 4.222,4.222 0 0 1 1.404,-0.954 4.489,4.489 0 0 1 1.764,-0.342 c 0.756,0 1.392,0.132 1.908,0.396 0.528,0.264 0.96,0.612 1.296,1.044 0.336,0.42 0.576,0.9 0.72,1.44 0.156,0.528 0.234,1.068 0.234,1.62 v 0.576 z m 5.112,-1.296 a 3.225,3.225 0 0 0 -0.18,-0.99 1.996,1.996 0 0 0 -0.45,-0.774 1.965,1.965 0 0 0 -0.774,-0.522 c -0.3,-0.132 -0.654,-0.198 -1.062,-0.198 -0.396,0 -0.762,0.078 -1.098,0.234 -0.324,0.144 -0.6,0.336 -0.828,0.576 -0.228,0.24 -0.408,0.51 -0.54,0.81 -0.12,0.288 -0.18,0.576 -0.18,0.864 z m 12.216,9.072 h -1.62 v -5.328 h -0.036 c -0.288,0.444 -0.702,0.798 -1.242,1.062 a 4.036,4.036 0 0 1 -1.728,0.378 c -0.66,0 -1.26,-0.114 -1.8,-0.342 a 4.204,4.204 0 0 1 -1.368,-0.936 4.39,4.39 0 0 1 -0.864,-1.422 5.1,5.1 0 0 1 -0.306,-1.782 4.9,4.9 0 0 1 0.306,-1.746 4.349,4.349 0 0 1 0.864,-1.44 c 0.384,-0.408 0.84,-0.726 1.368,-0.954 a 4.583,4.583 0 0 1 1.8,-0.342 c 0.576,0 1.134,0.126 1.674,0.378 0.552,0.252 0.984,0.606 1.296,1.062 h 0.036 v -1.224 h 1.62 z m -4.428,-11.34 a 2.83,2.83 0 0 0 -1.17,0.234 2.428,2.428 0 0 0 -0.882,0.612 c -0.24,0.252 -0.426,0.564 -0.558,0.936 -0.132,0.36 -0.198,0.756 -0.198,1.188 0,0.432 0.066,0.834 0.198,1.206 0.132,0.36 0.318,0.672 0.558,0.936 0.24,0.252 0.534,0.456 0.882,0.612 0.348,0.144 0.738,0.216 1.17,0.216 0.432,0 0.822,-0.072 1.17,-0.216 a 2.76,2.76 0 0 0 0.882,-0.612 c 0.24,-0.264 0.426,-0.576 0.558,-0.936 0.132,-0.372 0.198,-0.774 0.198,-1.206 0,-0.432 -0.066,-0.828 -0.198,-1.188 a 2.593,2.593 0 0 0 -0.558,-0.936 2.428,2.428 0 0 0 -0.882,-0.612 2.83,2.83 0 0 0 -1.17,-0.234 z M 390.182,168 h -1.62 v -1.314 h -0.036 c -0.204,0.456 -0.558,0.828 -1.062,1.116 -0.504,0.276 -1.086,0.414 -1.746,0.414 -0.42,0 -0.816,-0.066 -1.188,-0.198 a 2.654,2.654 0 0 1 -0.99,-0.576 2.898,2.898 0 0 1 -0.666,-1.008 c -0.168,-0.42 -0.252,-0.912 -0.252,-1.476 v -5.49 h 1.62 v 5.04 c 0,0.396 0.054,0.738 0.162,1.026 0.108,0.276 0.252,0.504 0.432,0.684 0.18,0.168 0.384,0.294 0.612,0.378 0.24,0.072 0.486,0.108 0.738,0.108 0.336,0 0.648,-0.054 0.936,-0.162 0.288,-0.108 0.54,-0.276 0.756,-0.504 0.216,-0.24 0.384,-0.54 0.504,-0.9 0.12,-0.36 0.18,-0.786 0.18,-1.278 v -4.392 h 1.62 z m 2.568,-8.532 h 1.62 V 168 h -1.62 z m -0.378,-3.06 c 0,-0.324 0.114,-0.6 0.342,-0.828 0.24,-0.24 0.522,-0.36 0.846,-0.36 0.324,0 0.6,0.12 0.828,0.36 0.24,0.228 0.36,0.504 0.36,0.828 0,0.324 -0.12,0.606 -0.36,0.846 a 1.128,1.128 0 0 1 -0.828,0.342 c -0.324,0 -0.606,-0.114 -0.846,-0.342 a 1.188,1.188 0 0 1 -0.342,-0.846 z m 4.577,3.06 h 1.62 v 1.314 h 0.036 c 0.108,-0.228 0.252,-0.432 0.432,-0.612 0.18,-0.192 0.378,-0.354 0.594,-0.486 0.228,-0.132 0.474,-0.234 0.738,-0.306 a 2.6,2.6 0 0 1 0.792,-0.126 c 0.264,0 0.504,0.036 0.72,0.108 l -0.072,1.746 a 4.7,4.7 0 0 0 -0.396,-0.09 2.21,2.21 0 0 0 -0.396,-0.036 c -0.792,0 -1.398,0.222 -1.818,0.666 -0.42,0.444 -0.63,1.134 -0.63,2.07 V 168 h -1.62 z m 7.569,4.86 c 0,0.372 0.078,0.714 0.234,1.026 0.168,0.3 0.384,0.558 0.648,0.774 0.264,0.216 0.57,0.384 0.918,0.504 0.348,0.12 0.708,0.18 1.08,0.18 0.504,0 0.942,-0.114 1.314,-0.342 0.372,-0.24 0.714,-0.552 1.026,-0.936 l 1.224,0.936 c -0.9,1.164 -2.16,1.746 -3.78,1.746 a 4.766,4.766 0 0 1 -1.836,-0.342 4.157,4.157 0 0 1 -1.386,-0.936 4.39,4.39 0 0 1 -0.864,-1.422 5.1,5.1 0 0 1 -0.306,-1.782 c 0,-0.636 0.108,-1.224 0.324,-1.764 a 4.466,4.466 0 0 1 0.918,-1.422 4.222,4.222 0 0 1 1.404,-0.954 4.489,4.489 0 0 1 1.764,-0.342 c 0.756,0 1.392,0.132 1.908,0.396 0.528,0.264 0.96,0.612 1.296,1.044 0.336,0.42 0.576,0.9 0.72,1.44 0.156,0.528 0.234,1.068 0.234,1.62 v 0.576 z m 5.112,-1.296 a 3.225,3.225 0 0 0 -0.18,-0.99 1.996,1.996 0 0 0 -0.45,-0.774 1.965,1.965 0 0 0 -0.774,-0.522 c -0.3,-0.132 -0.654,-0.198 -1.062,-0.198 -0.396,0 -0.762,0.078 -1.098,0.234 -0.324,0.144 -0.6,0.336 -0.828,0.576 -0.228,0.24 -0.408,0.51 -0.54,0.81 -0.12,0.288 -0.18,0.576 -0.18,0.864 z M 421.846,168 h -1.62 v -1.224 h -0.036 c -0.312,0.456 -0.744,0.81 -1.296,1.062 a 3.916,3.916 0 0 1 -1.674,0.378 c -0.66,0 -1.26,-0.114 -1.8,-0.342 a 4.074,4.074 0 0 1 -1.368,-0.954 4.39,4.39 0 0 1 -0.864,-1.422 4.952,4.952 0 0 1 -0.306,-1.764 c 0,-0.636 0.102,-1.224 0.306,-1.764 a 4.15,4.15 0 0 1 0.864,-1.422 c 0.384,-0.408 0.84,-0.726 1.368,-0.954 a 4.583,4.583 0 0 1 1.8,-0.342 c 0.612,0 1.188,0.132 1.728,0.396 0.54,0.252 0.954,0.6 1.242,1.044 h 0.036 v -6.3 h 1.62 V 168 Z m -4.428,-1.296 c 0.432,0 0.822,-0.072 1.17,-0.216 a 2.76,2.76 0 0 0 0.882,-0.612 c 0.24,-0.264 0.426,-0.576 0.558,-0.936 0.132,-0.372 0.198,-0.774 0.198,-1.206 0,-0.432 -0.066,-0.828 -0.198,-1.188 a 2.593,2.593 0 0 0 -0.558,-0.936 2.428,2.428 0 0 0 -0.882,-0.612 2.83,2.83 0 0 0 -1.17,-0.234 2.83,2.83 0 0 0 -1.17,0.234 2.428,2.428 0 0 0 -0.882,0.612 c -0.24,0.252 -0.426,0.564 -0.558,0.936 -0.132,0.36 -0.198,0.756 -0.198,1.188 0,0.432 0.066,0.834 0.198,1.206 0.132,0.36 0.318,0.672 0.558,0.936 0.24,0.252 0.534,0.456 0.882,0.612 0.348,0.144 0.738,0.216 1.17,0.216 z m 8.16,1.404 c -0.324,0 -0.606,-0.114 -0.846,-0.342 a 1.188,1.188 0 0 1 -0.342,-0.846 c 0,-0.324 0.114,-0.6 0.342,-0.828 0.24,-0.24 0.522,-0.36 0.846,-0.36 0.324,0 0.6,0.12 0.828,0.36 0.24,0.228 0.36,0.504 0.36,0.828 0,0.324 -0.12,0.606 -0.36,0.846 a 1.128,1.128 0 0 1 -0.828,0.342 z"
       fill="#000000"
       fill-opacity="0.49"
       id="path14" />
  </g>
</svg>
