<?xml version="1.0" encoding="UTF-8" standalone="no"?>
<svg
   xmlns:dc="http://purl.org/dc/elements/1.1/"
   xmlns:cc="http://creativecommons.org/ns#"
   xmlns:rdf="http://www.w3.org/1999/02/22-rdf-syntax-ns#"
   xmlns:svg="http://www.w3.org/2000/svg"
   xmlns="http://www.w3.org/2000/svg"
   width="240"
   height="100"
   viewBox="0 0 240 100"
   fill="none"
   version="1.1"
   id="svg19">
  <metadata
     id="metadata23">
    <rdf:RDF>
      <cc:Work
         rdf:about="">
        <dc:format>image/svg+xml</dc:format>
        <dc:type
           rdf:resource="http://purl.org/dc/dcmitype/StillImage" />
        <dc:title></dc:title>
      </cc:Work>
    </rdf:RDF>
  </metadata>
  <defs
     id="defs17">
    <rect
       x="-491.25317"
       y="-261.21402"
       width="476.65652"
       height="212.95724"
       id="rect1716" />
    <clipPath
       id="clip0">
      <rect
         width="770"
         height="222.03999"
         fill="#ffffff"
         id="rect14"
         x="0"
         y="0" />
    </clipPath>
  </defs>
  <text
     xml:space="preserve"
     id="text1714"
     style="font-size:40px;line-height:1.25;font-family:sans-serif;letter-spacing:0px;word-spacing:0px;white-space:pre;shape-inside:url(#rect1716);"
     transform="translate(44.332916,-25.667084)" />
  <rect
     style="fill:#ffffff;stroke:none;stroke-width:1.60003;stop-color:#000000"
     id="rect1756"
     width="240"
     height="100"
     x="0"
     y="0" />
  <rect
     style="fill:#ffffff;stroke:none;stroke-width:1.52703;stop-color:#000000"
     id="rect1758"
     width="230"
     height="90"
     x="5"
     y="5" />
  <text
     xml:space="preserve"
     style="font-size:16px;line-height:1.25;font-family:sans-serif;letter-spacing:0px;word-spacing:0px;fill:#000000;stroke-width:0.489974"
     x="5.046875"
     y="81.521378"
     id="text1712"><tspan
       id="tspan1710"
       x="5.046875"
       y="81.521378"
       style="font-style:normal;font-variant:normal;font-weight:normal;font-stretch:normal;font-size:16px;font-family:Roboto;-inkscape-font-specification:Roboto;stroke-width:0.489974">Deploy your FastAPI app for free</tspan></text>
  <g
     clip-path="url(#clip0)"
     id="g12"
     transform="matrix(0.19133908,0,0,0.19133908,46.334454,11.992465)">
    <path
       d="m 111.14,0 c 61.38,0 111.139,49.7054 111.139,111.02 0,61.315 -49.759,111.02 -111.139,111.02 C 49.7589,222.04 0,172.335 0,111.02 0,49.7054 49.7589,0 111.14,0 Z"
       fill="#ef39a8"
       id="path2" />
    <path
       d="m 111.404,21.6757 c 49.689,0 89.97,40.2376 89.97,89.8733 0,49.636 -40.281,89.873 -89.97,89.873 -49.689,0 -89.9702,-40.237 -89.9702,-89.873 0,-49.6357 40.2812,-89.8733 89.9702,-89.8733 z"
       fill="#bd399c"
       id="path4" />
    <path
       d="m 111.404,45.4653 c 36.536,0 66.154,29.5861 66.154,66.0837 0,36.497 -29.618,66.083 -66.154,66.083 -36.536,0 -66.154,-29.586 -66.154,-66.083 0,-36.4976 29.618,-66.0837 66.154,-66.0837 z"
       fill="#93388e"
       id="path6" />
    <path
       d="m 110.874,65.5554 c 24.844,0 44.985,20.1184 44.985,44.9366 0,24.817 -20.141,44.936 -44.985,44.936 -24.8437,0 -44.9846,-20.119 -44.9846,-44.936 0,-24.8182 20.1409,-44.9366 44.9846,-44.9366 z"
       fill="#6030a2"
       id="path8" />
    <path
       d="m 339,170.836 h 49.915 c 23.004,0 40.365,-5.842 51.867,-17.745 11.719,-11.902 17.579,-25.752 17.579,-41.983 0,-16.2301 -5.86,-30.2964 -17.579,-42.1987 C 429.28,57.007 411.919,51.1641 388.915,51.1641 H 339 Z m 96.574,-59.728 c 0,11.686 -3.907,21.641 -11.719,29.864 -7.596,8.007 -19.315,12.119 -34.94,12.119 H 361.136 V 68.9093 h 27.779 c 15.625,0 27.344,4.1117 34.94,12.1186 7.812,8.2235 11.719,18.1781 11.719,30.0801 z m 40.582,10.388 c 0,30.08 19.098,51.504 52.302,51.504 22.136,0 39.931,-10.604 47.744,-30.513 h -24.523 c -5.426,8.44 -13.022,12.768 -23.221,12.768 -16.928,0 -27.778,-10.82 -29.732,-27.7 h 79.212 v -6.059 c 0,-29.6478 -19.966,-51.5047 -50.782,-51.5047 -31.034,0 -51,21.2077 -51,51.5047 z m 78.995,-8.224 h -56.208 c 2.388,-14.9316 11.936,-25.5355 28.213,-25.5355 15.843,0 25.608,10.3875 27.995,25.5355 z m 73.353,20.992 V 88.3857 h 24.957 V 72.1553 H 628.504 V 49 h -21.702 v 23.1553 h -16.06 v 16.2304 h 16.06 v 45.8783 c 0,14.499 3.038,24.237 9.332,29.431 6.293,5.193 15.191,7.79 26.693,7.79 3.69,0 6.944,-0.216 9.766,-0.865 l 4.123,-0.866 v -17.096 l -4.123,0.433 c -2.822,0.433 -6.076,0.649 -9.766,0.649 -11.719,0 -14.323,-6.059 -14.323,-19.476 z m 93.101,-63.6235 c -14.54,0 -25.825,3.0297 -33.638,9.3055 -8.029,6.2757 -11.936,13.8499 -11.936,22.723 h 22.136 c 0,-10.3879 11.719,-14.2833 23.438,-14.2833 14.757,0 23.872,5.1937 23.872,18.8273 v 6.059 h -26.693 c -26.259,0 -46.659,6.709 -46.659,28.782 0,20.342 15.625,30.946 38.847,30.946 14.973,0 25.607,-3.679 31.901,-11.037 l 3.039,-3.678 c 0,4.111 1.735,10.387 2.386,12.551 H 770 v -1.731 l -1.519,-4.761 c -0.868,-3.246 -1.302,-8.223 -1.302,-15.148 v -38.088 c 0,-28.998 -16.493,-40.4675 -45.574,-40.4675 z m 23.872,57.1305 c 0,19.693 -9.982,29.864 -28.863,29.864 -12.37,0 -22.354,-4.111 -22.354,-14.499 0,-11.902 10.852,-15.365 24.524,-15.581 z"
       fill="#000000"
       id="path10" />
  </g>
</svg>
