<svg width="240" height="100" viewBox="0 0 240 100" fill="none" xmlns="http://www.w3.org/2000/svg">
<g clip-path="url(#clip0_678_1958)">
<rect width="240" height="100" fill="#FEFBF1"/>
<g opacity="0.82">
<path d="M-13.5616 48.2546C-13.6987 48.0172 -13.8832 47.8072 -14.0578 47.5598L-13.7469 45.5759L-12.5074 45.9683L-10.6977 44.6068C-11.1527 43.9832 -11.5904 43.4445 -12.0043 42.8921C-11.7468 42.6801 -11.5029 42.4444 -11.2217 42.2187C-11.6192 41.5302 -11.9245 40.9466 -12.7156 40.4537C-12.3783 41.3669 -12.6803 42.2694 -11.9668 42.9021C-12.469 43.1288 -12.034 43.8273 -12.5025 44.0028C-13.0248 44.3044 -13.4615 43.9867 -13.8899 44.0124C-14.0269 43.775 -14.2079 43.6261 -14.24 43.2964C-14.3462 42.3448 -14.4013 41.4269 -15.0546 40.5695C-15.5608 39.912 -15.8068 38.8828 -15.4637 38.0516C-14.7098 36.2868 -14.8729 34.7982 -15.7849 33.1088C-16.2684 32.2167 -15.7235 30.8575 -16.3303 29.7517C-15.8401 29.1204 -15.7142 28.3513 -15.6396 27.5485C-14.919 27.4807 -14.2423 27.5015 -13.7789 28.4686L-13.4491 26.1887L-14.1023 25.3314C-14.1373 24.3387 -13.533 23.3567 -14.1187 22.397C-13.2276 21.6925 -13.8371 20.7464 -13.8474 19.961C-13.8687 18.9919 -13.4881 18.1707 -13.3834 17.2555C-13.2786 16.3403 -13.1364 15.4353 -13.0115 14.4452C-12.3367 14.024 -12.0749 13.2712 -11.697 12.6099L-10.7417 12.5648C-10.3107 12.3792 -10.3665 12.0634 -10.2451 11.835C-9.78324 10.9352 -11.2612 10.4589 -10.803 9.49792L-8.61285 6.49239L-8.23038 3.04261C-7.69901 2.48257 -6.81761 2.63855 -6.51631 2.33797C-5.00345 0.736438 -3.12513 -0.506237 -1.95029 -2.41911C-1.70382 -2.81465 -2.03822 -3.06495 -2.19635 -3.4485C-1.81307 -4.42952 -0.180936 -4.45367 -0.237997 -5.81358C0.119116 -5.79817 0.500873 -5.57554 0.903502 -6.02959C1.21385 -6.58864 0.374291 -7.27518 0.860869 -7.96763C2.28709 -9.17093 3.08483 -11.0243 4.94136 -11.8112C5.37239 -11.9968 5.52046 -11.5758 5.78995 -11.3832C6.33798 -11.2564 6.54969 -11.8218 6.98072 -12.0073L7.09716 -13.3409L12.3169 -18.6653C12.7453 -18.691 13.4302 -19.1497 14.0394 -19.0266C15.8168 -21.5407 18.3912 -22.2357 21.5365 -23.0386L23.9561 -24.8788L26.4561 -23.948C27.9653 -25.6107 30.2184 -25.9301 32.3398 -26.8066L34.4323 -26.527L36.7233 -28.2613C37.0092 -28.2047 37.401 -28.0194 37.7407 -28.089C38.7362 -28.2838 39.7518 -28.5535 40.7162 -28.857C41.6943 -29.1368 42.4007 -27.8036 43.4179 -28.4542C45.0968 -27.904 46.9014 -28.1229 48.8076 -27.6723C49.539 -28.3795 50.5271 -28.6967 51.4563 -27.7453C52.0956 -27.7345 52.4176 -28.712 53.1913 -28.304C54.1779 -30.4881 56.2 -30.769 58.149 -30.628C59.6898 -30.5363 61.2169 -30.4683 62.7705 -30.5739C62.9083 -30.9383 62.8415 -31.4379 63.3437 -31.6645C63.6186 -31.7916 64.1073 -31.2191 64.1793 -31.8621C64.2265 -32.7125 64.8414 -32.086 65.1364 -32.288C65.4176 -32.5137 65.7188 -32.8142 66.0623 -32.8225C66.5006 -32.8857 66.9774 -32.7178 67.4606 -32.6486C69.38 -33.82 70.2807 -36.2078 72.1582 -36.8487C73.301 -39.0912 73.9068 -41.2769 76.0773 -42.5617C74.9905 -45.3215 77.6787 -47.19 77.8605 -49.8908C76.7067 -50.9024 76.234 -52.434 75.6079 -54.0668C76.6603 -55.9723 76.0944 -57.8297 75.2589 -59.8799C74.4335 -61.9674 74.304 -64.3302 75.3043 -66.4905C75.5424 -67.2295 74.5102 -67.6466 74.8534 -68.4778C75.1627 -69.2579 74.8301 -69.8889 74.0838 -70.2495L73.6019 -69.2747C72.9613 -70.3294 73.1456 -70.9423 73.9107 -71.7006C74.422 -72.1858 74.6053 -73.0197 74.9458 -73.6911C76.4007 -73.803 77.4023 -71.8488 79.1328 -72.6896C78.8317 -74.6367 76.3218 -74.7071 76.0144 -76.5555L76.5785 -77.3878C76.067 -77.7256 75.7713 -76.9217 75.2186 -77.3307L74.6302 -78.1306C74.756 -78.8996 74.5939 -80.1673 75.1316 -80.8259C75.9232 -81.7578 75.2636 -82.5166 75.362 -83.3331C75.5005 -84.2995 75.5404 -85.2722 76.1009 -86.1656C76.5262 -86.8544 75.692 -87.8606 76.4846 -88.5714L75.8039 -89.4762L76.3024 -92.8347C77.0016 -93.8716 78.3138 -94.724 77.6091 -96.4381C77.3788 -97.0015 78.4287 -100.995 78.6943 -101.686C79.2153 -103.032 80.3392 -104.156 79.7094 -105.85C79.4306 -106.607 80.0797 -107.456 80.5261 -107.999C81.6628 -109.32 82.107 -111.128 83.4008 -112.286C84.7184 -113.458 86.1831 -114.431 87.5929 -115.498L88.2165 -115.953C88.6818 -117.614 89.665 -119.037 89.6792 -120.438C90.1018 -120.967 90.3914 -120.849 90.6636 -120.816C92.3865 -122.602 93.8188 -124.727 96.3484 -125.554C96.5812 -125.974 96.1618 -126.207 96.0987 -126.645L98.1084 -128.153C98.6354 -128.173 98.6257 -127.312 99.1737 -127.186C100.005 -127.792 100.321 -128.671 100.121 -129.822C101.228 -130.207 102.344 -130.852 103.472 -130.87C104.7 -130.883 105.408 -131.576 106.03 -132.252C108.46 -134.953 110.437 -136.189 113.588 -136.268C114.336 -136.288 114.647 -136.847 115.306 -136.911C116.945 -137.034 118.576 -137.28 120.272 -137.467L120.455 -138.301C121.693 -138.351 122.997 -138.724 124.294 -138.397C125.754 -138.005 127.273 -138.281 128.434 -138.792C129.978 -139.462 131.355 -139.434 132.866 -139.23C133.659 -139.118 134.459 -138.884 135.256 -139.312C134.98 -138.583 135.438 -138.12 135.848 -137.628C136.417 -137.355 136.783 -138.421 137.344 -137.669L137.687 -138.721C137.928 -138.797 138.108 -138.869 138.277 -138.904C138.981 -139.057 139.533 -138.046 139.943 -138.378C140.763 -139.041 141.066 -138.077 141.587 -137.997C142.257 -137.878 142.771 -138.523 143.429 -138.206C143.821 -138.021 144.626 -138.106 144.688 -137.889C145.068 -136.683 146.05 -137.504 146.657 -137.221C147.352 -136.894 147.939 -136.315 148.766 -136.254L148.67 -135.598L150.139 -134.863L150.305 -135.782C151.374 -136.178 152.342 -135.818 153.273 -135.247C154.506 -136.181 155.501 -134.951 156.512 -134.68C157.524 -134.409 158.568 -134.19 159.566 -133.943C159.843 -133.628 160.134 -133.068 160.29 -133.126C161.588 -133.401 162.084 -131.883 163.176 -131.912C164.342 -131.92 164.747 -130.286 166.051 -130.659C166.184 -130.704 166.536 -130.369 166.598 -130.152C166.825 -129.429 167.828 -129.501 167.967 -128.821C168.167 -127.544 168.748 -129.114 169.369 -128.586C170.274 -127.842 171.003 -126.744 172.239 -126.413C172.389 -126.372 172.458 -126.033 172.57 -126.003C174.694 -125.614 176.221 -124.121 178.004 -123.062C179.838 -121.968 181.72 -120.902 183.52 -119.757C183.827 -119.555 184.13 -119.413 184.576 -119.354C185.166 -118.333 186.145 -117.569 186.328 -116.155C186.452 -115.118 187.691 -114.726 188.465 -114.318C189.378 -113.833 190.283 -113.089 191.429 -113.022L193.098 -110.789C192.757 -110.338 191.849 -110.321 192.059 -109.081C192.886 -109.622 193.563 -108.778 194.446 -109.003L197.128 -105.454C197.212 -104.047 198.146 -102.813 199.464 -102.34L201.134 -100.106C200.664 -99.3289 201.056 -98.5418 201.398 -97.9483C202.905 -95.5577 203.55 -92.7959 204.778 -90.3395C205.447 -89.0163 205.891 -87.7534 205.98 -86.2848C206.01 -85.5742 206.196 -84.9222 206.699 -84.3259C207.783 -83.0522 208.724 -81.6963 209.685 -80.4152C209.497 -77.6158 210.254 -74.8241 208.977 -72.1559L210.964 -69.5362C210.684 -67.6647 210.464 -65.7968 210.057 -63.3773C210.598 -62.55 211.542 -61.1328 210.37 -59.3798C210.1 -58.9705 210.117 -58.2838 210.112 -57.7431C210.113 -56.0973 209.802 -52.6887 209.166 -51.8153C208.622 -51.058 208.769 -50.2562 208.544 -49.4935C208.39 -48.9929 208.563 -48.3645 207.955 -48.0456C208.147 -47.1113 208.31 -46.2246 208.879 -45.3499C209.718 -44.0614 209.48 -42.4995 208.423 -41.4781C206.856 -39.9715 205.8 -38.1272 205.315 -36.1698C204.965 -34.6381 203.823 -33.8202 203.144 -32.6373C202.723 -31.8873 202.015 -31.1939 201.978 -30.381C201.898 -29.2585 200.692 -28.8791 200.643 -27.8689C197.972 -25.9154 196.581 -22.8965 194.633 -20.3477C194.052 -19.6004 193.4 -18.591 192.775 -18.578C191.659 -18.5356 191.913 -17.3839 191.148 -17.2275C190.469 -17.0885 189.717 -17.1293 189.203 -16.4844C188.987 -16.2012 188.617 -16.0193 188.288 -15.7662L188.592 -14.8019C187.134 -13.1054 185.717 -11.3376 183.549 -10.2126C182.74 -10.1886 181.796 -9.73902 180.764 -10.1561C179.776 -9.01594 178.017 -8.66455 177.52 -7.11175C176.373 -6.57617 174.954 -6.89631 174.032 -6.30053C172.011 -4.97556 169.251 -5.53456 167.586 -3.5923L166.137 -3.8001C165.678 -3.66204 166.167 -3.08951 165.712 -2.89026C164.153 -2.68609 162.347 -3.51112 160.969 -2.11422C160.716 -1.62003 161.581 -1.32815 160.721 -0.515015C160.081 0.0761091 159.264 -1.66804 158.138 -0.986344C157.283 -0.492877 156.169 -0.229463 155.211 -0.0245722C154.059 0.228787 153.342 0.959725 152.507 1.37829C152.326 1.83136 152.558 2.01394 152.718 2.23765C152.749 2.9482 152.103 3.036 151.666 3.32018C151.13 2.99612 150.663 2.56972 150.017 2.65761C149.114 2.95747 148.624 3.80975 147.643 4.02835C147.048 4.15001 146.47 4.95859 145.953 5.54237C145.425 6.16359 144.752 7.02686 143.754 6.55864C142.64 7.64494 142.98 9.22123 142.015 10.1266L142.714 11.3375C142.132 12.6867 140.996 11.981 140.106 12.0836C138.862 13.6568 140.608 15.7504 139.108 17.1546C139.026 17.8351 139.952 18.1234 139.681 18.9135C139.389 19.7785 139.57 20.7502 140.042 21.4588C141.213 23.1572 141.087 24.7492 140.194 26.4364C140.116 26.5762 140.141 26.7835 140.102 27.1544C141.156 27.9386 140.898 29.5753 142.014 30.5768C141.627 32.0986 141.862 33.767 140.955 35.4305C140.915 37.2261 142.437 38.4366 143.491 40.0437C142.66 41.1254 144.082 42.1086 143.795 43.2558C143.507 44.403 144.016 45.5026 144.058 46.6178C144.104 47.7941 143.878 48.9377 144.657 49.8489L144.144 52.9625L143.015 53.804C142.286 53.5284 142.113 52.6791 141.56 52.2701C140.835 52.8786 142.149 53.2911 141.516 53.7836C142.541 54.0782 142.929 55.0252 143.537 55.7502C143.804 56.7045 142.951 57.64 143.601 58.6572C144.129 59.4608 142.482 60.0633 143.245 61.1106C143.433 61.3818 143.117 62.0394 142.704 62.5309C141.754 63.6811 140.923 64.9838 141.93 66.6183C142.314 67.2831 141.831 68.0367 141.776 68.7646L140.919 69.418C140.791 69.745 140.976 69.955 141.16 70.165C139.967 71.9725 138.83 73.0192 137.75 73.3051C136.397 75.7322 135.631 78.5172 133.149 80.1401C131.852 82.8832 129.325 84.3736 127.086 86.1416C126.547 86.5792 125.759 86.7494 125.593 87.6683C125.433 88.4885 124.249 88.1912 123.852 89.1485C123.552 89.8911 122.486 90.348 121.707 90.8615C120.951 91.3613 120.41 92.1799 119.421 92.2762C119.238 92.2872 119.078 92.2844 118.833 92.2991C118.347 93.2126 117.964 94.1937 116.632 94.2982C115.704 94.3908 114.989 94.9617 114.793 95.9929L114.088 95.9247C113.657 96.1103 113.567 96.4473 113.573 96.9505C111.748 96.4214 112.051 98.8106 110.641 99.0549L109.735 98.0898C108.801 98.281 107.771 98.3059 107.071 99.1217C106.428 99.8727 105.252 99.3169 104.678 100.187C103.652 99.6709 102.661 100.148 101.905 100.648C101.254 101.055 100.502 101.616 99.9375 101.626C98.7849 101.658 98.8693 103.065 98.0839 103.076C97.1249 103.059 96.6072 103.643 95.9187 104.041C95.3726 104.356 95.2934 104.877 95.194 105.472C93.0122 105.751 90.7341 105.04 88.7344 106.511L88.8967 105.531C88.3323 105.54 87.8307 105.165 87.2382 105.729L87.5299 107.111C85.0174 107.201 82.9254 108.567 80.5958 109.247L79.482 108.086C78.2541 109.523 75.8868 109.37 75.1085 111.75C74.2689 111.064 73.4607 111.309 72.6377 111.309C72.7139 112.373 70.9731 112.429 71.3652 113.437C70.8649 114.105 70.2839 113.428 69.9562 113.902C69.4449 114.387 69.8223 115.151 69.3795 115.754C68.1985 115.518 68.1295 116.824 67.346 117.277C66.515 117.756 65.856 118.644 64.79 118.278C64.5729 119.163 65.1327 118.871 65.5008 119.07C64.4648 120.84 64.7394 122.96 63.8706 124.855C63.2947 126.105 62.2347 127.066 62.068 128.586C61.8676 130.158 61.7337 131.407 62.3414 132.734C62.0495 133.599 61.1039 132.783 60.6648 133.448L61.0244 135.551C62.0436 135.343 63.218 134.855 63.7446 136.26C62.8828 137.454 63.9015 138.67 63.7676 139.919C64.1377 140.56 65.2719 140.222 65.6741 141.192C65.4881 142.186 65.0336 143.208 65.1636 144.146C65.3247 145.193 65.5032 146.325 65.3236 147.22C65.1339 148.152 64.7259 148.926 65.023 149.989C65.2717 150.858 64.2417 151.706 64.6814 152.687L63.7765 153.368C63.5432 155.212 63.0443 156.924 61.9123 158.528C61.1755 159.555 60.9777 160.967 60.548 162.196C60.2222 163.112 59.9339 164.038 58.9916 164.709C58.9456 166.603 58.3279 168.384 57.0872 170.019C56.2592 171.162 55.6869 172.473 55.745 174.054L52.9254 176.189C53.7047 177.1 52.6838 177.689 52.6804 178.451L51.8164 178.38C51.1061 179.233 50.8681 180.795 48.9619 180.345C49.1059 182.129 46.7833 182.109 46.6477 183.738C46.3364 184.076 45.9683 183.877 45.4277 183.873C45.2005 184.796 44.3357 185.327 43.7405 186.05C43.179 186.722 41.9422 186.17 41.8147 187.32C39.7499 187.911 37.8806 188.895 36.1932 190.249C36.0507 190.331 35.8846 190.427 35.701 190.438C35.5174 190.449 35.3302 190.399 35.1566 190.373C35.1302 190.546 35.0902 190.696 35.04 190.883C34.3103 191.21 33.7821 190.185 32.8762 190.645C32.5668 191.425 32.1287 192.311 31.0657 192.608C30.5715 192.355 31.2353 191.75 30.4379 191.356L27.4514 191.941C26.4452 192.775 26.6859 194.124 25.7226 194.648C25.0247 194.481 25.8045 193.968 24.9295 193.713C22.8002 192.822 20.3702 193.876 17.8807 194.554C17.9595 195.458 16.8855 195.572 16.4665 196.162C13.6862 195.678 11.0065 195.642 8.30035 195.78C7.44367 195.831 6.38974 195.87 5.96651 194.753C4.43037 194.944 2.86217 194.805 1.24942 195.356C0.0918976 194.283 -1.69271 194.427 -3.03479 193.144C-2.73375 192.021 -2.97073 190.733 -2.1153 189.638C-2.61218 189.545 -3.0963 189.254 -3.62499 189.655C-4.17741 190.069 -4.5206 190.9 -4.95162 191.085C-5.53881 191.329 -6.08586 191.424 -6.4437 192.01C-6.0572 192.515 -5.86923 191.963 -5.59069 191.897C-4.51836 192.165 -4.53176 192.964 -4.73783 194.032C-7.22686 193.285 -9.74871 192.81 -12.4294 192.554C-13.3478 190.963 -15.0648 191.004 -16.6029 190.753C-17.1723 189.657 -18.7331 189.64 -18.9591 188.536C-20.0297 187.888 -20.8952 189.021 -21.4753 188.564C-22.6199 188.117 -21.611 187.123 -22.4185 186.766C-23.2149 186.593 -22.5168 187.583 -22.9963 187.575C-23.4838 188.046 -23.9516 187.62 -24.3863 187.744L-26.1206 185.453L-28.3993 185.344C-29.3936 183.513 -31.8131 183.105 -31.9838 180.671C-32.8405 180.723 -33.6552 180.243 -34.6536 179.775L-36.9215 176.779L-36.6589 175.425L-38.1537 173.439C-39.0405 173.602 -39.7477 172.871 -40.6939 172.658L-42.1613 170.719L-41.5958 168.683C-43.3496 168.113 -43.6597 166.424 -44.7276 165.616C-44.7399 164.389 -45.4726 163.229 -44.3852 162.316C-44.7974 161.383 -45.7134 161.88 -46.2761 161.509C-46.1045 161.093 -46.3449 160.567 -45.745 160.126C-45.0354 159.874 -44.3728 161.296 -43.3465 160.387C-43.4956 159.745 -43.3935 158.99 -43.801 158.339C-44.6313 158.217 -44.0355 159.139 -44.5351 159.206C-44.8464 159.544 -45.2958 159.423 -45.5753 159.268C-46.9729 158.492 -48.2355 157.512 -49.079 155.941C-48.9525 154.57 -48.6324 153.151 -49.5096 151.631C-50.3458 150.183 -49.7445 148.538 -48.9248 147.052L-50.4195 145.066C-50.714 143.843 -50.4029 142.682 -50.2517 141.518C-51.2594 140.486 -51.5677 139.239 -51.3325 137.837C-51.1438 136.683 -50.8052 135.57 -50.5654 134.45C-50.3657 133.48 -50.6191 132.329 -50.4131 131.26C-50.3037 130.627 -50.2317 129.984 -50.126 129.29L-49.2449 128.623C-48.9759 127.17 -49.0613 125.541 -47.6104 124.545C-47.7032 122.794 -45.4742 121.666 -46.3334 119.629C-46.6733 118.876 -45.53 118.279 -45.6691 117.6C-45.2163 116.958 -44.6836 117.442 -44.2937 117.186C-43.6547 116.373 -43.6158 115.18 -42.6461 114.556L-41.8182 115.661C-41.083 115.838 -40.3412 115.917 -39.8547 115.224C-39.3179 114.344 -40.121 113.447 -39.8692 112.732C-39.6575 112.166 -39.3907 112.519 -39.1021 112.415C-38.8556 112.02 -38.8202 111.588 -39.0231 111.072C-39.663 109.415 -39.3493 108.095 -38.2116 106.995C-37.5853 106.38 -36.4637 106.239 -36.3973 105.092C-35.5333 105.163 -35.0056 104.542 -34.2395 104.005C-34.3701 101.421 -31.7355 100.502 -30.4145 98.5676L-29.8839 98.6094C-29.0766 98.1433 -29.5875 97.2037 -29.141 96.6611C-29.0461 96.6063 -28.9511 96.5514 -28.8936 96.4865C-28.4033 95.8552 -27.435 96.4358 -26.9622 95.7196C-26.5669 95.1432 -26.1953 94.5804 -25.7489 94.0378C-24.2945 92.2801 -23.4217 91.2698 -21.4281 90.7203C-20.3888 90.4368 -20.4814 89.5089 -19.8952 89.0439C-19.3464 88.5688 -18.8552 88.1584 -18.6308 87.3957C-18.4264 86.7079 -17.4692 87.1049 -17.0164 86.4636C-15.9081 84.8741 -15.2665 83.0792 -14.7374 81.2542C-14.4126 80.117 -14.1079 79.0547 -13.098 78.2817L-12.8056 75.992L-10.9484 74.603C-11.7765 72.6753 -12.4574 70.9475 -11.4571 68.7872C-10.5244 66.7292 -11.337 64.4444 -11.5916 62.2489C-11.7226 61.0899 -11.9522 59.9245 -11.4713 58.7288C-11.8989 58.1527 -12.3165 57.5391 -12.7916 56.9903C-13.3589 56.3366 -13.51 55.2524 -13.2535 54.8195C-12.2522 52.8802 -13.3459 51.6439 -14.3482 50.2916C-14.0827 49.6001 -14.3889 48.7956 -13.8475 48.1981C-13.6355 48.4556 -13.3997 48.6994 -13.2015 48.9332C-12.6143 48.6891 -12.1458 48.5136 -11.9688 47.7783C-12.4182 47.6579 -12.3198 46.8414 -13.0642 46.9229C-13.0274 47.5348 -13.3489 47.9102 -13.8475 48.1981L-13.5616 48.2546ZM145.869 -104.92C146.106 -105.057 146.156 -105.245 146.057 -105.472C146.029 -105.519 145.856 -105.546 145.822 -105.495C145.65 -105.3 145.651 -105.079 145.859 -104.883C145.621 -104.746 145.571 -104.558 145.671 -104.331C145.698 -104.283 145.872 -104.257 145.906 -104.308C146.078 -104.503 146.077 -104.724 145.869 -104.92ZM-6.66354 7.45616C-6.90096 7.59324 -6.95112 7.78053 -6.85149 8.00791C-6.82408 8.05539 -6.65061 8.08183 -6.61684 8.03067C-6.44428 7.83608 -6.44518 7.61516 -6.65348 7.41886C-6.41606 7.28179 -6.36591 7.0945 -6.46553 6.86712C-6.49295 6.81963 -6.66649 6.79324 -6.70026 6.8444C-6.87282 7.03899 -6.87184 7.25987 -6.66354 7.45616ZM-11.7865 81.1017C-12.1052 81.3173 -12.138 81.5894 -11.8986 81.8944C-12.2876 82.3722 -12.3668 82.8929 -11.9301 83.2106C-12.3391 83.7633 -12.9511 83.7999 -12.782 84.3671C-12.2376 84.4326 -12.0075 84.1732 -12.1365 83.4563L-11.2553 82.7893L-11.9224 81.9081C-11.6037 81.6925 -11.5709 81.4203 -12.0029 81.3848C-11.5939 80.8321 -10.9819 80.7955 -11.1511 80.2284C-11.6954 80.1628 -11.9256 80.4222 -11.7966 81.1392L-11.7865 81.1017ZM168.207 -91.0677C167.677 -91.7114 167.374 -91.03 166.923 -90.7696L165.602 -92.508L164.064 -91.3349C164.049 -90.7568 163.678 -90.194 164.418 -89.7349C165.205 -90.126 166.284 -89.9574 166.97 -90.797C167.5 -90.1532 167.803 -90.8346 168.197 -91.0302C168.412 -90.7115 168.685 -90.6788 168.976 -90.9419C169.15 -90.6944 169.335 -90.4845 169.482 -90.2845C170.14 -90.5697 170.686 -90.283 171.336 -90.0887C171.949 -89.9044 172.856 -89.3202 173.785 -90.6165C171.951 -90.2853 170.728 -92.2384 169.013 -90.9318C168.798 -91.2505 168.525 -91.2833 168.22 -91.0439L168.207 -91.0677ZM1.69497 192.344C1.45756 192.481 1.40741 192.669 1.50704 192.896C1.53445 192.944 1.70799 192.97 1.74177 192.919C1.91432 192.724 1.91339 192.503 1.47502 192.566C2.07762 191.965 2.6822 191.806 2.91667 191.006L1.69913 190.981C1.64995 191.389 1.57331 191.75 1.69497 192.344V192.344ZM22.0929 -16.4272C21.6188 -16.7549 21.0808 -16.9192 20.5009 -16.5528C20.0782 -16.0238 20.4364 -15.7874 20.8931 -15.5446C21.2693 -15.8251 21.693 -16.1329 22.1441 -16.3934C22.2812 -16.156 22.4684 -16.1059 22.6958 -16.2055C22.7433 -16.2329 22.7697 -16.4064 22.7185 -16.4402C22.5239 -16.6128 22.3029 -16.6118 22.0792 -16.4509L22.0929 -16.4272ZM83.3276 -89.7682C83.0902 -89.6311 83.0401 -89.4439 83.1398 -89.2165C83.1672 -89.169 83.3406 -89.1426 83.3744 -89.1937C83.547 -89.3883 83.546 -89.6093 83.2866 -89.8393L84.4727 -90.7458C84.4196 -91.2216 84.2213 -91.4553 83.813 -91.5045C83.4268 -91.1865 82.8186 -91.0887 82.8215 -90.4256C82.9175 -90.2594 83.0471 -90.1444 83.3276 -89.7682V-89.7682ZM150.646 -87.5449C150.365 -87.9211 150.085 -88.2972 150.167 -88.1548L147.108 -88.573C147.327 -88.1931 147.66 -87.5621 147.94 -87.4069C149.132 -86.9872 149.829 -87.6433 150.622 -87.5312C150.837 -87.2125 151.11 -87.1796 151.404 -87.6025C152.213 -85.3789 154.803 -86.21 155.92 -84.3855L156.139 -85.6514L154.713 -87.5188C153.694 -87.0892 152.652 -87.4687 151.391 -87.4053C151.175 -87.7239 150.903 -87.7569 150.612 -87.4937L150.646 -87.5449ZM200.102 -46.0758C200.34 -46.2128 200.39 -46.4001 200.29 -46.6275C200.263 -46.675 200.089 -46.7014 200.056 -46.6502C199.883 -46.4556 199.884 -46.2346 200.079 -46.062C199.957 -45.2318 199.183 -44.817 198.825 -44.2305C198.622 -43.3217 199.009 -42.5957 199.081 -41.8139C198.843 -41.6769 198.793 -41.4896 198.893 -41.2622C198.92 -41.2147 199.094 -41.1883 199.128 -41.2395C199.3 -41.4341 199.299 -41.6551 199.105 -41.8276C200.251 -42.5842 200.101 -44.0491 200.985 -44.876C200.612 -45.3572 200.346 -45.7096 200.079 -46.062L200.102 -46.0758ZM175.793 -90.3194C176.55 -89.7753 175.939 -88.9155 175.996 -88.1575L177.036 -86.7952C177.519 -86.947 178.065 -86.4394 178.559 -87.0095C178.938 -87.4498 178.134 -87.7454 178.333 -88.1135C178.738 -88.7274 179.629 -88.8301 179.724 -89.4868C178.524 -90.25 177.471 -91.4149 175.691 -90.3868C175.554 -90.6243 175.366 -90.6745 175.139 -90.5749C175.092 -90.5475 175.065 -90.3739 175.116 -90.3401C175.311 -90.1676 175.532 -90.1685 175.82 -90.2718L175.793 -90.3194ZM109.603 -53.0858C109.365 -52.9487 109.315 -52.7614 109.415 -52.534C109.442 -52.4866 109.616 -52.4602 109.65 -52.5113C109.822 -52.7059 109.821 -52.927 109.627 -53.0995C110.009 -53.4787 110.59 -53.6241 110.774 -54.237L110.13 -55.3528L110.691 -56.2462L109.667 -57.7447C109.763 -58.4014 109.89 -58.9494 109.894 -59.49C109.892 -59.9321 110.376 -60.4647 109.526 -61.1138C109.63 -59.1795 107.807 -58.4436 107.541 -57.1503C107.894 -55.7713 108.871 -55.4492 109.621 -55.0275C109.822 -54.3517 109.016 -54.2665 109.12 -53.7569C109.216 -53.5907 109.346 -53.4757 109.627 -53.0995L109.603 -53.0858ZM158.446 -89.1676C158.22 -89.4488 158.103 -89.7611 157.875 -89.8825C157.581 -90.0614 157.127 -89.8622 156.917 -90.2795L156.604 -92.0293C156.864 -92.4011 157.452 -92.4241 157.541 -92.9822L155.946 -93.7709C155.473 -93.0547 154.498 -92.9347 154.169 -92.0797C154.984 -91.3794 153.976 -90.9873 153.972 -90.4466C154.392 -89.9929 154.616 -89.3307 155.223 -89.0478C156.25 -89.7358 157.345 -88.8805 158.381 -89.2251C158.518 -88.9877 158.705 -88.9374 158.933 -89.0371C158.98 -89.0645 159.007 -89.2381 158.955 -89.2718C158.761 -89.4444 158.54 -89.4434 158.408 -89.1776L158.446 -89.1676ZM80.4461 -78.6394C79.9526 -79.4941 79.4173 -79.8181 79.4374 -79.893C79.9354 -81.8266 81.5978 -81.1404 82.3419 -82.0448C83.391 -83.1886 81.4627 -84.0064 82.0733 -85.087C82.274 -85.836 83.3043 -85.861 83.4913 -86.6337C83.4405 -87.343 83.1024 -87.9286 82.4769 -88.3906C81.8051 -87.3063 81.0821 -86.2557 80.6797 -84.9788C80.2372 -83.552 80.1112 -83.6059 78.365 -83.2308C77.9205 -82.2461 77.5546 -81.1803 76.9977 -80.2257C76.2383 -78.9641 76.1634 -78.9841 76.6121 -78.2618C76.7903 -77.9531 76.9584 -77.6071 77.4854 -77.6264C78.1592 -78.2687 78.9491 -78.8197 80.2268 -79.0192C80.3639 -78.7818 80.551 -78.7317 80.7784 -78.8313C80.8259 -78.8587 80.8523 -79.0323 80.8011 -79.066C80.6066 -79.2386 80.3856 -79.2376 80.4223 -78.6257L80.4461 -78.6394ZM196.224 -87.7749C193.462 -87.9531 190.972 -88.0985 188.496 -88.2201C188.397 -88.2264 188.304 -87.9504 188.138 -87.6335C190.919 -87.7513 193.097 -85.2413 195.921 -86.2706L196.224 -87.7749V-87.7749ZM-11.3389 38.8357C-9.99166 38.9759 -9.00152 39.1008 -8.03886 39.1781C-7.94022 39.1845 -7.79505 38.9424 -7.65628 38.799C-7.71038 38.1021 -8.32063 37.7581 -8.6359 37.212C-9.39761 37.2086 -10.1887 36.7156 -10.9722 37.168L-11.3389 38.8357V38.8357ZM96.1264 -122.704C96.6427 -122.084 97.2071 -122.093 98.3715 -122.544C98.7724 -122.617 98.4341 -123.751 99.0915 -124.258L98.2911 -125.315C96.9532 -124.891 96.5261 -123.821 96.1264 -122.704ZM-46.5859 140.795L-46.875 139.252L-48.0861 139.128C-48.4229 139.861 -48.7935 140.645 -49.492 141.08L-48.5719 142.289L-46.5622 140.781L-46.5859 140.795ZM58.508 49.2225C58.9223 48.0758 58.8692 47.1251 58.349 46.3703L56.199 46.1554L58.508 49.2225V49.2225ZM164.7 -85.846C163.086 -85.7368 161.456 -86.6953 159.11 -85.8789C161.03 -85.4046 162.451 -85.4654 163.746 -84.757C164.217 -84.4905 164.876 -84.5546 164.7 -85.846V-85.846ZM-43.5452 127.2C-42.2659 126.62 -41.7245 126.022 -42.1678 124.98C-42.5352 124.179 -42.9197 124.116 -44.3114 124.667C-44.2463 125.547 -42.9456 125.936 -43.5315 127.224L-43.5452 127.2ZM-43.1455 129.153C-43.8315 128.568 -43.9579 127.691 -44.9818 127.618C-45.1561 128.193 -45.6225 128.811 -45.1374 129.322C-44.5225 129.948 -46.0175 130.21 -45.3077 130.782L-43.1455 129.153V129.153ZM144.085 -40.5149C144.882 -41.7664 145.869 -41.4817 146.427 -41.3924L147.074 -42.6841C145.822 -42.0563 144.851 -42.4769 143.879 -42.5168C143.658 -42.5158 143.451 -42.2701 143.271 -42.1979C143.162 -41.5649 143.69 -41.3633 144.085 -40.5149V-40.5149ZM90.7524 -111.561C91.1146 -112.688 91.2284 -113.861 91.7916 -114.915C92.0107 -115.358 91.8251 -115.789 91.2296 -115.888C90.6373 -114.501 89.9089 -113.131 90.7524 -111.561ZM62.2681 137.651L60.4346 139.026C61.2458 139.444 61.1949 140.233 61.3714 140.923C62.2535 140.477 62.0524 139.58 62.5573 139.193L62.2307 137.641L62.2681 137.651ZM-10.4678 77.9027C-8.97748 77.3588 -9.22438 76.1087 -9.32794 74.9972C-9.76094 74.7407 -9.98838 74.8402 -10.1646 74.9736L-10.4678 77.9027ZM137.366 48.0757C136.977 48.5535 135.995 48.772 135.493 49.8216C136.331 49.4642 136.585 50.6159 137.249 50.2321L137.366 48.0757V48.0757ZM-31.2371 113.921C-31.9895 114.482 -31.9015 115.127 -31.6775 115.79C-31.0509 115.998 -30.4819 116.27 -29.8793 115.669C-30.0969 114.909 -30.5008 114.319 -31.2371 113.921V113.921ZM151.433 -94.0772C150.659 -93.6623 150.101 -95.3973 149.341 -94.1358C149.194 -93.5129 150.099 -93.3707 149.963 -92.7852C149.835 -92.4582 149.363 -92.3439 149.44 -91.8818C150.864 -91.8813 150.654 -93.3426 151.419 -94.1009L151.433 -94.0772ZM152.817 -44.4167C153.08 -45.5502 153.017 -45.9886 152.431 -46.9483C151.98 -46.6879 151.423 -46.5562 151.351 -45.9132C151.772 -45.4594 151.982 -44.8211 152.803 -44.4405L152.817 -44.4167ZM-8.78218 116.626C-9.95387 116.954 -9.94898 118.059 -10.3597 118.993C-9.92254 117.886 -8.84892 119.197 -8.30948 118.158C-8.91602 117.875 -8.46324 117.233 -8.78218 116.626ZM67.7826 68.6861C67.7238 67.7071 68.3528 66.9323 67.6895 66.1124C67.0328 66.0167 66.7426 66.5008 66.3363 66.8937C66.5602 67.5558 66.9741 68.1082 67.7689 68.6624L67.7826 68.6861ZM14.1768 -3.43624C14.8408 -3.21817 15.0682 -3.31784 15.3832 -3.59468L15.4904 -5.49264C15.1908 -5.57291 14.8538 -5.66314 14.9049 -5.62936L14.1904 -3.41262L14.1768 -3.43624ZM134.68 -48.6341C135.422 -48.0072 136.479 -47.5301 137.849 -47.203C138.134 -47.3675 138.143 -47.626 137.869 -48.1008L134.68 -48.6341ZM36.6666 165.189C37.0535 164.269 36.7582 163.648 36.1882 163.155C36.0721 163.063 35.7124 163.208 35.6275 163.225C35.0787 163.7 35.4368 163.937 35.6388 164.232C35.7895 164.493 35.2845 164.879 35.7002 165.051L36.6666 165.189ZM-9.31115 147.511C-8.57587 147.688 -8.00579 148.182 -7.32193 147.502C-7.33859 146.815 -7.66023 146.368 -8.40922 146.167C-8.5945 146.559 -9.22014 146.572 -9.32487 147.487L-9.31115 147.511ZM95.8782 46.0706C96.5748 45.1935 96.9052 44.5595 96.198 43.8282C95.5661 43.9398 95.1524 44.2103 94.917 44.7894L95.8645 46.0468L95.8782 46.0706ZM17.6742 48.8977C16.9375 49.9245 16.587 50.6334 17.6476 51.3189C17.9957 50.5693 18.0045 49.7622 17.6742 48.8977ZM202.601 -85.2837C203.509 -85.0803 204.401 -84.9618 204.722 -86.1601C204.527 -86.3327 204.495 -86.6625 203.945 -86.6294C203.678 -86.159 202.756 -86.1651 202.601 -85.2837V-85.2837ZM12.2344 0.217636C13.4338 0.759764 14.0922 0.474565 14.5814 -0.37772L14.195 -0.882622C13.762 -1.13913 13.5967 -0.822179 13.3968 -0.67507C13.0306 -0.43201 12.7156 -0.155206 12.197 0.207549L12.2344 0.217636ZM170.841 -84.4213C170.13 -85.2138 169.596 -85.3169 168.538 -84.7375L170.841 -84.4213ZM2.83236 113.276C3.56567 113.011 3.51248 112.535 3.60916 112.099C3.69579 111.701 3.54507 111.44 2.84625 111.052C3.32969 111.944 1.62736 112.231 2.83236 113.276V113.276ZM137.35 -86.0098C138.272 -86.6055 139.006 -86.8707 139.319 -87.5896C139.147 -87.9968 138.921 -88.2781 138.405 -88.0752L137.35 -86.0098V-86.0098ZM-28.0859 102.985C-28.5262 102.606 -28.6927 101.879 -29.5651 101.464L-29.168 103.578C-28.62 103.704 -28.3725 103.53 -28.1234 102.975L-28.0859 102.985ZM194.634 -104.236C194.554 -105.361 194.09 -105.726 193.759 -106.136C193.427 -106.546 193.23 -107.161 192.26 -107.361L194.62 -104.26L194.634 -104.236ZM95.5932 8.78609L96.6684 6.64592C95.9625 6.9585 95.2218 7.1012 94.8988 7.85754L95.5932 8.78609V8.78609ZM10.1705 32.3369C10.7219 31.4277 10.5137 30.4823 9.54584 29.5005C10.3536 30.6803 10.0716 31.5077 10.1705 32.3369ZM54.7081 73.2907C54.7157 74.236 55.0373 74.6834 55.7351 74.8503C55.9314 74.642 56.2611 74.6099 56.2253 74.219C55.9512 73.7441 55.7748 73.0547 54.7318 73.277L54.7081 73.2907ZM86.2852 -100.656L86.797 -102.566C86.2125 -102.482 85.8126 -102.187 85.5634 -101.632L86.2852 -100.656V-100.656ZM132.077 -79.7364C132.57 -78.8817 133.206 -78.932 133.79 -79.0162C133.96 -79.051 134.088 -79.378 134.169 -79.4566L132.053 -79.7227L132.077 -79.7364ZM22.6546 -19.3473C22.2685 -19.5043 21.7854 -19.5734 21.2051 -19.5549C21.4993 -19.155 21.5735 -18.5332 22.2503 -18.5124C22.5589 -18.6906 22.8913 -18.8825 22.6546 -19.3473V-19.3473ZM-23.2031 112.1C-22.8477 112.496 -22.8548 113.197 -22.062 113.309C-22.0677 112.805 -21.6823 112.266 -22.0752 111.86C-22.5293 111.458 -22.7831 111.731 -23.2031 112.1ZM141.418 -94.1516C142.119 -94.1445 142.552 -94.4899 142.757 -95.1777C142.23 -95.1583 141.714 -95.5573 141.251 -95.0996C140.844 -94.7067 141.216 -94.4465 141.418 -94.1516ZM206.181 -62.4691C206.094 -62.0709 206.245 -61.8097 206.702 -61.5669L208.183 -62.6752C207.265 -62.6201 206.75 -63.0191 206.218 -62.459L206.181 -62.4691ZM-30.3812 111.401C-31.29 111.197 -31.6297 111.267 -31.7939 111.805C-31.5335 112.256 -31.4018 112.813 -30.9561 112.872L-30.3812 111.401ZM65.9527 58.663C65.8786 58.0411 65.5605 57.6547 65.0563 57.4393C64.6554 57.5125 64.4354 57.7346 64.41 58.1292C64.7664 58.7465 65.3545 58.7235 65.9527 58.663V58.663ZM205.328 -82.2048C205.289 -81.834 205.331 -81.5417 205.209 -81.3133C205.102 -81.0612 204.565 -81.0045 204.825 -80.5534L205.965 -80.3884C205.81 -80.9318 206.432 -81.6078 205.318 -82.1673L205.328 -82.2048ZM110.13 -106.509C110.747 -106.865 110.701 -107.44 110.664 -108.052C110.056 -107.954 109.656 -107.659 109.417 -107.141C109.49 -106.741 109.712 -106.521 110.13 -106.509ZM137.493 -68.4914L138.475 -67.8871C138.676 -68.4151 138.373 -68.5566 138.25 -68.7703C138.099 -69.0314 138.604 -69.418 138.137 -69.6234C137.226 -69.4459 137.533 -68.6412 137.479 -68.5152L137.493 -68.4914ZM74.7565 79.2848C74.2716 79.5964 73.9255 79.7645 74.1385 80.243C74.5246 80.4 75.0202 80.4725 75.6254 80.4608L74.719 79.2747L74.7565 79.2848ZM190.371 -112.443C189.796 -112.396 189.41 -112.078 189.171 -111.56C189.23 -111.183 189.442 -110.925 189.861 -110.914C190.454 -111.256 190.469 -111.835 190.371 -112.443ZM151.133 -39.9309L152.39 -40.8783C151.689 -41.1064 151.161 -41.3082 150.65 -40.8231C150.539 -40.4111 150.69 -40.1499 151.147 -39.9071L151.133 -39.9309ZM-10.083 13.1026C-10.715 13.2142 -11.1286 13.4847 -11.3303 14.0127C-11.2334 14.3999 -11.0351 14.6337 -10.6168 14.6454C-9.99954 14.289 -10.0463 13.7145 -10.083 13.1026ZM-39.3418 131.136C-38.678 130.531 -37.9638 130.562 -37.8755 129.783C-38.0537 129.474 -38.2456 129.142 -38.7478 129.368C-39.2701 129.67 -39.0361 130.294 -39.3281 131.159L-39.3418 131.136ZM-29.3737 134.529C-29.0173 135.146 -28.4328 135.062 -27.8309 135.063C-27.98 134.421 -28.2267 133.994 -28.7784 133.806C-29.1656 133.903 -29.3857 134.125 -29.3737 134.529ZM-18.5501 136.827C-17.8496 136.834 -17.4158 136.489 -17.1913 135.726C-17.7347 135.882 -18.2673 135.398 -18.6362 135.801C-19.0488 136.292 -18.7995 136.56 -18.5501 136.827V136.827ZM-41.051 118.416L-42.2504 117.873C-42.1104 118.774 -41.7925 119.16 -41.1659 119.368L-41.0373 118.439L-41.051 118.416ZM147.298 -79.471C147.195 -78.9367 147.434 -78.6316 147.989 -78.6035C148.161 -78.7981 148.515 -78.8438 148.434 -79.3671C148.208 -79.8693 147.83 -80.0309 147.284 -79.4946L147.298 -79.471ZM154.764 -96.6967C155.498 -96.7407 156.31 -96.1018 156.546 -97.2828C155.972 -97.236 155.313 -97.7736 154.764 -96.6967ZM193.313 -25.9797C192.735 -27.0176 192.334 -27.493 192.11 -27.4058L191.991 -26.5145L193.313 -25.9797ZM22.9447 -6.12423C22.3191 -6.11124 21.6567 -6.71023 21.1959 -5.58944C21.8215 -5.60243 22.4839 -5.00343 22.9447 -6.12423ZM203.309 -47.7054C202.885 -48.2203 203.23 -49.2114 202.292 -49.0814L202.164 -48.1525L203.285 -47.6916L203.309 -47.7054ZM105.047 78.5106L104.436 77.9454C103.95 78.036 103.73 78.258 103.719 78.6763C104.075 79.2936 104.483 79.3428 105.047 78.5106V78.5106ZM13.1252 -15.8399C13.0222 -15.3055 13.2616 -15.0005 13.816 -14.9724C13.9886 -15.167 14.342 -15.2127 14.2825 -15.5899C14.1993 -15.9533 13.9772 -16.1734 13.5589 -16.1851L13.1116 -15.8635L13.1252 -15.8399ZM161.697 -109.69C161.297 -109.396 160.661 -109.345 160.695 -108.574C161.054 -108.939 161.721 -108.881 161.697 -109.69ZM177.917 -76.0027C177.706 -76.0392 177.388 -75.8237 177.336 -75.2556L178.285 -74.3791L177.941 -76.0164L177.917 -76.0027ZM20.8417 185.975C21.3597 185.739 21.3158 185.279 20.7097 184.595L20.8417 185.975ZM131.7 -42.228C132.515 -42.3506 132.864 -42.6786 133.157 -43.3226C132.389 -43.2274 132.026 -42.9231 131.7 -42.228ZM109.538 45.2752C109.544 45.9995 109.866 46.4469 110.577 46.6375C110.571 45.9133 110.249 45.4658 109.538 45.2752ZM87.3656 30.5038C87.0714 30.1039 87.0211 29.4683 86.2757 29.3288C86.4047 30.0458 86.6751 30.4593 87.3656 30.5038ZM113.653 76.8027C114.171 76.5669 114.127 76.1068 113.521 75.4227L113.653 76.8027ZM80.6629 36.4947C80.4656 36.482 80.1333 36.6739 80.0814 37.242L81.0305 38.1184L80.6866 36.481L80.6629 36.4947ZM-44.7886 151.913L-44.2228 150.7C-44.8995 150.679 -45.147 150.854 -45.2436 151.289L-44.7886 151.913V151.913ZM42.8996 52.9475C42.6338 52.8161 42.9057 52.0259 42.1761 52.3522C42.1643 52.7705 42.3288 53.0555 42.8996 52.9475ZM-32.8472 142.549C-32.5814 142.681 -32.8533 143.471 -32.1236 143.145C-32.1119 142.726 -32.2764 142.441 -32.8472 142.549ZM15.8887 -2.33538C15.7572 -2.06957 14.9672 -2.34153 15.2934 -1.61189C15.7118 -1.60015 15.9966 -1.76459 15.8887 -2.33538ZM16.9898 -14.6839C16.7003 -14.8016 16.9722 -15.5917 16.1951 -15.238C16.3258 -14.902 16.3715 -14.5485 16.9898 -14.6839ZM-12.7957 189.726C-13.33 189.623 -13.635 189.862 -13.7006 190.407C-13.1662 190.51 -12.8612 190.27 -12.7957 189.726ZM30.496 173.089C29.9616 172.986 29.6567 173.225 29.5911 173.769C30.1254 173.872 30.4304 173.633 30.496 173.089ZM23.9198 -10.1377C23.6302 -10.2555 23.9021 -11.0456 23.125 -10.6919C23.2557 -10.3558 23.3015 -10.0024 23.9198 -10.1377ZM100.255 89.7296C99.6296 89.7426 99.266 89.8257 99.4388 90.454C99.8708 90.4895 100.105 90.2913 100.255 89.7296ZM49.9244 23.0604C49.2988 23.0734 48.9353 23.1567 49.1081 23.785C49.5401 23.8204 49.7739 23.6221 49.9244 23.0604ZM159.347 -96.8736C159.244 -96.3393 159.483 -96.0342 160.027 -95.9686C160.13 -96.5029 159.891 -96.808 159.347 -96.8736ZM168.821 -73.6636C169.356 -73.5606 169.661 -73.8 169.726 -74.3443C169.192 -74.4474 168.887 -74.208 168.821 -73.6636ZM65.4618 36.9773C65.7276 37.1087 65.4557 37.8988 66.1853 37.5725C66.197 37.1542 66.0326 36.8693 65.4618 36.9773ZM133.742 -104.376C134.276 -104.273 134.581 -104.513 134.647 -105.057C134.113 -105.16 133.808 -104.921 133.742 -104.376ZM168.719 -36.2822C168.756 -35.6703 168.829 -35.2695 169.468 -35.4798C169.466 -35.9218 169.315 -36.1828 168.719 -36.2822ZM139.576 -46.6802C140.11 -46.5772 140.415 -46.8166 140.48 -47.3609C139.946 -47.464 139.641 -47.2246 139.576 -46.6802ZM82.9164 -93.5511C82.8134 -93.0168 83.0528 -92.7117 83.5971 -92.6461C83.7002 -93.1805 83.4607 -93.4855 82.9164 -93.5511ZM46.2729 171.356C46.2499 170.767 46.153 170.38 45.4535 170.594C45.5742 170.968 45.6436 171.307 46.2729 171.356ZM101.531 34.8613C101.797 34.9928 101.525 35.7829 102.254 35.4566C102.266 35.0383 102.102 34.7534 101.531 34.8613ZM126.859 -24.2386C126.896 -23.6267 126.969 -23.2257 127.608 -23.436C127.606 -23.878 127.455 -24.1392 126.859 -24.2386ZM120.503 27.4217C120.49 26.7961 120.406 26.4327 119.778 26.6056C119.743 27.0376 119.941 27.2712 120.503 27.4217ZM79.9804 -52.6343C79.446 -52.7373 79.141 -52.4979 79.0755 -51.9536C79.6098 -51.8505 79.9148 -52.0899 79.9804 -52.6343ZM139.353 43.1294C139.457 42.8161 139.351 42.6874 139.032 42.682C138.927 42.9953 139.034 43.124 139.353 43.1294ZM141.212 49.7485C140.899 49.6445 140.746 49.7643 140.765 50.0702C141.078 50.1743 141.23 50.0545 141.212 49.7485ZM130.745 13.6895C130.432 13.5854 130.279 13.7052 130.297 14.0112C130.611 14.1152 130.763 13.9954 130.745 13.6895ZM138.249 22.6842C137.936 22.5802 137.783 22.6998 137.801 23.0058C138.115 23.1098 138.267 22.9902 138.249 22.6842ZM141.787 11.6511C142.1 11.7551 142.253 11.6353 142.235 11.3294C141.921 11.2254 141.769 11.3451 141.787 11.6511ZM138.764 47.4268C138.45 47.3228 138.298 47.4425 138.316 47.7485C138.63 47.8525 138.782 47.7327 138.764 47.4268ZM141.956 55.8082C142.061 55.4949 141.955 55.3661 141.635 55.3607C141.531 55.674 141.637 55.8028 141.956 55.8082ZM97.9616 0.771013C98.2749 0.875031 98.4037 0.768982 98.409 0.449318C98.0957 0.3453 97.967 0.451349 97.9616 0.771013ZM78.3028 -91.8371C77.9895 -91.9411 77.8371 -91.8214 77.8555 -91.5155C78.1688 -91.4114 78.3212 -91.5312 78.3028 -91.8371ZM109.325 41.7262C109.011 41.6222 108.882 41.7281 108.877 42.0477C109.19 42.1517 109.319 42.0459 109.325 41.7262ZM73.1369 104.278C73.2409 103.965 73.1349 103.836 72.8153 103.831C72.7113 104.144 72.8172 104.273 73.1369 104.278ZM-32.2566 118.625C-31.9433 118.729 -31.7908 118.609 -31.8092 118.303C-32.1225 118.199 -32.275 118.319 -32.2566 118.625ZM88.5915 -102.747C88.6955 -103.061 88.5896 -103.189 88.27 -103.195C88.1659 -102.881 88.2718 -102.753 88.5915 -102.747ZM111.708 73.0504C111.812 72.7371 111.706 72.6085 111.387 72.6031C111.283 72.9164 111.389 73.045 111.708 73.0504ZM13.7887 22.4291C13.4754 22.325 13.3467 22.4311 13.3413 22.7507C13.6546 22.8547 13.7833 22.7487 13.7887 22.4291ZM9.15785 69.8959C9.47115 69.9999 9.59991 69.8938 9.60529 69.5742C9.29198 69.4702 9.16323 69.5762 9.15785 69.8959ZM-12.4248 161.528C-12.1115 161.632 -11.9589 161.512 -11.9772 161.206C-12.2905 161.102 -12.4431 161.222 -12.4248 161.528ZM140.214 -59.7746C139.901 -59.8786 139.749 -59.7591 139.767 -59.4531C140.08 -59.3491 140.233 -59.4687 140.214 -59.7746ZM-12.4393 50.5823C-12.7526 50.4783 -12.8813 50.5843 -12.8867 50.904C-12.5734 51.008 -12.4446 50.902 -12.4393 50.5823ZM177.995 -14.35C177.681 -14.454 177.553 -14.3481 177.547 -14.0284C177.861 -13.9244 177.989 -14.0303 177.995 -14.35ZM114.318 82.5601C114.005 82.456 113.876 82.5619 113.87 82.8816C114.184 82.9856 114.313 82.8797 114.318 82.5601ZM-32.9893 112.147C-32.676 112.251 -32.5236 112.131 -32.542 111.825C-32.8553 111.721 -33.0077 111.841 -32.9893 112.147ZM40.7245 -13.9837C40.4112 -14.0877 40.2825 -13.9817 40.2771 -13.662C40.5904 -13.558 40.7191 -13.664 40.7245 -13.9837ZM142.269 -80.1762C142.583 -80.0722 142.711 -80.1782 142.717 -80.4978C142.403 -80.6018 142.275 -80.4958 142.269 -80.1762ZM163.483 -61.3065C163.797 -61.2025 163.926 -61.3084 163.931 -61.6281C163.618 -61.7321 163.489 -61.6262 163.483 -61.3065ZM165.032 -61.0923C165.345 -60.9883 165.474 -61.0943 165.479 -61.414C165.166 -61.518 165.037 -61.412 165.032 -61.0923ZM167.372 -60.7662C167.686 -60.6622 167.815 -60.7681 167.82 -61.0877C167.507 -61.1917 167.378 -61.0858 167.372 -60.7662ZM169.826 -61.2327C170.139 -61.1287 170.268 -61.2347 170.273 -61.5543C169.96 -61.6583 169.831 -61.5523 169.826 -61.2327ZM74.1975 42.3484C74.5108 42.4524 74.6395 42.3464 74.6449 42.0267C74.3316 41.9227 74.2029 42.0287 74.1975 42.3484ZM155.382 -83.125C155.695 -83.021 155.824 -83.1269 155.829 -83.4465C155.516 -83.5505 155.387 -83.4447 155.382 -83.125ZM50.3697 164.305C50.683 164.409 50.8117 164.303 50.8171 163.984C50.5038 163.88 50.375 163.986 50.3697 164.305ZM94.9097 79.0453C94.5964 78.9413 94.4677 79.0474 94.4623 79.367C94.7756 79.4711 94.9043 79.365 94.9097 79.0453ZM2.58689 8.50999C2.90019 8.61401 3.02894 8.50795 3.03432 8.18828C2.72102 8.08427 2.59226 8.19032 2.58689 8.50999ZM81.5001 95.4611C81.8134 95.5651 81.9422 95.4592 81.9476 95.1395C81.6343 95.0355 81.5055 95.1414 81.5001 95.4611ZM-2.07044 127.155C-1.75714 127.259 -1.60472 127.139 -1.62309 126.833C-1.93639 126.729 -2.08881 126.849 -2.07044 127.155ZM62.4865 72.1237C62.7998 72.2277 62.9285 72.1217 62.9339 71.802C62.6206 71.698 62.4918 71.804 62.4865 72.1237ZM170.188 -126.4C169.875 -126.504 169.746 -126.398 169.741 -126.078C170.054 -125.974 170.183 -126.08 170.188 -126.4ZM186.706 -113.746C186.393 -113.85 186.264 -113.744 186.259 -113.424C186.572 -113.32 186.701 -113.426 186.706 -113.746Z" fill="#FFC93E"/>
</g>
<g clip-path="url(#clip1_678_1958)">
<path fill-rule="evenodd" clip-rule="evenodd" d="M170.706 20.3142C170.706 20.7006 170.772 21.0752 170.903 21.4329C171.034 21.794 171.225 22.1112 171.48 22.3882C171.735 22.6648 172.04 22.8859 172.398 23.0512C172.755 23.2165 173.161 23.2994 173.614 23.2994C174.067 23.2994 174.474 23.2165 174.831 23.0512C175.188 22.8859 175.494 22.6648 175.749 22.3882C176.002 22.1112 176.195 21.794 176.326 21.4329C176.455 21.0752 176.521 20.7006 176.521 20.3142C176.521 19.9277 176.455 19.5531 176.326 19.1936C176.195 18.8342 176.002 18.5171 175.749 18.2402C175.494 17.9636 175.188 17.7425 174.831 17.5769C174.474 17.4116 174.067 17.327 173.614 17.327C173.161 17.327 172.755 17.4116 172.398 17.5769C172.04 17.7425 171.735 17.9636 171.48 18.2402C171.225 18.5171 171.034 18.8342 170.903 19.1936C170.772 19.5531 170.706 19.9277 170.706 20.3142ZM176.563 23.7971H176.521C176.163 24.4064 175.684 24.8485 175.078 25.1253C174.474 25.4004 173.821 25.5388 173.12 25.5388C172.349 25.5388 171.666 25.4054 171.067 25.1353C170.47 24.8655 169.958 24.4959 169.532 24.0251C169.106 23.5559 168.782 23.0022 168.562 22.366C168.342 21.7316 168.233 21.0467 168.233 20.3142C168.233 19.5817 168.349 18.8967 168.584 18.2606C168.817 17.6259 169.143 17.0724 169.562 16.6016C169.982 16.1325 170.487 15.7628 171.077 15.4931C171.67 15.2229 172.316 15.0879 173.015 15.0879C173.484 15.0879 173.896 15.1368 174.254 15.2329C174.611 15.3308 174.926 15.4541 175.202 15.6077C175.477 15.7596 175.71 15.9217 175.903 16.0937C176.095 16.2674 176.254 16.4363 176.376 16.6016H176.438V11.1182C176.438 10.8702 176.634 10.577 176.978 10.577H178.375C178.699 10.577 178.913 10.8503 178.913 11.1182V24.7484C178.913 25.0946 178.622 25.2906 178.375 25.2906H177.103C176.801 25.2906 176.563 25.0343 176.563 24.7494V23.7971Z" fill="#1F1F1F"/>
<path fill-rule="evenodd" clip-rule="evenodd" d="M183.033 20.3114C183.033 20.6978 183.098 21.0724 183.229 21.4301C183.36 21.7912 183.551 22.1084 183.806 22.3853C184.061 22.6619 184.367 22.883 184.724 23.0484C185.081 23.2138 185.488 23.2966 185.941 23.2966C186.394 23.2966 186.8 23.2138 187.157 23.0484C187.515 22.883 187.82 22.6619 188.075 22.3853C188.328 22.1084 188.521 21.7912 188.652 21.4301C188.782 21.0724 188.847 20.6978 188.847 20.3114C188.847 19.9249 188.782 19.5503 188.652 19.1907C188.521 18.8313 188.328 18.5143 188.075 18.2374C187.82 17.9608 187.515 17.7397 187.157 17.5741C186.8 17.4088 186.394 17.3242 185.941 17.3242C185.488 17.3242 185.081 17.4088 184.724 17.5741C184.367 17.7397 184.061 17.9608 183.806 18.2374C183.551 18.5143 183.36 18.8313 183.229 19.1907C183.098 19.5503 183.033 19.9249 183.033 20.3114ZM180.559 20.3114C180.559 19.5231 180.7 18.8077 180.982 18.1647C181.262 17.5217 181.645 16.9733 182.126 16.5161C182.606 16.0606 183.177 15.7078 183.836 15.458C184.497 15.2101 185.197 15.0851 185.941 15.0851C186.682 15.0851 187.384 15.2101 188.043 15.458C188.703 15.7078 189.273 16.0606 189.755 16.5161C190.236 16.9733 190.617 17.5217 190.899 18.1647C191.181 18.8077 191.322 19.5231 191.322 20.3114C191.322 21.0994 191.181 21.8149 190.899 22.4576C190.617 23.101 190.236 23.6492 189.755 24.1066C189.273 24.5621 188.703 24.9149 188.043 25.1629C187.384 25.4126 186.682 25.5359 185.941 25.5359C185.197 25.5359 184.497 25.4126 183.836 25.1629C183.177 24.9149 182.606 24.5621 182.126 24.1066C181.645 23.6492 181.262 23.101 180.982 22.4576C180.7 21.8149 180.559 21.0994 180.559 20.3114Z" fill="#1F1F1F"/>
<path fill-rule="evenodd" clip-rule="evenodd" d="M192.569 11.9547C192.569 11.5533 192.717 11.2056 193.012 10.9067C193.309 10.6097 193.683 10.4612 194.136 10.4612C194.589 10.4612 194.972 10.6029 195.281 10.8866C195.589 11.17 195.745 11.526 195.745 11.9547C195.745 12.3834 195.589 12.7393 195.281 13.0229C194.972 13.3064 194.589 13.4482 194.136 13.4482C193.683 13.4482 193.309 13.2997 193.012 13.0009C192.717 12.704 192.569 12.3565 192.569 11.9547Z" fill="#1F1F1F"/>
<path fill-rule="evenodd" clip-rule="evenodd" d="M202.782 18.092C202.536 18.092 202.354 17.904 202.323 17.8222C202.117 17.2801 201.462 17.0764 200.932 17.0764C200.098 17.0764 199.443 17.4655 199.443 18.1345C199.443 18.7816 200.077 18.9136 200.468 19.0329C200.898 19.1639 201.719 19.3436 202.171 19.4507C202.631 19.5595 203.06 19.7192 203.46 19.9283C204.774 20.6142 204.961 21.6932 204.961 22.3431C204.961 24.7404 202.599 25.5358 200.959 25.5358C199.695 25.5358 197.32 25.3433 196.799 22.9196C196.748 22.6838 196.956 22.3213 197.337 22.3213H198.703C198.972 22.3213 199.153 22.5184 199.206 22.6733C199.381 23.1603 199.939 23.5282 200.88 23.5282C201.889 23.5282 202.486 23.1257 202.486 22.5903C202.486 22.2443 202.291 21.9363 202.036 21.7627C201.27 21.2408 199.378 21.1817 198.35 20.6318C197.957 20.4213 196.969 19.9403 196.969 18.2998C196.969 16.0387 199.013 15.0851 200.809 15.0851C203.457 15.0851 204.429 16.7678 204.539 17.3915C204.599 17.7356 204.408 18.092 204.022 18.092H202.782Z" fill="#1F1F1F"/>
<path fill-rule="evenodd" clip-rule="evenodd" d="M205.163 16.8604V15.8312C205.163 15.5854 205.356 15.2901 205.698 15.2901H207.017V12.7629C207.017 12.4923 207.2 12.3278 207.338 12.2672C207.42 12.2313 208.157 11.9076 208.747 11.649C209.159 11.479 209.492 11.8199 209.492 12.1487V15.2901H211.676C212.013 15.2901 212.214 15.5864 212.214 15.8312V16.8619C212.214 17.1605 211.949 17.4042 211.676 17.4042H209.492V21.7601C209.492 22.2575 209.478 22.6467 209.667 22.934C209.841 23.1975 210.095 23.2953 210.605 23.2953C210.751 23.2953 210.882 23.2707 210.992 23.2331C211.315 23.1218 211.557 23.3118 211.639 23.4714C211.8 23.7847 211.984 24.129 212.113 24.3756C212.255 24.6467 212.141 24.9941 211.882 25.1206C211.463 25.3253 210.883 25.4912 210.087 25.4912C209.428 25.4912 209.054 25.4186 208.637 25.2732C208.217 25.1282 207.819 24.8204 207.58 24.5234C207.338 24.2264 207.218 23.8288 207.13 23.3865C207.039 22.9446 207.017 22.4081 207.017 21.8261V17.4042H205.701C205.356 17.4042 205.163 17.1039 205.163 16.8604Z" fill="#1F1F1F"/>
<path fill-rule="evenodd" clip-rule="evenodd" d="M193.442 25.2907H194.841C195.137 25.2907 195.379 25.0472 195.379 24.7494V15.8311C195.379 15.5334 195.137 15.2899 194.841 15.2899H193.442C193.146 15.2899 192.904 15.5334 192.904 15.8311V24.7494C192.904 25.0472 193.146 25.2907 193.442 25.2907Z" fill="#1F1F1F"/>
</g>
<path fill-rule="evenodd" clip-rule="evenodd" d="M188.28 78.3696C188.153 78.5101 187.921 78.5663 188.013 78.791C187.837 78.9104 187.676 78.8472 187.521 78.8613C187.036 78.9104 186.559 78.8051 186.06 78.9947C185.793 79.1001 185.4 79.1282 185.077 78.9034C184.971 78.8261 184.775 78.8753 184.62 78.8613C184.269 78.8262 183.89 78.9736 183.566 78.7138C183.51 78.6716 183.328 78.6927 183.278 78.7489C183.075 78.9737 182.822 78.8683 182.604 78.8542C182.351 78.8332 182.204 79.1001 181.951 79.0299C181.93 79.0228 181.895 79.0299 181.874 79.0299C181.6 79.0158 181.368 78.7208 181.031 79.0088C180.862 79.1563 180.483 78.9526 180.23 79.1774C180.167 79.2335 179.977 79.2335 179.872 79.1071C179.724 78.9385 179.521 79.065 179.31 79.0158L179.106 79.3459C178.446 79.3459 177.849 79.4653 177.336 79.3108C176.76 79.1422 176.198 79.2476 175.643 79.1774C175.482 79.1563 175.411 79.2757 175.313 79.3389C175.074 79.3811 175.018 79.0298 174.786 79.1633C174.751 79.0298 174.814 78.9315 174.681 78.8823C174.66 78.8823 174.604 78.8542 174.561 78.8683C173.782 79.079 173.564 79.0509 172.616 78.8823C172.18 78.8051 171.717 78.8613 171.267 78.8683C170.726 78.8683 170.185 78.9034 169.687 78.6435L169.638 78.4328C169.272 78.2221 169.153 78.6505 168.9 78.6927C168.612 78.7419 168.359 78.8121 168.148 79.0299C167.875 78.9877 167.544 79.1352 167.32 78.9526C167.088 78.77 166.828 78.9315 166.589 78.7629C166.385 78.6224 166.034 78.6997 165.753 78.6786C165.43 78.3907 165.107 78.1167 164.679 78.0324L164.355 78.3626H163.035C162.944 77.9832 162.585 77.8076 162.347 77.5056V76.8664L162.023 76.6276C161.995 76.1991 161.988 75.8409 162.241 75.5389C162.403 75.3492 162.389 75.1104 162.311 74.9559C162.129 74.5765 162.108 74.2324 162.311 73.8741C162.178 73.1436 162.838 72.7081 162.944 72.0619C162.937 71.8512 162.747 71.6756 162.803 71.4227C162.859 71.1769 162.515 71.1347 162.487 70.924C162.55 70.629 162.789 70.4183 162.824 70.0952C162.859 69.8142 163.049 69.5402 163.337 69.3576C163.063 68.8449 163.133 68.3251 163.126 67.7842L163.428 67.5454V66.9835C163.786 66.26 164.278 65.8596 164.77 65.4452C164.903 65.1291 165.24 64.8692 165.205 64.4548C165.528 64.0895 165.535 64.0965 165.978 64.0333L166.273 63.6681C166.989 63.345 167.692 63.4714 168.148 62.9305H168.781C169.076 62.6144 169.406 62.4178 169.862 62.4459C170.235 62.4669 170.607 62.4459 170.979 62.4529C171.351 62.4669 171.696 62.4248 171.97 62.1438C172.482 62.1298 172.967 62.0876 173.381 61.7013C173.634 61.4695 173.986 61.4555 174.316 61.5046C174.618 61.3571 174.737 60.9146 175.166 61.02C175.32 60.6898 175.685 60.6547 175.938 60.5985C176.339 60.5142 176.641 60.2824 176.908 60.0506C177.294 59.7065 177.715 59.4676 178.179 59.2569C178.509 59.1094 178.902 58.9549 178.959 58.4702H179.492C179.823 58.0839 179.886 57.536 180.349 57.3182V56.6369L180.813 56.1874C180.813 56.1101 180.841 56.0328 180.827 55.9626C180.757 55.4428 181.024 54.9652 181.017 54.4383C181.017 54.1223 181.354 53.8272 181.621 53.6165C181.621 53.5322 181.6 53.469 181.621 53.4269C181.902 52.9211 181.944 52.3381 182.162 51.8183C182.253 51.6006 182.176 51.2775 182.478 51.1511C182.717 51.0527 182.688 50.7437 182.899 50.5751C182.766 50.1466 183.11 49.7603 183.047 49.3178L183.37 48.9806C183.363 48.7488 183.419 48.517 183.201 48.3063C183.658 48.2922 183.995 48.0394 184.262 47.7584C184.458 47.5477 184.529 47.2316 184.494 46.9015C184.458 46.5221 184.48 46.1428 184.936 45.9813C185.006 45.9602 185.098 45.8759 185.098 45.8197C185.119 45.321 185.498 44.9768 185.625 44.4992C185.716 44.3868 185.863 44.4922 185.99 44.429C186.193 44.0286 186.783 43.9302 186.833 43.4034C187.837 43.1435 188.722 42.7432 189.565 42.1883C190.12 41.83 190.752 41.5491 191.462 41.5772C191.616 41.5842 191.771 41.5772 191.939 41.5772L191.995 41.3173C192.087 41.2049 192.227 41.2821 192.431 41.247L192.803 40.7834H193.499L193.787 40.4954C194.187 40.3901 194.608 40.5587 195.016 40.3901C195.423 40.2215 195.641 39.8492 195.95 39.6244C196.09 39.2943 195.676 39.0906 195.817 38.7886C196.055 38.5919 196.238 38.7956 196.435 38.8799C196.61 38.8588 196.723 38.6902 196.933 38.7113C197.179 38.7324 197.432 38.7675 197.678 38.5779C197.79 38.4865 198.071 38.4936 198.219 38.5779C198.774 38.8799 199.343 38.6411 199.876 38.7324L200.186 38.4233C200.818 38.3039 201.366 38.634 201.97 38.6832C202.223 38.6621 202.461 38.4514 202.756 38.5989C203.185 38.7535 202.77 39.3926 203.332 39.5331C203.557 39.4488 203.494 39.1679 203.67 38.9782L203.255 38.6832C203.459 38.5708 203.599 38.4374 203.754 38.4163C204.028 38.3882 204.288 38.4374 204.569 38.5427C205.215 38.7956 205.896 38.8799 206.493 38.3671C206.774 38.4655 207.034 38.5568 207.287 38.6411C207.582 38.7394 207.856 38.7886 208.158 38.5849C208.418 38.4093 208.706 38.325 209.057 38.5427C209.556 38.8518 210.167 38.6902 210.722 38.7254C210.869 39.0344 210.996 39.3505 211.41 39.3646C211.74 39.3716 211.691 39.7509 211.895 39.9054V40.8326C211.979 41.0152 212.232 41.0784 212.211 41.2751C212.19 41.4999 212.295 41.6334 212.45 41.7317C212.745 41.9213 212.66 42.2936 212.857 42.5254C212.745 42.989 213.054 43.3402 213.208 43.7546L212.85 44.4781C213.335 45.1103 213.538 45.8478 213.819 46.5713L213.679 46.7469C213.805 46.8874 213.784 47.1262 213.974 47.2386V48.1939C214.248 48.4678 214.353 48.805 214.29 49.1773C214.227 49.5496 214.43 49.8727 214.452 50.2239C214.473 50.568 214.402 50.9263 214.473 51.2564C214.55 51.6427 214.15 51.9307 214.388 52.4365L214.782 52.7526V53.6165L215.084 53.9186V54.4032C215.379 54.5718 215.456 54.916 215.674 55.1759C215.8 55.3304 215.8 55.5903 215.625 55.8151C215.407 56.082 215.372 56.4192 215.442 56.8195C215.744 57.0443 215.758 57.5079 215.983 57.7959C216.236 58.1049 216.334 58.4632 216.538 58.7722C216.474 59.1024 216.236 59.3412 216.004 59.587C216.271 60.0225 216.39 60.4932 216.699 60.8303C216.692 61.0129 216.748 61.1885 216.51 61.2447C216.798 61.7013 216.671 62.1789 216.699 62.6425L217.001 63.2396H215.835L215.512 63.5627H215.006L214.711 63.2677C214.452 63.2536 214.234 63.2466 213.995 63.4503C213.7 63.6962 213.349 63.8999 212.913 63.8999C212.492 63.8999 212.267 64.2792 211.993 64.525C210.989 64.525 210.476 64.6795 209.928 65.1572H209.31C209.113 65.2696 209.085 65.5646 208.945 65.6208C208.671 65.7191 208.53 65.986 208.242 66.0492C207.919 66.1195 207.666 66.3583 207.533 66.6182C207.329 67.0045 206.992 67.2433 206.739 67.5524H206.43L206.009 68.1354C206.009 68.0511 206.009 68.1565 206.009 68.2619C205.882 68.3883 205.699 68.4164 205.559 68.5358C205.299 68.7606 204.92 68.8589 204.843 69.2663C204.372 69.4279 204.323 70.1443 203.691 70.1232C203.564 70.1232 203.332 70.355 203.311 70.5025C203.241 71.0294 202.869 71.3454 202.56 71.7107C202.461 71.8231 202.349 72.0408 202.356 72.09C202.426 72.4482 202.117 72.7222 202.173 73.0593C201.885 73.1085 201.738 73.3403 201.597 73.4738C201.387 74.1411 201.338 74.7873 201.387 75.4194C201.26 75.574 201.141 75.7004 200.888 75.7145C200.937 75.9954 200.811 76.2413 200.754 76.5082C200.663 76.9015 200.565 77.2598 200.347 77.618C200.15 77.9481 200.017 78.3626 200.129 78.8261H198.233C197.811 78.5943 197.987 77.9833 197.734 77.6461L196.961 78.4117C197.004 78.6435 197.369 78.4679 197.551 78.6154C197.551 78.6997 197.587 78.784 197.46 78.8683C197.095 78.7348 196.688 78.5592 196.287 78.8683C195.564 78.8121 194.826 79.0088 194.124 78.7138C194.082 78.6927 194.018 78.7138 193.962 78.7138C193.78 78.3696 193.66 77.9622 193.295 77.7585H193.014C192.909 78.3064 192.403 78.6435 192.283 79.1352C191.679 79.36 191.181 78.9245 190.654 79.0369C190.232 78.8191 190.197 78.2712 189.769 78.0746C189.6 78.0465 189.558 78.201 189.446 78.2783C189.579 78.5241 189.698 78.777 189.361 78.9947C189.207 79.065 189.024 79.0228 188.849 79.0158C188.575 78.8823 188.652 78.4679 188.252 78.3766L188.28 78.3696ZM195.184 48.6224C194.931 48.6013 194.735 48.5521 194.538 48.6786C194.306 48.8331 194.011 48.819 193.801 48.7066C193.59 48.5872 193.428 48.5521 193.253 48.7066C193.091 48.8401 192.824 48.6505 192.698 48.9244C192.642 49.0508 192.473 49.2264 192.361 49.2194C192.002 49.2054 191.869 49.4653 191.679 49.6619C191.7 50.1185 191.588 50.5961 191.96 51.0106C192.866 51.2283 193.836 51.2424 194.896 51.5444L195.241 51.9729C195.564 51.8886 195.732 51.994 195.831 52.2609C196.02 52.7596 196.175 53.2583 196.14 53.7991L195.824 53.9186C195.824 54.0661 195.76 54.2698 195.838 54.3611C196.062 54.6491 195.978 54.9581 195.978 55.2602C195.978 55.6044 196.034 55.9204 196.301 56.1593C196.329 57.2199 196.105 58.3227 196.954 59.2007C196.421 59.3763 196.21 59.8399 195.817 60.1349V60.8022L195.507 61.0972V61.898C195.212 62.1649 195.198 62.5161 195.184 62.8814C195.149 63.8015 195.381 64.7498 194.875 65.6208C194.861 65.6418 194.875 65.677 194.875 65.698C195.016 66.3794 194.517 66.8781 194.37 67.4822C194.348 67.5735 194.194 67.6507 194.082 67.721C193.688 67.9739 193.267 67.8193 192.859 67.8755C192.621 68.1495 192.34 68.3602 191.946 68.3461C191.609 68.599 191.405 68.9221 191.244 69.3155C191.082 69.7088 191.504 69.9125 191.391 70.1654C191.743 70.7062 192.445 70.3972 192.719 70.8748C193.499 70.8678 194.229 71.205 195.107 70.9802C195.248 70.9802 195.107 70.6501 195.276 70.5868C195.746 70.4112 195.929 69.8774 196.343 69.7018C196.877 69.47 196.961 69.0275 197.116 68.585C197.13 68.5428 197.186 68.5007 197.228 68.4726C197.488 68.2829 197.601 67.9949 197.727 67.7842C197.889 67.0818 197.467 66.4847 197.594 65.8947C197.46 65.7402 197.376 65.6489 197.292 65.5505C197.292 65.5505 197.327 65.5154 197.376 65.4662H198.057C198.057 64.5671 198.057 63.7032 198.057 62.8322C198.057 62.783 197.98 62.7268 197.952 62.6987C198.064 62.3756 198.38 62.5231 198.556 62.3967C198.577 62.207 198.591 62.0244 198.408 61.898C198.542 61.7645 198.675 61.6311 198.802 61.5046H199.708L200.122 61.0762C200.186 61.1885 200.319 61.1675 200.452 61.1956C200.958 61.2869 201.415 61.0129 201.899 61.041C202.447 61.0762 202.848 60.8725 203.192 60.458C203.136 59.9242 203.332 59.3342 203.03 58.9127C202.623 58.5756 202.173 58.695 201.829 58.4843C201.422 58.6528 201.014 57.9855 200.691 58.4491C199.869 58.3087 199.16 58.0698 198.668 57.3253C198.872 57.241 198.9 57.0654 198.872 56.7985C198.675 56.665 198.528 56.4192 198.437 56.1382C198.528 56.0469 198.626 55.9485 198.717 55.8572C198.717 55.513 198.725 55.1689 198.717 54.8247C198.717 54.6491 198.451 54.5086 198.57 54.34C198.802 54.0029 198.682 53.6446 198.725 53.3145C198.521 53.1319 198.472 52.9071 198.408 52.6964C198.331 52.4365 198.17 52.1836 198.247 51.8886C197.959 51.6849 197.931 51.3899 197.903 51.0738C197.882 50.8982 197.72 50.6313 197.58 50.5961C197.095 50.4697 196.877 50.0764 196.582 49.7462C196.442 49.5917 196.21 49.4512 196.006 49.4231C195.725 49.388 195.522 49.1351 195.226 49.2405V48.6364L195.184 48.6224ZM178.235 72.975C177.947 72.9259 177.722 72.9891 177.638 73.3262C177.736 73.4527 177.8 73.5932 177.982 73.6072C178.256 73.4948 178.347 73.2982 178.235 72.975ZM187.676 75.0261C187.725 74.6398 187.619 74.429 187.254 74.3939C187.198 74.6257 187.184 74.8224 187.254 75.0261H187.676ZM165.634 66.5901C165.353 66.6042 165.254 66.7306 165.191 66.9413C165.297 67.0888 165.367 67.2995 165.648 67.2012C165.704 67.0045 165.711 66.8079 165.634 66.5901ZM179.113 72.6238H179.535V72.2375L179.317 72.0198C179.127 72.1673 178.987 72.3358 179.113 72.6309V72.6238Z" fill="#FFC93E"/>
<path fill-rule="evenodd" clip-rule="evenodd" d="M168.43 40.938C168.359 40.4884 168.542 40.3901 168.746 40.2917C168.865 40.6149 168.556 40.6219 168.43 40.938Z" fill="#FFC93E"/>
<path fill-rule="evenodd" clip-rule="evenodd" d="M186.895 38.6478C187 38.5358 187.105 38.5358 187.217 38.6478C187.112 38.7598 187.007 38.7598 186.895 38.6478Z" fill="#FFC93E"/>
<path fill-rule="evenodd" clip-rule="evenodd" d="M220.365 78.8402C219.852 79.0088 219.613 79.6339 218.981 79.5707L218.363 80.2169C218.019 80.1748 217.661 80.2942 217.323 80.0554C217.106 79.9008 216.944 80.3012 216.762 80.1959C216.516 80.0624 216.403 80.4347 216.136 80.2731C216.017 80.2029 215.743 80.3715 215.553 80.4277C215.539 80.519 215.581 80.6103 215.455 80.6805C215.209 80.2872 214.661 80.3012 214.373 79.9008H213.847L213.643 80.2029C213.228 80.2029 212.877 80.1818 212.54 80.2099C212.238 80.238 211.901 80.0554 211.662 80.3434C211.269 80.1186 210.889 80.1186 210.461 80.3644C210.124 80.1607 209.73 80.1186 209.33 80.2802C208.895 80.4558 208.445 80.2942 208.009 80.3644C207.813 80.3996 207.75 80.2169 207.581 80.1959C207.44 80.1537 207.412 80.3504 207.265 80.3644C206.654 80.4206 206.015 80.1959 205.418 80.5119C205.017 80.1959 204.554 80.4206 204.125 80.3715C203.935 80.3504 203.711 80.2802 203.535 80.4839C203.486 80.54 203.317 80.5471 203.24 80.5119C202.531 80.1959 201.793 80.4066 201.07 80.3785C200.845 80.3715 200.564 80.6454 200.346 80.5049C199.946 80.238 199.531 80.4277 199.124 80.3574C198.99 80.3363 198.962 80.4768 198.836 80.526C198.393 80.1186 197.74 80.5752 197.241 80.1959C197.024 80.231 196.82 80.5471 196.56 80.2591C196.434 80.1256 196.223 80.1537 196.118 80.2029C195.457 80.519 194.769 80.238 194.024 80.4066C193.701 80.6173 193.933 81.0317 193.849 81.3759L194.488 81.973V83.16L195.359 83.9116C195.387 84.2769 195.38 84.6281 195.612 84.8739C195.928 85.2041 195.97 85.5974 195.935 86.0118C196.462 86.2085 196.665 86.6721 196.897 87.1217C197.157 87.6133 197.417 87.8943 197.895 88.1191C198.049 88.1893 198.246 88.1683 198.429 88.1823C198.492 88.2877 198.653 88.3228 198.646 88.4843C198.632 88.7021 198.843 88.5897 198.948 88.7021L198.976 89.0463C199.103 89.2008 199.314 89.0463 199.475 89.2008C199.623 89.3413 199.524 89.5871 199.749 89.6644C200.002 89.7417 200.318 89.7417 200.444 90.0788H201.737L201.322 90.5494C199.847 90.5494 198.281 90.5494 196.715 90.5494C196.413 90.5494 196.104 90.4651 195.816 90.6899C195.724 90.7602 195.506 90.711 195.359 90.6759C194.769 90.5284 194.776 90.5635 194.116 90.6759C193.715 90.7391 193.287 90.8164 192.887 90.6127C192.641 90.4862 192.332 90.4862 192.128 90.5705C191.798 90.711 191.482 90.6899 191.152 90.718C191.067 90.718 190.983 90.8093 190.906 90.8585L190.597 90.5494C190.014 90.5494 189.403 90.5565 188.798 90.5494C188.461 90.5494 188.18 90.7672 187.829 90.725C187.506 90.6829 187.155 90.6337 186.86 90.8725C186.059 90.7953 185.237 91.0341 184.451 90.718C184.338 90.6759 184.191 90.718 184.064 90.718C183.903 90.5986 184.043 90.409 183.959 90.2896C183.769 90.2053 183.587 90.2474 183.411 90.2544C183.207 90.3879 183.137 90.5705 183.179 90.7953C183.137 90.8234 183.088 90.8796 183.053 90.8725C182.758 90.8164 182.442 90.9849 182.14 90.7461C182.006 90.6408 181.669 90.6337 181.535 90.7321C181.29 90.9077 181.044 90.8515 180.791 90.8725C180.587 90.8866 180.405 90.9217 180.208 91.006C179.976 91.0973 179.625 91.1324 179.372 90.9639C179.119 90.8023 178.866 90.9147 178.67 90.8796L178.052 91.2167C177.834 90.9006 177.454 91.0973 177.138 90.999C177.307 90.725 177.56 90.8796 177.749 90.8866C178.002 90.8936 178.15 90.6618 178.403 90.704C178.606 90.7391 178.824 90.711 179.042 90.711H179.751C179.906 90.3668 180.201 90.128 180.517 90.0999C180.833 90.0718 181.093 89.9313 181.402 89.8892C181.908 89.826 182.245 89.4045 182.519 89.0041C182.723 88.7021 182.884 88.379 183.214 88.1893C183.474 88.0418 183.474 87.6906 183.72 87.522C183.903 87.4588 183.987 87.6344 184.043 87.6766C184.282 87.6695 184.324 87.515 184.436 87.4448V86.3841C184.647 85.8643 185.448 85.9205 185.406 85.2181C185.617 84.9372 185.919 84.7475 186.192 84.5227C186.459 84.305 186.677 83.4902 186.677 83.0617C186.677 82.6543 186.642 82.2469 186.944 81.8887C187.042 81.7763 186.993 81.5445 187.021 81.2916C186.466 81.411 186.003 81.1301 185.483 81.1371C184.977 81.1441 184.472 81.1371 183.966 81.1371C183.79 81.116 183.727 80.9474 183.601 80.8561C183.151 80.6173 182.673 81.2916 182.238 80.814C182.013 80.814 181.964 81.0809 181.802 81.1231C181.634 81.1652 181.437 81.116 181.304 81.3197C180.693 80.814 180.074 81.5515 179.365 81.2284C179.211 81.102 179.016 81.02 178.782 80.9826L178.445 81.2987C177.988 81.3689 177.602 81.0177 177.188 81.1511L176.864 80.8351H175.748C175.481 81.1652 175.087 81.2425 174.659 81.3267L174.174 80.7016C173.823 80.6805 173.633 80.6524 173.387 80.7578C172.973 80.9334 172.509 80.7999 172.06 80.821C171.807 80.4838 171.554 80.821 171.315 80.807C170.971 80.7789 170.796 80.9896 170.585 81.1792L169.967 80.8351C169.609 80.7508 169.194 80.9685 168.85 80.6735C168.801 80.6314 168.674 80.6384 168.618 80.6735C168.105 80.9966 167.536 80.7437 167.017 80.8421C166.834 80.6805 166.574 80.6946 166.455 80.4628L165.787 80.8351C165.605 80.814 165.443 80.6103 165.176 80.6595C164.987 80.6946 164.769 80.7508 164.586 80.5471C164.509 80.4558 164.312 80.4628 164.221 80.5471C163.996 80.7437 163.842 80.6875 163.603 80.5471C163.448 80.4558 163.188 80.526 162.985 80.526C162.465 79.7955 161.727 79.3179 161.13 78.6787V78.3696C161.032 78.2221 160.885 78.3134 160.744 78.2642L159.852 76.9156V76.445L159.234 75.8339C159.143 75.567 159.297 75.279 159.079 75.005C158.967 74.8645 158.974 74.5344 159.1 74.3307C159.29 74.0357 159.227 73.7126 159.192 73.4176C159.121 72.8837 159.171 72.5396 159.522 72.1392C159.522 71.6264 159.536 71.0996 159.522 70.5728C159.508 70.2005 159.564 69.8634 159.852 69.5824C159.782 69.0837 159.957 68.5569 159.69 68.0582C159.543 67.7842 159.964 67.5103 159.824 67.2644C159.683 67.0116 159.676 66.7727 159.683 66.5269C159.683 66.3302 159.943 66.1897 159.817 65.9088L160.316 65.5084C160.295 64.3354 160.639 63.2607 160.456 62.193C160.646 61.9331 160.695 61.6311 160.885 61.5327C161.236 61.013 160.554 60.8303 160.653 60.3737C161.123 59.9663 161.243 59.3482 161.468 58.7652C161.706 58.1401 161.615 57.5711 161.439 56.96C161.545 56.7774 161.573 56.5386 161.756 56.377V55.6114C161.812 55.4709 161.938 55.5131 162.044 55.4639C162.072 55.2742 162.079 55.0705 162.142 54.8809C162.205 54.6983 162.317 54.5297 162.395 54.3892C162.184 53.9537 162.669 53.4761 162.212 53.1248C162.388 52.7455 162.549 52.3873 162.718 52.0361C162.992 51.4461 163.076 50.828 163.041 50.1747C163.013 49.6058 163.266 49.0719 163.21 48.4889C163.181 48.2079 163.448 47.9691 163.533 47.6741C163.708 47.056 163.638 46.4449 163.68 45.8408C163.785 45.7355 163.884 45.6371 163.975 45.5458C164.031 45.2508 163.898 44.9207 164.172 44.6467C163.954 44.45 163.982 44.1901 163.996 43.9373L164.453 43.4807C164.404 42.8626 164.959 42.3568 164.769 41.7598C165.436 40.9661 166.089 40.2215 166.525 39.3294C166.715 38.9431 166.932 38.627 167.438 38.5779C167.944 38.1494 168.365 37.5734 168.976 37.1871C169.243 37.0185 169.538 36.7937 169.609 36.4144C170.1 36.2599 170.648 36.5268 171.252 36.1616C171.301 36.1405 171.351 36.3793 171.533 36.3793C173.071 36.3653 174.631 36.5057 176.155 36.3301C177.447 36.1826 178.719 36.295 180.004 36.2107C180.222 36.1967 180.405 36.2458 180.573 36.3793C180.756 36.288 180.945 36.1054 181.142 36.2248C181.514 36.4566 181.845 36.3723 182.231 36.2669C182.624 36.1616 183.06 36.1335 183.453 36.295C183.657 36.3863 183.853 36.3934 184.05 36.3372C184.717 36.1616 184.809 36.1616 185.609 36.3582C185.708 36.3863 185.855 36.4144 185.919 36.3582C186.27 36.0632 186.677 36.281 187.049 36.1967C187.155 36.3653 187.309 36.3863 187.52 36.3653L187.934 36C188.173 36.3512 188.56 36.1124 188.855 36.2529C189.178 36.4074 189.445 36.3301 189.789 36.2529C190.21 36.1475 190.702 36.1545 191.173 36.3091C191.692 36.4847 192.268 36.3582 192.816 36.3582C193.02 36.1054 193.301 36.2248 193.554 36.2178C194.088 36.2037 194.614 36.2107 195.148 36.2178C195.289 36.2178 195.408 36.2107 195.485 36.0773C195.731 36.2529 196.054 36.2177 196.272 36.4004L196.455 36.2318C196.876 36.5057 197.333 36.3231 197.761 36.3582C197.937 36.1124 198.197 36.2248 198.422 36.2178C198.899 36.2037 199.377 36.2178 199.854 36.2107C200.051 36.2107 200.269 36.288 200.444 36.0843C200.494 36.0281 200.69 36.0141 200.739 36.0632C200.915 36.2318 201.112 36.2178 201.322 36.2178C202.011 36.2178 202.713 36.2739 203.395 36.1897C203.69 36.1545 203.928 36.0492 204.23 36.2037C204.371 36.281 204.659 36.288 204.764 36.2037C205.08 35.9298 205.425 36.1405 205.79 36.0281L206.155 36.3934C206.415 36.4425 206.584 36.1475 206.843 36.0632C207.293 36.0632 207.75 36.0983 208.199 36.0562C208.909 35.986 209.534 36.3442 210.215 36.4215C210.629 36.4706 210.812 36.9202 211.079 37.2152C211.149 37.2924 211.198 37.3767 211.276 37.4821H212.112C212.259 37.756 213.397 39.0204 213.615 39.1398V39.9897C214.015 40.1372 213.903 40.5657 214.113 40.8186C214.001 41.3735 214.352 41.8722 214.282 42.4271C214.254 42.6238 214.289 42.8064 214.415 43.0101C214.788 43.6001 214.928 44.2885 215.083 44.9628C215.146 45.2438 215.308 45.5107 215.455 45.7635C215.574 45.9672 215.61 46.1358 215.434 46.3185C215.919 47.2808 215.834 48.3555 216.094 49.4442L216.333 49.683C216.298 50.0483 216.481 50.3854 216.593 50.7437C216.733 51.1511 216.867 51.5514 216.832 52.001C216.804 52.4084 216.811 52.8088 216.965 53.2162C217.035 53.4058 217.183 53.4971 217.302 53.7781C217.288 54.2066 217.302 54.7544 217.59 55.2742C217.703 55.4779 217.611 55.794 217.611 56.075L217.921 56.3208V57.9645C218.223 58.2314 218.209 58.5615 218.279 58.8917C218.391 59.4185 218.616 59.9172 218.799 60.4299C218.82 60.4932 218.918 60.5283 218.904 60.6266C218.813 61.2307 219.199 61.7856 219.037 62.4178L219.585 62.8533C219.41 63.2677 219.747 63.5416 219.705 63.8858C219.662 64.223 219.691 64.5601 219.866 64.8552C220.035 65.1431 220.007 65.4452 220.028 65.7472C220.077 66.4567 220.14 67.1591 220.337 67.8474C220.365 67.9458 220.337 68.0582 220.337 68.2338L220.955 68.7957C221.067 69.1539 220.836 69.2803 220.681 69.4489C220.548 70.2567 220.843 70.8467 221.601 71.212V72.3569L221.32 72.6379C221.222 72.9189 221.44 73.242 221.138 73.4597C221.208 73.8671 221.018 74.2815 221.243 74.6889C221.383 74.9418 221.376 75.3071 221.257 75.5248C221.124 75.7636 221.116 75.9814 221.145 76.1921C221.201 76.6416 221.004 77.049 220.976 77.4845C220.962 77.7655 220.576 77.8287 220.618 78.1448C220.456 78.0465 220.309 77.9692 220.126 77.9973C219.901 78.1308 219.796 78.3134 219.887 78.5803C219.993 78.7559 220.274 78.489 220.372 78.8613L220.365 78.8402ZM213.481 47.2737V46.1358C213.151 46.0375 213.172 45.6441 212.926 45.4334C212.723 45.2508 212.863 44.9136 212.702 44.6537C212.554 44.4149 212.828 44.0286 212.526 43.7757C212.681 43.6774 212.751 43.4877 212.673 43.3683C212.463 43.0522 212.54 42.7221 212.526 42.392C212.519 42.104 212.526 41.816 212.526 41.6755C212.266 41.0574 212.006 40.6008 212.027 40.088C211.458 39.8563 211.184 39.3786 210.875 38.915C210.777 38.915 210.672 38.915 210.566 38.915C210.011 38.8799 209.421 39.0485 208.93 38.613C208.852 38.5498 208.642 38.5427 208.55 38.606C208.108 38.8729 207.63 38.7043 207.195 38.7605C206.801 38.4093 206.352 38.3882 205.895 38.4795C205.656 38.5006 205.523 38.7324 205.291 38.7605C205.158 38.613 204.926 38.5006 204.813 38.613C204.575 38.8307 204.315 38.7464 204.069 38.7535C203.514 38.7675 202.952 38.7535 202.418 38.7535C202.306 38.7043 202.278 38.5708 202.109 38.5989C201.695 38.9782 201.091 38.8729 200.585 39.0695C200.515 39.0976 200.395 39.1047 200.353 39.0695C200.086 38.8026 199.749 38.8939 199.461 38.9291C199.103 38.9712 198.815 38.7886 198.492 38.7394C198.302 38.7113 198.211 38.8939 198.028 38.8518C197.396 38.7043 196.771 38.6832 196.132 38.8939C195.865 38.9853 195.514 38.9853 195.247 38.6692C195.071 39.0344 194.741 39.0766 194.523 39.21L192.353 38.5919C192.247 38.7324 192.107 38.7535 191.938 38.7535C191.137 38.7535 190.344 38.7956 189.55 38.7394C188.707 38.6832 187.899 38.9361 187.063 38.9291C186.74 38.9291 186.417 39.0976 186.101 39.189C185.905 39.0766 185.722 38.9572 185.497 38.915C185.104 38.8378 184.872 39.2171 184.542 39.2452C184.099 39.0836 183.664 38.9923 183.313 38.7254C182.898 38.8729 182.533 39.0836 182.118 38.7745C181.985 38.6762 181.641 38.6762 181.507 38.7816C181.205 39.0204 180.889 38.922 180.601 38.901C180.271 38.8799 180.039 39.1609 179.709 39.0836C179.316 38.9923 178.923 38.8448 178.501 38.922C177.939 38.5849 177.321 38.8378 176.731 38.7675C176.682 38.7675 176.612 38.8658 176.59 38.8869C176.162 38.7745 175.776 38.5849 175.34 38.5989C173.823 38.6622 172.299 38.4304 170.789 38.7886C170.676 39.1609 170.367 39.2171 169.974 39.2452C169.939 39.2873 169.868 39.3646 169.805 39.4489C169.672 39.6315 169.566 39.8492 169.405 39.9897C169.243 40.1302 169.018 40.2215 168.808 40.2707C168.344 40.3901 168.169 40.8115 168.063 41.1487C167.944 41.535 167.733 41.6895 167.396 41.8441V43.1155C167.003 43.3543 166.869 43.7476 166.63 43.9232C166.518 44.2744 166.855 44.4219 166.764 44.6608C166.672 45.1173 166.103 44.8293 165.963 45.2648C165.872 45.4966 166.047 45.7425 166.16 46.0234L165.83 46.2833C165.731 46.7188 165.949 47.1403 165.64 47.4774C165.822 47.8076 165.64 48.1237 165.584 48.4397C165.499 48.9385 165.127 49.4091 165.478 49.9429C165.513 49.9991 165.499 50.1045 165.478 50.1747C165.366 50.6243 165.415 51.123 165.289 51.5304C165.099 52.1555 165.12 52.8158 164.853 53.4199C164.804 53.5322 164.783 53.7219 164.902 53.8694C165.05 54.052 164.966 54.2066 164.902 54.4173C164.825 54.6912 164.523 54.9792 164.727 55.2672C164.966 55.5973 164.825 55.8362 164.685 56.1171C164.628 56.2295 164.516 56.3489 164.537 56.4473C164.635 57.0303 164.319 57.5571 164.347 57.9715C164.256 58.4 164.066 58.6037 163.912 58.7371C163.884 59.2358 163.954 59.6854 163.828 60.0717C163.673 60.5494 163.785 61.0059 163.729 61.4625C164.123 61.8769 163.764 62.179 163.533 62.4388C163.224 62.7901 163.104 63.1764 163.09 63.6119C163.076 64.0895 163.09 64.5672 163.083 65.0448C163.083 65.1993 163.146 65.3609 163.034 65.5014C162.788 65.8034 162.957 66.0703 163.083 66.3443L162.641 67.2012C162.409 67.7491 162.907 68.2408 162.711 68.9221L162.261 69.3014C162.381 69.744 162.184 70.1162 162.029 70.4885C161.847 70.924 161.699 71.3946 161.84 71.8231C161.91 72.0479 161.945 72.2586 161.959 72.4974C161.51 72.7643 161.559 73.2701 161.383 73.6775C161.313 73.839 161.285 74.0287 161.341 74.127C161.545 74.4712 161.468 74.8294 161.482 75.0331C161.678 75.7074 162.254 75.9392 162.416 76.4871C162.247 76.6627 161.959 76.8313 162.191 77.1755C162.507 77.1614 162.83 77.2598 163.062 77.0069C163.547 77.1333 163.778 77.5829 164.207 77.7444V78.0675C164.867 78.3485 164.86 78.3064 165.513 78.1799C166.04 78.0816 166.588 78.0324 167.115 78.2923C167.403 78.0184 167.867 78.0043 168.098 77.6531H168.85L169.208 78.1097C169.637 78.1308 170.023 78.0746 170.36 78.194C170.627 78.2853 170.817 78.3204 171.077 78.194C171.35 78.0676 171.667 78.0395 171.933 78.2783C172.13 78.0254 172.587 78.2151 172.671 77.8287C173.029 77.7796 173.38 77.92 173.598 77.6531L174.764 78.1378L176.085 77.7796L176.492 78.2923H177.061C177.251 78.0184 177.511 77.8147 177.897 77.6742C177.995 77.7163 178.192 77.5969 178.325 77.6953C178.459 77.9481 178.578 78.1659 178.571 78.4117L179.035 78.6154C179.625 78.3134 180.278 78.1589 180.7 77.6672C181.128 77.6461 181.493 77.6882 181.648 78.1308C182.624 78.1589 183.601 78.208 184.443 77.6531C184.809 77.7304 184.991 78.0535 185.146 78.1097C185.574 78.1799 185.638 77.913 185.806 77.8217H186.445L186.747 78.1167H187.415L187.724 77.8077C188.166 77.8709 188.644 77.6953 189.079 77.9692C189.136 78.0043 189.269 78.0043 189.311 77.9692C189.606 77.6601 189.964 77.899 190.259 77.8077C190.435 78.0114 190.674 78.0395 190.892 78.1659L191.327 77.6391C191.615 77.7444 191.77 77.5759 191.952 77.4986L192.472 77.7725C192.999 77.5759 193.462 77.625 193.926 77.8358C194.01 77.7163 194.102 77.6531 194.256 77.6531C194.657 77.6672 195.078 77.5759 195.443 77.6812C195.83 77.7866 196.16 77.5407 196.518 77.6531C196.588 77.6742 196.729 77.625 196.75 77.6601C196.925 77.9762 197.178 77.6321 197.382 77.7515C197.621 77.8919 197.895 77.7796 198.155 77.8147C198.702 77.8919 199.229 77.5197 199.756 77.6672C200.318 77.8287 200.887 77.7515 201.442 77.8358C201.709 77.8779 201.969 77.8709 202.186 77.7936C202.692 77.618 203.205 77.6742 203.718 77.6461C204.153 77.625 204.525 77.7093 204.835 78.0324C205.01 78.2151 205.228 78.1027 205.418 78.1167C205.516 78.0184 205.614 77.92 205.706 77.8287C205.895 77.7444 206.12 77.899 206.303 77.7163C206.45 77.5618 206.731 77.5899 206.815 77.6601C207.082 77.8919 207.37 77.7936 207.644 77.8006C208.283 77.8147 208.923 77.8217 209.555 77.8006C209.78 77.7936 209.948 77.8779 210.131 77.9762L210.714 77.6531C211.037 77.618 211.374 77.7304 211.669 77.5267L211.915 77.7725C212.456 77.9552 212.905 77.5899 213.397 77.6461C213.861 77.7023 214.31 77.604 214.788 77.7374C215.251 77.8638 215.771 77.7655 216.221 77.7655C216.452 78.0043 216.607 78.2502 216.951 78.0675C217.239 77.7093 217.33 77.1895 217.773 76.9367C217.773 76.8102 217.731 76.6627 217.78 76.6065C218.124 76.2483 218.328 75.8409 218.412 75.3492C218.447 75.1455 218.7 75.0893 218.876 75.005C219.171 74.4361 218.981 73.825 219.037 73.3122C218.911 73.0734 218.749 72.9048 218.735 72.7222C218.707 72.3148 218.335 71.9285 218.707 71.4859C218.813 71.3595 218.813 70.9943 218.707 70.8748C218.468 70.6079 218.637 70.3129 218.539 70.0179C218.159 69.8704 218.293 69.4138 218.096 69.1961C218.504 68.2689 218.026 67.4119 218.096 66.4988L217.752 66.2319C217.857 65.7753 217.661 65.4101 217.52 65.0308C217.366 64.6163 217.52 64.1949 217.443 63.7875C217.38 63.3941 217.267 63.0078 217.183 62.6215C217.099 62.2281 216.874 61.8629 216.944 61.4484C216.888 61.1324 216.565 60.9708 216.516 60.8303C216.452 60.437 216.797 60.2684 216.649 60.0225C216.207 59.3061 216.242 58.4491 215.947 57.6976C215.813 57.6976 215.701 57.7116 215.694 57.5501C215.764 57.3534 215.982 57.1778 215.792 56.9179C215.715 56.8828 215.588 56.9249 215.546 56.8055C215.301 56.2927 215.385 55.7448 215.371 55.2321C215.146 54.9652 215.027 54.7053 215.048 54.3751C215.076 53.9326 214.907 53.5603 214.64 53.181C214.458 52.9282 214.191 52.584 214.535 52.2117C214.619 52.1204 214.619 51.9237 214.535 51.8535C214.359 51.6989 214.408 51.5163 214.415 51.3407C214.43 50.7718 214.001 50.3363 214.001 49.7181C214.001 49.7181 214.113 49.6619 214.085 49.4863L213.79 49.1562C213.706 48.4749 213.966 47.7935 213.46 47.2386L213.481 47.2737ZM180.039 79.5988L180.292 79.3459C180.348 79.0509 180.278 78.8262 179.948 78.777C179.66 78.7348 179.569 78.8683 179.527 79.3459L180.039 79.5988ZM194.79 85.766L194.923 85.5834C194.509 85.5412 194.523 85.0847 194.179 84.9793C193.996 85.0847 193.835 85.1689 193.87 85.4078C193.982 85.5553 194.172 85.4078 194.298 85.5061L194.39 85.766H194.783H194.79ZM173.128 79.079C173.149 78.7067 173.085 78.4679 172.699 78.4539C172.629 78.6786 172.629 78.8753 172.699 79.079H173.128ZM181.156 80.3996L181.43 80.1256C181.233 79.9922 181.142 79.7112 180.847 79.7323C180.707 80.0694 180.819 80.2591 181.156 80.3996ZM195.942 87.8241C196.258 87.9084 196.377 87.7468 196.455 87.3816C196.258 87.4448 196.097 87.2762 195.942 87.4729V87.8241ZM187.042 84.1926C187.295 84.2207 187.38 84.0732 187.478 83.9468C187.344 83.8414 187.274 83.6658 187.078 83.736C186.958 83.8625 187.014 84.01 187.042 84.1996V84.1926Z" fill="#6B8767"/>
<path fill-rule="evenodd" clip-rule="evenodd" d="M204.209 90.1561C204.216 90.2825 204.258 90.409 204.174 90.5354C203.893 90.6618 203.844 90.3598 203.682 90.2685C203.303 90.135 202.832 90.4581 202.502 90.0437C203.029 89.8681 203.071 89.8681 204.209 90.1561Z" fill="#6B8767"/>
<path d="M183.953 92.6497C183.861 92.741 183.763 92.8393 183.672 92.9306C183.622 92.9447 183.573 92.9657 183.531 92.9657C182.976 92.9657 182.421 92.9728 181.859 92.9657C181.663 92.9657 181.445 93.05 181.269 92.8463C181.192 92.755 181.016 92.7761 180.904 92.8463C180.588 93.043 180.293 93.0641 179.977 92.8323C179.886 92.7691 179.689 92.762 179.598 92.8182C179.155 93.0852 178.684 92.9096 178.172 92.9868C178.165 92.6918 178.172 92.4108 178.144 92.1299C178.123 91.9051 178.193 91.6873 178.024 91.4556C177.919 91.308 177.968 91.0411 178.115 90.8093C178.214 90.6548 178.453 90.4441 178.242 90.142H179.169L179.436 89.7979C180.047 89.7136 180.574 89.9173 181.094 89.9875C181.606 90.0578 182.112 90.0788 182.702 90.114L182.906 89.7627C183.475 89.8611 184.009 89.6363 184.514 89.9524L185.104 89.6223C185.442 89.8681 185.863 89.7627 186.278 89.7838C186.558 89.9313 186.825 90.128 187.156 90.135C187.261 90.1982 187.141 90.3598 187.324 90.416H188.258L188.427 90.2123C188.68 90.0437 188.869 90.1561 189.024 90.0929L189.326 90.3949C189.649 90.5565 189.797 90.2966 189.986 90.114H190.963L191.194 90.4019H191.918C192.311 90.0016 192.817 89.9243 193.33 89.9524C193.625 90.1982 193.639 90.6127 194.116 90.7461H194.426C194.573 90.5846 194.833 90.4792 194.847 90.1772C195.016 90.0156 195.275 90.2193 195.43 90.0648C195.641 89.8541 195.943 89.8892 196.09 89.9735C196.554 90.2334 196.968 90.0718 197.425 89.9173L197.91 90.4019C198.289 90.5073 198.401 90.2474 198.605 90.0858C198.928 90.3106 199.364 90.2193 199.63 90.416C199.954 90.4511 199.975 90.1842 200.319 90.114C200.305 90.114 200.459 90.114 200.635 90.114L200.958 90.423H201.611L201.71 90.135C201.871 90.1631 201.927 90.3247 202.061 90.416H203.367L203.599 90.114H205.882C205.952 90.4698 205.926 90.7836 205.805 91.0552L206.114 91.6522C206.191 91.891 205.798 91.8911 206.093 92.1931C205.482 92.1158 205.116 92.5443 204.596 92.5022C204.568 92.4179 204.533 92.3195 204.505 92.2282C204.456 92.2142 204.414 92.1861 204.365 92.1861C203.669 92.158 203.016 92.3617 202.37 92.5583C202.159 92.6216 202.026 92.6707 201.815 92.5724C201.555 92.453 201.281 92.4319 201.007 92.6005C200.825 92.7129 200.6 92.7199 200.424 92.5935C200.178 92.4179 199.841 92.4179 199.687 92.5302C199.328 92.8042 199.061 92.5935 198.766 92.4951C198.682 92.5513 198.605 92.6075 198.521 92.6637C198.24 92.5864 198.134 92.3125 197.917 92.179C197.783 92.179 197.65 92.179 197.446 92.179L197.341 91.877H196.758V92.3827C196.652 92.5303 196.533 92.467 196.441 92.4951C196.02 92.6426 195.556 92.7831 195.163 92.6286C194.566 92.3968 193.976 92.5513 193.393 92.4951C193.189 92.4741 193.007 92.5724 192.817 92.6286C192.192 92.8042 191.539 92.9938 190.885 92.6637C190.759 92.6005 190.555 92.6286 190.366 92.7199C189.958 92.9166 189.509 93.036 189.003 92.9447C188.926 92.9096 188.961 92.7901 188.933 92.6988C188.757 92.5935 188.497 92.5794 188.406 92.6567C187.914 93.0922 187.331 92.9306 186.776 92.9587C186.643 92.9657 186.509 92.9587 186.376 92.9587C186.004 92.8182 185.673 92.3898 185.217 92.7901C184.894 92.741 184.543 92.9517 184.248 92.6497C184.198 92.5935 184.044 92.6426 183.938 92.6426L183.953 92.6497ZM202.876 90.8796C202.763 90.9428 202.623 90.8304 202.503 90.9568V91.7787C202.7 92.0807 202.974 92.0456 203.269 91.9683V91.287L202.876 90.8866V90.8796Z" fill="#1F1F1F"/>
<path d="M184.473 67.6437C185.21 67.5524 185.934 67.8474 186.566 67.9598L187.374 68.7676C187.303 69.168 186.945 69.4068 186.671 69.7088H186.355C186.243 69.6597 186.292 69.5332 186.243 69.4489C185.892 69.2382 185.737 69.5613 185.54 69.7159H185.07C184.803 69.3436 184.318 69.3436 183.925 69.1539C183.56 68.9713 183.201 68.7395 182.808 68.5639C182.759 68.2548 182.485 68.1144 182.309 67.8966C182.134 67.6789 181.965 67.4611 181.965 67.1872C181.993 66.9905 182.162 66.9203 182.253 66.8008C182.485 66.3513 182 66.1265 181.93 65.7753C181.537 65.6278 181.094 65.6208 180.778 65.4241C180.602 65.1783 180.736 64.9394 180.595 64.7076C180.455 64.4688 180.539 64.1246 180.595 63.8086C180.75 63.0499 180.89 62.2703 180.209 61.6521C179.963 61.4344 179.879 61.1464 179.893 60.8233C179.9 60.6688 179.893 60.5142 179.893 60.3667C179.731 60.2473 179.563 60.2965 179.415 60.3035C179.261 60.3105 179.247 60.0858 179.141 60.1209C178.917 60.1771 178.846 60.3316 178.755 60.4019C178.165 60.2403 177.596 60.1911 177.013 60.451C176.585 60.3035 176.283 59.8891 175.798 59.7837C175.707 59.6994 175.777 59.58 175.749 59.4887C175.728 59.4185 175.686 59.3482 175.629 59.2991C175.552 59.2288 175.454 59.1867 175.348 59.1235C175.587 58.7161 175.903 58.5053 176.149 58.2103C176.458 58.3016 176.746 58.1682 176.985 57.9996C177.196 57.8521 177.477 57.8451 177.568 57.9294C177.863 58.1892 178.186 57.9715 178.439 58.0839C178.741 57.9364 178.966 57.7046 179.387 57.7608C179.507 57.6203 179.668 57.4517 179.809 57.2621C179.942 57.0935 180.279 57.1426 180.251 56.8195C180.378 56.7282 180.574 56.8757 180.68 56.7072C180.736 56.5456 180.581 56.4824 180.518 56.37C180.778 55.9134 180.778 55.3726 180.652 54.9371C180.441 54.2487 180.778 53.6798 180.862 53.0546C180.883 52.9071 181.01 52.7455 180.996 52.5629C180.968 52.1415 181.136 51.7832 181.312 51.418C181.48 51.0668 181.6 50.6805 181.804 50.3503C181.958 50.0974 182.021 49.7252 182.499 49.7533C182.675 49.7603 182.843 49.374 183.18 49.4863C183.229 49.2124 183.251 48.9595 183.489 48.798C183.77 48.6083 184.051 48.4468 184.41 48.524L184.852 48.0534H187.107C187.451 48.2009 187.493 48.6645 187.823 48.9033V49.8867L187.212 50.4276C187.001 50.4276 186.713 50.4487 186.425 50.4276C186.13 50.3995 185.92 50.6243 185.618 50.6102C185.4 50.6032 185.182 50.9122 184.936 50.6313C184.796 50.849 184.346 50.547 184.339 50.9895L183.574 51.2564L183.532 51.6357C183.412 51.8746 183.103 51.8254 182.927 52.1274C182.948 52.282 182.857 52.4997 183.061 52.7526C183.307 53.0616 183.251 53.4831 183.222 53.8624C183.026 53.9467 183.124 54.2206 182.941 54.3049C182.998 54.8528 182.717 55.3585 182.759 55.9134L182.436 56.2506V57.0443C182.049 57.4166 181.691 57.8099 181.586 58.3789C181.347 58.6107 181.045 58.7161 180.701 58.7512V59.3272H181.41L181.691 60.2824L182.246 60.8022C182.302 61.4414 182.366 62.0315 182.745 62.5442C182.92 62.7901 183.012 63.05 182.808 63.3871C182.653 63.647 182.59 64.0193 182.604 64.3283C182.646 65.115 182.843 65.8596 183.405 66.4637C183.756 66.843 183.988 67.3276 184.459 67.6437H184.473Z" fill="#1F1F1F"/>
<path d="M184.48 86.2366C184.564 86.1383 184.648 86.0891 184.662 86.0259C184.81 85.4218 185.013 84.8458 185.4 84.3471C185.505 84.2137 185.498 84.0591 185.4 83.9187C185.231 83.6798 185.252 83.4691 185.4 83.2092C185.533 82.9845 185.477 82.9002 185.28 82.4857C185.603 82.0643 185.365 81.5445 185.477 81.0598C185.758 80.9404 186.081 81.116 186.355 80.8772C186.566 80.6946 186.748 81.0809 187.079 80.9966C187.465 80.7086 187.985 80.5401 188.547 80.5541C189.017 80.5681 189.432 80.2731 189.909 80.3855C190.204 80.4558 190.534 80.2591 190.801 80.5401C190.836 80.5822 190.984 80.5822 191.026 80.5401C191.349 80.231 191.778 80.5049 192.129 80.3153C192.494 80.1116 192.902 80.2872 193.302 80.2099C193.499 80.0413 193.822 80.0343 193.934 79.7534C194.405 79.7112 194.826 79.7604 195.304 79.957C195.395 80.1467 195.184 80.4909 195.5 80.6524C195.332 80.9334 195.177 81.2214 195.388 81.4602C195.662 81.7693 195.655 82.1626 195.739 82.5068C195.831 82.8861 196.083 83.1601 196.189 83.5183C196.287 83.8414 196.21 84.1364 196.287 84.4384L196.926 85.5623C196.526 85.2251 195.964 85.2322 195.683 84.7967C195.477 84.984 195.358 85.1643 195.325 85.3375C195.353 85.6606 195.838 85.5131 195.788 85.9276C195.465 85.9978 195.1 85.9276 194.77 86.1032C194.51 86.2366 194.194 86.0891 193.976 85.9416C193.73 85.773 193.506 85.7449 193.267 85.8643C192.993 86.0048 192.719 86.0189 192.466 85.8784C192.213 85.7379 191.883 85.7168 191.722 85.8222C191.335 86.054 190.9 85.8292 190.541 86.047C190.485 86.0821 190.471 86.1032 190.422 86.0751C189.98 85.8433 189.558 85.9697 189.102 86.0961C188.757 86.1875 188.364 86.1172 187.992 86.1172H187.001L186.439 86.4333C185.828 86.1102 185.133 86.3841 184.459 86.2366H184.48ZM189.418 83.2373V82.4436C189.123 82.556 188.954 82.268 188.694 82.2961C188.624 82.3031 188.554 82.3312 188.49 82.3523V82.7878L188.863 83.2443H189.418V83.2373ZM193.471 83.5956C194.018 83.6728 194.37 84.017 194.847 83.8414V83.4902L194.475 83.1179H193.948L193.471 83.5956ZM192.326 83.9468C192.29 84.1294 192.276 84.298 192.452 84.4384C192.543 84.5157 192.635 84.5368 192.74 84.5227C193.077 84.4736 193.14 84.2488 193.091 83.9397C192.979 83.9046 192.951 83.729 192.789 83.729C192.635 83.8063 192.48 83.8765 192.326 83.9538V83.9468Z" fill="#1F1F1F"/>
<path d="M16.694 32H20.258V25.51H26.572V32H30.136V16.27H26.572V22.694H20.258V16.27H16.694V32Z" fill="#1F1F1F"/>
<path d="M38.1834 32.242C41.3294 32.242 43.3094 30.856 43.6834 28.37H40.6694C40.4714 29.338 39.7454 29.976 38.2714 29.976C36.5334 29.976 35.4994 28.876 35.4114 26.962H43.7054V26.082C43.7054 21.968 41.0654 20.23 38.0954 20.23C34.7514 20.23 32.1774 22.584 32.1774 26.214V26.39C32.1774 30.064 34.7074 32.242 38.1834 32.242ZM35.4554 25.004C35.6974 23.376 36.6654 22.43 38.0954 22.43C39.6134 22.43 40.4934 23.266 40.6034 25.004H35.4554Z" fill="#1F1F1F"/>
<path d="M45.6615 32H48.8295V15.28H45.6615V32Z" fill="#1F1F1F"/>
<path d="M51.5195 35.916H54.7095V30.24C55.3035 31.362 56.6015 32.242 58.3835 32.242C61.2435 32.242 63.3995 30.108 63.3995 26.302V26.126C63.3995 22.32 61.1995 20.23 58.3835 20.23C56.6895 20.23 55.3475 21.198 54.7095 22.298V20.494H51.5195V35.916ZM57.4375 29.756C55.6995 29.756 54.5995 28.634 54.5995 26.324V26.148C54.5995 23.838 55.7435 22.672 57.4155 22.672C59.0215 22.672 60.1655 23.816 60.1655 26.148V26.324C60.1655 28.568 59.1975 29.756 57.4375 29.756Z" fill="#1F1F1F"/>
<path d="M73.7923 32.242C75.6843 32.242 76.8503 31.362 77.4443 30.196V32H80.6123V20.494H77.4443V27.248C77.4443 28.942 76.3883 29.778 75.0463 29.778C73.6823 29.778 73.0443 29.03 73.0443 27.468V20.494H69.8763V27.908C69.8763 30.922 71.5483 32.242 73.7923 32.242Z" fill="#1F1F1F"/>
<path d="M87.395 32.242C90.431 32.242 92.235 30.944 92.235 28.458C92.235 25.994 90.651 25.268 87.769 24.85C86.097 24.608 85.547 24.322 85.547 23.596C85.547 22.892 86.141 22.408 87.175 22.408C88.275 22.408 88.803 22.848 88.979 23.794H91.905C91.619 21.154 89.705 20.23 87.153 20.23C84.799 20.23 82.599 21.418 82.599 23.816C82.599 26.06 83.787 26.94 86.845 27.402C88.495 27.644 89.177 27.974 89.177 28.766C89.177 29.558 88.605 30.02 87.373 30.02C85.987 30.02 85.481 29.426 85.349 28.392H82.379C82.489 30.878 84.293 32.242 87.395 32.242Z" fill="#1F1F1F"/>
<path d="M16.408 57H19.598V50.202C19.598 48.64 20.588 47.848 21.82 47.848C22.942 47.848 23.624 48.508 23.624 49.982V57H26.792V50.202C26.792 48.64 27.782 47.848 29.014 47.848C30.158 47.848 30.818 48.508 30.818 49.982V57H33.986V49.63C33.986 46.572 32.336 45.23 30.202 45.23C28.75 45.23 27.254 45.846 26.33 47.232C25.78 45.868 24.636 45.23 23.118 45.23C21.402 45.23 20.17 46.176 19.598 47.254V45.494H16.408V57Z" fill="#1F1F1F"/>
<path d="M36.5788 57H39.7468V45.494H36.5788V57ZM38.1408 43.932C39.1748 43.932 39.9668 43.184 39.9668 42.194C39.9668 41.204 39.1748 40.456 38.1408 40.456C37.1288 40.456 36.3368 41.204 36.3368 42.194C36.3368 43.184 37.1288 43.932 38.1408 43.932Z" fill="#1F1F1F"/>
<path d="M47.5623 61.246C51.3463 61.246 53.6123 59.508 53.6343 56.098V45.494H50.4663V47.21C49.8063 46.044 48.6843 45.23 46.8143 45.23C43.9543 45.23 41.7543 47.54 41.7543 50.84V50.994C41.7543 54.404 43.9763 56.494 46.7703 56.494C48.4643 56.494 49.8283 55.482 50.4663 54.36V56.098C50.4663 57.902 49.4983 58.914 47.5623 58.914C45.9343 58.914 45.2083 58.254 45.0103 57.242H41.8423C42.1503 59.618 43.8443 61.246 47.5623 61.246ZM47.7163 54.096C46.1323 54.096 45.0103 52.908 45.0103 50.994V50.818C45.0103 48.926 46.0003 47.65 47.7823 47.65C49.5203 47.65 50.5543 48.838 50.5543 50.796V50.95C50.5543 52.908 49.3883 54.096 47.7163 54.096Z" fill="#1F1F1F"/>
<path d="M56.2246 57H59.4146V51.236C59.4146 49.036 60.7786 48.266 63.1326 48.288V45.318C61.2626 45.34 60.1406 46.154 59.4146 47.694V45.494H56.2246V57Z" fill="#1F1F1F"/>
<path d="M67.8937 57.242C69.6977 57.242 70.7097 56.538 71.3697 55.614V57H74.4717V49.498C74.4717 46.374 72.4697 45.23 69.6537 45.23C66.8377 45.23 64.6817 46.44 64.4837 49.168H67.4977C67.6297 48.178 68.2017 47.54 69.4557 47.54C70.9077 47.54 71.3257 48.288 71.3257 49.652V50.114H70.0277C66.5077 50.114 64.0437 51.126 64.0437 53.81C64.0437 56.23 65.8037 57.242 67.8937 57.242ZM68.8397 55.02C67.6737 55.02 67.1677 54.47 67.1677 53.634C67.1677 52.402 68.2457 52.006 70.0937 52.006H71.3257V52.974C71.3257 54.25 70.2477 55.02 68.8397 55.02Z" fill="#1F1F1F"/>
<path d="M81.1917 57.22C82.0497 57.22 82.6877 57.066 83.1277 56.912V54.448C82.7537 54.602 82.4017 54.668 81.9177 54.668C81.1037 54.668 80.6417 54.228 80.6417 53.304V47.76H83.0617V45.494H80.6417V43.008H77.4737V45.494H75.9997V47.76H77.4737V53.59C77.4737 55.988 78.7717 57.22 81.1917 57.22Z" fill="#1F1F1F"/>
<path d="M90.3646 57.242C93.5106 57.242 95.4906 55.856 95.8646 53.37H92.8506C92.6526 54.338 91.9266 54.976 90.4526 54.976C88.7146 54.976 87.6806 53.876 87.5926 51.962H95.8866V51.082C95.8866 46.968 93.2466 45.23 90.2766 45.23C86.9326 45.23 84.3586 47.584 84.3586 51.214V51.39C84.3586 55.064 86.8886 57.242 90.3646 57.242ZM87.6366 50.004C87.8786 48.376 88.8466 47.43 90.2766 47.43C91.7946 47.43 92.6746 48.266 92.7846 50.004H87.6366Z" fill="#1F1F1F"/>
<path d="M20.61 82.22C21.468 82.22 22.106 82.066 22.546 81.912V79.448C22.172 79.602 21.82 79.668 21.336 79.668C20.522 79.668 20.06 79.228 20.06 78.304V72.76H22.48V70.494H20.06V68.008H16.892V70.494H15.418V72.76H16.892V78.59C16.892 80.988 18.19 82.22 20.61 82.22Z" fill="#1F1F1F"/>
<path d="M29.849 79.822C28.045 79.822 27.033 78.502 27.033 76.302V76.126C27.033 73.926 28.089 72.65 29.849 72.65C31.631 72.65 32.665 73.97 32.665 76.17V76.324C32.665 78.502 31.631 79.822 29.849 79.822ZM29.827 82.242C33.281 82.242 35.899 79.932 35.899 76.302V76.126C35.899 72.54 33.303 70.23 29.849 70.23C26.395 70.23 23.777 72.584 23.777 76.192V76.368C23.777 79.954 26.395 82.242 29.827 82.242Z" fill="#1F1F1F"/>
<path d="M42.7606 82H46.3246V75.906H51.4946V73.222H46.3246V69.064H52.8586V66.27H42.7606V82Z" fill="#1F1F1F"/>
<path d="M57.4093 82.242C59.2133 82.242 60.2253 81.538 60.8853 80.614V82H63.9873V74.498C63.9873 71.374 61.9853 70.23 59.1693 70.23C56.3533 70.23 54.1973 71.44 53.9993 74.168H57.0133C57.1453 73.178 57.7173 72.54 58.9713 72.54C60.4233 72.54 60.8413 73.288 60.8413 74.652V75.114H59.5433C56.0233 75.114 53.5593 76.126 53.5593 78.81C53.5593 81.23 55.3193 82.242 57.4093 82.242ZM58.3553 80.02C57.1893 80.02 56.6833 79.47 56.6833 78.634C56.6833 77.402 57.7613 77.006 59.6093 77.006H60.8413V77.974C60.8413 79.25 59.7633 80.02 58.3553 80.02Z" fill="#1F1F1F"/>
<path d="M70.6853 82.242C73.7213 82.242 75.5253 80.944 75.5253 78.458C75.5253 75.994 73.9413 75.268 71.0593 74.85C69.3873 74.608 68.8373 74.322 68.8373 73.596C68.8373 72.892 69.4313 72.408 70.4653 72.408C71.5653 72.408 72.0933 72.848 72.2693 73.794H75.1953C74.9093 71.154 72.9953 70.23 70.4433 70.23C68.0893 70.23 65.8893 71.418 65.8893 73.816C65.8893 76.06 67.0773 76.94 70.1353 77.402C71.7853 77.644 72.4673 77.974 72.4673 78.766C72.4673 79.558 71.8953 80.02 70.6633 80.02C69.2773 80.02 68.7713 79.426 68.6393 78.392H65.6693C65.7793 80.878 67.5833 82.242 70.6853 82.242Z" fill="#1F1F1F"/>
<path d="M81.5303 82.22C82.3883 82.22 83.0263 82.066 83.4663 81.912V79.448C83.0923 79.602 82.7403 79.668 82.2563 79.668C81.4423 79.668 80.9803 79.228 80.9803 78.304V72.76H83.4003V70.494H80.9803V68.008H77.8123V70.494H76.3383V72.76H77.8123V78.59C77.8123 80.988 79.1103 82.22 81.5303 82.22Z" fill="#1F1F1F"/>
<path d="M84.4552 82H87.7992L88.8772 78.502H94.5752L95.6532 82H99.3712L94.2672 66.27H89.6252L84.4552 82ZM91.7372 69.174L93.8052 75.972H89.6472L91.7372 69.174Z" fill="#1F1F1F"/>
<path d="M101.301 82H104.843V76.28H106.845C110.431 76.28 112.741 74.696 112.741 71.374V71.286C112.741 67.964 110.563 66.27 106.735 66.27H101.301V82ZM104.843 73.794V68.976H106.647C108.341 68.976 109.309 69.636 109.309 71.308V71.396C109.309 72.958 108.385 73.794 106.647 73.794H104.843Z" fill="#1F1F1F"/>
<path d="M114.941 82H118.527V66.27H114.941V82Z" fill="#1F1F1F"/>
</g>
<defs>
<clipPath id="clip0_678_1958">
<rect width="240" height="100" fill="white"/>
</clipPath>
<clipPath id="clip1_678_1958">
<rect width="44" height="24" fill="white" transform="translate(168 6)"/>
</clipPath>
</defs>
</svg>
