<svg width="243" height="40" viewBox="0 0 243 40" fill="none" xmlns="http://www.w3.org/2000/svg">
<g clip-path="url(#clip0_678_1982)">
<rect width="243" height="40" rx="2" fill="#FEFBF1"/>
<g opacity="0.82">
<path d="M36.4366 -5.93745C36.4538 -6.0756 36.4433 -6.21716 36.4483 -6.37084L37.1813 -7.07956L37.5635 -6.54123L38.7134 -6.53909C38.7199 -6.93103 38.7074 -7.28321 38.7087 -7.63372C38.8779 -7.64081 39.0489 -7.66172 39.2319 -7.6671C39.2815 -8.06773 39.3364 -8.3976 39.1667 -8.83943C39.0239 -8.36618 38.6254 -8.09289 38.7209 -7.61817C38.448 -7.68003 38.4105 -7.26387 38.1669 -7.33613C37.863 -7.37378 37.7833 -7.63614 37.6019 -7.7568C37.619 -7.89495 37.5912 -8.01066 37.6791 -8.15406C37.9273 -8.57218 38.1859 -8.96096 38.1836 -9.5083C38.1797 -9.92959 38.3949 -10.4219 38.7883 -10.6537C39.6338 -11.1381 40.0233 -11.7912 40.1708 -12.7548C40.2479 -13.2642 40.8846 -13.6482 40.9771 -14.282C41.369 -14.3877 41.6553 -14.6608 41.9312 -14.9633C42.244 -14.7703 42.5118 -14.5547 42.4036 -14.0211L43.2349 -14.8439L43.2326 -15.3912C43.5222 -15.8042 44.0676 -16.0171 44.124 -16.5852C44.7006 -16.598 44.7432 -17.1678 44.9794 -17.4892C45.2673 -17.8884 45.6728 -18.1047 45.9953 -18.4435C46.3178 -18.7823 46.6525 -19.1054 47.006 -19.4684C47.4084 -19.4326 47.7448 -19.6574 48.1003 -19.8098L48.5012 -19.5357C48.7326 -19.479 48.8067 -19.6241 48.9257 -19.6794C49.3882 -19.9027 48.9352 -20.548 49.4149 -20.7971L51.2221 -21.3447L52.4328 -22.6255C52.8195 -22.6898 53.1289 -22.3569 53.3429 -22.3865C54.446 -22.5724 55.5874 -22.5011 56.6488 -22.9167C56.8697 -23.0015 56.8108 -23.2053 56.8641 -23.4091C57.3196 -23.6893 57.9884 -23.1996 58.3814 -23.7681C58.5214 -23.6526 58.6079 -23.4455 58.91 -23.5063C59.2069 -23.6378 59.0768 -24.1729 59.4858 -24.3046C60.432 -24.3557 61.3224 -24.8626 62.3155 -24.6133C62.5469 -24.5566 62.4781 -24.3407 62.5283 -24.1802C62.7116 -23.9611 62.9704 -24.1254 63.2018 -24.0686L63.6571 -24.5734L67.4015 -25.1334C67.5829 -25.0127 68.0008 -24.989 68.21 -24.7527C69.6995 -25.2274 70.9554 -24.7212 72.4755 -24.084L74.019 -24.0892L74.7472 -22.947C75.8675 -23.1588 76.8782 -22.5987 78.006 -22.3047L78.7683 -21.5511L80.2273 -21.5527C80.3259 -21.4423 80.4279 -21.2473 80.5868 -21.1715C81.0498 -20.9458 81.5439 -20.7443 82.0275 -20.5722C82.5094 -20.3862 82.3877 -19.6298 82.999 -19.5821C83.5108 -18.8454 84.3091 -18.3819 84.9436 -17.616C85.4563 -17.6787 85.9538 -17.5048 86.0391 -16.835C86.2949 -16.635 86.7245 -16.9325 86.9131 -16.5304C87.9812 -17.1134 88.8865 -16.6085 89.6331 -15.9549C90.2294 -15.4462 90.8274 -14.9513 91.4891 -14.5187C91.6565 -14.6242 91.7823 -14.847 92.0552 -14.7852C92.2054 -14.7525 92.2283 -14.371 92.4542 -14.6096C92.7336 -14.9396 92.791 -14.4976 92.9723 -14.4892C93.1553 -14.4946 93.3694 -14.5242 93.5111 -14.4225C93.708 -14.3139 93.8499 -14.1 94.0244 -13.924C95.1607 -13.8113 96.2563 -14.5032 97.2132 -14.1883C98.3625 -14.7473 99.2769 -15.4475 100.55 -15.3039C100.954 -16.7547 102.615 -16.6891 103.515 -17.7278C103.357 -18.4908 103.634 -19.2561 103.88 -20.1093C104.89 -20.5593 105.229 -21.4851 105.518 -22.5715C105.822 -23.6699 106.493 -24.6669 107.559 -25.2362C107.882 -25.4627 107.591 -25.9476 107.985 -26.1794C108.349 -26.4008 108.407 -26.7583 108.215 -27.1328L107.721 -26.8853C107.784 -27.5086 108.047 -27.7006 108.589 -27.7737C108.944 -27.8138 109.274 -28.0956 109.617 -28.2635C110.241 -27.8636 110.049 -26.7652 111.007 -26.5764C111.481 -27.4575 110.486 -28.254 110.927 -29.0971L111.41 -29.2617C111.306 -29.5551 110.94 -29.3199 110.842 -29.6547L110.848 -30.1589C111.134 -30.432 111.457 -30.9953 111.876 -31.0976C112.482 -31.2329 112.447 -31.7422 112.737 -32.043C113.089 -32.3922 113.402 -32.7741 113.903 -32.9646C114.286 -33.1135 114.256 -33.7765 114.795 -33.822L114.796 -34.3969L116.025 -35.6052C116.626 -35.8113 117.419 -35.7552 117.658 -36.6653C117.737 -36.9641 119.384 -38.2609 119.703 -38.4598C120.326 -38.8456 121.126 -38.957 121.389 -39.8361C121.508 -40.2282 122.031 -40.3738 122.377 -40.4571C123.242 -40.6445 123.975 -41.2409 124.854 -41.3144C125.747 -41.3862 126.638 -41.3319 127.536 -41.3329L127.928 -41.3264C128.625 -41.8573 129.458 -42.1327 129.893 -42.696C130.226 -42.781 130.307 -42.6447 130.407 -42.5481C131.652 -42.7446 132.883 -43.1673 134.161 -42.7284C134.384 -42.827 134.285 -43.0497 134.393 -43.2466L135.669 -43.2428C135.889 -43.0894 135.622 -42.7438 135.805 -42.5247C136.327 -42.5161 136.724 -42.7755 136.995 -43.303C137.562 -43.1206 138.211 -43.0402 138.674 -42.7023C139.175 -42.3316 139.674 -42.396 140.134 -42.4794C141.944 -42.8301 143.124 -42.7261 144.425 -41.7934C144.734 -41.5728 145.031 -41.7043 145.318 -41.5285C146.019 -41.0769 146.755 -40.6772 147.5 -40.2343L147.83 -40.516C148.346 -40.1575 148.989 -39.9096 149.414 -39.38C149.886 -38.7744 150.586 -38.4212 151.213 -38.2734C152.043 -38.0723 152.593 -37.6395 153.143 -37.0945C153.43 -36.8065 153.682 -36.4666 154.136 -36.3963C153.801 -36.1853 153.845 -35.8573 153.861 -35.5327C154.008 -35.248 154.482 -35.5679 154.479 -35.0914L154.94 -35.413C155.061 -35.37 155.156 -35.3442 155.235 -35.3063C155.567 -35.153 155.481 -34.5745 155.749 -34.5834C156.284 -34.6013 156.112 -34.1176 156.299 -33.9262C156.534 -33.6726 156.94 -33.7766 157.109 -33.447C157.211 -33.2521 157.564 -33.0401 157.522 -32.933C157.307 -32.3285 157.956 -32.3603 158.116 -32.06C158.297 -31.7149 158.358 -31.3005 158.674 -31.0229L158.435 -30.7861L158.805 -30.0389L159.153 -30.3604C159.708 -30.1936 159.99 -29.7518 160.192 -29.2358C160.978 -29.2366 161.005 -28.4338 161.332 -28.0146C161.658 -27.5953 162.014 -27.1866 162.343 -26.7812C162.359 -26.5688 162.306 -26.2528 162.387 -26.2287C162.997 -25.9427 162.733 -25.1759 163.184 -24.8535C163.659 -24.5 163.324 -23.7141 163.966 -23.4662C164.034 -23.4438 164.074 -23.2004 164.032 -23.0933C163.903 -22.7305 164.332 -22.453 164.18 -22.1351C163.87 -21.5563 164.586 -22.0147 164.676 -21.6108C164.815 -21.0325 164.774 -20.3643 165.174 -19.8519C165.222 -19.7898 165.146 -19.6309 165.183 -19.5843C165.924 -18.777 166.086 -17.705 166.484 -16.7299C166.893 -15.7255 167.329 -14.7176 167.708 -13.7028C167.77 -13.5267 167.85 -13.3766 168.013 -13.2162C167.939 -12.6222 168.102 -12.0128 167.743 -11.3839C167.476 -10.9261 167.859 -10.3878 168.047 -9.98574C168.269 -9.50944 168.407 -8.93116 168.852 -8.55352L168.845 -7.13767C168.568 -7.05967 168.195 -7.33037 167.901 -6.76372C168.401 -6.72973 168.417 -6.18065 168.844 -6.00155L168.845 -3.74316C168.448 -3.14704 168.449 -2.36139 168.838 -1.76613L168.831 -0.350281C168.403 -0.178876 168.321 0.259747 168.278 0.605118C168.157 2.03489 167.573 3.35124 167.319 4.72245C167.185 5.46332 166.979 6.11103 166.565 6.73307C166.36 7.03027 166.236 7.35156 166.257 7.74693C166.306 8.59465 166.273 9.43205 166.27 10.2453C165.337 11.322 164.79 12.6849 163.456 13.3753L163.459 15.0449C162.773 15.7173 162.112 16.407 161.207 17.2627C161.173 17.7634 161.122 18.6268 160.111 18.9784C159.876 19.0615 159.672 19.3449 159.505 19.5626C159.002 20.2297 157.833 21.5156 157.308 21.675C156.856 21.8153 156.67 22.185 156.345 22.4254C156.13 22.581 156.007 22.8885 155.664 22.8319C155.455 23.269 155.25 23.6784 155.213 24.2068C155.158 24.9855 154.584 25.5456 153.843 25.6362C152.747 25.7669 151.755 26.191 150.96 26.8359C150.349 27.3494 149.636 27.3312 148.999 27.603C148.599 27.7778 148.1 27.8422 147.836 28.1602C147.46 28.5906 146.855 28.3754 146.526 28.7694C144.846 28.7436 143.358 29.5412 141.789 29.978C141.325 30.1028 140.752 30.3124 140.495 30.1262C140.03 29.8022 139.78 30.3463 139.422 30.1758C139.105 30.0242 138.813 29.7776 138.407 29.8816C138.233 29.9302 138.027 29.8907 137.816 29.8926L137.644 30.3763C136.534 30.6175 135.419 30.9002 134.197 30.6926C133.861 30.4547 133.341 30.3481 133.051 29.8633C132.302 30.023 131.481 29.6268 130.805 30.1041C130.176 29.9701 129.699 29.406 129.143 29.3652C127.919 29.2837 126.971 28.2125 125.703 28.4901L125.179 27.9623C124.951 27.878 124.974 28.2596 124.729 28.2011C124.034 27.8065 123.555 26.9195 122.569 27.0639C122.315 27.1868 122.576 27.5698 121.979 27.636C121.539 27.6797 121.742 26.7229 121.077 26.6546C120.579 26.593 120.047 26.3588 119.596 26.1486C119.052 25.8989 118.538 25.9754 118.072 25.8896C117.859 26.0176 117.897 26.1626 117.894 26.3024C117.689 26.5996 117.401 26.4376 117.136 26.4189C117.019 26.1238 116.96 25.8079 116.671 25.6459C116.213 25.491 115.754 25.6866 115.29 25.4747C115.011 25.3421 114.53 25.4929 114.141 25.571C113.738 25.6612 113.201 25.8051 112.939 25.3099C112.156 25.4091 111.811 26.152 111.143 26.2235L111.056 26.928C110.407 27.2965 110.163 26.6631 109.771 26.4322C108.785 26.6888 108.852 28.0718 107.815 28.1817C107.573 28.4323 107.86 28.8325 107.508 29.0695C107.125 29.3306 106.901 29.7797 106.876 30.2114C106.83 31.2578 106.292 31.8645 105.414 32.2747C105.34 32.3076 105.286 32.3992 105.157 32.5374C105.344 33.1778 104.739 33.762 104.885 34.5095C104.262 35.0075 103.846 35.7555 102.97 36.1519C102.404 36.8673 102.65 37.8236 102.586 38.7974C101.918 38.9812 102.193 39.8149 101.726 40.1918C101.258 40.5687 101.128 41.1698 100.804 41.6346C100.462 42.1253 100.021 42.5195 100.058 43.1272L98.8969 44.2317L98.1821 44.2273C97.971 43.8926 98.1606 43.4953 98.0618 43.1604C97.5818 43.1851 97.9882 43.7545 97.5807 43.7601C97.9058 44.1931 97.7734 44.6957 97.7981 45.1757C97.6138 45.6438 96.982 45.7619 96.9343 46.3732C96.9021 46.8601 96.0505 46.6003 96.0392 47.2582C96.0325 47.4257 95.7029 47.5952 95.3853 47.6681C94.6482 47.8433 93.913 48.1169 93.8208 49.0874C93.7729 49.4742 93.3466 49.6317 93.1017 49.91L92.5543 49.9124C92.4025 50.0058 92.413 50.1473 92.4235 50.2889C91.3868 50.6561 90.6059 50.7323 90.0808 50.5177C88.7899 51.0871 87.6271 51.9811 86.1248 51.8791C84.7599 52.5937 83.28 52.4244 81.8314 52.4553C81.4792 52.4678 81.1078 52.2956 80.7593 52.6171C80.4437 52.9006 80.0546 52.4176 79.6008 52.684C79.2523 52.8933 78.6806 52.7523 78.2075 52.7218C77.7482 52.6929 77.2787 52.8592 76.8485 52.5955C76.7708 52.5438 76.7068 52.4937 76.6031 52.4248C76.1268 52.6463 75.6713 52.9266 75.0994 52.5612C74.6951 52.3147 74.2307 52.3272 73.8357 52.6851L73.5712 52.442C73.3398 52.3852 73.2 52.4942 73.0483 52.6998C72.4708 51.9269 71.8625 52.9877 71.2163 52.6552L71.1448 51.9871C70.7078 51.7787 70.2827 51.4735 69.7493 51.5897C69.259 51.6973 68.9528 51.1124 68.454 51.289C68.1961 50.7662 67.6487 50.6563 67.1894 50.6274C66.8008 50.5933 66.3243 50.5903 66.0928 50.4214C65.6158 50.0817 65.2194 50.6779 64.898 50.4417C64.5143 50.1417 64.1259 50.2198 63.7253 50.1702C63.4075 50.1308 63.2161 50.3175 62.9936 50.5284C62.0243 49.9735 61.3188 48.9883 60.0583 48.9724L60.424 48.625C60.1925 48.4561 60.1041 48.1506 59.6915 48.1977L59.3866 48.8472C58.3411 48.1145 57.0755 48.0278 55.9233 47.5905L55.8275 46.7791C54.8901 46.9856 53.9776 46.1993 52.9338 46.9257C52.8037 46.3905 52.4013 46.2425 52.0677 45.9907C51.773 46.4452 51.0507 45.9349 50.9011 46.4634C50.4937 46.5812 50.4656 46.1289 50.1877 46.2207C49.8321 46.2608 49.7514 46.6856 49.3872 46.7948C48.9809 46.3377 48.5533 46.8458 48.0974 46.7893C47.6139 46.7294 47.0753 46.8872 46.7554 46.4127C46.3966 46.7049 46.7126 46.7581 46.8009 46.9514C45.8396 47.3513 45.3019 48.2945 44.3701 48.7963C43.7541 49.1267 43.0307 49.1915 42.4978 49.7567C41.9355 50.3322 41.4992 50.7972 41.3394 51.5208C40.9564 51.7819 40.8228 51.1622 40.4413 51.2973L39.9434 52.2595C40.4202 52.4869 41.0454 52.6486 40.8287 53.3792C40.1141 53.5993 40.1547 54.4038 39.7184 54.8687C39.6722 55.2417 40.2353 55.4517 40.1011 55.9682C39.7217 56.3139 39.2247 56.589 38.9903 57.0088C38.7353 57.4822 38.4614 57.9953 38.1146 58.303C37.7524 58.6229 37.3503 58.8115 37.1454 59.3332C36.9801 59.7616 36.3033 59.7899 36.1813 60.3218L35.6063 60.3207C34.9475 60.9965 34.2212 61.5378 33.2719 61.841C32.6592 62.0316 32.1469 62.5432 31.5965 62.9099C31.1842 63.1814 30.7839 63.4685 30.1968 63.4519C29.5985 64.2053 28.8031 64.738 27.8003 65.0206C27.115 65.2302 26.4818 65.5866 26.0215 66.2449L24.2258 66.2469C24.2627 66.8546 23.6687 66.781 23.4342 67.0886L23.1058 66.7955C22.5569 66.9238 21.9825 67.4839 21.348 66.7179C20.8602 67.4851 19.9253 66.7662 19.3718 67.3849C19.1422 67.4266 19.0539 67.2333 18.8362 67.0661C18.4619 67.3704 17.949 67.3209 17.4864 67.4319C17.0531 67.5325 16.7209 66.9302 16.3174 67.3572C15.3 66.9646 14.2414 66.7913 13.1433 66.8236C13.0604 66.8133 12.9637 66.8014 12.8859 66.7497C12.8082 66.698 12.7476 66.6204 12.6854 66.5565C12.6216 66.6188 12.5595 66.6672 12.4819 66.7277C12.0864 66.6367 12.1859 66.0598 11.6782 65.9689C11.3141 66.1903 10.8654 66.4152 10.3438 66.2103C10.2209 65.9566 10.6749 65.9147 10.4725 65.5109L9.08352 64.8338C8.42053 64.8639 8.10527 65.4842 7.55439 65.4019C7.32271 65.1207 7.79581 65.1513 7.51915 64.7803C6.92926 63.7675 5.62186 63.4512 4.40579 62.9639C4.16104 63.3544 3.69109 63.0717 3.34071 63.1826C2.3623 62.1356 1.2874 61.3011 0.148715 60.5289C-0.21414 60.2875 -0.653009 59.9807 -0.482712 59.3986C-1.16343 59.0057 -1.75626 58.4694 -2.57843 58.1992C-2.71915 57.4103 -3.48627 56.9225 -3.63751 55.992C-3.17172 55.6289 -2.87368 55.0346 -2.19187 54.8525C-2.36474 54.6628 -2.4721 54.3971 -2.80879 54.3975C-3.1593 54.3961 -3.5527 54.6279 -3.78413 54.5711C-4.09673 54.4903 -4.34726 54.3611 -4.67172 54.4893C-4.66964 54.8121 -4.42462 54.6461 -4.29161 54.7047C-3.9389 55.1411 -4.1889 55.4608 -4.59943 55.8308C-5.3793 54.7663 -6.25577 53.8021 -7.2634 52.8777C-7.14873 51.9521 -7.85719 51.4435 -8.40343 50.8709C-8.29878 50.2527 -8.92608 49.7682 -8.67974 49.2516C-8.91521 48.6614 -9.61256 48.8555 -9.70792 48.493C-10.0348 47.9616 -9.32186 47.8676 -9.53984 47.4759C-9.80954 47.1619 -9.82956 47.7767 -10.0214 47.6267C-10.3632 47.6685 -10.4223 47.3525 -10.6365 47.2699L-10.6381 45.8109L-11.5281 45.0695C-11.3704 44.023 -12.2261 43.1174 -11.5504 42.079C-11.9132 41.8377 -12.0967 41.3941 -12.3579 40.8988L-12.3601 38.9909L-11.8391 38.5224L-11.8371 37.2603C-12.2465 37.0552 -12.3093 36.5425 -12.6274 36.1665L-12.6287 34.932L-11.7765 34.28C-12.3126 33.5123 -11.9215 32.7332 -12.1069 32.079C-11.7363 31.5779 -11.6783 30.8837 -10.9584 30.8467C-10.8398 30.3424 -11.363 30.2635 -11.4773 29.9407C-11.2806 29.8248 -11.2171 29.5382 -10.839 29.5429C-10.4745 29.6582 -10.6411 30.4371 -9.94706 30.3828C-9.811 30.077 -9.53848 29.8022 -9.50437 29.4137C-9.80341 29.1101 -9.84427 29.6662 -10.0671 29.5404C-10.2967 29.5821 -10.442 29.3958 -10.5077 29.2473C-10.8366 28.5053 -11.0481 27.7216 -10.9092 26.8271C-10.4384 26.3103 -9.87436 25.8331 -9.76483 24.949C-9.66043 24.1063 -8.91335 23.6237 -8.1264 23.2723L-8.12432 22.0102C-7.86942 21.4246 -7.38808 21.0494 -6.9707 20.6242C-7.06301 19.8974 -6.80643 19.298 -6.28208 18.8018C-5.8526 18.3922 -5.3747 18.0446 -4.93483 17.6643C-4.55706 17.3323 -4.30733 16.7881 -3.8968 16.4182C-3.65877 16.1952 -3.43283 15.9566 -3.17756 15.7077L-2.61642 15.7071C-2.06273 15.2006 -1.599 14.5147 -0.706296 14.5551C-0.208113 13.8173 1.04046 14.0421 1.31552 12.954C1.40831 12.5447 2.05422 12.6528 2.20581 12.3349C2.58554 12.2136 2.65323 12.5728 2.88979 12.5881C3.39727 12.4545 3.77833 11.9827 4.36198 12.027L4.35929 12.728C4.60307 13.0247 4.87962 13.2834 5.28869 13.1517C5.77538 12.9596 5.72468 12.3501 6.0456 12.1373C6.30441 11.973 6.30462 12.1975 6.45316 12.244C6.67408 12.1592 6.82065 11.9949 6.89633 11.7238C7.14401 10.8567 7.67533 10.4176 8.47292 10.32C8.91487 10.2625 9.41246 10.5487 9.7901 10.1045C10.1185 10.3977 10.5224 10.3074 10.9973 10.3242C11.7351 9.23732 13.084 9.67091 14.2111 9.29155L14.4133 9.47088C14.883 9.52907 14.9635 8.99203 15.3105 8.90877C15.3658 8.91561 15.421 8.92244 15.4642 8.91376C15.856 8.80801 16.0707 9.33956 16.4815 9.19407C16.8181 9.08147 17.1408 8.96717 17.4878 8.88391C18.615 8.61677 19.2778 8.47453 20.2538 8.86195C20.7616 9.06513 21.0081 8.66083 21.3879 8.65178C21.7557 8.6272 22.0803 8.61125 22.4046 8.3709C22.6979 8.15475 22.9643 8.60855 23.344 8.48727C24.2795 8.18236 25.0887 7.65144 25.8616 7.0739C26.3412 6.71251 26.7897 6.3753 27.4355 6.37114L28.2547 5.53286L29.4323 5.53842C29.6867 4.5039 29.9395 3.59543 31.0059 3.0262C32.0137 2.47776 32.3836 1.3033 32.9523 0.335769C33.2539 -0.173914 33.5175 -0.7164 34.0783 -1.05371C34.0813 -1.41803 34.0999 -1.79441 34.0754 -2.16216C34.0455 -2.60069 34.3161 -3.08619 34.5525 -3.18314C35.5517 -3.66251 35.4869 -4.49813 35.4946 -5.35282C35.8138 -5.55173 35.9359 -5.97144 36.3381 -6.04785C36.3452 -5.87865 36.3661 -5.70768 36.3749 -5.5523C36.6875 -5.47149 36.9311 -5.39926 37.2278 -5.64304C37.0826 -5.82935 37.3723 -6.13007 37.0457 -6.32481C36.8734 -6.06563 36.6282 -6.01191 36.3381 -6.04785L36.4366 -5.93745ZM147.912 -19.2131C148.05 -19.196 148.127 -19.2565 148.157 -19.3792C148.16 -19.4068 148.098 -19.4706 148.068 -19.4602C147.939 -19.4342 147.872 -19.3443 147.896 -19.201C147.758 -19.2181 147.68 -19.1576 147.651 -19.035C147.648 -19.0073 147.71 -18.9435 147.739 -18.9539C147.869 -18.98 147.936 -19.0698 147.912 -19.2131ZM51.717 -20.3577C51.5788 -20.3748 51.5012 -20.3142 51.472 -20.1916C51.4686 -20.164 51.5308 -20.1002 51.5601 -20.1106C51.6896 -20.1366 51.7568 -20.2264 51.7325 -20.3697C51.8706 -20.3526 51.9483 -20.4131 51.9775 -20.5357C51.9809 -20.5634 51.9187 -20.6272 51.8893 -20.6168C51.7598 -20.5907 51.6927 -20.5009 51.717 -20.3577ZM27.104 7.91511C26.9088 7.90496 26.8123 8.00519 26.8159 8.20202C26.5121 8.27659 26.3207 8.46333 26.4004 8.72569C26.0655 8.82447 25.8063 8.65204 25.7013 8.93359C25.9018 9.12675 26.0744 9.09205 26.2416 8.76208L26.8027 8.76149L26.8021 8.2003C26.9972 8.21045 27.0938 8.11021 26.9296 7.96363C27.2645 7.86484 27.5237 8.03728 27.6287 7.75572C27.4282 7.56256 27.2555 7.59726 27.0884 7.92723L27.104 7.91511ZM152.724 -6.76429C152.706 -7.1873 152.374 -7.00393 152.112 -7.03645L152.109 -8.1449L151.127 -8.14042C150.944 -7.91058 150.621 -7.79626 150.78 -7.38377C151.219 -7.30137 151.605 -6.90294 152.14 -7.03302C152.157 -6.61002 152.489 -6.79338 152.708 -6.75218C152.698 -6.55706 152.798 -6.4605 152.997 -6.47798C152.992 -6.32431 153.002 -6.18275 153.001 -6.05671C153.355 -5.97077 153.488 -5.68772 153.692 -5.40995C153.884 -5.14772 154.073 -4.63344 154.846 -4.87429C154.001 -5.30156 154.103 -6.4671 153.009 -6.46245C153.019 -6.65757 152.919 -6.75413 152.722 -6.75046L152.724 -6.76429ZM-1.4763 57.1153C-1.61445 57.0982 -1.69209 57.1588 -1.7213 57.2814C-1.72473 57.309 -1.66248 57.3728 -1.63314 57.3624C-1.50367 57.3364 -1.43643 57.2466 -1.63338 57.138C-1.20525 57.0788 -0.9116 57.1994 -0.571733 56.9469L-1.05734 56.5641C-1.20221 56.7145 -1.34366 56.8372 -1.4763 57.1153V57.1153ZM70.6777 -21.2349C70.5859 -21.5127 70.4182 -21.7439 70.0711 -21.7729C69.738 -21.6879 69.8107 -21.4825 69.9215 -21.2444C70.1597 -21.2429 70.4256 -21.238 70.6881 -21.2055C70.671 -21.0673 70.7315 -20.9897 70.8542 -20.9605C70.8818 -20.9571 70.9456 -21.0193 70.9352 -21.0487C70.9092 -21.1782 70.8193 -21.2454 70.6794 -21.2487L70.6777 -21.2349ZM117.934 -32.2127C117.795 -32.2299 117.718 -32.1693 117.689 -32.0467C117.685 -32.0191 117.747 -31.9553 117.777 -31.9657C117.906 -31.9917 117.973 -32.0815 117.939 -32.2541L118.697 -32.2584C118.821 -32.4675 118.812 -32.6229 118.662 -32.7677C118.408 -32.7571 118.131 -32.9036 117.93 -32.634C117.918 -32.5373 117.935 -32.451 117.934 -32.2127V-32.2127ZM144.53 -10.711C144.531 -10.9493 144.533 -11.1875 144.522 -11.1046L143.411 -12.2102C143.384 -11.9891 143.325 -11.6316 143.391 -11.4832C143.746 -10.9484 144.229 -11.0008 144.516 -10.7127C144.506 -10.5176 144.606 -10.421 144.855 -10.5024C144.502 -9.35379 145.806 -8.89772 145.7 -7.81674L146.176 -8.26271L146.17 -9.45585C145.626 -9.59338 145.32 -10.0661 144.789 -10.4263C144.799 -10.6215 144.699 -10.7181 144.501 -10.7006L144.53 -10.711ZM151.879 21.2269C152.017 21.244 152.095 21.1835 152.124 21.0608C152.127 21.0332 152.065 20.9694 152.036 20.9798C151.906 21.0058 151.839 21.0957 151.865 21.2252C151.561 21.5242 151.121 21.4556 150.797 21.5837C150.436 21.8897 150.371 22.3025 150.161 22.6411C150.023 22.624 149.945 22.6845 149.916 22.8071C149.912 22.8348 149.974 22.8986 150.004 22.8882C150.133 22.8621 150.201 22.7723 150.174 22.6428C150.87 22.6869 151.258 22.0477 151.869 21.9831C151.865 21.6741 151.865 21.4496 151.865 21.2252L151.879 21.2269ZM155.568 -4.13951C155.709 -3.68729 155.198 -3.52611 154.989 -3.20128L154.994 -2.33107C155.236 -2.245 155.302 -1.87218 155.676 -1.95202C155.964 -2.01449 155.729 -2.38021 155.922 -2.46848C156.275 -2.59318 156.667 -2.36232 156.907 -2.59913C156.654 -3.27569 156.584 -4.0698 155.548 -4.19816C155.565 -4.33631 155.504 -4.41398 155.382 -4.4432C155.354 -4.44662 155.29 -4.38439 155.301 -4.35505C155.327 -4.22558 155.416 -4.1583 155.565 -4.11185L155.568 -4.13951ZM117.354 -9.30851C117.216 -9.32563 117.139 -9.26509 117.109 -9.14247C117.106 -9.11484 117.168 -9.05104 117.198 -9.06143C117.327 -9.08747 117.394 -9.17733 117.368 -9.3068C117.639 -9.34335 117.919 -9.22456 118.181 -9.4165L118.262 -10.0658L118.762 -10.2562L118.806 -11.1766C119.046 -11.4134 119.265 -11.5966 119.432 -11.8143C119.567 -11.9941 119.926 -12.0618 119.78 -12.5848C119.23 -11.7693 118.267 -12.0289 117.763 -11.5863C117.484 -10.9196 117.781 -10.49 117.956 -10.0896C117.83 -9.75448 117.478 -9.96647 117.364 -9.72807C117.352 -9.63137 117.37 -9.54507 117.368 -9.3068L117.354 -9.30851ZM148.187 -8.98146C148.182 -9.16448 148.23 -9.32686 148.174 -9.44593C148.11 -9.60817 147.865 -9.66658 147.908 -9.89972L148.316 -10.7048C148.536 -10.7758 148.781 -10.6051 148.988 -10.8039L148.583 -11.6116C148.172 -11.4661 147.74 -11.716 147.345 -11.4703C147.461 -10.9369 146.933 -11.0866 146.766 -10.8689C146.797 -10.5564 146.685 -10.2195 146.844 -9.91925C147.471 -9.88368 147.653 -9.20193 148.178 -9.02466C148.161 -8.88651 148.222 -8.80884 148.344 -8.77962C148.372 -8.7762 148.436 -8.83843 148.425 -8.86777C148.399 -8.99724 148.309 -9.06449 148.175 -8.997L148.187 -8.98146ZM113.36 -28.5853C113.422 -29.0826 113.304 -29.3777 113.335 -29.4019C114.129 -30.033 114.592 -29.2462 115.171 -29.385C115.946 -29.5274 115.415 -30.4488 115.993 -30.6998C116.303 -30.9419 116.728 -30.6367 117.041 -30.8926C117.237 -31.1956 117.279 -31.5363 117.167 -31.9149C116.563 -31.6811 115.949 -31.4767 115.395 -31.0824C114.779 -30.6397 114.744 -30.7001 113.922 -31.0825C113.441 -30.8196 112.966 -30.4997 112.449 -30.2833C111.755 -30.0045 111.73 -30.0355 111.691 -29.6056C111.669 -29.426 111.631 -29.2343 111.851 -29.0809C112.32 -29.1349 112.809 -29.1164 113.388 -28.8063C113.371 -28.6681 113.431 -28.5906 113.554 -28.5613C113.581 -28.5579 113.645 -28.6202 113.635 -28.6495C113.609 -28.779 113.519 -28.8462 113.346 -28.587L113.36 -28.5853ZM163.068 3.14381C162.004 2.22642 161.039 1.40554 160.073 0.59854C160.035 0.565776 159.913 0.648864 159.749 0.726742C160.912 1.53007 161.026 3.21337 162.485 3.66069L163.068 3.14381V3.14381ZM40.2197 -9.07369C40.7227 -8.6046 41.0857 -8.25101 41.4521 -7.92509C41.4901 -7.89232 41.623 -7.94597 41.7231 -7.96162C41.9144 -8.26054 41.7725 -8.58671 41.8118 -8.90445C41.5042 -9.13893 41.3346 -9.58076 40.8787 -9.63724L40.2197 -9.07369V-9.07369ZM133.199 -41.6413C133.218 -41.2321 133.45 -41.0631 134.059 -40.8894C134.244 -40.7964 134.454 -41.3595 134.875 -41.3634L134.875 -42.0368C134.203 -42.2743 133.702 -41.9716 133.199 -41.6413ZM-5.26393 21.4528L-4.90903 20.7393L-5.36184 20.3185C-5.72249 20.5123 -6.11251 20.7164 -6.52866 20.6789L-6.52609 21.4507L-5.25011 21.4545L-5.26393 21.4528ZM65.3425 16.5097C65.8612 16.1719 66.1307 15.7704 66.1509 15.3054L65.3455 14.5603L65.3425 16.5097V16.5097ZM149.705 -5.72154C149.017 -6.17143 148.65 -7.05856 147.45 -7.44573C148.082 -6.66599 148.677 -6.25569 148.985 -5.57229C149.094 -5.32032 149.381 -5.1445 149.705 -5.72154V-5.72154ZM0.128458 16.8748C0.824457 17.0312 1.22667 16.9547 1.36592 16.3969C1.46213 15.9599 1.32557 15.8168 0.593256 15.6139C0.350216 15.9905 0.758312 16.5461 0.126745 16.8886L0.128458 16.8748ZM-0.307349 17.7887C-0.406257 17.3416 -0.189153 16.9477 -0.581472 16.6045C-0.828181 16.7843 -1.20619 16.8918 -1.16609 17.2475C-1.10862 17.6894 -1.79447 17.3379 -1.68175 17.7867L-0.307349 17.7887V17.7887ZM127.479 6.33737C128.185 6.07415 128.498 6.49168 128.697 6.69866L129.354 6.37328C128.655 6.24455 128.39 5.77697 128.008 5.46314C127.918 5.3959 127.76 5.43232 127.665 5.40653C127.427 5.62952 127.579 5.8728 127.479 6.33737V6.33737ZM127.611 -38.7707C128.103 -39.1165 128.508 -39.5572 129.058 -39.8117C129.283 -39.9241 129.34 -40.1556 129.129 -40.3781C128.464 -39.9975 127.75 -39.6652 127.611 -38.7707ZM39.8049 53.4908L38.6411 53.4869C38.8419 53.9046 38.5798 54.2087 38.4403 54.5421C38.9342 54.6313 39.1271 54.2064 39.45 54.2043L39.7928 53.4753L39.8049 53.4908ZM28.6172 7.02249C29.3876 7.25819 29.6701 6.67606 29.9683 6.19401C29.8713 5.95757 29.7487 5.9283 29.6365 5.92843L28.6172 7.02249ZM97.6458 40.1773C97.342 40.2519 96.8773 40.04 96.3527 40.3116C96.8018 40.4234 96.552 40.9675 96.9388 41.0154L97.6458 40.1773V40.1773ZM9.17934 15.2608C8.70279 15.2579 8.54083 15.5464 8.42897 15.8832C8.6192 16.1593 8.76628 16.444 9.19441 16.3848C9.33904 16.01 9.35588 15.6474 9.17934 15.2608V15.2608ZM146.848 -13.117C146.407 -13.1856 146.712 -14.0595 146.018 -13.7808C145.768 -13.5733 146.091 -13.2387 145.857 -13.0434C145.705 -12.95 145.479 -13.0481 145.368 -12.8374C145.946 -12.4012 146.307 -13.0577 146.849 -13.1308L146.848 -13.117ZM132.211 7.42856C132.665 7.04993 132.774 6.85298 132.83 6.28487C132.567 6.25235 132.301 6.13524 132.075 6.37376C132.107 6.68624 131.997 7.00921 132.213 7.41473L132.211 7.42856ZM17.45 23.2287C16.8748 23.0032 16.5386 23.4524 16.0865 23.705C16.6024 23.3902 16.6361 24.2501 17.1728 23.994C17.0136 23.6937 17.3934 23.5724 17.45 23.2287ZM63.1441 27.2344C63.4199 26.8198 63.9119 26.6983 63.894 26.1631C63.6572 25.9234 63.3915 26.0307 63.1066 26.0655C62.9948 26.4024 62.9934 26.7529 63.1458 27.2206L63.1441 27.2344ZM63.4946 -18.3935C63.697 -18.102 63.8196 -18.0728 64.032 -18.0886L64.6562 -18.8248C64.5594 -18.949 64.4504 -19.0887 64.4608 -19.0594L63.4929 -18.3798L63.4946 -18.3935ZM126.153 0.169571C126.262 0.650603 126.544 1.16717 126.999 1.71919C127.165 1.73973 127.248 1.63772 127.282 1.36143L126.153 0.169571ZM21.0039 56.8145C21.4422 56.5602 21.5126 56.2182 21.4328 55.8436C21.4137 55.7711 21.2237 55.7196 21.184 55.7006C20.8163 55.7252 20.889 55.9306 20.8806 56.1119C20.8617 56.2639 20.5389 56.2659 20.6548 56.4626L21.0039 56.8145ZM7.78411 35.5812C8.02789 35.8779 8.10774 36.2525 8.59285 36.1863C8.79628 35.9029 8.80286 35.6232 8.56079 35.3127C8.3658 35.4148 8.10833 35.2286 7.78582 35.5674L7.78411 35.5812ZM81.4491 26.6687C81.9997 26.5265 82.3276 26.3708 82.2649 25.858C81.9747 25.7098 81.7243 25.6929 81.4517 25.8555L81.4508 26.6549L81.4491 26.6687ZM48.8963 3.88201C48.2836 4.07261 47.9247 4.25259 48.1446 4.85493C48.5151 4.65769 48.7656 4.33337 48.8963 3.88201ZM164.89 6.10462C165.196 6.46515 165.521 6.78601 166.017 6.3987C165.991 6.26923 166.079 6.12577 165.846 5.97063C165.594 6.07968 165.222 5.79519 164.89 6.10462V6.10462ZM61.5894 -17.5074C61.9095 -16.9207 62.2636 -16.8348 62.7226 -17.0304L62.7205 -17.3533C62.6236 -17.5897 62.4596 -17.5119 62.3336 -17.5135C62.1108 -17.527 61.8985 -17.5112 61.5773 -17.523L61.5894 -17.5074ZM151.757 -3.26508C151.712 -3.80374 151.527 -4.00903 150.92 -4.09815L151.757 -3.26508ZM23.1813 25.4256C23.5596 25.5426 23.6836 25.3335 23.8561 25.1865C24.0131 25.0517 24.0319 24.8998 23.8675 24.5287C23.7904 25.0382 23.0129 24.6333 23.1813 25.4256V25.4256ZM138.673 -14.1578C139.229 -14.1169 139.607 -13.9999 139.954 -14.1954C140.009 -14.4131 140.004 -14.5961 139.732 -14.6717L138.673 -14.1578V-14.1578ZM13.8029 11.7939C13.7404 11.5056 13.8954 11.1601 13.6688 10.7252L13.1829 11.703C13.3662 11.9221 13.5199 11.9271 13.7908 11.7783L13.8029 11.7939ZM167.462 -4.01273C167.773 -4.49307 167.697 -4.78299 167.688 -5.0506C167.679 -5.31822 167.788 -5.62745 167.456 -6.00522L167.463 -4.02647L167.462 -4.01273ZM92.7436 11.4742L93.8341 10.936C93.4525 10.8466 93.1087 10.6778 92.7463 10.8854L92.7436 11.4742V11.4742ZM50.9239 -5.12458C51.4256 -5.32426 51.6305 -5.77104 51.5388 -6.46504C51.5051 -5.73982 51.1376 -5.49086 50.9239 -5.12458ZM56.4373 25.0991C56.1511 25.4844 56.1445 25.7641 56.3762 26.0453C56.5195 26.021 56.6629 26.1088 56.768 25.9395C56.8023 25.6632 56.9418 25.3299 56.4511 25.1008L56.4373 25.0991ZM122.464 -35.7192L123.256 -36.3365C122.993 -36.4813 122.741 -36.4844 122.47 -36.3357L122.464 -35.7192V-35.7192ZM134.616 -13.2296C134.555 -12.7323 134.828 -12.5581 135.09 -12.4134C135.17 -12.3755 135.322 -12.4689 135.379 -12.4759L134.602 -13.2313L134.616 -13.2296ZM71.7989 -22.2462C71.6905 -22.4279 71.5159 -22.6038 71.2752 -22.7739C71.272 -22.5218 71.1117 -22.2471 71.3796 -22.0316C71.5592 -22.0094 71.7526 -21.9854 71.7989 -22.2462V-22.2462ZM12.9919 16.9816C13.0146 17.2509 12.7974 17.5325 13.0843 17.8205C13.236 17.6149 13.5571 17.5145 13.5222 17.2296C13.4615 16.9275 13.275 16.9605 12.9919 16.9816ZM142.813 -16.2118C143.094 -15.9946 143.376 -16.0018 143.669 -16.218C143.45 -16.3714 143.363 -16.6907 143.035 -16.6472C142.75 -16.6123 142.821 -16.3931 142.813 -16.2118ZM159.358 16.4446C159.201 16.5794 159.183 16.7314 159.293 16.9695L160.233 16.9737C159.844 16.7151 159.757 16.3958 159.371 16.4601L159.358 16.4446ZM10.2974 14.5016C9.99136 14.1411 9.83245 14.0653 9.60127 14.233C9.56875 14.4955 9.4516 14.7615 9.61408 14.9219L10.2974 14.5016ZM65.47 22.6132C65.6303 22.3385 65.6196 22.0846 65.4812 21.843C65.2964 21.75 65.1393 21.7727 65.0082 21.9248C64.9637 22.2839 65.2091 22.4546 65.47 22.6132V22.6132ZM165.052 8.18679C164.923 8.32506 164.851 8.45638 164.732 8.51176C164.611 8.58096 164.376 8.43961 164.343 8.70209L164.755 9.11776C164.858 8.85003 165.317 8.76666 165.037 8.19891L165.052 8.18679ZM133.917 -30.7937C134.276 -30.7492 134.433 -30.9963 134.605 -31.2555C134.329 -31.4019 134.077 -31.4051 133.821 -31.2684C133.728 -31.0836 133.751 -30.9264 133.917 -30.7937ZM133.37 -7.01582L133.583 -6.47045C133.826 -6.62266 133.746 -6.7728 133.762 -6.89713C133.78 -7.04909 134.103 -7.05123 133.977 -7.27728C133.554 -7.48401 133.432 -7.06425 133.371 -7.02965L133.37 -7.01582ZM62.7265 33.6631C62.4346 33.641 62.2429 33.6032 62.1828 33.8623C62.2912 34.044 62.4698 34.2251 62.7186 34.4055L62.7143 33.6476L62.7265 33.6631ZM168.245 -8.64265C167.998 -8.7995 167.745 -8.78887 167.489 -8.65218C167.398 -8.48115 167.405 -8.31192 167.571 -8.17916C167.916 -8.13637 168.099 -8.36623 168.245 -8.64265ZM130.156 8.73094L130.956 8.73186C130.741 8.42476 130.589 8.1814 130.234 8.22151C130.063 8.35464 130.044 8.50661 130.155 8.74477L130.156 8.73094ZM48.6035 -19.1162C48.3133 -19.2644 48.0629 -19.2814 47.8196 -19.1292C47.7404 -18.9426 47.7492 -18.7872 47.9151 -18.6544C48.2742 -18.6099 48.4311 -18.857 48.6035 -19.1162ZM0.627177 19.756C1.08123 19.7141 1.3612 19.9451 1.63541 19.6564C1.65766 19.4768 1.6816 19.2834 1.40873 19.2216C1.1048 19.1839 1.0085 19.5086 0.625475 19.7697L0.627177 19.756ZM3.62772 24.1814C3.58322 24.5406 3.84581 24.6854 4.08946 24.8698C4.22553 24.5641 4.25637 24.3154 4.09034 24.0704C3.90378 23.9912 3.74667 24.0138 3.62772 24.1814ZM7.31007 28.4249C7.59175 28.6421 7.87319 28.6349 8.19753 28.3946C7.92979 28.2913 7.86205 27.9322 7.5893 27.9826C7.27168 28.0555 7.29088 28.2401 7.31007 28.4249V28.4249ZM3.82727 14.0788L3.50721 13.4921C3.28838 13.8998 3.29899 14.1536 3.48922 14.4296L3.82556 14.0926L3.82727 14.0788ZM140.703 -8.46394C140.497 -8.27897 140.501 -8.08211 140.717 -7.90105C140.847 -7.92709 141.004 -7.83744 141.131 -8.07413C141.193 -8.347 141.089 -8.52818 140.704 -8.47769L140.703 -8.46394ZM148.999 -13.159C149.31 -12.9522 149.444 -12.4448 149.901 -12.851C149.654 -13.0079 149.551 -13.4273 148.999 -13.159ZM142.978 27.2919C143.061 26.6944 143.044 26.379 142.927 26.3458L142.606 26.6707L142.978 27.2919ZM67.8699 -16.7995C67.6124 -16.9857 67.5274 -17.4311 66.9976 -17.118C67.2551 -16.9318 67.3402 -16.4864 67.8699 -16.7995ZM153.677 21.5477C153.662 21.2093 154.106 20.9136 153.686 20.6792L153.35 21.0163L153.663 21.546L153.677 21.5477ZM75.237 42.6191L75.1623 42.2031C74.9377 42.0911 74.7806 42.1137 74.6478 42.2796C74.6033 42.6388 74.7537 42.7837 75.237 42.6191V42.6191ZM66.8643 -23.7412C66.6591 -23.5562 66.6627 -23.3594 66.8788 -23.1783C67.0082 -23.2043 67.1654 -23.1147 67.2567 -23.2857C67.3343 -23.4585 67.3116 -23.6156 67.1457 -23.7484L66.866 -23.7549L66.8643 -23.7412ZM155.785 -16.302C155.533 -16.3052 155.26 -16.4793 155.037 -16.1562C155.294 -16.1945 155.547 -15.9668 155.785 -16.302ZM152.048 2.3116C151.974 2.23225 151.779 2.22203 151.584 2.43634L151.7 3.08198L152.062 2.3133L152.048 2.3116ZM8.23087 60.394C8.51296 60.457 8.63594 60.2571 8.59975 59.7944L8.23087 60.394ZM122.985 1.85311C123.353 2.05299 123.595 2.0268 123.911 1.85552C123.57 1.65906 123.33 1.67144 122.985 1.85311ZM87.2272 30.5265C87.0082 30.822 87.0016 31.1018 87.2316 31.3967C87.4505 31.1013 87.4571 30.8215 87.2272 30.5265ZM82.7637 17.7562C82.7669 17.5041 82.9409 17.2311 82.6816 16.9465C82.5145 17.2765 82.4975 17.5268 82.7637 17.7562ZM79.2466 44.5607C79.5287 44.6237 79.6516 44.4238 79.6154 43.9611L79.2466 44.5607ZM78.2144 18.1324C78.1384 18.0669 77.945 18.043 77.7501 18.2573L77.8665 18.9028L78.2283 18.1341L78.2144 18.1324ZM-7.93807 26.5078L-7.33757 26.1894C-7.60544 25.9739 -7.7591 25.9689 -7.9316 26.1159L-7.93807 26.5078V26.5078ZM57.8781 13.2425C57.8106 13.1079 58.1626 12.871 57.7671 12.7799C57.6344 12.9458 57.6138 13.1116 57.8781 13.2425ZM-0.234055 26.3681C-0.166569 26.5027 -0.518548 26.7397 -0.123052 26.8308C0.00971544 26.6649 0.0302616 26.4991 -0.234055 26.3681ZM63.8514 -17.4236C63.7168 -17.3561 63.4799 -17.7081 63.3888 -17.3126C63.5547 -17.1798 63.7204 -17.1593 63.8514 -17.4236ZM68.0765 -22.0901C67.9952 -22.2265 68.3472 -22.4634 67.924 -22.5579C67.8742 -22.3817 67.7845 -22.2245 68.0765 -22.0901ZM-6.54651 51.6199C-6.73148 51.4147 -6.92833 51.4183 -7.12149 51.6188C-6.93652 51.8241 -6.73967 51.8204 -6.54651 51.6199ZM16.0863 58.1269C15.9013 57.9217 15.7044 57.9253 15.5113 58.1258C15.6963 58.3311 15.8931 58.3274 16.0863 58.1269ZM69.4932 -18.1274C69.4119 -18.2637 69.7639 -18.5006 69.3408 -18.5951C69.2909 -18.4189 69.2013 -18.2617 69.4932 -18.1274ZM69.862 45.6984C69.6045 45.5123 69.4317 45.4347 69.3095 45.7422C69.4737 45.8887 69.6291 45.88 69.862 45.6984ZM69.8707 3.28227C69.6132 3.09608 69.4404 3.01859 69.3182 3.32606C69.4824 3.47264 69.6378 3.46382 69.8707 3.28227ZM150.91 -11.8282C150.705 -11.6432 150.709 -11.4464 150.909 -11.2532C151.114 -11.4382 151.111 -11.6351 150.91 -11.8282ZM147.647 0.475788C147.832 0.681052 148.028 0.677398 148.222 0.476898C148.037 0.271634 147.84 0.275288 147.647 0.475788ZM71.9074 13.6761C71.9749 13.8107 71.6229 14.0476 72.0184 14.1387C72.1512 13.9728 72.1717 13.807 71.9074 13.6761ZM142.832 -22.7039C143.016 -22.4987 143.213 -22.5023 143.406 -22.7028C143.221 -22.9081 143.025 -22.9044 142.832 -22.7039ZM136.166 15.5912C135.993 15.8503 135.9 16.0351 136.223 16.1453C136.358 15.9656 136.376 15.8137 136.166 15.5912ZM127.539 2.45929C127.724 2.66455 127.921 2.6609 128.114 2.4604C127.929 2.25514 127.732 2.25879 127.539 2.45929ZM118.925 -33.8714C118.719 -33.6864 118.723 -33.4896 118.923 -33.2964C119.129 -33.4814 119.125 -33.6782 118.925 -33.8714ZM23.0093 62.2528C23.18 62.0074 23.2592 61.8209 22.9103 61.6935C22.8449 61.8818 22.7691 62.0407 23.0093 62.2528ZM87.1698 23.8567C87.2373 23.9913 86.8853 24.2282 87.2808 24.3193C87.4136 24.1534 87.4341 23.9876 87.1698 23.8567ZM115.519 7.66099C115.346 7.92018 115.253 8.10505 115.576 8.2152C115.711 8.03548 115.73 7.8835 115.519 7.66099ZM97.1337 26.648C97.3199 26.3906 97.3974 26.2179 97.0899 26.0956C96.9433 26.2598 96.9522 26.4151 97.1337 26.648ZM105.213 -18.1907C105.028 -18.396 104.832 -18.3924 104.638 -18.1919C104.823 -17.9866 105.02 -17.9902 105.213 -18.1907ZM99.9649 38.7814C100.103 38.6862 100.099 38.6016 99.9714 38.5016C99.8334 38.5967 99.837 38.6814 99.9649 38.7814ZM98.6925 42.0322C98.5974 41.8942 98.4989 41.8961 98.4127 42.0257C98.5078 42.1637 98.6063 42.1618 98.6925 42.0322ZM105.486 24.2182C105.391 24.0802 105.293 24.082 105.206 24.2116C105.302 24.3496 105.4 24.3478 105.486 24.2182ZM105.774 30.1592C105.679 30.0212 105.581 30.0229 105.494 30.1525C105.59 30.2906 105.688 30.2888 105.774 30.1592ZM110.584 26.7714C110.679 26.9095 110.778 26.9076 110.864 26.778C110.769 26.64 110.67 26.6418 110.584 26.7714ZM98.4109 40.3422C98.3158 40.2042 98.2173 40.206 98.1312 40.3356C98.2263 40.4736 98.3247 40.4718 98.4109 40.3422ZM97.1397 44.7154C97.2777 44.6202 97.2742 44.5356 97.1463 44.4356C97.0083 44.5307 97.0118 44.6154 97.1397 44.7154ZM96.156 8.95131C96.2511 9.08933 96.3358 9.08576 96.4358 8.95788C96.3406 8.81986 96.256 8.82343 96.156 8.95131ZM116.531 -34.5888C116.436 -34.7268 116.337 -34.7249 116.251 -34.5953C116.346 -34.4573 116.444 -34.4592 116.531 -34.5888ZM88.227 29.0233C88.1318 28.8853 88.0472 28.8888 87.9472 29.0167C88.0423 29.1547 88.127 29.1512 88.227 29.0233ZM54.4216 43.2946C54.5596 43.1995 54.5561 43.1149 54.4282 43.0149C54.2902 43.11 54.2937 43.1946 54.4216 43.2946ZM7.32672 16.8548C7.42183 16.9928 7.52027 16.991 7.60646 16.8614C7.51135 16.7233 7.41291 16.7252 7.32672 16.8548ZM124.038 -35.8609C124.176 -35.956 124.173 -36.0405 124.045 -36.1406C123.907 -36.0454 123.91 -35.9609 124.038 -35.8609ZM79.6069 42.4451C79.7449 42.35 79.7413 42.2654 79.6134 42.1654C79.4754 42.2606 79.479 42.3451 79.6069 42.4451ZM55.422 -8.03192C55.3269 -8.16995 55.2423 -8.16637 55.1423 -8.03849C55.2374 -7.90047 55.322 -7.90404 55.422 -8.03192ZM39.0197 9.78409C39.1148 9.92212 39.1994 9.91854 39.2994 9.79066C39.2043 9.65264 39.1197 9.65621 39.0197 9.78409ZM2.23303 40.3078C2.32815 40.4458 2.42658 40.4441 2.51276 40.3145C2.41765 40.1765 2.31922 40.1782 2.23303 40.3078ZM131.805 -2.65095C131.71 -2.78897 131.611 -2.78719 131.525 -2.6576C131.62 -2.51957 131.719 -2.52136 131.805 -2.65095ZM36.1791 -4.65083C36.084 -4.78885 35.9994 -4.78528 35.8994 -4.6574C35.9945 -4.51937 36.0791 -4.52295 36.1791 -4.65083ZM133.212 27.3164C133.117 27.1784 133.032 27.1819 132.932 27.3098C133.028 27.4478 133.112 27.4443 133.212 27.3164ZM77.7541 47.097C77.659 46.9589 77.5744 46.9624 77.4744 47.0903C77.5695 47.2283 77.6541 47.2248 77.7541 47.097ZM9.01223 14.0058C9.10735 14.1438 9.20575 14.1419 9.29194 14.0123C9.19683 13.8743 9.09842 13.8762 9.01223 14.0058ZM77.4793 -14.5431C77.3842 -14.6811 77.2996 -14.6775 77.1996 -14.5496C77.2947 -14.4116 77.3793 -14.4152 77.4793 -14.5431ZM138.881 -10.2886C138.976 -10.1506 139.061 -10.1542 139.161 -10.2821C139.065 -10.4201 138.981 -10.4165 138.881 -10.2886ZM141.702 3.8492C141.797 3.98723 141.882 3.98374 141.982 3.85586C141.887 3.71784 141.802 3.72132 141.702 3.8492ZM142.264 4.40979C142.359 4.54782 142.444 4.54424 142.544 4.41636C142.448 4.27834 142.364 4.28191 142.264 4.40979ZM143.113 5.25831C143.208 5.39634 143.292 5.39285 143.392 5.26497C143.297 5.12695 143.213 5.13043 143.113 5.25831ZM144.249 5.82001C144.344 5.95803 144.429 5.95446 144.529 5.82658C144.434 5.68856 144.349 5.69213 144.249 5.82001ZM73.8034 18.5257C73.8985 18.6638 73.9831 18.6602 74.0831 18.5323C73.9879 18.3943 73.9034 18.3979 73.8034 18.5257ZM145.096 -7.47077C145.191 -7.33274 145.276 -7.33623 145.376 -7.46411C145.281 -7.60214 145.196 -7.59865 145.096 -7.47077ZM26.8268 60.6498C26.9219 60.7878 27.0066 60.7842 27.1066 60.6564C27.0115 60.5183 26.9268 60.5219 26.8268 60.6498ZM70.9656 39.7335C70.8705 39.5954 70.7859 39.599 70.6859 39.7269C70.781 39.8649 70.8656 39.8613 70.9656 39.7335ZM55.1427 -17.0998C55.2378 -16.9618 55.3224 -16.9654 55.4224 -17.0932C55.3273 -17.2313 55.2427 -17.2277 55.1427 -17.0998ZM60.5086 42.2813C60.6037 42.4193 60.6883 42.4158 60.7883 42.288C60.6932 42.1499 60.6086 42.1534 60.5086 42.2813ZM16.9476 29.5487C17.0427 29.6867 17.1411 29.6849 17.2273 29.5553C17.1321 29.4173 17.0338 29.4191 16.9476 29.5487ZM59.9462 27.0066C60.0413 27.1446 60.1259 27.141 60.2259 27.0132C60.1308 26.8751 60.0462 26.8787 59.9462 27.0066ZM164.339 -20.4743C164.244 -20.6123 164.159 -20.6087 164.059 -20.4809C164.154 -20.3428 164.239 -20.3464 164.339 -20.4743ZM167.159 -10.292C167.064 -10.4301 166.98 -10.4266 166.88 -10.2987C166.975 -10.1607 167.059 -10.1642 167.159 -10.292Z" fill="#FFC93E"/>
</g>
<path d="M31.078 17H33.346V12.87H37.364V17H39.632V6.99H37.364V11.078H33.346V6.99H31.078V17Z" fill="#1F1F1F"/>
<path d="M44.893 17.154C46.895 17.154 48.155 16.272 48.393 14.69H46.475C46.349 15.306 45.887 15.712 44.949 15.712C43.843 15.712 43.185 15.012 43.129 13.794H48.407V13.234C48.407 10.616 46.727 9.51 44.837 9.51C42.709 9.51 41.071 11.008 41.071 13.318V13.43C41.071 15.768 42.681 17.154 44.893 17.154ZM43.157 12.548C43.311 11.512 43.927 10.91 44.837 10.91C45.803 10.91 46.363 11.442 46.433 12.548H43.157Z" fill="#1F1F1F"/>
<path d="M49.7918 17H51.8078V6.36H49.7918V17Z" fill="#1F1F1F"/>
<path d="M53.6597 19.492H55.6897V15.88C56.0677 16.594 56.8937 17.154 58.0277 17.154C59.8477 17.154 61.2197 15.796 61.2197 13.374V13.262C61.2197 10.84 59.8197 9.51 58.0277 9.51C56.9497 9.51 56.0957 10.126 55.6897 10.826V9.678H53.6597V19.492ZM57.4257 15.572C56.3197 15.572 55.6197 14.858 55.6197 13.388V13.276C55.6197 11.806 56.3477 11.064 57.4117 11.064C58.4337 11.064 59.1617 11.792 59.1617 13.276V13.388C59.1617 14.816 58.5457 15.572 57.4257 15.572Z" fill="#1F1F1F"/>
<path d="M68.1132 17.154C69.3172 17.154 70.0592 16.594 70.4372 15.852V17H72.4532V9.678H70.4372V13.976C70.4372 15.054 69.7652 15.586 68.9112 15.586C68.0432 15.586 67.6372 15.11 67.6372 14.116V9.678H65.6212V14.396C65.6212 16.314 66.6852 17.154 68.1132 17.154Z" fill="#1F1F1F"/>
<path d="M76.9095 17.154C78.8415 17.154 79.9895 16.328 79.9895 14.746C79.9895 13.178 78.9815 12.716 77.1475 12.45C76.0835 12.296 75.7335 12.114 75.7335 11.652C75.7335 11.204 76.1115 10.896 76.7695 10.896C77.4695 10.896 77.8055 11.176 77.9175 11.778H79.7795C79.5975 10.098 78.3795 9.51 76.7555 9.51C75.2575 9.51 73.8575 10.266 73.8575 11.792C73.8575 13.22 74.6135 13.78 76.5595 14.074C77.6095 14.228 78.0435 14.438 78.0435 14.942C78.0435 15.446 77.6795 15.74 76.8955 15.74C76.0135 15.74 75.6915 15.362 75.6075 14.704H73.7175C73.7875 16.286 74.9355 17.154 76.9095 17.154Z" fill="#1F1F1F"/>
<path d="M84.3804 17H86.4104V12.674C86.4104 11.68 87.0404 11.176 87.8244 11.176C88.5384 11.176 88.9724 11.596 88.9724 12.534V17H90.9884V12.674C90.9884 11.68 91.6184 11.176 92.4024 11.176C93.1304 11.176 93.5504 11.596 93.5504 12.534V17H95.5664V12.31C95.5664 10.364 94.5164 9.51 93.1584 9.51C92.2344 9.51 91.2824 9.902 90.6944 10.784C90.3444 9.916 89.6164 9.51 88.6504 9.51C87.5584 9.51 86.7744 10.112 86.4104 10.798V9.678H84.3804V17Z" fill="#1F1F1F"/>
<path d="M97.3563 17H99.3723V9.678H97.3563V17ZM98.3503 8.684C99.0083 8.684 99.5123 8.208 99.5123 7.578C99.5123 6.948 99.0083 6.472 98.3503 6.472C97.7063 6.472 97.2023 6.948 97.2023 7.578C97.2023 8.208 97.7063 8.684 98.3503 8.684Z" fill="#1F1F1F"/>
<path d="M104.486 19.702C106.894 19.702 108.336 18.596 108.35 16.426V9.678H106.334V10.77C105.914 10.028 105.2 9.51 104.01 9.51C102.19 9.51 100.79 10.98 100.79 13.08V13.178C100.79 15.348 102.204 16.678 103.982 16.678C105.06 16.678 105.928 16.034 106.334 15.32V16.426C106.334 17.574 105.718 18.218 104.486 18.218C103.45 18.218 102.988 17.798 102.862 17.154H100.846C101.042 18.666 102.12 19.702 104.486 19.702ZM104.584 15.152C103.576 15.152 102.862 14.396 102.862 13.178V13.066C102.862 11.862 103.492 11.05 104.626 11.05C105.732 11.05 106.39 11.806 106.39 13.052V13.15C106.39 14.396 105.648 15.152 104.584 15.152Z" fill="#1F1F1F"/>
<path d="M110.138 17H112.168V13.332C112.168 11.932 113.036 11.442 114.534 11.456V9.566C113.344 9.58 112.63 10.098 112.168 11.078V9.678H110.138V17Z" fill="#1F1F1F"/>
<path d="M117.704 17.154C118.852 17.154 119.496 16.706 119.916 16.118V17H121.89V12.226C121.89 10.238 120.616 9.51 118.824 9.51C117.032 9.51 115.66 10.28 115.534 12.016H117.452C117.536 11.386 117.9 10.98 118.698 10.98C119.622 10.98 119.888 11.456 119.888 12.324V12.618H119.062C116.822 12.618 115.254 13.262 115.254 14.97C115.254 16.51 116.374 17.154 117.704 17.154ZM118.306 15.74C117.564 15.74 117.242 15.39 117.242 14.858C117.242 14.074 117.928 13.822 119.104 13.822H119.888V14.438C119.888 15.25 119.202 15.74 118.306 15.74Z" fill="#1F1F1F"/>
<path d="M126.306 17.14C126.852 17.14 127.258 17.042 127.538 16.944V15.376C127.3 15.474 127.076 15.516 126.768 15.516C126.25 15.516 125.956 15.236 125.956 14.648V11.12H127.496V9.678H125.956V8.096H123.94V9.678H123.002V11.12H123.94V14.83C123.94 16.356 124.766 17.14 126.306 17.14Z" fill="#1F1F1F"/>
<path d="M132.284 17.154C134.286 17.154 135.546 16.272 135.784 14.69H133.866C133.74 15.306 133.278 15.712 132.34 15.712C131.234 15.712 130.576 15.012 130.52 13.794H135.798V13.234C135.798 10.616 134.118 9.51 132.228 9.51C130.1 9.51 128.462 11.008 128.462 13.318V13.43C128.462 15.768 130.072 17.154 132.284 17.154ZM130.548 12.548C130.702 11.512 131.318 10.91 132.228 10.91C133.194 10.91 133.754 11.442 133.824 12.548H130.548Z" fill="#1F1F1F"/>
<path d="M33.57 33.14C34.116 33.14 34.522 33.042 34.802 32.944V31.376C34.564 31.474 34.34 31.516 34.032 31.516C33.514 31.516 33.22 31.236 33.22 30.648V27.12H34.76V25.678H33.22V24.096H31.204V25.678H30.266V27.12H31.204V30.83C31.204 32.356 32.03 33.14 33.57 33.14Z" fill="#1F1F1F"/>
<path d="M39.5893 31.614C38.4413 31.614 37.7973 30.774 37.7973 29.374V29.262C37.7973 27.862 38.4693 27.05 39.5893 27.05C40.7233 27.05 41.3813 27.89 41.3813 29.29V29.388C41.3813 30.774 40.7233 31.614 39.5893 31.614ZM39.5753 33.154C41.7733 33.154 43.4393 31.684 43.4393 29.374V29.262C43.4393 26.98 41.7873 25.51 39.5893 25.51C37.3913 25.51 35.7253 27.008 35.7253 29.304V29.416C35.7253 31.698 37.3913 33.154 39.5753 33.154Z" fill="#1F1F1F"/>
<path d="M48.0858 33H50.3538V29.122H53.6438V27.414H50.3538V24.768H54.5118V22.99H48.0858V33Z" fill="#1F1F1F"/>
<path d="M57.5477 33.154C58.6957 33.154 59.3397 32.706 59.7597 32.118V33H61.7337V28.226C61.7337 26.238 60.4597 25.51 58.6677 25.51C56.8757 25.51 55.5037 26.28 55.3777 28.016H57.2957C57.3797 27.386 57.7437 26.98 58.5417 26.98C59.4657 26.98 59.7317 27.456 59.7317 28.324V28.618H58.9057C56.6657 28.618 55.0977 29.262 55.0977 30.97C55.0977 32.51 56.2177 33.154 57.5477 33.154ZM58.1497 31.74C57.4077 31.74 57.0857 31.39 57.0857 30.858C57.0857 30.074 57.7717 29.822 58.9477 29.822H59.7317V30.438C59.7317 31.25 59.0457 31.74 58.1497 31.74Z" fill="#1F1F1F"/>
<path d="M66.1361 33.154C68.0681 33.154 69.2161 32.328 69.2161 30.746C69.2161 29.178 68.2081 28.716 66.3741 28.45C65.3101 28.296 64.9601 28.114 64.9601 27.652C64.9601 27.204 65.3381 26.896 65.9961 26.896C66.6961 26.896 67.0321 27.176 67.1441 27.778H69.0061C68.8241 26.098 67.6061 25.51 65.9821 25.51C64.4841 25.51 63.0841 26.266 63.0841 27.792C63.0841 29.22 63.8401 29.78 65.7861 30.074C66.8361 30.228 67.2701 30.438 67.2701 30.942C67.2701 31.446 66.9061 31.74 66.1221 31.74C65.2401 31.74 64.9181 31.362 64.8341 30.704H62.9441C63.0141 32.286 64.1621 33.154 66.1361 33.154Z" fill="#1F1F1F"/>
<path d="M73.1774 33.14C73.7234 33.14 74.1294 33.042 74.4094 32.944V31.376C74.1714 31.474 73.9474 31.516 73.6394 31.516C73.1214 31.516 72.8274 31.236 72.8274 30.648V27.12H74.3674V25.678H72.8274V24.096H70.8114V25.678H69.8734V27.12H70.8114V30.83C70.8114 32.356 71.6374 33.14 73.1774 33.14Z" fill="#1F1F1F"/>
<path d="M75.1788 33H77.3068L77.9928 30.774H81.6188L82.3048 33H84.6708L81.4228 22.99H78.4688L75.1788 33ZM79.8128 24.838L81.1288 29.164H78.4828L79.8128 24.838Z" fill="#1F1F1F"/>
<path d="M86.0389 33H88.2929V29.36H89.5669C91.8489 29.36 93.3189 28.352 93.3189 26.238V26.182C93.3189 24.068 91.9329 22.99 89.4969 22.99H86.0389V33ZM88.2929 27.778V24.712H89.4409C90.5189 24.712 91.1349 25.132 91.1349 26.196V26.252C91.1349 27.246 90.5469 27.778 89.4409 27.778H88.2929Z" fill="#1F1F1F"/>
<path d="M94.8586 33H97.1406V22.99H94.8586V33Z" fill="#1F1F1F"/>
<g clip-path="url(#clip1_678_1982)">
<path fill-rule="evenodd" clip-rule="evenodd" d="M176.506 22.4891C176.506 22.9883 176.591 23.4722 176.761 23.9342C176.93 24.4006 177.178 24.8103 177.508 25.1681C177.838 25.5254 178.234 25.8109 178.697 26.0245C179.16 26.238 179.686 26.3451 180.273 26.3451C180.86 26.3451 181.386 26.238 181.849 26.0245C182.312 25.8109 182.708 25.5254 183.038 25.1681C183.366 24.8103 183.616 24.4006 183.786 23.9342C183.953 23.4722 184.038 22.9883 184.038 22.4891C184.038 21.99 183.953 21.5061 183.786 21.0417C183.616 20.5775 183.366 20.1679 183.038 19.8102C182.708 19.4529 182.312 19.1673 181.849 18.9535C181.386 18.74 180.86 18.6307 180.273 18.6307C179.686 18.6307 179.16 18.74 178.697 18.9535C178.234 19.1673 177.838 19.4529 177.508 19.8102C177.178 20.1679 176.93 20.5775 176.761 21.0417C176.591 21.5061 176.506 21.99 176.506 22.4891ZM184.092 26.9879H184.038C183.575 27.7749 182.954 28.346 182.169 28.7035C181.386 29.0588 180.541 29.2376 179.632 29.2376C178.634 29.2376 177.75 29.0653 176.973 28.7165C176.2 28.368 175.537 27.8905 174.984 27.2824C174.432 26.6764 174.013 25.9612 173.728 25.1395C173.443 24.32 173.302 23.4353 173.302 22.4891C173.302 21.543 173.452 20.6583 173.757 19.8366C174.058 19.0168 174.48 18.3019 175.024 17.6937C175.567 17.0878 176.221 16.6103 176.986 16.2619C177.754 15.913 178.591 15.7385 179.497 15.7385C180.104 15.7385 180.638 15.8018 181.101 15.9258C181.565 16.0522 181.973 16.2115 182.33 16.41C182.686 16.6061 182.988 16.8155 183.238 17.0376C183.486 17.262 183.692 17.4802 183.851 17.6937H183.932V10.611C183.932 10.2907 184.185 9.91192 184.631 9.91192H186.441C186.86 9.91192 187.138 10.265 187.138 10.611V28.2167C187.138 28.6639 186.76 28.917 186.441 28.917H184.793C184.401 28.917 184.092 28.586 184.092 28.2179V26.9879Z" fill="#1F1F1F"/>
<path fill-rule="evenodd" clip-rule="evenodd" d="M192.474 22.4855C192.474 22.9846 192.559 23.4686 192.728 23.9306C192.898 24.397 193.146 24.8067 193.476 25.1644C193.807 25.5217 194.202 25.8073 194.665 26.0209C195.128 26.2345 195.654 26.3415 196.241 26.3415C196.828 26.3415 197.354 26.2345 197.817 26.0209C198.28 25.8073 198.676 25.5217 199.006 25.1644C199.335 24.8067 199.584 24.397 199.754 23.9306C199.922 23.4686 200.006 22.9846 200.006 22.4855C200.006 21.9864 199.922 21.5025 199.754 21.038C199.584 20.5738 199.335 20.1643 199.006 19.8066C198.676 19.4493 198.28 19.1637 197.817 18.9499C197.354 18.7363 196.828 18.6271 196.241 18.6271C195.654 18.6271 195.128 18.7363 194.665 18.9499C194.202 19.1637 193.807 19.4493 193.476 19.8066C193.146 20.1643 192.898 20.5738 192.728 21.038C192.559 21.5025 192.474 21.9864 192.474 22.4855ZM189.27 22.4855C189.27 21.4673 189.452 20.5432 189.818 19.7127C190.181 18.8822 190.677 18.1738 191.3 17.5833C191.922 16.9949 192.661 16.5392 193.515 16.2166C194.372 15.8964 195.278 15.7349 196.241 15.7349C197.202 15.7349 198.111 15.8964 198.965 16.2166C199.819 16.5392 200.558 16.9949 201.182 17.5833C201.806 18.1738 202.3 18.8822 202.665 19.7127C203.03 20.5432 203.213 21.4673 203.213 22.4855C203.213 23.5034 203.03 24.4275 202.665 25.2578C202.3 26.0888 201.806 26.7969 201.182 27.3877C200.558 27.9761 199.819 28.4318 198.965 28.7521C198.111 29.0747 197.202 29.2339 196.241 29.2339C195.278 29.2339 194.372 29.0747 193.515 28.7521C192.661 28.4318 191.922 27.9761 191.3 27.3877C190.677 26.7969 190.181 26.0888 189.818 25.2578C189.452 24.4275 189.27 23.5034 189.27 22.4855Z" fill="#1F1F1F"/>
<path fill-rule="evenodd" clip-rule="evenodd" d="M204.828 11.6915C204.828 11.173 205.019 10.7239 205.402 10.3378C205.787 9.95425 206.271 9.76236 206.858 9.76236C207.445 9.76236 207.941 9.94541 208.341 10.3119C208.741 10.6779 208.943 11.1377 208.943 11.6915C208.943 12.2452 208.741 12.705 208.341 13.0713C207.941 13.4375 207.445 13.6206 206.858 13.6206C206.271 13.6206 205.787 13.4287 205.402 13.0429C205.019 12.6593 204.828 12.2104 204.828 11.6915Z" fill="#1F1F1F"/>
<path fill-rule="evenodd" clip-rule="evenodd" d="M218.059 19.6188C217.74 19.6188 217.504 19.376 217.464 19.2704C217.197 18.5701 216.348 18.307 215.663 18.307C214.581 18.307 213.733 18.8096 213.733 19.6737C213.733 20.5096 214.554 20.68 215.061 20.8341C215.618 21.0033 216.681 21.2355 217.267 21.3739C217.863 21.5144 218.418 21.7206 218.937 21.9908C220.639 22.8767 220.881 24.2704 220.881 25.1098C220.881 28.2063 217.821 29.2337 215.697 29.2337C214.06 29.2337 210.983 28.9851 210.308 25.8545C210.242 25.5499 210.511 25.0817 211.005 25.0817H212.774C213.123 25.0817 213.357 25.3363 213.425 25.5364C213.653 26.1654 214.376 26.6406 215.594 26.6406C216.902 26.6406 217.675 26.1206 217.675 25.4291C217.675 24.9822 217.422 24.5844 217.092 24.3602C216.1 23.686 213.648 23.6096 212.317 22.8994C211.808 22.6275 210.528 22.0062 210.528 19.8873C210.528 16.9666 213.176 15.7349 215.502 15.7349C218.933 15.7349 220.192 17.9084 220.334 18.714C220.413 19.1584 220.164 19.6188 219.665 19.6188H218.059Z" fill="#1F1F1F"/>
<path fill-rule="evenodd" clip-rule="evenodd" d="M221.143 18.028V16.6986C221.143 16.3811 221.393 15.9998 221.836 15.9998H223.545V12.7354C223.545 12.3859 223.781 12.1733 223.96 12.0951C224.066 12.0488 225.022 11.6307 225.786 11.2967C226.319 11.077 226.751 11.5173 226.751 11.942V15.9998H229.58C230.017 15.9998 230.277 16.3824 230.277 16.6986V18.0299C230.277 18.4156 229.933 18.7305 229.58 18.7305H226.751V24.3567C226.751 24.9993 226.733 25.5019 226.978 25.8731C227.203 26.2135 227.532 26.3398 228.193 26.3398C228.382 26.3398 228.551 26.308 228.694 26.2594C229.113 26.1157 229.426 26.361 229.532 26.5673C229.741 26.9719 229.98 27.4167 230.147 27.7352C230.331 28.0853 230.183 28.534 229.847 28.6974C229.304 28.9618 228.553 29.1761 227.522 29.1761C226.668 29.1761 226.184 29.0823 225.643 28.8946C225.1 28.7072 224.584 28.3097 224.274 27.9261C223.961 27.5424 223.806 27.0289 223.69 26.4576C223.573 25.8867 223.545 25.1938 223.545 24.442V18.7305H221.841C221.393 18.7305 221.143 18.3425 221.143 18.028Z" fill="#1F1F1F"/>
<path fill-rule="evenodd" clip-rule="evenodd" d="M205.959 28.9171H207.771C208.154 28.9171 208.468 28.6026 208.468 28.218V16.6985C208.468 16.314 208.154 15.9995 207.771 15.9995H205.959C205.575 15.9995 205.262 16.314 205.262 16.6985V28.218C205.262 28.6026 205.575 28.9171 205.959 28.9171Z" fill="#1F1F1F"/>
</g>
</g>
<defs>
<clipPath id="clip0_678_1982">
<rect width="243" height="40" rx="2" fill="white"/>
</clipPath>
<clipPath id="clip1_678_1982">
<rect width="57" height="31" fill="white" transform="translate(173 4)"/>
</clipPath>
</defs>
</svg>
