<?xml version="1.0" encoding="UTF-8" standalone="no"?>
<svg
   xmlns:dc="http://purl.org/dc/elements/1.1/"
   xmlns:cc="http://creativecommons.org/ns#"
   xmlns:rdf="http://www.w3.org/1999/02/22-rdf-syntax-ns#"
   xmlns:svg="http://www.w3.org/2000/svg"
   xmlns="http://www.w3.org/2000/svg"
   width="240.00002"
   height="100"
   viewBox="0 0 240.00002 100"
   fill="none"
   version="1.1"
   id="svg35">
  <metadata
     id="metadata39">
    <rdf:RDF>
      <cc:Work
         rdf:about="">
        <dc:format>image/svg+xml</dc:format>
        <dc:type
           rdf:resource="http://purl.org/dc/dcmitype/StillImage" />
        <dc:title></dc:title>
      </cc:Work>
    </rdf:RDF>
  </metadata>
  <path
     d="M 0,0 H 240.00002 V 100 H 0 Z"
     fill="#ffffff"
     id="path2"
     style="stroke-width:0.0406002" />
  <g
     id="g908"
     transform="translate(0,8.4984581)">
    <path
       d="m 89.098346,53.723081 c 6.816739,0 10.858339,-4.216615 10.858339,-11.208001 0,-6.969268 -4.0416,-11.164025 -10.705478,-11.164025 h -7.733908 v 22.372026 z m -3.52837,-3.506585 V 34.857603 h 3.451939 c 4.544493,0 6.914955,2.5344 6.914955,7.657477 0,5.145232 -2.370462,7.701416 -7.034955,7.701416 z m 18.062774,3.506585 h 3.95446 v -9.86437 c 0,-2.130092 1.60578,-3.637661 3.77945,-3.637661 0.66646,0 1.49649,0.120369 1.83507,0.229661 v -3.637736 c -0.36037,-0.06554 -0.98289,-0.109255 -1.42006,-0.109255 -1.92258,0 -3.52837,1.092222 -4.14018,3.03696 h -0.17465 v -2.796554 h -3.83409 z m 18.82449,0.327877 c 4.91557,0 8.04,-3.463015 8.04,-8.651816 0,-5.199877 -3.12443,-8.673564 -8.04,-8.673564 -4.91594,0 -8.04,3.473687 -8.04,8.673564 0,5.188801 3.12406,8.651816 8.04,8.651816 z m 0.0218,-3.168 c -2.72013,0 -4.05268,-2.425108 -4.05268,-5.494893 0,-3.069415 1.33255,-5.527385 4.05268,-5.527385 2.67618,0 4.0091,2.45797 4.0091,5.527385 0,3.069785 -1.33292,5.494893 -4.0091,5.494893 z m 11.37452,9.132185 h 3.95446 v -8.935754 h 0.16357 c 0.62289,1.223631 1.92259,2.938708 4.80665,2.938708 3.95446,0 6.91458,-3.135139 6.91458,-8.662524 0,-5.593108 -3.04763,-8.629995 -6.92566,-8.629995 -2.96012,0 -4.19446,1.780764 -4.79557,2.993318 h -0.22929 v -2.77477 h -3.88874 z m 3.87766,-14.681724 c 0,-3.255139 1.39828,-5.363446 3.94376,-5.363446 2.63261,0 3.98695,2.239384 3.98695,5.363446 0,3.146216 -1.37612,5.440247 -3.98695,5.440247 -2.52333,0 -3.94376,-2.184739 -3.94376,-5.440247 z m 15.52283,8.389662 h 3.88911 v -2.643692 h 0.22929 c 0.62253,1.223631 1.92259,2.938708 4.80665,2.938708 3.95446,0 6.91459,-3.135139 6.91459,-8.662524 0,-5.593108 -3.04764,-8.629995 -6.92567,-8.629995 -2.96049,0 -4.19483,1.780764 -4.79557,2.993318 h -0.16393 v -8.367841 h -3.95447 z m 3.87803,-8.389662 c 0,-3.255139 1.39828,-5.363446 3.94339,-5.363446 2.63298,0 3.98732,2.239384 3.98732,5.363446 0,3.146216 -1.37649,5.440247 -3.98732,5.440247 -2.52332,0 -3.94339,-2.184739 -3.94339,-5.440247 z m 20.15188,8.728247 c 2.63262,0 4.20554,-1.234339 4.92665,-2.643692 h 0.13108 v 2.305107 h 3.8016 V 42.493296 c 0,-4.434831 -3.61588,-5.767718 -6.81674,-5.767718 -3.52837,0 -6.23742,1.572887 -7.11139,4.631595 l 3.69231,0.524307 c 0.39323,-1.14683 1.50757,-2.130092 3.44086,-2.130092 1.83545,0 2.8405,0.939692 2.8405,2.589046 v 0.06572 c 0,1.135754 -1.19077,1.1904 -4.15127,1.507201 -3.25514,0.349661 -6.36849,1.321846 -6.36849,5.101661 0,3.298708 2.41403,5.046647 5.61489,5.046647 z m 1.02683,-2.905846 c -1.64972,0 -2.82941,-0.7536 -2.82941,-2.206524 0,-1.518277 1.32184,-2.151877 3.09157,-2.403323 1.03754,-0.141785 3.11335,-0.403938 3.62658,-0.819323 v 1.977231 c 0,1.868308 -1.50757,3.451939 -3.88874,3.451939 z m 25.07004,-9.776863 c -0.5461,-2.840123 -2.81834,-4.653379 -6.75065,-4.653379 -4.04197,0 -6.79495,1.988271 -6.78388,5.090549 -0.0111,2.446892 1.4965,4.063754 4.71914,4.729846 l 2.86191,0.601108 c 1.54043,0.338584 2.26117,0.961108 2.26117,1.911508 0,1.146831 -1.24505,2.010092 -3.12406,2.010092 -1.8133,0 -2.99299,-0.786461 -3.33194,-2.294031 l -3.85588,0.371446 c 0.49145,3.080493 3.08049,4.904862 7.19889,4.904862 4.19447,0 7.15496,-2.174031 7.16604,-5.352739 -0.0111,-2.392246 -1.55114,-3.856246 -4.71914,-4.544492 l -2.86228,-0.611816 c -1.704,-0.382154 -2.38117,-0.972184 -2.37046,-1.944369 -0.0107,-1.136123 1.24541,-1.922585 2.89477,-1.922585 1.82437,0 2.78584,0.993969 3.09157,2.0976 z m 11.0496,12.672001 c 3.91089,0 6.59815,-1.911877 7.29711,-4.828431 l -3.69231,-0.415015 c -0.53539,1.420061 -1.84616,2.162585 -3.55016,2.162585 -2.55618,0 -4.24947,-1.682216 -4.28233,-4.555201 h 11.68873 v -1.212554 c 0,-5.887754 -3.53944,-8.476764 -7.66855,-8.476764 -4.80665,0 -7.94179,3.528333 -7.94179,8.706426 0,5.265231 3.09157,8.618954 8.1493,8.618954 z m -4.21662,-10.30117 c 0.12,-2.141169 1.704,-3.943754 4.06376,-3.943754 2.27224,0 3.8016,1.660431 3.82338,3.943754 z"
       fill="#161616"
       id="path4"
       style="stroke-width:0.0369231" />
    <g
       id="g898">
      <g
         filter="url(#filter0_d_2_165)"
         id="g8"
         transform="scale(0.03692308)">
        <rect
           x="454"
           y="401"
           width="1438"
           height="1438"
           rx="100"
           fill="#ffffff"
           id="rect6" />
      </g>
      <rect
         x="21.821541"
         y="19.864616"
         width="42.978466"
         height="42.978466"
         rx="2.9887683"
         fill="#161616"
         id="rect10"
         style="stroke-width:0.0369231" />
      <path
         d="m 41.202465,54.873605 h -7.07077 c -2.332837,0 -4.224,-1.891201 -4.224,-4.224001 V 32.064003 c 0,-2.332837 1.891163,-4.224001 4.224,-4.224001 h 7.07077 z"
         fill="#ffffff"
         id="path12"
         style="stroke-width:0.0369231" />
      <path
         d="m 45.437542,29.205086 c 0,-0.583201 0.472616,-1.056001 1.056,-1.056001 h 7.07077 c 1.749785,0 3.168,1.418364 3.168,3.168001 v 7.919963 c 0,0.583385 -0.472615,1.056001 -1.056,1.056001 h -7.070769 c -1.749785,0 -3.168001,-1.418216 -3.168001,-3.168001 z"
         fill="#ffffff"
         id="path14"
         style="stroke-width:0.0369231" />
      <path
         d="m 45.437542,43.77785 c 0,-0.583016 0.472616,-1.056 1.056,-1.056 h 7.07077 c 1.749785,0 3.168,1.418215 3.168,3.168 v 7.920001 c 0,0.583384 -0.472615,1.056 -1.056,1.056 h -7.070769 c -1.749785,0 -3.168001,-1.418216 -3.168001,-3.168001 z"
         fill="#ffffff"
         id="path16"
         style="stroke-width:0.0369231" />
    </g>
  </g>
  <defs
     id="defs33">
    <filter
       id="filter0_d_2_165"
       x="408"
       y="355"
       width="1538"
       height="1538"
       filterUnits="userSpaceOnUse"
       color-interpolation-filters="sRGB">
      <feFlood
         flood-opacity="0"
         result="BackgroundImageFix"
         id="feFlood18" />
      <feColorMatrix
         in="SourceAlpha"
         type="matrix"
         values="0 0 0 0 0 0 0 0 0 0 0 0 0 0 0 0 0 0 127 0"
         result="hardAlpha"
         id="feColorMatrix20" />
      <feOffset
         dx="4"
         dy="4"
         id="feOffset22" />
      <feGaussianBlur
         stdDeviation="25"
         id="feGaussianBlur24" />
      <feColorMatrix
         type="matrix"
         values="0 0 0 0 0 0 0 0 0 0 0 0 0 0 0 0 0 0 0.5 0"
         id="feColorMatrix26" />
      <feBlend
         mode="normal"
         in2="BackgroundImageFix"
         result="effect1_dropShadow_2_165"
         id="feBlend28" />
      <feBlend
         mode="normal"
         in="SourceGraphic"
         in2="effect1_dropShadow_2_165"
         result="shape"
         id="feBlend30" />
    </filter>
  </defs>
</svg>
