<?xml version="1.0" encoding="UTF-8" standalone="no"?>
<svg
   xmlns:dc="http://purl.org/dc/elements/1.1/"
   xmlns:cc="http://creativecommons.org/ns#"
   xmlns:rdf="http://www.w3.org/1999/02/22-rdf-syntax-ns#"
   xmlns:svg="http://www.w3.org/2000/svg"
   xmlns="http://www.w3.org/2000/svg"
   width="280.85471"
   height="40"
   viewBox="0 0 280.85471 40"
   fill="none"
   version="1.1"
   id="svg35">
  <metadata
     id="metadata39">
    <rdf:RDF>
      <cc:Work
         rdf:about="">
        <dc:format>image/svg+xml</dc:format>
        <dc:type
           rdf:resource="http://purl.org/dc/dcmitype/StillImage" />
        <dc:title></dc:title>
      </cc:Work>
    </rdf:RDF>
  </metadata>
  <g
     id="g872"
     transform="scale(0.17094017)">
    <rect
       width="1643"
       height="234"
       fill="#ffffff"
       id="rect2"
       x="0"
       y="0" />
    <g
       filter="url(#filter0_d_411_15)"
       id="g6">
      <rect
         x="73"
         y="44.220699"
         width="138.30901"
         height="138.30901"
         rx="9.6181803"
         fill="#ffffff"
         id="rect4" />
    </g>
    <rect
       x="86.177002"
       y="57.397499"
       width="111.956"
       height="111.956"
       rx="7.7855101"
       fill="#161616"
       id="rect8" />
    <path
       d="m 136.663,148.593 h -18.419 c -6.077,0 -11.003,-4.927 -11.003,-11.003 V 89.1755 c 0,-6.0769 4.926,-11.0032 11.003,-11.0032 h 18.419 z"
       fill="#ffffff"
       id="path10" />
    <path
       d="m 147.695,81.7293 c 0,-1.5192 1.231,-2.7508 2.75,-2.7508 h 18.42 c 4.557,0 8.252,3.6947 8.252,8.2524 v 20.6311 c 0,1.519 -1.232,2.751 -2.751,2.751 h -18.419 c -4.558,0 -8.252,-3.695 -8.252,-8.253 z"
       fill="#ffffff"
       id="path12" />
    <path
       d="m 147.695,119.69 c 0,-1.519 1.231,-2.751 2.75,-2.751 h 18.42 c 4.557,0 8.252,3.695 8.252,8.253 v 20.631 c 0,1.519 -1.232,2.751 -2.751,2.751 h -18.419 c -4.558,0 -8.252,-3.695 -8.252,-8.253 z"
       fill="#ffffff"
       id="path14" />
    <path
       d="M 278.792,149 H 253.286 V 73.7296 h 26.021 c 7.473,0 13.892,1.5068 19.258,4.5206 5.391,2.9893 9.532,7.2894 12.423,12.9004 2.891,5.6109 4.337,12.3244 4.337,20.1404 0,7.841 -1.458,14.579 -4.374,20.215 -2.891,5.635 -7.069,9.96 -12.533,12.973 -5.439,3.014 -11.981,4.521 -19.626,4.521 z m -11.871,-11.798 h 11.21 c 5.243,0 9.617,-0.955 13.121,-2.867 3.503,-1.935 6.137,-4.814 7.901,-8.636 1.765,-3.847 2.647,-8.65 2.647,-14.408 0,-5.758 -0.882,-10.536 -2.647,-14.3335 -1.764,-3.8223 -4.373,-6.6768 -7.828,-8.5634 -3.43,-1.9112 -7.694,-2.8668 -12.79,-2.8668 H 266.921 Z M 327.692,149 V 92.5472 h 12.901 v 9.4088 h 0.588 c 1.029,-3.2588 2.793,-5.7703 5.292,-7.5344 2.524,-1.7887 5.403,-2.683 8.637,-2.683 0.735,0 1.556,0.0368 2.463,0.1103 0.931,0.049 1.702,0.1347 2.315,0.2572 v 12.2389 c -0.564,-0.196 -1.458,-0.368 -2.683,-0.515 -1.201,-0.171 -2.364,-0.257 -3.492,-0.257 -2.425,0 -4.606,0.527 -6.542,1.58 -1.911,1.03 -3.418,2.463 -4.52,4.301 -1.103,1.837 -1.654,3.957 -1.654,6.358 V 149 Z m 63.335,1.103 c -5.513,0 -10.291,-1.213 -14.334,-3.639 -4.042,-2.426 -7.179,-5.819 -9.408,-10.181 -2.206,-4.361 -3.308,-9.457 -3.308,-15.289 0,-5.831 1.102,-10.94 3.308,-15.326 2.229,-4.386 5.366,-7.7916 9.408,-10.2173 4.043,-2.4257 8.821,-3.6386 14.334,-3.6386 5.513,0 10.291,1.2129 14.334,3.6386 4.043,2.4257 7.167,5.8313 9.372,10.2173 2.23,4.386 3.344,9.495 3.344,15.326 0,5.832 -1.114,10.928 -3.344,15.289 -2.205,4.362 -5.329,7.755 -9.372,10.181 -4.043,2.426 -8.821,3.639 -14.334,3.639 z m 0.074,-10.659 c 2.989,0 5.488,-0.821 7.497,-2.462 2.009,-1.666 3.504,-3.896 4.484,-6.689 1.005,-2.794 1.507,-5.905 1.507,-9.336 0,-3.454 -0.502,-6.578 -1.507,-9.372 -0.98,-2.817 -2.475,-5.059 -4.484,-6.726 -2.009,-1.666 -4.508,-2.499 -7.497,-2.499 -3.063,0 -5.611,0.833 -7.645,2.499 -2.009,1.667 -3.516,3.909 -4.521,6.726 -0.98,2.794 -1.47,5.918 -1.47,9.372 0,3.431 0.49,6.542 1.47,9.336 1.005,2.793 2.512,5.023 4.521,6.689 2.034,1.641 4.582,2.462 7.645,2.462 z M 429.37,170.17 V 92.5472 h 13.084 v 9.3348 h 0.772 c 0.686,-1.372 1.654,-2.8295 2.903,-4.3732 1.25,-1.5681 2.941,-2.9035 5.072,-4.006 2.132,-1.1271 4.852,-1.6907 8.159,-1.6907 4.362,0 8.294,1.1149 11.798,3.3445 3.528,2.2052 6.322,5.4764 8.38,9.8134 2.083,4.312 3.124,9.605 3.124,15.877 0,6.199 -1.017,11.467 -3.051,15.804 -2.033,4.337 -4.802,7.645 -8.306,9.923 -3.504,2.279 -7.473,3.418 -11.908,3.418 -3.234,0 -5.917,-0.539 -8.049,-1.617 -2.131,-1.078 -3.847,-2.377 -5.145,-3.896 -1.274,-1.543 -2.267,-3.001 -2.977,-4.373 h -0.552 v 30.064 z m 13.047,-49.396 c 0,3.65 0.515,6.848 1.544,9.592 1.053,2.744 2.56,4.888 4.52,6.432 1.985,1.519 4.386,2.279 7.204,2.279 2.94,0 5.403,-0.784 7.387,-2.353 1.985,-1.592 3.48,-3.761 4.484,-6.505 1.029,-2.769 1.544,-5.917 1.544,-9.445 0,-3.504 -0.502,-6.616 -1.507,-9.336 -1.004,-2.719 -2.499,-4.851 -4.484,-6.395 -1.984,-1.543 -4.459,-2.315 -7.424,-2.315 -2.842,0 -5.256,0.747 -7.24,2.242 -1.985,1.494 -3.492,3.589 -4.521,6.285 -1.005,2.695 -1.507,5.868 -1.507,9.519 z M 494.643,149 V 73.7296 h 13.305 v 28.1524 h 0.551 c 0.686,-1.372 1.654,-2.8295 2.904,-4.3732 1.249,-1.5681 2.94,-2.9035 5.072,-4.006 2.131,-1.1271 4.851,-1.6907 8.159,-1.6907 4.361,0 8.294,1.1149 11.798,3.3445 3.528,2.2052 6.321,5.4764 8.379,9.8134 2.083,4.312 3.124,9.605 3.124,15.877 0,6.199 -1.016,11.467 -3.05,15.804 -2.034,4.337 -4.802,7.645 -8.306,9.923 -3.504,2.279 -7.473,3.418 -11.908,3.418 -3.235,0 -5.918,-0.539 -8.049,-1.617 -2.132,-1.078 -3.847,-2.377 -5.146,-3.896 -1.274,-1.543 -2.266,-3.001 -2.977,-4.373 h -0.771 V 149 Z m 13.048,-28.226 c 0,3.65 0.514,6.848 1.543,9.592 1.054,2.744 2.561,4.888 4.521,6.432 1.985,1.519 4.386,2.279 7.204,2.279 2.94,0 5.402,-0.784 7.387,-2.353 1.985,-1.592 3.479,-3.761 4.484,-6.505 1.029,-2.769 1.544,-5.917 1.544,-9.445 0,-3.504 -0.503,-6.616 -1.507,-9.336 -1.005,-2.719 -2.5,-4.851 -4.484,-6.395 -1.985,-1.543 -4.46,-2.315 -7.424,-2.315 -2.843,0 -5.256,0.747 -7.241,2.242 -1.984,1.494 -3.491,3.589 -4.52,6.285 -1.005,2.695 -1.507,5.868 -1.507,9.519 z m 67.8,29.365 c -3.577,0 -6.799,-0.637 -9.666,-1.911 -2.842,-1.298 -5.096,-3.21 -6.763,-5.733 -1.641,-2.524 -2.462,-5.636 -2.462,-9.336 0,-3.185 0.588,-5.819 1.764,-7.902 1.176,-2.082 2.781,-3.748 4.815,-4.998 2.034,-1.25 4.324,-2.193 6.873,-2.83 2.572,-0.662 5.231,-1.139 7.975,-1.433 3.308,-0.343 5.991,-0.65 8.049,-0.919 2.058,-0.294 3.553,-0.735 4.484,-1.323 0.956,-0.613 1.433,-1.556 1.433,-2.83 v -0.221 c 0,-2.769 -0.821,-4.912 -2.462,-6.432 -1.642,-1.519 -4.006,-2.278 -7.094,-2.278 -3.258,0 -5.843,0.71 -7.754,2.131 -1.887,1.422 -3.161,3.1 -3.823,5.036 l -12.422,-1.765 c 0.98,-3.43 2.597,-6.297 4.851,-8.5998 2.254,-2.3277 5.011,-4.0673 8.27,-5.2189 3.258,-1.1761 6.86,-1.7642 10.805,-1.7642 2.72,0 5.427,0.3185 8.122,0.9556 2.696,0.637 5.158,1.6906 7.388,3.1608 2.229,1.4456 4.018,3.418 5.366,5.9175 1.372,2.499 2.058,5.623 2.058,9.372 V 149 h -12.79 v -7.755 h -0.441 c -0.809,1.568 -1.948,3.038 -3.418,4.41 -1.446,1.348 -3.271,2.438 -5.476,3.271 -2.181,0.809 -4.742,1.213 -7.682,1.213 z m 3.455,-9.776 c 2.671,0 4.986,-0.527 6.946,-1.58 1.96,-1.078 3.467,-2.5 4.521,-4.264 1.078,-1.764 1.617,-3.687 1.617,-5.77 v -6.652 c -0.416,0.343 -1.127,0.661 -2.132,0.955 -0.98,0.294 -2.082,0.552 -3.307,0.772 -1.226,0.221 -2.438,0.417 -3.639,0.588 -1.201,0.172 -2.242,0.319 -3.124,0.441 -1.985,0.27 -3.761,0.711 -5.329,1.323 -1.568,0.613 -2.806,1.47 -3.712,2.573 -0.907,1.078 -1.36,2.475 -1.36,4.19 0,2.45 0.894,4.3 2.683,5.55 1.788,1.249 4.067,1.874 6.836,1.874 z m 84.348,-32.894 -12.128,1.323 c -0.343,-1.225 -0.943,-2.377 -1.801,-3.455 -0.833,-1.078 -1.96,-1.948 -3.381,-2.609 -1.421,-0.662 -3.161,-0.993 -5.219,-0.993 -2.769,0 -5.097,0.601 -6.983,1.801 -1.863,1.201 -2.781,2.757 -2.757,4.668 -0.024,1.642 0.576,2.977 1.801,4.006 1.25,1.029 3.308,1.875 6.175,2.536 l 9.629,2.058 c 5.341,1.152 9.311,2.977 11.908,5.476 2.622,2.5 3.945,5.771 3.969,9.814 -0.024,3.552 -1.066,6.689 -3.124,9.408 -2.033,2.696 -4.863,4.803 -8.49,6.322 -3.626,1.519 -7.791,2.279 -12.496,2.279 -6.909,0 -12.471,-1.446 -16.686,-4.337 -4.214,-2.916 -6.726,-6.971 -7.534,-12.166 l 12.974,-1.249 c 0.588,2.548 1.837,4.471 3.749,5.77 1.911,1.299 4.398,1.948 7.46,1.948 3.161,0 5.697,-0.649 7.608,-1.948 1.936,-1.299 2.904,-2.903 2.904,-4.815 0,-1.617 -0.625,-2.952 -1.875,-4.006 -1.225,-1.053 -3.136,-1.862 -5.733,-2.425 l -9.629,-2.022 c -5.415,-1.127 -9.421,-3.026 -12.019,-5.697 -2.597,-2.695 -3.883,-6.101 -3.859,-10.217 -0.024,-3.479 0.919,-6.493 2.83,-9.0412 1.936,-2.5727 4.619,-4.5574 8.049,-5.954 3.455,-1.4211 7.437,-2.1317 11.945,-2.1317 6.616,0 11.822,1.4089 15.62,4.2266 3.822,2.8178 6.187,6.6283 7.093,11.4303 z m 37.176,42.634 c -5.66,0 -10.548,-1.177 -14.664,-3.529 -4.092,-2.376 -7.241,-5.733 -9.446,-10.07 -2.205,-4.361 -3.308,-9.495 -3.308,-15.4 0,-5.807 1.103,-10.903 3.308,-15.289 2.23,-4.41 5.342,-7.8406 9.335,-10.2908 3.994,-2.4747 8.686,-3.7121 14.077,-3.7121 3.479,0 6.762,0.5636 9.85,1.6907 3.111,1.1025 5.856,2.8177 8.232,5.1454 2.402,2.3278 4.288,5.2928 5.66,8.8938 1.373,3.578 2.059,7.841 2.059,12.791 v 4.079 H 679.3 v -8.968 h 33.519 c -0.024,-2.548 -0.576,-4.814 -1.654,-6.799 -1.078,-2.009 -2.585,-3.59 -4.52,-4.741 -1.911,-1.152 -4.141,-1.728 -6.689,-1.728 -2.72,0 -5.109,0.662 -7.167,1.985 -2.058,1.299 -3.663,3.014 -4.815,5.146 -1.127,2.107 -1.703,4.422 -1.727,6.946 v 7.828 c 0,3.284 0.6,6.101 1.801,8.454 1.2,2.327 2.879,4.116 5.035,5.366 2.156,1.225 4.68,1.837 7.571,1.837 1.936,0 3.688,-0.269 5.256,-0.808 1.568,-0.564 2.928,-1.385 4.079,-2.463 1.152,-1.078 2.022,-2.413 2.61,-4.006 l 12.422,1.397 c -0.784,3.283 -2.278,6.15 -4.484,8.6 -2.18,2.426 -4.974,4.312 -8.379,5.66 -3.406,1.323 -7.302,1.985 -11.688,1.985 z m 75.335,-34.181 V 149 H 762.5 V 73.7296 h 13.011 V 102.14 h 0.662 c 1.323,-3.1855 3.369,-5.697 6.137,-7.5347 2.794,-1.8621 6.346,-2.7932 10.659,-2.7932 3.92,0 7.338,0.8208 10.254,2.4625 2.916,1.6416 5.17,4.0428 6.762,7.2034 1.618,3.161 2.426,7.02 2.426,11.577 V 149 h -13.305 v -33.886 c 0,-3.798 -0.98,-6.751 -2.94,-8.858 -1.935,-2.132 -4.655,-3.197 -8.159,-3.197 -2.352,0 -4.459,0.514 -6.322,1.543 -1.837,1.005 -3.283,2.463 -4.336,4.374 -1.029,1.911 -1.544,4.226 -1.544,6.946 z M 825.973,149 V 92.5472 h 13.305 V 149 Z m 6.689,-64.465 c -2.107,0 -3.92,-0.6983 -5.439,-2.0949 -1.52,-1.4212 -2.279,-3.1241 -2.279,-5.1087 0,-2.0092 0.759,-3.7121 2.279,-5.1087 1.519,-1.4211 3.332,-2.1317 5.439,-2.1317 2.132,0 3.945,0.7106 5.44,2.1317 1.519,1.3966 2.278,3.0995 2.278,5.1087 0,1.9846 -0.759,3.6875 -2.278,5.1087 -1.495,1.3966 -3.308,2.0949 -5.44,2.0949 z M 852.959,149 V 92.5472 h 12.9 v 9.4088 h 0.588 c 1.03,-3.2588 2.794,-5.7703 5.293,-7.5344 2.524,-1.7887 5.403,-2.683 8.637,-2.683 0.735,0 1.556,0.0368 2.462,0.1103 0.931,0.049 1.703,0.1347 2.316,0.2572 v 12.2389 c -0.564,-0.196 -1.458,-0.368 -2.683,-0.515 -1.201,-0.171 -2.365,-0.257 -3.492,-0.257 -2.425,0 -4.606,0.527 -6.542,1.58 -1.911,1.03 -3.418,2.463 -4.52,4.301 -1.103,1.837 -1.654,3.957 -1.654,6.358 V 149 Z m 41.035,0 V 92.5472 h 13.304 V 149 Z m 6.689,-64.465 c -2.107,0 -3.92,-0.6983 -5.44,-2.0949 -1.519,-1.4212 -2.278,-3.1241 -2.278,-5.1087 0,-2.0092 0.759,-3.7121 2.278,-5.1087 1.52,-1.4211 3.333,-2.1317 5.44,-2.1317 2.132,0 3.945,0.7106 5.439,2.1317 1.52,1.3966 2.279,3.0995 2.279,5.1087 0,1.9846 -0.759,3.6875 -2.279,5.1087 -1.494,1.3966 -3.307,2.0949 -5.439,2.0949 z m 33.602,31.387 V 149 H 920.98 V 92.5472 h 12.716 v 9.5928 h 0.662 c 1.299,-3.161 3.369,-5.6725 6.211,-7.5347 2.867,-1.8621 6.408,-2.7932 10.622,-2.7932 3.896,0 7.289,0.8331 10.181,2.4992 2.915,1.6662 5.17,4.0796 6.762,7.2407 1.617,3.16 2.414,6.995 2.389,11.503 V 149 h -13.305 v -33.886 c 0,-3.774 -0.98,-6.726 -2.94,-8.858 -1.935,-2.132 -4.618,-3.197 -8.049,-3.197 -2.327,0 -4.398,0.514 -6.211,1.543 -1.789,1.005 -3.198,2.463 -4.227,4.374 -1.004,1.911 -1.506,4.226 -1.506,6.946 z m 74.315,55.424 c -4.78,0 -8.883,-0.649 -12.313,-1.948 -3.43,-1.274 -6.187,-2.989 -8.269,-5.145 -2.083,-2.157 -3.529,-4.546 -4.337,-7.167 l 11.981,-2.904 c 0.539,1.103 1.323,2.193 2.352,3.271 1.03,1.103 2.416,2.009 4.156,2.72 1.76,0.735 3.98,1.103 6.65,1.103 3.77,0 6.9,-0.919 9.37,-2.757 2.48,-1.813 3.71,-4.802 3.71,-8.968 v -10.695 h -0.66 c -0.68,1.372 -1.69,2.781 -3.01,4.227 -1.3,1.445 -3.03,2.658 -5.18,3.638 -2.14,0.98 -4.82,1.47 -8.05,1.47 -4.34,0 -8.272,-1.016 -11.8,-3.05 -3.504,-2.058 -6.297,-5.121 -8.38,-9.188 -2.058,-4.092 -3.087,-9.213 -3.087,-15.363 0,-6.199 1.029,-11.43 3.087,-15.694 2.083,-4.288 4.888,-7.5342 8.417,-9.7394 3.528,-2.2296 7.463,-3.3445 11.793,-3.3445 3.31,0 6.03,0.5636 8.16,1.6907 2.16,1.1025 3.87,2.4379 5.15,4.006 1.27,1.5437 2.24,3.0012 2.9,4.3732 h 0.74 v -9.3348 h 13.12 v 57.3718 c 0,4.827 -1.15,8.821 -3.46,11.981 -2.3,3.161 -5.45,5.526 -9.44,7.094 -4,1.568 -8.53,2.352 -13.6,2.352 z m 0.11,-33.592 c 2.82,0 5.22,-0.687 7.2,-2.059 1.99,-1.372 3.49,-3.344 4.52,-5.917 1.03,-2.573 1.55,-5.66 1.55,-9.262 0,-3.552 -0.52,-6.664 -1.55,-9.335 -1,-2.671 -2.5,-4.741 -4.48,-6.211 -1.96,-1.495 -4.37,-2.242 -7.24,-2.242 -2.97,0 -5.44,0.772 -7.42,2.315 -1.989,1.544 -3.484,3.663 -4.488,6.359 -1.005,2.67 -1.507,5.709 -1.507,9.114 0,3.455 0.502,6.481 1.507,9.078 1.029,2.573 2.536,4.582 4.518,6.028 2.01,1.421 4.47,2.132 7.39,2.132 z m 90.69,12.349 c -5.66,0 -10.55,-1.177 -14.67,-3.529 -4.09,-2.376 -7.24,-5.733 -9.44,-10.07 -2.21,-4.361 -3.31,-9.495 -3.31,-15.4 0,-5.807 1.1,-10.903 3.31,-15.289 2.23,-4.41 5.34,-7.8406 9.33,-10.2908 4,-2.4747 8.69,-3.7121 14.08,-3.7121 3.48,0 6.76,0.5636 9.85,1.6907 3.11,1.1025 5.86,2.8177 8.23,5.1454 2.4,2.3278 4.29,5.2928 5.66,8.8938 1.37,3.578 2.06,7.841 2.06,12.791 v 4.079 h -46.27 v -8.968 h 33.52 c -0.03,-2.548 -0.58,-4.814 -1.66,-6.799 -1.07,-2.009 -2.58,-3.59 -4.52,-4.741 -1.91,-1.152 -4.14,-1.728 -6.69,-1.728 -2.72,0 -5.11,0.662 -7.16,1.985 -2.06,1.299 -3.67,3.014 -4.82,5.146 -1.13,2.107 -1.7,4.422 -1.73,6.946 v 7.828 c 0,3.284 0.6,6.101 1.81,8.454 1.2,2.327 2.87,4.116 5.03,5.366 2.16,1.225 4.68,1.837 7.57,1.837 1.94,0 3.69,-0.269 5.26,-0.808 1.57,-0.564 2.93,-1.385 4.08,-2.463 1.15,-1.078 2.02,-2.413 2.61,-4.006 l 12.42,1.397 c -0.78,3.283 -2.28,6.15 -4.48,8.6 -2.19,2.426 -4.98,4.312 -8.38,5.66 -3.41,1.323 -7.31,1.985 -11.69,1.985 z m 49.66,-34.181 V 149 h -13.3 V 92.5472 h 12.71 v 9.5928 h 0.66 c 1.3,-3.161 3.37,-5.6725 6.22,-7.5347 2.86,-1.8621 6.4,-2.7932 10.62,-2.7932 3.89,0 7.29,0.8331 10.18,2.4992 2.91,1.6662 5.17,4.0796 6.76,7.2407 1.62,3.16 2.41,6.995 2.39,11.503 V 149 h -13.31 v -33.886 c 0,-3.774 -0.98,-6.726 -2.94,-8.858 -1.93,-2.132 -4.61,-3.197 -8.04,-3.197 -2.33,0 -4.4,0.514 -6.22,1.543 -1.78,1.005 -3.19,2.463 -4.22,4.374 -1.01,1.911 -1.51,4.226 -1.51,6.946 z m 74.32,55.424 c -4.78,0 -8.89,-0.649 -12.32,-1.948 -3.43,-1.274 -6.18,-2.989 -8.27,-5.145 -2.08,-2.157 -3.52,-4.546 -4.33,-7.167 l 11.98,-2.904 c 0.54,1.103 1.32,2.193 2.35,3.271 1.03,1.103 2.41,2.009 4.15,2.72 1.77,0.735 3.99,1.103 6.66,1.103 3.77,0 6.89,-0.919 9.37,-2.757 2.47,-1.813 3.71,-4.802 3.71,-8.968 v -10.695 h -0.66 c -0.69,1.372 -1.69,2.781 -3.02,4.227 -1.29,1.445 -3.02,2.658 -5.18,3.638 -2.13,0.98 -4.81,1.47 -8.05,1.47 -4.33,0 -8.27,-1.016 -11.79,-3.05 -3.51,-2.058 -6.3,-5.121 -8.38,-9.188 -2.06,-4.092 -3.09,-9.213 -3.09,-15.363 0,-6.199 1.03,-11.43 3.09,-15.694 2.08,-4.288 4.88,-7.5342 8.41,-9.7394 3.53,-2.2296 7.46,-3.3445 11.8,-3.3445 3.31,0 6.03,0.5636 8.16,1.6907 2.16,1.1025 3.87,2.4379 5.15,4.006 1.27,1.5437 2.24,3.0012 2.9,4.3732 h 0.73 v -9.3348 h 13.12 v 57.3718 c 0,4.827 -1.15,8.821 -3.45,11.981 -2.3,3.161 -5.45,5.526 -9.45,7.094 -3.99,1.568 -8.52,2.352 -13.59,2.352 z m 0.11,-33.592 c 2.81,0 5.21,-0.687 7.2,-2.059 1.98,-1.372 3.49,-3.344 4.52,-5.917 1.03,-2.573 1.54,-5.66 1.54,-9.262 0,-3.552 -0.51,-6.664 -1.54,-9.335 -1,-2.671 -2.5,-4.741 -4.48,-6.211 -1.96,-1.495 -4.38,-2.242 -7.24,-2.242 -2.97,0 -5.44,0.772 -7.43,2.315 -1.98,1.544 -3.48,3.663 -4.48,6.359 -1.01,2.67 -1.51,5.709 -1.51,9.114 0,3.455 0.5,6.481 1.51,9.078 1.03,2.573 2.53,4.582 4.52,6.028 2.01,1.421 4.47,2.132 7.39,2.132 z M 1263.51,149 V 92.5472 h 13.3 V 149 Z m 6.69,-64.465 c -2.11,0 -3.92,-0.6983 -5.44,-2.0949 -1.52,-1.4212 -2.28,-3.1241 -2.28,-5.1087 0,-2.0092 0.76,-3.7121 2.28,-5.1087 1.52,-1.4211 3.33,-2.1317 5.44,-2.1317 2.13,0 3.94,0.7106 5.44,2.1317 1.52,1.3966 2.28,3.0995 2.28,5.1087 0,1.9846 -0.76,3.6875 -2.28,5.1087 -1.5,1.3966 -3.31,2.0949 -5.44,2.0949 z m 33.6,31.387 V 149 h -13.3 V 92.5472 h 12.71 v 9.5928 h 0.66 c 1.3,-3.161 3.37,-5.6725 6.22,-7.5347 2.86,-1.8621 6.4,-2.7932 10.62,-2.7932 3.89,0 7.29,0.8331 10.18,2.4992 2.91,1.6662 5.17,4.0796 6.76,7.2407 1.62,3.16 2.41,6.995 2.39,11.503 V 149 h -13.31 v -33.886 c 0,-3.774 -0.98,-6.726 -2.94,-8.858 -1.93,-2.132 -4.61,-3.197 -8.04,-3.197 -2.33,0 -4.4,0.514 -6.22,1.543 -1.78,1.005 -3.19,2.463 -4.22,4.374 -1.01,1.911 -1.51,4.226 -1.51,6.946 z m 74.76,34.181 c -5.66,0 -10.55,-1.177 -14.67,-3.529 -4.09,-2.376 -7.24,-5.733 -9.44,-10.07 -2.21,-4.361 -3.31,-9.495 -3.31,-15.4 0,-5.807 1.1,-10.903 3.31,-15.289 2.23,-4.41 5.34,-7.8406 9.33,-10.2908 4,-2.4747 8.69,-3.7121 14.08,-3.7121 3.48,0 6.76,0.5636 9.85,1.6907 3.11,1.1025 5.85,2.8177 8.23,5.1454 2.4,2.3278 4.29,5.2928 5.66,8.8938 1.37,3.578 2.06,7.841 2.06,12.791 v 4.079 h -46.27 v -8.968 h 33.52 c -0.03,-2.548 -0.58,-4.814 -1.66,-6.799 -1.08,-2.009 -2.58,-3.59 -4.52,-4.741 -1.91,-1.152 -4.14,-1.728 -6.69,-1.728 -2.72,0 -5.11,0.662 -7.16,1.985 -2.06,1.299 -3.67,3.014 -4.82,5.146 -1.13,2.107 -1.7,4.422 -1.73,6.946 v 7.828 c 0,3.284 0.6,6.101 1.8,8.454 1.2,2.327 2.88,4.116 5.04,5.366 2.16,1.225 4.68,1.837 7.57,1.837 1.94,0 3.69,-0.269 5.26,-0.808 1.56,-0.564 2.92,-1.385 4.08,-2.463 1.15,-1.078 2.02,-2.413 2.61,-4.006 l 12.42,1.397 c -0.79,3.283 -2.28,6.15 -4.49,8.6 -2.18,2.426 -4.97,4.312 -8.38,5.66 -3.4,1.323 -7.3,1.985 -11.68,1.985 z m 61.35,0 c -5.66,0 -10.55,-1.177 -14.67,-3.529 -4.09,-2.376 -7.24,-5.733 -9.44,-10.07 -2.21,-4.361 -3.31,-9.495 -3.31,-15.4 0,-5.807 1.1,-10.903 3.31,-15.289 2.23,-4.41 5.34,-7.8406 9.33,-10.2908 4,-2.4747 8.69,-3.7121 14.08,-3.7121 3.48,0 6.76,0.5636 9.85,1.6907 3.11,1.1025 5.85,2.8177 8.23,5.1454 2.4,2.3278 4.29,5.2928 5.66,8.8938 1.37,3.578 2.06,7.841 2.06,12.791 v 4.079 h -46.27 v -8.968 h 33.52 c -0.03,-2.548 -0.58,-4.814 -1.66,-6.799 -1.08,-2.009 -2.58,-3.59 -4.52,-4.741 -1.91,-1.152 -4.14,-1.728 -6.69,-1.728 -2.72,0 -5.11,0.662 -7.16,1.985 -2.06,1.299 -3.67,3.014 -4.82,5.146 -1.13,2.107 -1.7,4.422 -1.73,6.946 v 7.828 c 0,3.284 0.6,6.101 1.8,8.454 1.2,2.327 2.88,4.116 5.04,5.366 2.16,1.225 4.68,1.837 7.57,1.837 1.94,0 3.69,-0.269 5.26,-0.808 1.56,-0.564 2.92,-1.385 4.08,-2.463 1.15,-1.078 2.02,-2.413 2.61,-4.006 l 12.42,1.397 c -0.79,3.283 -2.28,6.15 -4.49,8.6 -2.18,2.426 -4.97,4.312 -8.38,5.66 -3.4,1.323 -7.3,1.985 -11.68,1.985 z M 1476.26,149 V 92.5472 h 12.91 v 9.4088 h 0.58 c 1.03,-3.2588 2.8,-5.7703 5.3,-7.5344 2.52,-1.7887 5.4,-2.683 8.63,-2.683 0.74,0 1.56,0.0368 2.47,0.1103 0.93,0.049 1.7,0.1347 2.31,0.2572 v 12.2389 c -0.56,-0.196 -1.46,-0.368 -2.68,-0.515 -1.2,-0.171 -2.37,-0.257 -3.49,-0.257 -2.43,0 -4.61,0.527 -6.55,1.58 -1.91,1.03 -3.41,2.463 -4.52,4.301 -1.1,1.837 -1.65,3.957 -1.65,6.358 V 149 Z m 85.66,-41.531 -12.13,1.323 c -0.34,-1.225 -0.94,-2.377 -1.8,-3.455 -0.83,-1.078 -1.96,-1.948 -3.38,-2.609 -1.42,-0.662 -3.16,-0.993 -5.22,-0.993 -2.77,0 -5.1,0.601 -6.98,1.801 -1.87,1.201 -2.79,2.757 -2.76,4.668 -0.03,1.642 0.57,2.977 1.8,4.006 1.25,1.029 3.31,1.875 6.17,2.536 l 9.63,2.058 c 5.34,1.152 9.31,2.977 11.91,5.476 2.62,2.5 3.95,5.771 3.97,9.814 -0.02,3.552 -1.06,6.689 -3.12,9.408 -2.04,2.696 -4.87,4.803 -8.49,6.322 -3.63,1.519 -7.79,2.279 -12.5,2.279 -6.91,0 -12.47,-1.446 -16.69,-4.337 -4.21,-2.916 -6.72,-6.971 -7.53,-12.166 l 12.97,-1.249 c 0.59,2.548 1.84,4.471 3.75,5.77 1.91,1.299 4.4,1.948 7.46,1.948 3.16,0 5.7,-0.649 7.61,-1.948 1.94,-1.299 2.91,-2.903 2.91,-4.815 0,-1.617 -0.63,-2.952 -1.88,-4.006 -1.22,-1.053 -3.14,-1.862 -5.73,-2.425 l -9.63,-2.022 c -5.42,-1.127 -9.42,-3.026 -12.02,-5.697 -2.6,-2.695 -3.88,-6.101 -3.86,-10.217 -0.02,-3.479 0.92,-6.493 2.83,-9.0412 1.94,-2.5727 4.62,-4.5574 8.05,-5.954 3.45,-1.4211 7.44,-2.1317 11.94,-2.1317 6.62,0 11.83,1.4089 15.62,4.2266 3.83,2.8178 6.19,6.6283 7.1,11.4303 z"
       fill="#161616"
       id="path16" />
  </g>
  <defs
     id="defs33">
    <filter
       id="filter0_d_411_15"
       x="68.5756"
       y="39.796299"
       width="147.92799"
       height="147.92799"
       filterUnits="userSpaceOnUse"
       color-interpolation-filters="sRGB">
      <feFlood
         flood-opacity="0"
         result="BackgroundImageFix"
         id="feFlood18" />
      <feColorMatrix
         in="SourceAlpha"
         type="matrix"
         values="0 0 0 0 0 0 0 0 0 0 0 0 0 0 0 0 0 0 127 0"
         result="hardAlpha"
         id="feColorMatrix20" />
      <feOffset
         dx="0.384727"
         dy="0.384727"
         id="feOffset22" />
      <feGaussianBlur
         stdDeviation="2.40455"
         id="feGaussianBlur24" />
      <feColorMatrix
         type="matrix"
         values="0 0 0 0 0 0 0 0 0 0 0 0 0 0 0 0 0 0 0.5 0"
         id="feColorMatrix26" />
      <feBlend
         mode="normal"
         in2="BackgroundImageFix"
         result="effect1_dropShadow_411_15"
         id="feBlend28" />
      <feBlend
         mode="normal"
         in="SourceGraphic"
         in2="effect1_dropShadow_411_15"
         result="shape"
         id="feBlend30" />
    </filter>
  </defs>
</svg>
