<?xml version="1.0" encoding="UTF-8" standalone="no"?>
<svg
   xmlns:dc="http://purl.org/dc/elements/1.1/"
   xmlns:cc="http://creativecommons.org/ns#"
   xmlns:rdf="http://www.w3.org/1999/02/22-rdf-syntax-ns#"
   xmlns:svg="http://www.w3.org/2000/svg"
   xmlns="http://www.w3.org/2000/svg"
   width="77.611115mm"
   height="7.0555558mm"
   viewBox="0 0 77.611115 7.0555558"
   version="1.1"
   id="svg853">
  <defs
     id="defs847" />
  <metadata
     id="metadata850">
    <rdf:RDF>
      <cc:Work
         rdf:about="">
        <dc:format>image/svg+xml</dc:format>
        <dc:type
           rdf:resource="http://purl.org/dc/dcmitype/StillImage" />
        <dc:title></dc:title>
      </cc:Work>
    </rdf:RDF>
  </metadata>
  <g
     id="layer1"
     transform="translate(-80.634918,-82.650795)">
    <rect
       style="fill:#ffffff;stroke-width:0.2;stop-color:#000000"
       id="rect1784"
       width="77.611115"
       height="7.0555558"
       x="80.634918"
       y="82.650795" />
    <g
       id="g1481"
       transform="translate(0.58973932)">
      <g
         aria-label="FastAPI Course Bundle. Get 3 in-depth courses. Save 10%!"
         transform="scale(1.0561291,0.94685395)"
         id="text871"
         style="font-size:2.43444px;line-height:1.25;font-family:Ubuntu;-inkscape-font-specification:Ubuntu;letter-spacing:0px;word-spacing:0px;stroke-width:0.0608608">
        <path
           d="M 82.908985,91.735077 V 90.04801 h 1.017596 v 0.202059 h -0.781455 v 0.508798 h 0.693815 v 0.199624 h -0.693815 v 0.776586 z"
           style="stroke-width:0.0608608"
           id="path2578" />
        <path
           d="m 84.506776,91.571969 q 0.08034,0 0.141198,-0.0024 0.06329,-0.0049 0.104681,-0.01461 V 91.17759 q -0.02435,-0.01217 -0.08034,-0.01947 -0.05356,-0.0097 -0.13146,-0.0097 -0.05112,0 -0.109549,0.0073 -0.05599,0.0073 -0.104681,0.03165 -0.04626,0.02191 -0.0779,0.0633 -0.03165,0.03895 -0.03165,0.104681 0,0.121722 0.0779,0.170411 0.0779,0.04625 0.211796,0.04625 z m -0.01947,-1.134449 q 0.136328,0 0.228837,0.03652 0.09494,0.03408 0.150935,0.09981 0.05843,0.0633 0.08277,0.15337 0.02434,0.08764 0.02434,0.194755 v 0.791193 q -0.02921,0.0049 -0.08277,0.01461 -0.05112,0.0073 -0.116853,0.01461 -0.06573,0.0073 -0.143632,0.01217 -0.07547,0.0073 -0.150936,0.0073 -0.107115,0 -0.197189,-0.02191 -0.09007,-0.02191 -0.155804,-0.06817 -0.06573,-0.04869 -0.102247,-0.12659 -0.03652,-0.0779 -0.03652,-0.187452 0,-0.104681 0.04138,-0.180149 0.04382,-0.07547 0.116853,-0.121722 0.07303,-0.04625 0.170411,-0.06816 0.09738,-0.02191 0.204493,-0.02191 0.03408,0 0.0706,0.0049 0.03652,0.0024 0.06816,0.0097 0.03408,0.0049 0.05843,0.0097 0.02434,0.0049 0.03408,0.0073 v -0.0633 q 0,-0.05599 -0.01217,-0.10955 -0.01217,-0.05599 -0.04382,-0.09738 -0.03165,-0.04382 -0.08764,-0.06817 -0.05356,-0.02678 -0.141198,-0.02678 -0.111984,0 -0.197189,0.01704 -0.08277,0.01461 -0.124157,0.03165 L 84.1197,90.493513 q 0.04382,-0.01948 0.146067,-0.03652 0.102246,-0.01948 0.221534,-0.01948 z"
           style="stroke-width:0.0608608"
           id="path2580" />
        <path
           d="m 85.642404,91.571969 q 0.138763,0 0.204493,-0.03652 0.06817,-0.03652 0.06817,-0.116853 0,-0.08277 -0.06573,-0.13146 -0.06573,-0.04869 -0.216665,-0.10955 -0.07303,-0.02921 -0.141198,-0.05843 -0.06573,-0.03165 -0.114419,-0.07303 -0.04869,-0.04139 -0.0779,-0.09981 -0.02921,-0.05843 -0.02921,-0.143632 0,-0.167976 0.124156,-0.265354 0.124157,-0.09981 0.338388,-0.09981 0.05356,0 0.107115,0.0073 0.05356,0.0049 0.09981,0.01461 0.04625,0.0073 0.08034,0.01704 0.03652,0.0097 0.05599,0.01704 l -0.04139,0.194755 q -0.03652,-0.01948 -0.114419,-0.03895 -0.0779,-0.02191 -0.187451,-0.02191 -0.09494,0 -0.165542,0.03895 -0.0706,0.03652 -0.0706,0.116853 0,0.04139 0.01461,0.07303 0.01704,0.03165 0.04869,0.05843 0.03408,0.02434 0.08277,0.04625 0.04869,0.02191 0.116853,0.04625 0.09007,0.03408 0.160673,0.06817 0.0706,0.03165 0.119288,0.07547 0.05112,0.04382 0.0779,0.107116 0.02678,0.06086 0.02678,0.150935 0,0.17528 -0.13146,0.265354 -0.129025,0.09007 -0.370035,0.09007 -0.167976,0 -0.262919,-0.02921 -0.09494,-0.02678 -0.129026,-0.04139 l 0.04139,-0.194755 q 0.03895,0.01461 0.124156,0.04382 0.08521,0.02921 0.226403,0.02921 z"
           style="stroke-width:0.0608608"
           id="path2582" />
        <path
           d="m 86.64372,90.469168 h 0.479585 v 0.189886 H 86.64372 v 0.584266 q 0,0.09494 0.01461,0.158239 0.01461,0.06086 0.04382,0.09738 0.02921,0.03408 0.07303,0.04869 0.04382,0.01461 0.102246,0.01461 0.102247,0 0.163108,-0.02191 0.0633,-0.02434 0.08764,-0.03408 l 0.04382,0.187451 q -0.03408,0.01704 -0.119287,0.04139 -0.08521,0.02678 -0.194755,0.02678 -0.129026,0 -0.214231,-0.03165 -0.08277,-0.03408 -0.133894,-0.09981 -0.05112,-0.06573 -0.07303,-0.160673 -0.01948,-0.09738 -0.01948,-0.223969 v -1.12958 l 0.226403,-0.03895 z"
           style="stroke-width:0.0608608"
           id="path2584" />
        <path
           d="m 88.553158,91.735077 q -0.04139,-0.10955 -0.0779,-0.214231 -0.03652,-0.107115 -0.07547,-0.216665 h -0.764414 l -0.15337,0.430896 h -0.245878 q 0.09738,-0.267788 0.182583,-0.494191 0.0852,-0.228838 0.165541,-0.433331 0.08277,-0.204493 0.163108,-0.38951 0.08034,-0.187452 0.167976,-0.370035 h 0.216665 q 0.08764,0.182583 0.167977,0.370035 0.08034,0.185017 0.160673,0.38951 0.08277,0.204493 0.167976,0.433331 0.08521,0.226403 0.182583,0.494191 z m -0.221535,-0.625651 q -0.0779,-0.211796 -0.155804,-0.408986 -0.07547,-0.199624 -0.158238,-0.382207 -0.08521,0.182583 -0.163108,0.382207 -0.07547,0.19719 -0.150935,0.408986 z"
           style="stroke-width:0.0608608"
           id="path2586" />
        <path
           d="m 89.485815,90.030969 q 0.355428,0 0.545314,0.136329 0.192321,0.133894 0.192321,0.401682 0,0.146067 -0.05356,0.250748 -0.05112,0.102246 -0.150935,0.167976 -0.09738,0.0633 -0.238575,0.09251 -0.141198,0.02921 -0.318912,0.02921 h -0.187451 v 0.625651 h -0.236141 v -1.662723 q 0.09981,-0.02434 0.221534,-0.03165 0.124156,-0.0097 0.226403,-0.0097 z m 0.01947,0.206927 q -0.150935,0 -0.231271,0.0073 v 0.662167 h 0.177714 q 0.121722,0 0.219099,-0.01461 0.09738,-0.01704 0.163108,-0.05356 0.06816,-0.03895 0.104681,-0.104681 0.03652,-0.06573 0.03652,-0.167976 0,-0.09738 -0.03895,-0.160673 -0.03652,-0.0633 -0.102246,-0.09981 -0.0633,-0.03895 -0.148501,-0.05356 -0.08521,-0.01461 -0.180149,-0.01461 z"
           style="stroke-width:0.0608608"
           id="path2588" />
        <path
           d="m 90.516609,90.04801 h 0.236141 v 1.687067 h -0.236141 z"
           style="stroke-width:0.0608608"
           id="path2590" />
        <path
           d="m 92.488506,91.769159 q -0.411421,0 -0.628086,-0.228837 -0.214231,-0.228838 -0.214231,-0.649996 0,-0.209362 0.06573,-0.372469 0.06573,-0.165542 0.180149,-0.277526 0.114419,-0.114419 0.272657,-0.172845 0.158239,-0.05843 0.343256,-0.05843 0.107116,0 0.194755,0.01704 0.08764,0.01461 0.15337,0.03652 0.06573,0.01947 0.10955,0.04138 0.04382,0.02191 0.0633,0.03408 l -0.109549,0.30674 q -0.0779,-0.04139 -0.182583,-0.0706 -0.102247,-0.02921 -0.233707,-0.02921 -0.08764,0 -0.172845,0.02921 -0.08277,0.02921 -0.148501,0.09494 -0.06329,0.0633 -0.102246,0.165542 -0.03895,0.102247 -0.03895,0.248313 0,0.116853 0.02434,0.2191 0.02678,0.09981 0.08277,0.172845 0.05843,0.07303 0.150935,0.116853 0.09251,0.04139 0.223969,0.04139 0.08277,0 0.148501,-0.0097 0.06573,-0.0097 0.116853,-0.02191 0.05112,-0.01461 0.09007,-0.03165 0.03895,-0.01704 0.0706,-0.03165 l 0.104681,0.304305 q -0.08034,0.04869 -0.226403,0.08764 -0.146067,0.03895 -0.338387,0.03895 z"
           style="font-weight:bold;stroke-width:0.0608608"
           id="path2592" />
        <path
           d="m 94.442676,91.092385 q 0,0.150935 -0.04382,0.277526 -0.04382,0.124156 -0.126591,0.214231 -0.08277,0.08764 -0.199624,0.136328 -0.114418,0.04869 -0.25805,0.04869 -0.141198,0 -0.258051,-0.04869 -0.114419,-0.04869 -0.197189,-0.136328 -0.08277,-0.09007 -0.129026,-0.214231 -0.04625,-0.126591 -0.04625,-0.277526 0,-0.150936 0.04625,-0.275092 0.04869,-0.124156 0.13146,-0.211796 0.08521,-0.08764 0.199624,-0.136329 0.116853,-0.04869 0.253182,-0.04869 0.138763,0 0.253182,0.04869 0.116853,0.04869 0.199624,0.136329 0.08277,0.08764 0.129025,0.211796 0.04625,0.124156 0.04625,0.275092 z m -0.370035,0 q 0,-0.167977 -0.06816,-0.26292 -0.06573,-0.09738 -0.189886,-0.09738 -0.124157,0 -0.192321,0.09738 -0.06816,0.09494 -0.06816,0.26292 0,0.167976 0.06816,0.267788 0.06816,0.09738 0.192321,0.09738 0.124156,0 0.189886,-0.09738 0.06816,-0.09981 0.06816,-0.267788 z"
           style="font-weight:bold;stroke-width:0.0608608"
           id="path2594" />
        <path
           d="m 95.816727,91.691257 q -0.09251,0.02678 -0.238575,0.04869 -0.146066,0.02434 -0.306739,0.02434 -0.163108,0 -0.272657,-0.04382 -0.107116,-0.04382 -0.170411,-0.121722 -0.0633,-0.08034 -0.09007,-0.189886 -0.02678,-0.10955 -0.02678,-0.24101 v -0.71329 h 0.362731 v 0.66947 q 0,0.17528 0.04626,0.253182 0.04625,0.0779 0.172845,0.0779 0.03895,0 0.08277,-0.0024 0.04382,-0.0049 0.0779,-0.0097 v -0.988382 h 0.362731 z"
           style="font-weight:bold;stroke-width:0.0608608"
           id="path2596" />
        <path
           d="m 96.93132,90.775908 q -0.04869,-0.01217 -0.114418,-0.02434 -0.06573,-0.01461 -0.141198,-0.01461 -0.03408,0 -0.08277,0.0073 -0.04625,0.0049 -0.0706,0.01217 v 0.978645 h -0.362731 v -1.212351 q 0.09738,-0.03408 0.228837,-0.0633 0.133894,-0.03165 0.297002,-0.03165 0.02921,0 0.0706,0.0049 0.04139,0.0024 0.08277,0.0097 0.04138,0.0049 0.08277,0.01461 0.04139,0.0073 0.0706,0.01947 z"
           style="font-weight:bold;stroke-width:0.0608608"
           id="path2598" />
        <path
           d="m 97.554233,91.474592 q 0.09981,0 0.141198,-0.01948 0.04139,-0.01947 0.04139,-0.07547 0,-0.04382 -0.05356,-0.07547 -0.05356,-0.03408 -0.163108,-0.07547 -0.08521,-0.03165 -0.155804,-0.06573 -0.06816,-0.03408 -0.116853,-0.08034 -0.04869,-0.04869 -0.07547,-0.114419 -0.02678,-0.06573 -0.02678,-0.158238 0,-0.180149 0.133895,-0.28483 0.133894,-0.104681 0.3676,-0.104681 0.116853,0 0.223968,0.02191 0.107116,0.01948 0.170411,0.04382 l -0.0633,0.282395 q -0.0633,-0.02191 -0.138763,-0.03895 -0.07303,-0.01704 -0.165542,-0.01704 -0.170411,0 -0.170411,0.09494 0,0.02191 0.0073,0.03895 0.0073,0.01704 0.02921,0.03408 0.02191,0.01461 0.05843,0.03408 0.03895,0.01704 0.09738,0.03895 0.119287,0.04382 0.197189,0.08764 0.0779,0.04138 0.121722,0.09251 0.04626,0.04869 0.0633,0.10955 0.01947,0.06086 0.01947,0.141198 0,0.189886 -0.143632,0.287263 -0.141197,0.09738 -0.401682,0.09738 -0.170411,0 -0.28483,-0.02921 -0.111984,-0.02921 -0.155804,-0.04869 l 0.06086,-0.294567 q 0.09251,0.03652 0.189886,0.05843 0.09738,0.01948 0.192321,0.01948 z"
           style="font-weight:bold;stroke-width:0.0608608"
           id="path2600" />
        <path
           d="m 98.304953,91.104557 q 0,-0.170411 0.05112,-0.297002 0.05356,-0.129025 0.138763,-0.21423 0.08521,-0.08521 0.194755,-0.129026 0.111985,-0.04382 0.228838,-0.04382 0.272657,0 0.430896,0.167977 0.158238,0.165542 0.158238,0.489322 0,0.03165 -0.0024,0.0706 -0.0024,0.03652 -0.0049,0.06573 h -0.822841 q 0.01217,0.111984 0.104681,0.177714 0.09251,0.06573 0.248313,0.06573 0.09981,0 0.194755,-0.01704 0.09738,-0.01948 0.158239,-0.04626 l 0.04869,0.294568 q -0.02921,0.01461 -0.0779,0.02921 -0.04869,0.01461 -0.109549,0.02434 -0.05843,0.01217 -0.126591,0.01948 -0.06816,0.0073 -0.136329,0.0073 -0.172845,0 -0.30187,-0.05112 -0.126591,-0.05112 -0.211797,-0.138763 -0.08277,-0.09007 -0.124156,-0.211797 -0.03895,-0.121722 -0.03895,-0.262919 z m 0.852054,-0.138763 q -0.0024,-0.04625 -0.01704,-0.09007 -0.01217,-0.04382 -0.04139,-0.0779 -0.02678,-0.03408 -0.0706,-0.05599 -0.04139,-0.02191 -0.104681,-0.02191 -0.06086,0 -0.104681,0.02191 -0.04382,0.01948 -0.07303,0.05356 -0.02921,0.03408 -0.04626,0.08034 -0.01461,0.04382 -0.02191,0.09007 z"
           style="font-weight:bold;stroke-width:0.0608608"
           id="path2602" />
        <path
           d="m 100.95902,91.756987 q -0.13876,0 -0.27752,-0.0097 -0.13633,-0.0073 -0.28483,-0.03895 v -1.635944 q 0.11685,-0.02191 0.25562,-0.03165 0.13876,-0.01217 0.25805,-0.01217 0.16067,0 0.29456,0.02434 0.13633,0.02191 0.23371,0.0779 0.0974,0.05599 0.15093,0.148501 0.056,0.09007 0.056,0.223968 0,0.202059 -0.19476,0.318912 0.16067,0.06086 0.2191,0.165542 0.0584,0.104681 0.0584,0.236141 0,0.265353 -0.19476,0.399248 -0.19232,0.133894 -0.57453,0.133894 z m -0.19232,-0.757111 v 0.435765 q 0.0414,0.0049 0.0901,0.0073 0.0487,0.0024 0.10711,0.0024 0.17041,0 0.2751,-0.04869 0.10468,-0.04869 0.10468,-0.180149 0,-0.116853 -0.0876,-0.165542 -0.0876,-0.05112 -0.25075,-0.05112 z m 0,-0.289698 h 0.18502 q 0.17528,0 0.25075,-0.04382 0.0755,-0.04626 0.0755,-0.146067 0,-0.102246 -0.0779,-0.143632 -0.0779,-0.04139 -0.22883,-0.04139 -0.0487,0 -0.10468,0.0024 -0.056,0 -0.0998,0.0049 z"
           style="font-weight:bold;stroke-width:0.0608608"
           id="path2604" />
        <path
           d="m 103.10103,91.691257 q -0.0925,0.02678 -0.23858,0.04869 -0.14606,0.02434 -0.30674,0.02434 -0.1631,0 -0.27265,-0.04382 -0.10712,-0.04382 -0.17042,-0.121722 -0.0633,-0.08034 -0.0901,-0.189886 -0.0268,-0.10955 -0.0268,-0.24101 v -0.71329 h 0.36273 v 0.66947 q 0,0.17528 0.0463,0.253182 0.0463,0.0779 0.17284,0.0779 0.0389,0 0.0828,-0.0024 0.0438,-0.0049 0.0779,-0.0097 v -0.988382 h 0.36273 z"
           style="font-weight:bold;stroke-width:0.0608608"
           id="path2606" />
        <path
           d="m 103.4439,90.498381 q 0.0925,-0.02678 0.23858,-0.04869 0.14607,-0.02434 0.30674,-0.02434 0.16311,0 0.27022,0.04382 0.10955,0.04139 0.17285,0.119288 0.0633,0.0779 0.0901,0.185017 0.0268,0.107116 0.0268,0.238575 v 0.723029 h -0.36273 v -0.679209 q 0,-0.175279 -0.0463,-0.248313 -0.0463,-0.07303 -0.17284,-0.07303 -0.0389,0 -0.0828,0.0049 -0.0438,0.0024 -0.0779,0.0073 v 0.988383 h -0.36274 z"
           style="font-weight:bold;stroke-width:0.0608608"
           id="path2608" />
        <path
           d="m 105.18902,91.085081 q 0,0.167977 0.0755,0.270223 0.0755,0.102247 0.22397,0.102247 0.0487,0 0.0901,-0.0024 0.0414,-0.0049 0.0682,-0.0097 v -0.659734 q -0.0341,-0.02191 -0.0901,-0.03652 -0.0536,-0.01461 -0.10955,-0.01461 -0.25805,0 -0.25805,0.350559 z m 0.8204,0.60861 q -0.0487,0.01461 -0.11198,0.02921 -0.0633,0.01217 -0.13389,0.02191 -0.0682,0.0097 -0.1412,0.01461 -0.0706,0.0073 -0.13633,0.0073 -0.15824,0 -0.2824,-0.04625 -0.12415,-0.04625 -0.20936,-0.131459 -0.0852,-0.08764 -0.13146,-0.209362 -0.0438,-0.124157 -0.0438,-0.277526 0,-0.155805 0.0389,-0.279961 0.0389,-0.126591 0.11199,-0.214231 0.073,-0.08764 0.17771,-0.133894 0.10712,-0.04625 0.24345,-0.04625 0.0755,0 0.13389,0.01461 0.0609,0.01461 0.12172,0.04139 v -0.579397 l 0.36273,-0.05843 z"
           style="font-weight:bold;stroke-width:0.0608608"
           id="path2610" />
        <path
           d="m 106.8603,91.759421 q -0.15824,-0.0024 -0.25805,-0.03408 -0.0974,-0.03165 -0.15581,-0.08764 -0.056,-0.05843 -0.0779,-0.138763 -0.0195,-0.08277 -0.0195,-0.185017 v -1.409541 l 0.36274,-0.05843 v 1.394934 q 0,0.04869 0.007,0.08764 0.007,0.03895 0.0268,0.06573 0.0219,0.02678 0.0609,0.04382 0.0389,0.01704 0.10468,0.02191 z"
           style="font-weight:bold;stroke-width:0.0608608"
           id="path2612" />
        <path
           d="m 107.05848,91.104557 q 0,-0.170411 0.0511,-0.297002 0.0536,-0.129025 0.13876,-0.21423 0.0852,-0.08521 0.19476,-0.129026 0.11198,-0.04382 0.22884,-0.04382 0.27265,0 0.43089,0.167977 0.15824,0.165542 0.15824,0.489322 0,0.03165 -0.002,0.0706 -0.002,0.03652 -0.005,0.06573 h -0.82284 q 0.0122,0.111984 0.10468,0.177714 0.0925,0.06573 0.24831,0.06573 0.0998,0 0.19476,-0.01704 0.0974,-0.01948 0.15823,-0.04626 l 0.0487,0.294568 q -0.0292,0.01461 -0.0779,0.02921 -0.0487,0.01461 -0.10955,0.02434 -0.0584,0.01217 -0.12659,0.01948 -0.0682,0.0073 -0.13633,0.0073 -0.17284,0 -0.30187,-0.05112 -0.12659,-0.05112 -0.2118,-0.138763 -0.0828,-0.09007 -0.12415,-0.211797 -0.0389,-0.121722 -0.0389,-0.262919 z m 0.85205,-0.138763 q -0.002,-0.04625 -0.017,-0.09007 -0.0122,-0.04382 -0.0414,-0.0779 -0.0268,-0.03408 -0.0706,-0.05599 -0.0414,-0.02191 -0.10469,-0.02191 -0.0609,0 -0.10468,0.02191 -0.0438,0.01948 -0.073,0.05356 -0.0292,0.03408 -0.0463,0.08034 -0.0146,0.04382 -0.0219,0.09007 z"
           style="font-weight:bold;stroke-width:0.0608608"
           id="path2614" />
        <path
           d="m 108.83315,91.603617 q 0,0.06573 -0.0438,0.114419 -0.0438,0.04869 -0.11929,0.04869 -0.0755,0 -0.11929,-0.04869 -0.0438,-0.04869 -0.0438,-0.114419 0,-0.06573 0.0438,-0.114419 0.0438,-0.04869 0.11929,-0.04869 0.0755,0 0.11929,0.04869 0.0438,0.04869 0.0438,0.114419 z"
           style="stroke-width:0.0608608"
           id="path2616" />
        <path
           d="m 110.76989,90.904933 h 0.23614 v 0.788758 q -0.0292,0.0097 -0.0852,0.02191 -0.0536,0.01217 -0.12659,0.02434 -0.0706,0.01217 -0.15581,0.01947 -0.0852,0.0097 -0.17284,0.0097 -0.17772,0 -0.32378,-0.05843 -0.14607,-0.05843 -0.25075,-0.170411 -0.10468,-0.111985 -0.16311,-0.275092 -0.056,-0.163107 -0.056,-0.374904 0,-0.211796 0.0633,-0.374903 0.0657,-0.165542 0.17528,-0.277527 0.10955,-0.111984 0.25561,-0.17041 0.1485,-0.05843 0.31648,-0.05843 0.11442,0 0.20206,0.01461 0.0901,0.01461 0.15337,0.03408 0.0633,0.01947 0.10224,0.03895 0.0414,0.01947 0.056,0.02921 l -0.0755,0.19719 q -0.0706,-0.04626 -0.18745,-0.07547 -0.11686,-0.03165 -0.23858,-0.03165 -0.12902,0 -0.23614,0.04626 -0.10468,0.04625 -0.18015,0.133894 -0.073,0.08764 -0.11442,0.214231 -0.0414,0.124156 -0.0414,0.27996 0,0.150936 0.0341,0.275092 0.0365,0.124156 0.10712,0.214231 0.073,0.08764 0.17771,0.136328 0.10712,0.04869 0.25075,0.04869 0.10224,0 0.17284,-0.0097 0.073,-0.01217 0.10468,-0.02191 z"
           style="stroke-width:0.0608608"
           id="path2618" />
        <path
           d="m 111.29056,91.104557 q 0,-0.167976 0.0487,-0.292133 0.0487,-0.126591 0.12902,-0.209362 0.0803,-0.08277 0.18502,-0.124156 0.10468,-0.04139 0.21423,-0.04139 0.25562,0 0.39195,0.160673 0.13632,0.158239 0.13632,0.484454 0,0.01461 0,0.03895 0,0.02191 -0.002,0.04139 h -0.86666 q 0.0146,0.197189 0.11442,0.299436 0.0998,0.102246 0.31161,0.102246 0.11928,0 0.19962,-0.01947 0.0828,-0.02191 0.12416,-0.04139 l 0.0316,0.189886 q -0.0414,0.02191 -0.14607,0.04626 -0.10225,0.02434 -0.23371,0.02434 -0.16554,0 -0.28726,-0.04869 -0.11929,-0.05112 -0.19719,-0.138763 -0.0779,-0.08764 -0.11685,-0.206927 -0.0365,-0.121722 -0.0365,-0.265354 z m 0.86909,-0.124156 q 0.002,-0.15337 -0.0779,-0.250748 -0.0779,-0.09981 -0.21666,-0.09981 -0.0779,0 -0.13877,0.03165 -0.0584,0.02921 -0.0998,0.0779 -0.0414,0.04869 -0.0657,0.111984 -0.0219,0.0633 -0.0292,0.129026 z"
           style="stroke-width:0.0608608"
           id="path2620" />
        <path
           d="m 112.93282,90.469168 h 0.47958 v 0.189886 h -0.47958 v 0.584266 q 0,0.09494 0.0146,0.158239 0.0146,0.06086 0.0438,0.09738 0.0292,0.03408 0.073,0.04869 0.0438,0.01461 0.10224,0.01461 0.10225,0 0.16311,-0.02191 0.0633,-0.02434 0.0876,-0.03408 l 0.0438,0.187451 q -0.0341,0.01704 -0.11929,0.04139 -0.0852,0.02678 -0.19475,0.02678 -0.12903,0 -0.21423,-0.03165 -0.0828,-0.03408 -0.1339,-0.09981 -0.0511,-0.06573 -0.073,-0.160673 -0.0195,-0.09738 -0.0195,-0.223969 v -1.12958 l 0.22641,-0.03895 z"
           style="stroke-width:0.0608608"
           id="path2622" />
        <path
           d="m 114.61699,91.569535 q 0.21667,0 0.30918,-0.08521 0.0949,-0.08521 0.0949,-0.228838 0,-0.09251 -0.0389,-0.155804 -0.0389,-0.06329 -0.10225,-0.09981 -0.0633,-0.03895 -0.1485,-0.05356 -0.0828,-0.01704 -0.17041,-0.01704 h -0.0584 V 90.74426 h 0.0803 q 0.0609,0 0.12416,-0.01217 0.0657,-0.01217 0.11929,-0.04382 0.0536,-0.03165 0.0876,-0.08521 0.0341,-0.05599 0.0341,-0.138763 0,-0.06816 -0.0243,-0.116853 -0.0243,-0.04869 -0.0657,-0.08034 -0.0389,-0.03165 -0.0925,-0.04382 -0.0511,-0.01461 -0.10954,-0.01461 -0.11686,0 -0.19963,0.03408 -0.0803,0.03408 -0.13633,0.0706 l -0.0876,-0.172845 q 0.0292,-0.01948 0.073,-0.04139 0.0463,-0.02434 0.10224,-0.04382 0.056,-0.01947 0.11929,-0.03165 0.0657,-0.01461 0.13633,-0.01461 0.13389,0 0.23127,0.03408 0.0974,0.03165 0.16067,0.09251 0.0633,0.05843 0.0949,0.141197 0.0316,0.08034 0.0316,0.17528 0,0.13146 -0.0755,0.226403 -0.0755,0.09251 -0.18259,0.141198 0.0657,0.01947 0.12659,0.05599 0.0609,0.03652 0.10469,0.09251 0.0463,0.05599 0.073,0.129026 0.0292,0.07303 0.0292,0.163107 0,0.10955 -0.0389,0.204493 -0.0365,0.09251 -0.11685,0.160673 -0.0779,0.06816 -0.19719,0.107115 -0.11929,0.03895 -0.2824,0.03895 -0.0633,0 -0.13146,-0.0097 -0.0657,-0.0097 -0.12415,-0.02434 -0.0584,-0.01461 -0.10225,-0.02921 -0.0438,-0.01461 -0.0633,-0.02434 l 0.0438,-0.19719 q 0.0414,0.01948 0.13633,0.05112 0.0974,0.03165 0.23614,0.03165 z"
           style="stroke-width:0.0608608"
           id="path2624" />
        <path
           d="m 116.42316,91.735077 h -0.22641 v -1.265909 h 0.22641 z m -0.11442,-1.494746 q -0.0609,0 -0.10468,-0.03895 -0.0414,-0.04139 -0.0414,-0.10955 0,-0.06816 0.0414,-0.107115 0.0438,-0.04139 0.10468,-0.04139 0.0609,0 0.10224,0.04139 0.0438,0.03895 0.0438,0.107115 0,0.06816 -0.0438,0.10955 -0.0414,0.03895 -0.10224,0.03895 z"
           style="stroke-width:0.0608608"
           id="path2626" />
        <path
           d="m 116.81488,90.505685 q 0.0779,-0.01948 0.20692,-0.04139 0.12903,-0.02191 0.29701,-0.02191 0.15093,0 0.25074,0.04382 0.0998,0.04139 0.15824,0.119288 0.0609,0.07547 0.0852,0.182583 0.0243,0.107115 0.0243,0.23614 v 0.710857 h -0.2264 v -0.662168 q 0,-0.116853 -0.017,-0.199624 -0.0146,-0.08277 -0.0511,-0.133894 -0.0365,-0.05112 -0.0974,-0.07303 -0.0609,-0.02434 -0.15094,-0.02434 -0.0365,0 -0.0755,0.0024 -0.0389,0.0024 -0.0755,0.0073 -0.0341,0.0024 -0.0633,0.0073 -0.0268,0.0049 -0.0389,0.0073 v 1.068719 h -0.2264 z"
           style="stroke-width:0.0608608"
           id="path2628" />
        <path
           d="m 118.08132,90.900064 h 0.6013 v 0.211796 h -0.6013 z"
           style="stroke-width:0.0608608"
           id="path2630" />
        <path
           d="m 119.75823,90.736957 q -0.0414,-0.03408 -0.11929,-0.06573 -0.0779,-0.03165 -0.17041,-0.03165 -0.0974,0 -0.16798,0.03652 -0.0682,0.03408 -0.11198,0.09738 -0.0438,0.06086 -0.0633,0.146067 -0.0195,0.08521 -0.0195,0.182583 0,0.221534 0.10955,0.343256 0.10955,0.119287 0.29213,0.119287 0.0925,0 0.15337,-0.0073 0.0633,-0.0097 0.0974,-0.01948 z m 0,-0.852054 0.2264,-0.03895 v 1.852608 q -0.0779,0.02191 -0.19963,0.04382 -0.12172,0.02191 -0.27996,0.02191 -0.14606,0 -0.26292,-0.04625 -0.11685,-0.04626 -0.19962,-0.13146 -0.0828,-0.0852 -0.12902,-0.206927 -0.0438,-0.124157 -0.0438,-0.277526 0,-0.146067 0.0365,-0.267789 0.0389,-0.121722 0.11199,-0.209362 0.073,-0.08764 0.17771,-0.136328 0.10712,-0.04869 0.24344,-0.04869 0.10955,0 0.19232,0.02921 0.0852,0.02921 0.1266,0.05599 z"
           style="stroke-width:0.0608608"
           id="path2632" />
        <path
           d="m 120.30559,91.104557 q 0,-0.167976 0.0487,-0.292133 0.0487,-0.126591 0.12903,-0.209362 0.0803,-0.08277 0.18502,-0.124156 0.10468,-0.04139 0.21423,-0.04139 0.25561,0 0.39194,0.160673 0.13633,0.158239 0.13633,0.484454 0,0.01461 0,0.03895 0,0.02191 -0.002,0.04139 h -0.86666 q 0.0146,0.197189 0.11441,0.299436 0.0998,0.102246 0.31161,0.102246 0.11929,0 0.19963,-0.01947 0.0828,-0.02191 0.12415,-0.04139 l 0.0316,0.189886 q -0.0414,0.02191 -0.14607,0.04626 -0.10224,0.02434 -0.2337,0.02434 -0.16554,0 -0.28727,-0.04869 -0.11928,-0.05112 -0.19719,-0.138763 -0.0779,-0.08764 -0.11685,-0.206927 -0.0365,-0.121722 -0.0365,-0.265354 z m 0.8691,-0.124156 q 0.002,-0.15337 -0.0779,-0.250748 -0.0779,-0.09981 -0.21667,-0.09981 -0.0779,0 -0.13876,0.03165 -0.0584,0.02921 -0.0998,0.0779 -0.0414,0.04869 -0.0657,0.111984 -0.0219,0.0633 -0.0292,0.129026 z"
           style="stroke-width:0.0608608"
           id="path2634" />
        <path
           d="m 122.61489,91.104557 q 0,-0.221534 -0.10955,-0.340822 -0.10955,-0.119287 -0.29213,-0.119287 -0.10225,0 -0.16068,0.0073 -0.056,0.0073 -0.0901,0.01704 v 0.798497 q 0.0414,0.03408 0.11929,0.06573 0.0779,0.03165 0.17041,0.03165 0.0974,0 0.16554,-0.03408 0.0706,-0.03652 0.11442,-0.09738 0.0438,-0.06329 0.0633,-0.146066 0.0195,-0.0852 0.0195,-0.182583 z m 0.23614,0 q 0,0.143632 -0.0389,0.265354 -0.0365,0.121722 -0.10955,0.209362 -0.073,0.08764 -0.18015,0.136328 -0.10468,0.04869 -0.24101,0.04869 -0.10955,0 -0.19475,-0.02921 -0.0828,-0.02921 -0.12416,-0.05599 v 0.506363 h -0.2264 v -1.677329 q 0.0803,-0.01947 0.19962,-0.04138 0.12172,-0.02434 0.27996,-0.02434 0.14607,0 0.26292,0.04625 0.11685,0.04625 0.19963,0.131459 0.0828,0.08521 0.12659,0.209362 0.0463,0.121722 0.0463,0.275092 z"
           style="stroke-width:0.0608608"
           id="path2636" />
        <path
           d="m 123.38379,90.469168 h 0.47959 v 0.189886 h -0.47959 v 0.584266 q 0,0.09494 0.0146,0.158239 0.0146,0.06086 0.0438,0.09738 0.0292,0.03408 0.073,0.04869 0.0438,0.01461 0.10225,0.01461 0.10225,0 0.16311,-0.02191 0.0633,-0.02434 0.0876,-0.03408 l 0.0438,0.187451 q -0.0341,0.01704 -0.11929,0.04139 -0.0852,0.02678 -0.19476,0.02678 -0.12902,0 -0.21423,-0.03165 -0.0828,-0.03408 -0.13389,-0.09981 -0.0511,-0.06573 -0.073,-0.160673 -0.0195,-0.09738 -0.0195,-0.223969 v -1.12958 l 0.2264,-0.03895 z"
           style="stroke-width:0.0608608"
           id="path2638" />
        <path
           d="m 124.15148,91.735077 v -1.850174 l 0.2264,-0.03895 v 0.647561 q 0.0633,-0.02434 0.13389,-0.03652 0.073,-0.01461 0.14364,-0.01461 0.15093,0 0.25074,0.04382 0.0998,0.04139 0.15824,0.119288 0.0609,0.07547 0.0852,0.182583 0.0243,0.107115 0.0243,0.23614 v 0.710857 h -0.2264 v -0.662168 q 0,-0.116853 -0.017,-0.199624 -0.0146,-0.08277 -0.0511,-0.133894 -0.0365,-0.05112 -0.0974,-0.07303 -0.0609,-0.02434 -0.15094,-0.02434 -0.0365,0 -0.0755,0.0049 -0.0389,0.0049 -0.0755,0.01217 -0.0341,0.0049 -0.0633,0.01217 -0.0268,0.0073 -0.0389,0.01217 v 1.051678 z"
           style="stroke-width:0.0608608"
           id="path2640" />
        <path
           d="m 126.65112,91.76429 q -0.15337,0 -0.27023,-0.04869 -0.11442,-0.04869 -0.19475,-0.136328 -0.0779,-0.08764 -0.11686,-0.206928 -0.0389,-0.121722 -0.0389,-0.267788 0,-0.146066 0.0414,-0.267788 0.0438,-0.121722 0.12172,-0.209362 0.0779,-0.09007 0.18989,-0.138763 0.11442,-0.05112 0.25318,-0.05112 0.0852,0 0.17041,0.01461 0.0852,0.01461 0.16311,0.04625 l -0.0511,0.192321 q -0.0511,-0.02434 -0.11928,-0.03895 -0.0657,-0.01461 -0.1412,-0.01461 -0.18989,0 -0.29213,0.119287 -0.0998,0.119288 -0.0998,0.348125 0,0.102246 0.0219,0.187452 0.0243,0.08521 0.073,0.146066 0.0511,0.06086 0.12902,0.09494 0.0779,0.03165 0.18989,0.03165 0.0901,0 0.16311,-0.01704 0.073,-0.01704 0.11442,-0.03652 l 0.0316,0.189887 q -0.0195,0.01217 -0.056,0.02434 -0.0365,0.0097 -0.0828,0.01704 -0.0463,0.0097 -0.0998,0.01461 -0.0511,0.0073 -0.0998,0.0073 z"
           style="stroke-width:0.0608608"
           id="path2642" />
        <path
           d="m 128.31669,91.102123 q 0,0.150935 -0.0438,0.272657 -0.0438,0.121722 -0.12416,0.209362 -0.0779,0.08764 -0.18745,0.136328 -0.10955,0.04625 -0.23857,0.04625 -0.12903,0 -0.23858,-0.04625 -0.10955,-0.04869 -0.18988,-0.136328 -0.0779,-0.08764 -0.12173,-0.209362 -0.0438,-0.121722 -0.0438,-0.272657 0,-0.148501 0.0438,-0.270223 0.0438,-0.124157 0.12173,-0.211797 0.0803,-0.08764 0.18988,-0.133894 0.10955,-0.04869 0.23858,-0.04869 0.12902,0 0.23857,0.04869 0.10955,0.04626 0.18745,0.133894 0.0803,0.08764 0.12416,0.211797 0.0438,0.121722 0.0438,0.270223 z m -0.23614,0 q 0,-0.214231 -0.0974,-0.338388 -0.0949,-0.12659 -0.26048,-0.12659 -0.16554,0 -0.26292,0.12659 -0.0949,0.124157 -0.0949,0.338388 0,0.21423 0.0949,0.340821 0.0974,0.124157 0.26292,0.124157 0.16554,0 0.26048,-0.124157 0.0974,-0.126591 0.0974,-0.340821 z"
           style="stroke-width:0.0608608"
           id="path2644" />
        <path
           d="m 129.64308,91.69856 q -0.0779,0.01948 -0.20693,0.04139 -0.12659,0.02191 -0.29456,0.02191 -0.14607,0 -0.24588,-0.04139 -0.0998,-0.04382 -0.16067,-0.121722 -0.0609,-0.0779 -0.0876,-0.182583 -0.0268,-0.107115 -0.0268,-0.23614 v -0.710857 h 0.2264 v 0.662168 q 0,0.231272 0.073,0.331084 0.073,0.09981 0.24588,0.09981 0.0365,0 0.0755,-0.0024 0.0389,-0.0024 0.073,-0.0049 0.0341,-0.0049 0.0609,-0.0073 0.0292,-0.0049 0.0414,-0.0097 v -1.068719 h 0.2264 z"
           style="stroke-width:0.0608608"
           id="path2646" />
        <path
           d="m 130.50054,90.442389 q 0.0292,0 0.0657,0.0049 0.039,0.0024 0.0755,0.0097 0.0365,0.0049 0.0657,0.01217 0.0317,0.0049 0.0463,0.0097 l -0.0389,0.19719 q -0.0268,-0.0097 -0.0901,-0.02191 -0.0609,-0.01461 -0.15824,-0.01461 -0.0633,0 -0.12659,0.01461 -0.0609,0.01217 -0.0803,0.01704 v 1.06385 h -0.22641 v -1.212351 q 0.0803,-0.02921 0.19963,-0.05356 0.11928,-0.02678 0.26779,-0.02678 z"
           style="stroke-width:0.0608608"
           id="path2648" />
        <path
           d="m 131.26913,91.571969 q 0.13877,0 0.2045,-0.03652 0.0682,-0.03652 0.0682,-0.116853 0,-0.08277 -0.0657,-0.13146 -0.0657,-0.04869 -0.21666,-0.10955 -0.073,-0.02921 -0.1412,-0.05843 -0.0657,-0.03165 -0.11442,-0.07303 -0.0487,-0.04139 -0.0779,-0.09981 -0.0292,-0.05843 -0.0292,-0.143632 0,-0.167976 0.12416,-0.265354 0.12416,-0.09981 0.33839,-0.09981 0.0536,0 0.10711,0.0073 0.0536,0.0049 0.0998,0.01461 0.0463,0.0073 0.0803,0.01704 0.0365,0.0097 0.056,0.01704 l -0.0414,0.194755 q -0.0365,-0.01948 -0.11442,-0.03895 -0.0779,-0.02191 -0.18745,-0.02191 -0.0949,0 -0.16554,0.03895 -0.0706,0.03652 -0.0706,0.116853 0,0.04139 0.0146,0.07303 0.017,0.03165 0.0487,0.05843 0.0341,0.02434 0.0828,0.04625 0.0487,0.02191 0.11686,0.04625 0.0901,0.03408 0.16067,0.06817 0.0706,0.03165 0.11929,0.07547 0.0511,0.04382 0.0779,0.107116 0.0268,0.06086 0.0268,0.150935 0,0.17528 -0.13146,0.265354 -0.12903,0.09007 -0.37004,0.09007 -0.16797,0 -0.26292,-0.02921 -0.0949,-0.02678 -0.12902,-0.04139 l 0.0414,-0.194755 q 0.039,0.01461 0.12416,0.04382 0.0852,0.02921 0.2264,0.02921 z"
           style="stroke-width:0.0608608"
           id="path2650" />
        <path
           d="m 131.98806,91.104557 q 0,-0.167976 0.0487,-0.292133 0.0487,-0.126591 0.12903,-0.209362 0.0803,-0.08277 0.18502,-0.124156 0.10468,-0.04139 0.21423,-0.04139 0.25561,0 0.39194,0.160673 0.13633,0.158239 0.13633,0.484454 0,0.01461 0,0.03895 0,0.02191 -0.002,0.04139 h -0.86666 q 0.0146,0.197189 0.11442,0.299436 0.0998,0.102246 0.3116,0.102246 0.11929,0 0.19963,-0.01947 0.0828,-0.02191 0.12415,-0.04139 l 0.0317,0.189886 q -0.0414,0.02191 -0.14606,0.04626 -0.10225,0.02434 -0.23371,0.02434 -0.16554,0 -0.28726,-0.04869 -0.11929,-0.05112 -0.19719,-0.138763 -0.0779,-0.08764 -0.11686,-0.206927 -0.0365,-0.121722 -0.0365,-0.265354 z m 0.86909,-0.124156 q 0.002,-0.15337 -0.0779,-0.250748 -0.0779,-0.09981 -0.21667,-0.09981 -0.0779,0 -0.13876,0.03165 -0.0584,0.02921 -0.0998,0.0779 -0.0414,0.04869 -0.0657,0.111984 -0.0219,0.0633 -0.0292,0.129026 z"
           style="stroke-width:0.0608608"
           id="path2652" />
        <path
           d="m 133.71308,91.571969 q 0.13877,0 0.2045,-0.03652 0.0682,-0.03652 0.0682,-0.116853 0,-0.08277 -0.0657,-0.13146 -0.0657,-0.04869 -0.21666,-0.10955 -0.073,-0.02921 -0.1412,-0.05843 -0.0657,-0.03165 -0.11442,-0.07303 -0.0487,-0.04139 -0.0779,-0.09981 -0.0292,-0.05843 -0.0292,-0.143632 0,-0.167976 0.12415,-0.265354 0.12416,-0.09981 0.33839,-0.09981 0.0536,0 0.10711,0.0073 0.0536,0.0049 0.0998,0.01461 0.0463,0.0073 0.0803,0.01704 0.0365,0.0097 0.056,0.01704 l -0.0414,0.194755 q -0.0365,-0.01948 -0.11442,-0.03895 -0.0779,-0.02191 -0.18745,-0.02191 -0.0949,0 -0.16554,0.03895 -0.0706,0.03652 -0.0706,0.116853 0,0.04139 0.0146,0.07303 0.017,0.03165 0.0487,0.05843 0.0341,0.02434 0.0828,0.04625 0.0487,0.02191 0.11686,0.04625 0.0901,0.03408 0.16067,0.06817 0.0706,0.03165 0.11929,0.07547 0.0511,0.04382 0.0779,0.107116 0.0268,0.06086 0.0268,0.150935 0,0.17528 -0.13146,0.265354 -0.12903,0.09007 -0.37004,0.09007 -0.16797,0 -0.26291,-0.02921 -0.095,-0.02678 -0.12903,-0.04139 l 0.0414,-0.194755 q 0.0389,0.01461 0.12415,0.04382 0.0852,0.02921 0.2264,0.02921 z"
           style="stroke-width:0.0608608"
           id="path2654" />
        <path
           d="m 134.77039,91.603617 q 0,0.06573 -0.0438,0.114419 -0.0438,0.04869 -0.11929,0.04869 -0.0755,0 -0.11929,-0.04869 -0.0438,-0.04869 -0.0438,-0.114419 0,-0.06573 0.0438,-0.114419 0.0438,-0.04869 0.11929,-0.04869 0.0755,0 0.11929,0.04869 0.0438,0.04869 0.0438,0.114419 z"
           style="stroke-width:0.0608608"
           id="path2656" />
        <path
           d="m 136.12287,91.445379 q 0.0803,0 0.13146,-0.01217 0.0536,-0.01461 0.0852,-0.03652 0.0317,-0.02435 0.0438,-0.05599 0.0122,-0.03165 0.0122,-0.0706 0,-0.08277 -0.0779,-0.136329 -0.0779,-0.05599 -0.26779,-0.119287 -0.0828,-0.02921 -0.16554,-0.06573 -0.0828,-0.03895 -0.1485,-0.09494 -0.0657,-0.05843 -0.10712,-0.138763 -0.0414,-0.08277 -0.0414,-0.199624 0,-0.116854 0.0438,-0.209362 0.0438,-0.09494 0.12415,-0.160673 0.0803,-0.06573 0.19476,-0.09981 0.11442,-0.03652 0.25805,-0.03652 0.17041,0 0.29457,0.03652 0.12415,0.03652 0.20449,0.08034 l -0.10955,0.299436 q -0.0706,-0.03652 -0.15824,-0.06329 -0.0852,-0.02921 -0.20693,-0.02921 -0.13632,0 -0.19719,0.03895 -0.0584,0.03652 -0.0584,0.114418 0,0.04626 0.0219,0.0779 0.0219,0.03165 0.0609,0.05843 0.0414,0.02434 0.0925,0.04625 0.0536,0.01948 0.11685,0.04139 0.13146,0.04869 0.22884,0.09738 0.0974,0.04626 0.16067,0.10955 0.0657,0.0633 0.0974,0.148501 0.0316,0.08521 0.0316,0.206927 0,0.236141 -0.16555,0.367601 -0.16554,0.129025 -0.49906,0.129025 -0.11198,0 -0.20205,-0.01461 -0.0901,-0.01217 -0.16068,-0.03165 -0.0682,-0.01948 -0.11928,-0.04139 -0.0487,-0.02191 -0.0828,-0.04138 l 0.10712,-0.301871 q 0.0755,0.04139 0.18502,0.07547 0.11198,0.03165 0.27265,0.03165 z"
           style="font-weight:bold;stroke-width:0.0608608"
           id="path2658" />
        <path
           d="m 137.57319,91.481895 q 0.0536,0 0.10225,-0.0024 0.0487,-0.0024 0.0779,-0.0073 v -0.275091 q -0.0219,-0.0049 -0.0657,-0.0097 -0.0438,-0.0049 -0.0803,-0.0049 -0.0511,0 -0.0974,0.0073 -0.0438,0.0049 -0.0779,0.02191 -0.0341,0.01704 -0.0536,0.04626 -0.0195,0.02921 -0.0195,0.07303 0,0.08521 0.056,0.119287 0.0584,0.03165 0.15824,0.03165 z m -0.0292,-1.061416 q 0.16067,0 0.26779,0.03652 0.10711,0.03652 0.17041,0.104681 0.0657,0.06816 0.0925,0.165542 0.0268,0.09738 0.0268,0.216665 v 0.754676 q -0.0779,0.01704 -0.21667,0.03895 -0.13876,0.02434 -0.33595,0.02434 -0.12416,0 -0.2264,-0.02191 -0.0998,-0.02191 -0.17285,-0.0706 -0.073,-0.05112 -0.11198,-0.13146 -0.0389,-0.08034 -0.0389,-0.197189 0,-0.111985 0.0438,-0.189887 0.0463,-0.0779 0.12172,-0.124156 0.0755,-0.04625 0.17284,-0.06573 0.0974,-0.02191 0.20206,-0.02191 0.0706,0 0.12416,0.0073 0.056,0.0049 0.0901,0.01461 v -0.03408 q 0,-0.09251 -0.056,-0.148501 -0.056,-0.05599 -0.19476,-0.05599 -0.0925,0 -0.18258,0.01461 -0.0901,0.01217 -0.1558,0.03652 l -0.0463,-0.292133 q 0.0316,-0.0097 0.0779,-0.01947 0.0487,-0.01217 0.10469,-0.01948 0.056,-0.0097 0.11685,-0.01461 0.0633,-0.0073 0.12659,-0.0073 z"
           style="font-weight:bold;stroke-width:0.0608608"
           id="path2660" />
        <path
           d="m 138.74431,91.735077 q -0.12416,-0.243444 -0.25318,-0.569659 -0.12659,-0.326215 -0.24101,-0.710856 h 0.38464 q 0.0243,0.09494 0.056,0.206927 0.0341,0.10955 0.0682,0.223968 0.0365,0.111985 0.0706,0.2191 0.0365,0.107115 0.0706,0.194755 0.0316,-0.08764 0.0682,-0.194755 0.0365,-0.107115 0.0706,-0.2191 0.0365,-0.114418 0.0682,-0.223968 0.0341,-0.111984 0.0584,-0.206927 h 0.3749 q -0.11442,0.384641 -0.24344,0.710856 -0.12659,0.326215 -0.25075,0.569659 z"
           style="font-weight:bold;stroke-width:0.0608608"
           id="path2662" />
        <path
           d="m 139.64288,91.104557 q 0,-0.170411 0.0511,-0.297002 0.0536,-0.129025 0.13876,-0.21423 0.0852,-0.08521 0.19475,-0.129026 0.11199,-0.04382 0.22884,-0.04382 0.27266,0 0.4309,0.167977 0.15824,0.165542 0.15824,0.489322 0,0.03165 -0.002,0.0706 -0.002,0.03652 -0.005,0.06573 h -0.82284 q 0.0122,0.111984 0.10468,0.177714 0.0925,0.06573 0.24832,0.06573 0.0998,0 0.19475,-0.01704 0.0974,-0.01948 0.15824,-0.04626 l 0.0487,0.294568 q -0.0292,0.01461 -0.0779,0.02921 -0.0487,0.01461 -0.10955,0.02434 -0.0584,0.01217 -0.12659,0.01948 -0.0682,0.0073 -0.13633,0.0073 -0.17285,0 -0.30187,-0.05112 -0.12659,-0.05112 -0.2118,-0.138763 -0.0828,-0.09007 -0.12416,-0.211797 -0.0389,-0.121722 -0.0389,-0.262919 z m 0.85206,-0.138763 q -0.002,-0.04625 -0.017,-0.09007 -0.0122,-0.04382 -0.0414,-0.0779 -0.0268,-0.03408 -0.0706,-0.05599 -0.0414,-0.02191 -0.10468,-0.02191 -0.0609,0 -0.10468,0.02191 -0.0438,0.01948 -0.073,0.05356 -0.0292,0.03408 -0.0463,0.08034 -0.0146,0.04382 -0.0219,0.09007 z"
           style="font-weight:bold;stroke-width:0.0608608"
           id="path2664" />
        <path
           d="m 141.71026,90.398569 q 0.0706,-0.02921 0.14606,-0.06573 0.0779,-0.03895 0.15094,-0.08277 0.073,-0.04626 0.13876,-0.09494 0.0682,-0.05112 0.12172,-0.107115 h 0.25318 v 1.687067 h -0.36273 v -1.214786 q -0.073,0.04869 -0.16311,0.09007 -0.0901,0.03895 -0.17527,0.06816 z"
           style="font-weight:bold;stroke-width:0.0608608"
           id="path2666" />
        <path
           d="m 144.22347,90.887892 q 0,0.426027 -0.16311,0.654864 -0.16067,0.226403 -0.4455,0.226403 -0.28483,0 -0.44794,-0.226403 -0.16067,-0.228837 -0.16067,-0.654864 0,-0.211796 0.0414,-0.374904 0.0438,-0.163107 0.12415,-0.275092 0.0803,-0.111984 0.19232,-0.17041 0.11199,-0.05843 0.25075,-0.05843 0.28483,0 0.4455,0.228837 0.16311,0.226403 0.16311,0.649996 z m -0.37003,0 q 0,-0.126591 -0.0122,-0.228838 -0.0122,-0.10468 -0.0389,-0.180148 -0.0268,-0.07547 -0.073,-0.116853 -0.0462,-0.04139 -0.11442,-0.04139 -0.0682,0 -0.11442,0.04139 -0.0438,0.04138 -0.073,0.116853 -0.0268,0.07547 -0.0389,0.180148 -0.0122,0.102247 -0.0122,0.228838 0,0.126591 0.0122,0.231272 0.0122,0.104681 0.0389,0.180148 0.0292,0.07547 0.073,0.116853 0.0463,0.04139 0.11442,0.04139 0.0682,0 0.11442,-0.04139 0.0463,-0.04139 0.073,-0.116853 0.0268,-0.07547 0.0389,-0.180148 0.0122,-0.104681 0.0122,-0.231272 z"
           style="font-weight:bold;stroke-width:0.0608608"
           id="path2668" />
        <path
           d="m 145.25411,90.48134 q 0,0.228838 -0.11685,0.35056 -0.11685,0.121722 -0.31404,0.121722 -0.19719,0 -0.31404,-0.121722 -0.11686,-0.121722 -0.11686,-0.35056 0,-0.228837 0.11686,-0.350559 0.11685,-0.121722 0.31404,-0.121722 0.19719,0 0.31404,0.121722 0.11685,0.121722 0.11685,0.350559 z m -0.27509,0 q 0,-0.124156 -0.0438,-0.180148 -0.0438,-0.05599 -0.11198,-0.05599 -0.0706,0 -0.11442,0.05599 -0.0414,0.05599 -0.0414,0.180148 0,0.124157 0.0414,0.182583 0.0438,0.05599 0.11442,0.05599 0.0682,0 0.11198,-0.05599 0.0438,-0.05843 0.0438,-0.182583 z m 0.74981,-0.43333 h 0.33839 l -0.95187,1.687067 h -0.33839 z m 0.7279,1.253737 q 0,0.228837 -0.11686,0.350559 -0.11685,0.121722 -0.31404,0.121722 -0.19719,0 -0.31404,-0.121722 -0.11685,-0.121722 -0.11685,-0.350559 0,-0.228838 0.11685,-0.35056 0.11685,-0.121722 0.31404,-0.121722 0.19719,0 0.31404,0.121722 0.11686,0.121722 0.11686,0.35056 z m -0.27509,0 q 0,-0.124157 -0.0438,-0.180149 -0.0438,-0.05599 -0.11199,-0.05599 -0.0706,0 -0.11442,0.05599 -0.0414,0.05599 -0.0414,0.180149 0,0.124156 0.0414,0.182583 0.0438,0.05599 0.11442,0.05599 0.0682,0 0.11199,-0.05599 0.0438,-0.05843 0.0438,-0.182583 z"
           style="font-weight:bold;stroke-width:0.0608608"
           id="path2670" />
        <path
           d="m 147.08474,90.483775 q 0,0.197189 -0.0146,0.3676 -0.0146,0.170411 -0.0389,0.345691 h -0.27753 q -0.0243,-0.17528 -0.0414,-0.345691 -0.0146,-0.170411 -0.0146,-0.3676 V 90.04801 h 0.38708 z m 0.0316,1.058981 q 0,0.107116 -0.0706,0.165542 -0.0682,0.05843 -0.15581,0.05843 -0.0876,0 -0.15824,-0.05843 -0.0682,-0.05843 -0.0682,-0.165542 0,-0.107115 0.0682,-0.165542 0.0706,-0.05843 0.15824,-0.05843 0.0876,0 0.15581,0.05843 0.0706,0.05843 0.0706,0.165542 z"
           style="font-weight:bold;stroke-width:0.0608608"
           id="path2672" />
      </g>
      <g
         id="g896"
         transform="matrix(0.11457918,0,0,0.11457918,82.327575,84.127369)">
        <path
           fill="#fdd888"
           d="m 33,31 c 0,2.2 -1.8,4 -4,4 H 7 C 4.8,35 3,33.2 3,31 V 14 c 0,-2.2 1.8,-4 4,-4 h 22 c 2.2,0 4,1.8 4,4 z"
           id="path873" />
        <path
           fill="#fdd888"
           d="m 36,11 c 0,2.2 -1.8,4 -4,4 H 4 C 1.8,15 0,13.2 0,11 0,8.8 1.8,7 4,7 h 28 c 2.2,0 4,1.8 4,4 z"
           id="path875" />
        <path
           fill="#fcab40"
           d="m 3,15 h 30 v 2 H 3 Z"
           id="path877" />
        <path
           fill="#da2f47"
           d="m 19,3 h -2 c -1.657,0 -3,1.343 -3,3 v 29 h 8 V 6 C 22,4.344 20.657,3 19,3 Z"
           id="path879" />
        <path
           fill="#da2f47"
           d="m 16,7 c 1.1,0 1.263,-0.516 0.361,-1.147 L 9.639,1.147 C 8.737,0.516 7.554,0.781 7.008,1.736 L 4.992,5.264 C 4.446,6.219 4.9,7 6,7 Z m 4,0 C 18.9,7 18.737,6.484 19.639,5.853 l 6.723,-4.706 c 0.901,-0.631 2.085,-0.366 2.631,0.589 l 2.016,3.527 C 31.554,6.219 31.1,7 30,7 Z"
           id="path881" />
      </g>
    </g>
  </g>
</svg>
