<?xml version="1.0" encoding="UTF-8" standalone="no"?>
<svg
   xmlns:dc="http://purl.org/dc/elements/1.1/"
   xmlns:cc="http://creativecommons.org/ns#"
   xmlns:rdf="http://www.w3.org/1999/02/22-rdf-syntax-ns#"
   xmlns:svg="http://www.w3.org/2000/svg"
   xmlns="http://www.w3.org/2000/svg"
   xmlns:sodipodi="http://sodipodi.sourceforge.net/DTD/sodipodi-0.dtd"
   xmlns:inkscape="http://www.inkscape.org/namespaces/inkscape"
   width="429.96896"
   height="40"
   viewBox="0 0 113.76262 10.583333"
   version="1.1"
   id="svg853"
   inkscape:version="1.0.2 (1.0.2+r75+1)"
   sodipodi:docname="fastapi-course-bundle-banner.svg">
  <defs
     id="defs847" />
  <sodipodi:namedview
     id="base"
     pagecolor="#ffffff"
     bordercolor="#666666"
     borderopacity="1.0"
     inkscape:pageopacity="0.0"
     inkscape:pageshadow="2"
     inkscape:zoom="2.8"
     inkscape:cx="222.91167"
     inkscape:cy="33.521565"
     inkscape:document-units="mm"
     inkscape:current-layer="g3355"
     inkscape:document-rotation="0"
     showgrid="false"
     inkscape:snap-object-midpoints="true"
     inkscape:snap-center="true"
     inkscape:snap-page="true"
     inkscape:window-width="1920"
     inkscape:window-height="1025"
     inkscape:window-x="0"
     inkscape:window-y="27"
     inkscape:window-maximized="1"
     units="px" />
  <metadata
     id="metadata850">
    <rdf:RDF>
      <cc:Work
         rdf:about="">
        <dc:format>image/svg+xml</dc:format>
        <dc:type
           rdf:resource="http://purl.org/dc/dcmitype/StillImage" />
        <dc:title></dc:title>
      </cc:Work>
    </rdf:RDF>
  </metadata>
  <g
     inkscape:label="Layer 1"
     inkscape:groupmode="layer"
     id="layer1"
     transform="translate(-80.634914,-82.650791)">
    <g
       id="g3355"
       transform="matrix(1.4999999,0,0,1.4999999,-40.317455,-41.325393)">
      <rect
         style="fill:#ffffff;stroke-width:0.197707;stop-color:#000000"
         id="rect1784"
         width="75.841751"
         height="7.0555558"
         x="80.634918"
         y="82.650795" />
      <g
         aria-label="FastAPI Course Bundle. Get 3 in-depth courses. Save 10%!"
         transform="scale(1.0561291,0.94685395)"
         id="text871"
         style="font-size:2.43444px;line-height:1.25;font-family:Ubuntu;-inkscape-font-specification:Ubuntu;letter-spacing:0px;word-spacing:0px;stroke-width:0.0608608">
        <path
           d="m 84.413426,90.970748 h -0.72629 v 0.764329 h -0.228229 v -1.730735 h 1.0722 v 0.187814 h -0.843971 v 0.591968 h 0.72629 z"
           style="font-style:normal;font-variant:normal;font-weight:normal;font-stretch:normal;font-family:Roboto;-inkscape-font-specification:Roboto;stroke-width:0.0608608"
           id="path3922" />
        <path
           d="m 85.526042,91.735077 q -0.01902,-0.03804 -0.03091,-0.135511 -0.153342,0.159285 -0.366117,0.159285 -0.190191,0 -0.312626,-0.106982 -0.121247,-0.108171 -0.121247,-0.2734 0,-0.200888 0.152153,-0.311437 0.153341,-0.111737 0.430306,-0.111737 h 0.213965 v -0.101038 q 0,-0.115303 -0.06894,-0.183059 -0.06894,-0.06894 -0.203266,-0.06894 -0.11768,0 -0.197323,0.05943 -0.07964,0.05943 -0.07964,0.143831 h -0.221096 q 0,-0.09628 0.06775,-0.185436 0.06894,-0.09034 0.185436,-0.142643 0.11768,-0.0523 0.257946,-0.0523 0.222285,0 0.348286,0.111737 0.126002,0.110548 0.130756,0.305494 v 0.591968 q 0,0.177115 0.04517,0.28172 v 0.01902 z m -0.364929,-0.167606 q 0.103416,0 0.196134,-0.05349 0.09272,-0.05349 0.134323,-0.139077 v -0.263889 h -0.172361 q -0.404155,0 -0.404155,0.23655 0,0.103416 0.06894,0.161662 0.06894,0.05824 0.177115,0.05824 z"
           style="font-style:normal;font-variant:normal;font-weight:normal;font-stretch:normal;font-family:Roboto;-inkscape-font-specification:Roboto;stroke-width:0.0608608"
           id="path3924" />
        <path
           d="m 86.807451,91.393922 q 0,-0.08915 -0.06776,-0.137888 -0.06657,-0.04993 -0.234172,-0.08558 -0.166417,-0.03566 -0.265078,-0.08559 -0.09747,-0.04993 -0.14502,-0.118869 -0.04636,-0.06894 -0.04636,-0.16404 0,-0.158096 0.133133,-0.267455 0.134322,-0.10936 0.342343,-0.10936 0.21872,0 0.35423,0.112926 0.1367,0.112925 0.1367,0.288852 h -0.221097 q 0,-0.09034 -0.07726,-0.155719 -0.07608,-0.06538 -0.192568,-0.06538 -0.120058,0 -0.187813,0.0523 -0.06776,0.0523 -0.06776,0.136699 0,0.07964 0.063,0.120058 0.063,0.04042 0.22704,0.07726 0.165228,0.03685 0.267456,0.08796 0.102227,0.05111 0.150964,0.123624 0.04993,0.07132 0.04993,0.174737 0,0.172361 -0.137888,0.276966 -0.137889,0.103416 -0.357797,0.103416 -0.154529,0 -0.273399,-0.05468 -0.118869,-0.05468 -0.186624,-0.152153 -0.06657,-0.09866 -0.06657,-0.212775 h 0.219908 q 0.0059,0.110548 0.08796,0.175926 0.08321,0.06419 0.218719,0.06419 0.124813,0 0.199701,-0.04993 0.07608,-0.05111 0.07608,-0.135511 z"
           style="font-style:normal;font-variant:normal;font-weight:normal;font-stretch:normal;font-family:Roboto;-inkscape-font-specification:Roboto;stroke-width:0.0608608"
           id="path3926" />
        <path
           d="m 87.612195,90.137476 v 0.311437 h 0.240116 v 0.169983 h -0.240116 v 0.797612 q 0,0.07727 0.03209,0.116491 0.03209,0.03804 0.109359,0.03804 0.03804,0 0.104605,-0.01426 v 0.178304 q -0.08677,0.02377 -0.168794,0.02377 -0.147398,0 -0.222285,-0.08915 -0.07489,-0.08915 -0.07489,-0.253191 v -0.797612 h -0.234172 v -0.169983 h 0.234172 v -0.311437 z"
           style="font-style:normal;font-variant:normal;font-weight:normal;font-stretch:normal;font-family:Roboto;-inkscape-font-specification:Roboto;stroke-width:0.0608608"
           id="path3928" />
        <path
           d="m 89.098059,91.283374 h -0.725102 l -0.16285,0.451703 h -0.235361 l 0.660912,-1.730735 h 0.1997 l 0.662102,1.730735 h -0.234173 z m -0.656157,-0.187813 h 0.588402 l -0.294796,-0.809499 z"
           style="font-style:normal;font-variant:normal;font-weight:normal;font-stretch:normal;font-family:Roboto;-inkscape-font-specification:Roboto;stroke-width:0.0608608"
           id="path3930" />
        <path
           d="m 89.958671,91.057523 v 0.677554 h -0.228228 v -1.730735 h 0.638327 q 0.284097,0 0.444571,0.145021 0.161662,0.14502 0.161662,0.383947 0,0.252003 -0.158096,0.388702 -0.156908,0.135511 -0.450514,0.135511 z m 0,-0.186625 h 0.410099 q 0.183058,0 0.280531,-0.08558 0.09747,-0.08678 0.09747,-0.249626 0,-0.15453 -0.09747,-0.247247 -0.09747,-0.09272 -0.267455,-0.09628 h -0.423175 z"
           style="font-style:normal;font-variant:normal;font-weight:normal;font-stretch:normal;font-family:Roboto;-inkscape-font-specification:Roboto;stroke-width:0.0608608"
           id="path3932" />
        <path
           d="m 91.511103,91.735077 h -0.228229 v -1.730735 h 0.228229 z"
           style="font-style:normal;font-variant:normal;font-weight:normal;font-stretch:normal;font-family:Roboto;-inkscape-font-specification:Roboto;stroke-width:0.0608608"
           id="path3934" />
        <path
           d="m 93.843315,91.158562 q -0.02021,0.279342 -0.206833,0.439815 -0.185436,0.160474 -0.48974,0.160474 -0.332834,0 -0.524213,-0.223474 -0.190191,-0.224663 -0.190191,-0.615742 v -0.105794 q 0,-0.249625 0.08796,-0.439816 0.08796,-0.19019 0.250814,-0.291229 0.164039,-0.102228 0.380381,-0.102228 0.29955,0 0.482609,0.160474 0.183058,0.160473 0.211587,0.450514 h -0.356607 q -0.01308,-0.167606 -0.09391,-0.242493 -0.07964,-0.07608 -0.243682,-0.07608 -0.178303,0 -0.267455,0.128378 -0.08796,0.12719 -0.09034,0.395834 v 0.130756 q 0,0.280532 0.0844,0.410099 0.08559,0.129567 0.268645,0.129567 0.165228,0 0.246059,-0.07489 0.08202,-0.07608 0.09391,-0.234172 z"
           style="font-weight:bold"
           id="path3936" />
        <path
           d="m 94.001411,91.080108 q 0,-0.191379 0.0737,-0.341154 0.0737,-0.149776 0.211587,-0.231795 0.139077,-0.08202 0.322135,-0.08202 0.260324,0 0.424363,0.159285 0.165228,0.159284 0.184247,0.432683 l 0.0024,0.08796 q 0,0.295985 -0.165228,0.475477 -0.165229,0.178304 -0.443382,0.178304 -0.278154,0 -0.444571,-0.178304 -0.165228,-0.178304 -0.165228,-0.484986 z m 0.343532,0.02496 q 0,0.183059 0.06894,0.280532 0.06894,0.09628 0.197323,0.09628 0.124812,0 0.194945,-0.0951 0.07013,-0.09628 0.07013,-0.306682 0,-0.179492 -0.07013,-0.278154 -0.07013,-0.09866 -0.197323,-0.09866 -0.126001,0 -0.194945,0.09866 -0.06894,0.09747 -0.06894,0.303116 z"
           style="font-weight:bold"
           id="path3938" />
        <path
           d="m 96.204056,91.604321 q -0.12719,0.15453 -0.351853,0.15453 -0.206832,0 -0.316192,-0.118869 -0.108171,-0.11887 -0.110548,-0.348287 v -0.842782 h 0.343532 v 0.830895 q 0,0.200889 0.183058,0.200889 0.174738,0 0.240116,-0.121247 v -0.910537 h 0.34472 v 1.286164 h -0.323324 z"
           style="font-weight:bold"
           id="path3940" />
        <path
           d="m 97.521126,90.771048 q -0.07013,-0.0095 -0.123624,-0.0095 -0.194945,0 -0.255568,0.131944 v 0.841594 h -0.343532 v -1.286164 h 0.324513 l 0.0095,0.153341 q 0.103416,-0.177115 0.286475,-0.177115 0.05706,0 0.106982,0.01545 z"
           style="font-weight:bold"
           id="path3942" />
        <path
           d="m 98.384116,91.379658 q 0,-0.063 -0.063,-0.09866 -0.06181,-0.03685 -0.1997,-0.06538 -0.458835,-0.09628 -0.458835,-0.389891 0,-0.171172 0.141455,-0.285286 0.142643,-0.115303 0.37206,-0.115303 0.244871,0 0.39108,0.115303 0.147397,0.115303 0.147397,0.29955 h -0.343531 q 0,-0.0737 -0.04755,-0.121246 -0.04755,-0.04874 -0.148587,-0.04874 -0.08677,0 -0.134322,0.03923 -0.04755,0.03923 -0.04755,0.09985 0,0.05706 0.05349,0.09272 0.05468,0.03447 0.183058,0.06062 0.128379,0.02496 0.216342,0.05706 0.27221,0.09985 0.27221,0.345909 0,0.175926 -0.150963,0.285286 -0.150964,0.108171 -0.389891,0.108171 -0.161662,0 -0.287663,-0.05706 -0.124813,-0.05825 -0.196135,-0.158096 -0.07132,-0.101039 -0.07132,-0.217531 h 0.325701 q 0.0048,0.09153 0.06776,0.140266 0.063,0.04874 0.168794,0.04874 0.09866,0 0.148586,-0.03685 0.05111,-0.03804 0.05111,-0.09866 z"
           style="font-weight:bold"
           id="path3944" />
        <path
           d="m 99.530014,91.758851 q -0.282909,0 -0.461212,-0.173549 -0.177115,-0.173549 -0.177115,-0.462401 v -0.03328 q 0,-0.193756 0.07489,-0.345909 0.07489,-0.153341 0.211587,-0.235361 0.137888,-0.08321 0.313815,-0.08321 0.263889,0 0.414853,0.166417 0.152151,0.166417 0.152151,0.47191 v 0.140266 h -0.819007 q 0.01664,0.126001 0.09985,0.202077 0.0844,0.07608 0.212776,0.07608 0.198511,0 0.310248,-0.143832 l 0.168793,0.189002 q -0.07726,0.10936 -0.209208,0.171171 -0.131945,0.06062 -0.292418,0.06062 z m -0.03923,-1.055558 q -0.102227,0 -0.166417,0.06894 -0.063,0.06894 -0.08083,0.197323 h 0.477854 v -0.02734 q -0.0024,-0.114115 -0.06181,-0.175927 -0.05943,-0.063 -0.168794,-0.063 z"
           style="font-weight:bold"
           id="path3946" />
        <path
           d="m 100.88631,91.735077 v -1.730735 h 0.60623 q 0.31501,0 0.47786,0.121247 0.16285,0.120058 0.16285,0.353041 0,0.12719 -0.0654,0.224663 -0.0654,0.09628 -0.18187,0.141454 0.13313,0.03328 0.20921,0.134322 0.0773,0.101039 0.0773,0.247248 0,0.249625 -0.15928,0.378004 -0.15928,0.128379 -0.45408,0.130756 z m 0.35661,-0.75363 v 0.467155 h 0.30549 q 0.126,0 0.19614,-0.05943 0.0713,-0.06062 0.0713,-0.166417 0,-0.237738 -0.24606,-0.241304 z m 0,-0.252003 h 0.26389 q 0.26983,-0.0048 0.26983,-0.215153 0,-0.117681 -0.0689,-0.168794 -0.0678,-0.0523 -0.21516,-0.0523 h -0.24962 z"
           style="font-weight:bold"
           id="path3948" />
        <path
           d="m 103.18881,91.604321 q -0.12719,0.15453 -0.35186,0.15453 -0.20683,0 -0.31619,-0.118869 -0.10817,-0.11887 -0.11055,-0.348287 v -0.842782 h 0.34353 v 0.830895 q 0,0.200889 0.18306,0.200889 0.17474,0 0.24012,-0.121247 v -0.910537 h 0.34472 v 1.286164 h -0.32333 z"
           style="font-weight:bold"
           id="path3950" />
        <path
           d="m 104.09934,90.448913 0.0107,0.148586 q 0.13789,-0.17236 0.36968,-0.17236 0.20446,0 0.30431,0.120058 0.0999,0.120058 0.10223,0.358985 v 0.830895 h -0.34353 v -0.822575 q 0,-0.109359 -0.0476,-0.158095 -0.0476,-0.04993 -0.1581,-0.04993 -0.14502,0 -0.21753,0.123624 v 0.906972 h -0.34353 v -1.286164 z"
           style="font-weight:bold"
           id="path3952" />
        <path
           d="m 105.09428,91.082485 q 0,-0.300739 0.13432,-0.479042 0.13551,-0.178304 0.36968,-0.178304 0.18782,0 0.31025,0.140266 v -0.656158 h 0.34472 v 1.82583 H 105.943 l -0.0166,-0.1367 q -0.12838,0.160474 -0.33045,0.160474 -0.22704,0 -0.36493,-0.178304 -0.1367,-0.179492 -0.1367,-0.498062 z m 0.34353,0.02496 q 0,0.180681 0.063,0.276965 0.063,0.09628 0.18306,0.09628 0.15928,0 0.22466,-0.134322 v -0.507571 q -0.0642,-0.134323 -0.22228,-0.134323 -0.24844,0 -0.24844,0.402967 z"
           style="font-weight:bold"
           id="path3954" />
        <path
           d="m 106.88445,91.735077 h -0.34472 v -1.82583 h 0.34472 z"
           style="font-weight:bold"
           id="path3956" />
        <path
           d="m 107.76051,91.758851 q -0.28291,0 -0.46121,-0.173549 -0.17711,-0.173549 -0.17711,-0.462401 v -0.03328 q 0,-0.193756 0.0749,-0.345909 0.0749,-0.153341 0.21159,-0.235361 0.13789,-0.08321 0.31382,-0.08321 0.26388,0 0.41485,0.166417 0.15215,0.166417 0.15215,0.47191 v 0.140266 h -0.81901 q 0.0166,0.126001 0.0998,0.202077 0.0844,0.07608 0.21278,0.07608 0.19851,0 0.31025,-0.143832 l 0.16879,0.189002 q -0.0773,0.10936 -0.20921,0.171171 -0.13194,0.06062 -0.29242,0.06062 z m -0.0392,-1.055558 q -0.10223,0 -0.16642,0.06894 -0.063,0.06894 -0.0808,0.197323 h 0.47785 v -0.02734 q -0.002,-0.114115 -0.0618,-0.175927 -0.0594,-0.063 -0.16879,-0.063 z"
           style="font-weight:bold"
           id="path3958" />
        <path
           d="m 108.52484,91.619774 q 0,-0.05706 0.0333,-0.0951 0.0345,-0.03804 0.10222,-0.03804 0.0678,0 0.10223,0.03804 0.0357,0.03804 0.0357,0.0951 0,0.05468 -0.0357,0.09153 -0.0345,0.03685 -0.10223,0.03685 -0.0677,0 -0.10222,-0.03685 -0.0333,-0.03685 -0.0333,-0.09153 z"
           style="font-style:normal;font-variant:normal;font-weight:normal;font-stretch:normal;font-family:Roboto;-inkscape-font-specification:Roboto;stroke-width:0.0608608"
           id="path3960" />
        <path
           d="m 111.07815,91.508037 q -0.088,0.126001 -0.24606,0.189002 -0.15691,0.06181 -0.36612,0.06181 -0.21158,0 -0.37562,-0.09866 -0.16404,-0.09985 -0.25438,-0.282908 -0.0892,-0.183059 -0.0915,-0.424363 v -0.150964 q 0,-0.391079 0.18187,-0.606232 0.18306,-0.215154 0.51351,-0.215154 0.27103,0 0.43625,0.139077 0.16523,0.137889 0.20208,0.392268 h -0.22823 q -0.0642,-0.343531 -0.40891,-0.343531 -0.22942,0 -0.34828,0.161662 -0.11768,0.160473 -0.11887,0.465967 v 0.141454 q 0,0.291229 0.13313,0.46359 0.13313,0.171171 0.36017,0.171171 0.12838,0 0.22467,-0.02853 0.0963,-0.02853 0.15928,-0.09628 v -0.388702 h -0.40059 v -0.185436 h 0.62763 z"
           style="font-style:normal;font-variant:normal;font-weight:normal;font-stretch:normal;font-family:Roboto;-inkscape-font-specification:Roboto;stroke-width:0.0608608"
           id="path3962" />
        <path
           d="m 111.95897,91.758851 q -0.26151,0 -0.42555,-0.171172 -0.16404,-0.17236 -0.16404,-0.460023 v -0.04042 q 0,-0.191379 0.0725,-0.341154 0.0737,-0.150964 0.20445,-0.235361 0.13195,-0.08559 0.28529,-0.08559 0.25081,0 0.38989,0.165228 0.13908,0.165228 0.13908,0.473099 v 0.09153 h -0.87131 q 0.005,0.19019 0.11055,0.307871 0.10698,0.116491 0.27102,0.116491 0.11649,0 0.19732,-0.04755 0.0808,-0.04755 0.14145,-0.126002 l 0.13433,0.104605 q -0.16167,0.248437 -0.48499,0.248437 z m -0.0273,-1.153031 q -0.13313,0 -0.22347,0.09747 -0.0903,0.09628 -0.11174,0.271021 h 0.64427 v -0.01664 q -0.01,-0.167606 -0.0903,-0.259135 -0.0808,-0.09272 -0.21872,-0.09272 z"
           style="font-style:normal;font-variant:normal;font-weight:normal;font-stretch:normal;font-family:Roboto;-inkscape-font-specification:Roboto;stroke-width:0.0608608"
           id="path3964" />
        <path
           d="m 113.01215,90.137476 v 0.311437 h 0.24012 v 0.169983 h -0.24012 v 0.797612 q 0,0.07727 0.0321,0.116491 0.0321,0.03804 0.10936,0.03804 0.038,0 0.1046,-0.01426 v 0.178304 q -0.0868,0.02377 -0.16879,0.02377 -0.1474,0 -0.22229,-0.08915 -0.0749,-0.08915 -0.0749,-0.253191 v -0.797612 h -0.23417 v -0.169983 h 0.23417 v -0.311437 z"
           style="font-style:normal;font-variant:normal;font-weight:normal;font-stretch:normal;font-family:Roboto;-inkscape-font-specification:Roboto;stroke-width:0.0608608"
           id="path3966" />
        <path
           d="m 114.40886,90.762727 h 0.16523 q 0.15572,-0.0024 0.24487,-0.08202 0.0891,-0.07964 0.0891,-0.215153 0,-0.304305 -0.30311,-0.304305 -0.14264,0 -0.22823,0.08202 -0.0844,0.08083 -0.0844,0.215153 h -0.21991 q 0,-0.205643 0.14978,-0.341154 0.15096,-0.1367 0.38276,-0.1367 0.24487,0 0.38395,0.129568 0.13907,0.129567 0.13907,0.360173 0,0.112926 -0.0737,0.21872 -0.0725,0.105793 -0.19851,0.158095 0.14264,0.04517 0.21991,0.149776 0.0784,0.104604 0.0784,0.255568 0,0.232984 -0.15215,0.369683 -0.15215,0.1367 -0.39583,0.1367 -0.24368,0 -0.39703,-0.131945 -0.15215,-0.131945 -0.15215,-0.348287 h 0.2211 q 0,0.1367 0.0892,0.21872 0.0892,0.08202 0.23893,0.08202 0.15928,0 0.24368,-0.08321 0.0844,-0.08321 0.0844,-0.238927 0,-0.150964 -0.0927,-0.231795 -0.0927,-0.08083 -0.26746,-0.08321 h -0.16523 z"
           style="font-style:normal;font-variant:normal;font-weight:normal;font-stretch:normal;font-family:Roboto;-inkscape-font-specification:Roboto;stroke-width:0.0608608"
           id="path3968" />
        <path
           d="m 116.32385,91.735077 h -0.21991 v -1.286164 h 0.21991 z m -0.23774,-1.627319 q 0,-0.05349 0.0321,-0.09034 0.0333,-0.03685 0.0975,-0.03685 0.0642,0 0.0975,0.03685 0.0333,0.03685 0.0333,0.09034 0,0.05349 -0.0333,0.08915 -0.0333,0.03566 -0.0975,0.03566 -0.0642,0 -0.0975,-0.03566 -0.0321,-0.03566 -0.0321,-0.08915 z"
           style="font-style:normal;font-variant:normal;font-weight:normal;font-stretch:normal;font-family:Roboto;-inkscape-font-specification:Roboto;stroke-width:0.0608608"
           id="path3970" />
        <path
           d="m 116.88253,90.448913 0.007,0.161662 q 0.1474,-0.185436 0.38514,-0.185436 0.40772,0 0.41129,0.460024 v 0.849914 h -0.21991 v -0.851103 q -0.001,-0.139077 -0.0642,-0.205644 -0.0618,-0.06657 -0.19376,-0.06657 -0.10698,0 -0.18781,0.05706 -0.0808,0.05706 -0.126,0.149775 v 0.916481 h -0.21991 v -1.286164 z"
           style="font-style:normal;font-variant:normal;font-weight:normal;font-stretch:normal;font-family:Roboto;-inkscape-font-specification:Roboto;stroke-width:0.0608608"
           id="path3972" />
        <path
           d="m 118.47775,91.089617 h -0.58008 v -0.179492 h 0.58008 z"
           style="font-style:normal;font-variant:normal;font-weight:normal;font-stretch:normal;font-family:Roboto;-inkscape-font-specification:Roboto;stroke-width:0.0608608"
           id="path3974" />
        <path
           d="m 118.63704,91.081297 q 0,-0.295984 0.14026,-0.475477 0.14027,-0.180681 0.36731,-0.180681 0.22585,0 0.3578,0.15453 v -0.670422 h 0.2199 v 1.82583 h -0.20207 l -0.0107,-0.137888 q -0.13195,0.161662 -0.36731,0.161662 -0.22347,0 -0.36493,-0.183059 -0.14026,-0.183058 -0.14026,-0.477854 z m 0.21991,0.02496 q 0,0.218719 0.0903,0.342343 0.0903,0.123624 0.24962,0.123624 0.20921,0 0.3055,-0.187813 v -0.59078 q -0.0987,-0.181869 -0.30312,-0.181869 -0.16166,0 -0.252,0.124812 -0.0903,0.124813 -0.0903,0.369683 z"
           style="font-style:normal;font-variant:normal;font-weight:normal;font-stretch:normal;font-family:Roboto;-inkscape-font-specification:Roboto;stroke-width:0.0608608"
           id="path3976" />
        <path
           d="m 120.59838,91.758851 q -0.26151,0 -0.42555,-0.171172 -0.16404,-0.17236 -0.16404,-0.460023 v -0.04042 q 0,-0.191379 0.0725,-0.341154 0.0737,-0.150964 0.20445,-0.235361 0.13195,-0.08559 0.28529,-0.08559 0.25081,0 0.38989,0.165228 0.13908,0.165228 0.13908,0.473099 v 0.09153 h -0.87131 q 0.005,0.19019 0.11054,0.307871 0.10699,0.116491 0.27103,0.116491 0.11649,0 0.19732,-0.04755 0.0808,-0.04755 0.14145,-0.126002 l 0.13432,0.104605 q -0.16166,0.248437 -0.48498,0.248437 z m -0.0273,-1.153031 q -0.13313,0 -0.22348,0.09747 -0.0903,0.09628 -0.11173,0.271021 h 0.64427 v -0.01664 q -0.01,-0.167606 -0.0903,-0.259135 -0.0808,-0.09272 -0.21872,-0.09272 z"
           style="font-style:normal;font-variant:normal;font-weight:normal;font-stretch:normal;font-family:Roboto;-inkscape-font-specification:Roboto;stroke-width:0.0608608"
           id="path3978" />
        <path
           d="m 122.43966,91.106259 q 0,0.293607 -0.13432,0.473099 -0.13432,0.179493 -0.36374,0.179493 -0.23417,0 -0.36849,-0.148587 v 0.619309 h -0.21991 v -1.78066 h 0.20089 l 0.0107,0.142643 q 0.13432,-0.166417 0.37325,-0.166417 0.23179,0 0.36611,0.174738 0.13551,0.174737 0.13551,0.486174 z m -0.2199,-0.02496 q 0,-0.217531 -0.0927,-0.343532 -0.0927,-0.126001 -0.25438,-0.126001 -0.1997,0 -0.29955,0.177115 v 0.614553 q 0.0987,0.175926 0.30193,0.175926 0.15809,0 0.25081,-0.124812 0.0939,-0.126002 0.0939,-0.373249 z"
           style="font-style:normal;font-variant:normal;font-weight:normal;font-stretch:normal;font-family:Roboto;-inkscape-font-specification:Roboto;stroke-width:0.0608608"
           id="path3980" />
        <path
           d="m 123.01618,90.137476 v 0.311437 h 0.24011 v 0.169983 h -0.24011 v 0.797612 q 0,0.07727 0.0321,0.116491 0.0321,0.03804 0.10936,0.03804 0.038,0 0.10461,-0.01426 v 0.178304 q -0.0868,0.02377 -0.1688,0.02377 -0.1474,0 -0.22228,-0.08915 -0.0749,-0.08915 -0.0749,-0.253191 v -0.797612 h -0.23417 v -0.169983 h 0.23417 v -0.311437 z"
           style="font-style:normal;font-variant:normal;font-weight:normal;font-stretch:normal;font-family:Roboto;-inkscape-font-specification:Roboto;stroke-width:0.0608608"
           id="path3982" />
        <path
           d="m 123.73177,90.604631 q 0.14621,-0.179492 0.38038,-0.179492 0.40772,0 0.41129,0.460024 v 0.849914 h -0.21991 v -0.851103 q -0.001,-0.139077 -0.0642,-0.205644 -0.0618,-0.06657 -0.19376,-0.06657 -0.10698,0 -0.18781,0.05706 -0.0808,0.05706 -0.126,0.149775 v 0.916481 h -0.21991 v -1.82583 h 0.21991 z"
           style="font-style:normal;font-variant:normal;font-weight:normal;font-stretch:normal;font-family:Roboto;-inkscape-font-specification:Roboto;stroke-width:0.0608608"
           id="path3984" />
        <path
           d="m 125.97245,91.579358 q 0.11769,0 0.20565,-0.07132 0.088,-0.07132 0.0975,-0.178304 h 0.20802 q -0.006,0.110548 -0.0761,0.210399 -0.0701,0.09985 -0.18782,0.159284 -0.11649,0.05944 -0.24725,0.05944 -0.2627,0 -0.41841,-0.174738 -0.15453,-0.175926 -0.15453,-0.480231 v -0.03685 q 0,-0.187813 0.0689,-0.334022 0.0689,-0.146209 0.19732,-0.22704 0.12957,-0.08083 0.3055,-0.08083 0.21634,0 0.35898,0.129567 0.14383,0.129568 0.15334,0.3364 h -0.20802 q -0.01,-0.124813 -0.0951,-0.204455 -0.0844,-0.08083 -0.20921,-0.08083 -0.16761,0 -0.26033,0.121247 -0.0915,0.120057 -0.0915,0.348286 v 0.0416 q 0,0.222286 0.0915,0.342344 0.0915,0.120057 0.26151,0.120057 z"
           style="font-style:normal;font-variant:normal;font-weight:normal;font-stretch:normal;font-family:Roboto;-inkscape-font-specification:Roboto;stroke-width:0.0608608"
           id="path3986" />
        <path
           d="m 126.67259,91.080108 q 0,-0.189002 0.0737,-0.339966 0.0749,-0.150964 0.20683,-0.232983 0.13314,-0.08202 0.30312,-0.08202 0.2627,0 0.42436,0.18187 0.16285,0.18187 0.16285,0.483797 v 0.01545 q 0,0.187813 -0.0725,0.337589 -0.0713,0.148586 -0.20564,0.231794 -0.13313,0.08321 -0.30668,0.08321 -0.26151,0 -0.42436,-0.18187 -0.16167,-0.18187 -0.16167,-0.48142 z m 0.2211,0.02615 q 0,0.213965 0.0987,0.343532 0.0999,0.129567 0.26627,0.129567 0.1676,0 0.26627,-0.130756 0.0987,-0.131944 0.0987,-0.368494 0,-0.211587 -0.10104,-0.342343 -0.0999,-0.131945 -0.26627,-0.131945 -0.16285,0 -0.2627,0.129567 -0.0998,0.129568 -0.0998,0.370872 z"
           style="font-style:normal;font-variant:normal;font-weight:normal;font-stretch:normal;font-family:Roboto;-inkscape-font-specification:Roboto;stroke-width:0.0608608"
           id="path3988" />
        <path
           d="m 128.91327,91.607887 q -0.12837,0.150964 -0.37681,0.150964 -0.20564,0 -0.31381,-0.118869 -0.10699,-0.120058 -0.10818,-0.35423 v -0.836839 h 0.21991 v 0.830895 q 0,0.292418 0.23774,0.292418 0.252,0 0.33521,-0.187813 v -0.9355 h 0.21991 v 1.286164 h -0.20921 z"
           style="font-style:normal;font-variant:normal;font-weight:normal;font-stretch:normal;font-family:Roboto;-inkscape-font-specification:Roboto;stroke-width:0.0608608"
           id="path3990" />
        <path
           d="m 130.08176,90.646236 q -0.0499,-0.0083 -0.10817,-0.0083 -0.21634,0 -0.29361,0.184247 v 0.912915 h -0.21991 v -1.286164 h 0.21397 l 0.004,0.148586 q 0.10817,-0.17236 0.30669,-0.17236 0.0642,0 0.0975,0.01664 z"
           style="font-style:normal;font-variant:normal;font-weight:normal;font-stretch:normal;font-family:Roboto;-inkscape-font-specification:Roboto;stroke-width:0.0608608"
           id="path3992" />
        <path
           d="m 131.03152,91.393922 q 0,-0.08915 -0.0677,-0.137888 -0.0666,-0.04993 -0.23418,-0.08558 -0.16641,-0.03566 -0.26507,-0.08559 -0.0975,-0.04993 -0.14502,-0.118869 -0.0464,-0.06894 -0.0464,-0.16404 0,-0.158096 0.13313,-0.267455 0.13432,-0.10936 0.34234,-0.10936 0.21872,0 0.35423,0.112926 0.1367,0.112925 0.1367,0.288852 h -0.22109 q 0,-0.09034 -0.0773,-0.155719 -0.0761,-0.06538 -0.19257,-0.06538 -0.12005,0 -0.18781,0.0523 -0.0677,0.0523 -0.0677,0.136699 0,0.07964 0.063,0.120058 0.063,0.04042 0.22704,0.07726 0.16522,0.03685 0.26745,0.08796 0.10223,0.05111 0.15097,0.123624 0.0499,0.07132 0.0499,0.174737 0,0.172361 -0.13789,0.276966 -0.13789,0.103416 -0.35779,0.103416 -0.15453,0 -0.2734,-0.05468 -0.11887,-0.05468 -0.18663,-0.152153 -0.0666,-0.09866 -0.0666,-0.212775 h 0.2199 q 0.006,0.110548 0.088,0.175926 0.0832,0.06419 0.21872,0.06419 0.12481,0 0.1997,-0.04993 0.0761,-0.05111 0.0761,-0.135511 z"
           style="font-style:normal;font-variant:normal;font-weight:normal;font-stretch:normal;font-family:Roboto;-inkscape-font-specification:Roboto;stroke-width:0.0608608"
           id="path3994" />
        <path
           d="m 132.07163,91.758851 q -0.26151,0 -0.42555,-0.171172 -0.16404,-0.17236 -0.16404,-0.460023 v -0.04042 q 0,-0.191379 0.0725,-0.341154 0.0737,-0.150964 0.20445,-0.235361 0.13195,-0.08559 0.28529,-0.08559 0.25081,0 0.38989,0.165228 0.13908,0.165228 0.13908,0.473099 v 0.09153 h -0.87131 q 0.005,0.19019 0.11054,0.307871 0.10699,0.116491 0.27103,0.116491 0.11649,0 0.19732,-0.04755 0.0808,-0.04755 0.14145,-0.126002 l 0.13433,0.104605 q -0.16167,0.248437 -0.48499,0.248437 z m -0.0273,-1.153031 q -0.13313,0 -0.22347,0.09747 -0.0903,0.09628 -0.11174,0.271021 h 0.64427 v -0.01664 q -0.01,-0.167606 -0.0903,-0.259135 -0.0808,-0.09272 -0.21872,-0.09272 z"
           style="font-style:normal;font-variant:normal;font-weight:normal;font-stretch:normal;font-family:Roboto;-inkscape-font-specification:Roboto;stroke-width:0.0608608"
           id="path3996" />
        <path
           d="m 133.57532,91.393922 q 0,-0.08915 -0.0678,-0.137888 -0.0666,-0.04993 -0.23417,-0.08558 -0.16642,-0.03566 -0.26508,-0.08559 -0.0975,-0.04993 -0.14502,-0.118869 -0.0464,-0.06894 -0.0464,-0.16404 0,-0.158096 0.13313,-0.267455 0.13432,-0.10936 0.34234,-0.10936 0.21872,0 0.35423,0.112926 0.1367,0.112925 0.1367,0.288852 h -0.22109 q 0,-0.09034 -0.0773,-0.155719 -0.0761,-0.06538 -0.19257,-0.06538 -0.12005,0 -0.18781,0.0523 -0.0678,0.0523 -0.0678,0.136699 0,0.07964 0.063,0.120058 0.063,0.04042 0.22704,0.07726 0.16522,0.03685 0.26745,0.08796 0.10223,0.05111 0.15097,0.123624 0.0499,0.07132 0.0499,0.174737 0,0.172361 -0.13789,0.276966 -0.13789,0.103416 -0.35779,0.103416 -0.15453,0 -0.2734,-0.05468 -0.11887,-0.05468 -0.18663,-0.152153 -0.0666,-0.09866 -0.0666,-0.212775 h 0.2199 q 0.006,0.110548 0.088,0.175926 0.0832,0.06419 0.21872,0.06419 0.12481,0 0.1997,-0.04993 0.0761,-0.05111 0.0761,-0.135511 z"
           style="font-style:normal;font-variant:normal;font-weight:normal;font-stretch:normal;font-family:Roboto;-inkscape-font-specification:Roboto;stroke-width:0.0608608"
           id="path3998" />
        <path
           d="m 134.08646,91.619774 q 0,-0.05706 0.0333,-0.0951 0.0345,-0.03804 0.10223,-0.03804 0.0677,0 0.10223,0.03804 0.0357,0.03804 0.0357,0.0951 0,0.05468 -0.0357,0.09153 -0.0345,0.03685 -0.10223,0.03685 -0.0678,0 -0.10223,-0.03685 -0.0333,-0.03685 -0.0333,-0.09153 z"
           style="font-style:normal;font-variant:normal;font-weight:normal;font-stretch:normal;font-family:Roboto;-inkscape-font-specification:Roboto;stroke-width:0.0608608"
           id="path4000" />
        <path
           d="m 136.21303,91.280997 q 0,-0.101039 -0.0713,-0.15453 -0.0713,-0.05468 -0.25676,-0.114114 -0.18544,-0.06062 -0.29361,-0.11887 -0.29479,-0.159284 -0.29479,-0.429117 0,-0.140266 0.0785,-0.249625 0.0796,-0.110549 0.22704,-0.172361 0.14859,-0.06181 0.33284,-0.06181 0.18543,0 0.33045,0.06776 0.14502,0.06657 0.22466,0.189002 0.0808,0.122435 0.0808,0.278154 h -0.35661 q 0,-0.11887 -0.0749,-0.184248 -0.0749,-0.06657 -0.2104,-0.06657 -0.13075,0 -0.20326,0.05587 -0.0725,0.05468 -0.0725,0.145021 0,0.0844 0.0844,0.141454 0.0856,0.05706 0.25082,0.106982 0.3043,0.09153 0.44338,0.22704 0.13908,0.135511 0.13908,0.337588 0,0.224663 -0.16999,0.353042 -0.16998,0.12719 -0.45764,0.12719 -0.1997,0 -0.36374,-0.07251 -0.16404,-0.0737 -0.25082,-0.200889 -0.0856,-0.12719 -0.0856,-0.294796 h 0.35779 q 0,0.286475 0.34235,0.286475 0.12719,0 0.19851,-0.05111 0.0713,-0.0523 0.0713,-0.14502 z"
           style="font-weight:bold"
           id="path4002" />
        <path
           d="m 137.53604,91.735077 q -0.0238,-0.04636 -0.0345,-0.115303 -0.12481,0.139077 -0.32451,0.139077 -0.18901,0 -0.31382,-0.10936 -0.12362,-0.109359 -0.12362,-0.275776 0,-0.204455 0.15096,-0.313815 0.15215,-0.109359 0.43863,-0.110548 h 0.15809 v -0.0737 q 0,-0.08915 -0.0464,-0.142643 -0.0452,-0.05349 -0.14384,-0.05349 -0.0868,0 -0.1367,0.0416 -0.0487,0.0416 -0.0487,0.114115 h -0.34353 q 0,-0.111737 0.0689,-0.206833 0.0689,-0.0951 0.19495,-0.148586 0.126,-0.05468 0.2829,-0.05468 0.23774,0 0.37682,0.120058 0.14027,0.118869 0.14027,0.335211 v 0.557496 q 0.001,0.183059 0.0511,0.276965 v 0.02021 z m -0.2841,-0.238927 q 0.0761,0 0.14027,-0.03328 0.0642,-0.03447 0.0951,-0.09153 v -0.221096 h -0.12837 q -0.25795,0 -0.27459,0.178303 l -0.001,0.02021 q 0,0.06419 0.0452,0.105794 0.0452,0.0416 0.12362,0.0416 z"
           style="font-weight:bold"
           id="path4004" />
        <path
           d="m 138.5607,91.315469 0.23892,-0.866556 h 0.35899 l -0.43388,1.286164 h -0.32807 l -0.43388,-1.286164 h 0.35899 z"
           style="font-weight:bold"
           id="path4006" />
        <path
           d="m 139.88846,91.758851 q -0.2829,0 -0.46121,-0.173549 -0.17711,-0.173549 -0.17711,-0.462401 v -0.03328 q 0,-0.193756 0.0749,-0.345909 0.0749,-0.153341 0.21159,-0.235361 0.13789,-0.08321 0.31382,-0.08321 0.26389,0 0.41485,0.166417 0.15215,0.166417 0.15215,0.47191 v 0.140266 h -0.81901 q 0.0166,0.126001 0.0999,0.202077 0.0844,0.07608 0.21278,0.07608 0.19851,0 0.31025,-0.143832 l 0.16879,0.189002 q -0.0773,0.10936 -0.20921,0.171171 -0.13194,0.06062 -0.29242,0.06062 z m -0.0392,-1.055558 q -0.10223,0 -0.16642,0.06894 -0.063,0.06894 -0.0808,0.197323 h 0.47785 v -0.02734 q -0.002,-0.114115 -0.0618,-0.175927 -0.0594,-0.063 -0.16879,-0.063 z"
           style="font-weight:bold"
           id="path4008" />
        <path
           d="m 142.04237,91.735077 h -0.34353 v -1.324202 l -0.4101,0.12719 v -0.279343 l 0.71678,-0.256757 h 0.0369 z"
           style="font-weight:bold"
           id="path4010" />
        <path
           d="m 143.77073,91.019485 q 0,0.358984 -0.14859,0.549175 -0.14858,0.190191 -0.43506,0.190191 -0.28291,0 -0.43268,-0.186625 -0.14978,-0.186624 -0.15334,-0.534911 v -0.318569 q 0,-0.362551 0.14977,-0.550364 0.15097,-0.187814 0.43388,-0.187814 0.2829,0 0.43268,0.186625 0.14977,0.185436 0.15334,0.533722 z m -0.34353,-0.349476 q 0,-0.215153 -0.0594,-0.312625 -0.0582,-0.09866 -0.18305,-0.09866 -0.12125,0 -0.1795,0.09391 -0.0571,0.09272 -0.0606,0.291229 v 0.420797 q 0,0.211587 0.0571,0.315003 0.0582,0.102228 0.18543,0.102228 0.126,0 0.18187,-0.09866 0.0559,-0.09866 0.0582,-0.301927 z"
           style="font-weight:bold"
           id="path4012" />
        <path
           d="m 143.99896,90.337176 q 0,-0.159285 0.10341,-0.257946 0.10342,-0.09985 0.27103,-0.09985 0.16998,0 0.27339,0.09866 0.10342,0.09747 0.10342,0.265078 v 0.08559 q 0,0.160473 -0.10342,0.257946 -0.10341,0.09747 -0.27102,0.09747 -0.16879,0 -0.2734,-0.09747 -0.10341,-0.09866 -0.10341,-0.265078 z m 0.22823,0.09153 q 0,0.07132 0.0404,0.115303 0.0416,0.04279 0.10817,0.04279 0.0666,0 0.1058,-0.04398 0.0392,-0.04398 0.0392,-0.11768 v -0.08796 q 0,-0.07132 -0.0392,-0.115303 -0.0392,-0.04398 -0.10817,-0.04398 -0.0654,0 -0.1058,0.04398 -0.0404,0.04279 -0.0404,0.120058 z m 0.5991,0.882009 q 0,-0.160473 0.1046,-0.257946 0.10461,-0.09866 0.27102,-0.09866 0.1688,0 0.27221,0.09747 0.10461,0.09628 0.10461,0.266267 v 0.08559 q 0,0.159285 -0.10223,0.257946 -0.10223,0.09747 -0.27221,0.09747 -0.17117,0 -0.27459,-0.09866 -0.10341,-0.09866 -0.10341,-0.261512 z m 0.22823,0.09272 q 0,0.06538 0.0428,0.111737 0.0428,0.04636 0.10698,0.04636 0.14502,0 0.14502,-0.160473 v -0.09034 q 0,-0.07132 -0.0404,-0.114114 -0.0404,-0.04398 -0.10699,-0.04398 -0.0666,0 -0.10698,0.04398 -0.0404,0.04279 -0.0404,0.11768 z m -0.61099,0.202078 -0.16761,-0.09034 0.84516,-1.352731 0.16761,0.09034 z"
           style="font-weight:bold"
           id="path4014" />
        <path
           d="m 146.16475,91.203732 h -0.28528 l -0.0404,-1.19939 h 0.36612 z m -0.14264,0.187813 q 0.0868,0 0.13908,0.05111 0.0535,0.05111 0.0535,0.130756 0,0.07845 -0.0535,0.129567 -0.0523,0.05111 -0.13908,0.05111 -0.0856,0 -0.13908,-0.05111 -0.0523,-0.05111 -0.0523,-0.129567 0,-0.07845 0.0523,-0.129567 0.0535,-0.0523 0.13908,-0.0523 z"
           style="font-weight:bold"
           id="path4016" />
      </g>
      <g
         id="g896"
         transform="matrix(0.11457918,0,0,0.11457918,82.917314,84.127369)">
        <path
           fill="#fdd888"
           d="m 33,31 c 0,2.2 -1.8,4 -4,4 H 7 C 4.8,35 3,33.2 3,31 V 14 c 0,-2.2 1.8,-4 4,-4 h 22 c 2.2,0 4,1.8 4,4 z"
           id="path873" />
        <path
           fill="#fdd888"
           d="m 36,11 c 0,2.2 -1.8,4 -4,4 H 4 C 1.8,15 0,13.2 0,11 0,8.8 1.8,7 4,7 h 28 c 2.2,0 4,1.8 4,4 z"
           id="path875" />
        <path
           fill="#fcab40"
           d="m 3,15 h 30 v 2 H 3 Z"
           id="path877" />
        <path
           fill="#da2f47"
           d="m 19,3 h -2 c -1.657,0 -3,1.343 -3,3 v 29 h 8 V 6 C 22,4.344 20.657,3 19,3 Z"
           id="path879" />
        <path
           fill="#da2f47"
           d="m 16,7 c 1.1,0 1.263,-0.516 0.361,-1.147 L 9.639,1.147 C 8.737,0.516 7.554,0.781 7.008,1.736 L 4.992,5.264 C 4.446,6.219 4.9,7 6,7 Z m 4,0 C 18.9,7 18.737,6.484 19.639,5.853 l 6.723,-4.706 c 0.901,-0.631 2.085,-0.366 2.631,0.589 l 2.016,3.527 C 31.554,6.219 31.1,7 30,7 Z"
           id="path881" />
      </g>
    </g>
  </g>
</svg>
