<svg xmlns="http://www.w3.org/2000/svg" xmlns:xlink="http://www.w3.org/1999/xlink" width="300" zoomAndPan="magnify" viewBox="0 0 224.87999 30.000001" height="40" preserveAspectRatio="xMidYMid meet" version="1.0"><defs><g/><clipPath id="ef5ae8abd8"><path d="M 3.570312 0 L 221.195312 0 L 221.195312 29.03125 L 3.570312 29.03125 Z M 3.570312 0 " clip-rule="nonzero"/></clipPath><clipPath id="16c6c08de4"><path d="M 13 7 L 29 7 L 29 28.839844 L 13 28.839844 Z M 13 7 " clip-rule="nonzero"/></clipPath></defs><g clip-path="url(#ef5ae8abd8)"><path fill="#ffffff" d="M 3.570312 0 L 221.3125 0 L 221.3125 36.289062 L 3.570312 36.289062 Z M 3.570312 0 " fill-opacity="1" fill-rule="nonzero"/><path fill="#ffffff" d="M 3.570312 0 L 221.3125 0 L 221.3125 29.03125 L 3.570312 29.03125 Z M 3.570312 0 " fill-opacity="1" fill-rule="nonzero"/><path fill="#ffffff" d="M 3.570312 0 L 221.3125 0 L 221.3125 29.03125 L 3.570312 29.03125 Z M 3.570312 0 " fill-opacity="1" fill-rule="nonzero"/></g><g fill="#000000" fill-opacity="1"><g transform="translate(92.004145, 10.887099)"><g><path d="M 3.6875 0.109375 C 3.050781 0.109375 2.5 -0.0351562 2.03125 -0.328125 C 1.570312 -0.617188 1.21875 -1.054688 0.96875 -1.640625 C 0.71875 -2.222656 0.59375 -2.941406 0.59375 -3.796875 C 0.59375 -4.660156 0.742188 -5.382812 1.046875 -5.96875 C 1.347656 -6.550781 1.765625 -6.984375 2.296875 -7.265625 C 2.835938 -7.554688 3.460938 -7.703125 4.171875 -7.703125 C 4.898438 -7.703125 5.519531 -7.566406 6.03125 -7.296875 C 6.539062 -7.023438 6.898438 -6.625 7.109375 -6.09375 L 6.015625 -5.421875 L 5.875 -5.4375 C 5.71875 -5.769531 5.5 -6.015625 5.21875 -6.171875 C 4.9375 -6.328125 4.585938 -6.40625 4.171875 -6.40625 C 3.515625 -6.40625 3.007812 -6.195312 2.65625 -5.78125 C 2.3125 -5.375 2.140625 -4.710938 2.140625 -3.796875 C 2.140625 -2.878906 2.300781 -2.210938 2.625 -1.796875 C 2.957031 -1.378906 3.4375 -1.171875 4.0625 -1.171875 C 4.613281 -1.171875 5.019531 -1.289062 5.28125 -1.53125 C 5.539062 -1.78125 5.671875 -2.148438 5.671875 -2.640625 L 5.671875 -2.96875 L 3.875 -2.96875 L 3.875 -4.1875 L 7.15625 -4.1875 L 7.15625 0 L 5.71875 0 L 5.71875 -1.015625 L 5.609375 -1.03125 C 5.453125 -0.664062 5.21875 -0.382812 4.90625 -0.1875 C 4.59375 0.0078125 4.1875 0.109375 3.6875 0.109375 Z M 3.6875 0.109375 "/></g></g></g><g fill="#000000" fill-opacity="1"><g transform="translate(99.92521, 10.887099)"><g><path d="M 5.65625 -2.546875 L 1.984375 -2.546875 C 2.023438 -2.046875 2.164062 -1.679688 2.40625 -1.453125 C 2.644531 -1.222656 2.972656 -1.109375 3.390625 -1.109375 C 3.722656 -1.109375 3.988281 -1.171875 4.1875 -1.296875 C 4.394531 -1.421875 4.5625 -1.609375 4.6875 -1.859375 L 4.796875 -1.859375 L 5.75 -1.234375 C 5.5625 -0.835938 5.28125 -0.515625 4.90625 -0.265625 C 4.53125 -0.015625 4.023438 0.109375 3.390625 0.109375 C 2.804688 0.109375 2.296875 0 1.859375 -0.21875 C 1.429688 -0.445312 1.097656 -0.785156 0.859375 -1.234375 C 0.628906 -1.679688 0.515625 -2.222656 0.515625 -2.859375 C 0.515625 -3.515625 0.632812 -4.066406 0.875 -4.515625 C 1.125 -4.960938 1.457031 -5.296875 1.875 -5.515625 C 2.300781 -5.734375 2.773438 -5.84375 3.296875 -5.84375 C 4.109375 -5.84375 4.726562 -5.625 5.15625 -5.1875 C 5.582031 -4.757812 5.796875 -4.128906 5.796875 -3.296875 C 5.796875 -3.003906 5.785156 -2.773438 5.765625 -2.609375 Z M 4.421875 -3.46875 C 4.410156 -3.90625 4.3125 -4.222656 4.125 -4.421875 C 3.9375 -4.617188 3.660156 -4.71875 3.296875 -4.71875 C 2.566406 -4.71875 2.140625 -4.300781 2.015625 -3.46875 Z M 4.421875 -3.46875 "/></g></g></g><g fill="#000000" fill-opacity="1"><g transform="translate(106.152985, 10.887099)"><g><path d="M 0.828125 0 L 0.828125 -5.734375 L 2.203125 -5.734375 L 2.203125 -4.890625 L 2.3125 -4.859375 C 2.675781 -5.515625 3.253906 -5.84375 4.046875 -5.84375 C 4.710938 -5.84375 5.195312 -5.660156 5.5 -5.296875 C 5.8125 -4.941406 5.96875 -4.414062 5.96875 -3.71875 L 5.96875 0 L 4.53125 0 L 4.53125 -3.546875 C 4.53125 -3.929688 4.453125 -4.207031 4.296875 -4.375 C 4.148438 -4.539062 3.910156 -4.625 3.578125 -4.625 C 3.160156 -4.625 2.835938 -4.488281 2.609375 -4.21875 C 2.378906 -3.957031 2.265625 -3.539062 2.265625 -2.96875 L 2.265625 0 Z M 0.828125 0 "/></g></g></g><g fill="#000000" fill-opacity="1"><g transform="translate(112.863815, 10.887099)"><g><path d="M 5.65625 -2.546875 L 1.984375 -2.546875 C 2.023438 -2.046875 2.164062 -1.679688 2.40625 -1.453125 C 2.644531 -1.222656 2.972656 -1.109375 3.390625 -1.109375 C 3.722656 -1.109375 3.988281 -1.171875 4.1875 -1.296875 C 4.394531 -1.421875 4.5625 -1.609375 4.6875 -1.859375 L 4.796875 -1.859375 L 5.75 -1.234375 C 5.5625 -0.835938 5.28125 -0.515625 4.90625 -0.265625 C 4.53125 -0.015625 4.023438 0.109375 3.390625 0.109375 C 2.804688 0.109375 2.296875 0 1.859375 -0.21875 C 1.429688 -0.445312 1.097656 -0.785156 0.859375 -1.234375 C 0.628906 -1.679688 0.515625 -2.222656 0.515625 -2.859375 C 0.515625 -3.515625 0.632812 -4.066406 0.875 -4.515625 C 1.125 -4.960938 1.457031 -5.296875 1.875 -5.515625 C 2.300781 -5.734375 2.773438 -5.84375 3.296875 -5.84375 C 4.109375 -5.84375 4.726562 -5.625 5.15625 -5.1875 C 5.582031 -4.757812 5.796875 -4.128906 5.796875 -3.296875 C 5.796875 -3.003906 5.785156 -2.773438 5.765625 -2.609375 Z M 4.421875 -3.46875 C 4.410156 -3.90625 4.3125 -4.222656 4.125 -4.421875 C 3.9375 -4.617188 3.660156 -4.71875 3.296875 -4.71875 C 2.566406 -4.71875 2.140625 -4.300781 2.015625 -3.46875 Z M 4.421875 -3.46875 "/></g></g></g><g fill="#000000" fill-opacity="1"><g transform="translate(119.09159, 10.887099)"><g><path d="M 0.828125 0 L 0.828125 -5.734375 L 2.21875 -5.734375 L 2.21875 -4.875 L 2.328125 -4.859375 C 2.472656 -5.171875 2.65625 -5.398438 2.875 -5.546875 C 3.101562 -5.703125 3.378906 -5.78125 3.703125 -5.78125 C 4.023438 -5.78125 4.269531 -5.722656 4.4375 -5.609375 L 4.203125 -4.375 L 4.09375 -4.359375 C 4 -4.390625 3.90625 -4.414062 3.8125 -4.4375 C 3.726562 -4.457031 3.625 -4.46875 3.5 -4.46875 C 3.101562 -4.46875 2.796875 -4.320312 2.578125 -4.03125 C 2.367188 -3.75 2.265625 -3.300781 2.265625 -2.6875 L 2.265625 0 Z M 0.828125 0 "/></g></g></g><g fill="#000000" fill-opacity="1"><g transform="translate(123.584522, 10.887099)"><g><path d="M 2.234375 0.109375 C 1.867188 0.109375 1.550781 0.0390625 1.28125 -0.09375 C 1.007812 -0.226562 0.800781 -0.425781 0.65625 -0.6875 C 0.507812 -0.945312 0.4375 -1.257812 0.4375 -1.625 C 0.4375 -1.96875 0.507812 -2.253906 0.65625 -2.484375 C 0.800781 -2.710938 1.023438 -2.898438 1.328125 -3.046875 C 1.628906 -3.191406 2.03125 -3.304688 2.53125 -3.390625 C 2.875 -3.441406 3.132812 -3.5 3.3125 -3.5625 C 3.488281 -3.632812 3.609375 -3.710938 3.671875 -3.796875 C 3.734375 -3.878906 3.765625 -3.984375 3.765625 -4.109375 C 3.765625 -4.296875 3.695312 -4.4375 3.5625 -4.53125 C 3.4375 -4.632812 3.226562 -4.6875 2.9375 -4.6875 C 2.613281 -4.6875 2.304688 -4.613281 2.015625 -4.46875 C 1.734375 -4.320312 1.484375 -4.132812 1.265625 -3.90625 L 1.171875 -3.90625 L 0.5625 -4.8125 C 0.851562 -5.132812 1.207031 -5.382812 1.625 -5.5625 C 2.050781 -5.75 2.507812 -5.84375 3 -5.84375 C 3.757812 -5.84375 4.304688 -5.679688 4.640625 -5.359375 C 4.984375 -5.035156 5.15625 -4.578125 5.15625 -3.984375 L 5.15625 -1.5 C 5.15625 -1.238281 5.269531 -1.109375 5.5 -1.109375 C 5.582031 -1.109375 5.664062 -1.125 5.75 -1.15625 L 5.828125 -1.140625 L 5.921875 -0.140625 C 5.847656 -0.0859375 5.738281 -0.0390625 5.59375 0 C 5.445312 0.03125 5.289062 0.046875 5.125 0.046875 C 4.78125 0.046875 4.507812 -0.0195312 4.3125 -0.15625 C 4.125 -0.289062 3.988281 -0.5 3.90625 -0.78125 L 3.796875 -0.78125 C 3.515625 -0.1875 2.992188 0.109375 2.234375 0.109375 Z M 2.6875 -0.96875 C 3.019531 -0.96875 3.285156 -1.078125 3.484375 -1.296875 C 3.679688 -1.523438 3.78125 -1.835938 3.78125 -2.234375 L 3.78125 -2.8125 L 3.6875 -2.84375 C 3.601562 -2.769531 3.488281 -2.707031 3.34375 -2.65625 C 3.207031 -2.613281 3.007812 -2.570312 2.75 -2.53125 C 2.4375 -2.476562 2.207031 -2.382812 2.0625 -2.25 C 1.925781 -2.125 1.859375 -1.945312 1.859375 -1.71875 C 1.859375 -1.46875 1.929688 -1.28125 2.078125 -1.15625 C 2.222656 -1.03125 2.425781 -0.96875 2.6875 -0.96875 Z M 2.6875 -0.96875 "/></g></g></g><g fill="#000000" fill-opacity="1"><g transform="translate(129.625308, 10.887099)"><g><path d="M 3.953125 -1.359375 L 4.328125 -0.296875 C 4.171875 -0.171875 3.972656 -0.0703125 3.734375 0 C 3.503906 0.0703125 3.238281 0.109375 2.9375 0.109375 C 2.320312 0.109375 1.851562 -0.0546875 1.53125 -0.390625 C 1.207031 -0.734375 1.046875 -1.226562 1.046875 -1.875 L 1.046875 -4.59375 L 0.171875 -4.59375 L 0.171875 -5.734375 L 1.046875 -5.734375 L 1.046875 -6.859375 L 2.484375 -7.09375 L 2.484375 -5.734375 L 4.109375 -5.734375 L 4.109375 -4.59375 L 2.484375 -4.59375 L 2.484375 -1.96875 C 2.484375 -1.6875 2.539062 -1.476562 2.65625 -1.34375 C 2.78125 -1.21875 2.953125 -1.15625 3.171875 -1.15625 C 3.429688 -1.15625 3.65625 -1.222656 3.84375 -1.359375 Z M 3.953125 -1.359375 "/></g></g></g><g fill="#000000" fill-opacity="1"><g transform="translate(134.076687, 10.887099)"><g><path d="M 5.65625 -2.546875 L 1.984375 -2.546875 C 2.023438 -2.046875 2.164062 -1.679688 2.40625 -1.453125 C 2.644531 -1.222656 2.972656 -1.109375 3.390625 -1.109375 C 3.722656 -1.109375 3.988281 -1.171875 4.1875 -1.296875 C 4.394531 -1.421875 4.5625 -1.609375 4.6875 -1.859375 L 4.796875 -1.859375 L 5.75 -1.234375 C 5.5625 -0.835938 5.28125 -0.515625 4.90625 -0.265625 C 4.53125 -0.015625 4.023438 0.109375 3.390625 0.109375 C 2.804688 0.109375 2.296875 0 1.859375 -0.21875 C 1.429688 -0.445312 1.097656 -0.785156 0.859375 -1.234375 C 0.628906 -1.679688 0.515625 -2.222656 0.515625 -2.859375 C 0.515625 -3.515625 0.632812 -4.066406 0.875 -4.515625 C 1.125 -4.960938 1.457031 -5.296875 1.875 -5.515625 C 2.300781 -5.734375 2.773438 -5.84375 3.296875 -5.84375 C 4.109375 -5.84375 4.726562 -5.625 5.15625 -5.1875 C 5.582031 -4.757812 5.796875 -4.128906 5.796875 -3.296875 C 5.796875 -3.003906 5.785156 -2.773438 5.765625 -2.609375 Z M 4.421875 -3.46875 C 4.410156 -3.90625 4.3125 -4.222656 4.125 -4.421875 C 3.9375 -4.617188 3.660156 -4.71875 3.296875 -4.71875 C 2.566406 -4.71875 2.140625 -4.300781 2.015625 -3.46875 Z M 4.421875 -3.46875 "/></g></g></g><g fill="#000000" fill-opacity="1"><g transform="translate(140.304462, 10.887099)"><g/></g></g><g fill="#000000" fill-opacity="1"><g transform="translate(142.813232, 10.887099)"><g><path d="M 3.359375 0.109375 C 2.835938 0.109375 2.367188 0.046875 1.953125 -0.078125 C 1.546875 -0.210938 1.207031 -0.382812 0.9375 -0.59375 C 0.664062 -0.8125 0.457031 -1.046875 0.3125 -1.296875 L 1.125 -2.296875 L 1.265625 -2.296875 C 1.492188 -1.960938 1.78125 -1.691406 2.125 -1.484375 C 2.476562 -1.285156 2.890625 -1.1875 3.359375 -1.1875 C 3.765625 -1.1875 4.066406 -1.269531 4.265625 -1.4375 C 4.472656 -1.613281 4.578125 -1.847656 4.578125 -2.140625 C 4.578125 -2.328125 4.546875 -2.476562 4.484375 -2.59375 C 4.421875 -2.71875 4.3125 -2.820312 4.15625 -2.90625 C 4 -3 3.789062 -3.078125 3.53125 -3.140625 L 2.5625 -3.359375 C 1.875 -3.515625 1.363281 -3.769531 1.03125 -4.125 C 0.695312 -4.488281 0.53125 -4.960938 0.53125 -5.546875 C 0.53125 -5.972656 0.632812 -6.347656 0.84375 -6.671875 C 1.0625 -7.003906 1.375 -7.257812 1.78125 -7.4375 C 2.195312 -7.613281 2.691406 -7.703125 3.265625 -7.703125 C 3.847656 -7.703125 4.347656 -7.625 4.765625 -7.46875 C 5.179688 -7.320312 5.535156 -7.085938 5.828125 -6.765625 L 5.09375 -5.75 L 4.953125 -5.75 C 4.742188 -5.96875 4.5 -6.132812 4.21875 -6.25 C 3.9375 -6.363281 3.617188 -6.421875 3.265625 -6.421875 C 2.859375 -6.421875 2.546875 -6.347656 2.328125 -6.203125 C 2.109375 -6.054688 2 -5.851562 2 -5.59375 C 2 -5.363281 2.070312 -5.175781 2.21875 -5.03125 C 2.375 -4.882812 2.640625 -4.773438 3.015625 -4.703125 L 4.015625 -4.484375 C 4.753906 -4.328125 5.285156 -4.0625 5.609375 -3.6875 C 5.941406 -3.320312 6.109375 -2.835938 6.109375 -2.234375 C 6.109375 -1.765625 6.003906 -1.351562 5.796875 -1 C 5.597656 -0.644531 5.289062 -0.367188 4.875 -0.171875 C 4.46875 0.015625 3.960938 0.109375 3.359375 0.109375 Z M 3.359375 0.109375 "/></g></g></g><g fill="#000000" fill-opacity="1"><g transform="translate(149.337073, 10.887099)"><g><path d="M 3.71875 -7.59375 C 4.945312 -7.59375 5.882812 -7.273438 6.53125 -6.640625 C 7.1875 -6.003906 7.515625 -5.054688 7.515625 -3.796875 C 7.515625 -2.546875 7.1875 -1.597656 6.53125 -0.953125 C 5.882812 -0.316406 4.945312 0 3.71875 0 L 0.984375 0 L 0.984375 -7.59375 Z M 3.625 -1.265625 C 4.414062 -1.265625 5.003906 -1.460938 5.390625 -1.859375 C 5.773438 -2.265625 5.96875 -2.910156 5.96875 -3.796875 C 5.96875 -4.691406 5.773438 -5.335938 5.390625 -5.734375 C 5.003906 -6.128906 4.414062 -6.328125 3.625 -6.328125 L 2.484375 -6.328125 L 2.484375 -1.265625 Z M 3.625 -1.265625 "/></g></g></g><g fill="#000000" fill-opacity="1"><g transform="translate(157.455515, 10.887099)"><g><path d="M 0.984375 0 L 0.984375 -7.59375 L 2.484375 -7.59375 L 2.484375 -4.5 L 2.65625 -4.5 L 5.1875 -7.59375 L 6.734375 -7.59375 L 6.734375 -7.46875 L 3.9375 -4.015625 L 7.015625 -0.125 L 7.015625 0 L 5.328125 0 L 2.65625 -3.28125 L 2.484375 -3.28125 L 2.484375 0 Z M 0.984375 0 "/></g></g></g><g fill="#000000" fill-opacity="1"><g transform="translate(164.4728, 10.887099)"><g><path d="M 2.6875 0.109375 C 2.289062 0.109375 1.925781 0.0625 1.59375 -0.03125 C 1.269531 -0.125 0.992188 -0.25 0.765625 -0.40625 C 0.535156 -0.570312 0.367188 -0.757812 0.265625 -0.96875 L 1.0625 -1.828125 L 1.171875 -1.828125 C 1.359375 -1.566406 1.582031 -1.375 1.84375 -1.25 C 2.101562 -1.125 2.382812 -1.0625 2.6875 -1.0625 C 2.96875 -1.0625 3.175781 -1.109375 3.3125 -1.203125 C 3.457031 -1.304688 3.53125 -1.453125 3.53125 -1.640625 C 3.53125 -1.785156 3.476562 -1.90625 3.375 -2 C 3.28125 -2.101562 3.117188 -2.179688 2.890625 -2.234375 L 2.125 -2.421875 C 1.5625 -2.554688 1.148438 -2.757812 0.890625 -3.03125 C 0.628906 -3.3125 0.5 -3.664062 0.5 -4.09375 C 0.5 -4.457031 0.585938 -4.769531 0.765625 -5.03125 C 0.953125 -5.289062 1.207031 -5.488281 1.53125 -5.625 C 1.863281 -5.769531 2.25 -5.84375 2.6875 -5.84375 C 3.207031 -5.84375 3.632812 -5.765625 3.96875 -5.609375 C 4.3125 -5.460938 4.578125 -5.265625 4.765625 -5.015625 L 4 -4.1875 L 3.890625 -4.1875 C 3.734375 -4.363281 3.554688 -4.492188 3.359375 -4.578125 C 3.160156 -4.660156 2.9375 -4.703125 2.6875 -4.703125 C 2.125 -4.703125 1.84375 -4.523438 1.84375 -4.171875 C 1.84375 -4.023438 1.894531 -3.90625 2 -3.8125 C 2.101562 -3.71875 2.289062 -3.640625 2.5625 -3.578125 L 3.265625 -3.421875 C 3.847656 -3.296875 4.269531 -3.097656 4.53125 -2.828125 C 4.800781 -2.554688 4.9375 -2.1875 4.9375 -1.71875 C 4.9375 -1.351562 4.847656 -1.03125 4.671875 -0.75 C 4.492188 -0.476562 4.234375 -0.265625 3.890625 -0.109375 C 3.546875 0.0351562 3.144531 0.109375 2.6875 0.109375 Z M 2.6875 0.109375 "/></g></g></g><g fill="#000000" fill-opacity="1"><g transform="translate(169.755241, 10.887099)"><g/></g></g><g fill="#000000" fill-opacity="1"><g transform="translate(172.264011, 10.887099)"><g><path d="M 3.109375 0.109375 C 2.554688 0.109375 2.070312 0.015625 1.65625 -0.171875 C 1.25 -0.359375 0.929688 -0.625 0.703125 -0.96875 C 0.484375 -1.320312 0.375 -1.726562 0.375 -2.1875 C 0.375 -2.6875 0.5 -3.101562 0.75 -3.4375 C 1 -3.769531 1.375 -4.039062 1.875 -4.25 L 1.890625 -4.359375 C 1.660156 -4.640625 1.492188 -4.894531 1.390625 -5.125 C 1.285156 -5.363281 1.234375 -5.628906 1.234375 -5.921875 C 1.234375 -6.265625 1.316406 -6.570312 1.484375 -6.84375 C 1.648438 -7.113281 1.890625 -7.320312 2.203125 -7.46875 C 2.523438 -7.625 2.90625 -7.703125 3.34375 -7.703125 C 3.757812 -7.703125 4.113281 -7.632812 4.40625 -7.5 C 4.707031 -7.363281 4.9375 -7.171875 5.09375 -6.921875 C 5.25 -6.671875 5.328125 -6.382812 5.328125 -6.0625 C 5.328125 -5.632812 5.195312 -5.257812 4.9375 -4.9375 C 4.675781 -4.625 4.273438 -4.363281 3.734375 -4.15625 L 3.71875 -4.046875 L 5.125 -2.1875 C 5.207031 -2.363281 5.265625 -2.566406 5.296875 -2.796875 C 5.328125 -3.035156 5.34375 -3.300781 5.34375 -3.59375 L 5.34375 -3.859375 L 6.5625 -3.859375 C 6.5625 -2.796875 6.351562 -1.9375 5.9375 -1.28125 C 6.019531 -1.207031 6.09375 -1.15625 6.15625 -1.125 C 6.21875 -1.101562 6.289062 -1.09375 6.375 -1.09375 C 6.445312 -1.09375 6.503906 -1.09375 6.546875 -1.09375 C 6.585938 -1.101562 6.640625 -1.117188 6.703125 -1.140625 L 6.78125 -1.109375 L 6.953125 -0.078125 C 6.890625 -0.0234375 6.796875 0.0078125 6.671875 0.03125 C 6.554688 0.0507812 6.421875 0.0625 6.265625 0.0625 C 6.015625 0.0625 5.789062 0.0195312 5.59375 -0.0625 C 5.40625 -0.144531 5.226562 -0.269531 5.0625 -0.4375 L 4.953125 -0.4375 C 4.515625 -0.0703125 3.898438 0.109375 3.109375 0.109375 Z M 3.109375 -4.875 C 3.421875 -5.03125 3.648438 -5.1875 3.796875 -5.34375 C 3.941406 -5.507812 4.015625 -5.71875 4.015625 -5.96875 C 4.015625 -6.1875 3.953125 -6.351562 3.828125 -6.46875 C 3.703125 -6.582031 3.535156 -6.640625 3.328125 -6.640625 C 3.117188 -6.640625 2.945312 -6.578125 2.8125 -6.453125 C 2.6875 -6.328125 2.625 -6.15625 2.625 -5.9375 C 2.625 -5.769531 2.65625 -5.613281 2.71875 -5.46875 C 2.789062 -5.320312 2.921875 -5.125 3.109375 -4.875 Z M 3.28125 -1.125 C 3.613281 -1.125 3.898438 -1.1875 4.140625 -1.3125 L 2.453125 -3.46875 C 2.253906 -3.332031 2.101562 -3.175781 2 -3 C 1.90625 -2.820312 1.859375 -2.613281 1.859375 -2.375 C 1.859375 -2.125 1.914062 -1.90625 2.03125 -1.71875 C 2.15625 -1.53125 2.320312 -1.382812 2.53125 -1.28125 C 2.75 -1.175781 3 -1.125 3.28125 -1.125 Z M 3.28125 -1.125 "/></g></g></g><g fill="#000000" fill-opacity="1"><g transform="translate(179.359208, 10.887099)"><g/></g></g><g fill="#000000" fill-opacity="1"><g transform="translate(181.867978, 10.887099)"><g><path d="M 3.71875 -7.59375 C 4.945312 -7.59375 5.882812 -7.273438 6.53125 -6.640625 C 7.1875 -6.003906 7.515625 -5.054688 7.515625 -3.796875 C 7.515625 -2.546875 7.1875 -1.597656 6.53125 -0.953125 C 5.882812 -0.316406 4.945312 0 3.71875 0 L 0.984375 0 L 0.984375 -7.59375 Z M 3.625 -1.265625 C 4.414062 -1.265625 5.003906 -1.460938 5.390625 -1.859375 C 5.773438 -2.265625 5.96875 -2.910156 5.96875 -3.796875 C 5.96875 -4.691406 5.773438 -5.335938 5.390625 -5.734375 C 5.003906 -6.128906 4.414062 -6.328125 3.625 -6.328125 L 2.484375 -6.328125 L 2.484375 -1.265625 Z M 3.625 -1.265625 "/></g></g></g><g fill="#000000" fill-opacity="1"><g transform="translate(189.98642, 10.887099)"><g><path d="M 3.328125 0.109375 C 2.765625 0.109375 2.269531 -0.00390625 1.84375 -0.234375 C 1.425781 -0.460938 1.097656 -0.800781 0.859375 -1.25 C 0.628906 -1.695312 0.515625 -2.234375 0.515625 -2.859375 C 0.515625 -3.492188 0.628906 -4.035156 0.859375 -4.484375 C 1.097656 -4.929688 1.425781 -5.269531 1.84375 -5.5 C 2.269531 -5.726562 2.765625 -5.84375 3.328125 -5.84375 C 3.890625 -5.84375 4.378906 -5.726562 4.796875 -5.5 C 5.222656 -5.269531 5.554688 -4.929688 5.796875 -4.484375 C 6.035156 -4.035156 6.15625 -3.492188 6.15625 -2.859375 C 6.15625 -2.234375 6.035156 -1.695312 5.796875 -1.25 C 5.554688 -0.800781 5.222656 -0.460938 4.796875 -0.234375 C 4.378906 -0.00390625 3.890625 0.109375 3.328125 0.109375 Z M 3.328125 -1.109375 C 4.222656 -1.109375 4.671875 -1.691406 4.671875 -2.859375 C 4.671875 -3.460938 4.554688 -3.90625 4.328125 -4.1875 C 4.097656 -4.476562 3.765625 -4.625 3.328125 -4.625 C 2.441406 -4.625 2 -4.035156 2 -2.859375 C 2 -1.691406 2.441406 -1.109375 3.328125 -1.109375 Z M 3.328125 -1.109375 "/></g></g></g><g fill="#000000" fill-opacity="1"><g transform="translate(196.645309, 10.887099)"><g><path d="M 3.34375 0.109375 C 2.789062 0.109375 2.300781 -0.00390625 1.875 -0.234375 C 1.445312 -0.460938 1.113281 -0.800781 0.875 -1.25 C 0.632812 -1.695312 0.515625 -2.234375 0.515625 -2.859375 C 0.515625 -3.492188 0.632812 -4.035156 0.875 -4.484375 C 1.113281 -4.929688 1.441406 -5.269531 1.859375 -5.5 C 2.285156 -5.726562 2.769531 -5.84375 3.3125 -5.84375 C 4.519531 -5.84375 5.296875 -5.40625 5.640625 -4.53125 L 4.65625 -3.8125 L 4.546875 -3.8125 C 4.421875 -4.082031 4.265625 -4.285156 4.078125 -4.421875 C 3.890625 -4.554688 3.632812 -4.625 3.3125 -4.625 C 2.894531 -4.625 2.570312 -4.476562 2.34375 -4.1875 C 2.113281 -3.894531 2 -3.453125 2 -2.859375 C 2 -2.273438 2.113281 -1.835938 2.34375 -1.546875 C 2.582031 -1.253906 2.914062 -1.109375 3.34375 -1.109375 C 3.65625 -1.109375 3.914062 -1.191406 4.125 -1.359375 C 4.34375 -1.523438 4.5 -1.769531 4.59375 -2.09375 L 4.703125 -2.09375 L 5.734375 -1.53125 C 5.585938 -1.050781 5.316406 -0.65625 4.921875 -0.34375 C 4.523438 -0.0390625 4 0.109375 3.34375 0.109375 Z M 3.34375 0.109375 "/></g></g></g><g fill="#000000" fill-opacity="1"><g transform="translate(202.551047, 10.887099)"><g><path d="M 2.6875 0.109375 C 2.289062 0.109375 1.925781 0.0625 1.59375 -0.03125 C 1.269531 -0.125 0.992188 -0.25 0.765625 -0.40625 C 0.535156 -0.570312 0.367188 -0.757812 0.265625 -0.96875 L 1.0625 -1.828125 L 1.171875 -1.828125 C 1.359375 -1.566406 1.582031 -1.375 1.84375 -1.25 C 2.101562 -1.125 2.382812 -1.0625 2.6875 -1.0625 C 2.96875 -1.0625 3.175781 -1.109375 3.3125 -1.203125 C 3.457031 -1.304688 3.53125 -1.453125 3.53125 -1.640625 C 3.53125 -1.785156 3.476562 -1.90625 3.375 -2 C 3.28125 -2.101562 3.117188 -2.179688 2.890625 -2.234375 L 2.125 -2.421875 C 1.5625 -2.554688 1.148438 -2.757812 0.890625 -3.03125 C 0.628906 -3.3125 0.5 -3.664062 0.5 -4.09375 C 0.5 -4.457031 0.585938 -4.769531 0.765625 -5.03125 C 0.953125 -5.289062 1.207031 -5.488281 1.53125 -5.625 C 1.863281 -5.769531 2.25 -5.84375 2.6875 -5.84375 C 3.207031 -5.84375 3.632812 -5.765625 3.96875 -5.609375 C 4.3125 -5.460938 4.578125 -5.265625 4.765625 -5.015625 L 4 -4.1875 L 3.890625 -4.1875 C 3.734375 -4.363281 3.554688 -4.492188 3.359375 -4.578125 C 3.160156 -4.660156 2.9375 -4.703125 2.6875 -4.703125 C 2.125 -4.703125 1.84375 -4.523438 1.84375 -4.171875 C 1.84375 -4.023438 1.894531 -3.90625 2 -3.8125 C 2.101562 -3.71875 2.289062 -3.640625 2.5625 -3.578125 L 3.265625 -3.421875 C 3.847656 -3.296875 4.269531 -3.097656 4.53125 -2.828125 C 4.800781 -2.554688 4.9375 -2.1875 4.9375 -1.71875 C 4.9375 -1.351562 4.847656 -1.03125 4.671875 -0.75 C 4.492188 -0.476562 4.234375 -0.265625 3.890625 -0.109375 C 3.546875 0.0351562 3.144531 0.109375 2.6875 0.109375 Z M 2.6875 0.109375 "/></g></g></g><g fill="#000000" fill-opacity="1"><g transform="translate(99.89729, 25.403228)"><g><path d="M 1 0 L 1 -4.59375 L 0.1875 -4.59375 L 0.1875 -5.734375 L 1 -5.734375 C 0.945312 -5.972656 0.921875 -6.203125 0.921875 -6.421875 C 0.921875 -6.785156 1 -7.09375 1.15625 -7.34375 C 1.320312 -7.601562 1.5625 -7.800781 1.875 -7.9375 C 2.1875 -8.070312 2.5625 -8.140625 3 -8.140625 C 3.625 -8.140625 4.09375 -8.03125 4.40625 -7.8125 L 4.078125 -6.75 L 3.96875 -6.734375 C 3.75 -6.890625 3.472656 -6.96875 3.140625 -6.96875 C 2.878906 -6.96875 2.679688 -6.898438 2.546875 -6.765625 C 2.421875 -6.640625 2.359375 -6.46875 2.359375 -6.25 C 2.359375 -6.15625 2.363281 -6.066406 2.375 -5.984375 C 2.382812 -5.910156 2.40625 -5.828125 2.4375 -5.734375 L 4.078125 -5.734375 L 4.078125 -4.59375 L 2.4375 -4.59375 L 2.4375 0 Z M 1 0 "/></g></g></g><g fill="#000000" fill-opacity="1"><g transform="translate(104.031826, 25.403228)"><g><path d="M 0.828125 0 L 0.828125 -5.734375 L 2.21875 -5.734375 L 2.21875 -4.875 L 2.328125 -4.859375 C 2.472656 -5.171875 2.65625 -5.398438 2.875 -5.546875 C 3.101562 -5.703125 3.378906 -5.78125 3.703125 -5.78125 C 4.023438 -5.78125 4.269531 -5.722656 4.4375 -5.609375 L 4.203125 -4.375 L 4.09375 -4.359375 C 4 -4.390625 3.90625 -4.414062 3.8125 -4.4375 C 3.726562 -4.457031 3.625 -4.46875 3.5 -4.46875 C 3.101562 -4.46875 2.796875 -4.320312 2.578125 -4.03125 C 2.367188 -3.75 2.265625 -3.300781 2.265625 -2.6875 L 2.265625 0 Z M 0.828125 0 "/></g></g></g><g fill="#000000" fill-opacity="1"><g transform="translate(108.524758, 25.403228)"><g><path d="M 3.328125 0.109375 C 2.765625 0.109375 2.269531 -0.00390625 1.84375 -0.234375 C 1.425781 -0.460938 1.097656 -0.800781 0.859375 -1.25 C 0.628906 -1.695312 0.515625 -2.234375 0.515625 -2.859375 C 0.515625 -3.492188 0.628906 -4.035156 0.859375 -4.484375 C 1.097656 -4.929688 1.425781 -5.269531 1.84375 -5.5 C 2.269531 -5.726562 2.765625 -5.84375 3.328125 -5.84375 C 3.890625 -5.84375 4.378906 -5.726562 4.796875 -5.5 C 5.222656 -5.269531 5.554688 -4.929688 5.796875 -4.484375 C 6.035156 -4.035156 6.15625 -3.492188 6.15625 -2.859375 C 6.15625 -2.234375 6.035156 -1.695312 5.796875 -1.25 C 5.554688 -0.800781 5.222656 -0.460938 4.796875 -0.234375 C 4.378906 -0.00390625 3.890625 0.109375 3.328125 0.109375 Z M 3.328125 -1.109375 C 4.222656 -1.109375 4.671875 -1.691406 4.671875 -2.859375 C 4.671875 -3.460938 4.554688 -3.90625 4.328125 -4.1875 C 4.097656 -4.476562 3.765625 -4.625 3.328125 -4.625 C 2.441406 -4.625 2 -4.035156 2 -2.859375 C 2 -1.691406 2.441406 -1.109375 3.328125 -1.109375 Z M 3.328125 -1.109375 "/></g></g></g><g fill="#000000" fill-opacity="1"><g transform="translate(115.183647, 25.403228)"><g><path d="M 0.828125 0 L 0.828125 -5.734375 L 2.203125 -5.734375 L 2.203125 -4.96875 L 2.3125 -4.9375 C 2.5 -5.25 2.71875 -5.476562 2.96875 -5.625 C 3.21875 -5.769531 3.539062 -5.84375 3.9375 -5.84375 C 4.375 -5.84375 4.722656 -5.753906 4.984375 -5.578125 C 5.242188 -5.410156 5.4375 -5.160156 5.5625 -4.828125 L 5.671875 -4.828125 C 5.847656 -5.171875 6.070312 -5.425781 6.34375 -5.59375 C 6.625 -5.757812 6.972656 -5.84375 7.390625 -5.84375 C 8.578125 -5.84375 9.171875 -5.179688 9.171875 -3.859375 L 9.171875 0 L 7.734375 0 L 7.734375 -3.671875 C 7.734375 -4.003906 7.664062 -4.242188 7.53125 -4.390625 C 7.40625 -4.546875 7.195312 -4.625 6.90625 -4.625 C 6.113281 -4.625 5.71875 -4.097656 5.71875 -3.046875 L 5.71875 0 L 4.28125 0 L 4.28125 -3.671875 C 4.28125 -4.003906 4.210938 -4.242188 4.078125 -4.390625 C 3.941406 -4.546875 3.726562 -4.625 3.4375 -4.625 C 3.070312 -4.625 2.785156 -4.5 2.578125 -4.25 C 2.367188 -4 2.265625 -3.609375 2.265625 -3.078125 L 2.265625 0 Z M 0.828125 0 "/></g></g></g><g fill="#000000" fill-opacity="1"><g transform="translate(125.094068, 25.403228)"><g/></g></g><g fill="#000000" fill-opacity="1"><g transform="translate(127.602838, 25.403228)"><g><path d="M 1.265625 2.4375 C 1.023438 2.4375 0.800781 2.414062 0.59375 2.375 C 0.394531 2.332031 0.234375 2.28125 0.109375 2.21875 L 0.34375 1.0625 L 0.4375 1.03125 C 0.519531 1.070312 0.625 1.101562 0.75 1.125 C 0.882812 1.15625 1.019531 1.171875 1.15625 1.171875 C 1.382812 1.171875 1.578125 1.140625 1.734375 1.078125 C 1.890625 1.023438 2.019531 0.925781 2.125 0.78125 C 2.226562 0.644531 2.320312 0.453125 2.40625 0.203125 L 0.125 -5.734375 L 1.625 -5.734375 L 3.0625 -1.75 L 3.1875 -1.75 L 4.5625 -5.734375 L 6.03125 -5.734375 L 3.734375 0.359375 C 3.546875 0.847656 3.34375 1.242188 3.125 1.546875 C 2.90625 1.847656 2.644531 2.070312 2.34375 2.21875 C 2.039062 2.363281 1.679688 2.4375 1.265625 2.4375 Z M 1.265625 2.4375 "/></g></g></g><g fill="#000000" fill-opacity="1"><g transform="translate(133.752701, 25.403228)"><g><path d="M 3.328125 0.109375 C 2.765625 0.109375 2.269531 -0.00390625 1.84375 -0.234375 C 1.425781 -0.460938 1.097656 -0.800781 0.859375 -1.25 C 0.628906 -1.695312 0.515625 -2.234375 0.515625 -2.859375 C 0.515625 -3.492188 0.628906 -4.035156 0.859375 -4.484375 C 1.097656 -4.929688 1.425781 -5.269531 1.84375 -5.5 C 2.269531 -5.726562 2.765625 -5.84375 3.328125 -5.84375 C 3.890625 -5.84375 4.378906 -5.726562 4.796875 -5.5 C 5.222656 -5.269531 5.554688 -4.929688 5.796875 -4.484375 C 6.035156 -4.035156 6.15625 -3.492188 6.15625 -2.859375 C 6.15625 -2.234375 6.035156 -1.695312 5.796875 -1.25 C 5.554688 -0.800781 5.222656 -0.460938 4.796875 -0.234375 C 4.378906 -0.00390625 3.890625 0.109375 3.328125 0.109375 Z M 3.328125 -1.109375 C 4.222656 -1.109375 4.671875 -1.691406 4.671875 -2.859375 C 4.671875 -3.460938 4.554688 -3.90625 4.328125 -4.1875 C 4.097656 -4.476562 3.765625 -4.625 3.328125 -4.625 C 2.441406 -4.625 2 -4.035156 2 -2.859375 C 2 -1.691406 2.441406 -1.109375 3.328125 -1.109375 Z M 3.328125 -1.109375 "/></g></g></g><g fill="#000000" fill-opacity="1"><g transform="translate(140.41159, 25.403228)"><g><path d="M 2.625 0.109375 C 1.976562 0.109375 1.5 -0.0664062 1.1875 -0.421875 C 0.882812 -0.773438 0.734375 -1.28125 0.734375 -1.9375 L 0.734375 -5.734375 L 2.171875 -5.734375 L 2.171875 -2.109375 C 2.171875 -1.765625 2.242188 -1.507812 2.390625 -1.34375 C 2.546875 -1.1875 2.785156 -1.109375 3.109375 -1.109375 C 3.503906 -1.109375 3.8125 -1.238281 4.03125 -1.5 C 4.25 -1.757812 4.359375 -2.171875 4.359375 -2.734375 L 4.359375 -5.734375 L 5.796875 -5.734375 L 5.796875 0 L 4.421875 0 L 4.421875 -0.84375 L 4.3125 -0.875 C 4.125 -0.539062 3.894531 -0.289062 3.625 -0.125 C 3.363281 0.03125 3.03125 0.109375 2.625 0.109375 Z M 2.625 0.109375 "/></g></g></g><g fill="#000000" fill-opacity="1"><g transform="translate(147.039314, 25.403228)"><g><path d="M 0.828125 0 L 0.828125 -5.734375 L 2.21875 -5.734375 L 2.21875 -4.875 L 2.328125 -4.859375 C 2.472656 -5.171875 2.65625 -5.398438 2.875 -5.546875 C 3.101562 -5.703125 3.378906 -5.78125 3.703125 -5.78125 C 4.023438 -5.78125 4.269531 -5.722656 4.4375 -5.609375 L 4.203125 -4.375 L 4.09375 -4.359375 C 4 -4.390625 3.90625 -4.414062 3.8125 -4.4375 C 3.726562 -4.457031 3.625 -4.46875 3.5 -4.46875 C 3.101562 -4.46875 2.796875 -4.320312 2.578125 -4.03125 C 2.367188 -3.75 2.265625 -3.300781 2.265625 -2.6875 L 2.265625 0 Z M 0.828125 0 "/></g></g></g><g fill="#000000" fill-opacity="1"><g transform="translate(151.532245, 25.403228)"><g/></g></g><g fill="#000000" fill-opacity="1"><g transform="translate(154.041016, 25.403228)"><g><path d="M 4.140625 0.109375 C 3.441406 0.109375 2.828125 -0.03125 2.296875 -0.3125 C 1.765625 -0.601562 1.347656 -1.039062 1.046875 -1.625 C 0.742188 -2.207031 0.59375 -2.929688 0.59375 -3.796875 C 0.59375 -4.671875 0.742188 -5.398438 1.046875 -5.984375 C 1.347656 -6.566406 1.765625 -7 2.296875 -7.28125 C 2.828125 -7.5625 3.441406 -7.703125 4.140625 -7.703125 C 4.835938 -7.703125 5.453125 -7.5625 5.984375 -7.28125 C 6.515625 -7 6.925781 -6.566406 7.21875 -5.984375 C 7.519531 -5.398438 7.671875 -4.671875 7.671875 -3.796875 C 7.671875 -2.929688 7.519531 -2.203125 7.21875 -1.609375 C 6.925781 -1.023438 6.515625 -0.59375 5.984375 -0.3125 C 5.453125 -0.03125 4.835938 0.109375 4.140625 0.109375 Z M 4.140625 -1.1875 C 4.785156 -1.1875 5.273438 -1.394531 5.609375 -1.8125 C 5.953125 -2.226562 6.125 -2.890625 6.125 -3.796875 C 6.125 -4.703125 5.953125 -5.363281 5.609375 -5.78125 C 5.273438 -6.195312 4.785156 -6.40625 4.140625 -6.40625 C 3.492188 -6.40625 3 -6.195312 2.65625 -5.78125 C 2.3125 -5.363281 2.140625 -4.703125 2.140625 -3.796875 C 2.140625 -2.890625 2.3125 -2.226562 2.65625 -1.8125 C 3 -1.394531 3.492188 -1.1875 4.140625 -1.1875 Z M 4.140625 -1.1875 "/></g></g></g><g fill="#000000" fill-opacity="1"><g transform="translate(162.315282, 25.403228)"><g><path d="M 0.828125 2.328125 L 0.828125 -5.734375 L 2.265625 -5.734375 L 2.265625 -4.984375 L 2.375 -4.96875 C 2.539062 -5.25 2.765625 -5.460938 3.046875 -5.609375 C 3.335938 -5.765625 3.671875 -5.84375 4.046875 -5.84375 C 4.515625 -5.84375 4.921875 -5.734375 5.265625 -5.515625 C 5.609375 -5.296875 5.875 -4.960938 6.0625 -4.515625 C 6.257812 -4.066406 6.359375 -3.515625 6.359375 -2.859375 C 6.359375 -2.203125 6.253906 -1.648438 6.046875 -1.203125 C 5.847656 -0.765625 5.566406 -0.4375 5.203125 -0.21875 C 4.847656 0 4.429688 0.109375 3.953125 0.109375 C 3.597656 0.109375 3.289062 0.0507812 3.03125 -0.0625 C 2.769531 -0.1875 2.550781 -0.375 2.375 -0.625 L 2.265625 -0.609375 L 2.265625 2.328125 Z M 3.5625 -1.109375 C 3.988281 -1.109375 4.3125 -1.25 4.53125 -1.53125 C 4.757812 -1.8125 4.875 -2.253906 4.875 -2.859375 C 4.875 -3.460938 4.757812 -3.90625 4.53125 -4.1875 C 4.3125 -4.476562 3.988281 -4.625 3.5625 -4.625 C 3.15625 -4.625 2.832031 -4.476562 2.59375 -4.1875 C 2.363281 -3.894531 2.25 -3.453125 2.25 -2.859375 C 2.25 -2.273438 2.363281 -1.835938 2.59375 -1.546875 C 2.832031 -1.253906 3.15625 -1.109375 3.5625 -1.109375 Z M 3.5625 -1.109375 "/></g></g></g><g fill="#000000" fill-opacity="1"><g transform="translate(169.176742, 25.403228)"><g><path d="M 5.65625 -2.546875 L 1.984375 -2.546875 C 2.023438 -2.046875 2.164062 -1.679688 2.40625 -1.453125 C 2.644531 -1.222656 2.972656 -1.109375 3.390625 -1.109375 C 3.722656 -1.109375 3.988281 -1.171875 4.1875 -1.296875 C 4.394531 -1.421875 4.5625 -1.609375 4.6875 -1.859375 L 4.796875 -1.859375 L 5.75 -1.234375 C 5.5625 -0.835938 5.28125 -0.515625 4.90625 -0.265625 C 4.53125 -0.015625 4.023438 0.109375 3.390625 0.109375 C 2.804688 0.109375 2.296875 0 1.859375 -0.21875 C 1.429688 -0.445312 1.097656 -0.785156 0.859375 -1.234375 C 0.628906 -1.679688 0.515625 -2.222656 0.515625 -2.859375 C 0.515625 -3.515625 0.632812 -4.066406 0.875 -4.515625 C 1.125 -4.960938 1.457031 -5.296875 1.875 -5.515625 C 2.300781 -5.734375 2.773438 -5.84375 3.296875 -5.84375 C 4.109375 -5.84375 4.726562 -5.625 5.15625 -5.1875 C 5.582031 -4.757812 5.796875 -4.128906 5.796875 -3.296875 C 5.796875 -3.003906 5.785156 -2.773438 5.765625 -2.609375 Z M 4.421875 -3.46875 C 4.410156 -3.90625 4.3125 -4.222656 4.125 -4.421875 C 3.9375 -4.617188 3.660156 -4.71875 3.296875 -4.71875 C 2.566406 -4.71875 2.140625 -4.300781 2.015625 -3.46875 Z M 4.421875 -3.46875 "/></g></g></g><g fill="#000000" fill-opacity="1"><g transform="translate(175.404517, 25.403228)"><g><path d="M 0.828125 0 L 0.828125 -5.734375 L 2.203125 -5.734375 L 2.203125 -4.890625 L 2.3125 -4.859375 C 2.675781 -5.515625 3.253906 -5.84375 4.046875 -5.84375 C 4.710938 -5.84375 5.195312 -5.660156 5.5 -5.296875 C 5.8125 -4.941406 5.96875 -4.414062 5.96875 -3.71875 L 5.96875 0 L 4.53125 0 L 4.53125 -3.546875 C 4.53125 -3.929688 4.453125 -4.207031 4.296875 -4.375 C 4.148438 -4.539062 3.910156 -4.625 3.578125 -4.625 C 3.160156 -4.625 2.835938 -4.488281 2.609375 -4.21875 C 2.378906 -3.957031 2.265625 -3.539062 2.265625 -2.96875 L 2.265625 0 Z M 0.828125 0 "/></g></g></g><g fill="#000000" fill-opacity="1"><g transform="translate(182.115348, 25.403228)"><g><path d="M 7.296875 0 L 5.703125 0 L 5.140625 -1.75 L 2.234375 -1.75 L 1.65625 0 L 0.109375 0 L 2.734375 -7.59375 L 4.671875 -7.59375 Z M 3.609375 -6.015625 L 2.640625 -3.015625 L 4.71875 -3.015625 L 3.734375 -6.015625 Z M 3.609375 -6.015625 "/></g></g></g><g fill="#000000" fill-opacity="1"><g transform="translate(189.516998, 25.403228)"><g><path d="M 3.921875 -7.59375 C 4.460938 -7.59375 4.925781 -7.492188 5.3125 -7.296875 C 5.695312 -7.097656 5.988281 -6.816406 6.1875 -6.453125 C 6.382812 -6.097656 6.484375 -5.6875 6.484375 -5.21875 C 6.484375 -4.738281 6.382812 -4.316406 6.1875 -3.953125 C 5.988281 -3.597656 5.695312 -3.320312 5.3125 -3.125 C 4.925781 -2.925781 4.460938 -2.828125 3.921875 -2.828125 L 2.484375 -2.828125 L 2.484375 0 L 0.984375 0 L 0.984375 -7.59375 Z M 3.71875 -4.015625 C 4.5625 -4.015625 4.984375 -4.414062 4.984375 -5.21875 C 4.984375 -6.007812 4.5625 -6.40625 3.71875 -6.40625 L 2.484375 -6.40625 L 2.484375 -4.015625 Z M 3.71875 -4.015625 "/></g></g></g><g fill="#000000" fill-opacity="1"><g transform="translate(196.456371, 25.403228)"><g><path d="M 2.484375 0 L 0.984375 0 L 0.984375 -7.59375 L 2.484375 -7.59375 Z M 2.484375 0 "/></g></g></g><path fill="#77b255" d="M 26.832031 18.226562 C 24.703125 17.964844 23.769531 16.769531 21.898438 14.382812 C 24.289062 12.511719 25.484375 11.578125 27.609375 11.835938 C 29.742188 12.097656 31.738281 13.421875 32.542969 15.683594 C 31.21875 17.679688 28.960938 18.484375 26.832031 18.226562 Z M 22.144531 25.15625 C 20.140625 25.007812 19.210938 23.933594 17.351562 21.785156 C 19.5 19.925781 20.574219 18.996094 22.582031 19.140625 C 24.585938 19.285156 26.519531 20.433594 27.375 22.511719 C 26.226562 24.441406 24.152344 25.300781 22.144531 25.15625 Z M 17.253906 12.804688 C 18.304688 14.089844 18.191406 15.257812 17.960938 17.59375 C 15.625 17.363281 14.457031 17.246094 13.402344 15.964844 C 12.351562 14.679688 11.941406 12.871094 12.699219 11.175781 C 14.507812 10.765625 16.203125 11.523438 17.253906 12.804688 Z M 33.859375 8.523438 C 31.941406 9.324219 30.585938 8.769531 27.871094 7.660156 C 28.980469 4.945312 29.535156 3.585938 31.449219 2.78125 C 33.363281 1.980469 35.675781 2.132812 37.433594 3.644531 C 37.28125 5.957031 35.769531 7.71875 33.859375 8.523438 Z M 23.832031 5.726562 C 24.519531 7.984375 23.734375 9.457031 22.164062 12.402344 C 19.21875 10.832031 17.746094 10.046875 17.058594 7.792969 C 16.371094 5.535156 16.8125 2.933594 18.722656 1.117188 C 21.324219 1.558594 23.144531 3.46875 23.832031 5.726562 Z M 23.832031 5.726562 " fill-opacity="1" fill-rule="nonzero"/><path fill="#a6d388" d="M 17.058594 7.792969 C 17.738281 10.015625 19.183594 10.8125 22.042969 12.335938 L 22.042969 12.332031 C 21.988281 10.351562 19.894531 3.78125 18.6875 1.15625 C 16.808594 2.972656 16.375 5.550781 17.058594 7.792969 Z M 12.664062 11.273438 C 11.960938 12.9375 12.371094 14.703125 13.402344 15.964844 C 14.457031 17.246094 15.625 17.363281 17.960938 17.59375 C 17.175781 16.070312 14.097656 12.570312 12.664062 11.273438 Z M 12.664062 11.273438 " fill-opacity="1" fill-rule="nonzero"/><path fill="#5c913b" d="M 27.609375 11.835938 C 25.597656 11.59375 24.40625 12.425781 22.257812 14.101562 C 23.632812 14.183594 29.167969 14.6875 32.527344 15.703125 C 32.53125 15.695312 32.539062 15.691406 32.542969 15.683594 C 31.738281 13.421875 29.742188 12.097656 27.609375 11.835938 Z M 27.371094 22.503906 C 26.515625 20.429688 24.585938 19.285156 22.582031 19.140625 C 20.613281 19 19.539062 19.894531 17.472656 21.679688 C 19.648438 21.441406 23.6875 20.996094 27.371094 22.503906 Z M 27.371094 22.503906 " fill-opacity="1" fill-rule="nonzero"/><path fill="#a6d388" d="M 28.011719 7.71875 C 30.628906 8.785156 31.976562 9.308594 33.855469 8.523438 C 35.757812 7.722656 37.261719 5.976562 37.429688 3.679688 C 34.34375 4.277344 29.257812 6.941406 28.011719 7.71875 Z M 28.011719 7.71875 " fill-opacity="1" fill-rule="nonzero"/><g clip-path="url(#16c6c08de4)"><path fill="#a06253" d="M 14.121094 28.101562 C 13.660156 28.027344 13.046875 27.445312 13.117188 26.988281 C 13.546875 24.1875 15.367188 17.417969 27.503906 7.523438 C 27.867188 7.226562 28.273438 7.003906 28.578125 7.355469 C 28.886719 7.707031 28.539062 8.101562 28.1875 8.410156 C 17.738281 17.507812 15.988281 24.710938 15.589844 27.332031 C 15.515625 27.789062 14.578125 28.167969 14.121094 28.101562 Z M 14.121094 28.101562 " fill-opacity="1" fill-rule="nonzero"/></g><g fill="#000000" fill-opacity="1"><g transform="translate(39.401535, 19.959679)"><g><path d="M 8.453125 -11.046875 L 8.453125 -9.21875 L 3.625 -9.21875 L 3.625 -6.296875 L 8 -6.296875 L 8 -4.484375 L 3.625 -4.484375 L 3.625 0 L 1.4375 0 L 1.4375 -11.046875 Z M 8.453125 -11.046875 "/></g></g></g><g fill="#000000" fill-opacity="1"><g transform="translate(48.335845, 19.959679)"><g><path d="M 8.234375 -3.703125 L 2.875 -3.703125 C 2.9375 -2.972656 3.144531 -2.441406 3.5 -2.109375 C 3.851562 -1.785156 4.332031 -1.625 4.9375 -1.625 C 5.414062 -1.625 5.804688 -1.710938 6.109375 -1.890625 C 6.410156 -2.066406 6.648438 -2.335938 6.828125 -2.703125 L 6.984375 -2.703125 L 8.375 -1.8125 C 8.101562 -1.226562 7.691406 -0.753906 7.140625 -0.390625 C 6.597656 -0.0234375 5.863281 0.15625 4.9375 0.15625 C 4.082031 0.15625 3.335938 -0.00390625 2.703125 -0.328125 C 2.078125 -0.660156 1.59375 -1.148438 1.25 -1.796875 C 0.914062 -2.441406 0.75 -3.234375 0.75 -4.171875 C 0.75 -5.117188 0.925781 -5.914062 1.28125 -6.5625 C 1.644531 -7.207031 2.128906 -7.691406 2.734375 -8.015625 C 3.347656 -8.335938 4.035156 -8.5 4.796875 -8.5 C 5.972656 -8.5 6.875 -8.1875 7.5 -7.5625 C 8.132812 -6.9375 8.453125 -6.019531 8.453125 -4.8125 C 8.453125 -4.375 8.4375 -4.03125 8.40625 -3.78125 Z M 6.4375 -5.046875 C 6.414062 -5.679688 6.269531 -6.144531 6 -6.4375 C 5.726562 -6.726562 5.328125 -6.875 4.796875 -6.875 C 3.734375 -6.875 3.109375 -6.265625 2.921875 -5.046875 Z M 6.4375 -5.046875 "/></g></g></g><g fill="#000000" fill-opacity="1"><g transform="translate(57.398657, 19.959679)"><g><path d="M 1.203125 0 L 1.203125 -8.34375 L 3.234375 -8.34375 L 3.234375 -7.09375 L 3.390625 -7.0625 C 3.597656 -7.53125 3.863281 -7.875 4.1875 -8.09375 C 4.519531 -8.3125 4.921875 -8.421875 5.390625 -8.421875 C 5.859375 -8.421875 6.21875 -8.335938 6.46875 -8.171875 L 6.109375 -6.359375 L 5.953125 -6.328125 C 5.816406 -6.390625 5.6875 -6.429688 5.5625 -6.453125 C 5.4375 -6.484375 5.28125 -6.5 5.09375 -6.5 C 4.507812 -6.5 4.0625 -6.289062 3.75 -5.875 C 3.445312 -5.46875 3.296875 -4.8125 3.296875 -3.90625 L 3.296875 0 Z M 1.203125 0 "/></g></g></g><g fill="#000000" fill-opacity="1"><g transform="translate(63.936885, 19.959679)"><g><path d="M 1.203125 0 L 1.203125 -8.34375 L 3.21875 -8.34375 L 3.21875 -7.109375 L 3.375 -7.078125 C 3.894531 -8.023438 4.734375 -8.5 5.890625 -8.5 C 6.859375 -8.5 7.566406 -8.234375 8.015625 -7.703125 C 8.460938 -7.179688 8.6875 -6.421875 8.6875 -5.421875 L 8.6875 0 L 6.59375 0 L 6.59375 -5.15625 C 6.59375 -5.71875 6.484375 -6.117188 6.265625 -6.359375 C 6.046875 -6.609375 5.691406 -6.734375 5.203125 -6.734375 C 4.597656 -6.734375 4.128906 -6.535156 3.796875 -6.140625 C 3.460938 -5.753906 3.296875 -5.144531 3.296875 -4.3125 L 3.296875 0 Z M 1.203125 0 "/></g></g></g></svg>
