<?xml version="1.0" encoding="UTF-8" standalone="no"?>
<svg
   xmlns:dc="http://purl.org/dc/elements/1.1/"
   xmlns:cc="http://creativecommons.org/ns#"
   xmlns:rdf="http://www.w3.org/1999/02/22-rdf-syntax-ns#"
   xmlns:svg="http://www.w3.org/2000/svg"
   xmlns="http://www.w3.org/2000/svg"
   width="240"
   height="100"
   viewBox="0 0 240 100"
   version="1.1"
   id="svg5">
  <metadata
     id="metadata44">
    <rdf:RDF>
      <cc:Work
         rdf:about="">
        <dc:format>image/svg+xml</dc:format>
        <dc:type
           rdf:resource="http://purl.org/dc/dcmitype/StillImage" />
        <dc:title></dc:title>
      </cc:Work>
    </rdf:RDF>
  </metadata>
  <defs
     id="defs2">
    <rect
       x="14.514768"
       y="110.37975"
       width="255.52743"
       height="29.367089"
       id="rect25873" />
    <style
       id="style51">.cls-1{fill:#03af9d;}.cls-2{fill:#fff;}.cls-3{fill:#2b2f55;}.cls-4,.cls-5{fill:#a0a0c0;}.cls-5{fill-opacity:0.3;}</style>
  </defs>
  <g
     id="layer1">
    <rect
       style="fill:#ffffff;stroke-width:7.0842;stop-color:#000000"
       id="rect869"
       width="240"
       height="100"
       x="0"
       y="0" />
    <g
       id="g77"
       transform="matrix(1.21,0,0,1.21,-32.437213,-33.51152)">
      <path
         class="cls-1"
         d="M 40.56,37 H 70.44 A 3.56,3.56 0 0 1 74,40.56 V 80.44 A 3.56,3.56 0 0 1 70.44,84 H 40.56 A 3.56,3.56 0 0 1 37,80.44 V 40.56 A 3.56,3.56 0 0 1 40.56,37 Z"
         id="path55" />
      <path
         class="cls-2"
         d="m 44,55.52 a 11.5,11.5 0 1 1 23,0 v 17 A 0.5,0.5 0 0 1 66.5,73.02 4.5,4.5 0 0 1 62,68.5 v -13 a 6.5,6.5 0 1 0 -13,0 v 5 a 0.49,0.49 0 0 0 0.49,0.5 h 3 A 0.5,0.5 0 0 0 53,60.5 v -4 a 2.5,2.5 0 0 1 5,0 v 20 A 0.51,0.51 0 0 1 57.48,77 4.48,4.48 0 0 1 53,72.5 v -6 A 0.51,0.51 0 0 0 52.49,66 h -3 A 0.49,0.49 0 0 0 49,66.5 v 2 A 4.5,4.5 0 0 1 44.5,73 0.5,0.5 0 0 1 44,72.5 Z"
         id="path57" />
      <path
         class="cls-2"
         d="m 98.91,48.18 a 4.9,4.9 0 0 0 -4.53,2.63 v -8.69 a 0.43,0.43 0 0 0 -0.46,-0.46 h -3.3 a 0.43,0.43 0 0 0 -0.46,0.46 v 21 a 0.43,0.43 0 0 0 0.46,0.46 h 3.3 a 0.43,0.43 0 0 0 0.46,-0.46 v -7.81 c 0,-2.11 1.16,-3.24 2.94,-3.24 1.78,0 2.78,1.13 2.78,3.24 v 7.77 a 0.44,0.44 0 0 0 0.46,0.46 h 3.28 a 0.46,0.46 0 0 0 0.49,-0.46 v -8.72 c 0,-3.92 -2.33,-6.18 -5.42,-6.18 z m 14.78,15.73 a 5.63,5.63 0 0 0 4.9,-2.48 l 0.06,1.65 a 0.43,0.43 0 0 0 0.46,0.46 h 3 a 0.45,0.45 0 0 0 0.49,-0.46 V 49 a 0.43,0.43 0 0 0 -0.45,-0.46 h -3 A 0.43,0.43 0 0 0 118.69,49 l -0.06,1.65 a 5.49,5.49 0 0 0 -4.9,-2.48 c -4.22,0 -7.13,3.43 -7.13,7.86 0,4.43 2.87,7.88 7.09,7.88 z m 0.89,-3.86 a 4,4 0 0 1 0,-8 3.71,3.71 0 0 1 3.79,4 3.7,3.7 0 0 1 -3.79,4 z m 17,9.3 a 0.56,0.56 0 0 0 0.55,-0.36 l 7.92,-19.92 c 0.13,-0.34 0,-0.52 -0.36,-0.52 h -3.37 a 0.56,0.56 0 0 0 -0.55,0.36 l -3.55,9.73 -3.58,-9.73 a 0.56,0.56 0 0 0 -0.55,-0.36 h -3.37 c -0.33,0 -0.49,0.18 -0.36,0.52 l 5.78,14.5 -2.14,5.26 c -0.16,0.34 0,0.52 0.36,0.52 z m 15.09,-5.44 c 3,0 5.6,-1.56 5.63,-4.59 0,-2.3 -1.47,-3.58 -3.36,-4.35 l -2.12,-0.82 c -0.82,-0.31 -1.43,-0.74 -1.43,-1.47 0,-0.73 0.45,-1.2 1.43,-1.2 a 4.3,4.3 0 0 1 2.73,1.26 c 0.27,0.21 0.49,0.24 0.7,0 l 1.35,-1.62 a 0.49,0.49 0 0 0 0,-0.65 6.44,6.44 0 0 0 -5,-2.29 c -2.78,0 -5.23,1.65 -5.23,4.53 0,2.08 1.34,3.33 3.27,4.1 l 1.9,0.76 c 1.1,0.46 1.56,0.83 1.56,1.56 0,0.73 -0.67,1.26 -1.68,1.26 a 5.7,5.7 0 0 1 -3.42,-1.47 0.47,0.47 0 0 0 -0.77,0.12 l -1.07,1.5 a 0.76,0.76 0 0 0 -0.06,0.89 7.16,7.16 0 0 0 5.62,2.48 z m 14,0 c 1,0 2.54,-0.19 2.54,-0.89 v -2.23 c 0,-0.31 -0.22,-0.46 -0.55,-0.43 -0.33,0.03 -0.68,0 -0.95,0 a 1.2,1.2 0 0 1 -1.32,-1.32 v -7.22 h 2.36 a 0.44,0.44 0 0 0 0.46,-0.46 V 49 a 0.44,0.44 0 0 0 -0.46,-0.46 h -2.36 V 45 a 0.43,0.43 0 0 0 -0.46,-0.46 H 156.6 A 0.43,0.43 0 0 0 156.14,45 v 3.52 h -1.9 a 0.43,0.43 0 0 0 -0.46,0.46 v 2.35 a 0.43,0.43 0 0 0 0.46,0.46 h 1.9 v 7.71 c 0.06,3.31 2.2,4.41 4.59,4.41 z m 11.45,0 a 5.63,5.63 0 0 0 4.9,-2.48 l 0.06,1.65 a 0.43,0.43 0 0 0 0.46,0.46 h 3 a 0.45,0.45 0 0 0 0.49,-0.46 V 49 a 0.43,0.43 0 0 0 -0.45,-0.46 h -3 A 0.43,0.43 0 0 0 177.12,49 l -0.06,1.65 a 5.48,5.48 0 0 0 -4.9,-2.48 c -4.22,0 -7.13,3.43 -7.13,7.86 0,4.43 2.97,7.88 7.15,7.88 z m 0.89,-3.86 a 4,4 0 0 1 0,-8 3.71,3.71 0 0 1 3.79,4 3.7,3.7 0 0 1 -3.73,4 z m 18.79,3.86 a 7.17,7.17 0 0 0 5.76,-2.7 0.44,0.44 0 0 0 -0.07,-0.64 l -1.83,-1.8 a 0.54,0.54 0 0 0 -0.8,0 3.85,3.85 0 0 1 -2.81,1.23 3.9,3.9 0 0 1 -4,-4 3.78,3.78 0 0 1 3.95,-3.93 3.85,3.85 0 0 1 2.94,1.25 0.56,0.56 0 0 0 0.8,0 l 1.83,-1.81 a 0.43,0.43 0 0 0 0.06,-0.64 7.19,7.19 0 0 0 -5.81,-2.69 7.63,7.63 0 0 0 -7.83,7.8 7.74,7.74 0 0 0 7.87,7.93 z m 12.5,-0.37 a 0.43,0.43 0 0 0 0.46,-0.46 V 59.9 l 1.87,-2.11 4,5.47 a 0.57,0.57 0 0 0 0.55,0.28 h 3.55 c 0.37,0 0.49,-0.24 0.27,-0.55 l -5.87,-8.11 5.08,-5.78 c 0.24,-0.31 0.15,-0.55 -0.25,-0.55 h -3.66 a 0.67,0.67 0 0 0 -0.55,0.24 l -4.93,5.81 V 42.12 a 0.43,0.43 0 0 0 -0.46,-0.46 H 201 a 0.43,0.43 0 0 0 -0.46,0.46 v 21 a 0.43,0.43 0 0 0 0.46,0.46 z"
         id="path59" />
      <path
         class="cls-3"
         d="m 98.91,48.18 a 4.9,4.9 0 0 0 -4.53,2.63 v -8.69 a 0.43,0.43 0 0 0 -0.46,-0.46 h -3.3 a 0.43,0.43 0 0 0 -0.46,0.46 v 21 a 0.43,0.43 0 0 0 0.46,0.46 h 3.3 a 0.43,0.43 0 0 0 0.46,-0.46 v -7.81 c 0,-2.11 1.16,-3.24 2.94,-3.24 1.78,0 2.78,1.13 2.78,3.24 v 7.77 a 0.44,0.44 0 0 0 0.46,0.46 h 3.28 a 0.46,0.46 0 0 0 0.49,-0.46 v -8.72 c 0,-3.92 -2.33,-6.18 -5.42,-6.18 z m 14.78,15.73 a 5.63,5.63 0 0 0 4.9,-2.48 l 0.06,1.65 a 0.43,0.43 0 0 0 0.46,0.46 h 3 a 0.45,0.45 0 0 0 0.49,-0.46 V 49 a 0.43,0.43 0 0 0 -0.45,-0.46 h -3 A 0.43,0.43 0 0 0 118.69,49 l -0.06,1.65 a 5.49,5.49 0 0 0 -4.9,-2.48 c -4.22,0 -7.13,3.43 -7.13,7.86 0,4.43 2.87,7.88 7.09,7.88 z m 0.89,-3.86 a 4,4 0 0 1 0,-8 3.71,3.71 0 0 1 3.79,4 3.7,3.7 0 0 1 -3.79,4 z m 17,9.3 a 0.56,0.56 0 0 0 0.55,-0.36 l 7.92,-19.92 c 0.13,-0.34 0,-0.52 -0.36,-0.52 h -3.37 a 0.56,0.56 0 0 0 -0.55,0.36 l -3.55,9.73 -3.58,-9.73 a 0.56,0.56 0 0 0 -0.55,-0.36 h -3.37 c -0.33,0 -0.49,0.18 -0.36,0.52 l 5.78,14.5 -2.14,5.26 c -0.16,0.34 0,0.52 0.36,0.52 z m 15.09,-5.44 c 3,0 5.6,-1.56 5.63,-4.59 0,-2.3 -1.47,-3.58 -3.36,-4.35 l -2.12,-0.82 c -0.82,-0.31 -1.43,-0.74 -1.43,-1.47 0,-0.73 0.45,-1.2 1.43,-1.2 a 4.3,4.3 0 0 1 2.73,1.26 c 0.27,0.21 0.49,0.24 0.7,0 l 1.35,-1.62 a 0.49,0.49 0 0 0 0,-0.65 6.44,6.44 0 0 0 -5,-2.29 c -2.78,0 -5.23,1.65 -5.23,4.53 0,2.08 1.34,3.33 3.27,4.1 l 1.9,0.76 c 1.1,0.46 1.56,0.83 1.56,1.56 0,0.73 -0.67,1.26 -1.68,1.26 a 5.7,5.7 0 0 1 -3.42,-1.47 0.47,0.47 0 0 0 -0.77,0.12 l -1.07,1.5 a 0.76,0.76 0 0 0 -0.06,0.89 7.16,7.16 0 0 0 5.62,2.48 z m 14,0 c 1,0 2.54,-0.19 2.54,-0.89 v -2.23 c 0,-0.31 -0.22,-0.46 -0.55,-0.43 -0.33,0.03 -0.68,0 -0.95,0 a 1.2,1.2 0 0 1 -1.32,-1.32 v -7.22 h 2.36 a 0.44,0.44 0 0 0 0.46,-0.46 V 49 a 0.44,0.44 0 0 0 -0.46,-0.46 h -2.36 V 45 a 0.43,0.43 0 0 0 -0.46,-0.46 H 156.6 A 0.43,0.43 0 0 0 156.14,45 v 3.52 h -1.9 a 0.43,0.43 0 0 0 -0.46,0.46 v 2.35 a 0.43,0.43 0 0 0 0.46,0.46 h 1.9 v 7.71 c 0.06,3.31 2.2,4.41 4.59,4.41 z m 11.45,0 a 5.63,5.63 0 0 0 4.9,-2.48 l 0.06,1.65 a 0.43,0.43 0 0 0 0.46,0.46 h 3 a 0.45,0.45 0 0 0 0.49,-0.46 V 49 a 0.43,0.43 0 0 0 -0.45,-0.46 h -3 A 0.43,0.43 0 0 0 177.12,49 l -0.06,1.65 a 5.48,5.48 0 0 0 -4.9,-2.48 c -4.22,0 -7.13,3.43 -7.13,7.86 0,4.43 2.97,7.88 7.15,7.88 z m 0.89,-3.86 a 4,4 0 0 1 0,-8 3.71,3.71 0 0 1 3.79,4 3.7,3.7 0 0 1 -3.73,4 z m 18.79,3.86 a 7.17,7.17 0 0 0 5.76,-2.7 0.44,0.44 0 0 0 -0.07,-0.64 l -1.83,-1.8 a 0.54,0.54 0 0 0 -0.8,0 3.85,3.85 0 0 1 -2.81,1.23 3.9,3.9 0 0 1 -4,-4 3.78,3.78 0 0 1 3.95,-3.93 3.85,3.85 0 0 1 2.94,1.25 0.56,0.56 0 0 0 0.8,0 l 1.83,-1.81 a 0.43,0.43 0 0 0 0.06,-0.64 7.19,7.19 0 0 0 -5.81,-2.69 7.63,7.63 0 0 0 -7.83,7.8 7.74,7.74 0 0 0 7.87,7.93 z m 12.5,-0.37 a 0.43,0.43 0 0 0 0.46,-0.46 V 59.9 l 1.87,-2.11 4,5.47 a 0.57,0.57 0 0 0 0.55,0.28 h 3.55 c 0.37,0 0.49,-0.24 0.27,-0.55 l -5.87,-8.11 5.08,-5.78 c 0.24,-0.31 0.15,-0.55 -0.25,-0.55 h -3.66 a 0.67,0.67 0 0 0 -0.55,0.24 l -4.93,5.81 V 42.12 a 0.43,0.43 0 0 0 -0.46,-0.46 H 201 a 0.43,0.43 0 0 0 -0.46,0.46 v 21 a 0.43,0.43 0 0 0 0.46,0.46 z"
         id="path61" />
      <path
         class="cls-4"
         d="m 94.88,81.26 a 3.88,3.88 0 0 0 0,-7.71 2.7,2.7 0 0 0 -2.28,1 v -4 a 0.21,0.21 0 0 0 -0.22,-0.23 h -1.64 a 0.21,0.21 0 0 0 -0.22,0.23 v 10.3 a 0.22,0.22 0 0 0 0.24,0.23 h 1.47 a 0.21,0.21 0 0 0 0.22,-0.23 v -0.81 a 2.74,2.74 0 0 0 2.43,1.22 z m -0.43,-1.89 a 2,2 0 0 1 0,-3.93 2,2 0 0 1 0,3.93 z m 7.9,4.56 a 0.27,0.27 0 0 0 0.27,-0.18 L 106.51,74 c 0.06,-0.16 0,-0.25 -0.18,-0.25 h -1.65 a 0.27,0.27 0 0 0 -0.27,0.18 l -1.74,4.77 -1.76,-4.77 a 0.27,0.27 0 0 0 -0.27,-0.18 H 99 c -0.16,0 -0.24,0.09 -0.18,0.25 l 2.84,7.11 -1.07,2.58 c -0.07,0.17 0,0.26 0.18,0.26 z M 113.9,81.26 A 2.76,2.76 0 0 0 116.3,80 v 0.81 a 0.21,0.21 0 0 0 0.22,0.23 H 118 a 0.23,0.23 0 0 0 0.24,-0.23 V 70.58 a 0.22,0.22 0 0 0 -0.23,-0.23 h -1.63 a 0.22,0.22 0 0 0 -0.23,0.23 v 4 a 2.65,2.65 0 0 0 -2.26,-1 3.87,3.87 0 0 0 0,7.71 z m 0.43,-1.89 a 2,2 0 0 1 0,-3.93 2,2 0 0 1 0,3.93 z m 9.37,1.89 a 3.61,3.61 0 0 0 2.6,-0.93 c 0.14,-0.12 0.16,-0.23 0.08,-0.33 l -0.56,-0.77 a 0.16,0.16 0 0 0 -0.25,-0.06 3.2,3.2 0 0 1 -1.71,0.45 2,2 0 0 1 -2.17,-1.44 h 4.47 c 0.64,0 0.81,-0.4 0.81,-1.12 a 3.39,3.39 0 0 0 -3.53,-3.51 3.67,3.67 0 0 0 -3.78,3.82 3.81,3.81 0 0 0 4.04,3.89 z m -2,-4.53 a 1.7,1.7 0 0 1 1.8,-1.47 1.56,1.56 0 0 1 1.66,1.47 z m 10.3,4.53 a 3.65,3.65 0 0 0 2.61,-0.93 c 0.13,-0.12 0.15,-0.23 0.07,-0.33 l -0.55,-0.77 a 0.18,0.18 0 0 0 -0.26,-0.06 3.2,3.2 0 0 1 -1.71,0.45 2,2 0 0 1 -2.16,-1.44 h 4.47 c 0.64,0 0.81,-0.4 0.81,-1.12 a 3.39,3.39 0 0 0 -3.53,-3.51 3.67,3.67 0 0 0 -3.75,3.82 3.81,3.81 0 0 0 4,3.89 z m -2,-4.53 a 1.7,1.7 0 0 1 1.8,-1.47 1.56,1.56 0 0 1 1.66,1.47 z m 8.56,7.2 a 0.21,0.21 0 0 0 0.22,-0.23 v -3.49 a 2.76,2.76 0 0 0 2.22,1.05 3.88,3.88 0 0 0 0,-7.71 2.69,2.69 0 0 0 -2.4,1.21 v -0.81 a 0.21,0.21 0 0 0 -0.22,-0.22 h -1.48 a 0.21,0.21 0 0 0 -0.22,0.22 v 9.75 a 0.21,0.21 0 0 0 0.22,0.23 z m 2.07,-4.56 a 2,2 0 0 1 0,-3.93 2,2 0 0 1 0,3.93 z m 7.68,1.89 c 1.47,0 2.75,-0.77 2.76,-2.25 a 2.22,2.22 0 0 0 -1.65,-2.13 l -1,-0.41 c -0.41,-0.15 -0.71,-0.36 -0.71,-0.72 0,-0.36 0.23,-0.58 0.71,-0.58 a 2.12,2.12 0 0 1 1.33,0.61 c 0.14,0.11 0.24,0.12 0.35,0 l 0.66,-0.79 a 0.24,0.24 0 0 0 0,-0.32 3.16,3.16 0 0 0 -2.46,-1.12 2.32,2.32 0 0 0 -2.56,2.22 2.15,2.15 0 0 0 1.6,2 l 0.93,0.37 c 0.54,0.23 0.77,0.41 0.77,0.77 0,0.36 -0.33,0.61 -0.83,0.61 a 2.76,2.76 0 0 1 -1.69,-0.72 0.23,0.23 0 0 0 -0.38,0.06 l -0.52,0.74 a 0.35,0.35 0 0 0 0,0.43 3.5,3.5 0 0 0 2.67,1.23 z m 7.82,0 a 3.63,3.63 0 0 0 2.61,-0.93 c 0.14,-0.12 0.15,-0.23 0.08,-0.33 l -0.56,-0.77 a 0.17,0.17 0 0 0 -0.25,-0.06 3.2,3.2 0 0 1 -1.71,0.45 2,2 0 0 1 -2.18,-1.44 h 4.47 c 0.65,0 0.81,-0.4 0.81,-1.12 a 3.39,3.39 0 0 0 -3.52,-3.51 3.66,3.66 0 0 0 -3.78,3.82 3.81,3.81 0 0 0 4.01,3.89 z m -2,-4.53 a 1.7,1.7 0 0 1 1.8,-1.47 1.56,1.56 0 0 1 1.67,1.47 z m 9.48,4.53 c 0.5,0 1.25,-0.09 1.25,-0.44 v -1.09 c 0,-0.15 -0.11,-0.23 -0.27,-0.21 h -0.47 a 0.58,0.58 0 0 1 -0.64,-0.64 v -3.55 h 1.15 a 0.21,0.21 0 0 0 0.23,-0.22 V 74 a 0.21,0.21 0 0 0 -0.23,-0.22 h -1.15 V 72 a 0.21,0.21 0 0 0 -0.23,-0.22 h -1.63 A 0.21,0.21 0 0 0 161.39,72 v 1.73 h -0.93 a 0.21,0.21 0 0 0 -0.22,0.22 v 1.16 a 0.21,0.21 0 0 0 0.22,0.22 h 0.93 v 3.78 a 2,2 0 0 0 2.16,2.15 z"
         id="path63" />
      <path
         class="cls-5"
         d="m 94.88,81.26 a 3.88,3.88 0 0 0 0,-7.71 2.7,2.7 0 0 0 -2.28,1 v -4 a 0.21,0.21 0 0 0 -0.22,-0.23 h -1.64 a 0.21,0.21 0 0 0 -0.22,0.23 v 10.3 a 0.22,0.22 0 0 0 0.24,0.23 h 1.47 a 0.21,0.21 0 0 0 0.22,-0.23 v -0.81 a 2.74,2.74 0 0 0 2.43,1.22 z m -0.43,-1.89 a 2,2 0 0 1 0,-3.93 2,2 0 0 1 0,3.93 z m 7.9,4.56 a 0.27,0.27 0 0 0 0.27,-0.18 L 106.51,74 c 0.06,-0.16 0,-0.25 -0.18,-0.25 h -1.65 a 0.27,0.27 0 0 0 -0.27,0.18 l -1.74,4.77 -1.76,-4.77 a 0.27,0.27 0 0 0 -0.27,-0.18 H 99 c -0.16,0 -0.24,0.09 -0.18,0.25 l 2.84,7.11 -1.07,2.58 c -0.07,0.17 0,0.26 0.18,0.26 z M 113.9,81.26 A 2.76,2.76 0 0 0 116.3,80 v 0.81 a 0.21,0.21 0 0 0 0.22,0.23 H 118 a 0.23,0.23 0 0 0 0.24,-0.23 V 70.58 a 0.22,0.22 0 0 0 -0.23,-0.23 h -1.63 a 0.22,0.22 0 0 0 -0.23,0.23 v 4 a 2.65,2.65 0 0 0 -2.26,-1 3.87,3.87 0 0 0 0,7.71 z m 0.43,-1.89 a 2,2 0 0 1 0,-3.93 2,2 0 0 1 0,3.93 z m 9.37,1.89 a 3.61,3.61 0 0 0 2.6,-0.93 c 0.14,-0.12 0.16,-0.23 0.08,-0.33 l -0.56,-0.77 a 0.16,0.16 0 0 0 -0.25,-0.06 3.2,3.2 0 0 1 -1.71,0.45 2,2 0 0 1 -2.17,-1.44 h 4.47 c 0.64,0 0.81,-0.4 0.81,-1.12 a 3.39,3.39 0 0 0 -3.53,-3.51 3.67,3.67 0 0 0 -3.78,3.82 3.81,3.81 0 0 0 4.04,3.89 z m -2,-4.53 a 1.7,1.7 0 0 1 1.8,-1.47 1.56,1.56 0 0 1 1.66,1.47 z m 10.3,4.53 a 3.65,3.65 0 0 0 2.61,-0.93 c 0.13,-0.12 0.15,-0.23 0.07,-0.33 l -0.55,-0.77 a 0.18,0.18 0 0 0 -0.26,-0.06 3.2,3.2 0 0 1 -1.71,0.45 2,2 0 0 1 -2.16,-1.44 h 4.47 c 0.64,0 0.81,-0.4 0.81,-1.12 a 3.39,3.39 0 0 0 -3.53,-3.51 3.67,3.67 0 0 0 -3.75,3.82 3.81,3.81 0 0 0 4,3.89 z m -2,-4.53 a 1.7,1.7 0 0 1 1.8,-1.47 1.56,1.56 0 0 1 1.66,1.47 z m 8.56,7.2 a 0.21,0.21 0 0 0 0.22,-0.23 v -3.49 a 2.76,2.76 0 0 0 2.22,1.05 3.88,3.88 0 0 0 0,-7.71 2.69,2.69 0 0 0 -2.4,1.21 v -0.81 a 0.21,0.21 0 0 0 -0.22,-0.22 h -1.48 a 0.21,0.21 0 0 0 -0.22,0.22 v 9.75 a 0.21,0.21 0 0 0 0.22,0.23 z m 2.07,-4.56 a 2,2 0 0 1 0,-3.93 2,2 0 0 1 0,3.93 z m 7.68,1.89 c 1.47,0 2.75,-0.77 2.76,-2.25 a 2.22,2.22 0 0 0 -1.65,-2.13 l -1,-0.41 c -0.41,-0.15 -0.71,-0.36 -0.71,-0.72 0,-0.36 0.23,-0.58 0.71,-0.58 a 2.12,2.12 0 0 1 1.33,0.61 c 0.14,0.11 0.24,0.12 0.35,0 l 0.66,-0.79 a 0.24,0.24 0 0 0 0,-0.32 3.16,3.16 0 0 0 -2.46,-1.12 2.32,2.32 0 0 0 -2.56,2.22 2.15,2.15 0 0 0 1.6,2 l 0.93,0.37 c 0.54,0.23 0.77,0.41 0.77,0.77 0,0.36 -0.33,0.61 -0.83,0.61 a 2.76,2.76 0 0 1 -1.69,-0.72 0.23,0.23 0 0 0 -0.38,0.06 l -0.52,0.74 a 0.35,0.35 0 0 0 0,0.43 3.5,3.5 0 0 0 2.67,1.23 z m 7.82,0 a 3.63,3.63 0 0 0 2.61,-0.93 c 0.14,-0.12 0.15,-0.23 0.08,-0.33 l -0.56,-0.77 a 0.17,0.17 0 0 0 -0.25,-0.06 3.2,3.2 0 0 1 -1.71,0.45 2,2 0 0 1 -2.18,-1.44 h 4.47 c 0.65,0 0.81,-0.4 0.81,-1.12 a 3.39,3.39 0 0 0 -3.52,-3.51 3.66,3.66 0 0 0 -3.78,3.82 3.81,3.81 0 0 0 4.01,3.89 z m -2,-4.53 a 1.7,1.7 0 0 1 1.8,-1.47 1.56,1.56 0 0 1 1.67,1.47 z m 9.48,4.53 c 0.5,0 1.25,-0.09 1.25,-0.44 v -1.09 c 0,-0.15 -0.11,-0.23 -0.27,-0.21 h -0.47 a 0.58,0.58 0 0 1 -0.64,-0.64 v -3.55 h 1.15 a 0.21,0.21 0 0 0 0.23,-0.22 V 74 a 0.21,0.21 0 0 0 -0.23,-0.22 h -1.15 V 72 a 0.21,0.21 0 0 0 -0.23,-0.22 h -1.63 A 0.21,0.21 0 0 0 161.39,72 v 1.73 h -0.93 a 0.21,0.21 0 0 0 -0.22,0.22 v 1.16 a 0.21,0.21 0 0 0 0.22,0.22 h 0.93 v 3.78 a 2,2 0 0 0 2.16,2.15 z"
         id="path65" />
    </g>
    <g
       aria-label="Smarter search with NLP + FastAPI"
       transform="translate(-3.3488372,-37.07907)"
       id="text25871"
       style="font-size:14px;line-height:1.25;white-space:pre;shape-inside:url(#rect25873);fill:#2b2f55">
      <path
         d="m 18.379625,123.61004 c 1.666,0 3.276,-0.91 3.276,-2.884 0,-1.652 -1.12,-2.31 -2.184,-2.814 l -1.008,-0.462 c -0.756,-0.35 -1.148,-0.574 -1.148,-1.148 0,-0.588 0.448,-0.938 1.162,-0.938 0.616,0 1.106,0.266 1.708,0.798 0.112,0.084 0.224,0.056 0.308,-0.056 l 0.798,-0.966 c 0.084,-0.112 0.084,-0.224 -0.014,-0.322 -0.77,-0.826 -1.708,-1.288 -2.87,-1.288 -1.666,0 -3.024,0.98 -3.024,2.758 0,1.456 0.924,2.198 1.96,2.674 l 1.19,0.56 c 0.686,0.308 1.176,0.546 1.176,1.204 0,0.7 -0.546,1.05 -1.372,1.05 -0.798,0 -1.358,-0.336 -1.974,-0.966 -0.112,-0.098 -0.224,-0.084 -0.322,0.028 l -0.812,0.938 c -0.098,0.112 -0.098,0.21 -0.028,0.308 0.574,0.784 1.652,1.526 3.178,1.526 z"
         style="font-weight:bold;font-family:'Greycliff CF';-inkscape-font-specification:'Greycliff CF Bold'"
         id="path58197" />
      <path
         d="m 24.82925,123.44204 c 0.126,0 0.21,-0.084 0.21,-0.21 v -3.598 c 0,-0.938 0.42,-1.442 1.148,-1.442 0.742,0 1.092,0.504 1.092,1.442 v 3.598 c 0,0.126 0.084,0.21 0.224,0.21 h 1.498 c 0.126,0 0.21,-0.084 0.21,-0.21 v -3.598 c 0,-0.938 0.42,-1.442 1.148,-1.442 0.756,0 1.092,0.504 1.092,1.442 v 3.598 c 0,0.126 0.084,0.21 0.21,0.21 h 1.512 c 0.126,0 0.21,-0.084 0.21,-0.21 v -4.018 c 0,-1.792 -0.896,-2.8 -2.366,-2.8 -1.064,0 -1.736,0.518 -2.114,1.218 -0.378,-0.798 -1.064,-1.218 -1.946,-1.218 -0.938,0 -1.554,0.476 -1.932,1.12 l -0.042,-0.728 c 0,-0.168 -0.084,-0.224 -0.21,-0.224 h -1.456 c -0.126,0 -0.21,0.084 -0.21,0.21 v 6.44 c 0,0.126 0.084,0.21 0.21,0.21 z"
         style="font-weight:bold;font-family:'Greycliff CF';-inkscape-font-specification:'Greycliff CF Bold'"
         id="path58199" />
      <path
         d="m 37.941125,123.61004 c 1.022,0 1.764,-0.434 2.24,-1.134 l 0.028,0.756 c 0,0.126 0.084,0.21 0.21,0.21 h 1.358 c 0.126,0 0.224,-0.084 0.224,-0.21 v -6.44 c 0,-0.126 -0.084,-0.21 -0.21,-0.21 h -1.372 c -0.126,0 -0.21,0.084 -0.21,0.21 l -0.028,0.756 c -0.462,-0.714 -1.204,-1.134 -2.24,-1.134 -1.932,0 -3.262,1.568 -3.262,3.598 0,2.044 1.33,3.598 3.262,3.598 z m 0.406,-1.764 c -1.022,0 -1.778,-0.728 -1.778,-1.834 0,-1.092 0.756,-1.834 1.778,-1.834 1.022,0 1.736,0.728 1.736,1.834 0,1.106 -0.714,1.834 -1.736,1.834 z"
         style="font-weight:bold;font-family:'Greycliff CF';-inkscape-font-specification:'Greycliff CF Bold'"
         id="path58201" />
      <path
         d="m 45.39175,123.44204 c 0.126,0 0.21,-0.084 0.21,-0.21 v -3.43 c 0,-0.98 0.504,-1.638 1.456,-1.638 0.196,0 0.35,0.028 0.504,0.07 0.182,0.042 0.28,0 0.28,-0.168 v -1.204 c 0,-0.126 -0.028,-0.21 -0.126,-0.28 -0.112,-0.084 -0.308,-0.168 -0.63,-0.168 -0.812,0 -1.246,0.546 -1.484,1.274 l -0.056,-0.882 c 0,-0.168 -0.084,-0.224 -0.21,-0.224 h -1.456 c -0.126,0 -0.21,0.084 -0.21,0.21 v 6.44 c 0,0.126 0.084,0.21 0.21,0.21 z"
         style="font-weight:bold;font-family:'Greycliff CF';-inkscape-font-specification:'Greycliff CF Bold'"
         id="path58203" />
      <path
         d="m 51.950531,123.61004 c 0.462,0 1.162,-0.084 1.162,-0.406 v -1.022 c 0,-0.14 -0.098,-0.21 -0.252,-0.196 -0.168,0.014 -0.308,0.014 -0.434,0.014 -0.364,0 -0.602,-0.196 -0.602,-0.602 v -3.318 h 1.078 c 0.126,0 0.21,-0.084 0.21,-0.21 v -1.078 c 0,-0.126 -0.084,-0.21 -0.21,-0.21 h -1.078 v -1.61 c 0,-0.126 -0.084,-0.21 -0.21,-0.21 h -1.526 c -0.126,0 -0.21,0.084 -0.21,0.21 v 1.61 h -0.868 c -0.126,0 -0.21,0.084 -0.21,0.21 v 1.078 c 0,0.126 0.084,0.21 0.21,0.21 h 0.868 v 3.528 c 0,1.498 0.98,2.002 2.072,2.002 z"
         style="font-weight:bold;font-family:'Greycliff CF';-inkscape-font-specification:'Greycliff CF Bold'"
         id="path58205" />
      <path
         d="m 57.667781,123.61004 c 0.966,0 1.848,-0.28 2.436,-0.868 0.126,-0.112 0.14,-0.21 0.07,-0.308 l -0.518,-0.714 c -0.07,-0.098 -0.14,-0.112 -0.238,-0.056 -0.56,0.322 -1.064,0.42 -1.596,0.42 -1.106,0 -1.82,-0.476 -2.03,-1.344 h 4.172 c 0.602,0 0.756,-0.378 0.756,-1.05 0,-1.736 -1.204,-3.276 -3.29,-3.276 -2.114,0 -3.528,1.554 -3.528,3.57 0,2.072 1.512,3.626 3.766,3.626 z m -1.904,-4.228 c 0.168,-0.91 0.826,-1.372 1.68,-1.372 0.826,0 1.442,0.462 1.554,1.372 z"
         style="font-weight:bold;font-family:'Greycliff CF';-inkscape-font-specification:'Greycliff CF Bold'"
         id="path58207" />
      <path
         d="m 63.739406,123.44204 c 0.126,0 0.21,-0.084 0.21,-0.21 v -3.43 c 0,-0.98 0.504,-1.638 1.456,-1.638 0.196,0 0.35,0.028 0.504,0.07 0.182,0.042 0.28,0 0.28,-0.168 v -1.204 c 0,-0.126 -0.028,-0.21 -0.126,-0.28 -0.112,-0.084 -0.308,-0.168 -0.63,-0.168 -0.812,0 -1.246,0.546 -1.484,1.274 l -0.056,-0.882 c 0,-0.168 -0.084,-0.224 -0.21,-0.224 h -1.456 c -0.126,0 -0.21,0.084 -0.21,0.21 v 6.44 c 0,0.126 0.084,0.21 0.21,0.21 z"
         style="font-weight:bold;font-family:'Greycliff CF';-inkscape-font-specification:'Greycliff CF Bold'"
         id="path58209" />
      <path
         d="m 72.367125,123.61004 c 1.372,0 2.562,-0.714 2.576,-2.1 0.014,-1.05 -0.672,-1.638 -1.54,-1.988 l -0.966,-0.378 c -0.378,-0.14 -0.658,-0.336 -0.658,-0.672 0,-0.294 0.21,-0.546 0.658,-0.546 0.406,0 0.798,0.196 1.246,0.574 0.126,0.098 0.224,0.112 0.322,0 l 0.616,-0.742 c 0.07,-0.084 0.098,-0.196 0.014,-0.294 -0.574,-0.686 -1.4,-1.05 -2.296,-1.05 -1.274,0 -2.394,0.756 -2.394,2.072 0,0.952 0.616,1.526 1.498,1.876 l 0.868,0.35 c 0.504,0.21 0.714,0.378 0.714,0.714 0,0.392 -0.308,0.574 -0.77,0.574 -0.532,0 -1.008,-0.238 -1.582,-0.672 -0.112,-0.084 -0.238,-0.112 -0.35,0.056 l -0.49,0.686 c -0.098,0.154 -0.112,0.308 -0.028,0.406 0.546,0.644 1.414,1.134 2.562,1.134 z"
         style="font-weight:bold;font-family:'Greycliff CF';-inkscape-font-specification:'Greycliff CF Bold'"
         id="path58211" />
      <path
         d="m 79.652156,123.61004 c 0.966,0 1.848,-0.28 2.436,-0.868 0.126,-0.112 0.14,-0.21 0.07,-0.308 l -0.518,-0.714 c -0.07,-0.098 -0.14,-0.112 -0.238,-0.056 -0.56,0.322 -1.064,0.42 -1.596,0.42 -1.106,0 -1.82,-0.476 -2.03,-1.344 h 4.172 c 0.602,0 0.756,-0.378 0.756,-1.05 0,-1.736 -1.204,-3.276 -3.29,-3.276 -2.114,0 -3.528,1.554 -3.528,3.57 0,2.072 1.512,3.626 3.766,3.626 z m -1.904,-4.228 c 0.168,-0.91 0.826,-1.372 1.68,-1.372 0.826,0 1.442,0.462 1.554,1.372 z"
         style="font-weight:bold;font-family:'Greycliff CF';-inkscape-font-specification:'Greycliff CF Bold'"
         id="path58213" />
      <path
         d="m 86.913781,123.61004 c 1.022,0 1.764,-0.434 2.24,-1.134 l 0.028,0.756 c 0,0.126 0.084,0.21 0.21,0.21 h 1.358 c 0.126,0 0.224,-0.084 0.224,-0.21 v -6.44 c 0,-0.126 -0.084,-0.21 -0.21,-0.21 h -1.372 c -0.126,0 -0.21,0.084 -0.21,0.21 l -0.028,0.756 c -0.462,-0.714 -1.204,-1.134 -2.24,-1.134 -1.932,0 -3.262,1.568 -3.262,3.598 0,2.044 1.33,3.598 3.262,3.598 z m 0.406,-1.764 c -1.022,0 -1.778,-0.728 -1.778,-1.834 0,-1.092 0.756,-1.834 1.778,-1.834 1.022,0 1.736,0.728 1.736,1.834 0,1.106 -0.714,1.834 -1.736,1.834 z"
         style="font-weight:bold;font-family:'Greycliff CF';-inkscape-font-specification:'Greycliff CF Bold'"
         id="path58215" />
      <path
         d="m 94.364406,123.44204 c 0.126,0 0.21,-0.084 0.21,-0.21 v -3.43 c 0,-0.98 0.504,-1.638 1.456,-1.638 0.196,0 0.35,0.028 0.504,0.07 0.182,0.042 0.28,0 0.28,-0.168 v -1.204 c 0,-0.126 -0.028,-0.21 -0.126,-0.28 -0.112,-0.084 -0.308,-0.168 -0.63,-0.168 -0.812,0 -1.246,0.546 -1.484,1.274 l -0.056,-0.882 c 0,-0.168 -0.084,-0.224 -0.21,-0.224 h -1.456 c -0.126,0 -0.21,0.084 -0.21,0.21 v 6.44 c 0,0.126 0.084,0.21 0.21,0.21 z"
         style="font-weight:bold;font-family:'Greycliff CF';-inkscape-font-specification:'Greycliff CF Bold'"
         id="path58217" />
      <path
         d="m 101.14106,123.61004 c 1.106,0 2.044,-0.476 2.632,-1.232 0.084,-0.098 0.056,-0.21 -0.028,-0.294 l -0.84,-0.826 c -0.112,-0.112 -0.266,-0.098 -0.364,0 -0.378,0.378 -0.784,0.574 -1.316,0.574 -1.134,0 -1.847998,-0.84 -1.847998,-1.848 0,-1.008 0.713998,-1.792 1.805998,-1.792 0.56,0 0.966,0.196 1.344,0.574 0.098,0.098 0.252,0.112 0.364,0 l 0.84,-0.826 c 0.084,-0.084 0.112,-0.196 0.028,-0.294 -0.588,-0.756 -1.526,-1.232 -2.66,-1.232 -2.057998,0 -3.583998,1.54 -3.583998,3.57 0,2.058 1.540001,3.626 3.625998,3.626 z"
         style="font-weight:bold;font-family:'Greycliff CF';-inkscape-font-specification:'Greycliff CF Bold'"
         id="path58219" />
      <path
         d="m 109.1425,116.41404 c -1.022,0 -1.68,0.504 -2.072,1.204 v -3.976 c 0,-0.126 -0.084,-0.21 -0.21,-0.21 h -1.512 c -0.126,0 -0.21,0.084 -0.21,0.21 v 9.59 c 0,0.126 0.084,0.21 0.21,0.21 h 1.512 c 0.126,0 0.21,-0.084 0.21,-0.21 v -3.556 c 0,-0.966 0.532,-1.484 1.344,-1.484 0.826,0 1.274,0.518 1.274,1.484 v 3.556 c 0,0.126 0.084,0.21 0.21,0.21 h 1.498 c 0.126,0 0.224,-0.084 0.224,-0.21 v -3.99 c 0,-1.792 -1.05,-2.828 -2.478,-2.828 z"
         style="font-weight:bold;font-family:'Greycliff CF';-inkscape-font-specification:'Greycliff CF Bold'"
         id="path58221" />
      <path
         d="m 119.54997,123.44204 c 0.112,0 0.21,-0.056 0.252,-0.168 l 1.526,-4.452 1.54,4.452 c 0.042,0.112 0.14,0.168 0.252,0.168 h 1.554 c 0.112,0 0.21,-0.056 0.252,-0.168 l 2.142,-6.454 c 0.056,-0.154 -0.014,-0.238 -0.168,-0.238 h -1.456 c -0.112,0 -0.224,0.056 -0.266,0.168 l -1.372,4.452 -1.484,-4.452 c -0.042,-0.112 -0.14,-0.168 -0.252,-0.168 h -1.47 c -0.112,0 -0.21,0.056 -0.252,0.168 l -1.498,4.452 -1.372,-4.452 c -0.042,-0.112 -0.14,-0.168 -0.252,-0.168 h -1.47 c -0.154,0 -0.224,0.084 -0.168,0.238 l 2.156,6.454 c 0.042,0.112 0.14,0.168 0.252,0.168 z"
         style="font-weight:bold;font-family:'Greycliff CF';-inkscape-font-specification:'Greycliff CF Bold'"
         id="path58223" />
      <path
         d="m 129.32,115.36404 c 0.616,0 1.064,-0.476 1.064,-1.078 0,-0.588 -0.448,-1.064 -1.064,-1.064 -0.616,0 -1.078,0.476 -1.078,1.064 0,0.602 0.462,1.078 1.078,1.078 z m 0.756,8.078 c 0.126,0 0.21,-0.084 0.21,-0.21 v -6.44 c 0,-0.126 -0.084,-0.21 -0.21,-0.21 h -1.526 c -0.126,0 -0.21,0.084 -0.21,0.21 v 6.44 c 0,0.126 0.084,0.21 0.21,0.21 z"
         style="font-weight:bold;font-family:'Greycliff CF';-inkscape-font-specification:'Greycliff CF Bold'"
         id="path58225" />
      <path
         d="m 134.556,123.61004 c 0.462,0 1.162,-0.084 1.162,-0.406 v -1.022 c 0,-0.14 -0.098,-0.21 -0.252,-0.196 -0.168,0.014 -0.308,0.014 -0.434,0.014 -0.364,0 -0.602,-0.196 -0.602,-0.602 v -3.318 h 1.078 c 0.126,0 0.21,-0.084 0.21,-0.21 v -1.078 c 0,-0.126 -0.084,-0.21 -0.21,-0.21 h -1.078 v -1.61 c 0,-0.126 -0.084,-0.21 -0.21,-0.21 h -1.526 c -0.126,0 -0.21,0.084 -0.21,0.21 v 1.61 h -0.868 c -0.126,0 -0.21,0.084 -0.21,0.21 v 1.078 c 0,0.126 0.084,0.21 0.21,0.21 h 0.868 v 3.528 c 0,1.498 0.98,2.002 2.072,2.002 z"
         style="font-weight:bold;font-family:'Greycliff CF';-inkscape-font-specification:'Greycliff CF Bold'"
         id="path58227" />
      <path
         d="m 140.94328,116.41404 c -1.022,0 -1.68,0.504 -2.072,1.204 v -3.976 c 0,-0.126 -0.084,-0.21 -0.21,-0.21 h -1.512 c -0.126,0 -0.21,0.084 -0.21,0.21 v 9.59 c 0,0.126 0.084,0.21 0.21,0.21 h 1.512 c 0.126,0 0.21,-0.084 0.21,-0.21 v -3.556 c 0,-0.966 0.532,-1.484 1.344,-1.484 0.826,0 1.274,0.518 1.274,1.484 v 3.556 c 0,0.126 0.084,0.21 0.21,0.21 h 1.498 c 0.126,0 0.224,-0.084 0.224,-0.21 v -3.99 c 0,-1.792 -1.05,-2.828 -2.478,-2.828 z"
         style="font-weight:bold;font-family:'Greycliff CF';-inkscape-font-specification:'Greycliff CF Bold'"
         id="path58229" />
      <path
         d="m 153.96875,113.64204 c -0.126,0 -0.21,0.084 -0.21,0.21 v 6.384 l -3.5,-6.454 c -0.056,-0.098 -0.14,-0.14 -0.252,-0.14 h -1.862 c -0.126,0 -0.21,0.084 -0.21,0.21 v 9.38 c 0,0.126 0.084,0.21 0.21,0.21 h 1.582 c 0.126,0 0.21,-0.084 0.21,-0.21 v -6.384 l 3.5,6.454 c 0.056,0.098 0.14,0.14 0.252,0.14 h 1.862 c 0.126,0 0.21,-0.084 0.21,-0.21 v -9.38 c 0,-0.126 -0.084,-0.21 -0.21,-0.21 z"
         style="font-weight:bold;font-family:'Greycliff CF';-inkscape-font-specification:'Greycliff CF Bold'"
         id="path58231" />
      <path
         d="m 159.69847,121.66404 v -7.812 c 0,-0.126 -0.084,-0.21 -0.21,-0.21 h -1.582 c -0.126,0 -0.21,0.084 -0.21,0.21 v 9.38 c 0,0.126 0.084,0.21 0.21,0.21 h 4.788 c 0.126,0 0.21,-0.084 0.21,-0.21 v -1.358 c 0,-0.126 -0.084,-0.21 -0.21,-0.21 z"
         style="font-weight:bold;font-family:'Greycliff CF';-inkscape-font-specification:'Greycliff CF Bold'"
         id="path58233" />
      <path
         d="m 166.21503,123.44204 c 0.126,0 0.21,-0.084 0.21,-0.21 v -3.22 h 1.162 c 2.324,0 3.444,-1.302 3.444,-3.192 0,-1.876 -1.12,-3.178 -3.444,-3.178 h -2.954 c -0.126,0 -0.21,0.084 -0.21,0.21 v 9.38 c 0,0.126 0.084,0.21 0.21,0.21 z m 0.21,-8.022 h 1.092 c 0.854,0 1.596,0.294 1.596,1.4 0,1.12 -0.742,1.414 -1.596,1.414 h -1.092 z"
         style="font-weight:bold;font-family:'Greycliff CF';-inkscape-font-specification:'Greycliff CF Bold'"
         id="path58235" />
      <path
         d="m 178.2045,121.93004 c 0.126,0 0.21,-0.084 0.21,-0.21 v -1.554 h 1.554 c 0.126,0 0.21,-0.084 0.21,-0.21 v -1.008 c 0,-0.126 -0.084,-0.21 -0.21,-0.21 h -1.554 v -1.554 c 0,-0.126 -0.084,-0.21 -0.21,-0.21 h -1.008 c -0.126,0 -0.21,0.084 -0.21,0.21 v 1.554 h -1.554 c -0.126,0 -0.21,0.084 -0.21,0.21 v 1.008 c 0,0.126 0.084,0.21 0.21,0.21 h 1.554 v 1.554 c 0,0.126 0.084,0.21 0.21,0.21 z"
         style="font-weight:bold;font-family:'Greycliff CF';-inkscape-font-specification:'Greycliff CF Bold'"
         id="path58237" />
      <path
         d="m 186.58612,123.44204 c 0.12601,0 0.21,-0.084 0.21,-0.21 v -3.934 h 2.94 c 0.126,0 0.224,-0.084 0.224,-0.21 v -1.358 c 0,-0.126 -0.098,-0.21 -0.224,-0.21 h -2.94 v -2.1 h 3.122 c 0.126,0 0.224,-0.084 0.224,-0.21 v -1.358 c 0,-0.126 -0.098,-0.21 -0.224,-0.21 h -4.914 c -0.126,0 -0.21,0.084 -0.21,0.21 v 9.38 c 0,0.126 0.084,0.21 0.21,0.21 z"
         style="font-weight:bold;font-family:'Greycliff CF';-inkscape-font-specification:'Greycliff CF Bold'"
         id="path58239" />
      <path
         d="m 194.238,123.61004 c 1.022,0 1.764,-0.434 2.24,-1.134 l 0.028,0.756 c 0,0.126 0.084,0.21 0.21,0.21 h 1.358 c 0.126,0 0.224,-0.084 0.224,-0.21 v -6.44 c 0,-0.126 -0.084,-0.21 -0.21,-0.21 h -1.372 c -0.126,0 -0.21,0.084 -0.21,0.21 l -0.028,0.756 c -0.462,-0.714 -1.204,-1.134 -2.24,-1.134 -1.932,0 -3.262,1.568 -3.262,3.598 0,2.044 1.33,3.598 3.262,3.598 z m 0.406,-1.764 c -1.022,0 -1.778,-0.728 -1.778,-1.834 0,-1.092 0.756,-1.834 1.778,-1.834 1.022,0 1.736,0.728 1.736,1.834 0,1.106 -0.714,1.834 -1.736,1.834 z"
         style="font-weight:bold;font-family:'Greycliff CF';-inkscape-font-specification:'Greycliff CF Bold'"
         id="path58241" />
      <path
         d="m 202.30462,123.61004 c 1.372,0 2.562,-0.714 2.576,-2.1 0.014,-1.05 -0.672,-1.638 -1.54,-1.988 l -0.966,-0.378 c -0.378,-0.14 -0.658,-0.336 -0.658,-0.672 0,-0.294 0.21,-0.546 0.658,-0.546 0.406,0 0.798,0.196 1.246,0.574 0.126,0.098 0.224,0.112 0.322,0 l 0.616,-0.742 c 0.07,-0.084 0.098,-0.196 0.014,-0.294 -0.574,-0.686 -1.4,-1.05 -2.296,-1.05 -1.274,0 -2.394,0.756 -2.394,2.072 0,0.952 0.616,1.526 1.498,1.876 l 0.868,0.35 c 0.504,0.21 0.714,0.378 0.714,0.714 0,0.392 -0.308,0.574 -0.77,0.574 -0.532,0 -1.008,-0.238 -1.582,-0.672 -0.112,-0.084 -0.238,-0.112 -0.35,0.056 l -0.49,0.686 c -0.098,0.154 -0.112,0.308 -0.028,0.406 0.546,0.644 1.414,1.134 2.562,1.134 z"
         style="font-weight:bold;font-family:'Greycliff CF';-inkscape-font-specification:'Greycliff CF Bold'"
         id="path58243" />
      <path
         d="m 208.71225,123.61004 c 0.462,0 1.162,-0.084 1.162,-0.406 v -1.022 c 0,-0.14 -0.098,-0.21 -0.252,-0.196 -0.168,0.014 -0.308,0.014 -0.434,0.014 -0.364,0 -0.602,-0.196 -0.602,-0.602 v -3.318 h 1.078 c 0.126,0 0.21,-0.084 0.21,-0.21 v -1.078 c 0,-0.126 -0.084,-0.21 -0.21,-0.21 h -1.078 v -1.61 c 0,-0.126 -0.084,-0.21 -0.21,-0.21 h -1.526 c -0.126,0 -0.21,0.084 -0.21,0.21 v 1.61 h -0.868 c -0.126,0 -0.21,0.084 -0.21,0.21 v 1.078 c 0,0.126 0.084,0.21 0.21,0.21 h 0.868 v 3.528 c 0,1.498 0.98,2.002 2.072,2.002 z"
         style="font-weight:bold;font-family:'Greycliff CF';-inkscape-font-specification:'Greycliff CF Bold'"
         id="path58245" />
      <path
         d="m 216.26153,113.81004 c -0.042,-0.112 -0.154,-0.168 -0.266,-0.168 h -1.694 c -0.112,0 -0.224,0.056 -0.266,0.168 l -3.276,9.394 c -0.056,0.14 0.014,0.238 0.168,0.238 h 1.652 c 0.112,0 0.196,-0.042 0.238,-0.168 l 0.476,-1.442 h 3.696 l 0.476,1.442 c 0.042,0.126 0.126,0.168 0.238,0.168 h 1.652 c 0.154,0 0.238,-0.098 0.182,-0.238 z m -1.12,2.352 1.274,3.892 h -2.548 z"
         style="font-weight:bold;font-family:'Greycliff CF';-inkscape-font-specification:'Greycliff CF Bold'"
         id="path58247" />
      <path
         d="m 222.70722,123.44204 c 0.126,0 0.21,-0.084 0.21,-0.21 v -3.22 h 1.162 c 2.324,0 3.444,-1.302 3.444,-3.192 0,-1.876 -1.12,-3.178 -3.444,-3.178 h -2.954 c -0.126,0 -0.21,0.084 -0.21,0.21 v 9.38 c 0,0.126 0.084,0.21 0.21,0.21 z m 0.21,-8.022 h 1.092 c 0.854,0 1.596,0.294 1.596,1.4 0,1.12 -0.742,1.414 -1.596,1.414 h -1.092 z"
         style="font-weight:bold;font-family:'Greycliff CF';-inkscape-font-specification:'Greycliff CF Bold'"
         id="path58249" />
      <path
         d="m 230.82831,123.44204 c 0.126,0 0.21,-0.084 0.21,-0.21 v -9.38 c 0,-0.126 -0.084,-0.21 -0.21,-0.21 h -1.582 c -0.126,0 -0.21,0.084 -0.21,0.21 v 9.38 c 0,0.126 0.084,0.21 0.21,0.21 z"
         style="font-weight:bold;font-family:'Greycliff CF';-inkscape-font-specification:'Greycliff CF Bold'"
         id="path58251" />
    </g>
  </g>
</svg>
