<?xml version="1.0" encoding="UTF-8" standalone="no"?>
<svg
   xmlns:dc="http://purl.org/dc/elements/1.1/"
   xmlns:cc="http://creativecommons.org/ns#"
   xmlns:rdf="http://www.w3.org/1999/02/22-rdf-syntax-ns#"
   xmlns:svg="http://www.w3.org/2000/svg"
   xmlns="http://www.w3.org/2000/svg"
   width="240"
   height="100"
   viewBox="0 0 63.5 26.458334"
   version="1.1"
   id="svg975">
  <defs
     id="defs969">
    <clipPath
       id="clip0">
      <rect
         width="770"
         height="222.03999"
         fill="#ffffff"
         id="rect14"
         x="0"
         y="0" />
    </clipPath>
    <clipPath
       id="clip0-7">
      <rect
         width="770"
         height="222.03999"
         fill="#ffffff"
         id="rect14-5"
         x="0"
         y="0" />
    </clipPath>
    <clipPath
       id="clip0-2">
      <rect
         width="770"
         height="222.03999"
         fill="#ffffff"
         id="rect14-0"
         x="0"
         y="0" />
    </clipPath>
    <clipPath
       id="clip0-3">
      <rect
         width="770"
         height="222.03999"
         fill="#ffffff"
         id="rect14-6"
         x="0"
         y="0" />
    </clipPath>
  </defs>
  <metadata
     id="metadata972">
    <rdf:RDF>
      <cc:Work
         rdf:about="">
        <dc:format>image/svg+xml</dc:format>
        <dc:type
           rdf:resource="http://purl.org/dc/dcmitype/StillImage" />
        <dc:title></dc:title>
      </cc:Work>
    </rdf:RDF>
  </metadata>
  <rect
     style="fill:#ffffff;fill-opacity:1;stroke-width:0.342717;stop-color:#000000"
     id="rect945"
     width="63.5"
     height="26.458334"
     x="4e-07"
     y="-1.5122477e-07" />
  <g
     id="g967"
     transform="translate(0.17210258,1.0583333)">
    <g
       id="g955"
       transform="matrix(0.65843845,0,0,0.65843845,0.27576501,1.1223943)">
      <path
         d="m 8.9812622,1.4378695 1.2474488,0.00173 7.302287,7.3022874 0.0018,1.3131081 -7.022162,7.02216 -1.7676605,-0.0025 -6.8470822,-6.847084 -0.00242,-1.7019627 7.0877822,-7.087706 z"
         fill="#d10622"
         fill-rule="evenodd"
         id="path884"
         style="fill:#b3b3b3;stroke-width:0.0383523" />
      <path
         d="m 12.889758,1.4378695 1.24741,0.00173 7.302287,7.3022874 0.0018,1.3131081 -7.022161,7.022161 -1.76766,-0.0025 -6.8470835,-6.847084 -0.00242,-1.7019627 7.0878215,-7.0877058 z"
         fill="#f7c0bd"
         fill-rule="evenodd"
         id="path895"
         style="stroke-width:0.0383523" />
      <path
         d="m 16.798207,1.4378695 1.24741,0.00173 7.302287,7.3022874 0.0018,1.3131081 -7.022162,7.022161 -1.767659,-0.0025 -6.8470836,-6.847084 -0.0024,-1.7019626 7.0877436,-7.0877059 z"
         fill="#0000ff"
         fill-rule="evenodd"
         opacity="0.8"
         id="path906"
         style="stroke-width:0.0383523" />
      <path
         d="m 20.706643,1.4378692 1.247449,0.00173 7.302287,7.3022875 0.0018,1.3131083 -7.022161,7.022161 -1.76766,-0.0025 -6.847122,-6.847084 -0.0024,-1.7019627 7.087783,-7.0877061 z"
         fill="#ffffff"
         fill-rule="evenodd"
         id="path917"
         style="fill:#e7285d;fill-opacity:1;stroke-width:0.0383523" />
    </g>
    <path
       d="m 58.713926,8.3808577 h 2.793359 l 0.084,-0.04316 c 0.04201,-0.09527 0.04201,-0.173052 0.04201,-0.216608 0,-1.168599 -0.713215,-2.120589 -1.761649,-2.120589 -1.21643,0 -2.013255,0.95199 -2.013255,2.129144 0,1.2036 0.964434,2.1991443 2.180866,2.1991443 0.629215,0 1.216431,-0.30333 1.594038,-0.5627163 v -0.909211 l -0.04201,-0.04277 c -0.419605,0.432439 -1.006435,0.692215 -1.55165,0.692215 -0.713214,0 -1.216431,-0.475995 -1.325708,-1.125434 z m -0.04667,-0.757546 c 0.124051,-0.446441 0.565828,-0.811214 1.184543,-0.811214 0.486495,0 0.928657,0.364773 0.972601,0.811214 z M 56.35728,10.328782 c 0.279997,0 0.726048,-0.118994 0.962101,-0.255108 V 9.2671277 l -0.04394,-0.04277 a 1.5905386,1.5905386 0 0 1 -0.917766,0.297497 c -0.349996,0 -0.656048,-0.254721 -0.656048,-0.934492 v -1.529096 h 1.573817 l 0.04395,-0.04277 v -0.764547 l -0.04395,-0.04239 h -1.57382 v -0.968322 l -0.04395,-0.05094 h -0.787101 l -0.04355,0.04239 v 0.976879 h -0.6996 l -0.04355,0.04277 v 0.764158 l 0.04355,0.04239 h 0.699603 v 1.571483 c 0,1.104433 0.56855,1.6994263 1.530262,1.6994263 z m -3.580069,-4.8696143 0.497773,-0.499328 v -0.08322 l -0.497773,-0.49933 h -0.08284 l -0.497769,0.499329 v 0.08322 l 0.497772,0.499328 z m -1.431873,4.7443943 0.04201,-0.04201 V 6.3127617 l -0.04201,-0.04201 h -0.754437 l -0.04238,0.04201 v 2.802693 c -0.20961,0.25122 -0.629216,0.418441 -1.048434,0.418441 -0.713214,0 -1.048434,-0.418441 -1.048434,-1.087712 v -2.133422 l -0.04201,-0.04201 h -0.755214 l -0.04161,0.04201 v 2.175421 c 0,1.128934 0.628827,1.8405923 1.887258,1.8405923 0.377218,0 0.754825,-0.125609 1.048433,-0.292829 v 0.125608 l 0.04201,0.04161 h 0.754826 z M 44.157191,5.6403867 c 0,-0.373329 0.24772,-0.62377 0.581384,-0.636603 v -0.0016 c 0.510994,0.0062 0.811992,0.302941 1.069433,0.851657 h 0.08711 l 0.6506,-0.511772 c -0.303326,-0.766816 -0.953931,-1.235422 -1.82231,-1.235422 v 0.0023 c -0.88238,0.02061 -1.564093,0.692603 -1.564093,1.532206 0,1.661704 2.646748,1.576538 2.646748,2.769636 0,0.59655 -0.390828,1.022768 -0.954711,1.022768 -0.520717,0 -0.824437,-0.298274 -1.08499,-0.852047 h -0.08672 l -0.650608,0.511383 c 0.30333,0.76727 0.954712,1.2358763 1.822315,1.2358763 1.084987,0 1.9522,-0.8524353 1.9522,-1.9179803 0,-1.959979 -2.646361,-1.917589 -2.646361,-2.770025 z m -2.629248,4.6883953 c 0.279218,0 0.725268,-0.118994 0.961323,-0.255108 V 9.2671277 l -0.04355,-0.04277 c -0.34105,0.237998 -0.673548,0.297497 -0.917766,0.297497 -0.349997,0 -0.656438,-0.254721 -0.656438,-0.934492 v -1.529096 h 1.574204 l 0.04355,-0.04277 v -0.764547 l -0.04355,-0.04239 h -1.574212 v -0.968322 l -0.04355,-0.05094 H 40.04085 l -0.04355,0.04239 v 0.976879 h -0.699992 l -0.04355,0.04277 v 0.764158 l 0.04395,0.04239 h 0.699603 v 1.571483 c 0,1.104433 0.568162,1.6994263 1.530263,1.6994263 z M 38.984247,9.0299077 c 0,-1.68776 -2.341086,-1.081878 -2.341086,-1.817648 0,-0.21622 0.21272,-0.389662 0.595772,-0.389662 0.425439,0 0.851268,0.129886 1.277097,0.432828 l 0.04277,-0.04317 v -0.865656 c -0.340654,-0.216609 -0.808872,-0.346108 -1.319865,-0.346108 -0.894436,0 -1.490206,0.51916 -1.490206,1.211764 0,1.601427 2.341085,0.995546 2.341085,1.818037 0,0.302942 -0.169943,0.475995 -0.766103,0.475995 -0.467828,0 -1.0216,-0.173053 -1.489428,-0.475995 l -0.04277,0.04317 v 0.865658 c 0.383051,0.2597753 1.0216,0.3896613 1.532206,0.3896613 1.021989,0 1.660538,-0.5627163 1.660538,-1.2988743 z m -5.63805,1.2988743 c 0.629603,0 1.216431,-0.30333 1.594038,-0.5627163 v -0.909212 l -0.04199,-0.04277 c -0.419218,0.432439 -1.006434,0.692214 -1.551651,0.692214 -0.713213,0 -1.216431,-0.475995 -1.325319,-1.125433 h 2.79297 l 0.084,-0.04316 c 0.04199,-0.09527 0.04199,-0.173053 0.04199,-0.216609 0,-1.168599 -0.712826,-2.120589 -1.761649,-2.120589 -1.21643,0 -2.013257,0.95199 -2.013257,2.129145 0,1.203599 0.964825,2.1991443 2.180868,2.1991443 z M 31.974211,7.6233117 c 0.124051,-0.446441 0.565828,-0.811214 1.184543,-0.811214 0.486106,0 0.928268,0.364773 0.972601,0.811214 z m -2.409531,2.6623043 1.600649,-3.9716793 -0.04201,-0.04277 h -0.842714 l -0.04201,0.04277 -1.095488,2.849359 -1.0951,-2.849359 -0.04238,-0.04277 h -0.842324 l -0.04238,0.04277 1.601039,3.9720693 0.04201,0.04316 h 0.758316 l 0.04238,-0.04277 z m -2.755247,-0.227498 0.04201,-0.04161 V 7.8410877 c 0,-1.129711 -0.629216,-1.840592 -1.887258,-1.840592 -0.377608,0 -0.755215,0.125227 -1.048824,0.29283 v -0.125609 l -0.04161,-0.04201 h -0.755599 l -0.04201,0.04201 v 3.8487913 l 0.04201,0.04161 h 0.755214 l 0.04161,-0.04161 V 7.2134267 c 0.209997,-0.250831 0.629215,-0.418051 1.048821,-0.418051 0.712825,0 1.048433,0.418051 1.048433,1.087322 v 2.1338103 l 0.04201,0.04161 h 0.754824 z M 21.996206,5.9604407 h 0.0019 v -1.583151 h -0.115497 l -0.693381,0.730715 v 5.1780013 l 0.04044,0.04277 h 0.725659 l 0.04045,-0.04277 V 5.9608287 Z m 30.510342,0.310329 -0.04045,0.04317 v 3.9720693 l 0.04045,0.04316 h 0.727992 l 0.04045,-0.04277 V 6.3135577 l -0.04045,-0.04277 h -0.728382 z"
       fill="#f7c0bd"
       fill-rule="evenodd"
       id="path934"
       style="fill:#e7285d;fill-opacity:1;stroke-width:0.388885" />
  </g>
  <text
     xml:space="preserve"
     style="font-style:normal;font-variant:normal;font-weight:normal;font-stretch:normal;font-size:4.23333px;line-height:1.25;font-family:Roboto, sans-serif;-inkscape-font-specification:'Roboto, sans-serif';text-align:center;letter-spacing:0px;word-spacing:0px;text-anchor:middle;stroke-width:0.116313"
     x="31.874025"
     y="21.589594"
     id="text959"><tspan
       id="tspan957"
       x="31.874023"
       y="21.589594"
       style="font-style:normal;font-variant:normal;font-weight:normal;font-stretch:normal;font-size:4.23333px;font-family:Roboto, sans-serif;-inkscape-font-specification:'Roboto, sans-serif';text-align:center;text-anchor:middle;stroke-width:0.116313">Wealthtech jobs with FastAPI</tspan></text>
</svg>
