<svg width="400" height="40" viewBox="0 0 400 40" fill="none" xmlns="http://www.w3.org/2000/svg">
<g clip-path="url(#clip0_23_117)">
<rect width="400" height="40" fill="#8A05FF"/>
<path d="M47.3359 11.6395C51.0617 11.6395 53.4838 13.7438 53.4838 17.1236C53.4838 19.5981 52.0595 21.4369 49.8264 22.2215L54.204 29.6973H50.957L46.8732 22.6037H42.3628V29.6973H39.5664V11.6395H47.3359ZM42.3587 14.1542V20.1172H47.2031C49.4241 20.1172 50.5708 18.8779 50.5708 17.1236C50.5708 15.3291 49.4281 14.1542 47.2031 14.1542H42.3587Z" fill="white"/>
<path d="M61.3177 16.6569C65.0434 16.6569 67.4656 19.4251 67.4656 22.8451C67.4656 23.2435 67.4375 23.6579 67.361 24.0683H57.447C57.5677 25.9835 59.2053 27.4884 61.4142 27.4884C63.0116 27.4884 64.287 26.8084 65.2446 25.3076L67.188 26.7199C66.0051 28.8483 63.6754 29.9669 61.4142 29.9669C57.5556 29.9669 54.7191 27.1182 54.7191 23.328C54.7191 19.5176 57.447 16.6569 61.3177 16.6569ZM64.79 22.0968C64.629 20.3022 63.1283 19.0348 61.2895 19.0348C59.3341 19.0348 57.8413 20.2982 57.5114 22.0968H64.79Z" fill="white"/>
<path d="M69.9119 29.6973V16.9224H72.5594V18.5319C72.9859 17.88 74.197 16.6569 76.4864 16.6569C79.9989 16.6569 81.8498 18.8377 81.8498 21.9398V29.6973H79.2144V22.4991C79.2144 20.3827 78.0556 19.1595 76.072 19.1595C74.1286 19.1595 72.5473 20.3827 72.5473 22.4991V29.6973H69.9119Z" fill="white"/>
<path d="M90.436 16.6569C92.6047 16.6569 94.0411 17.4535 94.9866 18.6646V10.9595H97.622V29.6973H94.9866V27.9551C94.0411 29.1662 92.6047 29.9629 90.436 29.9629C86.8027 29.9629 84.0225 27.1665 84.0225 23.2435C84.0225 19.3165 86.8027 16.6569 90.436 16.6569ZM86.6539 23.2435C86.6539 25.5973 88.2915 27.593 90.7539 27.593C93.2163 27.593 94.9705 25.5973 94.9705 23.2435C94.9705 20.8897 93.2002 19.0268 90.7539 19.0268C88.2915 19.0227 86.6539 20.8857 86.6539 23.2435Z" fill="white"/>
<path d="M106.454 16.6569C110.18 16.6569 112.602 19.4251 112.602 22.8451C112.602 23.2435 112.574 23.6579 112.497 24.0683H102.583C102.704 25.9835 104.341 27.4884 106.55 27.4884C108.148 27.4884 109.423 26.8084 110.381 25.3076L112.324 26.7199C111.141 28.8483 108.811 29.9669 106.55 29.9669C102.692 29.9669 99.8551 27.1182 99.8551 23.328C99.8511 19.5176 102.579 16.6569 106.454 16.6569ZM109.926 22.0968C109.765 20.3022 108.264 19.0348 106.426 19.0348C104.47 19.0348 102.977 20.2982 102.647 22.0968H109.926Z" fill="white"/>
<path d="M115.149 29.6973V16.9224H117.796V18.6646C118.516 17.2685 119.727 16.6569 121.124 16.6569C122.121 16.6569 122.882 16.9747 122.882 16.9747L122.604 19.3969C122.459 19.3446 121.884 19.1032 121.047 19.1032C119.635 19.1032 117.8 19.8476 117.8 22.7365V29.6973H115.149Z" fill="white"/>
<path d="M23.5327 8.00613C20.7001 7.87335 18.3182 9.91331 17.9118 12.6011C17.8957 12.7258 17.8716 12.8465 17.8515 12.9672C17.2198 16.3148 14.2786 18.8497 10.7459 18.8497C9.48655 18.8497 8.30363 18.5278 7.2736 17.9645C7.14887 17.8961 7 17.9846 7 18.1255V18.8457V29.6973H17.8475V21.5616C17.8475 20.0648 19.0626 18.8497 20.5593 18.8497H23.2712C26.3411 18.8497 28.8116 16.3028 28.6909 13.2046C28.5823 10.4163 26.321 8.13891 23.5327 8.00613Z" fill="white"/>
<rect width="255" height="40" transform="translate(150)" fill="#E6DAFF"/>
<path d="M170.555 26H165.349V12.415H170.517C174.279 12.415 176.559 14.847 176.559 19.217C176.559 23.587 174.317 26 170.555 26ZM167.439 24.195H170.422C173.576 24.195 174.393 21.839 174.393 19.217C174.393 16.595 173.576 14.22 170.422 14.22H167.439V24.195ZM186.995 20.946C186.995 21.212 186.995 21.497 186.976 21.649H179.528C179.566 23.264 180.516 24.765 182.435 24.765C184.145 24.765 184.81 23.663 184.981 23.017H186.881C186.368 24.879 184.943 26.285 182.397 26.285C179.319 26.285 177.609 24.1 177.609 21.136C177.609 18.096 179.433 16.006 182.397 16.006C185.342 16.006 186.995 17.944 186.995 20.946ZM179.528 20.186H185.057C185.057 18.666 183.993 17.526 182.34 17.526C180.782 17.526 179.642 18.59 179.528 20.186ZM193.261 16.025C195.731 16.025 197.612 17.963 197.612 21.155C197.612 24.347 195.731 26.266 193.261 26.266C191.741 26.266 190.81 25.582 190.278 24.803H190.24V29.363H188.378V16.31H190.24V17.45H190.278C190.81 16.766 191.741 16.025 193.261 16.025ZM192.957 24.727C194.781 24.727 195.655 23.055 195.655 21.155C195.655 19.255 194.781 17.583 192.957 17.583C191.285 17.583 190.259 18.951 190.259 21.155C190.259 23.34 191.285 24.727 192.957 24.727ZM200.886 26H199.024V12.415H200.886V26ZM207.118 26.285C204.097 26.285 202.273 24.195 202.273 21.155C202.273 18.134 204.097 16.006 207.137 16.006C210.139 16.006 211.963 18.115 211.963 21.136C211.963 24.176 210.139 26.285 207.118 26.285ZM207.137 24.746C209.113 24.746 210.025 23.169 210.025 21.155C210.025 19.122 209.113 17.564 207.137 17.564C205.123 17.564 204.211 19.122 204.211 21.155C204.211 23.169 205.123 24.746 207.137 24.746ZM214.352 29.401C213.934 29.401 213.649 29.363 213.155 29.268V27.748C213.478 27.786 213.649 27.805 213.953 27.805C214.694 27.805 215.568 27.425 215.948 25.905L212.034 16.31H214.067L216.898 23.72H216.936L219.596 16.31H221.553L217.715 26.228C216.784 28.622 215.853 29.401 214.352 29.401ZM234.539 23.435L236.686 26H234.425L233.437 24.784C232.468 25.677 231.195 26.266 229.542 26.266C226.844 26.266 225.324 24.727 225.324 22.694C225.324 20.642 226.882 19.578 228.44 18.685C227.509 17.526 226.863 16.595 226.863 15.36C226.863 13.745 228.003 12.149 230.264 12.149C232.43 12.13 233.646 13.612 233.646 15.341C233.646 16.975 232.563 17.849 230.796 18.913L233.361 21.991C233.76 21.193 234.007 20.262 234.159 19.35H235.945C235.755 20.718 235.318 22.181 234.539 23.435ZM230.264 13.802C229.238 13.802 228.687 14.562 228.687 15.379C228.687 16.177 229.2 16.956 229.903 17.849C231.176 17.089 231.822 16.424 231.822 15.474C231.822 14.543 231.252 13.802 230.264 13.802ZM229.694 24.499C230.796 24.499 231.651 24.081 232.316 23.435L229.314 19.768C228.041 20.547 227.243 21.345 227.243 22.447C227.243 23.644 228.117 24.499 229.694 24.499ZM244.935 26.266C241.99 26.266 240.527 24.746 240.47 22.77H242.351C242.427 23.891 243.111 24.765 244.916 24.765C246.55 24.765 246.987 24.043 246.987 23.34C246.987 22.124 245.695 21.991 244.441 21.725C242.75 21.326 240.812 20.832 240.812 18.818C240.812 17.146 242.161 16.025 244.498 16.025C247.158 16.025 248.431 17.45 248.564 19.122H246.683C246.55 18.381 246.151 17.526 244.536 17.526C243.282 17.526 242.75 18.02 242.75 18.742C242.75 19.749 243.833 19.844 245.201 20.148C246.987 20.566 248.925 21.079 248.925 23.245C248.925 25.126 247.481 26.266 244.935 26.266ZM254.46 26.285C251.572 26.285 249.691 24.195 249.691 21.155C249.691 18.115 251.572 16.025 254.441 16.025C256.93 16.025 258.583 17.64 258.811 19.825H256.892C256.797 18.818 256.227 17.564 254.46 17.564C252.389 17.564 251.629 19.331 251.629 21.155C251.629 22.979 252.389 24.727 254.46 24.727C256.246 24.727 256.797 23.511 256.892 22.409H258.811C258.678 24.632 256.949 26.285 254.46 26.285ZM262.786 26.266C260.848 26.266 259.613 25.145 259.613 23.492C259.613 21.326 261.247 20.68 263.66 20.224C265.18 19.939 266.111 19.749 266.111 18.799C266.111 18.096 265.693 17.507 264.268 17.507C262.577 17.507 262.064 18.039 261.969 19.331H260.069C260.164 17.469 261.38 16.006 264.344 16.006C266.339 16.006 267.935 16.842 267.935 19.35V23.796C267.935 24.499 268.03 24.86 268.391 24.86C268.448 24.86 268.505 24.86 268.619 24.841V25.981C268.296 26.057 267.973 26.095 267.669 26.095C266.738 26.095 266.244 25.734 266.13 24.632H266.092C265.465 25.639 264.363 26.266 262.786 26.266ZM263.204 24.765C264.876 24.765 266.111 23.91 266.111 22.219V20.832C265.807 21.117 264.971 21.326 263.983 21.535C262.273 21.877 261.551 22.352 261.551 23.359C261.551 24.271 262.045 24.765 263.204 24.765ZM271.873 26H270.011V12.415H271.873V26ZM282.665 20.946C282.665 21.212 282.665 21.497 282.646 21.649H275.198C275.236 23.264 276.186 24.765 278.105 24.765C279.815 24.765 280.48 23.663 280.651 23.017H282.551C282.038 24.879 280.613 26.285 278.067 26.285C274.989 26.285 273.279 24.1 273.279 21.136C273.279 18.096 275.103 16.006 278.067 16.006C281.012 16.006 282.665 17.944 282.665 20.946ZM275.198 20.186H280.727C280.727 18.666 279.663 17.526 278.01 17.526C276.452 17.526 275.312 18.59 275.198 20.186ZM290.223 26H288.133V12.415H297.557V14.22H290.223V18.305H296.151V20.11H290.223V26ZM300.263 26.266C298.325 26.266 297.09 25.145 297.09 23.492C297.09 21.326 298.724 20.68 301.137 20.224C302.657 19.939 303.588 19.749 303.588 18.799C303.588 18.096 303.17 17.507 301.745 17.507C300.054 17.507 299.541 18.039 299.446 19.331H297.546C297.641 17.469 298.857 16.006 301.821 16.006C303.816 16.006 305.412 16.842 305.412 19.35V23.796C305.412 24.499 305.507 24.86 305.868 24.86C305.925 24.86 305.982 24.86 306.096 24.841V25.981C305.773 26.057 305.45 26.095 305.146 26.095C304.215 26.095 303.721 25.734 303.607 24.632H303.569C302.942 25.639 301.84 26.266 300.263 26.266ZM300.681 24.765C302.353 24.765 303.588 23.91 303.588 22.219V20.832C303.284 21.117 302.448 21.326 301.46 21.535C299.75 21.877 299.028 22.352 299.028 23.359C299.028 24.271 299.522 24.765 300.681 24.765ZM311.307 26.266C308.362 26.266 306.899 24.746 306.842 22.77H308.723C308.799 23.891 309.483 24.765 311.288 24.765C312.922 24.765 313.359 24.043 313.359 23.34C313.359 22.124 312.067 21.991 310.813 21.725C309.122 21.326 307.184 20.832 307.184 18.818C307.184 17.146 308.533 16.025 310.87 16.025C313.53 16.025 314.803 17.45 314.936 19.122H313.055C312.922 18.381 312.523 17.526 310.908 17.526C309.654 17.526 309.122 18.02 309.122 18.742C309.122 19.749 310.205 19.844 311.573 20.148C313.359 20.566 315.297 21.079 315.297 23.245C315.297 25.126 313.853 26.266 311.307 26.266ZM320.036 24.575C320.359 24.575 320.511 24.556 320.834 24.499V26C320.359 26.095 320.055 26.114 319.656 26.114C318.06 26.114 317.091 25.506 317.091 23.264V17.849H315.685V16.31H317.091V13.194H318.953V16.31H320.815V17.849H318.953V23.321C318.953 24.347 319.238 24.575 320.036 24.575ZM323.261 26H321.057L326.111 12.415H328.372L333.464 26H331.184L330.063 22.732H324.382L323.261 26ZM327.213 14.353L325.009 20.965H329.474L327.251 14.353H327.213ZM336.773 26H334.683V12.415H340.345C342.91 12.415 344.791 13.612 344.791 16.462C344.791 19.312 342.91 20.49 340.345 20.49H336.773V26ZM336.773 18.685H340.25C341.827 18.685 342.625 17.982 342.625 16.462C342.625 14.923 341.827 14.22 340.25 14.22H336.773V18.685ZM348.439 26H346.349V12.415H348.439V26ZM351.25 28.584V27.558C351.953 27.349 352.257 26.988 352.238 26H351.25V23.929H353.321V26C353.321 27.235 352.77 28.204 351.25 28.584Z" fill="#0D0D0D"/>
<path d="M363.975 14.277C363.082 14.277 362.854 14.714 362.664 15.74L362.55 16.291H364.298L363.899 18.286H362.17L360.669 26H358.047L359.548 18.286H358.237L358.636 16.291H359.947L360.118 15.417C360.574 13.099 361.581 12.263 363.462 12.263C363.918 12.263 364.393 12.301 365.039 12.434L364.659 14.353C364.374 14.296 364.184 14.277 363.975 14.277ZM366.243 26.285C364.476 26.285 363.469 25.392 363.469 23.796C363.469 21.497 365.559 20.737 367.877 20.224C369.549 19.882 370.765 19.635 370.765 18.666C370.765 18.115 370.366 17.811 369.397 17.811C368.162 17.811 367.478 18.305 367.174 19.407H364.666C365.122 17.45 366.661 15.968 369.682 15.968C372.285 15.968 373.691 17.089 373.121 19.92L372.323 23.777C372.209 24.385 372.228 24.632 372.722 24.632C372.779 24.632 372.836 24.632 372.931 24.613L372.646 26C372.114 26.114 371.696 26.171 371.259 26.171C370.176 26.171 369.644 25.696 369.663 24.765H369.625C368.903 25.658 367.725 26.285 366.243 26.285ZM367.383 24.385C368.922 24.385 369.834 23.435 370.138 22.048L370.347 21.079C369.91 21.364 369.682 21.459 368.352 21.744C366.889 22.067 366.11 22.39 366.11 23.321C366.11 24.043 366.604 24.385 367.383 24.385ZM378.263 26.285C375.09 26.285 373.874 24.613 373.95 22.789H376.363C376.325 23.796 376.952 24.423 378.339 24.423C379.46 24.423 380.125 24.024 380.125 23.302C380.125 22.447 379.099 22.219 377.94 21.858C376.477 21.421 374.9 20.87 374.9 19.084C374.9 17.241 376.629 15.987 379.175 15.987C382.082 15.987 383.279 17.621 383.146 19.198H380.714C380.752 18.4 380.315 17.811 379.042 17.811C378.092 17.811 377.446 18.134 377.446 18.799C377.446 19.578 378.358 19.749 379.612 20.148C381.265 20.661 382.728 21.269 382.728 23.036C382.728 24.784 381.265 26.285 378.263 26.285ZM389.857 18.286H388.109L387.197 22.979C386.988 23.986 387.33 24.157 388.014 24.157C388.299 24.157 388.47 24.138 388.85 24.081L388.47 25.981C387.843 26.114 387.368 26.171 386.855 26.171C384.917 26.171 384.138 25.297 384.575 22.998L385.506 18.286H384.138L384.518 16.291H385.886L386.456 13.422H389.059L388.508 16.291H390.237L389.857 18.286Z" fill="#8A05FF"/>
<path d="M137 30L150 30L150 40L137 40L137 30Z" fill="#E6DAFF"/>
<path d="M131 24L150 24L150 27L131 27L131 24Z" fill="#E6DAFF"/>
<path d="M134 18L150 18L150 21L134 21L134 18Z" fill="#E6DAFF"/>
<path d="M139 6L160 6L160 9L139 9L139 6Z" fill="#8A05FF"/>
<path d="M139 4.54598e-06L165 0L165 3L139 3L139 4.54598e-06Z" fill="#8A05FF"/>
</g>
<defs>
<clipPath id="clip0_23_117">
<rect width="400" height="40" fill="white"/>
</clipPath>
</defs>
</svg>
