<svg width="240" height="100" viewBox="0 0 240 100" fill="none" xmlns="http://www.w3.org/2000/svg">
<g clip-path="url(#clip0_23_129)">
<rect width="240" height="100" fill="#8A05FF"/>
<path d="M72.1133 18.3337C77.5735 18.3337 81.1233 21.4176 81.1233 26.3708C81.1233 29.9972 79.0359 32.692 75.7633 33.8418L82.1788 44.7978H77.4202L71.4352 34.402H64.8252V44.7978H60.7271V18.3337H72.1133ZM64.8193 22.0191V30.7579H71.9187C75.1736 30.7579 76.8542 28.9417 76.8542 26.3708C76.8542 23.7409 75.1795 22.0191 71.9187 22.0191H64.8193Z" fill="white"/>
<path d="M92.6039 25.6868C98.0641 25.6868 101.614 29.7437 101.614 34.7558C101.614 35.3396 101.573 35.9469 101.461 36.5484H86.9314C87.1083 39.3552 89.5082 41.5605 92.7454 41.5605C95.0863 41.5605 96.9556 40.564 98.3589 38.3646L101.207 40.4343C99.4734 43.5536 96.0593 45.1929 92.7454 45.1929C87.0906 45.1929 82.9335 41.018 82.9335 35.4634C82.9335 29.8793 86.9314 25.6868 92.6039 25.6868ZM97.6926 33.659C97.4568 31.0291 95.2573 29.1717 92.5626 29.1717C89.6969 29.1717 87.5093 31.0232 87.0257 33.659H97.6926Z" fill="white"/>
<path d="M105.199 44.7978V26.076H109.079V28.4346C109.704 27.4794 111.479 25.6868 114.834 25.6868C119.982 25.6868 122.694 28.8828 122.694 33.4291V44.7978H118.832V34.2487C118.832 31.1471 117.134 29.3545 114.227 29.3545C111.379 29.3545 109.061 31.1471 109.061 34.2487V44.7978H105.199Z" fill="white"/>
<path d="M135.277 25.6868C138.456 25.6868 140.561 26.8543 141.946 28.6292V17.3372H145.809V44.7978H141.946V42.2445C140.561 44.0194 138.456 45.187 135.277 45.187C129.953 45.187 125.878 41.0888 125.878 35.3396C125.878 29.5845 129.953 25.6868 135.277 25.6868ZM129.735 35.3396C129.735 38.7891 132.134 41.7138 135.743 41.7138C139.352 41.7138 141.923 38.7891 141.923 35.3396C141.923 31.8901 139.328 29.1599 135.743 29.1599C132.134 29.154 129.735 31.8842 129.735 35.3396Z" fill="white"/>
<path d="M158.752 25.6868C164.212 25.6868 167.761 29.7437 167.761 34.7558C167.761 35.3396 167.72 35.9469 167.608 36.5484H153.079C153.256 39.3552 155.656 41.5605 158.893 41.5605C161.234 41.5605 163.103 40.564 164.507 38.3646L167.355 40.4343C165.621 43.5536 162.207 45.1929 158.893 45.1929C153.238 45.1929 149.081 41.018 149.081 35.4634C149.075 29.8793 153.073 25.6868 158.752 25.6868ZM163.84 33.659C163.604 31.0291 161.405 29.1717 158.71 29.1717C155.845 29.1717 153.657 31.0232 153.173 33.659H163.84Z" fill="white"/>
<path d="M171.494 44.7978V26.076H175.374V28.6292C176.429 26.5831 178.204 25.6868 180.25 25.6868C181.713 25.6868 182.827 26.1526 182.827 26.1526L182.42 29.7024C182.208 29.6257 181.365 29.2719 180.138 29.2719C178.069 29.2719 175.38 30.3628 175.38 34.5966V44.7978H171.494Z" fill="white"/>
<path d="M37.229 13.009C33.0778 12.8144 29.587 15.804 28.9915 19.7429C28.9679 19.9257 28.9325 20.1026 28.903 20.2795C27.9773 25.1855 23.6669 28.9004 18.4897 28.9004C16.6441 28.9004 14.9105 28.4287 13.401 27.6032C13.2182 27.5029 13 27.6326 13 27.839V28.8945V44.7978H28.8971V32.8748C28.8971 30.6812 30.6779 28.9004 32.8714 28.9004H36.8457C41.3448 28.9004 44.9653 25.1678 44.7884 20.6274C44.6292 16.5411 41.3153 13.2036 37.229 13.009Z" fill="white"/>
<path d="M19.3913 70H14.4593V57.13H19.3553C22.9193 57.13 25.0793 59.434 25.0793 63.574C25.0793 67.714 22.9553 70 19.3913 70ZM16.4393 68.29H19.2653C22.2533 68.29 23.0273 66.058 23.0273 63.574C23.0273 61.09 22.2533 58.84 19.2653 58.84H16.4393V68.29ZM34.9661 65.212C34.9661 65.464 34.9661 65.734 34.9481 65.878H27.8921C27.9281 67.408 28.8281 68.83 30.6461 68.83C32.2661 68.83 32.8961 67.786 33.0581 67.174H34.8581C34.3721 68.938 33.0221 70.27 30.6101 70.27C27.6941 70.27 26.0741 68.2 26.0741 65.392C26.0741 62.512 27.8021 60.532 30.6101 60.532C33.4001 60.532 34.9661 62.368 34.9661 65.212ZM27.8921 64.492H33.1301C33.1301 63.052 32.1221 61.972 30.5561 61.972C29.0801 61.972 28.0001 62.98 27.8921 64.492ZM40.9022 60.55C43.2422 60.55 45.0242 62.386 45.0242 65.41C45.0242 68.434 43.2422 70.252 40.9022 70.252C39.4622 70.252 38.5802 69.604 38.0762 68.866H38.0402V73.186H36.2762V60.82H38.0402V61.9H38.0762C38.5802 61.252 39.4622 60.55 40.9022 60.55ZM40.6142 68.794C42.3422 68.794 43.1702 67.21 43.1702 65.41C43.1702 63.61 42.3422 62.026 40.6142 62.026C39.0302 62.026 38.0582 63.322 38.0582 65.41C38.0582 67.48 39.0302 68.794 40.6142 68.794ZM48.1258 70H46.3618V57.13H48.1258V70ZM54.0299 70.27C51.1679 70.27 49.4399 68.29 49.4399 65.41C49.4399 62.548 51.1679 60.532 54.0479 60.532C56.8919 60.532 58.6199 62.53 58.6199 65.392C58.6199 68.272 56.8919 70.27 54.0299 70.27ZM54.0479 68.812C55.9199 68.812 56.7839 67.318 56.7839 65.41C56.7839 63.484 55.9199 62.008 54.0479 62.008C52.1399 62.008 51.2759 63.484 51.2759 65.41C51.2759 67.318 52.1399 68.812 54.0479 68.812ZM60.8832 73.222C60.4872 73.222 60.2172 73.186 59.7492 73.096V71.656C60.0552 71.692 60.2172 71.71 60.5052 71.71C61.2072 71.71 62.0352 71.35 62.3952 69.91L58.6872 60.82H60.6132L63.2952 67.84H63.3312L65.8512 60.82H67.7052L64.0692 70.216C63.1872 72.484 62.3052 73.222 60.8832 73.222ZM80.0073 67.57L82.0413 70H79.8993L78.9633 68.848C78.0453 69.694 76.8393 70.252 75.2733 70.252C72.7173 70.252 71.2773 68.794 71.2773 66.868C71.2773 64.924 72.7533 63.916 74.2293 63.07C73.3473 61.972 72.7353 61.09 72.7353 59.92C72.7353 58.39 73.8153 56.878 75.9573 56.878C78.0093 56.86 79.1613 58.264 79.1613 59.902C79.1613 61.45 78.1353 62.278 76.4613 63.286L78.8913 66.202C79.2693 65.446 79.5033 64.564 79.6473 63.7H81.3393C81.1593 64.996 80.7453 66.382 80.0073 67.57ZM75.9573 58.444C74.9853 58.444 74.4633 59.164 74.4633 59.938C74.4633 60.694 74.9493 61.432 75.6153 62.278C76.8213 61.558 77.4333 60.928 77.4333 60.028C77.4333 59.146 76.8933 58.444 75.9573 58.444ZM75.4173 68.578C76.4613 68.578 77.2713 68.182 77.9013 67.57L75.0573 64.096C73.8513 64.834 73.0953 65.59 73.0953 66.634C73.0953 67.768 73.9233 68.578 75.4173 68.578ZM89.8568 70.252C87.0668 70.252 85.6808 68.812 85.6268 66.94H87.4088C87.4808 68.002 88.1288 68.83 89.8388 68.83C91.3868 68.83 91.8008 68.146 91.8008 67.48C91.8008 66.328 90.5768 66.202 89.3888 65.95C87.7868 65.572 85.9508 65.104 85.9508 63.196C85.9508 61.612 87.2288 60.55 89.4428 60.55C91.9628 60.55 93.1688 61.9 93.2948 63.484H91.5128C91.3868 62.782 91.0088 61.972 89.4788 61.972C88.2908 61.972 87.7868 62.44 87.7868 63.124C87.7868 64.078 88.8128 64.168 90.1088 64.456C91.8008 64.852 93.6368 65.338 93.6368 67.39C93.6368 69.172 92.2688 70.252 89.8568 70.252ZM98.8799 70.27C96.1439 70.27 94.3619 68.29 94.3619 65.41C94.3619 62.53 96.1439 60.55 98.8619 60.55C101.22 60.55 102.786 62.08 103.002 64.15H101.184C101.094 63.196 100.554 62.008 98.8799 62.008C96.9179 62.008 96.1979 63.682 96.1979 65.41C96.1979 67.138 96.9179 68.794 98.8799 68.794C100.572 68.794 101.094 67.642 101.184 66.598H103.002C102.876 68.704 101.238 70.27 98.8799 70.27ZM106.768 70.252C104.932 70.252 103.762 69.19 103.762 67.624C103.762 65.572 105.31 64.96 107.596 64.528C109.036 64.258 109.918 64.078 109.918 63.178C109.918 62.512 109.522 61.954 108.172 61.954C106.57 61.954 106.084 62.458 105.994 63.682H104.194C104.284 61.918 105.436 60.532 108.244 60.532C110.134 60.532 111.646 61.324 111.646 63.7V67.912C111.646 68.578 111.736 68.92 112.078 68.92C112.132 68.92 112.186 68.92 112.294 68.902V69.982C111.988 70.054 111.682 70.09 111.394 70.09C110.512 70.09 110.044 69.748 109.936 68.704H109.9C109.306 69.658 108.262 70.252 106.768 70.252ZM107.164 68.83C108.748 68.83 109.918 68.02 109.918 66.418V65.104C109.63 65.374 108.838 65.572 107.902 65.77C106.282 66.094 105.598 66.544 105.598 67.498C105.598 68.362 106.066 68.83 107.164 68.83ZM115.377 70H113.613V57.13H115.377V70ZM125.601 65.212C125.601 65.464 125.601 65.734 125.583 65.878H118.527C118.563 67.408 119.463 68.83 121.281 68.83C122.901 68.83 123.531 67.786 123.693 67.174H125.493C125.007 68.938 123.657 70.27 121.245 70.27C118.329 70.27 116.709 68.2 116.709 65.392C116.709 62.512 118.437 60.532 121.245 60.532C124.035 60.532 125.601 62.368 125.601 65.212ZM118.527 64.492H123.765C123.765 63.052 122.757 61.972 121.191 61.972C119.715 61.972 118.635 62.98 118.527 64.492ZM132.761 70H130.781V57.13H139.709V58.84H132.761V62.71H138.377V64.42H132.761V70ZM142.273 70.252C140.437 70.252 139.267 69.19 139.267 67.624C139.267 65.572 140.815 64.96 143.101 64.528C144.541 64.258 145.423 64.078 145.423 63.178C145.423 62.512 145.027 61.954 143.677 61.954C142.075 61.954 141.589 62.458 141.499 63.682H139.699C139.789 61.918 140.941 60.532 143.749 60.532C145.639 60.532 147.151 61.324 147.151 63.7V67.912C147.151 68.578 147.241 68.92 147.583 68.92C147.637 68.92 147.691 68.92 147.799 68.902V69.982C147.493 70.054 147.187 70.09 146.899 70.09C146.017 70.09 145.549 69.748 145.441 68.704H145.405C144.811 69.658 143.767 70.252 142.273 70.252ZM142.669 68.83C144.253 68.83 145.423 68.02 145.423 66.418V65.104C145.135 65.374 144.343 65.572 143.407 65.77C141.787 66.094 141.103 66.544 141.103 67.498C141.103 68.362 141.571 68.83 142.669 68.83ZM152.735 70.252C149.945 70.252 148.559 68.812 148.505 66.94H150.287C150.359 68.002 151.007 68.83 152.717 68.83C154.265 68.83 154.679 68.146 154.679 67.48C154.679 66.328 153.455 66.202 152.267 65.95C150.665 65.572 148.829 65.104 148.829 63.196C148.829 61.612 150.107 60.55 152.321 60.55C154.841 60.55 156.047 61.9 156.173 63.484H154.391C154.265 62.782 153.887 61.972 152.357 61.972C151.169 61.972 150.665 62.44 150.665 63.124C150.665 64.078 151.691 64.168 152.987 64.456C154.679 64.852 156.515 65.338 156.515 67.39C156.515 69.172 155.147 70.252 152.735 70.252ZM161.005 68.65C161.311 68.65 161.455 68.632 161.761 68.578V70C161.311 70.09 161.023 70.108 160.645 70.108C159.133 70.108 158.215 69.532 158.215 67.408V62.278H156.883V60.82H158.215V57.868H159.979V60.82H161.743V62.278H159.979V67.462C159.979 68.434 160.249 68.65 161.005 68.65ZM164.06 70H161.972L166.76 57.13H168.902L173.726 70H171.566L170.504 66.904H165.122L164.06 70ZM167.804 58.966L165.716 65.23H169.946L167.84 58.966H167.804ZM176.861 70H174.881V57.13H180.245C182.675 57.13 184.457 58.264 184.457 60.964C184.457 63.664 182.675 64.78 180.245 64.78H176.861V70ZM176.861 63.07H180.155C181.649 63.07 182.405 62.404 182.405 60.964C182.405 59.506 181.649 58.84 180.155 58.84H176.861V63.07ZM187.913 70H185.933V57.13H187.913V70ZM190.576 72.448V71.476C191.242 71.278 191.53 70.936 191.512 70H190.576V68.038H192.538V70C192.538 71.17 192.016 72.088 190.576 72.448ZM203.114 59.128C202.268 59.128 202.052 59.578 201.854 60.586L201.818 60.784H203.42L202.988 62.944H201.386L200.018 70H197.138L198.524 62.944H197.264L197.696 60.784H198.938L199.064 60.136C199.496 57.886 200.45 56.968 202.412 56.968C202.898 56.968 203.456 57.022 204.122 57.166L203.708 59.218C203.474 59.146 203.276 59.128 203.114 59.128ZM205.02 70.288C203.364 70.288 202.41 69.442 202.41 67.948C202.41 65.716 204.498 64.96 206.622 64.492C208.116 64.168 209.214 63.916 209.214 63.106C209.214 62.638 208.854 62.404 208.116 62.404C207.072 62.404 206.496 62.854 206.226 63.772H203.508C203.922 61.954 205.398 60.478 208.44 60.478C211.014 60.478 212.418 61.54 211.806 64.492L211.104 67.876C210.996 68.416 211.014 68.578 211.482 68.578C211.518 68.578 211.536 68.578 211.626 68.56L211.338 70.036C210.726 70.144 210.276 70.198 209.844 70.198C208.728 70.198 208.188 69.73 208.188 68.884H208.152C207.504 69.694 206.406 70.288 205.02 70.288ZM206.37 68.272C207.72 68.272 208.368 67.372 208.638 66.22L208.818 65.464C208.386 65.698 208.224 65.788 207.036 66.058C205.938 66.31 205.344 66.616 205.344 67.372C205.344 67.984 205.758 68.272 206.37 68.272ZM216.475 70.288C213.289 70.288 212.263 68.614 212.371 66.94H214.999C214.945 67.858 215.485 68.308 216.565 68.308C217.519 68.308 218.023 67.966 218.023 67.426C218.023 66.688 217.033 66.508 215.989 66.184C214.621 65.752 213.235 65.194 213.235 63.574C213.235 61.828 214.873 60.496 217.501 60.496C220.399 60.496 221.497 62.116 221.335 63.592H218.689C218.743 62.818 218.347 62.404 217.339 62.404C216.511 62.404 216.043 62.692 216.043 63.196C216.043 63.88 216.889 64.024 217.987 64.366C219.553 64.852 220.903 65.482 220.903 67.102C220.903 68.686 219.607 70.288 216.475 70.288ZM227.725 62.944H226.123L225.349 66.94C225.151 67.93 225.511 68.02 226.069 68.02C226.339 68.02 226.501 68.002 226.861 67.948L226.465 69.982C225.817 70.126 225.295 70.18 224.719 70.18C222.703 70.18 222.019 69.262 222.451 67.012L223.243 62.944H221.965L222.379 60.784H223.657L224.161 58.21H227.041L226.537 60.784H228.139L227.725 62.944Z" fill="white"/>
<rect y="92" width="240" height="8" fill="#E6DAFF"/>
<rect width="5" height="18" transform="matrix(1 0 0 -1 215 18)" fill="#E6DAFF"/>
<rect width="5" height="18" transform="matrix(1 0 0 -1 205 18)" fill="#E6DAFF"/>
<rect width="5" height="18" transform="matrix(1 0 0 -1 235 18)" fill="#E6DAFF"/>
<rect width="5" height="18" transform="matrix(1 0 0 -1 225 18)" fill="#E6DAFF"/>
<rect y="83" width="64" height="9" fill="#E6DAFF"/>
</g>
<defs>
<clipPath id="clip0_23_129">
<rect width="240" height="100" fill="white"/>
</clipPath>
</defs>
</svg>
