<svg width="300px" height="40px" viewBox="0 0 300 40" xmlns="http://www.w3.org/2000/svg" xmlns:xlink="http://www.w3.org/1999/xlink"><defs><radialGradient cx="67.9042312%" cy="42.9553939%" fx="67.9042312%" fy="42.9553939%" r="59.2625266%" gradientTransform="matrix(.708 .502 -.411 .865 .37 -.28)" id="g"><stop stop-color="#FFF" offset="0%"/><stop stop-color="#AFAFAF" offset="100%"/></radialGradient><polygon id="c" points="8.40529079e-13 0.554129891 253.25984 8.42600936e-17 253.25984 21.7040109 228.693879 34.3251885 8.40529079e-13 38.5541299"/><rect id="a" x="0" y="0" width="300" height="40" rx="20"/><path d="M13.95 0a15.65 15.65 0 0 1 7.36 1.7l11.16.07.15-.07C34.82.6 37.23.05 39.84.05c1.92 0 3.7.27 5.37.8.84.28 1.63.62 2.38 1.02l10.75.07.5-1.51h13.78l.54 1.61 5.82.04V.48h12.91v10.25l10.68.28 2.8-8.47.67-2.06h13.79l.43 1.32 5.92.08V.53h14c2.31 0 4.41.44 6.26 1.33 1.93.94 3.47 2.32 4.56 4.11a11.74 11.74 0 0 1 1.62 6.21v.14l8.47.22c.32-1.77.88-3.39 1.7-4.84a14 14 0 0 1 5.62-5.58 15.9 15.9 0 0 1 7.63-1.86c1.92 0 3.7.27 5.37.8.59.2 1.15.42 1.7.68l11.6.03c2.14-1 4.49-1.5 7.02-1.5 2.54 0 4.91.5 7.07 1.54l7.18.02V.69h13.6l.5 1.18 7.12.02.5-1.2h13.6v31.45h-12.75v-2.29l-.07.19-.75 1.9h-8.18l-.74-1.91-.07-.18v2.3h-12.76v-1.23l-7.25-.02c-2.14 1.01-4.48 1.51-7 1.51-2.55 0-4.91-.51-7.06-1.54l-11.5-.02a15.95 15.95 0 0 1-7.12 1.57 16.1 16.1 0 0 1-7.2-1.6l-5.47-.02a6.27 6.27 0 0 1-4.32 1.69 6.36 6.36 0 0 1-3.88-1.28l-.16-.13.5.9h-14.37l-.65-1.23h-1.4v1.24h-12.92v-.06h-9.8L116 30.7l-6.13-.02-.37 1.25H78.98v-.05h-9.8l-.4-1.29h-6.1l-.39 1.3H48.46l.44-1.34h-1.76l-.82.4-.44.18c-1.79.72-3.8 1.07-6.04 1.07-2.68 0-5.15-.56-7.37-1.68l-10.73-.03c-.36.18-.72.35-1.1.5A18.05 18.05 0 0 1 14 32.1c-2.57 0-4.88-.39-6.9-1.2a11.02 11.02 0 0 1-5.21-4.15A12.28 12.28 0 0 1 0 19.87L0 16.85h2.48l-.13-.16a9.08 9.08 0 0 1-1.69-5.24v-.33A10 10 0 0 1 2.52 5.1 11.6 11.6 0 0 1 7.4 1.27 16.21 16.21 0 0 1 13.95 0Zm145.12 22.58a3.4 3.4 0 0 0-2.47 1 3.23 3.23 0 0 0-1.01 2.43c-.01.97.32 1.79 1 2.47.7.67 1.51 1 2.48 1 .6 0 1.18-.15 1.7-.46.52-.3.94-.73 1.27-1.25a3.28 3.28 0 0 0-.56-4.18c-.7-.68-1.5-1.01-2.41-1.01Z" id="e"/></defs><g fill="none" fill-rule="evenodd"><mask id="b" fill="#fff"><use xlink:href="#a"/></mask><g mask="url(#b)"><g transform="translate(23 1)"><mask id="d" fill="#fff"><use xlink:href="#c"/></mask><path d="M160.82 32.78a4.9 4.9 0 0 1-3.57-1.46 4.77 4.77 0 0 1-1.47-3.57 4.68 4.68 0 0 1 1.47-3.51 4.91 4.91 0 0 1 3.57-1.46 4.9 4.9 0 0 1 3.5 1.46 4.75 4.75 0 0 1 .8 6.05 5.4 5.4 0 0 1-1.84 1.82c-.75.45-1.57.67-2.46.67Z" fill="#2C328B" fill-rule="nonzero" mask="url(#d)"/><g mask="url(#d)"><g transform="rotate(-1.5 243.78 -22.04)"><mask id="f" fill="#fff"><use xlink:href="#e"/></mask><use fill="#79C5BE" fill-rule="nonzero" xlink:href="#e"/><path d="M17.38 11.3a2.7 2.7 0 0 0-.93-1.94c-.55-.46-1.38-.7-2.5-.7-.71 0-1.3.1-1.75.26-.45.17-.78.4-1 .7-.21.28-.32.61-.33.99-.02.3.04.58.16.82.13.25.34.47.62.66.28.2.64.37 1.08.53.44.16.96.3 1.57.42l2.09.45c1.4.3 2.61.7 3.61 1.18 1 .49 1.83 1.06 2.46 1.72a6.3 6.3 0 0 1 1.41 2.22c.3.82.46 1.72.47 2.69 0 1.67-.43 3.09-1.26 4.25a7.67 7.67 0 0 1-3.54 2.64c-1.54.6-3.39.91-5.54.91a15.6 15.6 0 0 1-5.79-.98 8.02 8.02 0 0 1-3.82-3.03A9.34 9.34 0 0 1 3 19.85h6.56c.05.78.24 1.44.59 1.97s.84.93 1.47 1.2a5.7 5.7 0 0 0 2.27.41c.74 0 1.35-.09 1.85-.27.5-.18.88-.44 1.13-.76.26-.32.4-.69.4-1.1 0-.4-.13-.74-.38-1.03-.24-.3-.64-.56-1.2-.8-.55-.23-1.3-.45-2.25-.66l-2.53-.55a11.6 11.6 0 0 1-5.33-2.45 5.92 5.92 0 0 1-1.93-4.7 7 7 0 0 1 1.3-4.25A8.62 8.62 0 0 1 8.6 4.02 13.24 13.24 0 0 1 13.95 3c2.05 0 3.83.34 5.33 1.03a8.03 8.03 0 0 1 3.48 2.9 7.87 7.87 0 0 1 1.23 4.37h-6.61Zm34.05 1.65h-7.01a4.85 4.85 0 0 0-.4-1.58 3.75 3.75 0 0 0-2.2-2.02 5.26 5.26 0 0 0-1.78-.28c-1.16 0-2.14.28-2.94.84-.8.57-1.4 1.37-1.81 2.43a10.44 10.44 0 0 0-.62 3.79c0 1.56.21 2.86.63 3.9a4.9 4.9 0 0 0 1.82 2.37c.8.52 1.75.79 2.87.79.64 0 1.21-.08 1.72-.25a3.72 3.72 0 0 0 2.23-1.81c.23-.43.4-.93.48-1.47l7 .05a9.44 9.44 0 0 1-.9 3.28 10.65 10.65 0 0 1-5.77 5.36c-1.4.57-3.04.85-4.9.85-2.34 0-4.44-.5-6.29-1.5-1.85-1-3.31-2.48-4.39-4.43a14.63 14.63 0 0 1-1.6-7.14c0-2.84.54-5.22 1.63-7.17a11 11 0 0 1 4.43-4.41c1.85-1 3.93-1.5 6.21-1.5 1.61 0 3.09.22 4.44.66 1.35.44 2.54 1.08 3.55 1.92a9.58 9.58 0 0 1 2.47 3.1c.62 1.23 1 2.63 1.13 4.22Zm30.55 15.98V3.48h6.91v19.89h10.3v5.56H81.97Zm-21.92-.05h-7.45L61 3.43h9.44l8.4 25.45H71.4l-5.57-18.44h-.2l-5.57 18.44Zm-1.39-10.04H72.7V24H58.67v-5.17Zm48.6 10.1H99.8l8.4-25.46h9.45l8.4 25.45h-7.46l-5.57-18.44h-.2l-5.56 18.44Zm-1.4-10.05h14.02v5.17h-14.02V18.9ZM129.18 29V3.53h11c1.88 0 3.53.35 4.95 1.03a7.72 7.72 0 0 1 3.3 2.97 8.77 8.77 0 0 1 1.19 4.65c0 1.82-.4 3.36-1.22 4.61a7.53 7.53 0 0 1-3.39 2.84c-1.45.63-3.15.95-5.09.95h-6.56v-5.37h5.17c.81 0 1.5-.1 2.08-.3.58-.2 1.02-.53 1.33-.98.31-.44.47-1.03.47-1.75 0-.73-.16-1.32-.47-1.78-.3-.46-.75-.8-1.33-1.02a5.85 5.85 0 0 0-2.08-.33h-2.44v19.94h-6.9ZM144.1 17.3 150.46 29h-7.5l-6.22-11.69h7.36Zm43.53-4.14h-7.01a4.85 4.85 0 0 0-.4-1.58 3.75 3.75 0 0 0-2.2-2.02 5.26 5.26 0 0 0-1.78-.28c-1.16 0-2.14.28-2.94.84-.8.57-1.4 1.37-1.81 2.43a10.44 10.44 0 0 0-.62 3.79c0 1.55.21 2.86.63 3.9a4.9 4.9 0 0 0 1.82 2.37c.8.52 1.75.79 2.87.79.64 0 1.21-.08 1.72-.25a3.73 3.73 0 0 0 2.23-1.81c.24-.44.4-.93.48-1.47l7 .05a9.44 9.44 0 0 1-.9 3.28 10.65 10.65 0 0 1-5.77 5.35c-1.4.58-3.04.86-4.9.86-2.34 0-4.44-.5-6.29-1.5-1.85-1-3.31-2.48-4.39-4.43a14.63 14.63 0 0 1-1.6-7.14c0-2.84.54-5.23 1.63-7.17a11 11 0 0 1 4.43-4.41c1.86-1 3.93-1.5 6.21-1.5 1.61 0 3.09.22 4.44.66 1.35.44 2.54 1.08 3.56 1.92a9.58 9.58 0 0 1 2.46 3.1c.62 1.23 1 2.63 1.13 4.22Zm26.48 3.18c0 2.83-.55 5.22-1.66 7.16a11.04 11.04 0 0 1-4.46 4.41 13.1 13.1 0 0 1-6.26 1.5c-2.32 0-4.42-.5-6.28-1.5a11.1 11.1 0 0 1-4.45-4.43 14.32 14.32 0 0 1-1.65-7.14c0-2.84.55-5.23 1.65-7.17a11.01 11.01 0 0 1 4.45-4.41c1.86-1 3.96-1.5 6.28-1.5 2.3 0 4.39.5 6.26 1.5 1.88 1 3.36 2.47 4.46 4.41a14.33 14.33 0 0 1 1.66 7.17Zm-7.11 0c0-1.53-.2-2.81-.6-3.86-.4-1.05-1-1.85-1.78-2.39a4.95 4.95 0 0 0-2.9-.81c-1.14 0-2.1.27-2.88.81a4.96 4.96 0 0 0-1.78 2.39c-.4 1.05-.6 2.33-.6 3.86 0 1.52.2 2.8.6 3.86.4 1.04 1 1.84 1.78 2.38.78.55 1.74.82 2.89.82 1.14 0 2.1-.27 2.89-.82a4.96 4.96 0 0 0 1.78-2.38c.4-1.05.6-2.34.6-3.86Zm11.98-12.65h8.6l5.91 14.42h.3l5.92-14.42h8.6v25.45h-6.76V14.43h-.2l-5.67 14.51h-4.08l-5.66-14.61h-.2v14.81h-6.76V3.7Z" fill="#2C328B" fill-rule="nonzero" mask="url(#f)"/></g></g><path d="M252.59 19.06v2.64l-7.45 4.77-13.48 6.37-4.56.11c8.86-12.46 14.5-19.3 16.94-20.54 2.43-1.24 5.28.98 8.55 6.65Z" fill="url(#g)" mask="url(#d)"/></g></g></g></svg>
