<?xml version="1.0" encoding="UTF-8"?>
<svg width="240px" height="100px" viewBox="0 0 240 100" version="1.1" xmlns="http://www.w3.org/2000/svg" xmlns:xlink="http://www.w3.org/1999/xlink">
    <title>sponsorship-badge</title>
    <g id="sponsorship-badge" stroke="none" stroke-width="1" fill="none" fill-rule="evenodd">
        <rect fill="#21002A" x="0" y="0" width="240" height="100"></rect>
        <g id="Logo-Color-White" transform="translate(25.3346, 37.0438)" fill-rule="nonzero">
            <g id="subtotal-white" transform="translate(-0, 0)">
                <path d="M35.4635593,9.25233359 L35.4547458,22.6797912 C35.4547458,22.6797912 28.9172881,15.7964014 23.7327119,13.7252149 L23.7327119,20.903859 C23.7283051,24.4006387 20.7845763,26.1236895 17.7328814,26.0972488 C11.6030508,26.0972488 2.38186441,19.5553844 -3.13120528e-15,16.8474183 L0.00661016949,3.4221641 C0.00661016949,3.4221641 6.5440678,10.3011472 11.7286441,12.3723336 L11.7330508,5.19368953 C11.7330508,1.69690986 14.6767797,-0.026140983 17.7328814,0.00029969496 C23.8583051,0.00029969496 33.0794915,6.5421641 35.4613559,9.2501302" id="Path" fill="#DE4AE4"></path>
                <path d="M49.5233898,23.034537 L49.5233898,17.6164014 C51.5857627,19.1257234 53.9301695,20.0797912 55.9947458,20.0797912 C58.059322,20.0797912 59.1081356,19.1257234 59.1081356,17.9557234 C59.1081356,14.7233505 49.1223729,16.0475878 49.1223729,8.44148614 C49.1223729,4.13165563 52.1740678,1.60657088 56.8849153,1.60657088 C59.1323729,1.60657088 61.6001695,2.22131664 63.3232203,3.29877427 L63.3232203,8.62436749 C61.7522034,7.3001302 59.5311864,6.50029969 57.5613559,6.50029969 C55.8052542,6.50029969 54.4457627,7.20979122 54.4457627,8.34674037 C54.4457627,11.5791133 64.4315254,10.254876 64.4315254,17.8609777 C64.4315254,22.1708082 61.2255932,25.0043675 56.329661,25.0043675 C53.8354237,25.0043675 51.2133898,24.3279268 49.5211864,23.034537" id="Path" fill="#FFFFFF"></path>
                <path d="M66.8045763,2.09792681 L72.1015254,2.09792681 L72.1015254,16.0013166 C72.1015254,18.8018251 73.399322,20.0797912 75.2457627,20.0797912 C77.0922034,20.0797912 78.3591525,18.7599607 78.3591525,16.0013166 L78.3591525,2.09792681 L83.6538983,2.09792681 L83.6538983,15.9175878 C83.6538983,22.0980963 80.0469492,25.0043675 75.1818644,25.0043675 C70.3167797,25.0043675 66.8023729,22.0364014 66.8023729,15.9175878 L66.8023729,2.09792681 L66.8045763,2.09792681 Z" id="Path" fill="#FFFFFF"></path>
                <path d="M86.919322,2.1001302 L94.2037288,2.1001302 C100.320339,2.1001302 102.45322,4.55911325 102.466441,8.04046919 C102.473051,10.124876 101.571864,11.4579268 100.287288,12.3304692 C102.444407,13.6789438 103.98678,15.5892827 103.98678,18.3413166 C103.98678,22.0364014 101.759153,24.5130116 96.2440678,24.5130116 L86.9215254,24.5130116 L86.9215254,2.1001302 L86.919322,2.1001302 Z M95.0961017,6.62368953 L92.2140678,6.62368953 L92.2140678,11.8236895 C92.2140678,11.8236895 97.5727119,10.9070794 97.5727119,8.48114715 C97.5727119,7.18114715 96.5789831,6.62368953 95.0961017,6.62368953 Z M96.8433898,14.4589438 C96.8433898,14.4589438 94.1045763,15.5297912 92.2118644,15.9991133 L92.2118644,19.9872488 L95.4288136,19.9872488 C97.7005085,19.9872488 98.7581356,19.0750455 98.7581356,17.5018251 C98.7581356,16.0608082 97.8811864,15.1530116 96.8411864,14.4589438 L96.8433898,14.4589438 Z" id="Shape" fill="#FFFFFF"></path>
                <polygon id="Path" fill="#FFFFFF" points="109.312373 6.62589292 104.171864 6.62589292 104.171864 2.1001302 119.657288 2.1001302 119.657288 6.62589292 114.607119 6.62589292 114.607119 24.5130116 109.312373 24.5130116"></polygon>
                <path d="M120.452712,13.3065709 C120.452712,5.91640139 124.055254,1.60657088 130.182881,1.60657088 C136.310508,1.60657088 139.910847,5.91640139 139.910847,13.3065709 C139.910847,20.6967404 136.308305,25.0065709 130.182881,25.0065709 C124.057458,25.0065709 120.452712,20.6967404 120.452712,13.3065709 M134.552203,13.3065709 C134.552203,8.96589292 133.042881,6.53335054 130.180678,6.53335054 C127.318475,6.53335054 125.809153,8.96589292 125.809153,13.3065709 C125.809153,17.6472488 127.318475,20.0797912 130.180678,20.0797912 C133.042881,20.0797912 134.552203,17.6472488 134.552203,13.3065709" id="Shape" fill="#FFFFFF"></path>
                <polygon id="Path" fill="#FFFFFF" points="145.84678 6.62589292 140.706271 6.62589292 140.706271 2.1001302 156.191695 2.1001302 156.191695 6.62589292 151.141525 6.62589292 151.141525 24.5130116 145.84678 24.5130116"></polygon>
                <polygon id="Path" fill="#FFFFFF" points="176.211695 2.1001302 181.506441 2.1001302 181.506441 19.9872488 188.62339 19.9872488 188.62339 24.5130116 176.211695 24.5130116"></polygon>
                <path d="M168.312542,24.5130116 L173.609492,24.5130116 C173.609492,15.6928421 171.194576,7.33758783 167.605254,2.09792681 L161.955763,2.09792681 C158.366441,7.33538444 155.951525,15.6928421 155.951525,24.5130116 L161.248475,24.5130116 C161.248475,22.9243675 161.318983,21.3467404 161.457797,19.784537 L168.10322,19.784537 C168.242034,21.3489438 168.312542,22.9265709 168.312542,24.5130116 Z M162.039492,15.4130116 C162.61678,12.1982658 163.517966,9.07385902 164.780508,6.09046919 C166.043051,9.07385902 166.944237,12.1982658 167.521525,15.4130116 L162.041695,15.4130116 L162.039492,15.4130116 Z" id="Shape" fill="#FFFFFF"></path>
            </g>
            <g id="subtotal-white" transform="translate(-0, 0)">
                <path d="M35.4635593,9.25233359 L35.4547458,22.6797912 C35.4547458,22.6797912 28.9172881,15.7964014 23.7327119,13.7252149 L23.7327119,20.903859 C23.7283051,24.4006387 20.7845763,26.1236895 17.7328814,26.0972488 C11.6030508,26.0972488 2.38186441,19.5553844 -3.13120528e-15,16.8474183 L0.00661016949,3.4221641 C0.00661016949,3.4221641 6.5440678,10.3011472 11.7286441,12.3723336 L11.7330508,5.19368953 C11.7330508,1.69690986 14.6767797,-0.026140983 17.7328814,0.00029969496 C23.8583051,0.00029969496 33.0794915,6.5421641 35.4613559,9.2501302" id="Path" fill="#DE4AE4"></path>
                <path d="M49.5233898,23.034537 L49.5233898,17.6164014 C51.5857627,19.1257234 53.9301695,20.0797912 55.9947458,20.0797912 C58.059322,20.0797912 59.1081356,19.1257234 59.1081356,17.9557234 C59.1081356,14.7233505 49.1223729,16.0475878 49.1223729,8.44148614 C49.1223729,4.13165563 52.1740678,1.60657088 56.8849153,1.60657088 C59.1323729,1.60657088 61.6001695,2.22131664 63.3232203,3.29877427 L63.3232203,8.62436749 C61.7522034,7.3001302 59.5311864,6.50029969 57.5613559,6.50029969 C55.8052542,6.50029969 54.4457627,7.20979122 54.4457627,8.34674037 C54.4457627,11.5791133 64.4315254,10.254876 64.4315254,17.8609777 C64.4315254,22.1708082 61.2255932,25.0043675 56.329661,25.0043675 C53.8354237,25.0043675 51.2133898,24.3279268 49.5211864,23.034537" id="Path" fill="#FFFFFF"></path>
                <path d="M66.8045763,2.09792681 L72.1015254,2.09792681 L72.1015254,16.0013166 C72.1015254,18.8018251 73.399322,20.0797912 75.2457627,20.0797912 C77.0922034,20.0797912 78.3591525,18.7599607 78.3591525,16.0013166 L78.3591525,2.09792681 L83.6538983,2.09792681 L83.6538983,15.9175878 C83.6538983,22.0980963 80.0469492,25.0043675 75.1818644,25.0043675 C70.3167797,25.0043675 66.8023729,22.0364014 66.8023729,15.9175878 L66.8023729,2.09792681 L66.8045763,2.09792681 Z" id="Path" fill="#FFFFFF"></path>
                <path d="M86.919322,2.1001302 L94.2037288,2.1001302 C100.320339,2.1001302 102.45322,4.55911325 102.466441,8.04046919 C102.473051,10.124876 101.571864,11.4579268 100.287288,12.3304692 C102.444407,13.6789438 103.98678,15.5892827 103.98678,18.3413166 C103.98678,22.0364014 101.759153,24.5130116 96.2440678,24.5130116 L86.9215254,24.5130116 L86.9215254,2.1001302 L86.919322,2.1001302 Z M95.0961017,6.62368953 L92.2140678,6.62368953 L92.2140678,11.8236895 C92.2140678,11.8236895 97.5727119,10.9070794 97.5727119,8.48114715 C97.5727119,7.18114715 96.5789831,6.62368953 95.0961017,6.62368953 Z M96.8433898,14.4589438 C96.8433898,14.4589438 94.1045763,15.5297912 92.2118644,15.9991133 L92.2118644,19.9872488 L95.4288136,19.9872488 C97.7005085,19.9872488 98.7581356,19.0750455 98.7581356,17.5018251 C98.7581356,16.0608082 97.8811864,15.1530116 96.8411864,14.4589438 L96.8433898,14.4589438 Z" id="Shape" fill="#FFFFFF"></path>
                <polygon id="Path" fill="#FFFFFF" points="109.312373 6.62589292 104.171864 6.62589292 104.171864 2.1001302 119.657288 2.1001302 119.657288 6.62589292 114.607119 6.62589292 114.607119 24.5130116 109.312373 24.5130116"></polygon>
                <path d="M120.452712,13.3065709 C120.452712,5.91640139 124.055254,1.60657088 130.182881,1.60657088 C136.310508,1.60657088 139.910847,5.91640139 139.910847,13.3065709 C139.910847,20.6967404 136.308305,25.0065709 130.182881,25.0065709 C124.057458,25.0065709 120.452712,20.6967404 120.452712,13.3065709 M134.552203,13.3065709 C134.552203,8.96589292 133.042881,6.53335054 130.180678,6.53335054 C127.318475,6.53335054 125.809153,8.96589292 125.809153,13.3065709 C125.809153,17.6472488 127.318475,20.0797912 130.180678,20.0797912 C133.042881,20.0797912 134.552203,17.6472488 134.552203,13.3065709" id="Shape" fill="#FFFFFF"></path>
                <polygon id="Path" fill="#FFFFFF" points="145.84678 6.62589292 140.706271 6.62589292 140.706271 2.1001302 156.191695 2.1001302 156.191695 6.62589292 151.141525 6.62589292 151.141525 24.5130116 145.84678 24.5130116"></polygon>
                <polygon id="Path" fill="#FFFFFF" points="176.211695 2.1001302 181.506441 2.1001302 181.506441 19.9872488 188.62339 19.9872488 188.62339 24.5130116 176.211695 24.5130116"></polygon>
                <path d="M168.312542,24.5130116 L173.609492,24.5130116 C173.609492,15.6928421 171.194576,7.33758783 167.605254,2.09792681 L161.955763,2.09792681 C158.366441,7.33538444 155.951525,15.6928421 155.951525,24.5130116 L161.248475,24.5130116 C161.248475,22.9243675 161.318983,21.3467404 161.457797,19.784537 L168.10322,19.784537 C168.242034,21.3489438 168.312542,22.9265709 168.312542,24.5130116 Z M162.039492,15.4130116 C162.61678,12.1982658 163.517966,9.07385902 164.780508,6.09046919 C166.043051,9.07385902 166.944237,12.1982658 167.521525,15.4130116 L162.041695,15.4130116 L162.039492,15.4130116 Z" id="Shape" fill="#FFFFFF"></path>
            </g>
        </g>
    </g>
</svg>
