<?xml version="1.0" encoding="UTF-8" standalone="no"?>
<svg
   width="390px"
   height="40px"
   viewBox="0 0 390 40"
   version="1.1"
   id="svg10"
   sodipodi:docname="subtotal-banner.svg"
   inkscape:version="1.3.2 (091e20e, 2023-11-25)"
   xmlns:inkscape="http://www.inkscape.org/namespaces/inkscape"
   xmlns:sodipodi="http://sodipodi.sourceforge.net/DTD/sodipodi-0.dtd"
   xmlns="http://www.w3.org/2000/svg"
   xmlns:svg="http://www.w3.org/2000/svg">
  <defs
     id="defs10" />
  <sodipodi:namedview
     id="namedview10"
     pagecolor="#ffffff"
     bordercolor="#000000"
     borderopacity="0.25"
     inkscape:showpageshadow="2"
     inkscape:pageopacity="0.0"
     inkscape:pagecheckerboard="0"
     inkscape:deskcolor="#d1d1d1"
     inkscape:zoom="1.8333333"
     inkscape:cx="195"
     inkscape:cy="19.909091"
     inkscape:window-width="1720"
     inkscape:window-height="1403"
     inkscape:window-x="0"
     inkscape:window-y="0"
     inkscape:window-maximized="0"
     inkscape:current-layer="svg10" />
  <title
     id="title1">sponsorship-banner</title>
  <rect
     fill="#21002a"
     x="0"
     y="0"
     width="390"
     height="40"
     id="rect1"
     style="fill-rule:evenodd;stroke:none;stroke-width:1" />
  <g
     id="Logo-Color-White"
     transform="translate(18.9966,10.0337)"
     fill-rule="nonzero"
     style="fill:none;stroke:none;stroke-width:1">
    <g
       id="subtotal-white">
      <path
         d="m 27.279661,7.1171797 -0.0068,10.3288133 c 0,0 -5.028813,-5.294915 -9.016949,-6.888135 v 5.522034 c -0.0034,2.68983 -2.267796,4.015254 -4.615254,3.994915 C 8.9254237,20.074807 1.8322034,15.042603 0,12.959553 L 0.00508475,2.6324339 c 0,0 5.02881355,5.2915254 9.01694915,6.8847458 l 0.00339,-5.5220339 c 0,-2.6898305 2.2644071,-4.01525425 4.6152541,-3.99491526541 4.711864,0 11.805085,5.03220336541 13.637288,7.11525426541"
         id="Path"
         fill="#de4ae4" />
      <path
         d="m 38.094915,17.718875 v -4.167797 c 1.586441,1.161017 3.389831,1.894915 4.977966,1.894915 1.588136,0 2.394916,-0.733898 2.394916,-1.633898 0,-2.486441 -7.681356,-1.467797 -7.681356,-7.3186441 0,-3.3152543 2.347457,-5.2576272 5.971186,-5.2576272 1.728814,0 3.627119,0.4728814 4.952542,1.301695 V 6.6341288 C 47.501695,5.6154848 45.79322,5.0002305 44.277966,5.0002305 c -1.350847,0 -2.39661,0.5457628 -2.39661,1.420339 0,2.4864407 7.681356,1.4677966 7.681356,7.3186445 0,3.315254 -2.466102,5.494915 -6.232204,5.494915 -1.918644,0 -3.935593,-0.520339 -5.237288,-1.515254"
         id="path1"
         fill="#ffffff" />
      <path
         d="m 51.388136,1.6137899 h 4.074576 V 12.308705 c 0,2.154237 0.998305,3.137288 2.418644,3.137288 1.420339,0 2.394915,-1.015254 2.394915,-3.137288 V 1.6137899 h 4.072882 V 12.244298 c 0,4.754238 -2.774577,6.989831 -6.51695,6.989831 -3.742373,0 -6.445762,-2.283051 -6.445762,-6.989831 V 1.6137899 Z"
         id="path2"
         fill="#ffffff" />
      <path
         d="m 66.861017,1.6154848 h 5.60339 c 4.705085,0 6.345762,1.8915254 6.355932,4.5694915 0.0051,1.6033898 -0.688136,2.6288136 -1.676271,3.3 1.659322,1.0372877 2.845762,2.5067797 2.845762,4.6237287 0,2.842373 -1.713559,4.747458 -5.955932,4.747458 H 66.862712 V 1.6154848 Z m 6.28983,3.479661 h -2.216949 v 4 c 0,0 4.122034,-0.7050848 4.122034,-2.5711865 0,-1 -0.764407,-1.4288135 -1.905085,-1.4288135 z m 1.344068,6.0271182 c 0,0 -2.106779,0.823729 -3.562712,1.184746 v 3.067797 h 2.474577 c 1.747457,0 2.561017,-0.701695 2.561017,-1.911865 0,-1.108474 -0.674577,-1.806779 -1.474577,-2.340678 z"
         id="Shape"
         fill="#ffffff" />
      <polygon
         id="polygon2"
         fill="#ffffff"
         points="80.132203,1.6154848 92.044068,1.6154848 92.044068,5.0968407 88.159322,5.0968407 88.159322,18.856163 84.086441,18.856163 84.086441,5.0968407 80.132203,5.0968407 " />
      <path
         d="m 92.655932,10.235824 c 0,-5.684746 2.771187,-9.0000003 7.484748,-9.0000003 4.71356,0 7.48305,3.3152543 7.48305,9.0000003 0,5.684745 -2.77119,9 -7.48305,9 -4.711866,0 -7.484748,-3.315255 -7.484748,-9 m 10.845758,0 c 0,-3.3389833 -1.16101,-5.2101697 -3.36271,-5.2101697 -2.201692,0 -3.362709,1.8711864 -3.362709,5.2101697 0,3.338983 1.161017,5.210169 3.362709,5.210169 2.2017,0 3.36271,-1.871186 3.36271,-5.210169"
         id="path3"
         fill="#ffffff" />
      <polygon
         id="polygon3"
         fill="#ffffff"
         points="108.23559,1.6154848 120.14746,1.6154848 120.14746,5.0968407 116.26271,5.0968407 116.26271,18.856163 112.18983,18.856163 112.18983,5.0968407 108.23559,5.0968407 " />
      <polygon
         id="polygon4"
         fill="#ffffff"
         points="139.62034,15.374807 145.09491,15.374807 145.09491,18.856163 135.54746,18.856163 135.54746,1.6154848 139.62034,1.6154848 " />
      <path
         d="m 129.47119,18.856163 h 4.07457 c 0,-6.784746 -1.85762,-13.2118647 -4.61864,-17.2423731 h -4.34576 c -2.76102,4.0288135 -4.61865,10.4576271 -4.61865,17.2423731 h 4.07458 c 0,-1.222034 0.0542,-2.435594 0.16102,-3.637288 h 5.11186 c 0.10678,1.203389 0.16102,2.416949 0.16102,3.637288 z m -4.82543,-7 c 0.44407,-2.4728816 1.13729,-4.8762715 2.10848,-7.1711867 0.97118,2.2949152 1.6644,4.6983051 2.10847,7.1711867 h -4.21525 z"
         id="path4"
         fill="#ffffff" />
    </g>
    <g
       id="g10">
      <path
         d="m 27.279661,7.1171797 -0.0068,10.3288133 c 0,0 -5.028813,-5.294915 -9.016949,-6.888135 v 5.522034 c -0.0034,2.68983 -2.267796,4.015254 -4.615254,3.994915 C 8.9254237,20.074807 1.8322034,15.042603 0,12.959553 L 0.00508475,2.6324339 c 0,0 5.02881355,5.2915254 9.01694915,6.8847458 l 0.00339,-5.5220339 c 0,-2.6898305 2.2644071,-4.01525425 4.6152541,-3.99491526541 4.711864,0 11.805085,5.03220336541 13.637288,7.11525426541"
         id="path5"
         fill="#de4ae4" />
      <path
         d="m 38.094915,17.718875 v -4.167797 c 1.586441,1.161017 3.389831,1.894915 4.977966,1.894915 1.588136,0 2.394916,-0.733898 2.394916,-1.633898 0,-2.486441 -7.681356,-1.467797 -7.681356,-7.3186441 0,-3.3152543 2.347457,-5.2576272 5.971186,-5.2576272 1.728814,0 3.627119,0.4728814 4.952542,1.301695 V 6.6341288 C 47.501695,5.6154848 45.79322,5.0002305 44.277966,5.0002305 c -1.350847,0 -2.39661,0.5457628 -2.39661,1.420339 0,2.4864407 7.681356,1.4677966 7.681356,7.3186445 0,3.315254 -2.466102,5.494915 -6.232204,5.494915 -1.918644,0 -3.935593,-0.520339 -5.237288,-1.515254"
         id="path6"
         fill="#ffffff" />
      <path
         d="m 51.388136,1.6137899 h 4.074576 V 12.308705 c 0,2.154237 0.998305,3.137288 2.418644,3.137288 1.420339,0 2.394915,-1.015254 2.394915,-3.137288 V 1.6137899 h 4.072882 V 12.244298 c 0,4.754238 -2.774577,6.989831 -6.51695,6.989831 -3.742373,0 -6.445762,-2.283051 -6.445762,-6.989831 V 1.6137899 Z"
         id="path7"
         fill="#ffffff" />
      <path
         d="m 66.861017,1.6154848 h 5.60339 c 4.705085,0 6.345762,1.8915254 6.355932,4.5694915 0.0051,1.6033898 -0.688136,2.6288136 -1.676271,3.3 1.659322,1.0372877 2.845762,2.5067797 2.845762,4.6237287 0,2.842373 -1.713559,4.747458 -5.955932,4.747458 H 66.862712 V 1.6154848 Z m 6.28983,3.479661 h -2.216949 v 4 c 0,0 4.122034,-0.7050848 4.122034,-2.5711865 0,-1 -0.764407,-1.4288135 -1.905085,-1.4288135 z m 1.344068,6.0271182 c 0,0 -2.106779,0.823729 -3.562712,1.184746 v 3.067797 h 2.474577 c 1.747457,0 2.561017,-0.701695 2.561017,-1.911865 0,-1.108474 -0.674577,-1.806779 -1.474577,-2.340678 z"
         id="path8"
         fill="#ffffff" />
      <polygon
         id="polygon8"
         fill="#ffffff"
         points="80.132203,1.6154848 92.044068,1.6154848 92.044068,5.0968407 88.159322,5.0968407 88.159322,18.856163 84.086441,18.856163 84.086441,5.0968407 80.132203,5.0968407 " />
      <path
         d="m 92.655932,10.235824 c 0,-5.684746 2.771187,-9.0000003 7.484748,-9.0000003 4.71356,0 7.48305,3.3152543 7.48305,9.0000003 0,5.684745 -2.77119,9 -7.48305,9 -4.711866,0 -7.484748,-3.315255 -7.484748,-9 m 10.845758,0 c 0,-3.3389833 -1.16101,-5.2101697 -3.36271,-5.2101697 -2.201692,0 -3.362709,1.8711864 -3.362709,5.2101697 0,3.338983 1.161017,5.210169 3.362709,5.210169 2.2017,0 3.36271,-1.871186 3.36271,-5.210169"
         id="path9"
         fill="#ffffff" />
      <polygon
         id="polygon9"
         fill="#ffffff"
         points="108.23559,1.6154848 120.14746,1.6154848 120.14746,5.0968407 116.26271,5.0968407 116.26271,18.856163 112.18983,18.856163 112.18983,5.0968407 108.23559,5.0968407 " />
      <polygon
         id="polygon10"
         fill="#ffffff"
         points="139.62034,15.374807 145.09491,15.374807 145.09491,18.856163 135.54746,18.856163 135.54746,1.6154848 139.62034,1.6154848 " />
      <path
         d="m 129.47119,18.856163 h 4.07457 c 0,-6.784746 -1.85762,-13.2118647 -4.61864,-17.2423731 h -4.34576 c -2.76102,4.0288135 -4.61865,10.4576271 -4.61865,17.2423731 h 4.07458 c 0,-1.222034 0.0542,-2.435594 0.16102,-3.637288 h 5.11186 c 0.10678,1.203389 0.16102,2.416949 0.16102,3.637288 z m -4.82543,-7 c 0.44407,-2.4728816 1.13729,-4.8762715 2.10848,-7.1711867 0.97118,2.2949152 1.6644,4.6983051 2.10847,7.1711867 h -4.21525 z"
         id="path10"
         fill="#ffffff" />
    </g>
  </g>
  <path
     d="m 179.9707,16.709961 h 6.167 v 0.830078 h -2.5879 V 24 h -0.99121 v -6.459961 h -2.58789 z m 11.12598,3.989258 V 24 h -0.89844 v -3.271484 q 0,-0.776368 -0.30273,-1.16211 -0.30274,-0.385742 -0.90821,-0.385742 -0.72753,0 -1.14746,0.463867 -0.41992,0.463867 -0.41992,1.264649 V 24 h -0.90332 v -7.597656 h 0.90332 v 2.978515 q 0.32227,-0.493164 0.75684,-0.737304 0.43945,-0.244141 1.01074,-0.244141 0.94238,0 1.42578,0.585938 0.4834,0.581054 0.4834,1.713867 z m 5.96973,0.341797 v 0.439453 h -4.13086 q 0.0586,0.927734 0.55664,1.416015 0.50293,0.483399 1.39648,0.483399 0.51758,0 1.00098,-0.126953 0.48828,-0.126953 0.9668,-0.38086 v 0.84961 q -0.4834,0.205078 -0.99122,0.3125 -0.50781,0.107422 -1.03027,0.107422 -1.30859,0 -2.07519,-0.761719 -0.76172,-0.761719 -0.76172,-2.060547 0,-1.342774 0.72265,-2.128906 0.72754,-0.791016 1.95801,-0.791016 1.10352,0 1.74316,0.712891 0.64454,0.708007 0.64454,1.928711 z m -0.89844,-0.263672 q -0.01,-0.737305 -0.41504,-1.176758 -0.40039,-0.439453 -1.06445,-0.439453 -0.75196,0 -1.20606,0.424804 -0.44922,0.424805 -0.51758,1.19629 z m 9.56152,2.182617 v -1.958008 h -1.61133 v -0.810547 h 2.58789 v 3.129883 q -0.57128,0.405273 -1.25976,0.615234 -0.68848,0.205079 -1.46973,0.205079 -1.70898,0 -2.67578,-0.996094 -0.96191,-1.000977 -0.96191,-2.783203 0,-1.78711 0.96191,-2.783203 0.9668,-1.000977 2.67578,-1.000977 0.71289,0 1.35254,0.175781 0.64453,0.175781 1.18652,0.517578 v 1.049805 q -0.54687,-0.463867 -1.1621,-0.698242 -0.61524,-0.234375 -1.29395,-0.234375 -1.33789,0 -2.01172,0.74707 -0.66894,0.74707 -0.66894,2.226563 0,1.474609 0.66894,2.221679 0.67383,0.747071 2.01172,0.747071 0.52246,0 0.93262,-0.08789 0.41015,-0.09277 0.7373,-0.283203 z m 4.3584,-3.798828 q -0.72266,0 -1.14258,0.566406 -0.41992,0.561523 -0.41992,1.542969 0,0.981445 0.41504,1.547851 0.41992,0.561524 1.14746,0.561524 0.71777,0 1.1377,-0.566406 0.41992,-0.566407 0.41992,-1.542969 0,-0.97168 -0.41992,-1.538086 -0.41993,-0.571289 -1.1377,-0.571289 z m 0,-0.761719 q 1.17188,0 1.84082,0.761719 0.66895,0.761719 0.66895,2.109375 0,1.342773 -0.66895,2.109375 -0.66894,0.761719 -1.84082,0.761719 -1.17676,0 -1.8457,-0.761719 -0.66407,-0.766602 -0.66407,-2.109375 0,-1.347656 0.66407,-2.109375 0.66894,-0.761719 1.8457,-0.761719 z m 3.49902,-1.99707 h 0.89844 V 24 h -0.89844 z m 5.87696,2.958984 v -2.958984 h 0.89843 V 24 h -0.89843 v -0.820313 q -0.28321,0.488282 -0.71778,0.72754 -0.42968,0.234375 -1.03515,0.234375 -0.99121,0 -1.61621,-0.791016 -0.62012,-0.791016 -0.62012,-2.080078 0,-1.289063 0.62012,-2.080078 0.625,-0.791016 1.61621,-0.791016 0.60547,0 1.03515,0.239258 0.43457,0.234375 0.71778,0.722656 z m -3.06153,1.90918 q 0,0.991211 0.40528,1.557617 0.41015,0.561523 1.12304,0.561523 0.71289,0 1.12305,-0.561523 0.41016,-0.566406 0.41016,-1.557617 0,-0.991211 -0.41016,-1.552735 -0.41016,-0.566406 -1.12305,-0.566406 -0.71289,0 -1.12304,0.566406 -0.40528,0.561524 -0.40528,1.552735 z m 12.39844,-4.321289 v 0.961914 q -0.56152,-0.268555 -1.05957,-0.400391 -0.49805,-0.131836 -0.96191,-0.131836 -0.80567,0 -1.24512,0.3125 -0.43457,0.3125 -0.43457,0.888672 0,0.483399 0.28809,0.732422 0.29296,0.244141 1.10351,0.395508 l 0.5957,0.12207 q 1.10352,0.209961 1.62598,0.742188 0.52734,0.527343 0.52734,1.416015 0,1.059571 -0.71289,1.606446 -0.708,0.546875 -2.08007,0.546875 -0.51758,0 -1.10352,-0.117188 -0.58105,-0.117187 -1.20605,-0.34668 v -1.015625 q 0.60058,0.336914 1.17675,0.507813 0.57617,0.170898 1.13282,0.170898 0.84472,0 1.30371,-0.332031 0.45898,-0.332031 0.45898,-0.947266 0,-0.537109 -0.33203,-0.839843 -0.32715,-0.302735 -1.0791,-0.454102 l -0.60059,-0.117187 q -1.10351,-0.219727 -1.59668,-0.688477 -0.49316,-0.46875 -0.49316,-1.303711 0,-0.966797 0.67871,-1.523437 0.68359,-0.556641 1.87988,-0.556641 0.5127,0 1.04492,0.09277 0.53223,0.09277 1.08887,0.278321 z m 2.32715,0.0293 v 1.552734 h 1.85059 v 0.698242 h -1.85059 v 2.96875 q 0,0.668945 0.18066,0.859375 0.18555,0.19043 0.74707,0.19043 h 0.92286 V 24 h -0.92286 q -1.04004,0 -1.43554,-0.385742 -0.39551,-0.390625 -0.39551,-1.416016 v -2.96875 h -0.65918 V 18.53125 h 0.65918 v -1.552734 z m 5.01758,4.272461 q -1.08887,0 -1.50879,0.249023 -0.41992,0.249023 -0.41992,0.849609 0,0.478516 0.3125,0.761719 0.31738,0.27832 0.85937,0.27832 0.74707,0 1.19629,-0.527343 0.4541,-0.532227 0.4541,-1.411133 v -0.200195 z m 1.79199,-0.371094 V 24 h -0.89844 v -0.830078 q -0.30761,0.498047 -0.7666,0.737305 -0.45898,0.234375 -1.12305,0.234375 -0.83984,0 -1.33789,-0.46875 -0.49316,-0.473633 -0.49316,-1.264649 0,-0.922851 0.61523,-1.391601 0.62012,-0.46875 1.84571,-0.46875 h 1.25976 v -0.08789 q 0,-0.620117 -0.41015,-0.957031 -0.40528,-0.341797 -1.14258,-0.341797 -0.46875,0 -0.91309,0.112304 -0.44433,0.112305 -0.85449,0.336915 v -0.830079 q 0.49316,-0.190429 0.95703,-0.283203 0.46387,-0.09766 0.90332,-0.09766 1.18652,0 1.77246,0.615234 0.58594,0.615235 0.58594,1.865235 z m 5.89648,-0.180664 V 24 h -0.89843 v -3.271484 q 0,-0.776368 -0.30274,-1.16211 -0.30273,-0.385742 -0.9082,-0.385742 -0.72754,0 -1.14746,0.463867 -0.41992,0.463867 -0.41992,1.264649 V 24 h -0.90332 v -5.46875 h 0.90332 v 0.849609 q 0.32226,-0.493164 0.75683,-0.737304 0.43946,-0.244141 1.01074,-0.244141 0.94239,0 1.42579,0.585938 0.48339,0.581054 0.48339,1.713867 z m 4.89063,-1.337891 v -2.958984 h 0.89844 V 24 h -0.89844 v -0.820313 q -0.2832,0.488282 -0.71777,0.72754 -0.42969,0.234375 -1.03516,0.234375 -0.99121,0 -1.61621,-0.791016 -0.62012,-0.791016 -0.62012,-2.080078 0,-1.289063 0.62012,-2.080078 0.625,-0.791016 1.61621,-0.791016 0.60547,0 1.03516,0.239258 0.43457,0.234375 0.71777,0.722656 z m -3.06152,1.90918 q 0,0.991211 0.40527,1.557617 0.41016,0.561523 1.12305,0.561523 0.71289,0 1.12304,-0.561523 0.41016,-0.566406 0.41016,-1.557617 0,-0.991211 -0.41016,-1.552735 -0.41015,-0.566406 -1.12304,-0.566406 -0.71289,0 -1.12305,0.566406 -0.40527,0.561524 -0.40527,1.552735 z m 7.79589,-0.01953 q -1.08886,0 -1.50878,0.249023 -0.41993,0.249023 -0.41993,0.849609 0,0.478516 0.3125,0.761719 0.31739,0.27832 0.85938,0.27832 0.74707,0 1.19629,-0.527343 0.4541,-0.532227 0.4541,-1.411133 v -0.200195 z m 1.792,-0.371094 V 24 h -0.89844 v -0.830078 q -0.30762,0.498047 -0.7666,0.737305 -0.45899,0.234375 -1.12305,0.234375 -0.83984,0 -1.33789,-0.46875 -0.49316,-0.473633 -0.49316,-1.264649 0,-0.922851 0.61523,-1.391601 0.62012,-0.46875 1.8457,-0.46875 h 1.25977 v -0.08789 q 0,-0.620117 -0.41016,-0.957031 -0.40527,-0.341797 -1.14258,-0.341797 -0.46875,0 -0.91308,0.112304 -0.44434,0.112305 -0.85449,0.336915 v -0.830079 q 0.49316,-0.190429 0.95703,-0.283203 0.46386,-0.09766 0.90332,-0.09766 1.18652,0 1.77246,0.615234 0.58594,0.615235 0.58594,1.865235 z m 4.51953,-1.508789 q -0.15137,-0.08789 -0.33203,-0.126953 -0.17578,-0.04395 -0.39063,-0.04395 -0.76172,0 -1.17187,0.498047 -0.40528,0.493164 -0.40528,1.420899 V 24 h -0.90332 v -5.46875 h 0.90332 v 0.849609 q 0.28321,-0.498047 0.73731,-0.737304 0.4541,-0.244141 1.10351,-0.244141 0.0928,0 0.20508,0.01465 0.11231,0.0098 0.24902,0.03418 z m 3.86523,-0.0098 v -2.958984 h 0.89844 V 24 h -0.89844 v -0.820313 q -0.2832,0.488282 -0.71777,0.72754 -0.42969,0.234375 -1.03516,0.234375 -0.99121,0 -1.61621,-0.791016 -0.62012,-0.791016 -0.62012,-2.080078 0,-1.289063 0.62012,-2.080078 0.625,-0.791016 1.61621,-0.791016 0.60547,0 1.03516,0.239258 0.43457,0.234375 0.71777,0.722656 z m -3.06152,1.90918 q 0,0.991211 0.40527,1.557617 0.41016,0.561523 1.12305,0.561523 0.71289,0 1.12305,-0.561523 0.41015,-0.566406 0.41015,-1.557617 0,-0.991211 -0.41015,-1.552735 -0.41016,-0.566406 -1.12305,-0.566406 -0.71289,0 -1.12305,0.566406 -0.40527,0.561524 -0.40527,1.552735 z m 7.98926,-2.739258 h 0.89843 V 24 h -0.89843 z m 0,-2.128906 h 0.89843 v 1.137695 h -0.89843 z m 6.82422,4.296875 V 24 h -0.89844 v -3.271484 q 0,-0.776368 -0.30274,-1.16211 -0.30273,-0.385742 -0.9082,-0.385742 -0.72754,0 -1.14746,0.463867 -0.41992,0.463867 -0.41992,1.264649 V 24 h -0.90332 v -5.46875 h 0.90332 v 0.849609 q 0.32226,-0.493164 0.75683,-0.737304 0.43946,-0.244141 1.01075,-0.244141 0.94238,0 1.42578,0.585938 0.4834,0.581054 0.4834,1.713867 z m 7.46679,-0.117188 q 0.31738,0.107422 0.61524,0.458985 0.30273,0.351562 0.60547,0.966796 L 285.07617,24 h -1.05957 l -0.93262,-1.870117 q -0.36132,-0.732422 -0.70312,-0.97168 -0.33691,-0.239258 -0.92285,-0.239258 h -1.07422 V 24 h -0.98633 v -7.290039 h 2.22656 q 1.25,0 1.86524,0.522461 0.61523,0.522461 0.61523,1.577148 0,0.688477 -0.32226,1.142578 -0.31739,0.454102 -0.92774,0.629883 z m -2.4707,-3.061523 v 2.58789 h 1.24023 q 0.71289,0 1.07422,-0.327148 0.36621,-0.332031 0.36621,-0.97168 0,-0.639648 -0.36621,-0.961914 -0.36133,-0.327148 -1.07422,-0.327148 z m 9.65137,3.520508 v 0.439453 h -4.13086 q 0.0586,0.927734 0.55664,1.416015 0.50293,0.483399 1.39648,0.483399 0.51758,0 1.00098,-0.126953 0.48828,-0.126953 0.9668,-0.38086 v 0.84961 q -0.4834,0.205078 -0.99122,0.3125 -0.50781,0.107422 -1.03027,0.107422 -1.30859,0 -2.07519,-0.761719 -0.76172,-0.761719 -0.76172,-2.060547 0,-1.342774 0.72265,-2.128906 0.72754,-0.791016 1.95801,-0.791016 1.10352,0 1.74316,0.712891 0.64454,0.708007 0.64454,1.928711 z m -0.89844,-0.263672 q -0.01,-0.737305 -0.41504,-1.176758 -0.40039,-0.439453 -1.06445,-0.439453 -0.75196,0 -1.20606,0.424804 -0.44922,0.424805 -0.51758,1.19629 z m 2.76172,-3.798828 v 1.552734 h 1.85058 v 0.698242 h -1.85058 v 2.96875 q 0,0.668945 0.18066,0.859375 0.18555,0.19043 0.74707,0.19043 h 0.92285 V 24 h -0.92285 q -1.04004,0 -1.43555,-0.385742 -0.3955,-0.390625 -0.3955,-1.416016 v -2.96875 h -0.65918 V 18.53125 h 0.65918 v -1.552734 z m 5.01758,4.272461 q -1.08887,0 -1.50879,0.249023 -0.41993,0.249023 -0.41993,0.849609 0,0.478516 0.3125,0.761719 0.31739,0.27832 0.85938,0.27832 0.74707,0 1.19629,-0.527343 0.4541,-0.532227 0.4541,-1.411133 v -0.200195 z m 1.79199,-0.371094 V 24 h -0.89844 v -0.830078 q -0.30762,0.498047 -0.7666,0.737305 -0.45899,0.234375 -1.12305,0.234375 -0.83984,0 -1.33789,-0.46875 -0.49316,-0.473633 -0.49316,-1.264649 0,-0.922851 0.61523,-1.391601 0.62012,-0.46875 1.8457,-0.46875 h 1.25977 v -0.08789 q 0,-0.620117 -0.41016,-0.957031 -0.40527,-0.341797 -1.14257,-0.341797 -0.46875,0 -0.91309,0.112304 -0.44434,0.112305 -0.85449,0.336915 v -0.830079 q 0.49316,-0.190429 0.95703,-0.283203 0.46387,-0.09766 0.90332,-0.09766 1.18652,0 1.77246,0.615234 0.58594,0.615235 0.58594,1.865235 z m 1.35058,-2.348633 h 0.89844 V 24 h -0.89844 z m 0,-2.128906 h 0.89844 v 1.137695 h -0.89844 z m 2.27832,0 h 0.89844 V 24 h -0.89844 z m 7.43262,1.279297 -1.33789,3.627929 h 2.68066 z m -0.55664,-0.97168 h 1.11816 L 313.10937,24 h -1.02539 l -0.66406,-1.870117 h -3.28613 L 307.46973,24 h -1.04004 z m 8.18164,2.03125 v 0.839844 q -0.38086,-0.209961 -0.7666,-0.3125 -0.38086,-0.107422 -0.77148,-0.107422 -0.87403,0 -1.35743,0.55664 -0.4834,0.551758 -0.4834,1.552735 0,1.000976 0.4834,1.557617 0.4834,0.551758 1.35743,0.551758 0.39062,0 0.77148,-0.102539 0.38574,-0.107422 0.7666,-0.317383 v 0.830078 q -0.37598,0.175781 -0.78125,0.263672 -0.40039,0.08789 -0.85449,0.08789 -1.23535,0 -1.96289,-0.776368 -0.72754,-0.776367 -0.72754,-2.094726 0,-1.337891 0.73242,-2.104492 0.73731,-0.766602 2.0166,-0.766602 0.41504,0 0.81055,0.08789 0.39551,0.08301 0.7666,0.253906 z m 4.99805,0 v 0.839844 q -0.38086,-0.209961 -0.7666,-0.3125 -0.38086,-0.107422 -0.77149,-0.107422 -0.87402,0 -1.35742,0.55664 -0.4834,0.551758 -0.4834,1.552735 0,1.000976 0.4834,1.557617 0.4834,0.551758 1.35742,0.551758 0.39063,0 0.77149,-0.102539 0.38574,-0.107422 0.7666,-0.317383 v 0.830078 q -0.37598,0.175781 -0.78125,0.263672 -0.40039,0.08789 -0.85449,0.08789 -1.23536,0 -1.96289,-0.776368 -0.72754,-0.776367 -0.72754,-2.094726 0,-1.337891 0.73242,-2.104492 0.7373,-0.766602 2.0166,-0.766602 0.41504,0 0.81055,0.08789 0.3955,0.08301 0.7666,0.253906 z m 3.18164,0.419922 q -0.72266,0 -1.14258,0.566406 -0.41992,0.561523 -0.41992,1.542969 0,0.981445 0.41504,1.547851 0.41992,0.561524 1.14746,0.561524 0.71777,0 1.13769,-0.566406 0.41993,-0.566407 0.41993,-1.542969 0,-0.97168 -0.41993,-1.538086 -0.41992,-0.571289 -1.13769,-0.571289 z m 0,-0.761719 q 1.17187,0 1.84082,0.761719 0.66894,0.761719 0.66894,2.109375 0,1.342773 -0.66894,2.109375 -0.66895,0.761719 -1.84082,0.761719 -1.17676,0 -1.8457,-0.761719 -0.66407,-0.766602 -0.66407,-2.109375 0,-1.347656 0.66407,-2.109375 0.66894,-0.761719 1.8457,-0.761719 z m 3.40625,3.442383 V 18.53125 h 0.89844 v 3.276367 q 0,0.776367 0.30273,1.166992 0.30273,0.385743 0.9082,0.385743 0.72754,0 1.14746,-0.463868 0.42481,-0.463867 0.42481,-1.264648 V 18.53125 h 0.89844 V 24 h -0.89844 v -0.839844 q -0.32715,0.498047 -0.76172,0.742188 -0.42969,0.239258 -1.00098,0.239258 -0.94238,0 -1.43066,-0.585938 -0.48828,-0.585937 -0.48828,-1.713867 z m 2.26074,-3.442383 z m 8.21582,2.299805 V 24 h -0.89844 v -3.271484 q 0,-0.776368 -0.30273,-1.16211 -0.30274,-0.385742 -0.9082,-0.385742 -0.72754,0 -1.14746,0.463867 -0.41993,0.463867 -0.41993,1.264649 V 24 h -0.90332 v -5.46875 h 0.90332 v 0.849609 q 0.32227,-0.493164 0.75684,-0.737304 0.43945,-0.244141 1.01074,-0.244141 0.94238,0 1.42578,0.585938 0.4834,0.581054 0.4834,1.713867 z m 2.18067,-3.720703 v 1.552734 h 1.85058 v 0.698242 h -1.85058 v 2.96875 q 0,0.668945 0.18066,0.859375 0.18555,0.19043 0.74707,0.19043 h 0.92285 V 24 h -0.92285 q -1.04004,0 -1.43555,-0.385742 -0.39551,-0.390625 -0.39551,-1.416016 v -2.96875 H 340.0752 V 18.53125 h 0.65917 v -1.552734 z m 5.25,-0.268555 h 0.98632 v 6.459961 h 3.54981 V 24 h -4.53613 z m 5.03222,1.821289 h 0.89844 V 24 h -0.89844 z m 0,-2.128906 h 0.89844 v 1.137695 h -0.89844 z m 6.82422,4.296875 V 24 h -0.89844 v -3.271484 q 0,-0.776368 -0.30273,-1.16211 -0.30274,-0.385742 -0.9082,-0.385742 -0.72754,0 -1.14747,0.463867 -0.41992,0.463867 -0.41992,1.264649 V 24 h -0.90332 v -5.46875 h 0.90332 v 0.849609 q 0.32227,-0.493164 0.75684,-0.737304 0.43945,-0.244141 1.01074,-0.244141 0.94238,0 1.42578,0.585938 0.4834,0.581054 0.4834,1.713867 z m 1.25781,-4.296875 h 0.90332 v 4.487304 l 2.68067,-2.358398 h 1.14746 L 361.83301,21.089844 364.85547,24 h -1.17188 l -2.77832,-2.670898 V 24 h -0.90332 z m 5.3252,2.128906 h 0.89844 V 24 h -0.89844 z m 0,-2.128906 h 0.89844 v 1.137695 h -0.89844 z m 6.82422,4.296875 V 24 h -0.89844 v -3.271484 q 0,-0.776368 -0.30273,-1.16211 -0.30274,-0.385742 -0.90821,-0.385742 -0.72754,0 -1.14746,0.463867 -0.41992,0.463867 -0.41992,1.264649 V 24 h -0.90332 v -5.46875 h 0.90332 v 0.849609 q 0.32226,-0.493164 0.75684,-0.737304 0.43945,-0.244141 1.01074,-0.244141 0.94238,0 1.42578,0.585938 0.4834,0.581054 0.4834,1.713867 z m 4.89062,0.502929 q 0,-0.976562 -0.40527,-1.513671 -0.40039,-0.53711 -1.12793,-0.53711 -0.72266,0 -1.12793,0.53711 -0.40039,0.537109 -0.40039,1.513671 0,0.97168 0.40039,1.508789 0.40527,0.53711 1.12793,0.53711 0.72754,0 1.12793,-0.53711 0.40527,-0.537109 0.40527,-1.508789 z m 0.89844,2.119141 q 0,1.396484 -0.62012,2.075195 -0.62011,0.683594 -1.89941,0.683594 -0.47363,0 -0.89356,-0.07324 -0.41992,-0.06836 -0.81543,-0.214844 v -0.874023 q 0.39551,0.214843 0.78125,0.317383 0.38575,0.102539 0.78614,0.102539 0.88379,0 1.32324,-0.463868 0.43945,-0.458984 0.43945,-1.391601 v -0.444336 q -0.27832,0.483398 -0.71289,0.722656 Q 375.89453,24 375.28906,24 q -1.00586,0 -1.62109,-0.766602 -0.61524,-0.766601 -0.61524,-2.03125 0,-1.269531 0.61524,-2.036132 0.61523,-0.766602 1.62109,-0.766602 0.60547,0 1.04004,0.239258 0.43457,0.239258 0.71289,0.722656 V 18.53125 h 0.89844 z"
     id="The-Gold-Standard-in"
     style="font-weight:500;font-size:10px;font-family:OpenSansRoman-SemiBold, 'Open Sans';letter-spacing:-0.5;fill:#ffffff;fill-opacity:0.8;fill-rule:evenodd"
     aria-label="The Gold Standard in Retail Account Linking" />
</svg>
