<svg fill="none" height="100" viewBox="0 0 240 100" width="240" xmlns="http://www.w3.org/2000/svg" xmlns:xlink="http://www.w3.org/1999/xlink"><clipPath id="a"><path d="m0 0h240v100h-240z"/></clipPath><mask id="b" height="512" maskUnits="userSpaceOnUse" width="1024" x="-327" y="-7"><path d="m0 0h1024v512h-1024z" fill="#c4c4c4" transform="matrix(1 0 0 -1 -327 505)"/></mask><g clip-path="url(#a)"><path d="m0 0h240v100h-240z" fill="#fff"/><rect fill="#225556" height="100" rx="2" width="240"/><rect height="99" rx="1.5" stroke="#d9d9d9" stroke-opacity=".8" width="239" x=".5" y=".5"/><path d="m114.159 35.8299c-.612.1933-1.252.2903-1.895.2874-1.749 0-2.186-.8622-2.186-3.0176v-7.6158h3.644v-2.7302h-3.644v-6.7537l-3.935 1.1496v5.6041h-1.895v2.8739h1.895v7.9032c0 3.736 1.603 5.4604 5.101 5.4604 1.087.0477 2.173-.0984 3.207-.4311zm-26.0895-2.1554c-.7288 4.3108-4.0811 5.3167-6.8504 5.3167-5.3928 0-7.4334-3.4487-7.4334-8.0469 0-5.3167 2.9151-8.6217 7.7249-8.6217 4.3726 0 6.7047 2.8739 6.7047 7.4721v1.7243h-10.4943c0 2.7302.8746 4.5983 3.6439 4.5983.4137.0394.8313-.0047 1.2272-.1296s.7619-.328 1.0755-.5969c.3137-.2689.5686-.598.749-.9672s.2827-.7708.3006-1.1802zm-3.7896-4.742c0-2.4428-.8745-3.8797-3.0608-3.8797s-3.4981 1.868-3.6438 3.8797zm44.6001-12.9325v22.9912h-1.894v-2.5865c-.518.8268-1.251 1.5025-2.122 1.9572-.871.4546-1.849.6719-2.834.6293-3.935 0-6.559-2.1554-6.559-7.9032 0-5.6041 2.478-8.6217 6.705-8.6217.913-.0508 1.824.1346 2.642.5379s1.515 1.0104 2.022 1.7612v-8.7654zm-6.413 8.1906c-3.206 0-4.955 2.1554-4.955 6.8974 0 4.7419 1.749 6.3225 4.518 6.3225s4.956-1.7243 4.956-6.7536-2.041-6.4663-4.519-6.4663zm17.199 3.8798c.437-2.8739-.291-3.4487-1.895-3.4487-2.915 0-3.935 2.5865-3.935 5.6041v8.7654h-2.186v-15.8065h2.186l.146 2.4429c.334-.8688.935-1.6129 1.719-2.1282s1.711-.776 2.653-.7457c2.478 0 4.081 1.4369 3.498 5.173zm4.373-4.8857h2.04v15.8065h-2.04zm0-7.1847h2.04v3.0176h-2.04zm9.911 22.9912-5.83-15.8065h2.186l4.518 13.22 4.519-13.22h2.186l-5.83 15.8065zm20.697-5.3167c-.019.7297-.185 1.4484-.49 2.1135s-.743 1.2632-1.286 1.7589c-.544.4957-1.183.8789-1.879 1.127-.696.248-1.436.3559-2.175.3173-5.248 0-6.851-3.5924-6.851-8.0469 0-5.0294 2.332-8.478 7.142-8.478 4.227 0 6.267 3.1613 5.83 8.6217h-10.931c0 3.3049 1.166 6.1788 4.81 6.1788.54.0598 1.087.0086 1.606-.1503.519-.159.999-.4223 1.41-.7733s.744-.7821.977-1.2662c.233-.484.362-1.0105.379-1.5462zm-1.604-4.1672c0-3.0176-1.02-5.3167-4.372-5.3167s-4.664 2.5865-4.664 5.3167zm16.616 9.4839h-1.895v-9.1965c0-3.7361-1.311-5.173-3.935-5.173-3.644 0-4.664 2.7302-4.664 5.3167v9.0528h-2.04v-15.8065h1.894l.146 2.4429c.453-.9026 1.163-1.6552 2.043-2.1657s1.893-.7566 2.913-.7082c3.789 0 5.83 2.1554 5.83 6.7536zm-90.8038-11.4956c-.0176-.353-.1085-.6987-.2669-1.0158-.1585-.3171-.3812-.5987-.6543-.8276-.2732-.229-.591-.4002-.934-.5033-.3429-.1031-.7036-.1358-1.0598-.0961-1.4576 0-2.4778.5748-2.4778 1.7243 0 3.5924 9.0366.5748 9.0366 7.0411 0 3.3049-3.2065 5.173-6.8504 5.173-3.9353 0-6.1216-2.0118-6.7046-5.3167l3.4981-.2874c.0179.4094.1201.811.3006 1.1802.1804.3692.4352.6982.7489.9672.3137.2689.6797.472 1.0756.5969s.8134.169 1.2272.1296c1.8948 0 2.9151-.8622 2.9151-1.8681 0-3.736-8.891-.8621-8.891-7.041 0-3.1613 2.7693-4.8856 6.2674-4.8856s5.6841 1.4369 6.1221 4.3108zm-26.0898 8.3343c-.5657.179-1.1549.2758-1.749.2874-1.749 0-2.1863-.8622-2.1863-3.0176v-7.6158h3.6438v-2.7302h-3.6438v-6.7537l-3.9353 1.1496v5.6041h-1.8948v2.8739h1.8948v7.9032c0 3.736 1.4575 5.4604 5.1013 5.4604 1.0865.0477 2.1728-.0984 3.2066-.4311zm127.5336-4.8856c0-5.3167 2.915-8.0469 7.142-8.0469s6.559 2.7302 6.559 7.7595c0 5.4604-2.478 8.3343-6.85 8.3343-4.664 0-6.851-2.8739-6.851-8.0469zm11.66-.1437c0-3.5924-1.311-6.3226-4.664-6.3226-3.352 0-4.809 2.8739-4.809 6.4663 0 3.5923 1.166 6.4662 4.809 6.4662 3.644 0 4.664-2.8739 4.664-6.6099zm-19.968 5.173h2.041v3.0176h-2.041zm4.081-12.7889h2.041v15.8065h-2.041zm0-7.1847h2.041v3.0176h-2.041z" fill="#fff"/><path d="m27.3271 16.7209 2.3271 1.3384 11.6208-6.7209-2.3271-1.3384zm13.9479-5.3825 2.327-1.3384 11.6353 6.7209-2.327 1.3384zm13.9623 8.0593-2.327-1.3384-11.6353 6.7064 2.327 1.3529zm-13.9623 5.368-2.3271 1.3529-11.6208-6.7209 2.3271-1.3384z" fill="#d2edf3"/><path d="m41.2749 43.5755 2.3271-1.3529v-13.4273l-2.3271 1.3529zm2.3271-14.7802v-2.6767l11.6353-6.721v2.6913zm13.9478-8.0593-2.3125 1.3529-.0146 13.4273 2.3271-1.3529zm-2.3271 14.7802v2.6768l-11.6207 6.7209v-2.6913z" fill="#76cede"/><path d="m41.2749 43.5755-2.3271-1.3529v-13.4273l2.3271 1.3529zm-2.3271-14.7802v-2.6767l-11.6207-6.721v2.6913zm-13.9478-8.0593 2.3271 1.3529v13.4273l-2.3271-1.3529zm2.3271 14.7802v2.6768l11.6207 6.7209v-2.6913z" fill="#399"/><path d="m41.2748 24.7655-2.327 1.353v2.6767l2.327-1.3384z" fill="#76cede"/><path d="m38.9478 28.7953 2.327 1.353 2.3271-1.353-2.3271-1.3383z" fill="#d2edf3"/><path d="m41.2749 24.7655v2.6913l2.3271 1.3384v-2.6767z" fill="#399"/><path d="m55.2228 35.5165-2.3271-1.3384-9.2937 5.3681v2.6912zm-27.8957 0 2.3271-1.3384 9.2937 5.3681v2.6912z" fill="#d2edf3"/><path d="m27.3271 22.0891 2.3271 1.3383v10.7361l-2.3271 1.3529z" fill="#76cede"/><path d="m55.237 22.0891-2.3271 1.3383v10.7361l2.3125 1.3529z" fill="#399"/><path d="m41.2748 11.3382v2.6913l-9.2937 5.368-2.327-1.3383z" fill="#76cede"/><path d="m41.2749 11.3382v2.6913l9.2937 5.368 2.3416-1.3383z" fill="#399"/><path d="m31.9811 30.1484-2.327 1.3384v2.6767l2.327-1.3383z" fill="#d2edf3"/><path d="m29.6541 34.1633 2.327 1.3529 2.3271-1.3529-2.3271-1.3384z" fill="#76cede"/><path d="m31.9812 30.1484v2.6768l2.3271 1.3383v-2.6767z" fill="#399"/><path d="m38.9478 18.0595 2.327 1.3383 2.3271-1.3383-2.3271-1.353z" fill="#d2edf3"/><path d="m43.602 18.0593v-2.6912l-2.3271-1.3384v2.6767z" fill="#76cede"/><path d="m38.9478 18.0593 2.327-1.3529v-2.6767l-2.327 1.3384z" fill="#399"/><path d="m48.2561 34.1633 2.3271 1.3529 2.327-1.3529-2.327-1.3384z" fill="#76cede"/><path d="m52.9103 34.1635v-2.6767l-2.327-1.3384v2.6768z" fill="#d2edf3"/><path d="m48.2561 34.1635 2.3271-1.3383v-2.6768l-2.3271 1.3384z" fill="#399"/><path d="m38.9477 28.7952-4.6396 2.6913v2.6767l4.6396-2.6767z" fill="#76cede"/><path d="m38.9478 28.7953-4.6395 2.6913-2.3271-1.3383 4.6541-2.6913z" fill="#d2edf3"/><path d="m41.2748 24.7657v-5.368l-2.327-1.3383v5.368z" fill="#399"/><path d="m41.2749 24.7657v-5.368l2.3271-1.3383v5.368zm2.3271 4.0297 4.6541 2.6913v2.6767l-4.6541-2.6767z" fill="#76cede"/><path d="m43.6021 28.7953 4.6541 2.6913 2.327-1.3383-4.6541-2.6913z" fill="#d2edf3"/><path d="m41.275 43.5612 2.327 1.3529v-2.6913zm-11.6208-25.5017-2.3271-1.3384v2.6767" fill="#399"/><path d="m41.2748 43.5609-2.327 1.3529v-2.6913" fill="#76cede"/><path d="m55.2373 19.3976 2.327 1.3384-2.327 1.3384zm-27.9102 2.6768-2.3271-1.3384 2.3271-1.3384" fill="#d2edf3"/><path d="m52.9099 18.0595 2.3271-1.3384v2.6767" fill="#76cede"/><g fill="#fff"><path d="m11 56h2v9.696h5.808v1.728h-7.808z"/><path d="m25.1315 62.56c-.0213-.288-.0853-.5653-.192-.832-.096-.2667-.2347-.496-.416-.688-.1707-.2027-.384-.3627-.64-.48-.2453-.128-.5227-.192-.832-.192-.32 0-.6133.0587-.88.176-.256.1067-.48.2613-.672.464-.1813.192-.3307.4213-.448.688-.1067.2667-.1653.5547-.176.864zm-4.256 1.2c0 .32.0427.6293.128.928.096.2987.2347.56.416.784s.4107.4053.688.544c.2773.128.608.192.992.192.5333 0 .96-.112 1.28-.336.3307-.2347.576-.5813.736-1.04h1.728c-.096.448-.2613.848-.496 1.2s-.5173.6507-.848.896c-.3307.2347-.704.4107-1.12.528-.4053.128-.832.192-1.28.192-.6507 0-1.2267-.1067-1.728-.32s-.928-.512-1.28-.896c-.3413-.384-.6027-.8427-.784-1.376-.1707-.5333-.256-1.12-.256-1.76 0-.5867.0907-1.1413.272-1.664.192-.5333.4587-.9973.8-1.392.352-.4053.7733-.7253 1.264-.96s1.0453-.352 1.664-.352c.6507 0 1.232.1387 1.744.416.5227.2667.9547.624 1.296 1.072s.5867.9653.736 1.552c.16.576.2027 1.1733.128 1.792z"/><path d="m34.7901 65.584c0 .224.0267.384.08.48.064.096.1814.144.352.144h.192c.0747 0 .16-.0107.256-.032v1.264c-.064.0213-.1493.0427-.256.064-.096.032-.1973.0587-.304.08-.1066.0213-.2133.0373-.32.048-.1066.0107-.1973.016-.272.016-.3733 0-.6826-.0747-.928-.224-.2453-.1493-.4053-.4107-.48-.784-.3626.352-.8106.608-1.344.768-.5226.16-1.0293.24-1.52.24-.3733 0-.7306-.0533-1.072-.16-.3413-.096-.6453-.24-.912-.432-.256-.2027-.464-.4533-.624-.752-.1493-.3093-.224-.6667-.224-1.072 0-.512.0907-.928.272-1.248.192-.32.4374-.5707.736-.752.3094-.1813.6507-.3093 1.024-.384.384-.0853.768-.1493 1.152-.192.3307-.064.6454-.1067.944-.128.2987-.032.56-.08.784-.144.2347-.064.416-.16.544-.288.1387-.1387.208-.3413.208-.608 0-.2347-.0586-.4267-.176-.576-.1066-.1493-.2453-.2613-.416-.336-.16-.0853-.3413-.1387-.544-.16-.2026-.032-.3946-.048-.576-.048-.512 0-.9333.1067-1.264.32-.3306.2133-.5173.544-.56.992h-1.824c.032-.5333.16-.976.384-1.328s.5067-.6347.848-.848c.352-.2133.7467-.3627 1.184-.448.4374-.0853.8854-.128 1.344-.128.4054 0 .8054.0427 1.2.128.3947.0853.7467.224 1.056.416.32.192.576.4427.768.752.192.2987.288.6667.288 1.104zm-1.824-2.304c-.2773.1813-.6186.2933-1.024.336-.4053.032-.8106.0853-1.216.16-.192.032-.3786.08-.56.144-.1813.0533-.3413.1333-.48.24-.1386.096-.2506.2293-.336.4-.0746.16-.112.3573-.112.592 0 .2027.0587.3733.176.512.1174.1387.256.2507.416.336.1707.0747.352.128.544.16.2027.032.384.048.544.048.2027 0 .4214-.0267.656-.08.2347-.0533.4534-.144.656-.272.2134-.128.3894-.288.528-.48.1387-.2027.208-.448.208-.736z"/><path d="m36.2728 59.152h1.7119v1.6h.0321c.0533-.224.1546-.4427.304-.656.16-.2133.3466-.4053.5599-.576.224-.1813.4694-.3253.736-.432.2667-.1067.5387-.16.8161-.16.2133 0 .3573.0053.4319.016.0854.0107.1707.0213.2561.032v1.76c-.128-.0213-.2614-.0373-.4001-.048-.128-.0213-.256-.032-.3839-.032-.3094 0-.6027.064-.8801.192-.2666.1173-.5013.2987-.7039.544-.2027.2347-.3627.528-.48.88-.1174.352-.1761.7573-.1761 1.216v3.936h-1.8239z"/><path d="m41.699 59.152h1.728v1.216l.032.032c.2773-.4587.64-.816 1.088-1.072.448-.2667.944-.4 1.488-.4.9067 0 1.6213.2347 2.144.704s.784 1.1733.784 2.112v5.68h-1.824v-5.2c-.0213-.6507-.16-1.12-.416-1.408-.256-.2987-.656-.448-1.2-.448-.3093 0-.5867.0587-.832.176-.2453.1067-.4533.2613-.624.464-.1707.192-.304.4213-.4.688s-.144.5493-.144.848v4.88h-1.824z"/><path d="m53.5476 56h9.248v1.728h-3.632v9.696h-2v-9.696h-3.616z"/><path d="m67.2827 62.56c-.0213-.288-.0853-.5653-.1919-.832-.096-.2667-.2347-.496-.416-.688-.1707-.2027-.3841-.3627-.6401-.48-.2453-.128-.5226-.192-.8319-.192-.32 0-.6134.0587-.88.176-.256.1067-.4801.2613-.6721.464-.1813.192-.3306.4213-.4479.688-.1067.2667-.1654.5547-.1761.864zm-4.256 1.2c0 .32.0427.6293.1281.928.096.2987.2346.56.416.784.1813.224.4106.4053.688.544.2773.128.608.192.992.192.5333 0 .96-.112 1.28-.336.3306-.2347.576-.5813.736-1.04h1.7279c-.096.448-.2613.848-.4959 1.2-.2347.352-.5174.6507-.8481.896-.3306.2347-.7039.4107-1.1199.528-.4054.128-.832.192-1.28.192-.6507 0-1.2267-.1067-1.728-.32-.5014-.2133-.9281-.512-1.2801-.896-.3413-.384-.6026-.8427-.7839-1.376-.1707-.5333-.256-1.12-.256-1.76 0-.5867.0906-1.1413.272-1.664.192-.5333.4586-.9973.7999-1.392.352-.4053.7734-.7253 1.264-.96.4907-.2347 1.0454-.352 1.6641-.352.6506 0 1.232.1387 1.744.416.5226.2667.9546.624 1.2959 1.072.3414.448.5867.9653.736 1.552.16.576.2027 1.1733.128 1.792z"/><path d="m71.3894 64.768c.0533.5333.256.9067.608 1.12s.7733.32 1.264.32c.1706 0 .3626-.0107.576-.032.224-.032.432-.0853.624-.16s.3466-.1813.464-.32c.128-.1493.1866-.3413.176-.576-.0107-.2347-.096-.4267-.256-.576s-.368-.2667-.624-.352c-.2454-.096-.528-.176-.848-.24s-.6454-.1333-.976-.208c-.3414-.0747-.672-.1653-.992-.272-.3094-.1067-.592-.2507-.848-.432-.2454-.1813-.4427-.4107-.592-.688-.1494-.288-.224-.64-.224-1.056 0-.448.1066-.8213.32-1.12.224-.3093.5013-.5547.832-.736.3413-.192.7146-.3253 1.12-.4.416-.0747.8106-.112 1.184-.112.4266 0 .832.048 1.216.144.3946.0853.7466.2293 1.056.432.32.2027.5813.4693.784.8.2133.32.3466.7093.4 1.168h-1.904c-.0854-.4373-.288-.7307-.608-.88-.3094-.1493-.6667-.224-1.072-.224-.128 0-.2827.0107-.464.032-.1707.0213-.336.064-.496.128-.1494.0533-.2774.1387-.384.256-.1067.1067-.16.2507-.16.432 0 .224.0746.4053.224.544.16.1387.3626.256.608.352.256.0853.544.16.864.224s.6506.1333.992.208c.3306.0747.656.1653.976.272s.6026.2507.848.432c.256.1813.4586.4107.608.688.16.2773.24.6187.24 1.024 0 .4907-.112.9067-.336 1.248s-.5174.6187-.88.832c-.352.2133-.7467.368-1.184.464-.4374.096-.8694.144-1.296.144-.5227 0-1.008-.0587-1.456-.176-.4374-.1173-.8214-.2933-1.152-.528-.32-.2453-.576-.544-.768-.896-.1814-.3627-.2774-.7893-.288-1.28z"/><path d="m76.9982 59.152h1.376v-2.48h1.824v2.48h1.648v1.36h-1.648v4.416c0 .192.0054.3573.016.496.0214.1387.0587.256.112.352.064.096.1547.1707.272.224.1174.0427.2774.064.48.064h.384c.1281-.0107.256-.032.384-.064v1.408c-.2026.0213-.4.0427-.592.064s-.3893.032-.592.032c-.48 0-.8693-.0427-1.168-.128-.288-.096-.5173-.2293-.688-.4-.16-.1813-.272-.4053-.336-.672-.0533-.2667-.0853-.5707-.096-.912v-4.88h-1.376z"/><path d="m82.5024 62.208h4.656v1.728h-4.656z"/><path d="m88.6731 56h4.736c.8747 0 1.632.1493 2.272.448s1.1627.7093 1.568 1.232c.4054.512.704 1.1147.896 1.808.2027.6933.304 1.4347.304 2.224s-.1013 1.5307-.304 2.224c-.192.6933-.4906 1.3013-.896 1.824-.4053.512-.928.9173-1.568 1.216s-1.3973.448-2.272.448h-4.736zm2 9.792h1.968c.7787 0 1.4134-.1013 1.904-.304.5014-.2133.8907-.5013 1.168-.864.288-.3733.48-.8053.576-1.296.1067-.5013.16-1.04.16-1.616s-.0533-1.1093-.16-1.6c-.096-.5013-.288-.9333-.576-1.296-.2773-.3733-.6666-.6613-1.168-.864-.4906-.2133-1.1253-.32-1.904-.32h-1.968z"/><path d="m99.484 59.152h1.712v1.6h.032c.053-.224.155-.4427.304-.656.16-.2133.347-.4053.56-.576.224-.1813.469-.3253.736-.432s.539-.16.816-.16c.213 0 .357.0053.432.016.085.0107.171.0213.256.032v1.76c-.128-.0213-.261-.0373-.4-.048-.128-.0213-.256-.032-.384-.032-.309 0-.603.064-.88.192-.267.1173-.501.2987-.704.544-.203.2347-.363.528-.48.88s-.176.7573-.176 1.216v3.936h-1.824z"/><path d="m104.677 56h1.824v1.728h-1.824zm0 3.152h1.824v8.272h-1.824z"/><path d="m107.192 59.152h1.984l2.096 6.352h.032l2.016-6.352h1.888l-2.96 8.272h-2.048z"/><path d="m121.505 62.56c-.021-.288-.085-.5653-.192-.832-.096-.2667-.234-.496-.416-.688-.17-.2027-.384-.3627-.64-.48-.245-.128-.522-.192-.832-.192-.32 0-.613.0587-.88.176-.256.1067-.48.2613-.672.464-.181.192-.33.4213-.448.688-.106.2667-.165.5547-.176.864zm-4.256 1.2c0 .32.043.6293.128.928.096.2987.235.56.416.784.182.224.411.4053.688.544.278.128.608.192.992.192.534 0 .96-.112 1.28-.336.331-.2347.576-.5813.736-1.04h1.728c-.096.448-.261.848-.496 1.2-.234.352-.517.6507-.848.896-.33.2347-.704.4107-1.12.528-.405.128-.832.192-1.28.192-.65 0-1.226-.1067-1.728-.32-.501-.2133-.928-.512-1.28-.896-.341-.384-.602-.8427-.784-1.376-.17-.5333-.256-1.12-.256-1.76 0-.5867.091-1.1413.272-1.664.192-.5333.459-.9973.8-1.392.352-.4053.774-.7253 1.264-.96.491-.2347 1.046-.352 1.664-.352.651 0 1.232.1387 1.744.416.523.2667.955.624 1.296 1.072.342.448.587.9653.736 1.552.16.576.203 1.1733.128 1.792z"/><path d="m124.236 59.152h1.728v1.216l.032.032c.277-.4587.64-.816 1.088-1.072.448-.2667.944-.4 1.488-.4.907 0 1.621.2347 2.144.704s.784 1.1733.784 2.112v5.68h-1.824v-5.2c-.021-.6507-.16-1.12-.416-1.408-.256-.2987-.656-.448-1.2-.448-.309 0-.587.0587-.832.176-.245.1067-.453.2613-.624.464-.171.192-.304.4213-.4.688s-.144.5493-.144.848v4.88h-1.824z"/><path d="m137.173 56h4.736c.874 0 1.632.1493 2.272.448s1.162.7093 1.568 1.232c.405.512.704 1.1147.896 1.808.202.6933.304 1.4347.304 2.224s-.102 1.5307-.304 2.224c-.192.6933-.491 1.3013-.896 1.824-.406.512-.928.9173-1.568 1.216s-1.398.448-2.272.448h-4.736zm2 9.792h1.968c.778 0 1.413-.1013 1.904-.304.501-.2133.89-.5013 1.168-.864.288-.3733.48-.8053.576-1.296.106-.5013.16-1.04.16-1.616s-.054-1.1093-.16-1.6c-.096-.5013-.288-.9333-.576-1.296-.278-.3733-.667-.6613-1.168-.864-.491-.2133-1.126-.32-1.904-.32h-1.968z"/><path d="m153.663 62.56c-.021-.288-.085-.5653-.192-.832-.096-.2667-.234-.496-.416-.688-.17-.2027-.384-.3627-.64-.48-.245-.128-.522-.192-.832-.192-.32 0-.613.0587-.88.176-.256.1067-.48.2613-.672.464-.181.192-.33.4213-.448.688-.106.2667-.165.5547-.176.864zm-4.256 1.2c0 .32.043.6293.128.928.096.2987.235.56.416.784.182.224.411.4053.688.544.278.128.608.192.992.192.534 0 .96-.112 1.28-.336.331-.2347.576-.5813.736-1.04h1.728c-.096.448-.261.848-.496 1.2-.234.352-.517.6507-.848.896-.33.2347-.704.4107-1.12.528-.405.128-.832.192-1.28.192-.65 0-1.226-.1067-1.728-.32-.501-.2133-.928-.512-1.28-.896-.341-.384-.602-.8427-.784-1.376-.17-.5333-.256-1.12-.256-1.76 0-.5867.091-1.1413.272-1.664.192-.5333.459-.9973.8-1.392.352-.4053.774-.7253 1.264-.96.491-.2347 1.046-.352 1.664-.352.651 0 1.232.1387 1.744.416.523.2667.955.624 1.296 1.072.342.448.587.9653.736 1.552.16.576.203 1.1733.128 1.792z"/><path d="m155.578 59.152h1.984l2.096 6.352h.032l2.016-6.352h1.888l-2.96 8.272h-2.048z"/><path d="m169.891 62.56c-.021-.288-.085-.5653-.192-.832-.096-.2667-.235-.496-.416-.688-.171-.2027-.384-.3627-.64-.48-.245-.128-.523-.192-.832-.192-.32 0-.613.0587-.88.176-.256.1067-.48.2613-.672.464-.181.192-.331.4213-.448.688-.107.2667-.165.5547-.176.864zm-4.256 1.2c0 .32.043.6293.128.928.096.2987.235.56.416.784s.411.4053.688.544c.277.128.608.192.992.192.533 0 .96-.112 1.28-.336.331-.2347.576-.5813.736-1.04h1.728c-.096.448-.261.848-.496 1.2s-.517.6507-.848.896c-.331.2347-.704.4107-1.12.528-.405.128-.832.192-1.28.192-.651 0-1.227-.1067-1.728-.32s-.928-.512-1.28-.896c-.341-.384-.603-.8427-.784-1.376-.171-.5333-.256-1.12-.256-1.76 0-.5867.091-1.1413.272-1.664.192-.5333.459-.9973.8-1.392.352-.4053.773-.7253 1.264-.96s1.045-.352 1.664-.352c.651 0 1.232.1387 1.744.416.523.2667.955.624 1.296 1.072s.587.9653.736 1.552c.16.576.203 1.1733.128 1.792z"/><path d="m172.669 56h1.824v11.424h-1.824z"/><path d="m179.793 67.648c-.661 0-1.253-.1067-1.776-.32-.512-.224-.949-.528-1.312-.912-.352-.384-.624-.8427-.816-1.376-.181-.5333-.272-1.12-.272-1.76 0-.6293.091-1.2107.272-1.744.192-.5333.464-.992.816-1.376.363-.384.8-.6827 1.312-.896.523-.224 1.115-.336 1.776-.336s1.248.112 1.76.336c.523.2133.96.512 1.312.896.363.384.635.8427.816 1.376.192.5333.288 1.1147.288 1.744 0 .64-.096 1.2267-.288 1.76-.181.5333-.453.992-.816 1.376-.352.384-.789.688-1.312.912-.512.2133-1.099.32-1.76.32zm0-1.44c.405 0 .757-.0853 1.056-.256s.544-.3947.736-.672.331-.5867.416-.928c.096-.352.144-.7093.144-1.072 0-.352-.048-.704-.144-1.056-.085-.352-.224-.6613-.416-.928-.192-.2773-.437-.5013-.736-.672s-.651-.256-1.056-.256-.757.0853-1.056.256-.544.3947-.736.672c-.192.2667-.336.576-.432.928-.085.352-.128.704-.128 1.056 0 .3627.043.72.128 1.072.096.3413.24.6507.432.928s.437.5013.736.672.651.256 1.056.256z"/><path d="m185.053 59.152h1.728v1.12h.032c.256-.48.614-.8213 1.072-1.024.459-.2133.955-.32 1.488-.32.651 0 1.216.1173 1.696.352.491.224.896.5387 1.216.944.32.3947.56.8587.72 1.392s.24 1.104.24 1.712c0 .5547-.074 1.0933-.224 1.616-.138.5227-.357.9867-.656 1.392-.288.3947-.656.7147-1.104.96-.448.2347-.976.352-1.584.352-.266 0-.533-.0267-.8-.08-.266-.0427-.522-.1173-.768-.224-.245-.1067-.474-.24-.688-.4-.202-.1707-.373-.368-.512-.592h-.032v4.128h-1.824zm6.368 4.144c0-.3733-.048-.736-.144-1.088s-.24-.6613-.432-.928c-.192-.2773-.432-.496-.72-.656-.288-.1707-.618-.256-.992-.256-.768 0-1.349.2667-1.744.8-.384.5333-.576 1.2427-.576 2.128 0 .416.048.8053.144 1.168.107.352.262.656.464.912.203.256.443.4587.72.608.288.1493.619.224.992.224.416 0 .768-.0853 1.056-.256s.523-.3893.704-.656c.192-.2773.326-.5867.4-.928.086-.352.128-.7093.128-1.072z"/><path d="m194.307 59.152h1.728v1.152h.047c.139-.2027.289-.3893.449-.56s.336-.3147.528-.432c.202-.1173.431-.208.687-.272.256-.0747.55-.112.88-.112.502 0 .966.112 1.392.336.438.224.747.5707.929 1.04.309-.4267.666-.7627 1.071-1.008.406-.2453.912-.368 1.52-.368.875 0 1.552.2133 2.032.64.491.4267.737 1.1413.737 2.144v5.712h-1.825v-4.832c0-.3307-.01-.6293-.031-.896-.022-.2773-.086-.512-.193-.704-.096-.2027-.245-.3573-.447-.464-.203-.1067-.48-.16-.832-.16-.619 0-1.067.192-1.345.576-.277.384-.416.928-.416 1.632v4.848h-1.823v-5.312c0-.576-.107-1.008-.321-1.296-.202-.2987-.581-.448-1.136-.448-.234 0-.463.048-.687.144-.214.096-.406.2347-.577.416-.16.1813-.293.4053-.4.672-.096.2667-.144.5707-.144.912v4.912h-1.823z"/><path d="m213.428 62.56c-.021-.288-.085-.5653-.192-.832-.096-.2667-.234-.496-.416-.688-.17-.2027-.384-.3627-.64-.48-.245-.128-.522-.192-.832-.192-.32 0-.613.0587-.88.176-.256.1067-.48.2613-.672.464-.181.192-.33.4213-.448.688-.106.2667-.165.5547-.176.864zm-4.256 1.2c0 .32.043.6293.128.928.096.2987.235.56.416.784.182.224.411.4053.688.544.278.128.608.192.992.192.534 0 .96-.112 1.28-.336.331-.2347.576-.5813.736-1.04h1.728c-.096.448-.261.848-.496 1.2-.234.352-.517.6507-.848.896-.33.2347-.704.4107-1.12.528-.405.128-.832.192-1.28.192-.65 0-1.226-.1067-1.728-.32-.501-.2133-.928-.512-1.28-.896-.341-.384-.602-.8427-.784-1.376-.17-.5333-.256-1.12-.256-1.76 0-.5867.091-1.1413.272-1.664.192-.5333.459-.9973.8-1.392.352-.4053.774-.7253 1.264-.96.491-.2347 1.046-.352 1.664-.352.651 0 1.232.1387 1.744.416.523.2667.955.624 1.296 1.072.342.448.587.9653.736 1.552.16.576.203 1.1733.128 1.792z"/><path d="m216.159 59.152h1.728v1.216l.032.032c.277-.4587.64-.816 1.088-1.072.448-.2667.944-.4 1.488-.4.907 0 1.621.2347 2.144.704s.784 1.1733.784 2.112v5.68h-1.824v-5.2c-.021-.6507-.16-1.12-.416-1.408-.256-.2987-.656-.448-1.2-.448-.309 0-.587.0587-.832.176-.245.1067-.453.2613-.624.464-.171.192-.304.4213-.4.688s-.144.5493-.144.848v4.88h-1.824z"/><path d="m224.035 59.152h1.375v-2.48h1.824v2.48h1.648v1.36h-1.648v4.416c0 .192.006.3573.016.496.022.1387.059.256.112.352.064.096.155.1707.272.224.118.0427.278.064.481.064h.383c.128-.0107.256-.032.384-.064v1.408c-.202.0213-.4.0427-.592.064s-.389.032-.591.032c-.48 0-.87-.0427-1.169-.128-.288-.096-.517-.2293-.688-.4-.16-.1813-.271-.4053-.335-.672-.054-.2667-.086-.5707-.097-.912v-4.88h-1.375z"/><path d="m84.2527 87.424 2.608-8.272h-2.336l-1.52 5.6h-.032l-1.4079-5.6h-2.208l-1.376 5.616h-.0321l-1.52-5.616h-2.3999l2.6239 8.272h2.352l1.4081-5.552h.0319l1.472 5.552z"/><path d="m89.684 77.872v-1.872h-2.272v1.872zm-2.272 1.28v8.272h2.272v-8.272z"/><path d="m93.873 79.152v-2.48h-2.272v2.48h-1.376v1.52h1.376v4.88c0 .416.0693.752.208 1.008s.3253.4533.56.592c.2453.1387.5227.2293.832.272.32.0533.656.08 1.008.08.224 0 .4533-.0053.688-.016s.448-.032.64-.064v-1.76c-.1067.0213-.2187.0373-.336.048s-.24.016-.368.016c-.384 0-.64-.064-.768-.192s-.192-.384-.192-.768v-4.096h1.664v-1.52z"/><path d="m96.138 76v11.424h2.272v-4.336c0-.8427.1387-1.4453.416-1.808.2773-.3733.7253-.56 1.344-.56.544 0 .923.1707 1.136.512.213.3307.32.8373.32 1.52v4.672h2.272v-5.088c0-.512-.048-.976-.144-1.392-.085-.4267-.24-.784-.464-1.072-.224-.2987-.533-.528-.928-.688-.384-.1707-.88-.256-1.488-.256-.427 0-.864.112-1.312.336-.448.2133-.816.56-1.104 1.04h-.048v-4.304z"/><path d="m109.355 76v11.424h2.512v-4.72h4.784v-1.952h-4.784v-2.64h5.52v-2.112z"/><path d="m118.024 81.696c.032-.5333.165-.976.4-1.328s.533-.6347.896-.848.768-.3627 1.216-.448c.459-.096.917-.144 1.376-.144.416 0 .837.032 1.264.096.427.0533.816.1653 1.168.336s.64.4107.864.72c.224.2987.336.6987.336 1.2v4.304c0 .3733.021.7307.064 1.072s.117.5973.224.768h-2.304c-.043-.128-.08-.256-.112-.384-.021-.1387-.037-.2773-.048-.416-.363.3733-.789.6347-1.28.784s-.992.224-1.504.224c-.395 0-.763-.048-1.104-.144s-.64-.2453-.896-.448-.459-.4587-.608-.768c-.139-.3093-.208-.6773-.208-1.104 0-.4693.08-.8533.24-1.152.171-.3093.384-.5547.64-.736.267-.1813.565-.3147.896-.4.341-.096.683-.1707 1.024-.224s.677-.096 1.008-.128.624-.08.88-.144.459-.1547.608-.272c.149-.128.219-.3093.208-.544 0-.2453-.043-.4373-.128-.576-.075-.1493-.181-.2613-.32-.336-.128-.0853-.283-.1387-.464-.16-.171-.032-.357-.048-.56-.048-.448 0-.8.096-1.056.288s-.405.512-.448.96zm5.248 1.68c-.096.0853-.219.1547-.368.208-.139.0427-.293.08-.464.112-.16.032-.331.0587-.512.08s-.363.048-.544.08c-.171.032-.341.0747-.512.128-.16.0533-.304.128-.432.224-.117.0853-.213.1973-.288.336s-.112.3147-.112.528c0 .2027.037.3733.112.512s.176.2507.304.336c.128.0747.277.128.448.16s.347.048.528.048c.448 0 .795-.0747 1.04-.224s.427-.3253.544-.528c.117-.2133.187-.4267.208-.64.032-.2133.048-.384.048-.512z"/><path d="m128.587 84.736h-2.16c.022.5547.144 1.0187.368 1.392.235.3627.528.656.88.88.363.224.774.384 1.232.48.459.096.928.144 1.408.144.47 0 .928-.048 1.376-.144.459-.0853.864-.24 1.216-.464s.635-.5173.848-.88c.224-.3733.336-.832.336-1.376 0-.384-.074-.704-.224-.96-.149-.2667-.346-.4853-.592-.656-.245-.1813-.528-.3253-.848-.432-.309-.1067-.629-.1973-.96-.272-.32-.0747-.634-.144-.944-.208-.309-.064-.586-.1333-.832-.208-.234-.0853-.426-.192-.576-.32-.149-.128-.224-.2933-.224-.496 0-.1707.043-.304.128-.4.086-.1067.187-.1867.304-.24.128-.0533.267-.0853.416-.096.15-.0213.288-.032.416-.032.406 0 .758.08 1.056.24.299.1493.464.4427.496.88h2.16c-.042-.512-.176-.9333-.4-1.264-.213-.3413-.485-.6133-.816-.816-.33-.2027-.709-.3467-1.136-.432-.416-.0853-.848-.128-1.296-.128s-.885.0427-1.312.128c-.426.0747-.81.2133-1.152.416-.341.192-.618.4587-.832.8-.202.3413-.304.7787-.304 1.312 0 .3627.075.672.224.928.15.2453.347.4533.592.624.246.16.523.2933.832.4.32.096.646.1813.976.256.811.1707 1.44.3413 1.888.512.459.1707.688.4267.688.768 0 .2027-.048.3733-.144.512-.096.128-.218.2347-.368.32-.138.0747-.298.1333-.48.176-.17.032-.336.048-.496.048-.224 0-.442-.0267-.656-.08-.202-.0533-.384-.1333-.544-.24-.16-.1173-.293-.2613-.4-.432-.096-.1813-.144-.3947-.144-.64z"/><path d="m137.821 79.152v-2.48h-2.272v2.48h-1.376v1.52h1.376v4.88c0 .416.069.752.208 1.008s.325.4533.56.592c.245.1387.523.2293.832.272.32.0533.656.08 1.008.08.224 0 .453-.0053.688-.016s.448-.032.64-.064v-1.76c-.107.0213-.219.0373-.336.048s-.24.016-.368.016c-.384 0-.64-.064-.768-.192s-.192-.384-.192-.768v-4.096h1.664v-1.52z"/><path d="m143.206 83.008 1.488-4.192h.032l1.44 4.192zm.24-7.008-4.32 11.424h2.528l.896-2.544h4.272l.864 2.544h2.608l-4.272-11.424z"/><path d="m153.311 81.376v-3.424h1.952c.288 0 .566.0213.832.064.267.0427.502.128.704.256.203.1173.363.288.48.512.128.224.192.5173.192.88s-.064.656-.192.88c-.117.224-.277.4-.48.528-.202.1173-.437.1973-.704.24-.266.0427-.544.064-.832.064zm-2.512-5.376v11.424h2.512v-4.096h2.64c.715 0 1.323-.1013 1.824-.304.502-.2133.907-.4907 1.216-.832.32-.3413.55-.7307.688-1.168.15-.448.224-.9013.224-1.36 0-.4693-.074-.9227-.224-1.36-.138-.4373-.368-.8267-.688-1.168-.309-.3413-.714-.6133-1.216-.816-.501-.2133-1.109-.32-1.824-.32z"/><path d="m160.991 76v11.424h2.512v-11.424z"/></g><g mask="url(#b)" opacity=".2"><path d="m0 0h1198.65v65.9421h-1198.65z" fill="#99bbba" transform="matrix(.896296 .443456 .060731 -.998154 -297.852 -107.92)"/><path d="m0 0h1198.65v62.9447h-1198.65z" fill="#dfe9e9" transform="matrix(.896296 .443456 .060731 -.998154 -301.675 -45.0913)"/></g></g></svg>