<?xml version="1.0" encoding="UTF-8" standalone="no"?>
<svg
   xmlns:dc="http://purl.org/dc/elements/1.1/"
   xmlns:cc="http://creativecommons.org/ns#"
   xmlns:rdf="http://www.w3.org/1999/02/22-rdf-syntax-ns#"
   xmlns:svg="http://www.w3.org/2000/svg"
   xmlns="http://www.w3.org/2000/svg"
   width="63.5mm"
   height="26.458334mm"
   viewBox="0 0 63.5 26.458334"
   version="1.1"
   id="svg975">
  <defs
     id="defs969">
    <clipPath
       id="clip0">
      <rect
         width="770"
         height="222.03999"
         fill="#ffffff"
         id="rect14"
         x="0"
         y="0" />
    </clipPath>
    <clipPath
       id="clip0-7">
      <rect
         width="770"
         height="222.03999"
         fill="#ffffff"
         id="rect14-5"
         x="0"
         y="0" />
    </clipPath>
  </defs>
  <metadata
     id="metadata972">
    <rdf:RDF>
      <cc:Work
         rdf:about="">
        <dc:format>image/svg+xml</dc:format>
        <dc:type
           rdf:resource="http://purl.org/dc/dcmitype/StillImage" />
        <dc:title></dc:title>
      </cc:Work>
    </rdf:RDF>
  </metadata>
  <g
     id="layer1"
     transform="translate(-75.455132,-135.96141)">
    <rect
       style="fill:#ffffff;fill-opacity:1;stroke:none;stroke-width:0.364576;stop-color:#000000"
       id="rect901"
       width="63.5"
       height="26.458334"
       x="75.455132"
       y="135.96141" />
    <rect
       style="fill:#ffffff;fill-opacity:1;stroke:none;stroke-width:0.404023;stop-color:#000000"
       id="rect1758"
       width="60.854168"
       height="23.8125"
       x="76.778053"
       y="137.28433" />
    <text
       xml:space="preserve"
       style="font-size:4.23333px;line-height:1.25;font-family:sans-serif;letter-spacing:0px;word-spacing:0px;fill:#000000;stroke-width:0.133861"
       x="107.22684"
       y="154.45795"
       id="text1712"><tspan
         x="107.22684"
         y="154.45795"
         style="font-style:normal;font-variant:normal;font-weight:normal;font-stretch:normal;font-size:4.23333px;font-family:Roboto;-inkscape-font-specification:Roboto;text-align:center;text-anchor:middle;fill:#000000;stroke-width:0.133861"
         id="tspan2004">We deal in big ideas. You in?</tspan><tspan
         x="107.22684"
         y="159.79095"
         style="font-style:normal;font-variant:normal;font-weight:normal;font-stretch:normal;font-size:4.23333px;font-family:Roboto;-inkscape-font-specification:Roboto;text-align:center;text-anchor:middle;fill:#000000;stroke-width:0.133861"
         id="tspan874" /></text>
    <g
       id="g1003"
       transform="matrix(0.02061785,0,0,0.02061785,70.802235,134.33866)">
      <g
         id="g1015"
         transform="translate(4.0510205)">
        <path
           d="m 900.5,226.1 c -21.9,23 -28.6,35.3 -44.3,70.1 L 710.9,630 608.2,396.1 506.6,630 360.2,296.2 c -15.2,-34.8 -21.9,-46 -44.3,-70.1 h 185.7 c -14,11.8 -21.3,26.9 -21.3,46 0,13.4 2.3,23 9.5,40.4 l 55.5,132.4 41,-98.7 -23,-53.3 c -13.5,-30.8 -23,-49.9 -36.5,-66.7 h 185.7 c -18,11.8 -26.9,26.9 -26.9,46 0,13.4 2.3,23 9.5,40.4 L 751.8,445 807.9,312.6 c 7.3,-17.4 10.1,-26.9 10.1,-39.8 0,-16.8 -11.8,-37 -25.3,-46.5 z"
           id="path966" />
        <path
           d="m 1093.5,523.4 c -18,78 -61.2,103.8 -124,103.8 -71.8,0 -139.2,-52.2 -139.2,-150.3 0,-94.2 59.5,-161 137.5,-161 51.1,0 122.9,26.4 122.9,137.4 H 921.3 c 11.8,59.4 50.5,90.3 104.4,90.3 27.4,0 46.5,-5 67.8,-20.2 z M 917.9,414.6 v 7.3 H 992 c 0,-56.1 -12.4,-73.5 -35.9,-73.5 -24.2,0 -38.2,24.1 -38.2,66.2 z"
           id="path968" />
        <path
           d="M 1433.6,327.6 C 1387,283.3 1341,260.3 1305.7,260.3 v 247.4 c 0,49.9 12.9,80.2 47.1,111.1 h -212.1 c 34.2,-30.8 47.1,-61.1 47.1,-111.1 V 260.3 c -35.4,0 -83.6,23 -127.9,67.3 l 22.5,-118.4 c 15.2,11.8 43.2,16.8 74.6,16.8 h 179.6 c 31.4,0 59.5,-5.1 74.6,-16.8 z"
           id="path970" />
        <path
           d="m 1562.6,618.8 h -178.4 c 21.9,-25.8 31.4,-42.6 31.4,-83.6 v -90.9 c 0,-32 -4.5,-47.1 -25.8,-66.7 l -12.3,-11.2 134.7,-50.5 V 386 c 12.9,-40.4 33.1,-70.1 66.2,-70.1 26.9,0 44.3,19.1 44.3,47.1 0,29.7 -18.5,50.5 -44.3,50.5 -5.6,-12.9 -19.1,-19.1 -31.4,-19.1 -10.1,0 -19.6,2.8 -24.7,7.9 v 129.6 c -0.1,43.1 7.2,54.9 40.3,86.9 z"
           id="path972" />
        <path
           d="m 1931.3,567.2 c -6.7,35.3 -35.9,60 -75.8,60 -33.7,0 -59.5,-20.2 -67.3,-43.2 -16.8,30.3 -48.3,43.2 -81.9,43.2 -46.6,0 -78,-30.8 -78,-72.9 0,-49.4 35.4,-83.6 116.7,-103.2 l 37.6,-9 v -50.5 c 0,-31.4 -10.7,-44.3 -29.7,-44.3 -17.9,0 -29.7,11.8 -29.7,28 0,14 6.7,23 18.5,34.2 0,17.9 -28.1,36.4 -57.2,36.4 -28.6,0 -48.8,-21.9 -48.8,-48.8 0,-47.7 52.7,-81.3 130.2,-81.3 80.8,0 123.4,34.2 123.4,110.5 v 120.6 c 0,15.1 9,25.2 23,25.2 8.3,0.1 14.5,-1.6 19,-4.9 z m -148.7,-8.4 v -90.3 l -7.3,2.2 c -24.1,7.3 -40.4,23 -40.4,54.4 0,26.9 10.7,43.2 28.1,43.2 8.9,0 16.2,-2.8 19.6,-9.5 z"
           id="path974" />
        <path
           d="m 2083.3,618.8 h -150.9 c 15.7,-15.1 25.8,-37.6 25.8,-83.6 v -90.9 c 0,-30.8 -3.9,-46.5 -22.4,-63.9 l -12.9,-11.8 139.2,-52.7 v 43.7 c 16.3,-26.9 50.5,-43.7 84.7,-43.7 53.9,0 83.6,29.2 83.6,81.3 v 157.1 c 0,32 8.4,51.6 21.9,64.5 h -147 c 14.6,-14 18.5,-33.1 18.5,-48.2 V 410.1 c 0,-23.5 -7.8,-35.3 -29.7,-35.3 -12.3,0 -22.5,4.5 -29.2,11.2 v 184.5 c -0.1,15.2 3.8,33.7 18.4,48.3 z"
           id="path976" />
        <path
           d="m 2279.7,602.5 v -95.9 c 40.4,52.7 82.5,81.9 121.8,81.9 19.1,0 28.1,-10.1 28.1,-24.1 0,-13.5 -7.3,-21.3 -20.2,-26.4 l -65.1,-24.1 c -49.9,-18.5 -72.4,-49.4 -72.4,-95.3 0,-59.4 48.8,-102.6 118.4,-102.6 37.6,0 79.1,10.6 99.9,25.8 v 81.9 c -25.8,-45.4 -67.9,-70.7 -108.9,-70.7 -20.8,0 -31.4,6.7 -31.4,19.6 0,12.9 7.9,17.9 25.2,25.2 l 76.9,31.4 c 38.7,15.7 56.1,48.8 56.1,88.6 0,65.6 -47.7,109.4 -119.5,109.4 -36,0 -73,-7.9 -108.9,-24.7 z"
           id="path978" />
        <path
           d="m 2519.3,352.3 32.5,-49.9 c 41.5,-62.8 74.7,-93.1 130.8,-93.1 43.8,0 71.8,19.1 71.8,47.7 0,24.7 -20.2,42.6 -62.9,42.6 0,-34.8 -19.6,-47.7 -39.3,-47.7 -19.6,0 -34.8,14 -34.8,37 0,15.7 8.4,31.4 34.2,35.3 h 62.3 l -22.5,28 h -38.2 v 166.6 c 0,31.4 5.1,59.4 37.6,88.1 l 13.5,11.8 h -193.6 c 22.5,-22.4 35.9,-49.9 35.9,-90.3 V 352.3 Z"
           id="path980" />
        <path
           d="m 2959.2,523.4 c -18,78 -61.2,103.8 -124,103.8 -71.8,0 -139.2,-52.2 -139.2,-150.3 0,-94.2 59.5,-161 137.5,-161 51.1,0 122.9,26.4 122.9,137.4 H 2787 c 11.8,59.4 50.5,90.3 104.4,90.3 27.4,0 46.5,-5 67.8,-20.2 z M 2783.6,414.6 v 7.3 h 74.1 c 0,-56.1 -12.4,-73.5 -35.9,-73.5 -24.2,0 -38.2,24.1 -38.2,66.2 z"
           id="path982" />
        <path
           d="m 3147.2,618.8 h -178.4 c 21.9,-25.8 31.4,-42.6 31.4,-83.6 v -90.9 c 0,-32 -4.5,-47.1 -25.8,-66.7 L 2962,366.4 3096.7,315.9 V 386 c 12.9,-40.4 33.1,-70.1 66.2,-70.1 26.9,0 44.3,19.1 44.3,47.1 0,29.7 -18.5,50.5 -44.3,50.5 -5.6,-12.9 -19.1,-19.1 -31.4,-19.1 -10.1,0 -19.6,2.8 -24.7,7.9 v 129.6 c 0,43.1 7.3,54.9 40.4,86.9 z"
           id="path984" />
      </g>
    </g>
  </g>
</svg>
