<?xml version="1.0" encoding="UTF-8" standalone="no"?>
<svg
   xmlns:svg="http://www.w3.org/2000/svg"
   xmlns="http://www.w3.org/2000/svg"
   xmlns:xlink="http://www.w3.org/1999/xlink"
   version="1.1"
   width="216"
   height="114"
   fill="#049fd9"
   id="svg24">
  <path
     d="m 106.48,76.238 c -0.282,-0.077 -4.621,-1.196 -9.232,-1.196 -8.73,0 -13.986,4.714 -13.986,11.734 0,6.214 4.397,9.313 9.674,10.98 0.585,0.193 1.447,0.463 2.021,0.653 2.349,0.739 4.224,1.837 4.224,3.739 0,2.127 -2.167,3.504 -6.878,3.504 -4.14,0 -8.109,-1.184 -8.945,-1.395 v 8.637 c 0.466,0.099 5.183,1.025 10.222,1.025 7.248,0 15.539,-3.167 15.539,-12.595 0,-4.573 -2.8,-8.783 -8.947,-10.737 L 97.559,89.755 C 96,89.263 93.217,88.466 93.217,86.181 c 0,-1.805 2.062,-3.076 5.859,-3.076 3.276,0 7.263,1.101 7.404,1.145 z m 80.041,18.243 c 0,5.461 -4.183,9.879 -9.796,9.879 -5.619,0 -9.791,-4.418 -9.791,-9.879 0,-5.45 4.172,-9.87 9.791,-9.87 5.613,0 9.796,4.42 9.796,9.87 m -9.796,-19.427 c -11.544,0 -19.823,8.707 -19.823,19.427 0,10.737 8.279,19.438 19.823,19.438 11.543,0 19.834,-8.701 19.834,-19.438 0,-10.72 -8.291,-19.427 -19.834,-19.427 M 70.561,113.251 H 61.089 V 75.719 h 9.472"
     id="path10" />
  <path
     d="m 48.07,76.399 c -0.89,-0.264 -4.18,-1.345 -8.636,-1.345 -11.526,0 -19.987,8.218 -19.987,19.427 0,12.093 9.34,19.438 19.987,19.438 4.23,0 7.459,-1.002 8.636,-1.336 v -10.075 c -0.407,0.226 -3.503,1.992 -7.957,1.992 -6.31,0 -10.38,-4.441 -10.38,-10.019 0,-5.748 4.246,-10.011 10.38,-10.011 4.53,0 7.576,1.805 7.957,2.004"
     id="path12" />
  <use
     xlink:href="#path12"
     transform="translate(98.86)"
     id="use14" />
  <g
     id="g22">
    <path
       d="m 61.061,4.759 c 0,-2.587 -2.113,-4.685 -4.703,-4.685 -2.589,0 -4.702,2.098 -4.702,4.685 v 49.84 c 0,2.602 2.113,4.699 4.702,4.699 2.59,0 4.703,-2.097 4.703,-4.699 z M 35.232,22.451 c 0,-2.586 -2.112,-4.687 -4.702,-4.687 -2.59,0 -4.702,2.101 -4.702,4.687 v 22.785 c 0,2.601 2.112,4.699 4.702,4.699 2.59,0 4.702,-2.098 4.702,-4.699 z M 9.404,35.383 C 9.404,32.796 7.292,30.699 4.702,30.699 2.115,30.699 0,32.796 0,35.383 v 9.853 c 0,2.601 2.115,4.699 4.702,4.699 2.59,0 4.702,-2.098 4.702,-4.699"
       id="path16" />
    <use
       xlink:href="#path16"
       transform="matrix(-1,0,0,1,112.717,0)"
       id="use18" />
  </g>
  <use
     xlink:href="#g22"
     transform="matrix(-1,0,0,1,216,0)"
     id="use20" />
</svg>
